<svg width="50" height="50" viewBox="0 0 50 50" fill="none" xmlns="http://www.w3.org/2000/svg">
<g clip-path="url(#clip0_450_8158)">
<g clip-path="url(#clip1_450_8158)">
<path d="M20.667 19.5833C20.667 20.7326 21.1235 21.8348 21.9362 22.6475C22.7489 23.4601 23.8511 23.9167 25.0003 23.9167C26.1496 23.9167 27.2518 23.4601 28.0645 22.6475C28.8771 21.8348 29.3337 20.7326 29.3337 19.5833C29.3337 18.4341 28.8771 17.3319 28.0645 16.5192C27.2518 15.7065 26.1496 15.25 25.0003 15.25C23.8511 15.25 22.7489 15.7065 21.9362 16.5192C21.1235 17.3319 20.667 18.4341 20.667 19.5833Z" stroke="#8E8E8E" stroke-width="1.2" stroke-linecap="round" stroke-linejoin="round"/>
<path d="M18.5 34.75V32.5833C18.5 31.4341 18.9565 30.3319 19.7692 29.5192C20.5819 28.7065 21.6841 28.25 22.8333 28.25H23.375" stroke="#8E8E8E" stroke-width="1.2" stroke-linecap="round" stroke-linejoin="round"/>
<path d="M31.2831 34.5516L28.9301 35.7844C28.8603 35.8208 28.7817 35.837 28.7032 35.8313C28.6247 35.8256 28.5493 35.7981 28.4855 35.7521C28.4217 35.706 28.3719 35.6431 28.3418 35.5704C28.3116 35.4977 28.3023 35.418 28.3148 35.3403L28.7644 32.7284L26.8609 30.8791C26.8041 30.8242 26.7639 30.7544 26.7448 30.6777C26.7258 30.601 26.7287 30.5205 26.7532 30.4454C26.7777 30.3703 26.8229 30.3035 26.8835 30.2529C26.9441 30.2022 27.0177 30.1695 27.096 30.1587L29.7264 29.7774L30.9029 27.4016C30.938 27.3308 30.9923 27.2713 31.0594 27.2297C31.1266 27.1881 31.2041 27.166 31.2831 27.166C31.3621 27.166 31.4396 27.1881 31.5068 27.2297C31.5739 27.2713 31.6282 27.3308 31.6634 27.4016L32.8399 29.7774L35.4702 30.1587C35.5482 30.1699 35.6216 30.2028 35.6819 30.2535C35.7423 30.3042 35.7872 30.3709 35.8117 30.4458C35.8361 30.5208 35.8391 30.6011 35.8203 30.6776C35.8015 30.7542 35.7617 30.824 35.7053 30.8791L33.8019 32.7284L34.2504 35.3392C34.2638 35.417 34.2552 35.4971 34.2254 35.5703C34.1957 35.6435 34.146 35.7069 34.082 35.7532C34.018 35.7996 33.9423 35.8271 33.8635 35.8326C33.7847 35.8381 33.7059 35.8214 33.6361 35.7844L31.2831 34.5516Z" stroke="#8E8E8E" stroke-width="1.2" stroke-linecap="round" stroke-linejoin="round"/>
</g>
<path d="M42.5 0.625H7.5C3.70304 0.625 0.625 3.70304 0.625 7.5V42.5C0.625 46.297 3.70304 49.375 7.5 49.375H42.5C46.297 49.375 49.375 46.297 49.375 42.5V7.5C49.375 3.70304 46.297 0.625 42.5 0.625Z" stroke="url(#paint0_linear_450_8158)"/>
</g>
<defs>
<linearGradient id="paint0_linear_450_8158" x1="20" y1="9.01592e-07" x2="36.875" y2="65" gradientUnits="userSpaceOnUse">
<stop stop-color="white"/>
<stop offset="1" stop-color="#D0D0D0"/>
</linearGradient>
<clipPath id="clip0_450_8158">
<rect width="50" height="50" fill="white"/>
</clipPath>
<clipPath id="clip1_450_8158">
<rect width="26" height="26" fill="white" transform="translate(12 12)"/>
</clipPath>
</defs>
</svg>
