<svg width="50" height="50" viewBox="0 0 50 50" fill="none" xmlns="http://www.w3.org/2000/svg">
<g clip-path="url(#clip0_450_8166)">
<g clip-path="url(#clip1_450_8166)">
<path d="M23.1854 16.6768C23.6469 14.7744 26.3531 14.7744 26.8146 16.6768C26.8838 16.9625 27.0196 17.2279 27.2108 17.4513C27.402 17.6747 27.6432 17.8498 27.9149 17.9624C28.1865 18.0749 28.4809 18.1218 28.7741 18.099C29.0673 18.0763 29.3509 17.9847 29.602 17.8316C31.2736 16.8132 33.1878 18.7264 32.1695 20.3991C32.0166 20.65 31.9252 20.9335 31.9025 21.2265C31.8798 21.5195 31.9266 21.8137 32.039 22.0852C32.1514 22.3567 32.3263 22.5978 32.5495 22.789C32.7726 22.9802 33.0377 23.116 33.3233 23.1854C35.2256 23.6469 35.2256 26.3531 33.3233 26.8146C33.0375 26.8838 32.7721 27.0196 32.5487 27.2108C32.3253 27.402 32.1502 27.6432 32.0376 27.9149C31.9251 28.1865 31.8782 28.4809 31.901 28.7741C31.9237 29.0673 32.0153 29.3509 32.1684 29.602C33.1868 31.2736 31.2736 33.1878 29.6009 32.1695C29.35 32.0166 29.0665 31.9252 28.7735 31.9025C28.4805 31.8798 28.1863 31.9266 27.9148 32.039C27.6433 32.1514 27.4022 32.3263 27.211 32.5495C27.0198 32.7726 26.884 33.0377 26.8146 33.3233C26.3531 35.2256 23.6469 35.2256 23.1854 33.3233C23.1162 33.0375 22.9804 32.7721 22.7892 32.5487C22.598 32.3253 22.3568 32.1502 22.0851 32.0376C21.8135 31.9251 21.5191 31.8782 21.2259 31.901C20.9327 31.9237 20.6491 32.0153 20.398 32.1684C18.7264 33.1868 16.8122 31.2736 17.8305 29.6009C17.9834 29.35 18.0748 29.0665 18.0975 28.7735C18.1202 28.4805 18.0734 28.1863 17.961 27.9148C17.8486 27.6433 17.6737 27.4022 17.4505 27.211C17.2274 27.0198 16.9623 26.884 16.6768 26.8146C14.7744 26.3531 14.7744 23.6469 16.6768 23.1854C16.9625 23.1162 17.2279 22.9804 17.4513 22.7892C17.6747 22.598 17.8498 22.3568 17.9624 22.0851C18.0749 21.8135 18.1218 21.5191 18.099 21.2259C18.0763 20.9327 17.9847 20.6491 17.8316 20.398C16.8132 18.7264 18.7264 16.8122 20.3991 17.8305C21.4824 18.4892 22.8864 17.9063 23.1854 16.6768Z" stroke="#8E8E8E" stroke-width="1.2" stroke-linecap="round" stroke-linejoin="round"/>
<path d="M21.75 25C21.75 25.862 22.0924 26.6886 22.7019 27.2981C23.3114 27.9076 24.138 28.25 25 28.25C25.862 28.25 26.6886 27.9076 27.2981 27.2981C27.9076 26.6886 28.25 25.862 28.25 25C28.25 24.138 27.9076 23.3114 27.2981 22.7019C26.6886 22.0924 25.862 21.75 25 21.75C24.138 21.75 23.3114 22.0924 22.7019 22.7019C22.0924 23.3114 21.75 24.138 21.75 25Z" stroke="#8E8E8E" stroke-width="1.2" stroke-linecap="round" stroke-linejoin="round"/>
</g>
<path d="M42.5 0.625H7.5C3.70304 0.625 0.625 3.70304 0.625 7.5V42.5C0.625 46.297 3.70304 49.375 7.5 49.375H42.5C46.297 49.375 49.375 46.297 49.375 42.5V7.5C49.375 3.70304 46.297 0.625 42.5 0.625Z" stroke="url(#paint0_linear_450_8166)"/>
</g>
<defs>
<linearGradient id="paint0_linear_450_8166" x1="20" y1="9.01592e-07" x2="36.875" y2="65" gradientUnits="userSpaceOnUse">
<stop stop-color="white"/>
<stop offset="1" stop-color="#D0D0D0"/>
</linearGradient>
<clipPath id="clip0_450_8166">
<rect width="50" height="50" fill="white"/>
</clipPath>
<clipPath id="clip1_450_8166">
<rect width="26" height="26" fill="white" transform="translate(12 12)"/>
</clipPath>
</defs>
</svg>
