<svg width="50" height="50" viewBox="0 0 50 50" fill="none" xmlns="http://www.w3.org/2000/svg">
<g clip-path="url(#clip0_612_2106)">
<g clip-path="url(#clip1_612_2106)">
<path d="M22.8335 17.4167C22.8335 17.9913 23.0618 18.5424 23.4681 18.9487C23.8744 19.3551 24.4255 19.5833 25.0002 19.5833C25.5748 19.5833 26.1259 19.3551 26.5322 18.9487C26.9386 18.5424 27.1668 17.9913 27.1668 17.4167C27.1668 16.842 26.9386 16.2909 26.5322 15.8846C26.1259 15.4783 25.5748 15.25 25.0002 15.25C24.4255 15.25 23.8744 15.4783 23.4681 15.8846C23.0618 16.2909 22.8335 16.842 22.8335 17.4167Z" stroke="#8E8E8E" stroke-width="1.2" stroke-linecap="round" stroke-linejoin="round"/>
<path d="M15.25 32.5832C15.25 33.1578 15.4783 33.7089 15.8846 34.1152C16.2909 34.5216 16.842 34.7498 17.4167 34.7498C17.9913 34.7498 18.5424 34.5216 18.9487 34.1152C19.3551 33.7089 19.5833 33.1578 19.5833 32.5832C19.5833 32.0085 19.3551 31.4574 18.9487 31.0511C18.5424 30.6448 17.9913 30.4165 17.4167 30.4165C16.842 30.4165 16.2909 30.6448 15.8846 31.0511C15.4783 31.4574 15.25 32.0085 15.25 32.5832Z" stroke="#8E8E8E" stroke-width="1.2" stroke-linecap="round" stroke-linejoin="round"/>
<path d="M30.4165 32.5832C30.4165 33.1578 30.6448 33.7089 31.0511 34.1152C31.4574 34.5216 32.0085 34.7498 32.5832 34.7498C33.1578 34.7498 33.7089 34.5216 34.1152 34.1152C34.5216 33.7089 34.7498 33.1578 34.7498 32.5832C34.7498 32.0085 34.5216 31.4574 34.1152 31.0511C33.7089 30.6448 33.1578 30.4165 32.5832 30.4165C32.0085 30.4165 31.4574 30.6448 31.0511 31.0511C30.6448 31.4574 30.4165 32.0085 30.4165 32.5832Z" stroke="#8E8E8E" stroke-width="1.2" stroke-linecap="round" stroke-linejoin="round"/>
<path d="M21.75 27.1665C21.75 28.0285 22.0924 28.8551 22.7019 29.4646C23.3114 30.0741 24.138 30.4165 25 30.4165C25.862 30.4165 26.6886 30.0741 27.2981 29.4646C27.9076 28.8551 28.25 28.0285 28.25 27.1665C28.25 26.3046 27.9076 25.4779 27.2981 24.8684C26.6886 24.2589 25.862 23.9165 25 23.9165C24.138 23.9165 23.3114 24.2589 22.7019 24.8684C22.0924 25.4779 21.75 26.3046 21.75 27.1665Z" stroke="#8E8E8E" stroke-width="1.2" stroke-linecap="round" stroke-linejoin="round"/>
<path d="M25 19.5835V23.9168" stroke="#8E8E8E" stroke-width="1.2" stroke-linecap="round" stroke-linejoin="round"/>
<path d="M19.2583 31.2834L22.2916 29.1167" stroke="#8E8E8E" stroke-width="1.2" stroke-linecap="round" stroke-linejoin="round"/>
<path d="M30.7418 31.2834L27.7085 29.1167" stroke="#8E8E8E" stroke-width="1.2" stroke-linecap="round" stroke-linejoin="round"/>
</g>
<path d="M42.5 0.625H7.5C3.70304 0.625 0.625 3.70304 0.625 7.5V42.5C0.625 46.297 3.70304 49.375 7.5 49.375H42.5C46.297 49.375 49.375 46.297 49.375 42.5V7.5C49.375 3.70304 46.297 0.625 42.5 0.625Z" stroke="url(#paint0_linear_612_2106)"/>
</g>
<defs>
<linearGradient id="paint0_linear_612_2106" x1="20" y1="9.01592e-07" x2="36.875" y2="65" gradientUnits="userSpaceOnUse">
<stop stop-color="white"/>
<stop offset="1" stop-color="#D0D0D0"/>
</linearGradient>
<clipPath id="clip0_612_2106">
<rect width="50" height="50" fill="white"/>
</clipPath>
<clipPath id="clip1_612_2106">
<rect width="26" height="26" fill="white" transform="translate(12 12)"/>
</clipPath>
</defs>
</svg>
