<svg width="50" height="50" viewBox="0 0 50 50" fill="none" xmlns="http://www.w3.org/2000/svg">
<g clip-path="url(#clip0_612_2085)">
<g clip-path="url(#clip1_612_2085)">
<path d="M22.2915 17.9583C22.2915 18.6766 22.5768 19.3655 23.0848 19.8734C23.5927 20.3813 24.2815 20.6667 24.9998 20.6667C25.7181 20.6667 26.407 20.3813 26.9149 19.8734C27.4228 19.3655 27.7082 18.6766 27.7082 17.9583C27.7082 17.24 27.4228 16.5512 26.9149 16.0433C26.407 15.5353 25.7181 15.25 24.9998 15.25C24.2815 15.25 23.5927 15.5353 23.0848 16.0433C22.5768 16.5512 22.2915 17.24 22.2915 17.9583Z" stroke="#8E8E8E" stroke-width="1.2" stroke-linecap="round" stroke-linejoin="round"/>
<path d="M25.0001 35.1486L30.5197 29.628C30.8336 29.3181 31.0832 28.9491 31.254 28.5424C31.4248 28.1356 31.5134 27.6992 31.5149 27.258C31.5163 26.8169 31.4305 26.3798 31.2623 25.972C31.0942 25.5642 30.847 25.1936 30.5351 24.8817C30.2231 24.5697 29.8526 24.3226 29.4448 24.1544C29.0369 23.9863 28.5999 23.9004 28.1587 23.9019C27.7176 23.9033 27.2811 23.992 26.8744 24.1628C26.4676 24.3335 26.0987 24.5831 25.7888 24.897L25.0001 25.6846L24.2115 24.897C23.9015 24.5831 23.5326 24.3335 23.1259 24.1628C22.7191 23.992 22.2826 23.9033 21.8415 23.9019C21.4004 23.9004 20.9633 23.9863 20.5555 24.1544C20.1477 24.3226 19.7771 24.5697 19.4652 24.8817C19.1532 25.1936 18.9061 25.5642 18.7379 25.972C18.5698 26.3798 18.4839 26.8169 18.4854 27.258C18.4868 27.6992 18.5755 28.1356 18.7463 28.5424C18.917 28.9491 19.1666 29.3181 19.4805 29.628L25.0001 35.1486Z" stroke="#8E8E8E" stroke-width="1.2" stroke-linecap="round" stroke-linejoin="round"/>
</g>
<path d="M42.5 0.625H7.5C3.70304 0.625 0.625 3.70304 0.625 7.5V42.5C0.625 46.297 3.70304 49.375 7.5 49.375H42.5C46.297 49.375 49.375 46.297 49.375 42.5V7.5C49.375 3.70304 46.297 0.625 42.5 0.625Z" stroke="url(#paint0_linear_612_2085)"/>
</g>
<defs>
<linearGradient id="paint0_linear_612_2085" x1="20" y1="9.01592e-07" x2="36.875" y2="65" gradientUnits="userSpaceOnUse">
<stop stop-color="white"/>
<stop offset="1" stop-color="#D0D0D0"/>
</linearGradient>
<clipPath id="clip0_612_2085">
<rect width="50" height="50" fill="white"/>
</clipPath>
<clipPath id="clip1_612_2085">
<rect width="26" height="26" fill="white" transform="translate(12 12)"/>
</clipPath>
</defs>
</svg>
