<svg width="50" height="50" viewBox="0 0 50 50" fill="none" xmlns="http://www.w3.org/2000/svg">
<g clip-path="url(#clip0_612_2077)">
<g clip-path="url(#clip1_612_2077)">
<path d="M25.0002 15.25C27.5307 17.4888 30.8334 18.6544 34.2086 18.5C34.7 20.1716 34.8503 21.9249 34.6507 23.6558C34.4511 25.3866 33.9056 27.0597 33.0466 28.5756C32.1876 30.0914 31.0327 31.4192 29.6504 32.4799C28.2681 33.5405 26.6867 34.3126 25.0002 34.75C23.3137 34.3126 21.7323 33.5405 20.3501 32.4799C18.9678 31.4192 17.8129 30.0914 16.9539 28.5756C16.0949 27.0597 15.5494 25.3866 15.3498 23.6558C15.1501 21.9249 15.3005 20.1716 15.7919 18.5C19.167 18.6544 22.4697 17.4888 25.0002 15.25Z" stroke="#8E8E8E" stroke-width="1.2" stroke-linecap="round" stroke-linejoin="round"/>
<path d="M23.9165 23.9166C23.9165 24.2039 24.0306 24.4795 24.2338 24.6826C24.437 24.8858 24.7125 24.9999 24.9998 24.9999C25.2872 24.9999 25.5627 24.8858 25.7659 24.6826C25.969 24.4795 26.0832 24.2039 26.0832 23.9166C26.0832 23.6293 25.969 23.3537 25.7659 23.1506C25.5627 22.9474 25.2872 22.8333 24.9998 22.8333C24.7125 22.8333 24.437 22.9474 24.2338 23.1506C24.0306 23.3537 23.9165 23.6293 23.9165 23.9166Z" stroke="#8E8E8E" stroke-width="1.2" stroke-linecap="round" stroke-linejoin="round"/>
<path d="M25 25V27.7083" stroke="#8E8E8E" stroke-width="1.2" stroke-linecap="round" stroke-linejoin="round"/>
</g>
<path d="M42.5 0.625H7.5C3.70304 0.625 0.625 3.70304 0.625 7.5V42.5C0.625 46.297 3.70304 49.375 7.5 49.375H42.5C46.297 49.375 49.375 46.297 49.375 42.5V7.5C49.375 3.70304 46.297 0.625 42.5 0.625Z" stroke="url(#paint0_linear_612_2077)"/>
</g>
<defs>
<linearGradient id="paint0_linear_612_2077" x1="20" y1="9.01592e-07" x2="36.875" y2="65" gradientUnits="userSpaceOnUse">
<stop stop-color="white"/>
<stop offset="1" stop-color="#D0D0D0"/>
</linearGradient>
<clipPath id="clip0_612_2077">
<rect width="50" height="50" fill="white"/>
</clipPath>
<clipPath id="clip1_612_2077">
<rect width="26" height="26" fill="white" transform="translate(12 12)"/>
</clipPath>
</defs>
</svg>
