<svg width="158" height="52" viewBox="0 0 158 52" fill="none" xmlns="http://www.w3.org/2000/svg">
<g clip-path="url(#clip0_450_5823)">
<rect x="0.36792" y="0.233398" width="157" height="51" rx="8" fill="white"/>
<path fill-rule="evenodd" clip-rule="evenodd" d="M9.25239 49.372L9.26105 49.3722C9.6536 49.3811 10.037 49.3861 10.4284 49.3861L146.35 49.3888L147.802 49.3861C148.185 49.3861 148.58 49.3811 148.958 49.3723L148.969 49.372L148.979 49.3719C149.722 49.3629 150.463 49.2983 151.197 49.1788C151.789 49.0779 152.361 48.8888 152.896 48.6179C153.411 48.3559 153.881 48.0125 154.289 47.5998L154.296 47.5932L154.302 47.5867C154.71 47.1822 155.052 46.7168 155.313 46.2082C155.581 45.6768 155.764 45.1076 155.858 44.52L155.859 44.5129L155.861 44.5058C155.983 43.7791 156.051 43.044 156.064 42.3065C156.069 41.9119 156.069 41.5267 156.069 41.0912V41.0706L156.07 41.0499C156.08 40.5963 156.08 40.143 156.08 39.654V11.6795C156.08 11.1959 156.08 10.738 156.07 10.2595L156.069 10.2398V10.2202C156.069 9.81625 156.069 9.42249 156.065 9.0577C156.051 8.30426 155.981 7.55238 155.858 6.80806C155.762 6.22509 155.579 5.66212 155.317 5.1375C154.783 4.09823 153.937 3.25029 152.897 2.71233C152.362 2.44439 151.788 2.25642 151.196 2.15532C150.468 2.03611 149.732 1.97182 148.994 1.96305L148.99 1.96301L147.796 1.94621H10.4414L9.24572 1.96239C8.49965 1.97163 7.75531 2.0366 7.01894 2.15676C6.43562 2.2561 5.87042 2.44205 5.34208 2.70844C4.82304 2.97494 4.34887 3.32099 3.93677 3.73406L3.92987 3.74098C3.52095 4.14653 3.18034 4.61554 2.92127 5.12987L2.91967 5.13305C2.6506 5.66468 2.46434 6.23433 2.36734 6.82227L2.36713 6.82358C2.24531 7.55862 2.17959 8.30186 2.17054 9.04686L2.17035 9.06221L2.16991 9.07755C2.16646 9.19758 2.16172 9.48192 2.15772 9.75149L2.15104 10.2321V41.0867L2.15276 41.2254C2.15392 41.3172 2.15556 41.4423 2.15746 41.5761C2.16137 41.851 2.16607 42.1397 2.16978 42.2628L2.17026 42.2789L2.17046 42.2949C2.17992 43.0414 2.24605 43.7861 2.36829 44.5226L2.36853 44.5241C2.46517 45.1093 2.65094 45.6763 2.91937 46.2052L2.92086 46.2082C3.18004 46.7212 3.5214 47.1883 3.9313 47.5909L3.93997 47.5994L3.94852 47.6081C4.35479 48.0178 4.82438 48.3595 5.33938 48.6202C5.8706 48.8888 6.43889 49.0771 7.02573 49.1791C7.75925 49.2978 8.5006 49.3622 9.24373 49.3719L9.25239 49.372ZM6.72118 50.9974C5.95072 50.8647 5.20434 50.618 4.50669 50.2651C3.81542 49.9151 3.18493 49.4564 2.63938 48.9062C2.08592 48.3626 1.62513 47.732 1.2753 47.0396C0.921608 46.3427 0.676826 45.5956 0.549496 44.8245C0.41198 43.9959 0.337582 43.1581 0.326942 42.3182C0.318467 42.0363 0.307373 41.0977 0.307373 41.0977V10.2202C0.307373 10.2202 0.319189 9.29599 0.327009 9.02447C0.337194 8.18596 0.411165 7.34944 0.548266 6.52215C0.675836 5.74892 0.920793 4.99972 1.27469 4.30049C1.62323 3.60852 2.08145 2.97751 2.63158 2.43191C3.18108 1.88112 3.81359 1.41995 4.50603 1.06521C5.20208 0.713513 5.94704 0.468423 6.71596 0.338152C7.54494 0.202569 8.38293 0.129267 9.22288 0.11886L10.429 0.102539H147.796L149.016 0.119515C149.849 0.129405 150.679 0.202053 151.499 0.336842C152.276 0.468757 153.03 0.715558 153.733 1.06913C155.12 1.78404 156.25 2.91508 156.961 4.30375C157.31 4.99816 157.551 5.74125 157.678 6.5078C157.815 7.34187 157.893 8.18497 157.909 9.03035C157.913 9.40889 157.913 9.81551 157.913 10.2202C157.923 10.7214 157.923 11.1985 157.923 11.6795V39.654C157.923 40.1396 157.923 40.6135 157.913 41.0912C157.913 41.5259 157.913 41.9241 157.907 42.3339C157.893 43.1642 157.817 43.9923 157.679 44.8114C157.555 45.5881 157.311 46.3409 156.957 47.0436C156.606 47.7285 156.147 48.3537 155.6 48.8958C155.054 49.4489 154.423 49.9103 153.729 50.2625C153.027 50.6181 152.276 50.8658 151.499 50.9974C150.673 51.1324 149.838 51.2053 149.001 51.2154C148.61 51.2245 148.201 51.2298 147.802 51.2298L146.353 51.2324L10.4283 51.2298C10.0211 51.2298 9.62365 51.2245 9.21959 51.2154C8.38254 51.2045 7.54745 51.1316 6.72118 50.9974Z" fill="black"/>
<path d="M32.5531 25.52C32.5681 24.3598 32.8763 23.2223 33.4489 22.2133C34.0217 21.2041 34.8403 20.3564 35.8287 19.7487C35.2009 18.852 34.3724 18.1139 33.4095 17.5932C32.4464 17.0726 31.3752 16.7838 30.281 16.7495C27.947 16.5045 25.6841 18.1462 24.4947 18.1462C23.2823 18.1462 21.4509 16.7739 19.479 16.8144C18.2034 16.8557 16.9602 17.2266 15.8707 17.891C14.781 18.5555 13.8822 19.4909 13.2616 20.6061C10.5734 25.2603 12.5786 32.1005 15.1537 35.8627C16.4421 37.705 17.9478 39.7628 19.9181 39.6898C21.8461 39.6099 22.5661 38.4604 24.8934 38.4604C27.199 38.4604 27.8745 39.6898 29.8847 39.6434C31.9536 39.6099 33.2571 37.793 34.5002 35.9334C35.426 34.6207 36.1383 33.17 36.6108 31.6348C35.4089 31.1264 34.3833 30.2755 33.6616 29.1881C32.9401 28.1007 32.5546 26.825 32.5531 25.52Z" fill="black"/>
<path d="M28.7575 14.2742C29.8855 12.9202 30.4413 11.1796 30.3067 9.42236C28.5834 9.60336 26.9915 10.427 25.8483 11.7292C25.2893 12.3653 24.8612 13.1054 24.5883 13.9072C24.3155 14.7088 24.2035 15.5565 24.2585 16.4015C25.1205 16.4103 25.9733 16.2235 26.7525 15.8551C27.5318 15.4866 28.2174 14.9462 28.7575 14.2742Z" fill="black"/>
<path d="M55.6851 35.2094H49.3582L47.8388 39.6958H45.1589L51.1517 23.0972H53.936L59.9287 39.6958H57.2033L55.6851 35.2094ZM50.0135 33.1391H55.0287L52.5564 25.858H52.4872L50.0135 33.1391Z" fill="black"/>
<path d="M72.8699 33.6452C72.8699 37.4058 70.857 39.8219 67.8196 39.8219C67.0501 39.8623 66.2848 39.6851 65.6114 39.3105C64.938 38.9361 64.3837 38.3796 64.012 37.7047H63.9545V43.6988H61.4705V27.5937H63.8748V29.6065H63.9206C64.3094 28.9349 64.8732 28.3812 65.5517 28.0045C66.2302 27.6277 66.9982 27.4421 67.7739 27.4671C70.8454 27.4671 72.8699 29.895 72.8699 33.6452ZM70.3166 33.6452C70.3166 31.1951 69.0505 29.5843 67.1186 29.5843C65.2206 29.5843 63.9441 31.229 63.9441 33.6452C63.9441 36.0836 65.2206 37.7166 67.1186 37.7166C69.0505 37.7166 70.3166 36.1175 70.3166 33.6452Z" fill="black"/>
<path d="M86.1899 33.6452C86.1899 37.4058 84.1765 39.8219 81.1389 39.8219C80.3695 39.8623 79.6043 39.6851 78.9309 39.3105C78.2575 38.9361 77.7032 38.3796 77.3313 37.7047H77.2738V43.6988H74.7898V27.5937H77.1942V29.6065H77.2399C77.6289 28.9349 78.1925 28.3812 78.871 28.0045C79.5496 27.6277 80.3175 27.4421 81.0932 27.4671C84.1647 27.4671 86.1899 29.895 86.1899 33.6452ZM83.6361 33.6452C83.6361 31.1951 82.3699 29.5843 80.438 29.5843C78.5401 29.5843 77.2634 31.229 77.2634 33.6452C77.2634 36.0836 78.5401 37.7166 80.438 37.7166C82.3699 37.7166 83.6361 36.1175 83.6361 33.6452Z" fill="black"/>
<path d="M94.9938 35.0709C95.1778 36.7169 96.7769 37.7977 98.9619 37.7977C101.056 37.7977 102.562 36.7169 102.562 35.2327C102.562 33.9444 101.654 33.1729 99.5023 32.6442L97.3513 32.126C94.3033 31.3898 92.8883 29.9644 92.8883 27.6514C92.8883 24.7875 95.3841 22.8203 98.9268 22.8203C102.435 22.8203 104.84 24.7875 104.921 27.6514H102.413C102.263 25.9949 100.894 24.9951 98.8928 24.9951C96.8917 24.9951 95.5224 26.0066 95.5224 27.4791C95.5224 28.6526 96.397 29.3431 98.5365 29.8717L100.365 30.3207C103.771 31.126 105.184 32.4941 105.184 34.922C105.184 38.0273 102.712 39.9723 98.7779 39.9723C95.0968 39.9723 92.6115 38.0731 92.4509 35.0708L94.9938 35.0709Z" fill="black"/>
<path d="M110.548 24.7314V27.5954H112.849V29.5624H110.548V36.2339C110.548 37.2704 111.009 37.7534 112.02 37.7534C112.294 37.7486 112.566 37.7295 112.838 37.696V39.6514C112.383 39.7362 111.92 39.7747 111.458 39.7662C109.008 39.7662 108.052 38.8459 108.052 36.499V29.5624H106.293V27.5954H108.052V24.7314H110.548Z" fill="black"/>
<path d="M114.179 33.6466C114.179 29.839 116.422 27.4463 119.919 27.4463C123.428 27.4463 125.66 29.8389 125.66 33.6466C125.66 37.4648 123.439 39.847 119.919 39.847C116.4 39.847 114.179 37.4647 114.179 33.6466ZM123.129 33.6466C123.129 31.0347 121.932 29.4931 119.919 29.4931C117.906 29.4931 116.709 31.0464 116.709 33.6466C116.709 36.269 117.906 37.799 119.919 37.799C121.932 37.799 123.129 36.269 123.129 33.6466Z" fill="black"/>
<path d="M127.708 27.5935H130.077V29.6533H130.134C130.295 29.01 130.672 28.4415 131.202 28.0433C131.732 27.6451 132.383 27.4417 133.046 27.4669C133.332 27.4659 133.616 27.497 133.896 27.5596V29.8831C133.535 29.7727 133.158 29.7219 132.78 29.733C132.419 29.7183 132.06 29.7819 131.726 29.9194C131.392 30.057 131.092 30.2652 130.846 30.5296C130.6 30.7942 130.414 31.1088 130.301 31.4519C130.188 31.7949 130.151 32.1583 130.192 32.5172V39.6952H127.708L127.708 27.5935Z" fill="black"/>
<path d="M145.35 36.1425C145.016 38.3393 142.876 39.847 140.138 39.847C136.619 39.847 134.433 37.4882 134.433 33.7041C134.433 29.9081 136.629 27.4463 140.034 27.4463C143.382 27.4463 145.488 29.7463 145.488 33.4155V34.2667H136.941V34.4168C136.901 34.8622 136.957 35.3108 137.104 35.733C137.251 36.1552 137.486 36.5412 137.795 36.8653C138.102 37.1896 138.475 37.4446 138.89 37.6135C139.304 37.7823 139.749 37.861 140.196 37.8446C140.782 37.8996 141.372 37.7637 141.876 37.4569C142.38 37.1503 142.77 36.6893 142.991 36.1425H145.35ZM136.953 32.5305H143.003C143.025 32.1301 142.964 31.7293 142.825 31.3535C142.685 30.9776 142.468 30.6348 142.19 30.3463C141.911 30.0579 141.575 29.8302 141.205 29.6776C140.833 29.5249 140.435 29.4505 140.034 29.4592C139.63 29.4568 139.229 29.5344 138.855 29.6879C138.481 29.8412 138.14 30.0672 137.854 30.3527C137.566 30.6382 137.339 30.9777 137.186 31.3516C137.03 31.7253 136.952 32.1261 136.953 32.5305Z" fill="black"/>
<path d="M49.7028 10.6038C50.2237 10.5664 50.7462 10.6451 51.2329 10.8341C51.7195 11.0232 52.1582 11.3179 52.5173 11.697C52.8763 12.0761 53.1467 12.5302 53.309 13.0264C53.4712 13.5227 53.5214 14.0488 53.4557 14.5667C53.4557 17.1148 52.0786 18.5794 49.7028 18.5794H46.822V10.6038H49.7028ZM48.0607 17.4515H49.5644C49.9366 17.4737 50.309 17.4127 50.6546 17.2729C51.0001 17.133 51.3103 16.9179 51.5622 16.6431C51.8142 16.3684 52.0016 16.0409 52.111 15.6844C52.2205 15.3281 52.2491 14.9518 52.1947 14.583C52.2451 14.2156 52.2137 13.8417 52.1025 13.4879C51.9914 13.1341 51.8035 12.8093 51.5521 12.5367C51.3008 12.2642 50.9921 12.0506 50.6485 11.9112C50.305 11.7719 49.9347 11.7103 49.5644 11.7309H48.0607V17.4515Z" fill="black"/>
<path d="M54.855 15.5683C54.8171 15.1726 54.8624 14.7736 54.9878 14.3966C55.1132 14.0195 55.3161 13.6729 55.5833 13.3788C55.8506 13.0848 56.1764 12.8499 56.5397 12.6891C56.9031 12.5283 57.2961 12.4453 57.6935 12.4453C58.0907 12.4453 58.4837 12.5283 58.8472 12.6891C59.2105 12.8499 59.5362 13.0848 59.8035 13.3788C60.0707 13.6729 60.2736 14.0195 60.399 14.3966C60.5245 14.7736 60.5697 15.1726 60.5319 15.5683C60.5704 15.9642 60.5257 16.3639 60.4006 16.7415C60.2755 17.1191 60.0727 17.4663 59.8054 17.7609C59.5382 18.0557 59.2122 18.2911 58.8484 18.4521C58.4846 18.6133 58.0913 18.6965 57.6935 18.6965C57.2956 18.6965 56.9022 18.6133 56.5385 18.4521C56.1748 18.2911 55.8488 18.0557 55.5814 17.7609C55.3141 17.4663 55.1113 17.1191 54.9862 16.7415C54.8611 16.3639 54.8165 15.9642 54.855 15.5683ZM59.31 15.5683C59.31 14.2636 58.7239 13.5006 57.6954 13.5006C56.6629 13.5006 56.082 14.2636 56.082 15.5683C56.082 16.8834 56.6629 17.6405 57.6954 17.6405C58.724 17.6404 59.31 16.8781 59.31 15.5683Z" fill="black"/>
<path d="M68.0779 18.5794H66.8456L65.6017 14.1465H65.5078L64.269 18.5794H63.0485L61.3894 12.5605H62.5943L63.6724 17.1533H63.7612L64.9986 12.5605H66.1383L67.3756 17.1533H67.4696L68.5427 12.5605H69.7304L68.0779 18.5794Z" fill="black"/>
<path d="M71.1248 12.5602H72.2683V13.5163H72.357C72.5075 13.1729 72.7616 12.885 73.0835 12.6928C73.4055 12.5006 73.7794 12.4136 74.1531 12.4439C74.4459 12.422 74.74 12.4661 75.0135 12.5732C75.287 12.6802 75.5329 12.8474 75.733 13.0625C75.9331 13.2774 76.0822 13.5347 76.1693 13.8152C76.2565 14.0956 76.2794 14.3921 76.2364 14.6825V18.5789H75.0487V14.9809C75.0487 14.0137 74.6283 13.5326 73.7498 13.5326C73.5509 13.5234 73.3524 13.5572 73.168 13.6318C72.9834 13.7065 72.8172 13.8201 72.6806 13.965C72.5442 14.1099 72.4406 14.2825 72.3771 14.4712C72.3136 14.6598 72.2915 14.8599 72.3126 15.0579V18.579H71.1248V12.5602Z" fill="black"/>
<path d="M78.1287 10.2109H79.3164V18.5794H78.1287V10.2109Z" fill="black"/>
<path d="M80.9692 15.566C80.9314 15.1703 80.9767 14.7713 81.1022 14.3943C81.2276 14.0172 81.4305 13.6706 81.6978 13.3765C81.965 13.0825 82.2909 12.8475 82.6542 12.6867C83.0176 12.526 83.4106 12.4429 83.808 12.4429C84.2054 12.4429 84.5984 12.526 84.9618 12.6867C85.3251 12.8475 85.6508 13.0825 85.9182 13.3765C86.1855 13.6706 86.3884 14.0172 86.5138 14.3943C86.6393 14.7713 86.6846 15.1703 86.6468 15.566C86.6853 15.9619 86.6405 16.3616 86.5154 16.7392C86.3903 17.1169 86.1875 17.4642 85.92 17.7588C85.6527 18.0534 85.3267 18.2887 84.963 18.4498C84.5993 18.611 84.2058 18.6942 83.808 18.6942C83.4102 18.6942 83.0167 18.611 82.653 18.4498C82.2891 18.2887 81.9631 18.0534 81.6958 17.7588C81.4285 17.4642 81.2257 17.1169 81.1006 16.7392C80.9755 16.3616 80.9307 15.9619 80.9692 15.566ZM85.4243 15.566C85.4243 14.2613 84.8382 13.4983 83.8096 13.4983C82.777 13.4983 82.1962 14.2613 82.1962 15.566C82.1962 16.8811 82.7772 17.6382 83.8096 17.6382C84.8382 17.6382 85.4243 16.8759 85.4243 15.566Z" fill="black"/>
<path d="M87.8982 16.8782C87.8982 15.7947 88.705 15.1701 90.1368 15.0813L91.7673 14.9874V14.4679C91.7673 13.8322 91.3469 13.4732 90.535 13.4732C89.8719 13.4732 89.4125 13.7166 89.2806 14.1422H88.1306C88.252 13.1084 89.2244 12.4453 90.5898 12.4453C92.0988 12.4453 92.9498 13.1965 92.9498 14.4679V18.5803H91.8065V17.7345H91.7125C91.5216 18.0379 91.2537 18.2852 90.9362 18.4513C90.6186 18.6173 90.2626 18.6961 89.9045 18.6795C89.6519 18.7058 89.3965 18.6788 89.1549 18.6004C88.9133 18.5219 88.6908 18.3937 88.5017 18.224C88.3127 18.0542 88.1614 17.8468 88.0574 17.615C87.9535 17.3832 87.8993 17.1322 87.8982 16.8782ZM91.7673 16.3639V15.8606L90.2975 15.9547C89.4685 16.0102 89.0926 16.2921 89.0926 16.8227C89.0926 17.3644 89.5625 17.6797 90.2087 17.6797C90.398 17.6988 90.5893 17.6797 90.7711 17.6234C90.9529 17.5671 91.1215 17.4749 91.267 17.3522C91.4123 17.2293 91.5315 17.0786 91.6176 16.9088C91.7035 16.7391 91.7545 16.5537 91.7673 16.3639Z" fill="black"/>
<path d="M94.5105 15.5673C94.5105 13.6655 95.4883 12.4607 97.009 12.4607C97.3851 12.4434 97.7584 12.5335 98.0853 12.7205C98.4121 12.9074 98.679 13.1837 98.8546 13.5166H98.9434V10.2109H100.131V18.5794H98.993V17.6285H98.899C98.7097 17.9593 98.4336 18.232 98.1004 18.4171C97.7673 18.6022 97.3898 18.6927 97.009 18.6785C95.4777 18.6787 94.5105 17.4738 94.5105 15.5673ZM95.7376 15.5673C95.7376 16.844 96.3393 17.6122 97.3457 17.6122C98.3468 17.6122 98.9656 16.8329 98.9656 15.5725C98.9656 14.3182 98.3404 13.5279 97.3457 13.5279C96.3459 13.5279 95.7376 14.3012 95.7376 15.5673Z" fill="black"/>
<path d="M105.045 15.5683C105.008 15.1726 105.053 14.7736 105.178 14.3966C105.304 14.0195 105.507 13.6729 105.774 13.3788C106.041 13.0848 106.367 12.8499 106.73 12.6891C107.094 12.5283 107.487 12.4453 107.884 12.4453C108.281 12.4453 108.674 12.5283 109.038 12.6891C109.401 12.8499 109.727 13.0848 109.994 13.3788C110.261 13.6729 110.464 14.0195 110.589 14.3966C110.715 14.7736 110.76 15.1726 110.722 15.5683C110.761 15.9642 110.716 16.3639 110.591 16.7415C110.466 17.1191 110.263 17.4663 109.996 17.7609C109.729 18.0557 109.403 18.2911 109.039 18.4521C108.675 18.6133 108.282 18.6965 107.884 18.6965C107.486 18.6965 107.093 18.6133 106.729 18.4521C106.365 18.2911 106.039 18.0557 105.772 17.7609C105.505 17.4663 105.302 17.1191 105.177 16.7415C105.052 16.3639 105.007 15.9642 105.045 15.5683ZM109.5 15.5683C109.5 14.2636 108.914 13.5006 107.886 13.5006C106.853 13.5006 106.272 14.2636 106.272 15.5683C106.272 16.8834 106.853 17.6405 107.886 17.6405C108.914 17.6404 109.5 16.8781 109.5 15.5683Z" fill="black"/>
<path d="M112.315 12.5602H113.459V13.5163H113.547C113.698 13.1729 113.952 12.885 114.274 12.6928C114.596 12.5006 114.97 12.4136 115.344 12.4439C115.637 12.422 115.93 12.4661 116.204 12.5732C116.477 12.6802 116.723 12.8474 116.923 13.0625C117.124 13.2774 117.273 13.5347 117.36 13.8152C117.447 14.0956 117.47 14.3921 117.427 14.6825V18.5789H116.239V14.9809C116.239 14.0137 115.819 13.5326 114.94 13.5326C114.741 13.5234 114.543 13.5572 114.358 13.6318C114.174 13.7065 114.008 13.8201 113.871 13.965C113.735 14.1099 113.631 14.2825 113.567 14.4712C113.504 14.6598 113.482 14.8599 113.503 15.0579V18.579H112.315V12.5602Z" fill="black"/>
<path d="M124.141 11.062V12.5879H125.445V13.5885H124.141V16.6834C124.141 17.3139 124.4 17.59 124.992 17.59C125.143 17.5894 125.294 17.5803 125.445 17.5626V18.552C125.231 18.5902 125.015 18.6105 124.798 18.6126C123.477 18.6126 122.951 18.148 122.951 16.9875V13.5884H121.996V12.5879H122.951V11.062H124.141Z" fill="black"/>
<path d="M127.066 10.2109H128.243V13.5279H128.337C128.495 13.1811 128.756 12.8916 129.085 12.6987C129.413 12.5057 129.793 12.4188 130.173 12.4496C130.464 12.4337 130.755 12.4823 131.026 12.5921C131.296 12.7017 131.539 12.8697 131.737 13.084C131.935 13.2984 132.083 13.5537 132.171 13.8319C132.259 14.1101 132.284 14.4043 132.246 14.6934V18.5794H131.057V14.9866C131.057 14.0251 130.609 13.5383 129.77 13.5383C129.565 13.5214 129.36 13.5495 129.168 13.6205C128.976 13.6913 128.801 13.8035 128.657 13.9488C128.513 14.0941 128.402 14.2693 128.332 14.4619C128.263 14.6545 128.236 14.8601 128.254 15.0641V18.5794H127.066V10.2109Z" fill="black"/>
<path d="M139.17 16.9529C139.01 17.503 138.659 17.9787 138.182 18.2971C137.706 18.6154 137.133 18.756 136.562 18.6941C136.167 18.7047 135.772 18.6288 135.407 18.4716C135.044 18.3145 134.718 18.0801 134.453 17.7844C134.188 17.4889 133.992 17.1392 133.876 16.7598C133.759 16.3805 133.729 15.9804 133.782 15.5875C133.73 15.1934 133.762 14.7924 133.877 14.4119C133.993 14.0315 134.19 13.6802 134.452 13.382C134.715 13.0839 135.04 12.8457 135.403 12.6837C135.766 12.5217 136.16 12.4396 136.557 12.443C138.232 12.443 139.242 13.5871 139.242 15.4772V15.8917H134.992V15.9582C134.973 16.1791 135.001 16.4015 135.073 16.6109C135.147 16.8205 135.262 17.0126 135.413 17.1749C135.564 17.3373 135.747 17.4663 135.95 17.5537C136.153 17.6411 136.374 17.6849 136.596 17.6825C136.879 17.7166 137.168 17.6654 137.422 17.5355C137.677 17.4056 137.888 17.2028 138.027 16.9529H139.17ZM134.992 15.0131H138.033C138.047 14.8111 138.019 14.6082 137.952 14.4175C137.884 14.2267 137.776 14.0523 137.637 13.9054C137.498 13.7586 137.328 13.6426 137.141 13.5648C136.954 13.487 136.753 13.4493 136.55 13.4539C136.346 13.4513 136.141 13.49 135.951 13.5674C135.76 13.6449 135.588 13.7596 135.442 13.9049C135.298 14.0502 135.183 14.2231 135.105 14.4135C135.028 14.6038 134.989 14.8077 134.992 15.0131Z" fill="black"/>
</g>
<defs>
<clipPath id="clip0_450_5823">
<rect x="0.36792" y="0.233398" width="157" height="51" rx="8" fill="white"/>
</clipPath>
</defs>
</svg>
