<svg width="181" height="54" viewBox="0 0 181 54" fill="none" xmlns="http://www.w3.org/2000/svg">
<g clip-path="url(#clip0_450_5878)">
<mask id="mask0_450_5878" style="mask-type:luminance" maskUnits="userSpaceOnUse" x="0" y="0" width="180" height="53">
<path d="M0.00952148 0.233398H179.503V52.8991H0.00952148V0.233398Z" fill="white"/>
</mask>
<g mask="url(#mask0_450_5878)">
<path d="M172.853 51.9773H6.65987C3.49607 51.9773 0.931355 49.4142 0.931355 46.3159V6.81661C0.931355 3.70635 3.49487 1.15523 6.65987 1.15523H172.853C176.014 1.15523 178.581 3.70664 178.581 6.81661V46.3159C178.581 49.4139 176.013 51.9773 172.853 51.9773Z" fill="white" stroke="black" stroke-width="1.84367"/>
<path fill-rule="evenodd" clip-rule="evenodd" d="M172.853 1.28737C175.927 1.28737 178.443 3.77291 178.443 6.81661V46.3159C178.443 49.3596 175.944 51.8452 172.853 51.8452H6.65987C3.58566 51.8452 1.06948 49.3596 1.06948 46.3159V6.81661C1.06948 3.77291 3.56914 1.28737 6.65987 1.28737H172.853ZM172.853 0.233398H6.65987C2.99458 0.233398 0.00952148 3.20159 0.00952148 6.81661V46.3159C0.00952148 49.944 2.99458 52.8991 6.65987 52.8991H172.853C176.514 52.8991 179.503 49.944 179.503 46.3159V6.81661C179.503 3.20159 176.514 0.233398 172.853 0.233398Z" fill="black"/>
</g>
<path d="M91.4883 23.1205C92.5446 23.1205 93.3551 23.4627 93.9205 24.147C94.5007 24.8314 94.7908 25.7835 94.7908 27.0035V34.4346C94.7908 34.509 94.761 34.576 94.7015 34.6355C94.6569 34.6801 94.5974 34.7024 94.523 34.7024H92.4925C92.4181 34.7024 92.3512 34.6801 92.2917 34.6355C92.247 34.576 92.2247 34.509 92.2247 34.4346V27.3605C92.2247 26.7357 92.076 26.2447 91.7784 25.8877C91.4809 25.5306 91.0866 25.3521 90.5957 25.3521C90.075 25.3521 89.6584 25.5306 89.346 25.8877C89.0484 26.2447 88.8997 26.7282 88.8997 27.3382V34.4346C88.8997 34.509 88.8699 34.576 88.8104 34.6355C88.7658 34.6801 88.7063 34.7024 88.6319 34.7024H86.5788C86.5045 34.7024 86.4375 34.6801 86.378 34.6355C86.3334 34.576 86.311 34.509 86.311 34.4346V27.3605C86.311 26.7357 86.1623 26.2447 85.8647 25.8877C85.5672 25.5306 85.1729 25.3521 84.682 25.3521C84.1613 25.3521 83.7447 25.5306 83.4323 25.8877C83.1348 26.2447 82.986 26.7282 82.986 27.3382V34.4346C82.986 34.509 82.9562 34.576 82.8967 34.6355C82.8521 34.6801 82.7926 34.7024 82.7182 34.7024H80.6875C80.6131 34.7024 80.5461 34.6801 80.4866 34.6355C80.442 34.576 80.4197 34.509 80.4197 34.4346V23.5668C80.4197 23.4924 80.442 23.4329 80.4866 23.3883C80.5461 23.3288 80.6131 23.299 80.6875 23.299H82.7182C82.7926 23.299 82.8521 23.3288 82.8967 23.3883C82.9562 23.4329 82.986 23.4924 82.986 23.5668V24.1247C82.986 24.1694 83.0009 24.1991 83.0306 24.214C83.0604 24.214 83.0901 24.1991 83.1199 24.1694C83.7299 23.4701 84.5555 23.1205 85.5969 23.1205C86.2515 23.1205 86.8169 23.2618 87.2929 23.5445C87.769 23.8123 88.1409 24.1991 88.4087 24.7049C88.4385 24.7347 88.4682 24.7496 88.498 24.7496C88.5277 24.7496 88.5501 24.7198 88.5649 24.6603C88.9071 24.1247 89.3311 23.7379 89.8369 23.4999C90.3576 23.247 90.9081 23.1205 91.4883 23.1205ZM101.197 23.1205C102.045 23.1205 102.797 23.2842 103.451 23.6115C104.106 23.9239 104.612 24.3628 104.969 24.9281C105.341 25.4934 105.527 26.1406 105.527 26.8696V34.4346C105.527 34.509 105.497 34.576 105.437 34.6355C105.393 34.6801 105.333 34.7024 105.259 34.7024H103.206C103.131 34.7024 103.064 34.6801 103.005 34.6355C102.96 34.576 102.938 34.509 102.938 34.4346V33.8767C102.938 33.8321 102.923 33.8023 102.893 33.7875C102.864 33.7726 102.834 33.78 102.804 33.8098C102.179 34.5239 101.279 34.8809 100.104 34.8809C99.1219 34.8809 98.2888 34.6206 97.6044 34.0999C96.9201 33.5643 96.5779 32.7014 96.5779 31.5113C96.5779 30.2616 96.9721 29.3317 97.7606 28.7218C98.564 28.1118 99.6649 27.8068 101.063 27.8068H102.826C102.901 27.8068 102.938 27.7696 102.938 27.6953V27.1374C102.938 26.5869 102.782 26.1555 102.469 25.843C102.172 25.5157 101.755 25.3521 101.22 25.3521C100.788 25.3521 100.431 25.4562 100.148 25.6645C99.8806 25.8579 99.7095 26.1257 99.6352 26.4679C99.5905 26.6315 99.4864 26.7134 99.3227 26.7134L97.1581 26.5795C97.0837 26.5795 97.0168 26.5571 96.9573 26.5125C96.9126 26.453 96.8978 26.3935 96.9126 26.334C97.0019 25.3818 97.4408 24.6082 98.2293 24.0131C99.0326 23.4181 100.022 23.1205 101.197 23.1205ZM100.773 32.7833C101.353 32.7833 101.859 32.6196 102.291 32.2923C102.722 31.9501 102.938 31.5038 102.938 30.9534V29.7929C102.938 29.7185 102.901 29.6814 102.826 29.6814H101.331C100.677 29.6814 100.156 29.8227 99.7691 30.1054C99.3971 30.388 99.2112 30.7971 99.2112 31.3327C99.2112 31.8088 99.3525 32.1733 99.6352 32.4262C99.9327 32.6642 100.312 32.7833 100.773 32.7833ZM112.033 34.8809C110.827 34.8809 109.838 34.576 109.065 33.966C108.306 33.3411 107.845 32.4931 107.681 31.422C107.562 30.812 107.502 29.9938 107.502 28.9673C107.502 28.03 107.562 27.2192 107.681 26.5348C107.845 25.4934 108.313 24.6677 109.087 24.0578C109.86 23.4329 110.842 23.1205 112.033 23.1205C113.178 23.1205 114.145 23.4181 114.934 24.0131C115.722 24.5934 116.198 25.3595 116.362 26.3117C116.377 26.3712 116.392 26.4456 116.406 26.5348C116.421 26.6241 116.429 26.7357 116.429 26.8696V26.9142C116.429 27.0481 116.347 27.1299 116.183 27.1597L114.153 27.3605H114.108C113.974 27.3605 113.892 27.2787 113.862 27.115C113.862 27.0109 113.848 26.8993 113.818 26.7803C113.743 26.3786 113.543 26.0439 113.215 25.7761C112.903 25.4934 112.501 25.3521 112.01 25.3521C111.519 25.3521 111.11 25.5009 110.783 25.7984C110.47 26.096 110.277 26.4902 110.203 26.9811C110.128 27.5465 110.091 28.216 110.091 28.9896C110.091 29.8376 110.136 30.5219 110.225 31.0426C110.299 31.5336 110.493 31.9278 110.805 32.2254C111.118 32.508 111.519 32.6494 112.01 32.6494C112.516 32.6494 112.925 32.508 113.238 32.2254C113.565 31.9278 113.758 31.5708 113.818 31.1542L113.84 30.931C113.855 30.8567 113.892 30.7971 113.952 30.7525C114.011 30.693 114.078 30.6707 114.153 30.6856L116.161 30.8641C116.339 30.8938 116.429 30.9905 116.429 31.1542L116.384 31.5336C116.25 32.5452 115.789 33.356 115.001 33.966C114.212 34.576 113.223 34.8809 112.033 34.8809ZM127.693 34.9033C126.711 34.9033 125.84 34.7024 125.082 34.3007C124.338 33.899 123.758 33.3337 123.341 32.6047C122.939 31.8609 122.739 31.0054 122.739 30.0384V23.7454C122.739 22.7932 122.939 21.9527 123.341 21.2237C123.758 20.4798 124.338 19.907 125.082 19.5054C125.84 19.1037 126.711 18.9028 127.693 18.9028C128.689 18.9028 129.56 19.1037 130.304 19.5054C131.062 19.907 131.65 20.4798 132.067 21.2237C132.483 21.9527 132.691 22.7932 132.691 23.7454V30.0384C132.691 31.0054 132.483 31.8609 132.067 32.6047C131.65 33.3337 131.062 33.899 130.304 34.3007C129.56 34.7024 128.689 34.9033 127.693 34.9033ZM127.693 32.6717C128.422 32.6717 129.002 32.4411 129.433 31.9799C129.88 31.5038 130.103 30.8938 130.103 30.15V23.6784C130.103 22.9197 129.88 22.3097 129.433 21.8485C129.002 21.3724 128.422 21.1344 127.693 21.1344C126.979 21.1344 126.406 21.3724 125.974 21.8485C125.543 22.3097 125.327 22.9197 125.327 23.6784V30.15C125.327 30.8938 125.543 31.5038 125.974 31.9799C126.406 32.4411 126.979 32.6717 127.693 32.6717ZM139.564 34.8809C138.582 34.8809 137.719 34.7098 136.975 34.3677C136.231 34.0106 135.651 33.5122 135.234 32.8725C134.833 32.2179 134.632 31.4666 134.632 30.6186V30.0384C134.632 29.964 134.654 29.9045 134.699 29.8599C134.758 29.8004 134.825 29.7706 134.9 29.7706H136.908C136.982 29.7706 137.042 29.8004 137.087 29.8599C137.146 29.9045 137.176 29.964 137.176 30.0384V30.4847C137.176 31.1244 137.399 31.6451 137.845 32.0468C138.292 32.4485 138.894 32.6494 139.653 32.6494C140.352 32.6494 140.888 32.4708 141.26 32.1138C141.632 31.7567 141.818 31.2881 141.818 30.7079C141.818 30.3062 141.713 29.964 141.505 29.6814C141.297 29.3838 140.999 29.116 140.613 28.878C140.241 28.6251 139.66 28.2903 138.872 27.8738C137.964 27.3977 137.235 26.9737 136.685 26.6018C136.134 26.2298 135.666 25.7538 135.279 25.1736C134.907 24.5934 134.721 23.8867 134.721 23.0536C134.721 21.7741 135.145 20.7625 135.993 20.0186C136.856 19.2748 137.987 18.9028 139.385 18.9028C140.352 18.9028 141.208 19.0888 141.951 19.4607C142.695 19.8178 143.268 20.331 143.67 21.0005C144.071 21.67 144.272 22.4362 144.272 23.299V23.7677C144.272 23.8421 144.243 23.909 144.183 23.9685C144.138 24.0131 144.079 24.0355 144.005 24.0355H141.996C141.922 24.0355 141.855 24.0131 141.795 23.9685C141.751 23.909 141.728 23.8421 141.728 23.7677V23.3437C141.728 22.704 141.513 22.1758 141.081 21.7593C140.65 21.3427 140.07 21.1344 139.341 21.1344C138.701 21.1344 138.195 21.3055 137.823 21.6477C137.451 21.975 137.265 22.4362 137.265 23.0313C137.265 23.4329 137.362 23.7751 137.555 24.0578C137.749 24.3404 138.039 24.6082 138.426 24.8611C138.827 25.1141 139.43 25.4414 140.233 25.843C141.304 26.453 142.093 26.9291 142.599 27.2713C143.104 27.6134 143.528 28.0597 143.871 28.6102C144.228 29.1458 144.406 29.8078 144.406 30.5963C144.406 31.9055 143.967 32.9469 143.09 33.7205C142.212 34.4941 141.037 34.8809 139.564 34.8809Z" fill="black"/>
<path d="M63.9151 26.0931C63.9151 14.7845 54.9607 5.81982 43.6418 5.81982C32.3331 5.83011 23.3787 14.7845 23.3787 26.0931C23.3787 37.4019 32.3331 46.3666 43.6521 46.3666C54.971 46.3666 63.9151 37.4122 63.9151 26.0931Z" fill="url(#paint0_linear_450_5878)"/>
<path d="M63.9151 26.0931C63.9151 14.7845 54.9607 5.81982 43.6418 5.81982C32.3331 5.83011 23.3787 14.7845 23.3787 26.0931C23.3787 37.4019 32.3331 46.3666 43.6521 46.3666C54.971 46.3666 63.9151 37.4122 63.9151 26.0931Z" fill="black"/>
<path d="M45.697 19.4611H45.7175V20.1704H46.5297V17.2405C46.5297 17.0246 46.4886 16.8395 46.4063 16.6647C46.3241 16.49 46.211 16.3461 46.0568 16.2227C45.9025 16.0993 45.7278 16.0068 45.5119 15.9451C45.296 15.8834 45.0699 15.8423 44.8026 15.8423C44.5661 15.8423 44.34 15.8732 44.1343 15.9451C43.9287 16.0068 43.7539 16.0993 43.5997 16.2227C43.4455 16.3461 43.3324 16.4797 43.2399 16.6442C43.1474 16.8087 43.1063 16.9835 43.096 17.1685H43.8978C43.9184 17.076 43.9493 16.9937 44.0007 16.9217C44.0521 16.8498 44.1138 16.7779 44.1857 16.7265C44.2577 16.675 44.3502 16.6339 44.453 16.6031C44.5558 16.5722 44.6586 16.562 44.7717 16.562C45.0596 16.562 45.2755 16.6236 45.44 16.7572C45.5942 16.8806 45.6764 17.076 45.6764 17.3227V17.6517L44.525 17.7134C43.9904 17.7442 43.5894 17.8675 43.3119 18.0834C43.0343 18.2993 42.8904 18.5872 42.8904 18.9676C42.8904 19.163 42.9213 19.3377 42.9932 19.4919C43.0651 19.6461 43.1679 19.7798 43.2913 19.8929C43.4147 20.0059 43.5689 20.0881 43.7437 20.1499C43.9184 20.2115 44.1138 20.2424 44.3297 20.2424C44.4736 20.2424 44.6175 20.2219 44.7511 20.191C44.8849 20.1601 45.0185 20.1088 45.1315 20.0368C45.2446 19.9751 45.3474 19.8929 45.4503 19.8004C45.553 19.677 45.6353 19.5741 45.697 19.4611ZM45.368 19.2555C45.2652 19.3377 45.1521 19.4097 45.0185 19.4611C44.8849 19.5125 44.7306 19.533 44.5764 19.533C44.3297 19.533 44.1343 19.4816 43.9904 19.3686C43.8464 19.2555 43.7745 19.1115 43.7745 18.9265C43.7745 18.7414 43.8464 18.5872 44.0007 18.4844C44.1446 18.3816 44.3708 18.3199 44.6689 18.2993L45.7073 18.2274V18.5563C45.7073 18.7003 45.6764 18.8237 45.625 18.9471C45.5428 19.0704 45.4708 19.1732 45.368 19.2555Z" fill="white"/>
<path d="M51.3302 28.8055L49.9218 28.4559C48.2049 28.0242 47.4955 27.4588 47.4955 26.5129C47.4955 25.31 48.6161 24.4774 50.2404 24.4774C51.8647 24.4774 52.9648 25.2998 53.0882 26.6362H54.9284C54.8565 24.4156 52.975 22.8633 50.2815 22.8633C47.5264 22.8633 45.5833 24.4054 45.5833 26.6157C45.5833 28.4148 46.6731 29.5149 49.089 30.1111L50.7648 30.5223C52.4816 30.9542 53.2218 31.5915 53.2218 32.6401C53.2218 33.8532 51.9985 34.7374 50.3021 34.7374C48.5338 34.7374 47.2385 33.8532 47.0946 32.5065H45.244C45.3777 34.8505 47.3208 36.3412 50.1685 36.3412C53.2218 36.3412 55.1443 34.8299 55.1443 32.4037C55.1135 30.512 54.0134 29.4531 51.3302 28.8055Z" fill="white"/>
<path d="M41.9963 20.1709V17.2615C41.9963 17.0456 41.9654 16.8503 41.8934 16.6858C41.8214 16.5213 41.7392 16.3671 41.6159 16.2437C41.4925 16.1204 41.3485 16.0278 41.1737 15.9559C40.999 15.8839 40.814 15.853 40.5981 15.853C40.4438 15.853 40.2999 15.8736 40.1663 15.9148C40.0327 15.9559 39.8989 16.0073 39.7859 16.0793C39.6728 16.1512 39.57 16.2437 39.4775 16.3363C39.3849 16.4288 39.313 16.5522 39.2615 16.6858H39.241C39.1588 16.4185 39.0045 16.2129 38.799 16.0689C38.5934 15.925 38.3363 15.853 38.0382 15.853C37.9046 15.853 37.7709 15.8736 37.6372 15.9044C37.5139 15.9353 37.4008 15.9867 37.2877 16.0587C37.1849 16.1307 37.0924 16.2025 37.0102 16.3054C36.9279 16.3979 36.8662 16.511 36.8148 16.6241H36.7943V15.9044H35.9821V20.1812H36.7839V17.5596C36.7839 17.426 36.8559 17.2923 36.897 17.1792C36.9382 17.0662 36.9998 16.9633 37.082 16.8708C37.1643 16.7886 37.2568 16.7166 37.3699 16.6652C37.4831 16.6138 37.6064 16.5933 37.7298 16.5933C37.8531 16.5933 37.9662 16.6138 38.069 16.6549C38.1718 16.6961 38.2541 16.7474 38.3261 16.8194C38.398 16.8914 38.4494 16.9737 38.4905 17.0765C38.5316 17.1792 38.5522 17.2923 38.5522 17.4055V20.1812H39.3953V17.5288C39.3953 17.3951 39.4158 17.2615 39.4672 17.1484C39.5083 17.0353 39.57 16.9326 39.6523 16.8503C39.7345 16.7681 39.827 16.7063 39.9298 16.6549C40.0429 16.6138 40.1559 16.5829 40.2897 16.5829C40.5569 16.5829 40.7626 16.6652 40.9065 16.8092C41.0504 16.9633 41.1224 17.1792 41.1224 17.4568V20.1606L41.9963 20.1709Z" fill="white"/>
<path d="M37.852 22.8633C34.12 22.8633 31.7761 25.4643 31.7761 29.6074C31.7761 33.7504 34.12 36.3514 37.852 36.3514C41.5838 36.3514 43.9278 33.7504 43.9278 29.6074C43.9175 25.4643 41.5838 22.8633 37.852 22.8633ZM37.852 34.686C35.2921 34.686 33.6883 32.7224 33.6883 29.6074C33.6883 26.4821 35.2921 24.5185 37.852 24.5185C40.4016 24.5185 42.0155 26.4821 42.0155 29.6074C42.0053 32.7224 40.4016 34.686 37.852 34.686Z" fill="white"/>
<path d="M48.6132 16.9629C48.716 16.8395 48.8291 16.7367 48.973 16.6647C49.1169 16.5927 49.2712 16.562 49.4459 16.562C49.5898 16.562 49.7235 16.5825 49.8366 16.6236C49.9496 16.6647 50.0525 16.7161 50.145 16.7881C50.2272 16.8601 50.2992 16.9424 50.3506 17.0451C50.402 17.1479 50.4431 17.2508 50.4636 17.3638H51.2759C51.2553 17.1582 51.2039 16.9629 51.1114 16.7779C51.0188 16.5927 50.8955 16.4386 50.7413 16.2946C50.587 16.161 50.3917 16.0479 50.1759 15.9657C49.96 15.8834 49.7132 15.8423 49.4356 15.8423C49.1374 15.8423 48.8599 15.8937 48.6132 15.9965C48.3664 16.0993 48.1608 16.2432 47.986 16.4386C47.8113 16.6339 47.6776 16.8601 47.5851 17.1274C47.4926 17.3946 47.4412 17.6928 47.4412 18.032C47.4412 18.3713 47.4926 18.6797 47.5851 18.9471C47.6776 19.2143 47.8216 19.4507 47.9964 19.6359C48.1711 19.8209 48.387 19.9648 48.6338 20.0676C48.8804 20.1704 49.1581 20.2219 49.4562 20.2219C49.7132 20.2219 49.9496 20.1808 50.1655 20.119C50.3815 20.0574 50.5665 19.9443 50.731 19.8209C50.8852 19.6872 51.0188 19.533 51.1217 19.348C51.2244 19.163 51.2862 18.9573 51.3067 18.7414H50.4945C50.4431 18.9985 50.33 19.1835 50.1552 19.3171C49.9805 19.4507 49.7543 19.5125 49.4767 19.5125C49.3019 19.5125 49.1478 19.4816 49.0038 19.4096C48.8599 19.348 48.7365 19.2452 48.644 19.1218C48.5412 18.9985 48.4693 18.8442 48.4075 18.6592C48.3562 18.4742 48.3253 18.2685 48.3253 18.0423C48.3253 17.8162 48.3562 17.6209 48.4075 17.4358C48.4384 17.2405 48.5104 17.0862 48.6132 16.9629Z" fill="white"/>
</g>
<defs>
<linearGradient id="paint0_linear_450_5878" x1="43.6435" y1="46.367" x2="43.6435" y2="5.82825" gradientUnits="userSpaceOnUse">
<stop stop-color="#F2F2F2"/>
<stop offset="0.5963" stop-color="#F7F7F7"/>
<stop offset="1" stop-color="#FEFEFE"/>
</linearGradient>
<clipPath id="clip0_450_5878">
<rect width="180.386" height="53" fill="white" transform="translate(0.00952148 0.233398)"/>
</clipPath>
</defs>
</svg>
