<svg width="95" height="95" viewBox="0 0 95 95" fill="none" xmlns="http://www.w3.org/2000/svg">
<g filter="url(#filter0_b_450_5745)">
<rect width="95" height="95" rx="47.5" fill="white" fill-opacity="0.09"/>
<rect x="0.699471" y="0.699471" width="93.6011" height="93.6011" rx="46.8005" stroke="url(#paint0_linear_450_5745)" stroke-width="1.39894"/>
</g>
<g clip-path="url(#clip0_450_5745)">
<path d="M57.1408 49.16C57.1408 55.318 52.1488 60.31 45.9908 60.31C39.8328 60.31 34.8408 55.318 34.8408 49.16C34.8408 43.002 39.8328 38.01 45.9908 38.01C52.1488 38.01 57.1408 43.002 57.1408 49.16Z" stroke="white" stroke-width="2"/>
<path d="M46.4104 47.39C46.8974 47.3859 47.3814 47.4672 47.8404 47.63C48.2685 47.7819 48.6626 48.0163 49.0004 48.32C49.3339 48.646 49.5961 49.0376 49.7704 49.47C49.9405 49.9616 50.0185 50.4802 50.0004 51C50.0103 51.5937 49.9085 52.184 49.7004 52.74C49.5124 53.2414 49.2072 53.6905 48.8104 54.05C48.388 54.4269 47.8903 54.7098 47.3504 54.8801C46.7024 55.0769 46.0276 55.1713 45.3504 55.16C45.0539 55.175 44.7569 55.175 44.4604 55.16C44.1745 55.1411 43.8904 55.101 43.6104 55.0401C43.3487 54.9947 43.0912 54.9278 42.8404 54.84C42.6125 54.7667 42.3916 54.673 42.1804 54.5601V52.3701C42.3972 52.487 42.6209 52.5906 42.8504 52.68C43.1051 52.7765 43.3656 52.8566 43.6304 52.92C43.8972 52.991 44.1676 53.0478 44.4404 53.09C44.6987 53.1284 44.9593 53.1485 45.2204 53.1501C45.8133 53.1921 46.4027 53.0298 46.8904 52.6901C47.0945 52.5133 47.2535 52.2905 47.3544 52.0401C47.4552 51.7897 47.495 51.5189 47.4704 51.25C47.4863 50.9972 47.4441 50.7441 47.347 50.5101C47.2499 50.2761 47.1006 50.0674 46.9104 49.9C46.3994 49.5537 45.7858 49.3915 45.1704 49.4401H44.7204L44.2404 49.51L43.8004 49.59L43.4304 49.6901L42.4304 49.15L42.8804 43.05H49.2004V45.1901H45.1004L44.9004 47.5401L45.5104 47.43C45.8088 47.3919 46.1098 47.3785 46.4104 47.39Z" fill="white"/>
<path d="M46.0305 33.12C48.7312 33.12 50.9205 30.4068 50.9205 27.06C50.9205 23.7132 48.7312 21 46.0305 21C43.3298 21 41.1405 23.7132 41.1405 27.06C41.1405 30.4068 43.3298 33.12 46.0305 33.12Z" fill="white"/>
<path d="M53.8105 38.09C54.1847 37.0879 54.4658 36.0536 54.6505 35C55.4205 35.38 56.0005 38.37 55.9205 39.93C58.1451 42.2875 59.4538 45.3624 59.6105 48.6C61.2105 46.15 65.9005 29.2 51.7505 25C52.5105 33.32 46.8405 34.26 46.1805 34.28C45.5205 34.3 39.3705 33.51 40.1805 25.15C30.8805 27.18 30.1005 35.74 30.3705 38.88C32.388 37.7328 34.6358 37.0495 36.9505 36.88C37.1037 36.1873 37.4228 35.5421 37.8805 35C37.8805 35.74 37.9305 36.16 37.9405 36.77C38.3905 36.71 39.5905 36.59 41.1505 36.53C43.2292 35.7389 45.4701 35.4692 47.6771 35.7447C49.8841 36.0201 51.99 36.8322 53.8105 38.11V38.09Z" fill="white"/>
<path d="M70.4604 63.0388C71.8112 60.7002 70.5568 57.4474 67.6586 55.7735C64.7604 54.0995 61.316 54.6384 59.9653 56.977C58.6145 59.3156 59.869 62.5684 62.7671 64.2423C65.6653 65.9163 69.1097 65.3774 70.4604 63.0388Z" fill="white"/>
<path d="M58.8509 56.5C59.1909 55.9 62.9209 50.99 69.7409 55.9C72.6809 46.82 65.6609 41.9 62.8009 40.53C62.8082 42.8561 62.2885 45.1536 61.2809 47.25C61.7973 47.7341 62.1915 48.3339 62.4309 49L60.8609 48.17C60.6909 48.58 60.2209 49.63 59.5209 50.97C59.2356 53.2088 58.3992 55.3418 57.0868 57.1778C55.7743 59.0138 54.0268 60.4955 52.0009 61.49C52.6294 62.2107 53.3149 62.8795 54.0509 63.49C53.4109 63.91 51.0509 63.15 49.5809 62.38C46.4289 63.2274 43.0781 62.9224 40.1309 61.52C42.5109 65 54.0009 75.55 64.1009 66C56.5109 62.47 58.5309 57.08 58.8509 56.5Z" fill="white"/>
<path d="M32.0005 56.9401C30.6405 54.6001 27.2005 54.0701 24.3005 55.7401C21.4005 57.4101 20.1905 60.6701 21.5505 63.0001C22.9105 65.3301 26.3505 65.8801 29.2405 64.2001C32.1305 62.5201 33.3805 59.2801 32.0005 56.9401Z" fill="white"/>
<path d="M32.3705 49.2499C32.3705 48.7299 32.3705 48.2499 32.4605 47.7099C31.3894 47.8889 30.3379 48.1702 29.3205 48.5499C29.2605 47.6599 31.7105 45.5499 33.0805 44.9099C33.8257 42.6922 35.1312 40.7046 36.8705 39.1399C37.47 38.5074 38.1412 37.947 38.8705 37.4699C37.0005 36.9999 18.5605 41.1899 22.1805 55.9999C28.9905 51.1699 32.6505 55.5999 32.9905 56.1699C33.3305 56.7399 35.7505 62.4799 28.1005 65.9999C34.4905 72.9999 42.2905 69.4099 44.8805 67.5999C42.8593 66.4463 41.1259 64.8496 39.8105 62.9299C39.1358 63.1293 38.4248 63.1738 37.7305 63.0599L39.2305 62.0599C39.0105 61.7699 38.5105 61.0599 37.9005 60.1499C36.1922 58.8905 34.8023 57.2488 33.842 55.3561C32.8818 53.4634 32.3778 51.3722 32.3705 49.2499Z" fill="white"/>
</g>
<defs>
<filter id="filter0_b_450_5745" x="-35.9108" y="-35.9108" width="166.822" height="166.822" filterUnits="userSpaceOnUse" color-interpolation-filters="sRGB">
<feFlood flood-opacity="0" result="BackgroundImageFix"/>
<feGaussianBlur in="BackgroundImageFix" stdDeviation="17.9554"/>
<feComposite in2="SourceAlpha" operator="in" result="effect1_backgroundBlur_450_5745"/>
<feBlend mode="normal" in="SourceGraphic" in2="effect1_backgroundBlur_450_5745" result="shape"/>
</filter>
<linearGradient id="paint0_linear_450_5745" x1="71.875" y1="-6.78573" x2="-3.91112" y2="12.2515" gradientUnits="userSpaceOnUse">
<stop stop-color="white"/>
<stop offset="1" stop-color="white" stop-opacity="0"/>
</linearGradient>
<clipPath id="clip0_450_5745">
<rect width="50" height="49.14" fill="white" transform="translate(21 21)"/>
</clipPath>
</defs>
</svg>
