<svg width="181" height="54" viewBox="0 0 181 54" fill="none" xmlns="http://www.w3.org/2000/svg">
<path d="M174.134 52.5445H7.05121C3.81768 52.5445 1.28975 50.0166 1.28975 46.7831V6.68329C1.28975 3.44976 3.81768 0.921834 7.05121 0.921834H174.134C177.367 0.921834 179.895 3.44976 179.895 6.68329V46.7831C179.895 49.895 177.355 52.5445 174.134 52.5445Z" fill="white" stroke="black" stroke-width="1.84367"/>
<path d="M61.7812 11.267C61.6938 10.9991 61.5784 10.7591 61.4351 10.547C61.2947 10.3322 61.1262 10.1492 60.93 9.99808C60.7365 9.84693 60.5163 9.73157 60.2697 9.65202C60.0231 9.57247 59.7526 9.53269 59.4582 9.53269C58.9757 9.53269 58.5367 9.65732 58.1416 9.9066C57.7465 10.1559 57.4322 10.5231 57.1989 11.0084C56.9656 11.4937 56.8489 12.089 56.8489 12.7944C56.8489 13.4998 56.9668 14.0952 57.2029 14.5804C57.4389 15.0657 57.7584 15.4329 58.1615 15.6822C58.5645 15.9315 59.0181 16.0562 59.5218 16.0562C59.9886 16.0562 60.3996 15.9567 60.755 15.7578C61.113 15.5563 61.3914 15.2725 61.5903 14.9065C61.7919 14.538 61.8925 14.1044 61.8925 13.6058L62.1949 13.6696H59.7447V12.7944H62.8472V13.6696C62.8472 14.3404 62.704 14.9237 62.4177 15.4196C62.1339 15.9155 61.7415 16.3001 61.2403 16.5732C60.7417 16.8437 60.1689 16.979 59.5218 16.979C58.8006 16.979 58.1669 16.8092 57.6206 16.4699C57.077 16.1303 56.6527 15.6477 56.3477 15.0219C56.0453 14.396 55.8943 13.6537 55.8943 12.7944C55.8943 12.15 55.9804 11.5706 56.1528 11.0561C56.3278 10.539 56.5744 10.0988 56.8926 9.73556C57.2109 9.37225 57.5874 9.09381 58.0222 8.90024C58.4572 8.70665 58.9359 8.60986 59.4582 8.60986C59.8878 8.60986 60.2883 8.67484 60.6595 8.80478C61.0335 8.93205 61.3662 9.1137 61.658 9.34972C61.9523 9.58307 62.1976 9.86283 62.3938 10.189C62.59 10.5125 62.7253 10.8719 62.7995 11.267H61.7812ZM64.5367 16.8675V8.72123H69.4532V9.59633H65.5233V12.3489H69.1986V13.224H65.5233V15.9925H69.5168V16.8675H64.5367ZM70.7857 9.59633V8.72123H76.8955V9.59633H74.3339V16.8675H73.3474V9.59633H70.7857ZM82.5548 8.72123V16.8675H81.5683V8.72123H82.5548ZM84.0872 9.59633V8.72123H90.197V9.59633H87.6353V16.8675H86.6488V9.59633H84.0872ZM101.743 12.7944C101.743 13.6537 101.588 14.396 101.278 15.0219C100.967 15.6477 100.542 16.1303 100.001 16.4699C99.46 16.8092 98.8421 16.979 98.1473 16.979C97.4526 16.979 96.8347 16.8092 96.2937 16.4699C95.7528 16.1303 95.3272 15.6477 95.017 15.0219C94.7066 14.396 94.5515 13.6537 94.5515 12.7944C94.5515 11.9352 94.7066 11.1927 95.017 10.5669C95.3272 9.94107 95.7528 9.45844 96.2937 9.11901C96.8347 8.77958 97.4526 8.60986 98.1473 8.60986C98.8421 8.60986 99.46 8.77958 100.001 9.11901C100.542 9.45844 100.967 9.94107 101.278 10.5669C101.588 11.1927 101.743 11.9352 101.743 12.7944ZM100.789 12.7944C100.789 12.089 100.67 11.4937 100.435 11.0084C100.201 10.5231 99.8843 10.1559 99.4838 9.9066C99.0862 9.65732 98.6406 9.53269 98.1473 9.53269C97.6541 9.53269 97.2073 9.65732 96.8069 9.9066C96.4091 10.1559 96.0922 10.5231 95.8562 11.0084C95.6229 11.4937 95.5062 12.089 95.5062 12.7944C95.5062 13.4998 95.6229 14.0952 95.8562 14.5804C96.0922 15.0657 96.4091 15.4329 96.8069 15.6822C97.2073 15.9315 97.6541 16.0562 98.1473 16.0562C98.6406 16.0562 99.0862 15.9315 99.4838 15.6822C99.8843 15.4329 100.201 15.0657 100.435 14.5804C100.67 14.0952 100.789 13.4998 100.789 12.7944ZM109.862 8.72123V16.8675H108.907L104.468 10.4714H104.388V16.8675H103.402V8.72123H104.357L108.812 15.1333H108.891V8.72123H109.862Z" fill="black"/>
<path d="M61.7811 11.2664L61.6541 11.3079L61.6842 11.4H61.7811V11.2664ZM61.435 10.5464L61.3231 10.6196L61.3242 10.6212L61.435 10.5464ZM61.8924 13.6052L61.92 13.4745L61.7588 13.4405V13.6052H61.8924ZM62.1948 13.6689V13.8026H63.4785L62.2223 13.5381L62.1948 13.6689ZM59.7445 13.6689H59.6109V13.8026H59.7445V13.6689ZM59.7445 12.7938V12.6601H59.6109V12.7938H59.7445ZM62.8471 12.7938H62.9807V12.6601H62.8471V12.7938ZM62.7993 11.2664V11.4H62.9605L62.9307 11.2417L62.7993 11.2664ZM61.9082 11.2248C61.8172 10.9464 61.6966 10.695 61.5458 10.4716L61.3242 10.6212C61.4599 10.8221 61.57 11.0507 61.6541 11.3079L61.9082 11.2248ZM61.5469 10.4732C61.3984 10.2464 61.2199 10.0522 61.0114 9.89158L60.8476 10.1028C61.0315 10.2445 61.1905 10.4169 61.3231 10.6196L61.5469 10.4732ZM61.0114 9.89158C60.8049 9.73025 60.5713 9.6083 60.3106 9.5242L60.2285 9.77861C60.4611 9.85363 60.6671 9.96184 60.8476 10.1028L61.0114 9.89158ZM60.3106 9.5242C60.049 9.43984 59.7646 9.39842 59.4581 9.39842V9.66575C59.7404 9.66575 59.9969 9.70388 60.2285 9.77861L60.3106 9.5242ZM59.4581 9.39842C58.9511 9.39842 58.4874 9.52973 58.0702 9.79293L58.2129 10.019C58.5859 9.78369 58.9999 9.66575 59.4581 9.66575V9.39842ZM58.0702 9.79293C57.6508 10.0575 57.3209 10.4455 57.0783 10.9499L57.3193 11.0657C57.5435 10.5996 57.8421 10.253 58.2129 10.019L58.0702 9.79293ZM57.0783 10.9499C56.834 11.4579 56.7151 12.0743 56.7151 12.7938H56.9825C56.9825 12.1025 57.0969 11.5282 57.3193 11.0657L57.0783 10.9499ZM56.7151 12.7938C56.7151 13.5135 56.8354 14.1301 57.0826 14.6383L57.3229 14.5213C57.0981 14.059 56.9825 13.4849 56.9825 12.7938H56.7151ZM57.0826 14.6383C57.3281 15.143 57.6636 15.5309 58.0911 15.7953L58.2317 15.5679C57.853 15.3338 57.5495 14.987 57.3229 14.5213L57.0826 14.6383ZM58.0911 15.7953C58.5167 16.0585 58.9947 16.1892 59.5217 16.1892V15.9219C59.0412 15.9219 58.6123 15.8033 58.2317 15.5679L58.0911 15.7953ZM59.5217 16.1892C60.008 16.1892 60.4421 16.0854 60.8201 15.8738L60.6896 15.6405C60.357 15.8267 59.969 15.9219 59.5217 15.9219V16.1892ZM60.8201 15.8738C61.2004 15.6598 61.4969 15.3574 61.7076 14.9698L61.4728 14.8419C61.2858 15.1861 61.0253 15.4515 60.6896 15.6405L60.8201 15.8738ZM61.7076 14.9698C61.9217 14.5781 62.0261 14.1221 62.0261 13.6052H61.7588C61.7588 14.0856 61.6618 14.4962 61.4728 14.8419L61.7076 14.9698ZM61.8649 13.736L62.1672 13.7997L62.2223 13.5381L61.92 13.4745L61.8649 13.736ZM62.1948 13.5353H59.7445V13.8026H62.1948V13.5353ZM59.8782 13.6689V12.7938H59.6109V13.6689H59.8782ZM59.7445 12.9275H62.8471V12.6601H59.7445V12.9275ZM62.7134 12.7938V13.6689H62.9807V12.7938H62.7134ZM62.7134 13.6689C62.7134 14.3204 62.5745 14.88 62.3018 15.3522L62.5333 15.4859C62.8333 14.9664 62.9807 14.3592 62.9807 13.6689H62.7134ZM62.3018 15.3522C62.0304 15.8266 61.6556 16.194 61.1762 16.4552L61.3039 16.6901C61.8268 16.4051 62.2373 16.0032 62.5333 15.4859L62.3018 15.3522ZM61.1762 16.4552C60.6998 16.7137 60.1497 16.8447 59.5217 16.8447V17.112C60.1879 17.112 60.7831 16.9726 61.3039 16.6901L61.1762 16.4552ZM59.5217 16.8447C58.8222 16.8447 58.2135 16.6803 57.691 16.3556L57.5496 16.5826C58.1196 16.9367 58.7787 17.112 59.5217 17.112V16.8447ZM57.691 16.3556C57.1705 16.0307 56.7627 15.5681 56.4677 14.9627L56.2273 15.0794C56.5422 15.7258 56.9829 16.2286 57.5496 16.5826L57.691 16.3556ZM56.4677 14.9627C56.1759 14.3588 56.0278 13.6375 56.0278 12.7938H55.7605C55.7605 13.6684 55.9143 14.4318 56.2273 15.0794L56.4677 14.9627ZM56.0278 12.7938C56.0278 12.1612 56.1124 11.5965 56.2794 11.098L56.0261 11.0127C55.8483 11.5431 55.7605 12.1376 55.7605 12.7938H56.0278ZM56.2794 11.098C56.4495 10.5954 56.6879 10.1715 56.993 9.82302L56.792 9.64687C56.4608 10.025 56.206 10.4811 56.0261 11.0127L56.2794 11.098ZM56.993 9.82302C57.2987 9.47406 57.6596 9.20734 58.0765 9.02174L57.9679 8.77751C57.515 8.97908 57.1227 9.26924 56.792 9.64687L56.993 9.82302ZM58.0765 9.02174C58.4928 8.83648 58.9526 8.74292 59.4581 8.74292V8.47559C58.9189 8.47559 58.4214 8.57559 57.9679 8.77751L58.0765 9.02174ZM59.4581 8.74292C59.8741 8.74292 60.2594 8.80581 60.6152 8.93033L60.7036 8.678C60.3169 8.54266 59.9013 8.47559 59.4581 8.47559V8.74292ZM60.6152 8.93033C60.9751 9.05282 61.2949 9.22742 61.5738 9.45302L61.7419 9.24519C61.4373 8.99878 61.0915 8.81009 60.7036 8.678L60.6152 8.93033ZM61.5738 9.45302C61.8554 9.67628 62.091 9.94468 62.2791 10.2573L62.5082 10.1195C62.3038 9.77978 62.0479 9.48781 61.7408 9.24437L61.5738 9.45302ZM62.2791 10.2573C62.4665 10.5663 62.5966 10.9107 62.6681 11.291L62.9307 11.2417C62.8537 10.8318 62.7133 10.4576 62.5082 10.1195L62.2791 10.2573ZM62.7993 11.1327H61.7811V11.4H62.7993V11.1327ZM64.5366 16.8669H64.4029V17.0006H64.5366V16.8669ZM64.5366 8.72062V8.58696H64.4029V8.72062H64.5366ZM69.4531 8.72062H69.5868V8.58696H69.4531V8.72062ZM69.4531 9.59572V9.72939H69.5868V9.59572H69.4531ZM65.5232 9.59572V9.46205H65.3895V9.59572H65.5232ZM65.5232 12.3483H65.3895V12.482H65.5232V12.3483ZM69.1985 12.3483H69.3321V12.2146H69.1985V12.3483ZM69.1985 13.2234V13.3571H69.3321V13.2234H69.1985ZM65.5232 13.2234V13.0897H65.3895V13.2234H65.5232ZM65.5232 15.9919H65.3895V16.1256H65.5232V15.9919ZM69.5167 15.9919H69.6504V15.8583H69.5167V15.9919ZM69.5167 16.8669V17.0006H69.6504V16.8669H69.5167ZM64.6703 16.8669V8.72062H64.4029V16.8669H64.6703ZM64.5366 8.85429H69.4531V8.58696H64.5366V8.85429ZM69.3194 8.72062V9.59572H69.5868V8.72062H69.3194ZM69.4531 9.46205H65.5232V9.72939H69.4531V9.46205ZM65.3895 9.59572V12.3483H65.6568V9.59572H65.3895ZM65.5232 12.482H69.1985V12.2146H65.5232V12.482ZM69.0648 12.3483V13.2234H69.3321V12.3483H69.0648ZM69.1985 13.0897H65.5232V13.3571H69.1985V13.0897ZM65.3895 13.2234V15.9919H65.6568V13.2234H65.3895ZM65.5232 16.1256H69.5167V15.8583H65.5232V16.1256ZM69.3831 15.9919V16.8669H69.6504V15.9919H69.3831ZM69.5167 16.7332H64.5366V17.0006H69.5167V16.7332ZM70.7856 9.59572H70.6519V9.72939H70.7856V9.59572ZM70.7856 8.72062V8.58696H70.6519V8.72062H70.7856ZM76.8953 8.72062H77.029V8.58696H76.8953V8.72062ZM76.8953 9.59572V9.72939H77.029V9.59572H76.8953ZM74.3338 9.59572V9.46205H74.2001V9.59572H74.3338ZM74.3338 16.8669V17.0006H74.4674V16.8669H74.3338ZM73.3473 16.8669H73.2136V17.0006H73.3473V16.8669ZM73.3473 9.59572H73.481V9.46205H73.3473V9.59572ZM70.9193 9.59572V8.72062H70.6519V9.59572H70.9193ZM70.7856 8.85429H76.8953V8.58696H70.7856V8.85429ZM76.7617 8.72062V9.59572H77.029V8.72062H76.7617ZM76.8953 9.46205H74.3338V9.72939H76.8953V9.46205ZM74.2001 9.59572V16.8669H74.4674V9.59572H74.2001ZM74.3338 16.7332H73.3473V17.0006H74.3338V16.7332ZM73.481 16.8669V9.59572H73.2136V16.8669H73.481ZM73.3473 9.46205H70.7856V9.72939H73.3473V9.46205ZM82.5546 8.72062H82.6883V8.58696H82.5546V8.72062ZM82.5546 16.8669V17.0006H82.6883V16.8669H82.5546ZM81.5682 16.8669H81.4345V17.0006H81.5682V16.8669ZM81.5682 8.72062V8.58696H81.4345V8.72062H81.5682ZM82.421 8.72062V16.8669H82.6883V8.72062H82.421ZM82.5546 16.7332H81.5682V17.0006H82.5546V16.7332ZM81.7018 16.8669V8.72062H81.4345V16.8669H81.7018ZM81.5682 8.85429H82.5546V8.58696H81.5682V8.85429ZM84.0871 9.59572H83.9534V9.72939H84.0871V9.59572ZM84.0871 8.72062V8.58696H83.9534V8.72062H84.0871ZM90.1968 8.72062H90.3305V8.58696H90.1968V8.72062ZM90.1968 9.59572V9.72939H90.3305V9.59572H90.1968ZM87.6351 9.59572V9.46205H87.5015V9.59572H87.6351ZM87.6351 16.8669V17.0006H87.7688V16.8669H87.6351ZM86.6487 16.8669H86.515V17.0006H86.6487V16.8669ZM86.6487 9.59572H86.7823V9.46205H86.6487V9.59572ZM84.2208 9.59572V8.72062H83.9534V9.59572H84.2208ZM84.0871 8.85429H90.1968V8.58696H84.0871V8.85429ZM90.0632 8.72062V9.59572H90.3305V8.72062H90.0632ZM90.1968 9.46205H87.6351V9.72939H90.1968V9.46205ZM87.5015 9.59572V16.8669H87.7688V9.59572H87.5015ZM87.6351 16.7332H86.6487V17.0006H87.6351V16.7332ZM86.7823 16.8669V9.59572H86.515V16.8669H86.7823ZM86.6487 9.46205H84.0871V9.72939H86.6487V9.46205ZM101.609 12.7938C101.609 13.637 101.457 14.3583 101.158 14.9619L101.397 15.0807C101.719 14.4326 101.877 13.6689 101.877 12.7938H101.609ZM101.158 14.9619C100.857 15.5678 100.448 16.0308 99.9297 16.3559L100.072 16.5825C100.636 16.2286 101.077 15.7265 101.397 15.0807L101.158 14.9619ZM99.9297 16.3559C99.412 16.6808 98.8191 16.8447 98.1473 16.8447V17.112C98.8648 17.112 99.5077 16.9364 100.072 16.5825L99.9297 16.3559ZM98.1473 16.8447C97.4753 16.8447 96.8824 16.6808 96.3647 16.3559L96.2226 16.5825C96.7867 16.9364 97.4296 17.112 98.1473 17.112V16.8447ZM96.3647 16.3559C95.8465 16.0308 95.4369 15.5678 95.1365 14.9619L94.8971 15.0807C95.2172 15.7265 95.6588 16.2286 96.2226 16.5825L96.3647 16.3559ZM95.1365 14.9619C94.8373 14.3583 94.6851 13.637 94.6851 12.7938H94.4177C94.4177 13.6689 94.5757 14.4326 94.8971 15.0807L95.1365 14.9619ZM94.6851 12.7938C94.6851 11.9506 94.8373 11.2293 95.1365 10.6257L94.8971 10.5069C94.5757 11.1549 94.4177 11.9187 94.4177 12.7938H94.6851ZM95.1365 10.6257C95.4369 10.0198 95.8465 9.55673 96.3647 9.23163L96.2226 9.00517C95.6588 9.35893 95.2172 9.86113 94.8971 10.5069L95.1365 10.6257ZM96.3647 9.23163C96.8824 8.90671 97.4753 8.74292 98.1473 8.74292V8.47559C97.4296 8.47559 96.7867 8.65122 96.2226 9.00517L96.3647 9.23163ZM98.1473 8.74292C98.8191 8.74292 99.412 8.90671 99.9297 9.23163L100.072 9.00517C99.5077 8.65122 98.8648 8.47559 98.1473 8.47559V8.74292ZM99.9297 9.23163C100.448 9.55673 100.857 10.0198 101.158 10.6257L101.397 10.5069C101.077 9.86113 100.636 9.35893 100.072 9.00517L99.9297 9.23163ZM101.158 10.6257C101.457 11.2293 101.609 11.9506 101.609 12.7938H101.877C101.877 11.9187 101.719 11.1549 101.397 10.5069L101.158 10.6257ZM100.922 12.7938C100.922 12.0741 100.802 11.4576 100.555 10.9493L100.314 11.0657C100.539 11.5281 100.655 12.1027 100.655 12.7938H100.922ZM100.555 10.9493C100.312 10.4445 99.9793 10.057 99.5544 9.7925L99.4127 10.0193C99.7886 10.2533 100.09 10.6 100.314 11.0657L100.555 10.9493ZM99.5544 9.7925C99.1343 9.52921 98.6642 9.39842 98.1473 9.39842V9.66575C98.6167 9.66575 99.0374 9.784 99.4127 10.0193L99.5544 9.7925ZM98.1473 9.39842C97.6303 9.39842 97.1587 9.52942 96.736 9.7925L96.8773 10.0195C97.2556 9.784 97.6777 9.66575 98.1473 9.66575V9.39842ZM96.736 9.7925C96.3141 10.057 95.9811 10.445 95.7358 10.9493L95.9763 11.0663C96.203 10.6001 96.5037 10.2535 96.8773 10.0195L96.736 9.7925ZM95.7358 10.9493C95.4916 11.4574 95.3724 12.0743 95.3724 12.7938H95.6397C95.6397 12.1025 95.7539 11.5288 95.9763 11.0663L95.7358 10.9493ZM95.3724 12.7938C95.3724 13.5132 95.4913 14.1297 95.7355 14.6378L95.9765 14.5219C95.7541 14.0594 95.6397 13.485 95.6397 12.7938H95.3724ZM95.7355 14.6378C95.9808 15.1421 96.3138 15.5304 96.7358 15.7949L96.8777 15.5683C96.5041 15.3343 96.2032 14.9881 95.9765 14.5219L95.7355 14.6378ZM96.7358 15.7949C97.1584 16.0581 97.6303 16.1892 98.1473 16.1892V15.9219C97.6777 15.9219 97.256 15.8039 96.8777 15.5683L96.7358 15.7949ZM98.1473 16.1892C98.6642 16.1892 99.1345 16.0582 99.5547 15.7949L99.4131 15.5681C99.0378 15.8033 98.6167 15.9219 98.1473 15.9219V16.1892ZM99.5547 15.7949C99.9796 15.5304 100.312 15.1425 100.555 14.6378L100.314 14.5213C100.09 14.987 99.789 15.3342 99.4131 15.5681L99.5547 15.7949ZM100.555 14.6378C100.802 14.1296 100.922 13.5135 100.922 12.7938H100.655C100.655 13.4849 100.539 14.059 100.314 14.5213L100.555 14.6378ZM109.861 8.72062H109.995V8.58696H109.861V8.72062ZM109.861 16.8669V17.0006H109.995V16.8669H109.861ZM108.907 16.8669L108.797 16.9432L108.837 17.0006H108.907V16.8669ZM104.468 10.4708L104.578 10.3946L104.538 10.3372H104.468V10.4708ZM104.388 10.4708V10.3372H104.255V10.4708H104.388ZM104.388 16.8669V17.0006H104.522V16.8669H104.388ZM103.402 16.8669H103.268V17.0006H103.402V16.8669ZM103.402 8.72062V8.58696H103.268V8.72062H103.402ZM104.356 8.72062L104.466 8.64437L104.426 8.58696H104.356V8.72062ZM108.811 15.1327L108.702 15.2089L108.742 15.2664H108.811V15.1327ZM108.891 15.1327V15.2664H109.025V15.1327H108.891ZM108.891 8.72062V8.58696H108.757V8.72062H108.891ZM109.728 8.72062V16.8669H109.995V8.72062H109.728ZM109.861 16.7332H108.907V17.0006H109.861V16.7332ZM109.017 16.7907L104.578 10.3946L104.358 10.547L108.797 16.9432L109.017 16.7907ZM104.468 10.3372H104.388V10.6045H104.468V10.3372ZM104.255 10.4708V16.8669H104.522V10.4708H104.255ZM104.388 16.7332H103.402V17.0006H104.388V16.7332ZM103.535 16.8669V8.72062H103.268V16.8669H103.535ZM103.402 8.85429H104.356V8.58696H103.402V8.85429ZM104.247 8.79689L108.702 15.2089L108.921 15.0564L104.466 8.64437L104.247 8.79689ZM108.811 15.2664H108.891V14.9991H108.811V15.2664ZM109.025 15.1327V8.72062H108.757V15.1327H109.025ZM108.891 8.85429H109.861V8.58696H108.891V8.85429Z" fill="black"/>
<path d="M91.3933 29.1383C88.1853 29.1383 85.6456 31.5442 85.6456 34.8859C85.6456 38.0939 88.1853 40.6335 91.3933 40.6335C94.6012 40.6335 97.1409 38.2275 97.1409 34.8859C97.1409 31.4106 94.6012 29.1383 91.3933 29.1383ZM91.3933 38.2275C89.6556 38.2275 88.1853 36.7572 88.1853 34.7522C88.1853 32.7472 89.6556 31.2769 91.3933 31.2769C93.1309 31.2769 94.6012 32.6136 94.6012 34.7522C94.6012 36.7572 93.1309 38.2275 91.3933 38.2275ZM78.9623 29.1383C75.7543 29.1383 73.2147 31.5442 73.2147 34.8859C73.2147 38.0939 75.7543 40.6335 78.9623 40.6335C82.1703 40.6335 84.71 38.2275 84.71 34.8859C84.71 31.4106 82.1703 29.1383 78.9623 29.1383ZM78.9623 38.2275C77.2247 38.2275 75.7543 36.7572 75.7543 34.7522C75.7543 32.7472 77.2247 31.2769 78.9623 31.2769C80.7 31.2769 82.1703 32.6136 82.1703 34.7522C82.1703 36.7572 80.7 38.2275 78.9623 38.2275ZM64.1254 30.8759V33.2819H69.873C69.7394 34.6186 69.2047 35.6879 68.5364 36.3562C67.7344 37.1582 66.3977 38.0939 64.1254 38.0939C60.5164 38.0939 57.8431 35.2869 57.8431 31.6779C57.8431 28.0689 60.6501 25.2619 64.1254 25.2619C65.9967 25.2619 67.4671 26.0639 68.5364 26.9996L70.274 25.2619C68.8037 23.9253 66.9324 22.856 64.2591 22.856C59.4471 22.856 55.3035 26.8659 55.3035 31.6779C55.3035 36.4899 59.4471 40.4999 64.2591 40.4999C66.9324 40.4999 68.8037 39.6979 70.4077 37.9602C72.0117 36.3562 72.5464 34.0839 72.5464 32.3462C72.5464 31.8116 72.5464 31.2769 72.4127 30.8759H64.1254ZM124.81 32.7472C124.275 31.4106 122.938 29.1383 119.998 29.1383C117.057 29.1383 114.651 31.4106 114.651 34.8859C114.651 38.0939 117.057 40.6335 120.265 40.6335C122.805 40.6335 124.409 39.0295 124.943 38.0939L123.072 36.7572C122.404 37.6929 121.602 38.3612 120.265 38.3612C118.928 38.3612 118.126 37.8265 117.458 36.6235L125.077 33.4156L124.81 32.7472ZM117.057 34.6186C117.057 32.4799 118.795 31.2769 119.998 31.2769C120.933 31.2769 121.869 31.8116 122.136 32.4799L117.057 34.6186ZM110.775 40.0989H113.314V23.3906H110.775V40.0989ZM106.765 30.3412C106.097 29.6729 105.027 29.0046 103.691 29.0046C100.884 29.0046 98.2102 31.5442 98.2102 34.7522C98.2102 37.9602 100.75 40.3662 103.691 40.3662C105.027 40.3662 106.097 39.6979 106.631 39.0295H106.765V39.8315C106.765 41.9702 105.562 43.1732 103.691 43.1732C102.22 43.1732 101.151 42.1038 100.884 41.1682L98.7449 42.1038C99.4132 43.5742 101.017 45.4455 103.824 45.4455C106.765 45.4455 109.171 43.7078 109.171 39.5642V29.4056H106.765V30.3412ZM103.824 38.2275C102.087 38.2275 100.616 36.7572 100.616 34.7522C100.616 32.7472 102.087 31.2769 103.824 31.2769C105.562 31.2769 106.898 32.7472 106.898 34.7522C106.898 36.7572 105.562 38.2275 103.824 38.2275ZM136.439 23.3906H130.424V40.0989H132.963V33.8166H136.439C139.246 33.8166 141.92 31.8116 141.92 28.6036C141.92 25.3956 139.246 23.3906 136.439 23.3906ZM136.573 31.4106H132.963V25.6629H136.573C138.444 25.6629 139.514 27.2669 139.514 28.4699C139.38 29.9402 138.311 31.4106 136.573 31.4106ZM151.944 29.0046C150.073 29.0046 148.202 29.8066 147.533 31.5442L149.806 32.4799C150.34 31.5442 151.142 31.2769 152.078 31.2769C153.415 31.2769 154.618 32.0789 154.751 33.4156V33.5492C154.35 33.2819 153.281 32.8809 152.212 32.8809C149.806 32.8809 147.4 34.2176 147.4 36.6235C147.4 38.8959 149.405 40.3662 151.543 40.3662C153.281 40.3662 154.083 39.5642 154.751 38.7622H154.885V40.0989H157.291V33.6829C157.024 30.7422 154.751 29.0046 151.944 29.0046ZM151.677 38.2275C150.875 38.2275 149.672 37.8265 149.672 36.7572C149.672 35.4205 151.142 35.0196 152.345 35.0196C153.415 35.0196 153.949 35.2869 154.618 35.5542C154.35 37.1582 153.014 38.2275 151.677 38.2275ZM165.712 29.4056L162.905 36.6235H162.771L159.831 29.4056H157.157L161.568 39.5642L159.029 45.1782H161.568L168.385 29.4056H165.712ZM143.256 40.0989H145.796V23.3906H143.256V40.0989Z" fill="black"/>
<path d="M28.0365 25.9292L13.8679 41.0334C14.2689 42.6374 15.7392 43.8404 17.6106 43.8404C18.2789 43.8404 18.9472 43.7068 19.6156 43.3058L35.6555 34.0828L28.0365 25.9292Z" fill="#EA4335"/>
<path d="M42.4725 23.3908L35.5219 19.3809L27.7693 26.3315L35.5219 34.0841L42.3389 30.0741C43.5419 29.4058 44.3439 28.2028 44.3439 26.7325C44.4775 25.2622 43.6755 24.0592 42.4725 23.3908Z" fill="#FBBC04"/>
<path d="M13.8678 12.4297C13.7341 12.697 13.7341 13.098 13.7341 13.3653V40.0985C13.7341 40.4995 13.7341 40.7668 13.8678 41.0341L28.571 26.3309L13.8678 12.4297Z" fill="#4285F4"/>
<path d="M28.17 26.7327L35.5217 19.3811L19.4818 10.1582C18.9471 9.7572 18.2788 9.62354 17.4768 9.62354C15.7391 9.62354 14.1351 10.8265 13.7341 12.4305L28.17 26.7327Z" fill="#34A853"/>
</svg>
