<svg width="50" height="50" viewBox="0 0 50 50" fill="none" xmlns="http://www.w3.org/2000/svg">
<g clip-path="url(#clip0_450_5782)">
<g clip-path="url(#clip1_450_5782)">
<path d="M21.75 17.4167H19.5834C19.0087 17.4167 18.4576 17.645 18.0513 18.0513C17.645 18.4577 17.4167 19.0088 17.4167 19.5834V32.5834C17.4167 33.1581 17.645 33.7092 18.0513 34.1155C18.4576 34.5218 19.0087 34.7501 19.5834 34.7501H30.4167C30.9913 34.7501 31.5424 34.5218 31.9488 34.1155C32.3551 33.7092 32.5834 33.1581 32.5834 32.5834V19.5834C32.5834 19.0088 32.3551 18.4577 31.9488 18.0513C31.5424 17.645 30.9913 17.4167 30.4167 17.4167H28.25" stroke="#8E8E8E" stroke-width="1.2" stroke-linecap="round" stroke-linejoin="round"/>
<path d="M21.75 17.4167C21.75 16.842 21.9783 16.2909 22.3846 15.8846C22.7909 15.4783 23.342 15.25 23.9167 15.25H26.0833C26.658 15.25 27.2091 15.4783 27.6154 15.8846C28.0217 16.2909 28.25 16.842 28.25 17.4167C28.25 17.9913 28.0217 18.5424 27.6154 18.9487C27.2091 19.3551 26.658 19.5833 26.0833 19.5833H23.9167C23.342 19.5833 22.7909 19.3551 22.3846 18.9487C21.9783 18.5424 21.75 17.9913 21.75 17.4167Z" stroke="#8E8E8E" stroke-width="1.2" stroke-linecap="round" stroke-linejoin="round"/>
<path d="M21.75 30.4167V25" stroke="#8E8E8E" stroke-width="1.2" stroke-linecap="round" stroke-linejoin="round"/>
<path d="M25 30.4166V29.3333" stroke="#8E8E8E" stroke-width="1.2" stroke-linecap="round" stroke-linejoin="round"/>
<path d="M28.25 30.4167V27.1667" stroke="#8E8E8E" stroke-width="1.2" stroke-linecap="round" stroke-linejoin="round"/>
</g>
<path d="M42.5 0.625H7.5C3.70304 0.625 0.625 3.70304 0.625 7.5V42.5C0.625 46.297 3.70304 49.375 7.5 49.375H42.5C46.297 49.375 49.375 46.297 49.375 42.5V7.5C49.375 3.70304 46.297 0.625 42.5 0.625Z" stroke="url(#paint0_linear_450_5782)"/>
</g>
<defs>
<linearGradient id="paint0_linear_450_5782" x1="20" y1="9.01592e-07" x2="36.875" y2="65" gradientUnits="userSpaceOnUse">
<stop stop-color="white"/>
<stop offset="1" stop-color="#D0D0D0"/>
</linearGradient>
<clipPath id="clip0_450_5782">
<rect width="50" height="50" fill="white"/>
</clipPath>
<clipPath id="clip1_450_5782">
<rect width="26" height="26" fill="white" transform="translate(12 12)"/>
</clipPath>
</defs>
</svg>
