<svg width="50" height="50" viewBox="0 0 50 50" fill="none" xmlns="http://www.w3.org/2000/svg">
<g clip-path="url(#clip0_450_5804)">
<g clip-path="url(#clip1_450_5804)">
<path d="M15.25 26.0833C15.25 25.796 15.3641 25.5205 15.5673 25.3173C15.7705 25.1141 16.046 25 16.3333 25H20.6667C20.954 25 21.2295 25.1141 21.4327 25.3173C21.6359 25.5205 21.75 25.796 21.75 26.0833V32.5833C21.75 32.8707 21.6359 33.1462 21.4327 33.3494C21.2295 33.5525 20.954 33.6667 20.6667 33.6667H16.3333C16.046 33.6667 15.7705 33.5525 15.5673 33.3494C15.3641 33.1462 15.25 32.8707 15.25 32.5833V26.0833Z" stroke="#8E8E8E" stroke-width="1.2" stroke-linecap="round" stroke-linejoin="round"/>
<path d="M21.75 21.7498C21.75 21.4625 21.8641 21.187 22.0673 20.9838C22.2705 20.7806 22.546 20.6665 22.8333 20.6665H27.1667C27.454 20.6665 27.7295 20.7806 27.9327 20.9838C28.1359 21.187 28.25 21.4625 28.25 21.7498V32.5832C28.25 32.8705 28.1359 33.146 27.9327 33.3492C27.7295 33.5524 27.454 33.6665 27.1667 33.6665H22.8333C22.546 33.6665 22.2705 33.5524 22.0673 33.3492C21.8641 33.146 21.75 32.8705 21.75 32.5832V21.7498Z" stroke="#8E8E8E" stroke-width="1.2" stroke-linecap="round" stroke-linejoin="round"/>
<path d="M28.25 17.4168C28.25 17.1295 28.3641 16.854 28.5673 16.6508C28.7705 16.4476 29.046 16.3335 29.3333 16.3335H33.6667C33.954 16.3335 34.2295 16.4476 34.4327 16.6508C34.6359 16.854 34.75 17.1295 34.75 17.4168V32.5835C34.75 32.8708 34.6359 33.1464 34.4327 33.3495C34.2295 33.5527 33.954 33.6668 33.6667 33.6668H29.3333C29.046 33.6668 28.7705 33.5527 28.5673 33.3495C28.3641 33.1464 28.25 32.8708 28.25 32.5835V17.4168Z" stroke="#8E8E8E" stroke-width="1.2" stroke-linecap="round" stroke-linejoin="round"/>
<path d="M16.3334 33.6665H31.5" stroke="#8E8E8E" stroke-width="1.2" stroke-linecap="round" stroke-linejoin="round"/>
</g>
<path d="M42.5 0.625H7.5C3.70304 0.625 0.625 3.70304 0.625 7.5V42.5C0.625 46.297 3.70304 49.375 7.5 49.375H42.5C46.297 49.375 49.375 46.297 49.375 42.5V7.5C49.375 3.70304 46.297 0.625 42.5 0.625Z" stroke="url(#paint0_linear_450_5804)"/>
</g>
<defs>
<linearGradient id="paint0_linear_450_5804" x1="20" y1="9.01592e-07" x2="36.875" y2="65" gradientUnits="userSpaceOnUse">
<stop stop-color="white"/>
<stop offset="1" stop-color="#D0D0D0"/>
</linearGradient>
<clipPath id="clip0_450_5804">
<rect width="50" height="50" fill="white"/>
</clipPath>
<clipPath id="clip1_450_5804">
<rect width="26" height="26" fill="white" transform="translate(12 12)"/>
</clipPath>
</defs>
</svg>
