<svg width="166" height="53" viewBox="0 0 166 53" fill="none" xmlns="http://www.w3.org/2000/svg">
<path d="M160.847 51.6227H5.97916C3.64903 51.6227 1.73873 49.7124 1.73873 47.3823V6.08414C1.73873 3.75401 3.64903 1.84371 5.97916 1.84371H160.847C163.177 1.84371 165.088 3.75401 165.088 6.08414V47.3823C165.088 49.7124 163.177 51.6227 160.847 51.6227Z" fill="white" stroke="black" stroke-width="1.84367"/>
<path d="M26.8862 38.7354L15.2711 37.0576V27.2493H26.8862V38.7354ZM26.8862 26.3459H15.2711V17.0538L26.8862 15.3761V26.3459ZM42.7602 40.9293L27.7896 38.7354V27.2493H42.7602V40.9293ZM42.7602 26.3459H27.7896V15.3761L42.7602 13.1821V26.3459Z" fill="black"/>
<path d="M62.7637 20.5383C62.2474 20.7964 61.0859 21.0546 59.7954 21.0546C58.3758 21.0546 57.0852 20.6674 56.1818 19.764C55.4075 18.9896 54.8912 17.6991 54.8912 16.1504C54.8912 13.3112 56.8271 11.1172 60.0535 11.1172C61.215 11.1172 61.9893 11.3753 62.5056 11.5044L62.2474 12.5368C61.7312 12.2787 61.0859 12.1496 60.1825 12.1496C57.8595 12.1496 56.3108 13.5693 56.3108 16.0213C56.3108 18.4734 57.7305 19.893 60.0535 19.893C60.8278 19.893 61.4731 19.764 61.7312 19.6349V16.7957H59.7954V15.7632H62.8927V20.5383H62.7637Z" fill="black"/>
<path d="M65.3447 17.6993C65.3447 19.3771 66.5063 20.1514 67.6678 20.1514C68.5712 20.1514 69.0874 20.0224 69.6036 19.7642L69.8617 20.6676C69.4745 20.9258 68.7002 21.0548 67.5387 21.0548C65.4738 21.0548 64.1832 19.6352 64.1832 17.5703C64.1832 15.5054 65.3447 13.8276 67.4096 13.8276C69.6036 13.8276 70.2489 15.7635 70.2489 17.0541C70.2489 17.3122 70.2489 17.5703 70.2489 17.6993H65.3447ZM69.0874 16.7959C69.0874 16.0216 68.7002 14.731 67.4096 14.731C66.1191 14.731 65.6029 15.8925 65.4738 16.7959H69.0874Z" fill="black"/>
<path d="M73.3461 12.0205V13.9564H75.1529V14.8598H73.3461V18.6024C73.3461 19.5058 73.6042 19.893 74.2495 19.893C74.6367 19.893 74.7657 19.893 75.0238 19.7639V20.6673C74.7657 20.7964 74.3785 20.7964 73.8623 20.7964C73.217 20.7964 72.8298 20.6673 72.5717 20.2801C72.1846 19.893 72.0555 19.2477 72.0555 18.4733V14.7307H71.0231V13.8273H72.0555V12.1496L73.3461 12.0205Z" fill="black"/>
<path d="M80.9604 12.0209C80.9604 12.4081 80.7023 12.7953 80.1861 12.7953C79.7989 12.7953 79.4117 12.4081 79.4117 12.0209C79.4117 11.6338 79.7989 11.2466 80.1861 11.2466C80.5732 11.2466 80.9604 11.6338 80.9604 12.0209ZM79.5408 20.9258V13.9568H80.8313V20.9258H79.5408Z" fill="black"/>
<path d="M84.3168 12.0205V13.9564H86.1236V14.8598H84.3168V18.6024C84.3168 19.5058 84.5749 19.893 85.2202 19.893C85.6074 19.893 85.7364 19.893 85.9945 19.7639V20.6673C85.7364 20.7964 85.3492 20.7964 84.833 20.7964C84.1877 20.7964 83.8005 20.6673 83.5424 20.2801C83.1553 19.893 83.0262 19.2477 83.0262 18.4733V14.7307H81.9938V13.8273H83.0262V12.1496L84.3168 12.0205Z" fill="black"/>
<path d="M96.7059 17.4412C96.7059 20.0224 94.8991 21.1839 93.2213 21.1839C91.4145 21.1839 89.8658 19.7642 89.8658 17.5703C89.8658 15.2473 91.4145 13.8276 93.2213 13.8276C95.4153 13.8276 96.7059 15.2473 96.7059 17.4412ZM91.2855 17.4412C91.2855 18.9899 92.1889 20.1514 93.3504 20.1514C94.5119 20.1514 95.4153 18.9899 95.4153 17.4412C95.4153 16.2797 94.77 14.731 93.3504 14.731C91.9308 14.731 91.2855 16.1507 91.2855 17.4412Z" fill="black"/>
<path d="M98.2545 15.8925C98.2545 15.1182 98.2545 14.602 98.2545 13.9567H99.4161L99.5451 15.1182C99.9323 14.4729 100.707 13.8276 101.868 13.8276C102.772 13.8276 104.32 14.3439 104.32 16.7959V20.9258H103.03V16.925C103.03 15.7635 102.642 14.8601 101.481 14.8601C100.707 14.8601 100.061 15.5054 99.8032 16.1507C99.8032 16.2797 99.6741 16.5378 99.6741 16.7959V20.9258H98.3836V15.8925H98.2545Z" fill="black"/>
<path d="M58.2468 41.833L54.7623 27.7658H56.6982L58.3759 34.8639C58.7631 36.6707 59.1503 38.3484 59.4084 39.768C59.6665 38.3484 60.0537 36.6707 60.5699 34.8639L62.3767 27.7658H64.3125L65.9902 34.8639C66.3774 36.5416 66.7646 38.2194 67.0227 39.639C67.2808 38.0903 67.668 36.5416 68.1842 34.7348L69.991 27.6367H71.7978L67.7971 41.7039H65.8612L64.0544 34.3477C63.6672 32.5409 63.2801 31.1212 63.151 29.7016C62.8929 31.1212 62.6348 32.4118 62.1185 34.3477L60.1827 41.7039H58.2468V41.833Z" fill="black"/>
<path d="M75.0238 28.7982C75.0238 29.4435 74.6366 29.9597 73.8623 29.9597C73.217 29.9597 72.7008 29.4435 72.7008 28.7982C72.7008 28.1529 73.217 27.6367 73.8623 27.6367C74.6366 27.7658 75.0238 28.1529 75.0238 28.7982ZM72.9589 41.833V31.7665H74.7657V41.833H72.9589Z" fill="black"/>
<path d="M77.0887 34.4766C77.0887 33.4442 77.0887 32.5408 76.9596 31.7664H78.6374L78.7664 33.4442C79.2826 32.5408 80.4441 31.5083 82.1219 31.5083C83.5415 31.5083 85.6064 32.2826 85.6064 35.7672V41.8328H83.7996V36.0253C83.7996 34.3475 83.1543 33.057 81.4766 33.057C80.3151 33.057 79.2826 33.9604 79.0245 34.9928C78.8955 35.2509 78.8954 35.5091 78.8954 35.8962V41.9619H77.0887V34.4766Z" fill="black"/>
<path d="M97.0925 26.9914V39.2518C97.0925 40.1552 97.0925 41.1876 97.2215 41.8329H95.5438L95.4148 40.0261C94.8985 41.1876 93.608 41.9619 92.0593 41.9619C89.6072 41.9619 87.8004 39.897 87.8004 36.7997C87.8004 33.4442 89.8653 31.3793 92.3174 31.3793C93.8661 31.3793 94.8985 32.1536 95.2857 32.928V26.8623H97.0925V26.9914ZM95.2857 35.7672C95.2857 35.5091 95.2857 35.251 95.1566 34.9929C94.8985 33.8314 93.8661 32.928 92.5755 32.928C90.6396 32.928 89.6072 34.6057 89.6072 36.7997C89.6072 38.8646 90.6396 40.5423 92.5755 40.5423C93.737 40.5423 94.8985 39.768 95.2857 38.3484C95.2857 38.0902 95.4148 37.8321 95.4148 37.574V35.7672H95.2857Z" fill="black"/>
<path d="M108.579 36.6706C108.579 40.4132 105.998 42.091 103.546 42.091C100.836 42.091 98.7711 40.026 98.7711 36.9287C98.7711 33.5732 100.965 31.5083 103.804 31.5083C106.644 31.5083 108.579 33.5732 108.579 36.6706ZM100.707 36.7996C100.707 38.9936 101.998 40.6713 103.804 40.6713C105.482 40.6713 106.902 38.9936 106.902 36.7996C106.902 35.1219 105.998 32.9279 103.933 32.9279C101.61 32.7989 100.707 34.8638 100.707 36.7996Z" fill="black"/>
<path d="M110.902 31.6372L112.193 36.7995C112.451 37.961 112.709 38.9934 112.967 40.0259C113.225 38.9934 113.483 37.961 113.87 36.7995L115.548 31.6372H117.097L118.646 36.6704C119.033 37.8319 119.291 38.9934 119.549 40.0259C119.678 38.9934 119.936 37.961 120.323 36.7995L121.743 31.7663H123.55L120.323 41.8327H118.646L117.097 37.0576C116.71 35.8961 116.452 34.9927 116.193 33.7021C115.935 34.8636 115.677 35.8961 115.29 37.0576L113.612 41.8327H112.064L109.095 31.7663H110.902V31.6372Z" fill="black"/>
<path d="M124.969 39.897C125.485 40.2842 126.518 40.6713 127.421 40.6713C128.712 40.6713 129.357 40.026 129.357 39.1226C129.357 38.2192 128.841 37.703 127.55 37.3159C125.743 36.6706 124.84 35.6381 124.84 34.4766C124.84 32.7989 126.13 31.5083 128.324 31.5083C129.357 31.5083 130.26 31.7664 130.777 32.1536L130.26 33.4442C129.873 33.186 129.099 32.7989 128.195 32.7989C127.163 32.7989 126.518 33.4441 126.518 34.2185C126.518 34.9928 127.163 35.38 128.454 35.8962C130.131 36.5415 131.035 37.4449 131.035 38.9936C131.035 40.8004 129.615 41.9619 127.292 41.9619C126.13 41.9619 125.227 41.7038 124.453 41.3166L124.969 39.897Z" fill="black"/>
</svg>
