<svg width="142" height="38" viewBox="0 0 142 38" fill="none" xmlns="http://www.w3.org/2000/svg">
<g clip-path="url(#clip0_136_2128)">
<path d="M59.1332 34.5009C56.6785 34.5009 54.5116 33.9326 52.6288 32.7958C50.7425 31.659 49.2789 30.1279 48.2309 28.199C47.183 26.27 46.6608 24.1102 46.6608 21.7159C46.6608 19.2931 47.1901 17.1333 48.2558 15.2327C49.3144 13.3322 50.7602 11.8402 52.5826 10.7461C54.4085 9.65547 56.4547 9.1084 58.7283 9.1084C60.5826 9.1084 62.2345 9.4139 63.6874 10.0285C65.1368 10.643 66.3624 11.5027 67.3677 12.6075C68.3695 13.7159 69.1332 14.977 69.6554 16.3979C70.1776 17.8189 70.4405 19.3358 70.4405 20.9521C70.4405 21.3393 70.4263 21.7514 70.3943 22.1848C70.3624 22.6182 70.2878 23.016 70.1705 23.3748H51.1048V19.112H67.0764L64.476 21.0409C64.7744 19.6342 64.6998 18.3802 64.2522 17.2718C63.8046 16.167 63.1013 15.2825 62.1421 14.6253C61.1865 13.9681 60.0462 13.6377 58.7318 13.6377C57.4458 13.6377 56.302 13.961 55.3002 14.604C54.2984 15.2469 53.5276 16.1741 52.9876 17.3855C52.4476 18.5969 52.238 20.0533 52.3588 21.7585C52.238 23.3429 52.4618 24.7354 53.0302 25.9326C53.5986 27.1297 54.4228 28.0498 55.4991 28.6928C56.5755 29.3358 57.8011 29.659 59.1794 29.659C60.5862 29.659 61.7798 29.3535 62.7673 28.739C63.7549 28.1279 64.5329 27.3251 65.1013 26.3375L69.5879 28.5365C69.1084 29.6732 68.3588 30.6963 67.3428 31.6093C66.3268 32.5223 65.1226 33.2327 63.73 33.7407C62.341 34.2452 60.8064 34.5009 59.1332 34.5009Z" fill="#00604C"/>
<path d="M80.4867 34.5009C78.8099 34.5009 77.3464 34.2167 76.0888 33.6484C74.8313 33.08 73.8614 32.2736 73.1723 31.2256C72.4831 30.1777 72.1421 28.9521 72.1421 27.5453C72.1421 26.199 72.4405 25.0018 73.0373 23.9574C73.6377 22.9095 74.5542 22.0285 75.7975 21.3109C77.0373 20.5933 78.6004 20.0853 80.4867 19.7869L88.6963 18.4405V22.6572L81.5169 23.9148C80.2913 24.1244 79.3712 24.5187 78.7567 25.1048C78.1421 25.6874 77.8366 26.4299 77.8366 27.3251C77.8366 28.1919 78.1741 28.9024 78.8455 29.4565C79.5204 30.0107 80.3801 30.2878 81.4245 30.2878C82.7105 30.2878 83.8472 30.0036 84.8348 29.4352C85.8224 28.8668 86.5932 28.1031 87.1439 27.1475C87.698 26.1919 87.9751 25.1297 87.9751 23.961V17.6768C87.9751 16.572 87.5488 15.6519 86.6963 14.9166C85.8437 14.1848 84.714 13.8189 83.3073 13.8189C81.9893 13.8189 80.8384 14.1635 79.8508 14.8526C78.8668 15.5418 78.1456 16.437 77.698 17.5453L73.1652 15.3002C73.6448 14.0747 74.3908 12.9983 75.4103 12.0711C76.4263 11.1439 77.6305 10.4192 79.0231 9.89348C80.4121 9.37128 81.9005 9.1084 83.4849 9.1084C85.4281 9.1084 87.1545 9.46719 88.6678 10.1848C90.1776 10.9024 91.3535 11.9041 92.1883 13.1901C93.0266 14.4761 93.4458 15.9716 93.4458 17.6768V33.961H88.2416V29.6981H89.3641C88.7638 30.7141 88.032 31.5809 87.1652 32.2985C86.2984 33.016 85.3037 33.5631 84.1812 33.9361C83.0693 34.3127 81.833 34.5009 80.4867 34.5009Z" fill="#00604C"/>
<path d="M106.465 34.5009C103.922 34.5009 101.702 33.8864 99.8046 32.6608C97.9041 31.4352 96.579 29.7585 95.833 27.6342L100.004 25.7052C100.632 27.08 101.52 28.167 102.671 28.9592C103.822 29.7514 105.087 30.1493 106.462 30.1493C107.599 30.1493 108.512 29.897 109.201 29.3855C109.89 28.8775 110.231 28.1883 110.231 27.3215C110.231 26.7816 110.082 26.3411 109.783 25.9965C109.485 25.6519 109.101 25.3677 108.639 25.1439C108.174 24.9201 107.687 24.7318 107.179 24.5826L103.275 23.5063C101.211 22.9095 99.6554 21.9965 98.611 20.7709C97.563 19.5453 97.0408 18.1102 97.0408 16.4654C97.0408 15.0018 97.4138 13.7159 98.1634 12.6075C98.9129 11.5027 99.9574 10.643 101.304 10.0285C102.65 9.4139 104.174 9.1084 105.879 9.1084C108.124 9.1084 110.124 9.65547 111.89 10.7461C113.652 11.8366 114.895 13.3713 115.613 15.3429L111.396 17.318C110.948 16.1812 110.224 15.2754 109.222 14.604C108.22 13.929 107.091 13.5951 105.833 13.5951C104.785 13.5951 103.957 13.8437 103.343 14.334C102.728 14.8278 102.423 15.4636 102.423 16.2416C102.423 16.7496 102.558 17.1759 102.824 17.5205C103.094 17.8651 103.46 18.1493 103.922 18.3731C104.387 18.5969 104.87 18.7851 105.382 18.9343L109.329 20.0995C111.332 20.6999 112.874 21.5951 113.95 22.7922C115.027 23.9894 115.567 25.4388 115.567 27.1439C115.567 28.6111 115.186 29.8899 114.423 30.9805C113.659 32.0711 112.597 32.9308 111.236 33.5596C109.883 34.1883 108.288 34.5009 106.465 34.5009Z" fill="#00604C"/>
<path d="M130.018 34.5009C127.567 34.5009 125.396 33.9326 123.513 32.7958C121.631 31.659 120.163 30.1279 119.115 28.199C118.067 26.27 117.545 24.1102 117.545 21.7159C117.545 19.2931 118.075 17.1333 119.137 15.2327C120.199 13.3322 121.641 11.8402 123.467 10.7461C125.29 9.65547 127.339 9.1084 129.613 9.1084C131.467 9.1084 133.119 9.4139 134.572 10.0285C136.021 10.643 137.25 11.5027 138.252 12.6075C139.254 13.7159 140.014 14.977 140.54 16.3979C141.062 17.8189 141.325 19.3358 141.325 20.9521C141.325 21.3393 141.311 21.7514 141.279 22.1848C141.25 22.6182 141.176 23.016 141.055 23.3748H121.989V19.112H137.961L135.357 21.0409C135.655 19.6342 135.581 18.3802 135.133 17.2718C134.686 16.167 133.982 15.2825 133.027 14.6253C132.067 13.9681 130.931 13.6377 129.616 13.6377C128.33 13.6377 127.186 13.961 126.185 14.604C125.183 15.2469 124.412 16.1741 123.876 17.3855C123.336 18.5969 123.126 20.0533 123.247 21.7585C123.126 23.3429 123.35 24.7354 123.922 25.9326C124.49 27.1297 125.314 28.0498 126.387 28.6928C127.464 29.3358 128.689 29.659 130.067 29.659C131.474 29.659 132.668 29.3535 133.655 28.739C134.643 28.1279 135.421 27.3251 135.989 26.3375L140.476 28.5365C139.996 29.6732 139.25 30.6963 138.231 31.6093C137.215 32.5223 136.011 33.2327 134.622 33.7407C133.226 34.2452 131.694 34.5009 130.018 34.5009Z" fill="#00604C"/>
<path d="M42.9592 10.3623C42.0746 8.26998 40.849 6.45115 39.2789 4.91297C37.7087 3.37123 35.8686 2.17052 33.7585 1.30018C31.6519 0.433393 29.3712 0 26.9201 0C24.4689 0 22.1847 0.426288 20.0782 1.27886C17.968 2.13144 16.1279 3.3357 14.5577 4.89165C12.9876 6.4476 11.762 8.26998 10.8775 10.3659C9.99647 12.4618 9.55597 14.7496 9.55597 17.2291C9.55597 19.7087 9.99647 22 10.8775 24.0924C11.7585 26.1847 12.9911 28.0107 14.5791 29.5666C16.1634 31.1226 18.0036 32.3339 20.0995 33.2007C22.1918 34.0675 24.4654 34.5009 26.9201 34.5009C27.6057 34.5009 28.2736 34.4583 28.9307 34.3908L25.7727 29.2433C24.5329 29.1368 23.3641 28.8561 22.2736 28.3979C20.8526 27.8011 19.6199 26.9556 18.572 25.8615C17.524 24.7709 16.7105 23.492 16.1244 22.0249C15.5418 20.5577 15.2505 18.9591 15.2505 17.2256C15.2505 15.5204 15.5418 13.9361 16.1244 12.4689C16.7069 11.0053 17.524 9.72647 18.572 8.63233C19.6164 7.54174 20.8526 6.69627 22.2736 6.09591C23.6945 5.49911 25.2398 5.19716 26.9165 5.19716C28.5897 5.19716 30.1386 5.49556 31.5595 6.09591C32.9805 6.69627 34.2132 7.53819 35.2611 8.63233C36.3091 9.72291 37.1226 11.0018 37.7052 12.4689C38.2878 13.9361 38.5826 15.5204 38.5826 17.2256C38.5826 18.9591 38.2913 20.5613 37.7052 22.0249C37.1226 23.492 36.3091 24.7673 35.2611 25.8615C34.2132 26.952 32.9805 27.7975 31.5595 28.3979C31.492 28.4263 31.4174 28.4476 31.3499 28.4725L34.1528 33.0018C36.0711 32.1492 37.7762 31.0124 39.254 29.5631C40.8384 28.0071 42.0711 26.1847 42.9556 24.0888C43.8366 21.9964 44.2771 19.7087 44.2771 17.2256C44.2771 14.7425 43.8402 12.4583 42.9592 10.3623Z" fill="#B1D135"/>
<path d="M34.9485 38L24.2736 20.5933H30.2842L41.0515 38H34.9485Z" fill="#B1D135"/>
<path d="M39.6057 3.15463V0.934383H38.92V0.461914H40.8241V0.934383H40.1492V3.15463H39.6057Z" fill="#B1D135"/>
<path d="M41.254 3.15463V0.461914H41.7762L42.7851 1.80827H42.5399L43.5239 0.461914H44.0462V3.15463H43.5026V1.06227L43.7193 1.112L42.6856 2.45481H42.6181L41.6163 1.112L41.7975 1.06227V3.15463H41.254Z" fill="#B1D135"/>
<path d="M0.813499 5.20423H5.69805V0.536377H0V33.9609H5.69805V11.3179L0.813499 5.20423Z" fill="#B1D135"/>
</g>
<defs>
<clipPath id="clip0_136_2128">
<rect width="141.325" height="38" fill="white"/>
</clipPath>
</defs>
</svg>
