<svg width="488" height="266" viewBox="0 0 488 266" fill="none" xmlns="http://www.w3.org/2000/svg">
<g filter="url(#filter0_b_437_721)">
<rect y="111" width="183.815" height="52.5185" rx="26.2593" fill="white" fill-opacity="0.09"/>
</g>
<g style="mix-blend-mode:screen">
<g style="mix-blend-mode:overlay">
<path d="M58.2631 128.233V128.554C57.0522 127.55 55.5281 127.001 53.955 127.002H28.106C26.5328 127.001 25.0088 127.55 23.7979 128.554V128.233C23.7979 127.253 24.1869 126.314 24.8794 125.621C25.5719 124.929 26.5112 124.54 27.4906 124.54H54.5704C55.5498 124.54 56.489 124.929 57.1816 125.621C57.8741 126.314 58.2631 127.253 58.2631 128.233ZM47.185 134.387C47.185 135.436 46.9168 136.468 46.406 137.384C45.8951 138.3 45.1585 139.071 44.2661 139.622C43.3737 140.174 42.3551 140.488 41.3071 140.535C40.2591 140.583 39.2164 140.361 38.2781 139.892C37.3398 139.423 36.537 138.722 35.9459 137.855C35.3548 136.988 34.9951 135.985 34.9008 134.94C34.8066 133.895 34.9811 132.843 35.4076 131.885C35.8341 130.927 36.4985 130.093 37.3378 129.464H28.7215V152.851C28.7244 153.829 29.1144 154.767 29.8063 155.459C30.4981 156.15 31.4357 156.54 32.4142 156.543H49.6468C50.6253 156.54 51.5628 156.15 52.2547 155.459C52.9466 154.767 53.3366 153.829 53.3395 152.851V129.464H44.7232C45.4869 130.037 46.1067 130.781 46.534 131.635C46.9612 132.49 47.184 133.432 47.185 134.387ZM41.0305 138.08C41.7608 138.08 42.4748 137.863 43.082 137.458C43.6893 137.052 44.1626 136.475 44.4421 135.8C44.7216 135.126 44.7947 134.383 44.6522 133.667C44.5098 132.95 44.1581 132.292 43.6416 131.776C43.1252 131.26 42.4672 130.908 41.7509 130.765C41.0346 130.623 40.2921 130.696 39.6173 130.976C38.9426 131.255 38.3659 131.728 37.9601 132.336C37.5544 132.943 37.3378 133.657 37.3378 134.387C37.3407 135.366 37.7307 136.303 38.4226 136.995C39.1145 137.687 40.052 138.077 41.0305 138.08ZM55.8013 129.896V137.65C56.538 137.305 57.1611 136.757 57.5976 136.07C58.034 135.383 58.2658 134.587 58.2658 133.773C58.2658 132.959 58.034 132.162 57.5976 131.476C57.1611 130.789 56.538 130.241 55.8013 129.896ZM23.7979 133.772C23.8009 134.584 24.0337 135.379 24.4693 136.065C24.9049 136.751 25.5256 137.3 26.2597 137.648V129.893C25.5252 130.241 24.9043 130.791 24.4687 131.477C24.033 132.163 23.8005 132.959 23.7979 133.772Z" fill="white"/>
</g>
</g>
<path d="M77.0557 136.024C76.2482 136.024 75.4949 135.882 74.7957 135.596C74.0966 135.31 73.4861 134.912 72.9642 134.4C72.4423 133.888 72.0336 133.287 71.7382 132.598C71.4526 131.898 71.3098 131.145 71.3098 130.338C71.3098 129.52 71.4526 128.767 71.7382 128.078C72.0238 127.388 72.4275 126.788 72.9494 126.276C73.4713 125.764 74.0818 125.37 74.781 125.094C75.4801 124.808 76.2384 124.666 77.0557 124.666C77.873 124.666 78.6312 124.808 79.3304 125.094C80.0295 125.38 80.6401 125.778 81.162 126.29C81.6839 126.793 82.0876 127.388 82.3732 128.078C82.6686 128.767 82.8163 129.52 82.8163 130.338C82.8163 131.145 82.6686 131.898 82.3732 132.598C82.0778 133.287 81.6691 133.888 81.1472 134.4C80.6253 134.912 80.0148 135.31 79.3156 135.596C78.6263 135.882 77.873 136.024 77.0557 136.024ZM77.0557 134.193C77.5973 134.193 78.0946 134.099 78.5475 133.912C79.0005 133.715 79.3944 133.444 79.7292 133.1C80.0739 132.755 80.3348 132.346 80.5121 131.874C80.6992 131.401 80.7927 130.889 80.7927 130.338C80.7927 129.786 80.6992 129.279 80.5121 128.816C80.3348 128.344 80.0739 127.935 79.7292 127.59C79.3944 127.236 79.0005 126.965 78.5475 126.778C78.0946 126.591 77.5973 126.497 77.0557 126.497C76.5239 126.497 76.0316 126.591 75.5786 126.778C75.1256 126.965 74.7268 127.236 74.3822 127.59C74.0474 127.935 73.7864 128.344 73.5993 128.816C73.4122 129.279 73.3187 129.786 73.3187 130.338C73.3187 130.889 73.4122 131.401 73.5993 131.874C73.7864 132.346 74.0474 132.755 74.3822 133.1C74.7268 133.444 75.1256 133.715 75.5786 133.912C76.0316 134.099 76.5239 134.193 77.0557 134.193ZM79.5963 137.177L76.1694 131.445H78.2669L81.738 137.177H79.5963ZM87.3056 136.024C86.6852 136.024 86.1436 135.887 85.6808 135.611C85.2278 135.335 84.8783 134.951 84.6321 134.459C84.3957 133.966 84.2776 133.39 84.2776 132.731V127.812H86.2126V132.568C86.2126 132.903 86.2766 133.198 86.4046 133.454C86.5424 133.7 86.7345 133.897 86.9806 134.045C87.2367 134.183 87.5222 134.252 87.8374 134.252C88.1525 134.252 88.4331 134.183 88.6793 134.045C88.9255 133.897 89.1175 133.696 89.2553 133.44C89.3932 133.183 89.4621 132.878 89.4621 132.524V127.812H91.3971V135.847H89.5655V134.267L89.728 134.547C89.5409 135.04 89.2307 135.409 88.7975 135.655C88.374 135.901 87.8767 136.024 87.3056 136.024ZM93.1958 135.847V127.812H95.1308V135.847H93.1958ZM93.1958 126.911V124.843H95.1308V126.911H93.1958ZM100.787 136.024C99.9897 136.024 99.2709 135.842 98.6308 135.478C98.0006 135.104 97.5033 134.601 97.1389 133.971C96.7746 133.331 96.5924 132.612 96.5924 131.815C96.5924 131.017 96.7746 130.303 97.1389 129.673C97.5033 129.043 98.0006 128.545 98.6308 128.181C99.2709 127.817 99.9897 127.635 100.787 127.635C101.358 127.635 101.89 127.738 102.383 127.945C102.875 128.142 103.298 128.417 103.653 128.772C104.017 129.117 104.278 129.53 104.436 130.013L102.737 130.751C102.589 130.347 102.338 130.023 101.984 129.776C101.639 129.53 101.24 129.407 100.787 129.407C100.364 129.407 99.9848 129.51 99.65 129.717C99.325 129.924 99.069 130.21 98.8819 130.574C98.6948 130.938 98.6012 131.357 98.6012 131.83C98.6012 132.302 98.6948 132.721 98.8819 133.085C99.069 133.449 99.325 133.735 99.65 133.942C99.9848 134.149 100.364 134.252 100.787 134.252C101.25 134.252 101.654 134.129 101.999 133.883C102.343 133.636 102.589 133.307 102.737 132.893L104.436 133.661C104.278 134.114 104.022 134.523 103.668 134.887C103.313 135.242 102.89 135.522 102.397 135.729C101.905 135.926 101.368 136.024 100.787 136.024ZM105.904 135.847V124.666H107.839V131.992L107.1 131.77L110.882 127.812H113.289L110.32 131.047L113.348 135.847H111.133L108.504 131.682L109.656 131.445L107.233 134.045L107.839 132.863V135.847H105.904ZM73.6879 153.847L70.7338 142.843H72.8903L75.2093 152.222H74.648L77.0705 142.843H79.1531L81.5608 152.222H80.9995L83.3185 142.843H85.4751L82.5209 153.847H80.2166L77.7795 144.719H78.4294L75.9922 153.847H73.6879ZM86.5316 153.847V145.812H88.4666V153.847H86.5316ZM86.5316 144.911V142.843H88.4666V144.911H86.5316ZM93.9164 153.936C93.0104 153.936 92.3063 153.69 91.8041 153.197C91.3118 152.695 91.0656 151.991 91.0656 151.085V147.54H89.6771V145.812H89.8248C90.2187 145.812 90.524 145.708 90.7406 145.502C90.9573 145.295 91.0656 144.995 91.0656 144.601V143.98H93.0006V145.812H94.8469V147.54H93.0006V150.982C93.0006 151.248 93.0449 151.474 93.1335 151.661C93.232 151.848 93.3797 151.991 93.5766 152.089C93.7834 152.188 94.0444 152.237 94.3595 152.237C94.4284 152.237 94.5072 152.232 94.5958 152.222C94.6943 152.213 94.7878 152.203 94.8765 152.193V153.847C94.7386 153.867 94.581 153.887 94.4038 153.906C94.2265 153.926 94.0641 153.936 93.9164 153.936ZM96.3548 153.847V142.666H98.2898V147.392L98.0239 147.112C98.211 146.629 98.5163 146.265 98.9397 146.019C99.373 145.763 99.8752 145.635 100.446 145.635C101.037 145.635 101.559 145.763 102.012 146.019C102.475 146.275 102.834 146.634 103.09 147.097C103.346 147.55 103.474 148.077 103.474 148.677V153.847H101.539V149.135C101.539 148.781 101.47 148.476 101.333 148.219C101.195 147.963 101.003 147.767 100.757 147.629C100.52 147.481 100.24 147.407 99.9146 147.407C99.5995 147.407 99.3188 147.481 99.0726 147.629C98.8265 147.767 98.6344 147.963 98.4966 148.219C98.3587 148.476 98.2898 148.781 98.2898 149.135V153.847H96.3548ZM108.848 154.024C108.07 154.024 107.375 153.842 106.765 153.478C106.154 153.104 105.672 152.597 105.317 151.957C104.963 151.316 104.786 150.607 104.786 149.83C104.786 149.042 104.963 148.333 105.317 147.703C105.672 147.072 106.154 146.57 106.765 146.196C107.385 145.822 108.075 145.635 108.833 145.635C109.443 145.635 109.985 145.758 110.458 146.004C110.94 146.24 111.319 146.575 111.595 147.008L111.3 147.407V142.666H113.235V153.847H111.403V152.296L111.61 152.68C111.334 153.114 110.95 153.448 110.458 153.685C109.965 153.911 109.429 154.024 108.848 154.024ZM109.054 152.252C109.498 152.252 109.886 152.149 110.221 151.942C110.556 151.735 110.817 151.449 111.004 151.085C111.201 150.721 111.3 150.302 111.3 149.83C111.3 149.367 111.201 148.953 111.004 148.589C110.817 148.215 110.556 147.924 110.221 147.717C109.886 147.51 109.498 147.407 109.054 147.407C108.621 147.407 108.232 147.515 107.887 147.732C107.543 147.939 107.272 148.224 107.075 148.589C106.888 148.943 106.794 149.357 106.794 149.83C106.794 150.302 106.888 150.721 107.075 151.085C107.272 151.449 107.543 151.735 107.887 151.942C108.232 152.149 108.621 152.252 109.054 152.252ZM115.035 153.847V145.812H116.852V147.599L116.704 147.333C116.891 146.733 117.181 146.314 117.575 146.078C117.979 145.841 118.462 145.723 119.023 145.723H119.496V147.437H118.801C118.25 147.437 117.807 147.609 117.472 147.954C117.137 148.288 116.97 148.761 116.97 149.372V153.847H115.035ZM122.997 154.024C122.435 154.024 121.948 153.931 121.534 153.744C121.121 153.557 120.801 153.291 120.574 152.946C120.348 152.592 120.234 152.183 120.234 151.72C120.234 151.277 120.333 150.883 120.53 150.539C120.727 150.184 121.032 149.889 121.446 149.652C121.859 149.416 122.381 149.249 123.011 149.15L125.641 148.722V150.199L123.381 150.583C122.997 150.652 122.711 150.775 122.524 150.952C122.337 151.129 122.243 151.361 122.243 151.646C122.243 151.922 122.347 152.144 122.553 152.311C122.77 152.469 123.036 152.547 123.351 152.547C123.755 152.547 124.109 152.464 124.415 152.296C124.73 152.119 124.971 151.878 125.138 151.572C125.316 151.267 125.404 150.932 125.404 150.568V148.5C125.404 148.155 125.266 147.87 124.991 147.643C124.725 147.407 124.37 147.289 123.927 147.289C123.514 147.289 123.144 147.402 122.819 147.629C122.504 147.845 122.273 148.136 122.125 148.5L120.545 147.732C120.702 147.309 120.948 146.944 121.283 146.639C121.628 146.324 122.032 146.078 122.494 145.9C122.957 145.723 123.459 145.635 124.001 145.635C124.661 145.635 125.242 145.758 125.744 146.004C126.246 146.24 126.635 146.575 126.911 147.008C127.196 147.432 127.339 147.929 127.339 148.5V153.847H125.508V152.473L125.921 152.444C125.714 152.789 125.468 153.079 125.183 153.315C124.897 153.542 124.572 153.719 124.208 153.847C123.843 153.965 123.44 154.024 122.997 154.024ZM131.151 153.847L128.389 145.812H130.427L132.451 151.912L131.742 151.897L133.899 145.812H135.612L137.754 151.897L137.045 151.912L139.068 145.812H141.107L138.345 153.847H136.616L134.43 147.481H135.08L132.865 153.847H131.151ZM144.316 154.024C143.755 154.024 143.267 153.931 142.854 153.744C142.44 153.557 142.12 153.291 141.894 152.946C141.667 152.592 141.554 152.183 141.554 151.72C141.554 151.277 141.652 150.883 141.849 150.539C142.046 150.184 142.352 149.889 142.765 149.652C143.179 149.416 143.701 149.249 144.331 149.15L146.96 148.722V150.199L144.7 150.583C144.316 150.652 144.031 150.775 143.843 150.952C143.656 151.129 143.563 151.361 143.563 151.646C143.563 151.922 143.666 152.144 143.873 152.311C144.09 152.469 144.356 152.547 144.671 152.547C145.074 152.547 145.429 152.464 145.734 152.296C146.049 152.119 146.291 151.878 146.458 151.572C146.635 151.267 146.724 150.932 146.724 150.568V148.5C146.724 148.155 146.586 147.87 146.31 147.643C146.044 147.407 145.69 147.289 145.247 147.289C144.833 147.289 144.464 147.402 144.139 147.629C143.824 147.845 143.592 148.136 143.445 148.5L141.864 147.732C142.022 147.309 142.268 146.944 142.603 146.639C142.947 146.324 143.351 146.078 143.814 145.9C144.277 145.723 144.779 145.635 145.321 145.635C145.98 145.635 146.561 145.758 147.064 146.004C147.566 146.24 147.955 146.575 148.23 147.008C148.516 147.432 148.659 147.929 148.659 148.5V153.847H146.827V152.473L147.241 152.444C147.034 152.789 146.788 153.079 146.502 153.315C146.217 153.542 145.892 153.719 145.527 153.847C145.163 153.965 144.759 154.024 144.316 154.024ZM150.447 153.847V142.666H152.382V153.847H150.447Z" fill="white"/>
<g filter="url(#filter1_b_437_721)">
<rect x="364" width="71.8305" height="71.8305" rx="35.9152" fill="white" fill-opacity="0.09"/>
</g>
<path fill-rule="evenodd" clip-rule="evenodd" d="M418.941 31.8135C418.135 30.0339 417.017 28.4869 415.585 27.1786C414.153 25.8673 412.475 24.8461 410.551 24.1058C408.63 23.3686 406.55 23 404.314 23C402.079 23 399.996 23.3626 398.075 24.0877C396.151 24.8129 394.472 25.8371 393.041 27.1605C391.609 28.4839 390.491 30.0339 389.684 31.8165C388.881 33.5992 388.479 35.545 388.479 37.654C388.479 39.7629 388.881 41.7117 389.684 43.4914C390.488 45.271 391.612 46.824 393.06 48.1474C394.505 49.4708 396.183 50.5011 398.094 51.2383C400.002 51.9755 402.076 52.3442 404.314 52.3442C404.94 52.3442 405.549 52.3079 406.148 52.2505L403.268 47.8724C402.137 47.7818 401.072 47.5431 400.077 47.1533C398.781 46.6457 397.657 45.9266 396.701 44.996C395.746 44.0685 395.004 42.9807 394.469 41.7329C393.938 40.485 393.672 39.1254 393.672 37.6509C393.672 36.2006 393.938 34.8531 394.469 33.6052C395.001 32.3604 395.746 31.2727 396.701 30.3421C397.654 29.4145 398.781 28.6954 400.077 28.1848C401.373 27.6772 402.782 27.4204 404.311 27.4204C405.837 27.4204 407.249 27.6742 408.545 28.1848C409.841 28.6954 410.965 29.4115 411.921 30.3421C412.877 31.2697 413.619 32.3574 414.15 33.6052C414.681 34.8531 414.95 36.2006 414.95 37.6509C414.95 39.1254 414.684 40.4881 414.15 41.7329C413.619 42.9807 412.877 44.0654 411.921 44.996C411.605 45.3025 411.271 45.5861 410.919 45.8471L407.382 40.5152H401.901L411.636 55.3202H417.202L413.494 49.7296C414.229 49.2599 414.919 48.7324 415.562 48.1444C417.007 46.821 418.131 45.271 418.938 43.4883C419.741 41.7087 420.143 39.7629 420.143 37.6509C420.143 35.5389 419.745 33.5962 418.941 31.8135ZM415.883 23.7946V25.683H416.379V23.7946H416.994V23.3928H415.258V23.7946H415.883ZM417.386 25.683V23.3928H417.862L418.669 24.3971L419.456 23.3928H419.932V25.683H419.437V24.1851L418.692 25.0878H418.63L417.882 24.1523V25.683H417.386ZM384.961 27.4264H380.507L384.961 32.6263V51.8849H379.765V23.4562H384.961V27.4264Z" fill="white"/>
<g filter="url(#filter2_b_437_721)">
<rect x="335" y="213" width="152.632" height="52.5185" rx="26.2593" fill="white" fill-opacity="0.07"/>
</g>
<g style="mix-blend-mode:screen" clip-path="url(#clip0_437_721)">
<g style="mix-blend-mode:overlay">
<path fill-rule="evenodd" clip-rule="evenodd" d="M372.14 230.468V227.093L371.147 228.087L369.814 226.754L373.067 223.501L376.321 226.754L374.988 228.087L374.025 227.124V230.453L373.095 229.916L372.14 230.468ZM373.095 238.499L378.644 235.297L373.095 232.093L367.546 235.297L373.095 238.499ZM379.587 236.929L374.037 240.131V246.541L379.587 243.337V236.929ZM366.603 236.928L372.153 240.131V246.541L366.603 243.337V236.928ZM385.901 242.837L389.154 239.583L385.901 236.33L384.568 237.663L385.549 238.643H381.471V240.528H385.544L384.568 241.504L385.901 242.837ZM378.382 232.969L380.072 233.944L384.201 229.816C384.69 230.085 385.242 230.228 385.816 230.228H385.816C386.714 230.228 387.558 229.879 388.193 229.244C389.503 227.934 389.503 225.801 388.193 224.491H388.193C386.882 223.18 384.75 223.18 383.44 224.491C382.36 225.57 382.171 227.206 382.869 228.482L378.382 232.969ZM384.202 249.363C385.477 248.665 387.114 248.854 388.193 249.934C388.827 250.568 389.177 251.412 389.177 252.31C389.177 253.208 388.827 254.052 388.193 254.687C387.537 255.342 386.677 255.669 385.816 255.669C384.956 255.669 384.095 255.342 383.44 254.687C382.36 253.608 382.171 251.972 382.869 250.696L378.382 246.209L380.072 245.233L384.202 249.363ZM374.025 252.052V248.724L373.095 249.261L372.14 248.71V252.073L371.152 251.084L369.819 252.417L373.072 255.67L376.325 252.417L374.993 251.084L374.025 252.052ZM366.118 245.233L367.808 246.209L363.321 250.696C364.019 251.972 363.829 253.608 362.75 254.687C362.115 255.322 361.271 255.671 360.374 255.671C359.476 255.671 358.632 255.322 357.997 254.687C356.687 253.376 356.687 251.244 357.997 249.934C358.632 249.299 359.476 248.949 360.374 248.949C360.948 248.949 361.5 249.093 361.989 249.362L366.118 245.233ZM360.374 230.227C360.931 230.227 361.487 230.089 361.988 229.815L366.118 233.944L367.808 232.969L363.322 228.483C363.591 227.994 363.735 227.442 363.735 226.868C363.735 225.97 363.385 225.126 362.75 224.491C361.44 223.181 359.308 223.181 357.997 224.491C356.687 225.801 356.687 227.934 357.997 229.244C358.653 229.899 359.513 230.227 360.374 230.227ZM360.59 240.528L361.571 241.509L360.239 242.841L356.985 239.588L360.239 236.335L361.571 237.667L360.595 238.643H364.718V240.528H360.59Z" fill="white"/>
</g>
</g>
<path d="M403.353 236.206V225.202H405.361V234.433H410.073V236.206H403.353ZM415.139 236.383C414.351 236.383 413.633 236.201 412.983 235.837C412.343 235.472 411.831 234.975 411.447 234.345C411.072 233.715 410.885 232.996 410.885 232.188C410.885 231.381 411.072 230.662 411.447 230.032C411.831 229.402 412.343 228.904 412.983 228.54C413.623 228.176 414.342 227.993 415.139 227.993C415.927 227.993 416.641 228.176 417.281 228.54C417.921 228.904 418.428 229.402 418.802 230.032C419.186 230.652 419.378 231.371 419.378 232.188C419.378 232.996 419.186 233.715 418.802 234.345C418.418 234.975 417.906 235.472 417.266 235.837C416.626 236.201 415.917 236.383 415.139 236.383ZM415.139 234.611C415.573 234.611 415.952 234.507 416.277 234.3C416.611 234.094 416.872 233.808 417.059 233.444C417.256 233.07 417.355 232.651 417.355 232.188C417.355 231.716 417.256 231.302 417.059 230.948C416.872 230.583 416.611 230.298 416.277 230.091C415.952 229.874 415.573 229.766 415.139 229.766C414.696 229.766 414.307 229.874 413.972 230.091C413.638 230.298 413.372 230.583 413.175 230.948C412.988 231.302 412.894 231.716 412.894 232.188C412.894 232.651 412.988 233.07 413.175 233.444C413.372 233.808 413.638 234.094 413.972 234.3C414.307 234.507 414.696 234.611 415.139 234.611ZM422.725 236.206L419.963 228.171H422.001L424.025 234.271L423.316 234.256L425.473 228.171H427.186L429.328 234.256L428.619 234.271L430.642 228.171H432.681L429.919 236.206H428.19L426.004 229.84H426.654L424.439 236.206H422.725ZM407.282 254.383C406.582 254.383 405.933 254.255 405.332 253.999C404.741 253.743 404.229 253.389 403.796 252.936C403.372 252.473 403.062 251.936 402.865 251.326L404.534 250.602C404.8 251.232 405.184 251.729 405.686 252.094C406.189 252.448 406.755 252.625 407.385 252.625C407.739 252.625 408.045 252.571 408.301 252.463C408.567 252.345 408.769 252.187 408.906 251.99C409.054 251.793 409.128 251.557 409.128 251.281C409.128 250.956 409.029 250.69 408.833 250.484C408.645 250.267 408.36 250.1 407.976 249.981L405.864 249.302C405.007 249.036 404.362 248.637 403.929 248.106C403.495 247.574 403.279 246.949 403.279 246.23C403.279 245.599 403.431 245.043 403.737 244.561C404.052 244.078 404.485 243.704 405.036 243.438C405.598 243.162 406.238 243.024 406.957 243.024C407.616 243.024 408.222 243.143 408.773 243.379C409.325 243.605 409.798 243.925 410.191 244.339C410.595 244.743 410.896 245.22 411.092 245.772L409.438 246.51C409.222 245.959 408.897 245.535 408.463 245.24C408.03 244.935 407.528 244.782 406.957 244.782C406.622 244.782 406.326 244.841 406.07 244.959C405.814 245.068 405.612 245.225 405.465 245.432C405.327 245.629 405.258 245.865 405.258 246.141C405.258 246.446 405.356 246.717 405.553 246.953C405.75 247.18 406.051 247.357 406.454 247.485L408.478 248.12C409.354 248.406 410.009 248.8 410.443 249.302C410.886 249.804 411.107 250.425 411.107 251.163C411.107 251.793 410.945 252.35 410.62 252.832C410.295 253.315 409.847 253.694 409.276 253.97C408.705 254.245 408.04 254.383 407.282 254.383ZM412.754 257.16V246.171H414.57V247.766L414.393 247.367C414.669 246.934 415.043 246.599 415.516 246.363C415.988 246.116 416.535 245.993 417.155 245.993C417.914 245.993 418.598 246.18 419.208 246.555C419.819 246.929 420.302 247.431 420.656 248.061C421.02 248.691 421.203 249.4 421.203 250.188C421.203 250.966 421.025 251.675 420.671 252.315C420.316 252.955 419.834 253.462 419.223 253.837C418.613 254.201 417.918 254.383 417.141 254.383C416.56 254.383 416.023 254.27 415.531 254.043C415.048 253.807 414.664 253.472 414.378 253.039L414.689 252.655V257.16H412.754ZM416.919 252.611C417.362 252.611 417.756 252.507 418.101 252.3C418.445 252.094 418.711 251.808 418.898 251.444C419.095 251.079 419.194 250.661 419.194 250.188C419.194 249.716 419.095 249.302 418.898 248.948C418.711 248.583 418.445 248.298 418.101 248.091C417.756 247.874 417.362 247.766 416.919 247.766C416.496 247.766 416.112 247.869 415.767 248.076C415.432 248.283 415.166 248.573 414.969 248.948C414.782 249.312 414.689 249.725 414.689 250.188C414.689 250.661 414.782 251.079 414.969 251.444C415.166 251.808 415.432 252.094 415.767 252.3C416.112 252.507 416.496 252.611 416.919 252.611ZM422.678 254.206V246.171H424.495V247.958L424.347 247.692C424.534 247.091 424.824 246.673 425.218 246.436C425.622 246.2 426.105 246.082 426.666 246.082H427.139V247.795H426.444C425.893 247.795 425.45 247.968 425.115 248.312C424.78 248.647 424.613 249.12 424.613 249.73V254.206H422.678ZM432.013 254.383C431.186 254.383 430.462 254.196 429.842 253.822C429.222 253.448 428.739 252.941 428.394 252.3C428.05 251.66 427.877 250.951 427.877 250.173C427.877 249.366 428.05 248.652 428.394 248.032C428.749 247.402 429.227 246.904 429.827 246.54C430.438 246.176 431.117 245.993 431.866 245.993C432.496 245.993 433.047 246.097 433.52 246.304C434.002 246.51 434.411 246.796 434.746 247.16C435.081 247.525 435.337 247.943 435.514 248.416C435.691 248.879 435.78 249.381 435.78 249.922C435.78 250.06 435.77 250.203 435.75 250.351C435.74 250.498 435.716 250.626 435.676 250.735H429.473V249.258H434.583L433.668 249.952C433.756 249.499 433.732 249.095 433.594 248.741C433.466 248.386 433.249 248.106 432.944 247.899C432.648 247.692 432.289 247.589 431.866 247.589C431.462 247.589 431.102 247.692 430.787 247.899C430.472 248.096 430.231 248.391 430.064 248.785C429.906 249.169 429.847 249.637 429.886 250.188C429.847 250.681 429.911 251.119 430.078 251.503C430.256 251.877 430.512 252.168 430.846 252.374C431.191 252.581 431.585 252.685 432.028 252.685C432.471 252.685 432.845 252.591 433.151 252.404C433.466 252.217 433.712 251.966 433.889 251.651L435.455 252.419C435.297 252.803 435.051 253.142 434.716 253.438C434.382 253.733 433.983 253.965 433.52 254.132C433.067 254.299 432.565 254.383 432.013 254.383ZM439.655 254.383C439.094 254.383 438.606 254.29 438.193 254.103C437.779 253.915 437.459 253.65 437.233 253.305C437.006 252.95 436.893 252.542 436.893 252.079C436.893 251.636 436.991 251.242 437.188 250.897C437.385 250.543 437.69 250.247 438.104 250.011C438.518 249.775 439.04 249.607 439.67 249.509L442.299 249.08V250.558L440.039 250.942C439.655 251.011 439.369 251.134 439.182 251.311C438.995 251.488 438.902 251.72 438.902 252.005C438.902 252.281 439.005 252.502 439.212 252.67C439.429 252.827 439.694 252.906 440.009 252.906C440.413 252.906 440.768 252.822 441.073 252.655C441.388 252.478 441.629 252.236 441.797 251.931C441.974 251.626 442.063 251.291 442.063 250.927V248.859C442.063 248.514 441.925 248.229 441.649 248.002C441.383 247.766 441.029 247.648 440.586 247.648C440.172 247.648 439.803 247.761 439.478 247.987C439.163 248.204 438.931 248.495 438.784 248.859L437.203 248.091C437.361 247.667 437.607 247.303 437.942 246.998C438.286 246.683 438.69 246.436 439.153 246.259C439.616 246.082 440.118 245.993 440.659 245.993C441.319 245.993 441.9 246.116 442.402 246.363C442.905 246.599 443.294 246.934 443.569 247.367C443.855 247.79 443.998 248.288 443.998 248.859V254.206H442.166V252.832L442.58 252.803C442.373 253.147 442.127 253.438 441.841 253.674C441.556 253.901 441.231 254.078 440.866 254.206C440.502 254.324 440.098 254.383 439.655 254.383ZM449.523 254.383C448.745 254.383 448.051 254.201 447.44 253.837C446.83 253.462 446.347 252.955 445.993 252.315C445.638 251.675 445.461 250.966 445.461 250.188C445.461 249.4 445.638 248.691 445.993 248.061C446.347 247.431 446.83 246.929 447.44 246.555C448.061 246.18 448.75 245.993 449.508 245.993C450.119 245.993 450.66 246.116 451.133 246.363C451.616 246.599 451.995 246.934 452.27 247.367L451.975 247.766V243.024H453.91V254.206H452.078V252.655L452.285 253.039C452.009 253.472 451.625 253.807 451.133 254.043C450.641 254.27 450.104 254.383 449.523 254.383ZM449.73 252.611C450.173 252.611 450.562 252.507 450.897 252.3C451.232 252.094 451.493 251.808 451.68 251.444C451.877 251.079 451.975 250.661 451.975 250.188C451.975 249.725 451.877 249.312 451.68 248.948C451.493 248.573 451.232 248.283 450.897 248.076C450.562 247.869 450.173 247.766 449.73 247.766C449.297 247.766 448.908 247.874 448.563 248.091C448.218 248.298 447.948 248.583 447.751 248.948C447.563 249.302 447.47 249.716 447.47 250.188C447.47 250.661 447.563 251.079 447.751 251.444C447.948 251.808 448.218 252.094 448.563 252.3C448.908 252.507 449.297 252.611 449.73 252.611ZM458.768 254.383C457.911 254.383 457.163 254.181 456.523 253.778C455.892 253.364 455.459 252.808 455.223 252.108L456.67 251.414C456.877 251.867 457.163 252.222 457.527 252.478C457.901 252.734 458.315 252.862 458.768 252.862C459.122 252.862 459.403 252.783 459.61 252.625C459.816 252.468 459.92 252.261 459.92 252.005C459.92 251.848 459.876 251.72 459.787 251.621C459.708 251.513 459.595 251.424 459.447 251.355C459.309 251.276 459.157 251.212 458.989 251.163L457.675 250.794C456.995 250.597 456.478 250.297 456.124 249.893C455.779 249.489 455.607 249.012 455.607 248.46C455.607 247.968 455.73 247.539 455.976 247.175C456.232 246.801 456.582 246.51 457.025 246.304C457.478 246.097 457.995 245.993 458.576 245.993C459.334 245.993 460.004 246.176 460.585 246.54C461.166 246.904 461.579 247.416 461.825 248.076L460.348 248.77C460.21 248.406 459.979 248.115 459.654 247.899C459.329 247.682 458.965 247.574 458.561 247.574C458.236 247.574 457.98 247.648 457.793 247.795C457.606 247.943 457.512 248.135 457.512 248.371C457.512 248.519 457.552 248.647 457.63 248.755C457.709 248.864 457.817 248.952 457.955 249.021C458.103 249.09 458.27 249.154 458.458 249.213L459.743 249.597C460.402 249.794 460.91 250.09 461.264 250.484C461.628 250.878 461.811 251.36 461.811 251.931C461.811 252.414 461.683 252.842 461.426 253.216C461.17 253.581 460.816 253.866 460.363 254.073C459.91 254.28 459.378 254.383 458.768 254.383Z" fill="white"/>
<defs>
<filter id="filter0_b_437_721" x="-29.7401" y="81.2599" width="243.295" height="111.999" filterUnits="userSpaceOnUse" color-interpolation-filters="sRGB">
<feFlood flood-opacity="0" result="BackgroundImageFix"/>
<feGaussianBlur in="BackgroundImageFix" stdDeviation="14.8701"/>
<feComposite in2="SourceAlpha" operator="in" result="effect1_backgroundBlur_437_721"/>
<feBlend mode="normal" in="SourceGraphic" in2="effect1_backgroundBlur_437_721" result="shape"/>
</filter>
<filter id="filter1_b_437_721" x="334.26" y="-29.7401" width="131.31" height="131.311" filterUnits="userSpaceOnUse" color-interpolation-filters="sRGB">
<feFlood flood-opacity="0" result="BackgroundImageFix"/>
<feGaussianBlur in="BackgroundImageFix" stdDeviation="14.8701"/>
<feComposite in2="SourceAlpha" operator="in" result="effect1_backgroundBlur_437_721"/>
<feBlend mode="normal" in="SourceGraphic" in2="effect1_backgroundBlur_437_721" result="shape"/>
</filter>
<filter id="filter2_b_437_721" x="305.26" y="183.26" width="212.112" height="111.999" filterUnits="userSpaceOnUse" color-interpolation-filters="sRGB">
<feFlood flood-opacity="0" result="BackgroundImageFix"/>
<feGaussianBlur in="BackgroundImageFix" stdDeviation="14.8701"/>
<feComposite in2="SourceAlpha" operator="in" result="effect1_backgroundBlur_437_721"/>
<feBlend mode="normal" in="SourceGraphic" in2="effect1_backgroundBlur_437_721" result="shape"/>
</filter>
<clipPath id="clip0_437_721">
<rect width="32.8241" height="32.8241" fill="white" transform="translate(356.336 222.847)"/>
</clipPath>
</defs>
</svg>
