<svg width="50" height="50" viewBox="0 0 50 50" fill="none" xmlns="http://www.w3.org/2000/svg">
<g clip-path="url(#clip0_450_3452)">
<g clip-path="url(#clip1_450_3452)">
<path d="M25 15.25C27.5305 17.4888 30.8332 18.6544 34.2083 18.5C34.6997 20.1716 34.8501 21.9249 34.6505 23.6558C34.4508 25.3866 33.9053 27.0597 33.0463 28.5756C32.1873 30.0914 31.0324 31.4192 29.6501 32.4799C28.2679 33.5405 26.6865 34.3126 25 34.75C23.3135 34.3126 21.7321 33.5405 20.3498 32.4799C18.9676 31.4192 17.8126 30.0914 16.9536 28.5756C16.0946 27.0597 15.5491 25.3866 15.3495 23.6558C15.1499 21.9249 15.3003 20.1716 15.7917 18.5C19.1668 18.6544 22.4695 17.4888 25 15.25Z" stroke="#8E8E8E" stroke-width="1.2" stroke-linecap="round" stroke-linejoin="round"/>
<path d="M23.9167 23.9166C23.9167 24.2039 24.0309 24.4795 24.234 24.6826C24.4372 24.8858 24.7128 24.9999 25.0001 24.9999C25.2874 24.9999 25.5629 24.8858 25.7661 24.6826C25.9693 24.4795 26.0834 24.2039 26.0834 23.9166C26.0834 23.6293 25.9693 23.3537 25.7661 23.1506C25.5629 22.9474 25.2874 22.8333 25.0001 22.8333C24.7128 22.8333 24.4372 22.9474 24.234 23.1506C24.0309 23.3537 23.9167 23.6293 23.9167 23.9166Z" stroke="#8E8E8E" stroke-width="1.2" stroke-linecap="round" stroke-linejoin="round"/>
<path d="M25 25V27.7083" stroke="#8E8E8E" stroke-width="1.2" stroke-linecap="round" stroke-linejoin="round"/>
</g>
<path d="M42.5 0.625H7.5C3.70304 0.625 0.625 3.70304 0.625 7.5V42.5C0.625 46.297 3.70304 49.375 7.5 49.375H42.5C46.297 49.375 49.375 46.297 49.375 42.5V7.5C49.375 3.70304 46.297 0.625 42.5 0.625Z" stroke="url(#paint0_linear_450_3452)"/>
</g>
<defs>
<linearGradient id="paint0_linear_450_3452" x1="20" y1="9.01592e-07" x2="36.875" y2="65" gradientUnits="userSpaceOnUse">
<stop stop-color="white"/>
<stop offset="1" stop-color="#D0D0D0"/>
</linearGradient>
<clipPath id="clip0_450_3452">
<rect width="50" height="50" fill="white"/>
</clipPath>
<clipPath id="clip1_450_3452">
<rect width="26" height="26" fill="white" transform="translate(12 12)"/>
</clipPath>
</defs>
</svg>
