<svg width="50" height="50" viewBox="0 0 50 50" fill="none" xmlns="http://www.w3.org/2000/svg">
<g clip-path="url(#clip0_450_3444)">
<g clip-path="url(#clip1_450_3444)">
<path d="M15.25 30.4167C15.25 29.842 15.4783 29.2909 15.8846 28.8846C16.2909 28.4783 16.842 28.25 17.4167 28.25H19.5833C20.158 28.25 20.7091 28.4783 21.1154 28.8846C21.5217 29.2909 21.75 29.842 21.75 30.4167V32.5833C21.75 33.158 21.5217 33.7091 21.1154 34.1154C20.7091 34.5217 20.158 34.75 19.5833 34.75H17.4167C16.842 34.75 16.2909 34.5217 15.8846 34.1154C15.4783 33.7091 15.25 33.158 15.25 32.5833V30.4167Z" stroke="#8E8E8E" stroke-width="1.2" stroke-linecap="round" stroke-linejoin="round"/>
<path d="M28.25 30.4167C28.25 29.842 28.4783 29.2909 28.8846 28.8846C29.2909 28.4783 29.842 28.25 30.4167 28.25H32.5833C33.158 28.25 33.7091 28.4783 34.1154 28.8846C34.5217 29.2909 34.75 29.842 34.75 30.4167V32.5833C34.75 33.158 34.5217 33.7091 34.1154 34.1154C33.7091 34.5217 33.158 34.75 32.5833 34.75H30.4167C29.842 34.75 29.2909 34.5217 28.8846 34.1154C28.4783 33.7091 28.25 33.158 28.25 32.5833V30.4167Z" stroke="#8E8E8E" stroke-width="1.2" stroke-linecap="round" stroke-linejoin="round"/>
<path d="M21.75 17.4167C21.75 16.842 21.9783 16.2909 22.3846 15.8846C22.7909 15.4783 23.342 15.25 23.9167 15.25H26.0833C26.658 15.25 27.2091 15.4783 27.6154 15.8846C28.0217 16.2909 28.25 16.842 28.25 17.4167V19.5833C28.25 20.158 28.0217 20.7091 27.6154 21.1154C27.2091 21.5217 26.658 21.75 26.0833 21.75H23.9167C23.342 21.75 22.7909 21.5217 22.3846 21.1154C21.9783 20.7091 21.75 20.158 21.75 19.5833V17.4167Z" stroke="#8E8E8E" stroke-width="1.2" stroke-linecap="round" stroke-linejoin="round"/>
<path d="M18.5 28.25V27.1667C18.5 26.592 18.7283 26.0409 19.1346 25.6346C19.5409 25.2283 20.092 25 20.6667 25H29.3333C29.908 25 30.4591 25.2283 30.8654 25.6346C31.2717 26.0409 31.5 26.592 31.5 27.1667V28.25" stroke="#8E8E8E" stroke-width="1.2" stroke-linecap="round" stroke-linejoin="round"/>
<path d="M25 21.75V25" stroke="#8E8E8E" stroke-width="1.2" stroke-linecap="round" stroke-linejoin="round"/>
</g>
<path d="M42.5 0.625H7.5C3.70304 0.625 0.625 3.70304 0.625 7.5V42.5C0.625 46.297 3.70304 49.375 7.5 49.375H42.5C46.297 49.375 49.375 46.297 49.375 42.5V7.5C49.375 3.70304 46.297 0.625 42.5 0.625Z" stroke="url(#paint0_linear_450_3444)"/>
</g>
<defs>
<linearGradient id="paint0_linear_450_3444" x1="20" y1="9.01592e-07" x2="36.875" y2="65" gradientUnits="userSpaceOnUse">
<stop stop-color="white"/>
<stop offset="1" stop-color="#D0D0D0"/>
</linearGradient>
<clipPath id="clip0_450_3444">
<rect width="50" height="50" fill="white"/>
</clipPath>
<clipPath id="clip1_450_3444">
<rect width="26" height="26" fill="white" transform="translate(12 12)"/>
</clipPath>
</defs>
</svg>
