<svg width="50" height="50" viewBox="0 0 50 50" fill="none" xmlns="http://www.w3.org/2000/svg">
<g clip-path="url(#clip0_450_3436)">
<g clip-path="url(#clip1_450_3436)">
<path d="M26.0833 21.7501C26.0833 21.4628 26.1974 21.1872 26.4006 20.984C26.6037 20.7809 26.8793 20.6667 27.1666 20.6667H33.6666C33.9539 20.6667 34.2295 20.7809 34.4326 20.984C34.6358 21.1872 34.7499 21.4628 34.7499 21.7501V32.5834C34.7499 32.8707 34.6358 33.1463 34.4326 33.3494C34.2295 33.5526 33.9539 33.6667 33.6666 33.6667H27.1666C26.8793 33.6667 26.6037 33.5526 26.4006 33.3494C26.1974 33.1463 26.0833 32.8707 26.0833 32.5834V21.7501Z" stroke="#8E8E8E" stroke-width="1.2" stroke-linecap="round" stroke-linejoin="round"/>
<path d="M31.5 20.6666V17.4166C31.5 17.1293 31.3859 16.8537 31.1827 16.6506C30.9795 16.4474 30.704 16.3333 30.4167 16.3333H16.3333C16.046 16.3333 15.7705 16.4474 15.5673 16.6506C15.3641 16.8537 15.25 17.1293 15.25 17.4166V30.4166C15.25 30.7039 15.3641 30.9795 15.5673 31.1826C15.7705 31.3858 16.046 31.4999 16.3333 31.4999H26.0833" stroke="#8E8E8E" stroke-width="1.2" stroke-linecap="round" stroke-linejoin="round"/>
<path d="M29.3333 21.75H31.4999" stroke="#8E8E8E" stroke-width="1.2" stroke-linecap="round" stroke-linejoin="round"/>
</g>
<path d="M42.5 0.625H7.5C3.70304 0.625 0.625 3.70304 0.625 7.5V42.5C0.625 46.297 3.70304 49.375 7.5 49.375H42.5C46.297 49.375 49.375 46.297 49.375 42.5V7.5C49.375 3.70304 46.297 0.625 42.5 0.625Z" stroke="url(#paint0_linear_450_3436)"/>
</g>
<defs>
<linearGradient id="paint0_linear_450_3436" x1="20" y1="9.01592e-07" x2="36.875" y2="65" gradientUnits="userSpaceOnUse">
<stop stop-color="white"/>
<stop offset="1" stop-color="#D0D0D0"/>
</linearGradient>
<clipPath id="clip0_450_3436">
<rect width="50" height="50" fill="white"/>
</clipPath>
<clipPath id="clip1_450_3436">
<rect width="26" height="26" fill="white" transform="translate(12 12)"/>
</clipPath>
</defs>
</svg>
