<svg width="557" height="349" viewBox="0 0 557 349" fill="none" xmlns="http://www.w3.org/2000/svg">
<g filter="url(#filter0_b_434_232)">
<rect y="243.831" width="183.815" height="52.5185" rx="26.2593" fill="white" fill-opacity="0.09"/>
</g>
<g style="mix-blend-mode:screen">
<g style="mix-blend-mode:overlay">
<path d="M58.2631 261.063V261.384C57.0522 260.38 55.5281 259.831 53.955 259.832H28.106C26.5328 259.831 25.0088 260.38 23.7979 261.384V261.063C23.7979 260.084 24.1869 259.144 24.8794 258.452C25.5719 257.759 26.5112 257.37 27.4906 257.37H54.5704C55.5498 257.37 56.489 257.759 57.1816 258.452C57.8741 259.144 58.2631 260.084 58.2631 261.063ZM47.185 267.218C47.185 268.267 46.9168 269.298 46.406 270.215C45.8951 271.131 45.1585 271.901 44.2661 272.453C43.3737 273.004 42.3551 273.319 41.3071 273.366C40.2591 273.413 39.2164 273.192 38.2781 272.722C37.3398 272.253 36.537 271.552 35.9459 270.685C35.3548 269.819 34.9951 268.815 34.9008 267.77C34.8066 266.725 34.9811 265.674 35.4076 264.715C35.8341 263.757 36.4985 262.923 37.3378 262.294H28.7215V285.681C28.7244 286.66 29.1144 287.597 29.8063 288.289C30.4981 288.981 31.4357 289.371 32.4142 289.374H49.6468C50.6253 289.371 51.5628 288.981 52.2547 288.289C52.9466 287.597 53.3366 286.66 53.3395 285.681V262.294H44.7232C45.4869 262.868 46.1067 263.611 46.534 264.466C46.9612 265.32 47.184 266.262 47.185 267.218ZM41.0305 270.91C41.7608 270.91 42.4748 270.694 43.082 270.288C43.6893 269.882 44.1626 269.305 44.4421 268.631C44.7216 267.956 44.7947 267.213 44.6522 266.497C44.5098 265.781 44.1581 265.123 43.6416 264.606C43.1252 264.09 42.4672 263.738 41.7509 263.596C41.0346 263.453 40.2921 263.526 39.6173 263.806C38.9426 264.085 38.3659 264.559 37.9601 265.166C37.5544 265.773 37.3378 266.487 37.3378 267.218C37.3407 268.196 37.7307 269.134 38.4226 269.825C39.1145 270.517 40.052 270.907 41.0305 270.91ZM55.8013 262.726V270.481C56.538 270.135 57.1611 269.587 57.5976 268.901C58.034 268.214 58.2658 267.417 58.2658 266.603C58.2658 265.79 58.034 264.993 57.5976 264.306C57.1611 263.62 56.538 263.071 55.8013 262.726ZM23.7979 266.602C23.8009 267.415 24.0337 268.21 24.4693 268.896C24.9049 269.581 25.5256 270.13 26.2597 270.478V262.724C25.5252 263.072 24.9043 263.621 24.4687 264.307C24.033 264.994 23.8005 265.789 23.7979 266.602Z" fill="white"/>
</g>
</g>
<path d="M77.0557 268.855C76.2482 268.855 75.4949 268.712 74.7957 268.427C74.0966 268.141 73.4861 267.742 72.9642 267.23C72.4423 266.718 72.0336 266.117 71.7382 265.428C71.4526 264.729 71.3098 263.976 71.3098 263.168C71.3098 262.351 71.4526 261.598 71.7382 260.908C72.0238 260.219 72.4275 259.618 72.9494 259.106C73.4713 258.594 74.0818 258.2 74.781 257.925C75.4801 257.639 76.2384 257.496 77.0557 257.496C77.873 257.496 78.6312 257.639 79.3304 257.925C80.0295 258.21 80.6401 258.609 81.162 259.121C81.6839 259.623 82.0876 260.219 82.3732 260.908C82.6686 261.598 82.8163 262.351 82.8163 263.168C82.8163 263.976 82.6686 264.729 82.3732 265.428C82.0778 266.117 81.6691 266.718 81.1472 267.23C80.6253 267.742 80.0148 268.141 79.3156 268.427C78.6263 268.712 77.873 268.855 77.0557 268.855ZM77.0557 267.023C77.5973 267.023 78.0946 266.93 78.5475 266.743C79.0005 266.546 79.3944 266.275 79.7292 265.93C80.0739 265.586 80.3348 265.177 80.5121 264.704C80.6992 264.232 80.7927 263.72 80.7927 263.168C80.7927 262.617 80.6992 262.11 80.5121 261.647C80.3348 261.174 80.0739 260.765 79.7292 260.421C79.3944 260.066 79.0005 259.796 78.5475 259.608C78.0946 259.421 77.5973 259.328 77.0557 259.328C76.5239 259.328 76.0316 259.421 75.5786 259.608C75.1256 259.796 74.7268 260.066 74.3822 260.421C74.0474 260.765 73.7864 261.174 73.5993 261.647C73.4122 262.11 73.3187 262.617 73.3187 263.168C73.3187 263.72 73.4122 264.232 73.5993 264.704C73.7864 265.177 74.0474 265.586 74.3822 265.93C74.7268 266.275 75.1256 266.546 75.5786 266.743C76.0316 266.93 76.5239 267.023 77.0557 267.023ZM79.5963 270.007L76.1694 264.276H78.2669L81.738 270.007H79.5963ZM87.3056 268.855C86.6852 268.855 86.1436 268.717 85.6808 268.441C85.2278 268.166 84.8783 267.782 84.6321 267.289C84.3957 266.797 84.2776 266.221 84.2776 265.561V260.642H86.2126V265.399C86.2126 265.733 86.2766 266.029 86.4046 266.285C86.5424 266.531 86.7345 266.728 86.9806 266.876C87.2367 267.014 87.5222 267.082 87.8374 267.082C88.1525 267.082 88.4331 267.014 88.6793 266.876C88.9255 266.728 89.1175 266.526 89.2553 266.27C89.3932 266.014 89.4621 265.709 89.4621 265.354V260.642H91.3971V268.678H89.5655V267.097L89.728 267.378C89.5409 267.87 89.2307 268.24 88.7975 268.486C88.374 268.732 87.8767 268.855 87.3056 268.855ZM93.1958 268.678V260.642H95.1308V268.678H93.1958ZM93.1958 259.741V257.673H95.1308V259.741H93.1958ZM100.787 268.855C99.9897 268.855 99.2709 268.673 98.6308 268.308C98.0006 267.934 97.5033 267.432 97.1389 266.802C96.7746 266.162 96.5924 265.443 96.5924 264.645C96.5924 263.848 96.7746 263.134 97.1389 262.504C97.5033 261.873 98.0006 261.376 98.6308 261.012C99.2709 260.647 99.9897 260.465 100.787 260.465C101.358 260.465 101.89 260.569 102.383 260.775C102.875 260.972 103.298 261.248 103.653 261.603C104.017 261.947 104.278 262.361 104.436 262.843L102.737 263.582C102.589 263.178 102.338 262.853 101.984 262.607C101.639 262.361 101.24 262.238 100.787 262.238C100.364 262.238 99.9848 262.341 99.65 262.548C99.325 262.755 99.069 263.04 98.8819 263.405C98.6948 263.769 98.6012 264.187 98.6012 264.66C98.6012 265.133 98.6948 265.551 98.8819 265.916C99.069 266.28 99.325 266.566 99.65 266.772C99.9848 266.979 100.364 267.082 100.787 267.082C101.25 267.082 101.654 266.959 101.999 266.713C102.343 266.467 102.589 266.137 102.737 265.724L104.436 266.492C104.278 266.945 104.022 267.353 103.668 267.718C103.313 268.072 102.89 268.353 102.397 268.56C101.905 268.757 101.368 268.855 100.787 268.855ZM105.904 268.678V257.496H107.839V264.823L107.1 264.601L110.882 260.642H113.289L110.32 263.877L113.348 268.678H111.133L108.504 264.512L109.656 264.276L107.233 266.876L107.839 265.694V268.678H105.904ZM73.6879 286.678L70.7338 275.673H72.8903L75.2093 285.053H74.648L77.0705 275.673H79.1531L81.5608 285.053H80.9995L83.3185 275.673H85.4751L82.5209 286.678H80.2166L77.7795 277.549H78.4294L75.9922 286.678H73.6879ZM86.5316 286.678V278.642H88.4666V286.678H86.5316ZM86.5316 277.741V275.673H88.4666V277.741H86.5316ZM93.9164 286.766C93.0104 286.766 92.3063 286.52 91.8041 286.028C91.3118 285.526 91.0656 284.822 91.0656 283.916V280.371H89.6771V278.642H89.8248C90.2187 278.642 90.524 278.539 90.7406 278.332C90.9573 278.125 91.0656 277.825 91.0656 277.431V276.811H93.0006V278.642H94.8469V280.371H93.0006V283.812C93.0006 284.078 93.0449 284.305 93.1335 284.492C93.232 284.679 93.3797 284.822 93.5766 284.92C93.7834 285.018 94.0444 285.068 94.3595 285.068C94.4284 285.068 94.5072 285.063 94.5958 285.053C94.6943 285.043 94.7878 285.033 94.8765 285.023V286.678C94.7386 286.697 94.581 286.717 94.4038 286.737C94.2265 286.757 94.0641 286.766 93.9164 286.766ZM96.3548 286.678V275.496H98.2898V280.223L98.0239 279.942C98.211 279.46 98.5163 279.095 98.9397 278.849C99.373 278.593 99.8752 278.465 100.446 278.465C101.037 278.465 101.559 278.593 102.012 278.849C102.475 279.105 102.834 279.465 103.09 279.927C103.346 280.38 103.474 280.907 103.474 281.508V286.678H101.539V281.966C101.539 281.611 101.47 281.306 101.333 281.05C101.195 280.794 101.003 280.597 100.757 280.459C100.52 280.312 100.24 280.238 99.9146 280.238C99.5995 280.238 99.3188 280.312 99.0726 280.459C98.8265 280.597 98.6344 280.794 98.4966 281.05C98.3587 281.306 98.2898 281.611 98.2898 281.966V286.678H96.3548ZM108.848 286.855C108.07 286.855 107.375 286.673 106.765 286.308C106.154 285.934 105.672 285.427 105.317 284.787C104.963 284.147 104.786 283.438 104.786 282.66C104.786 281.872 104.963 281.163 105.317 280.533C105.672 279.903 106.154 279.401 106.765 279.026C107.385 278.652 108.075 278.465 108.833 278.465C109.443 278.465 109.985 278.588 110.458 278.834C110.94 279.071 111.319 279.406 111.595 279.839L111.3 280.238V275.496H113.235V286.678H111.403V285.127L111.61 285.511C111.334 285.944 110.95 286.279 110.458 286.515C109.965 286.742 109.429 286.855 108.848 286.855ZM109.054 285.082C109.498 285.082 109.886 284.979 110.221 284.772C110.556 284.566 110.817 284.28 111.004 283.916C111.201 283.551 111.3 283.133 111.3 282.66C111.3 282.197 111.201 281.784 111.004 281.419C110.817 281.045 110.556 280.755 110.221 280.548C109.886 280.341 109.498 280.238 109.054 280.238C108.621 280.238 108.232 280.346 107.887 280.563C107.543 280.769 107.272 281.055 107.075 281.419C106.888 281.774 106.794 282.187 106.794 282.66C106.794 283.133 106.888 283.551 107.075 283.916C107.272 284.28 107.543 284.566 107.887 284.772C108.232 284.979 108.621 285.082 109.054 285.082ZM115.035 286.678V278.642H116.852V280.43L116.704 280.164C116.891 279.563 117.181 279.145 117.575 278.908C117.979 278.672 118.462 278.554 119.023 278.554H119.496V280.267H118.801C118.25 280.267 117.807 280.44 117.472 280.784C117.137 281.119 116.97 281.592 116.97 282.202V286.678H115.035ZM122.997 286.855C122.435 286.855 121.948 286.761 121.534 286.574C121.121 286.387 120.801 286.121 120.574 285.777C120.348 285.422 120.234 285.014 120.234 284.551C120.234 284.108 120.333 283.714 120.53 283.369C120.727 283.015 121.032 282.719 121.446 282.483C121.859 282.246 122.381 282.079 123.011 281.981L125.641 281.552V283.029L123.381 283.413C122.997 283.482 122.711 283.605 122.524 283.783C122.337 283.96 122.243 284.191 122.243 284.477C122.243 284.753 122.347 284.974 122.553 285.142C122.77 285.299 123.036 285.378 123.351 285.378C123.755 285.378 124.109 285.294 124.415 285.127C124.73 284.95 124.971 284.708 125.138 284.403C125.316 284.098 125.404 283.763 125.404 283.399V281.331C125.404 280.986 125.266 280.7 124.991 280.474C124.725 280.238 124.37 280.119 123.927 280.119C123.514 280.119 123.144 280.233 122.819 280.459C122.504 280.676 122.273 280.966 122.125 281.331L120.545 280.563C120.702 280.139 120.948 279.775 121.283 279.47C121.628 279.154 122.032 278.908 122.494 278.731C122.957 278.554 123.459 278.465 124.001 278.465C124.661 278.465 125.242 278.588 125.744 278.834C126.246 279.071 126.635 279.406 126.911 279.839C127.196 280.262 127.339 280.76 127.339 281.331V286.678H125.508V285.304L125.921 285.275C125.714 285.619 125.468 285.91 125.183 286.146C124.897 286.372 124.572 286.55 124.208 286.678C123.843 286.796 123.44 286.855 122.997 286.855ZM131.151 286.678L128.389 278.642H130.427L132.451 284.743L131.742 284.728L133.899 278.642H135.612L137.754 284.728L137.045 284.743L139.068 278.642H141.107L138.345 286.678H136.616L134.43 280.312H135.08L132.865 286.678H131.151ZM144.316 286.855C143.755 286.855 143.267 286.761 142.854 286.574C142.44 286.387 142.12 286.121 141.894 285.777C141.667 285.422 141.554 285.014 141.554 284.551C141.554 284.108 141.652 283.714 141.849 283.369C142.046 283.015 142.352 282.719 142.765 282.483C143.179 282.246 143.701 282.079 144.331 281.981L146.96 281.552V283.029L144.7 283.413C144.316 283.482 144.031 283.605 143.843 283.783C143.656 283.96 143.563 284.191 143.563 284.477C143.563 284.753 143.666 284.974 143.873 285.142C144.09 285.299 144.356 285.378 144.671 285.378C145.074 285.378 145.429 285.294 145.734 285.127C146.049 284.95 146.291 284.708 146.458 284.403C146.635 284.098 146.724 283.763 146.724 283.399V281.331C146.724 280.986 146.586 280.7 146.31 280.474C146.044 280.238 145.69 280.119 145.247 280.119C144.833 280.119 144.464 280.233 144.139 280.459C143.824 280.676 143.592 280.966 143.445 281.331L141.864 280.563C142.022 280.139 142.268 279.775 142.603 279.47C142.947 279.154 143.351 278.908 143.814 278.731C144.277 278.554 144.779 278.465 145.321 278.465C145.98 278.465 146.561 278.588 147.064 278.834C147.566 279.071 147.955 279.406 148.23 279.839C148.516 280.262 148.659 280.76 148.659 281.331V286.678H146.827V285.304L147.241 285.275C147.034 285.619 146.788 285.91 146.502 286.146C146.217 286.372 145.892 286.55 145.527 286.678C145.163 286.796 144.759 286.855 144.316 286.855ZM150.447 286.678V275.496H152.382V286.678H150.447Z" fill="white"/>
<g filter="url(#filter1_b_434_232)">
<rect x="226" width="71.8305" height="71.8305" rx="35.9152" fill="white" fill-opacity="0.09"/>
</g>
<path fill-rule="evenodd" clip-rule="evenodd" d="M280.941 31.8135C280.135 30.0339 279.017 28.4869 277.585 27.1786C276.153 25.8673 274.475 24.8461 272.551 24.1058C270.63 23.3686 268.55 23 266.314 23C264.079 23 261.996 23.3626 260.075 24.0877C258.151 24.8129 256.472 25.8371 255.041 27.1605C253.609 28.4839 252.491 30.0339 251.684 31.8165C250.881 33.5992 250.479 35.545 250.479 37.654C250.479 39.7629 250.881 41.7117 251.684 43.4914C252.488 45.271 253.612 46.824 255.06 48.1474C256.505 49.4708 258.183 50.5011 260.094 51.2383C262.002 51.9755 264.076 52.3442 266.314 52.3442C266.94 52.3442 267.549 52.3079 268.148 52.2505L265.268 47.8724C264.137 47.7818 263.072 47.5431 262.077 47.1533C260.781 46.6457 259.657 45.9266 258.701 44.996C257.746 44.0685 257.004 42.9807 256.469 41.7329C255.938 40.485 255.672 39.1254 255.672 37.6509C255.672 36.2006 255.938 34.8531 256.469 33.6052C257.001 32.3604 257.746 31.2727 258.701 30.3421C259.654 29.4145 260.781 28.6954 262.077 28.1848C263.373 27.6772 264.782 27.4204 266.311 27.4204C267.837 27.4204 269.249 27.6742 270.545 28.1848C271.841 28.6954 272.965 29.4115 273.921 30.3421C274.877 31.2697 275.619 32.3574 276.15 33.6052C276.681 34.8531 276.95 36.2006 276.95 37.6509C276.95 39.1254 276.684 40.4881 276.15 41.7329C275.619 42.9807 274.877 44.0654 273.921 44.996C273.605 45.3025 273.271 45.5861 272.919 45.8471L269.382 40.5152H263.901L273.636 55.3202H279.202L275.494 49.7296C276.229 49.2599 276.919 48.7324 277.562 48.1444C279.007 46.821 280.131 45.271 280.938 43.4883C281.741 41.7087 282.143 39.7629 282.143 37.6509C282.143 35.5389 281.745 33.5962 280.941 31.8135ZM277.883 23.7946V25.683H278.379V23.7946H278.994V23.3928H277.258V23.7946H277.883ZM279.386 25.683V23.3928H279.862L280.669 24.3971L281.456 23.3928H281.932V25.683H281.437V24.1851L280.692 25.0878H280.63L279.882 24.1523V25.683H279.386ZM246.961 27.4264H242.507L246.961 32.6263V51.8849H241.765V23.4562H246.961V27.4264Z" fill="white"/>
<g filter="url(#filter2_b_434_232)">
<rect x="404" y="296" width="152.632" height="52.5185" rx="26.2593" fill="white" fill-opacity="0.07"/>
</g>
<g style="mix-blend-mode:screen" clip-path="url(#clip0_434_232)">
<g style="mix-blend-mode:overlay">
<path fill-rule="evenodd" clip-rule="evenodd" d="M441.14 313.468V310.093L440.147 311.087L438.814 309.754L442.067 306.501L445.321 309.754L443.988 311.087L443.025 310.124V313.453L442.095 312.916L441.14 313.468ZM442.095 321.499L447.644 318.297L442.095 315.093L436.546 318.297L442.095 321.499ZM448.587 319.929L443.037 323.131V329.541L448.587 326.337V319.929ZM435.603 319.928L441.153 323.131V329.541L435.603 326.337V319.928ZM454.901 325.837L458.154 322.583L454.901 319.33L453.568 320.663L454.549 321.643H450.471V323.528H454.544L453.568 324.504L454.901 325.837ZM447.382 315.969L449.072 316.944L453.201 312.816C453.69 313.085 454.242 313.228 454.816 313.228H454.816C455.714 313.228 456.558 312.879 457.193 312.244C458.503 310.934 458.503 308.801 457.193 307.491H457.193C455.882 306.18 453.75 306.18 452.44 307.491C451.36 308.57 451.171 310.206 451.869 311.482L447.382 315.969ZM453.202 332.363C454.477 331.665 456.114 331.854 457.193 332.934C457.827 333.568 458.177 334.412 458.177 335.31C458.177 336.208 457.827 337.052 457.193 337.687C456.537 338.342 455.677 338.669 454.816 338.669C453.956 338.669 453.095 338.342 452.44 337.687C451.36 336.608 451.171 334.972 451.869 333.696L447.382 329.209L449.072 328.233L453.202 332.363ZM443.025 335.052V331.724L442.095 332.261L441.14 331.71V335.073L440.152 334.084L438.819 335.417L442.072 338.67L445.325 335.417L443.993 334.084L443.025 335.052ZM435.118 328.233L436.808 329.209L432.321 333.696C433.019 334.972 432.829 336.608 431.75 337.687C431.115 338.322 430.271 338.671 429.374 338.671C428.476 338.671 427.632 338.322 426.997 337.687C425.687 336.376 425.687 334.244 426.997 332.934C427.632 332.299 428.476 331.949 429.374 331.949C429.948 331.949 430.5 332.093 430.989 332.362L435.118 328.233ZM429.374 313.227C429.931 313.227 430.487 313.089 430.988 312.815L435.118 316.944L436.808 315.969L432.322 311.483C432.591 310.994 432.735 310.442 432.735 309.868C432.735 308.97 432.385 308.126 431.75 307.491C430.44 306.181 428.308 306.181 426.997 307.491C425.687 308.801 425.687 310.934 426.997 312.244C427.653 312.899 428.513 313.227 429.374 313.227ZM429.59 323.528L430.571 324.509L429.239 325.841L425.985 322.588L429.239 319.335L430.571 320.667L429.595 321.643H433.718V323.528H429.59Z" fill="white"/>
</g>
</g>
<path d="M472.353 319.206V308.202H474.361V317.434H479.073V319.206H472.353ZM484.139 319.383C483.351 319.383 482.633 319.201 481.983 318.837C481.343 318.472 480.831 317.975 480.447 317.345C480.072 316.715 479.885 315.996 479.885 315.188C479.885 314.381 480.072 313.662 480.447 313.032C480.831 312.402 481.343 311.904 481.983 311.54C482.623 311.176 483.342 310.993 484.139 310.993C484.927 310.993 485.641 311.176 486.281 311.54C486.921 311.904 487.428 312.402 487.802 313.032C488.186 313.652 488.378 314.371 488.378 315.188C488.378 315.996 488.186 316.715 487.802 317.345C487.418 317.975 486.906 318.472 486.266 318.837C485.626 319.201 484.917 319.383 484.139 319.383ZM484.139 317.611C484.573 317.611 484.952 317.507 485.277 317.301C485.611 317.094 485.872 316.808 486.059 316.444C486.256 316.07 486.355 315.651 486.355 315.188C486.355 314.716 486.256 314.302 486.059 313.948C485.872 313.583 485.611 313.298 485.277 313.091C484.952 312.874 484.573 312.766 484.139 312.766C483.696 312.766 483.307 312.874 482.972 313.091C482.638 313.298 482.372 313.583 482.175 313.948C481.988 314.302 481.894 314.716 481.894 315.188C481.894 315.651 481.988 316.07 482.175 316.444C482.372 316.808 482.638 317.094 482.972 317.301C483.307 317.507 483.696 317.611 484.139 317.611ZM491.725 319.206L488.963 311.171H491.001L493.025 317.271L492.316 317.256L494.473 311.171H496.186L498.328 317.256L497.619 317.271L499.642 311.171H501.681L498.919 319.206H497.19L495.004 312.84H495.654L493.439 319.206H491.725ZM476.282 337.383C475.582 337.383 474.933 337.255 474.332 336.999C473.741 336.743 473.229 336.389 472.796 335.936C472.372 335.473 472.062 334.936 471.865 334.326L473.534 333.602C473.8 334.232 474.184 334.729 474.686 335.094C475.189 335.448 475.755 335.626 476.385 335.626C476.739 335.626 477.045 335.571 477.301 335.463C477.567 335.345 477.769 335.187 477.906 334.99C478.054 334.793 478.128 334.557 478.128 334.281C478.128 333.956 478.029 333.691 477.833 333.484C477.645 333.267 477.36 333.1 476.976 332.982L474.864 332.302C474.007 332.036 473.362 331.637 472.929 331.106C472.495 330.574 472.279 329.949 472.279 329.23C472.279 328.6 472.431 328.043 472.737 327.561C473.052 327.078 473.485 326.704 474.036 326.438C474.598 326.162 475.238 326.025 475.957 326.025C476.616 326.025 477.222 326.143 477.773 326.379C478.325 326.606 478.798 326.926 479.191 327.339C479.595 327.743 479.896 328.22 480.092 328.772L478.438 329.51C478.222 328.959 477.897 328.536 477.463 328.24C477.03 327.935 476.528 327.782 475.957 327.782C475.622 327.782 475.326 327.841 475.07 327.96C474.814 328.068 474.612 328.225 474.465 328.432C474.327 328.629 474.258 328.865 474.258 329.141C474.258 329.446 474.356 329.717 474.553 329.954C474.75 330.18 475.051 330.357 475.454 330.485L477.478 331.12C478.354 331.406 479.009 331.8 479.443 332.302C479.886 332.804 480.107 333.425 480.107 334.163C480.107 334.793 479.945 335.35 479.62 335.832C479.295 336.315 478.847 336.694 478.276 336.97C477.705 337.245 477.04 337.383 476.282 337.383ZM481.754 340.16V329.171H483.57V330.766L483.393 330.367C483.669 329.934 484.043 329.599 484.516 329.363C484.988 329.117 485.535 328.993 486.155 328.993C486.914 328.993 487.598 329.181 488.208 329.555C488.819 329.929 489.302 330.431 489.656 331.061C490.02 331.692 490.203 332.401 490.203 333.188C490.203 333.966 490.025 334.675 489.671 335.315C489.316 335.955 488.834 336.463 488.223 336.837C487.613 337.201 486.918 337.383 486.141 337.383C485.56 337.383 485.023 337.27 484.531 337.044C484.048 336.807 483.664 336.472 483.378 336.039L483.689 335.655V340.16H481.754ZM485.919 335.611C486.362 335.611 486.756 335.507 487.101 335.301C487.445 335.094 487.711 334.808 487.898 334.444C488.095 334.08 488.194 333.661 488.194 333.188C488.194 332.716 488.095 332.302 487.898 331.948C487.711 331.583 487.445 331.298 487.101 331.091C486.756 330.874 486.362 330.766 485.919 330.766C485.496 330.766 485.112 330.869 484.767 331.076C484.432 331.283 484.166 331.573 483.969 331.948C483.782 332.312 483.689 332.726 483.689 333.188C483.689 333.661 483.782 334.08 483.969 334.444C484.166 334.808 484.432 335.094 484.767 335.301C485.112 335.507 485.496 335.611 485.919 335.611ZM491.678 337.206V329.171H493.495V330.958L493.347 330.692C493.534 330.091 493.824 329.673 494.218 329.437C494.622 329.2 495.105 329.082 495.666 329.082H496.139V330.796H495.444C494.893 330.796 494.45 330.968 494.115 331.312C493.78 331.647 493.613 332.12 493.613 332.73V337.206H491.678ZM501.013 337.383C500.186 337.383 499.462 337.196 498.842 336.822C498.222 336.448 497.739 335.941 497.394 335.301C497.05 334.661 496.877 333.952 496.877 333.174C496.877 332.366 497.05 331.652 497.394 331.032C497.749 330.402 498.227 329.904 498.827 329.54C499.438 329.176 500.117 328.993 500.866 328.993C501.496 328.993 502.047 329.097 502.52 329.304C503.002 329.51 503.411 329.796 503.746 330.16C504.081 330.525 504.337 330.943 504.514 331.416C504.691 331.879 504.78 332.381 504.78 332.923C504.78 333.06 504.77 333.203 504.75 333.351C504.74 333.499 504.716 333.627 504.676 333.735H498.473V332.258H503.583L502.668 332.952C502.756 332.499 502.732 332.095 502.594 331.741C502.466 331.386 502.249 331.106 501.944 330.899C501.648 330.692 501.289 330.589 500.866 330.589C500.462 330.589 500.102 330.692 499.787 330.899C499.472 331.096 499.231 331.391 499.064 331.785C498.906 332.169 498.847 332.637 498.886 333.188C498.847 333.681 498.911 334.119 499.078 334.503C499.256 334.877 499.512 335.168 499.846 335.374C500.191 335.581 500.585 335.685 501.028 335.685C501.471 335.685 501.845 335.591 502.151 335.404C502.466 335.217 502.712 334.966 502.889 334.651L504.455 335.419C504.297 335.803 504.051 336.143 503.716 336.438C503.382 336.733 502.983 336.965 502.52 337.132C502.067 337.3 501.565 337.383 501.013 337.383ZM508.655 337.383C508.094 337.383 507.606 337.29 507.193 337.103C506.779 336.916 506.459 336.65 506.233 336.305C506.006 335.951 505.893 335.542 505.893 335.079C505.893 334.636 505.991 334.242 506.188 333.897C506.385 333.543 506.69 333.247 507.104 333.011C507.518 332.775 508.04 332.607 508.67 332.509L511.299 332.081V333.558L509.039 333.942C508.655 334.011 508.369 334.134 508.182 334.311C507.995 334.488 507.902 334.72 507.902 335.005C507.902 335.281 508.005 335.502 508.212 335.67C508.429 335.827 508.694 335.906 509.009 335.906C509.413 335.906 509.768 335.823 510.073 335.655C510.388 335.478 510.629 335.237 510.797 334.931C510.974 334.626 511.063 334.291 511.063 333.927V331.859C511.063 331.514 510.925 331.229 510.649 331.002C510.383 330.766 510.029 330.648 509.586 330.648C509.172 330.648 508.803 330.761 508.478 330.988C508.163 331.204 507.931 331.495 507.784 331.859L506.203 331.091C506.361 330.668 506.607 330.303 506.942 329.998C507.286 329.683 507.69 329.437 508.153 329.259C508.616 329.082 509.118 328.993 509.659 328.993C510.319 328.993 510.9 329.117 511.402 329.363C511.905 329.599 512.294 329.934 512.569 330.367C512.855 330.791 512.998 331.288 512.998 331.859V337.206H511.166V335.832L511.58 335.803C511.373 336.147 511.127 336.438 510.841 336.674C510.556 336.901 510.231 337.078 509.866 337.206C509.502 337.324 509.098 337.383 508.655 337.383ZM518.523 337.383C517.745 337.383 517.051 337.201 516.44 336.837C515.83 336.463 515.347 335.955 514.993 335.315C514.638 334.675 514.461 333.966 514.461 333.188C514.461 332.401 514.638 331.692 514.993 331.061C515.347 330.431 515.83 329.929 516.44 329.555C517.061 329.181 517.75 328.993 518.508 328.993C519.119 328.993 519.66 329.117 520.133 329.363C520.616 329.599 520.995 329.934 521.27 330.367L520.975 330.766V326.025H522.91V337.206H521.078V335.655L521.285 336.039C521.009 336.472 520.625 336.807 520.133 337.044C519.641 337.27 519.104 337.383 518.523 337.383ZM518.73 335.611C519.173 335.611 519.562 335.507 519.897 335.301C520.232 335.094 520.493 334.808 520.68 334.444C520.877 334.08 520.975 333.661 520.975 333.188C520.975 332.726 520.877 332.312 520.68 331.948C520.493 331.573 520.232 331.283 519.897 331.076C519.562 330.869 519.173 330.766 518.73 330.766C518.297 330.766 517.908 330.874 517.563 331.091C517.218 331.298 516.948 331.583 516.751 331.948C516.563 332.302 516.47 332.716 516.47 333.188C516.47 333.661 516.563 334.08 516.751 334.444C516.948 334.808 517.218 335.094 517.563 335.301C517.908 335.507 518.297 335.611 518.73 335.611ZM527.768 337.383C526.911 337.383 526.163 337.181 525.523 336.778C524.892 336.364 524.459 335.808 524.223 335.109L525.67 334.414C525.877 334.867 526.163 335.222 526.527 335.478C526.901 335.734 527.315 335.862 527.768 335.862C528.122 335.862 528.403 335.783 528.61 335.626C528.816 335.468 528.92 335.261 528.92 335.005C528.92 334.848 528.876 334.72 528.787 334.621C528.708 334.513 528.595 334.424 528.447 334.355C528.309 334.277 528.157 334.212 527.989 334.163L526.675 333.794C525.995 333.597 525.478 333.297 525.124 332.893C524.779 332.489 524.607 332.012 524.607 331.46C524.607 330.968 524.73 330.539 524.976 330.175C525.232 329.801 525.582 329.51 526.025 329.304C526.478 329.097 526.995 328.993 527.576 328.993C528.334 328.993 529.004 329.176 529.585 329.54C530.166 329.904 530.579 330.416 530.825 331.076L529.348 331.77C529.21 331.406 528.979 331.116 528.654 330.899C528.329 330.682 527.965 330.574 527.561 330.574C527.236 330.574 526.98 330.648 526.793 330.796C526.606 330.943 526.512 331.135 526.512 331.372C526.512 331.519 526.552 331.647 526.63 331.756C526.709 331.864 526.817 331.953 526.955 332.021C527.103 332.09 527.27 332.154 527.458 332.214L528.743 332.598C529.402 332.795 529.91 333.09 530.264 333.484C530.628 333.878 530.811 334.36 530.811 334.931C530.811 335.414 530.683 335.842 530.426 336.216C530.17 336.581 529.816 336.866 529.363 337.073C528.91 337.28 528.378 337.383 527.768 337.383Z" fill="white"/>
<defs>
<filter id="filter0_b_434_232" x="-29.7401" y="214.09" width="243.295" height="111.999" filterUnits="userSpaceOnUse" color-interpolation-filters="sRGB">
<feFlood flood-opacity="0" result="BackgroundImageFix"/>
<feGaussianBlur in="BackgroundImageFix" stdDeviation="14.8701"/>
<feComposite in2="SourceAlpha" operator="in" result="effect1_backgroundBlur_434_232"/>
<feBlend mode="normal" in="SourceGraphic" in2="effect1_backgroundBlur_434_232" result="shape"/>
</filter>
<filter id="filter1_b_434_232" x="196.26" y="-29.7401" width="131.31" height="131.311" filterUnits="userSpaceOnUse" color-interpolation-filters="sRGB">
<feFlood flood-opacity="0" result="BackgroundImageFix"/>
<feGaussianBlur in="BackgroundImageFix" stdDeviation="14.8701"/>
<feComposite in2="SourceAlpha" operator="in" result="effect1_backgroundBlur_434_232"/>
<feBlend mode="normal" in="SourceGraphic" in2="effect1_backgroundBlur_434_232" result="shape"/>
</filter>
<filter id="filter2_b_434_232" x="374.26" y="266.26" width="212.112" height="111.999" filterUnits="userSpaceOnUse" color-interpolation-filters="sRGB">
<feFlood flood-opacity="0" result="BackgroundImageFix"/>
<feGaussianBlur in="BackgroundImageFix" stdDeviation="14.8701"/>
<feComposite in2="SourceAlpha" operator="in" result="effect1_backgroundBlur_434_232"/>
<feBlend mode="normal" in="SourceGraphic" in2="effect1_backgroundBlur_434_232" result="shape"/>
</filter>
<clipPath id="clip0_434_232">
<rect width="32.8241" height="32.8241" fill="white" transform="translate(425.336 305.847)"/>
</clipPath>
</defs>
</svg>
