<svg width="403" height="282" viewBox="0 0 403 282" fill="none" xmlns="http://www.w3.org/2000/svg">
<g filter="url(#filter0_b_114_105)">
<rect y="87" width="187.286" height="69" rx="34.5" fill="white" fill-opacity="0.14"/>
<rect x="0.616071" y="87.6161" width="186.054" height="67.7679" rx="33.8839" stroke="url(#paint0_linear_114_105)" stroke-width="1.23214"/>
</g>
<path d="M39.925 130.21C38.6651 130.21 37.5443 129.947 36.5627 129.419C35.5958 128.892 34.8339 128.166 34.2772 127.243C33.7205 126.32 33.4421 125.273 33.4421 124.101V113.574H36.4308V123.947C36.4308 124.621 36.5773 125.229 36.8704 125.771C37.178 126.313 37.5956 126.738 38.123 127.046C38.6504 127.339 39.2511 127.485 39.925 127.485C40.6136 127.485 41.2143 127.339 41.7271 127.046C42.2545 126.738 42.6647 126.313 42.9577 125.771C43.2654 125.229 43.4192 124.621 43.4192 123.947V113.574H46.4079V124.101C46.4079 125.273 46.1296 126.32 45.5729 127.243C45.0161 128.166 44.247 128.892 43.2654 129.419C42.2984 129.947 41.185 130.21 39.925 130.21ZM49.15 134.342V117.992H51.853V120.365L51.5893 119.772C51.9995 119.127 52.5562 118.629 53.2595 118.277C53.9627 117.911 54.7758 117.728 55.6988 117.728C56.8269 117.728 57.8451 118.006 58.7535 118.563C59.6618 119.12 60.3797 119.867 60.9071 120.805C61.4492 121.742 61.7202 122.797 61.7202 123.969C61.7202 125.126 61.4565 126.181 60.9291 127.134C60.4017 128.086 59.6838 128.84 58.7754 129.397C57.8671 129.939 56.8342 130.21 55.6768 130.21C54.8124 130.21 54.014 130.042 53.2814 129.705C52.5636 129.353 51.9922 128.855 51.5673 128.21L52.0288 127.639V134.342H49.15ZM55.3472 127.573C56.0065 127.573 56.5925 127.419 57.1053 127.112C57.618 126.804 58.0136 126.379 58.292 125.837C58.585 125.295 58.7315 124.672 58.7315 123.969C58.7315 123.266 58.585 122.651 58.292 122.123C58.0136 121.581 57.618 121.156 57.1053 120.848C56.5925 120.526 56.0065 120.365 55.3472 120.365C54.7172 120.365 54.1458 120.519 53.6331 120.826C53.1349 121.134 52.7394 121.566 52.4464 122.123C52.168 122.665 52.0288 123.28 52.0288 123.969C52.0288 124.672 52.168 125.295 52.4464 125.837C52.7394 126.379 53.1349 126.804 53.6331 127.112C54.1458 127.419 54.7172 127.573 55.3472 127.573ZM73.271 130.078C71.9231 130.078 70.8756 129.712 70.1284 128.98C69.3959 128.232 69.0296 127.185 69.0296 125.837V120.563H66.9639V117.992H67.1837C67.7697 117.992 68.2239 117.838 68.5462 117.53C68.8685 117.222 69.0296 116.776 69.0296 116.19V115.267H71.9085V117.992H74.6555V120.563H71.9085V125.683C71.9085 126.079 71.9744 126.416 72.1063 126.694C72.2528 126.972 72.4725 127.185 72.7656 127.331C73.0732 127.478 73.4615 127.551 73.9303 127.551C74.0328 127.551 74.15 127.544 74.2819 127.529C74.4284 127.515 74.5676 127.5 74.6994 127.485V129.947C74.4943 129.976 74.2599 130.005 73.9962 130.034C73.7325 130.064 73.4908 130.078 73.271 130.078ZM82.6372 130.21C81.4652 130.21 80.3957 129.939 79.4287 129.397C78.4765 128.855 77.7146 128.115 77.1432 127.178C76.5865 126.24 76.3082 125.17 76.3082 123.969C76.3082 122.768 76.5865 121.698 77.1432 120.761C77.7146 119.823 78.4765 119.083 79.4287 118.541C80.381 117.999 81.4505 117.728 82.6372 117.728C83.8093 117.728 84.8715 117.999 85.8238 118.541C86.776 119.083 87.5306 119.823 88.0873 120.761C88.6587 121.684 88.9443 122.753 88.9443 123.969C88.9443 125.17 88.6587 126.24 88.0873 127.178C87.5159 128.115 86.7541 128.855 85.8018 129.397C84.8495 129.939 83.7946 130.21 82.6372 130.21ZM82.6372 127.573C83.2819 127.573 83.8459 127.419 84.3294 127.112C84.8275 126.804 85.2158 126.379 85.4941 125.837C85.7871 125.28 85.9336 124.658 85.9336 123.969C85.9336 123.266 85.7871 122.651 85.4941 122.123C85.2158 121.581 84.8275 121.156 84.3294 120.848C83.8459 120.526 83.2819 120.365 82.6372 120.365C81.978 120.365 81.3993 120.526 80.9011 120.848C80.403 121.156 80.0074 121.581 79.7144 122.123C79.4361 122.651 79.2969 123.266 79.2969 123.969C79.2969 124.658 79.4361 125.28 79.7144 125.837C80.0074 126.379 80.403 126.804 80.9011 127.112C81.3993 127.419 81.978 127.573 82.6372 127.573ZM100.22 130.21C99.3554 130.21 98.5276 130.049 97.7365 129.727C96.96 129.404 96.286 128.95 95.7147 128.364C95.1579 127.764 94.777 127.053 94.5719 126.233L97.1651 125.31C97.4141 126.057 97.817 126.614 98.3738 126.98C98.9305 127.331 99.5458 127.507 100.22 127.507C100.776 127.507 101.267 127.39 101.692 127.156C102.132 126.907 102.469 126.57 102.703 126.145C102.937 125.705 103.055 125.2 103.055 124.628C103.055 124.057 102.93 123.559 102.681 123.134C102.447 122.709 102.117 122.379 101.692 122.145C101.267 121.896 100.776 121.771 100.22 121.771C99.6484 121.771 99.1283 121.896 98.6594 122.145C98.2053 122.394 97.8756 122.753 97.6705 123.222L95.2312 122.672L96.5278 113.574H105.45V116.102H97.7145L98.8353 114.805L97.9123 121.662L97.0552 120.958C97.4654 120.358 97.9635 119.918 98.5496 119.64C99.1502 119.361 99.8755 119.222 100.725 119.222C101.809 119.222 102.747 119.457 103.538 119.925C104.344 120.394 104.967 121.032 105.406 121.837C105.846 122.643 106.065 123.573 106.065 124.628C106.065 125.683 105.809 126.635 105.296 127.485C104.783 128.335 104.088 129.002 103.208 129.485C102.329 129.969 101.333 130.21 100.22 130.21ZM114.993 130.21C113.689 130.21 112.546 129.859 111.565 129.155C110.583 128.452 109.814 127.463 109.257 126.189C108.715 124.914 108.444 123.434 108.444 121.749C108.444 120.05 108.715 118.57 109.257 117.31C109.799 116.05 110.561 115.069 111.543 114.366C112.524 113.662 113.667 113.311 114.971 113.311C116.304 113.311 117.454 113.662 118.421 114.366C119.403 115.069 120.172 116.058 120.728 117.332C121.285 118.592 121.564 120.065 121.564 121.749C121.564 123.434 121.285 124.914 120.728 126.189C120.186 127.449 119.425 128.438 118.443 129.155C117.461 129.859 116.311 130.21 114.993 130.21ZM115.015 127.485C115.762 127.485 116.399 127.258 116.927 126.804C117.454 126.335 117.857 125.676 118.135 124.826C118.428 123.962 118.575 122.936 118.575 121.749C118.575 120.563 118.428 119.545 118.135 118.695C117.857 117.83 117.447 117.171 116.905 116.717C116.377 116.263 115.733 116.036 114.971 116.036C114.238 116.036 113.608 116.263 113.081 116.717C112.553 117.171 112.143 117.83 111.85 118.695C111.572 119.545 111.433 120.563 111.433 121.749C111.433 122.922 111.572 123.94 111.85 124.804C112.143 125.654 112.553 126.313 113.081 126.782C113.623 127.251 114.268 127.485 115.015 127.485ZM130.552 130.21C129.248 130.21 128.105 129.859 127.124 129.155C126.142 128.452 125.373 127.463 124.816 126.189C124.274 124.914 124.003 123.434 124.003 121.749C124.003 120.05 124.274 118.57 124.816 117.31C125.358 116.05 126.12 115.069 127.102 114.366C128.083 113.662 129.226 113.311 130.53 113.311C131.863 113.311 133.013 113.662 133.98 114.366C134.962 115.069 135.731 116.058 136.288 117.332C136.844 118.592 137.123 120.065 137.123 121.749C137.123 123.434 136.844 124.914 136.288 126.189C135.746 127.449 134.984 128.438 134.002 129.155C133.021 129.859 131.87 130.21 130.552 130.21ZM130.574 127.485C131.321 127.485 131.958 127.258 132.486 126.804C133.013 126.335 133.416 125.676 133.694 124.826C133.988 123.962 134.134 122.936 134.134 121.749C134.134 120.563 133.988 119.545 133.694 118.695C133.416 117.83 133.006 117.171 132.464 116.717C131.936 116.263 131.292 116.036 130.53 116.036C129.797 116.036 129.167 116.263 128.64 116.717C128.113 117.171 127.702 117.83 127.409 118.695C127.131 119.545 126.992 120.563 126.992 121.749C126.992 122.922 127.131 123.94 127.409 124.804C127.702 125.654 128.113 126.313 128.64 126.782C129.182 127.251 129.827 127.485 130.574 127.485ZM141.035 129.947V126.87H143.935V129.947H141.035ZM141.035 121.068V117.992H143.935V121.068H141.035ZM150.439 129.947V116.124H147.274V113.574H153.428V129.947H150.439Z" fill="white"/>
<g filter="url(#filter1_b_114_105)">
<rect x="308" width="95" height="95" rx="47.5" fill="white" fill-opacity="0.09"/>
<rect x="308.699" y="0.699471" width="93.6011" height="93.6011" rx="46.8005" stroke="url(#paint1_linear_114_105)" stroke-width="1.39894"/>
</g>
<mask id="path-6-inside-1_114_105" fill="white">
<path fill-rule="evenodd" clip-rule="evenodd" d="M380.54 40.2794C379.471 37.7999 377.99 35.6446 376.093 33.8219C374.195 31.9949 371.971 30.5721 369.421 29.5407C366.875 28.5136 364.119 28 361.157 28C358.194 28 355.434 28.5052 352.888 29.5155C350.338 30.5258 348.114 31.9528 346.217 33.7966C344.319 35.6404 342.838 37.7999 341.769 40.2836C340.704 42.7673 340.172 45.4782 340.172 48.4165C340.172 51.3548 340.704 54.07 341.769 56.5495C342.834 59.0289 344.323 61.1927 346.242 63.0365C348.157 64.8803 350.381 66.3158 352.914 67.3429C355.443 68.37 358.19 68.8836 361.157 68.8836C361.985 68.8836 362.792 68.8331 363.587 68.7531L359.77 62.6534C358.272 62.5271 356.859 62.1946 355.541 61.6515C353.824 60.9443 352.334 59.9424 351.068 58.6459C349.801 57.3535 348.818 55.8381 348.11 54.0995C347.406 52.3609 347.054 50.4666 347.054 48.4123C347.054 46.3917 347.406 44.5142 348.11 42.7757C348.814 41.0413 349.801 39.5259 351.068 38.2293C352.33 36.937 353.824 35.9351 355.541 35.2237C357.259 34.5165 359.126 34.1586 361.152 34.1586C363.174 34.1586 365.046 34.5122 366.764 35.2237C368.481 35.9351 369.971 36.9328 371.237 38.2293C372.503 39.5217 373.487 41.0371 374.191 42.7757C374.895 44.5142 375.251 46.3917 375.251 48.4123C375.251 50.4666 374.899 52.3651 374.191 54.0995C373.487 55.8381 372.503 57.3493 371.237 58.6459C370.819 59.0728 370.376 59.4681 369.908 59.8317L365.222 52.4029H357.958L370.859 73.03H378.235L373.321 65.241C374.296 64.5866 375.211 63.8516 376.062 63.0323C377.977 61.1885 379.467 59.0289 380.536 56.5453C381.601 54.0658 382.133 51.3548 382.133 48.4123C382.133 45.4698 381.605 42.7631 380.54 40.2794ZM376.487 29.1073V31.7383H377.144V29.1073H377.96V28.5474H375.659V29.1073H376.487ZM378.479 31.7383V28.5474H379.111L380.18 29.9466L381.223 28.5474H381.854V31.7383H381.197V29.6513L380.21 30.909H380.128L379.136 29.6055V31.7383H378.479ZM335.509 34.1671H329.606L335.509 41.4118V68.2438H328.623V28.6357H335.509V34.1671Z"/>
</mask>
<path fill-rule="evenodd" clip-rule="evenodd" d="M380.54 40.2794C379.471 37.7999 377.99 35.6446 376.093 33.8219C374.195 31.9949 371.971 30.5721 369.421 29.5407C366.875 28.5136 364.119 28 361.157 28C358.194 28 355.434 28.5052 352.888 29.5155C350.338 30.5258 348.114 31.9528 346.217 33.7966C344.319 35.6404 342.838 37.7999 341.769 40.2836C340.704 42.7673 340.172 45.4782 340.172 48.4165C340.172 51.3548 340.704 54.07 341.769 56.5495C342.834 59.0289 344.323 61.1927 346.242 63.0365C348.157 64.8803 350.381 66.3158 352.914 67.3429C355.443 68.37 358.19 68.8836 361.157 68.8836C361.985 68.8836 362.792 68.8331 363.587 68.7531L359.77 62.6534C358.272 62.5271 356.859 62.1946 355.541 61.6515C353.824 60.9443 352.334 59.9424 351.068 58.6459C349.801 57.3535 348.818 55.8381 348.11 54.0995C347.406 52.3609 347.054 50.4666 347.054 48.4123C347.054 46.3917 347.406 44.5142 348.11 42.7757C348.814 41.0413 349.801 39.5259 351.068 38.2293C352.33 36.937 353.824 35.9351 355.541 35.2237C357.259 34.5165 359.126 34.1586 361.152 34.1586C363.174 34.1586 365.046 34.5122 366.764 35.2237C368.481 35.9351 369.971 36.9328 371.237 38.2293C372.503 39.5217 373.487 41.0371 374.191 42.7757C374.895 44.5142 375.251 46.3917 375.251 48.4123C375.251 50.4666 374.899 52.3651 374.191 54.0995C373.487 55.8381 372.503 57.3493 371.237 58.6459C370.819 59.0728 370.376 59.4681 369.908 59.8317L365.222 52.4029H357.958L370.859 73.03H378.235L373.321 65.241C374.296 64.5866 375.211 63.8516 376.062 63.0323C377.977 61.1885 379.467 59.0289 380.536 56.5453C381.601 54.0658 382.133 51.3548 382.133 48.4123C382.133 45.4698 381.605 42.7631 380.54 40.2794ZM376.487 29.1073V31.7383H377.144V29.1073H377.96V28.5474H375.659V29.1073H376.487ZM378.479 31.7383V28.5474H379.111L380.18 29.9466L381.223 28.5474H381.854V31.7383H381.197V29.6513L380.21 30.909H380.128L379.136 29.6055V31.7383H378.479ZM335.509 34.1671H329.606L335.509 41.4118V68.2438H328.623V28.6357H335.509V34.1671Z" fill="white"/>
<path d="M376.093 33.8219L375.255 34.6917L375.256 34.6927L376.093 33.8219ZM380.54 40.2794L381.65 39.8036L381.649 39.8013L380.54 40.2794ZM369.421 29.5407L369.874 28.4213L369.873 28.4209L369.421 29.5407ZM352.888 29.5155L353.333 30.6381L353.334 30.6378L352.888 29.5155ZM346.217 33.7966L347.058 34.6626L347.058 34.6626L346.217 33.7966ZM341.769 40.2836L340.66 39.8062L340.659 39.8078L341.769 40.2836ZM341.769 56.5495L340.659 57.0259L341.769 56.5495ZM346.242 63.0365L347.08 62.1667L347.079 62.1658L346.242 63.0365ZM352.914 67.3429L353.368 66.2242L353.368 66.2239L352.914 67.3429ZM363.587 68.7531L363.708 69.9545L365.641 69.7598L364.61 68.1126L363.587 68.7531ZM359.77 62.6534L360.794 62.0129L360.473 61.5009L359.871 61.4502L359.77 62.6534ZM355.541 61.6515L356.001 60.5351L356.001 60.535L355.541 61.6515ZM351.068 58.6459L351.932 57.8021L351.93 57.8007L351.068 58.6459ZM348.11 54.0995L346.991 54.5527L346.992 54.5551L348.11 54.0995ZM348.11 42.7757L346.991 42.3215L346.991 42.3224L348.11 42.7757ZM351.068 38.2293L351.932 39.0731L351.932 39.073L351.068 38.2293ZM355.541 35.2237L355.081 34.1072L355.079 34.1081L355.541 35.2237ZM371.237 38.2293L370.373 39.0731L370.375 39.0745L371.237 38.2293ZM374.191 54.0995L373.073 53.6429L373.071 53.6463L374.191 54.0995ZM371.237 58.6459L372.099 59.491L372.101 59.4896L371.237 58.6459ZM369.908 59.8317L368.887 60.4759L369.598 61.6029L370.65 60.7847L369.908 59.8317ZM365.222 52.4029L366.243 51.7587L365.888 51.1954H365.222V52.4029ZM357.958 52.4029V51.1954H355.779L356.934 53.0432L357.958 52.4029ZM370.859 73.03L369.835 73.6702L370.19 74.2374H370.859V73.03ZM378.235 73.03V74.2374H380.424L379.256 72.3857L378.235 73.03ZM373.321 65.241L372.648 64.2383L371.673 64.8924L372.3 65.8852L373.321 65.241ZM376.062 63.0323L376.899 63.9026L376.9 63.902L376.062 63.0323ZM380.536 56.5453L381.645 57.0226L381.645 57.0217L380.536 56.5453ZM376.487 31.7383H375.28V32.9458H376.487V31.7383ZM376.487 29.1073H377.695V27.8998H376.487V29.1073ZM377.144 31.7383V32.9458H378.352V31.7383H377.144ZM377.144 29.1073V27.8998H375.937V29.1073H377.144ZM377.96 29.1073V30.3148H379.167V29.1073H377.96ZM377.96 28.5474H379.167V27.3399H377.96V28.5474ZM375.659 28.5474V27.3399H374.451V28.5474H375.659ZM375.659 29.1073H374.451V30.3148H375.659V29.1073ZM378.479 28.5474V27.3399H377.272V28.5474H378.479ZM378.479 31.7383H377.272V32.9458H378.479V31.7383ZM379.111 28.5474L380.07 27.8142L379.708 27.3399H379.111V28.5474ZM380.18 29.9466L379.22 30.6798L380.192 31.951L381.148 30.6682L380.18 29.9466ZM381.223 28.5474V27.3399H380.617L380.255 27.8258L381.223 28.5474ZM381.854 28.5474H383.061V27.3399H381.854V28.5474ZM381.854 31.7383V32.9458H383.061V31.7383H381.854ZM381.197 31.7383H379.99V32.9458H381.197V31.7383ZM381.197 29.6513H382.405V26.158L380.247 28.9057L381.197 29.6513ZM380.21 30.909V32.1165H380.797L381.159 31.6547L380.21 30.909ZM380.128 30.909L379.167 31.6401L379.53 32.1165H380.128V30.909ZM379.136 29.6055L380.097 28.8744L377.929 26.0243V29.6055H379.136ZM379.136 31.7383V32.9458H380.344V31.7383H379.136ZM329.606 34.1671V32.9596H327.065L328.67 34.9298L329.606 34.1671ZM335.509 34.1671V35.3746H336.717V34.1671H335.509ZM335.509 41.4118H336.717V40.9822L336.446 40.6491L335.509 41.4118ZM335.509 68.2438V69.4513H336.717V68.2438H335.509ZM328.623 68.2438H327.416V69.4513H328.623V68.2438ZM328.623 28.6357V27.4282H327.416V28.6357H328.623ZM335.509 28.6357H336.717V27.4282H335.509V28.6357ZM375.256 34.6927C377.034 36.4001 378.424 38.4206 379.431 40.7575L381.649 39.8013C380.519 37.1793 378.947 34.8891 376.929 32.9511L375.256 34.6927ZM368.968 30.6601C371.383 31.6369 373.475 32.9776 375.255 34.6917L376.93 32.952C374.915 31.0122 372.559 29.5073 369.874 28.4213L368.968 30.6601ZM361.157 29.2075C363.977 29.2075 366.578 29.6958 368.969 30.6605L369.873 28.4209C367.172 27.3314 364.261 26.7925 361.157 26.7925V29.2075ZM353.334 30.6378C355.726 29.6883 358.334 29.2075 361.157 29.2075V26.7925C358.055 26.7925 355.142 27.322 352.443 28.3931L353.334 30.6378ZM347.058 34.6626C348.837 32.9337 350.925 31.592 353.333 30.6381L352.443 28.3929C349.751 29.4595 347.391 30.9719 345.375 32.9306L347.058 34.6626ZM342.878 40.761C343.886 38.4201 345.277 36.3934 347.058 34.6626L345.375 32.9306C343.361 34.8874 341.79 37.1798 340.66 39.8062L342.878 40.761ZM341.379 48.4165C341.379 45.6274 341.884 43.08 342.879 40.7594L340.659 39.8078C339.524 42.4545 338.964 45.3291 338.964 48.4165H341.379ZM342.878 56.073C341.884 53.7574 341.379 51.2061 341.379 48.4165H338.964C338.964 51.5036 339.524 54.3827 340.659 57.0259L342.878 56.073ZM347.079 62.1658C345.279 60.436 343.881 58.4071 342.878 56.073L340.659 57.0259C341.787 59.6507 343.368 61.9493 345.406 63.9072L347.079 62.1658ZM353.368 66.2239C350.973 65.2529 348.881 63.9007 347.08 62.1667L345.405 63.9063C347.434 65.8599 349.789 67.3786 352.46 68.4619L353.368 66.2239ZM361.157 67.6761C358.332 67.6761 355.741 67.1878 353.368 66.2242L352.459 68.4616C355.145 69.5523 358.048 70.0911 361.157 70.0911V67.6761ZM363.466 67.5517C362.702 67.6286 361.936 67.6761 361.157 67.6761V70.0911C362.034 70.0911 362.883 70.0376 363.708 69.9545L363.466 67.5517ZM358.746 63.2939L362.563 69.3936L364.61 68.1126L360.794 62.0129L358.746 63.2939ZM355.081 62.768C356.521 63.3613 358.056 63.7207 359.669 63.8566L359.871 61.4502C358.488 61.3336 357.197 61.0278 356.001 60.5351L355.081 62.768ZM350.204 59.4896C351.588 60.9062 353.216 61.9997 355.081 62.768L356.001 60.535C354.432 59.8889 353.081 58.9787 351.932 57.8021L350.204 59.4896ZM346.992 54.5551C347.756 56.4318 348.824 58.0813 350.205 59.491L351.93 57.8007C350.779 56.6257 349.88 55.2443 349.228 53.6439L346.992 54.5551ZM345.846 48.4123C345.846 50.6073 346.223 52.6572 346.991 54.5527L349.229 53.6463C348.589 52.0647 348.261 50.3259 348.261 48.4123H345.846ZM346.991 42.3224C346.224 44.2157 345.846 46.2483 345.846 48.4123H348.261C348.261 46.5352 348.588 44.8128 349.229 43.2289L346.991 42.3224ZM350.204 37.3856C348.825 38.7973 347.752 40.4461 346.991 42.3215L349.229 43.2299C349.875 41.6366 350.778 40.2544 351.932 39.0731L350.204 37.3856ZM355.079 34.1081C353.216 34.8798 351.584 35.9722 350.204 37.3856L351.932 39.073C353.076 37.9017 354.432 36.9904 356.003 36.3392L355.079 34.1081ZM361.152 32.9512C358.981 32.9512 356.955 33.3354 355.081 34.1072L356.001 36.3402C357.562 35.6975 359.272 35.3661 361.152 35.3661V32.9512ZM367.226 34.1081C365.349 33.3305 363.318 32.9512 361.152 32.9512V35.3661C363.031 35.3661 364.744 35.694 366.301 36.3392L367.226 34.1081ZM372.101 37.3856C370.716 35.9679 369.088 34.8797 367.226 34.1081L366.301 36.3392C367.873 36.9905 369.225 37.8977 370.373 39.0731L372.101 37.3856ZM375.31 42.3224C374.549 40.444 373.481 38.7938 372.099 37.3842L370.375 39.0745C371.526 40.2495 372.424 41.6303 373.071 43.2289L375.31 42.3224ZM376.459 48.4123C376.459 46.2464 376.076 44.214 375.31 42.3224L373.071 43.2289C373.714 44.8145 374.044 46.537 374.044 48.4123H376.459ZM375.309 54.5561C376.082 52.6623 376.459 50.6067 376.459 48.4123H374.044C374.044 50.3265 373.716 52.068 373.073 53.6429L375.309 54.5561ZM372.101 59.4896C373.48 58.0773 374.549 56.4324 375.31 54.5527L373.071 53.6463C372.425 55.2438 371.527 56.6213 370.373 57.8021L372.101 59.4896ZM370.65 60.7847C371.16 60.3876 371.644 59.9562 372.099 59.491L370.375 57.8007C369.994 58.1895 369.591 58.5486 369.167 58.8786L370.65 60.7847ZM364.201 53.0472L368.887 60.4759L370.93 59.1874L366.243 51.7587L364.201 53.0472ZM357.958 53.6104H365.222V51.1954H357.958V53.6104ZM371.883 72.3897L358.982 51.7626L356.934 53.0432L369.835 73.6702L371.883 72.3897ZM378.235 71.8225H370.859V74.2374H378.235V71.8225ZM372.3 65.8852L377.213 73.6742L379.256 72.3857L374.342 64.5967L372.3 65.8852ZM375.225 62.1619C374.425 62.9318 373.566 63.6227 372.648 64.2383L373.994 66.2436C375.027 65.5505 375.996 64.7714 376.899 63.9026L375.225 62.1619ZM379.427 56.0679C378.42 58.4064 377.022 60.4319 375.225 62.1625L376.9 63.902C378.932 61.945 380.514 59.6514 381.645 57.0226L379.427 56.0679ZM380.925 48.4123C380.925 51.206 380.421 53.7531 379.426 56.0688L381.645 57.0217C382.78 54.3786 383.34 51.5037 383.34 48.4123H380.925ZM379.43 40.7551C380.425 43.0748 380.925 45.6178 380.925 48.4123H383.34C383.34 45.3219 382.785 42.4513 381.65 39.8036L379.43 40.7551ZM377.695 31.7383V29.1073H375.28V31.7383H377.695ZM377.144 30.5308H376.487V32.9458H377.144V30.5308ZM375.937 29.1073V31.7383H378.352V29.1073H375.937ZM377.96 27.8998H377.144V30.3148H377.96V27.8998ZM376.753 28.5474V29.1073H379.167V28.5474H376.753ZM375.659 29.7549H377.96V27.3399H375.659V29.7549ZM376.866 29.1073V28.5474H374.451V29.1073H376.866ZM376.487 27.8998H375.659V30.3148H376.487V27.8998ZM377.272 28.5474V31.7383H379.687V28.5474H377.272ZM379.111 27.3399H378.479V29.7549H379.111V27.3399ZM381.139 29.2134L380.07 27.8142L378.151 29.2806L379.22 30.6798L381.139 29.2134ZM380.255 27.8258L379.212 29.225L381.148 30.6682L382.191 29.269L380.255 27.8258ZM381.854 27.3399H381.223V29.7549H381.854V27.3399ZM383.061 31.7383V28.5474H380.646V31.7383H383.061ZM381.197 32.9458H381.854V30.5308H381.197V32.9458ZM379.99 29.6513V31.7383H382.405V29.6513H379.99ZM381.159 31.6547L382.147 30.397L380.247 28.9057L379.26 30.1633L381.159 31.6547ZM380.128 32.1165H380.21V29.7015H380.128V32.1165ZM378.175 30.3367L379.167 31.6401L381.089 30.1778L380.097 28.8744L378.175 30.3367ZM380.344 31.7383V29.6055H377.929V31.7383H380.344ZM378.479 32.9458H379.136V30.5308H378.479V32.9458ZM329.606 35.3746H335.509V32.9596H329.606V35.3746ZM336.446 40.6491L330.543 33.4044L328.67 34.9298L334.573 42.1746L336.446 40.6491ZM336.717 68.2438V41.4118H334.302V68.2438H336.717ZM328.623 69.4513H335.509V67.0363H328.623V69.4513ZM327.416 28.6357V68.2438H329.831V28.6357H327.416ZM335.509 27.4282H328.623V29.8432H335.509V27.4282ZM336.717 34.1671V28.6357H334.302V34.1671H336.717Z" fill="url(#paint2_linear_114_105)" mask="url(#path-6-inside-1_114_105)"/>
<g filter="url(#filter2_b_114_105)">
<rect x="213" y="215" width="181.857" height="67" rx="33.5" fill="white" fill-opacity="0.14"/>
<rect x="213.598" y="215.598" width="180.661" height="65.8036" rx="32.9018" stroke="url(#paint3_linear_114_105)" stroke-width="1.19643"/>
</g>
<path d="M262.429 257.595C261.163 257.595 260.053 257.254 259.1 256.571C258.147 255.888 257.4 254.928 256.86 253.69C256.333 252.453 256.07 251.016 256.07 249.38C256.07 247.73 256.333 246.293 256.86 245.069C257.386 243.846 258.126 242.893 259.079 242.21C260.032 241.527 261.142 241.186 262.408 241.186C263.702 241.186 264.819 241.527 265.758 242.21C266.711 242.893 267.458 243.853 267.998 245.091C268.539 246.314 268.809 247.744 268.809 249.38C268.809 251.016 268.539 252.453 267.998 253.69C267.472 254.914 266.732 255.874 265.779 256.571C264.826 257.254 263.709 257.595 262.429 257.595ZM262.45 254.949C263.176 254.949 263.795 254.729 264.307 254.288C264.819 253.833 265.21 253.192 265.48 252.367C265.765 251.528 265.907 250.532 265.907 249.38C265.907 248.228 265.765 247.239 265.48 246.414C265.21 245.574 264.812 244.934 264.285 244.493C263.773 244.052 263.147 243.832 262.408 243.832C261.696 243.832 261.085 244.052 260.573 244.493C260.06 244.934 259.662 245.574 259.378 246.414C259.107 247.239 258.972 248.228 258.972 249.38C258.972 250.518 259.107 251.507 259.378 252.346C259.662 253.171 260.06 253.811 260.573 254.267C261.099 254.722 261.725 254.949 262.45 254.949ZM272.608 257.339V254.352H275.425V257.339H272.608ZM285.602 257.595C284.336 257.595 283.226 257.254 282.273 256.571C281.32 255.888 280.573 254.928 280.032 253.69C279.506 252.453 279.243 251.016 279.243 249.38C279.243 247.73 279.506 246.293 280.032 245.069C280.559 243.846 281.298 242.893 282.252 242.21C283.205 241.527 284.314 241.186 285.58 241.186C286.875 241.186 287.992 241.527 288.931 242.21C289.884 242.893 290.631 243.853 291.171 245.091C291.712 246.314 291.982 247.744 291.982 249.38C291.982 251.016 291.712 252.453 291.171 253.69C290.645 254.914 289.905 255.874 288.952 256.571C287.999 257.254 286.882 257.595 285.602 257.595ZM285.623 254.949C286.349 254.949 286.968 254.729 287.48 254.288C287.992 253.833 288.383 253.192 288.653 252.367C288.938 251.528 289.08 250.532 289.08 249.38C289.08 248.228 288.938 247.239 288.653 246.414C288.383 245.574 287.985 244.934 287.458 244.493C286.946 244.052 286.32 243.832 285.58 243.832C284.869 243.832 284.257 244.052 283.745 244.493C283.233 244.934 282.835 245.574 282.55 246.414C282.28 247.239 282.145 248.228 282.145 249.38C282.145 250.518 282.28 251.507 282.55 252.346C282.835 253.171 283.233 253.811 283.745 254.267C284.272 254.722 284.898 254.949 285.623 254.949ZM297.338 249.572L295.631 248.313L297.189 246.2L294.735 245.368L295.397 243.362L297.851 244.173V241.442H299.984V244.173L302.438 243.362L303.1 245.368L300.646 246.2L302.204 248.313L300.475 249.572L298.918 247.459L297.338 249.572ZM310.009 257.339V241.442H315.941C317.022 241.442 317.976 241.641 318.801 242.039C319.64 242.423 320.294 242.992 320.764 243.746C321.233 244.486 321.468 245.39 321.468 246.456C321.468 247.509 321.226 248.413 320.742 249.167C320.273 249.906 319.626 250.475 318.801 250.874C317.976 251.272 317.022 251.471 315.941 251.471H312.911V257.339H310.009ZM312.911 248.91H315.984C316.51 248.91 316.965 248.811 317.35 248.612C317.734 248.398 318.032 248.107 318.246 247.737C318.459 247.367 318.566 246.94 318.566 246.456C318.566 245.959 318.459 245.532 318.246 245.176C318.032 244.806 317.734 244.522 317.35 244.323C316.965 244.109 316.51 244.002 315.984 244.002H312.911V248.91ZM323.611 257.339V245.731H326.407V257.339H323.611ZM323.611 244.429V241.442H326.407V244.429H323.611ZM328.988 261.607V245.731H331.612V248.036L331.356 247.459C331.755 246.833 332.295 246.35 332.978 246.008C333.661 245.653 334.45 245.475 335.347 245.475C336.442 245.475 337.431 245.745 338.313 246.286C339.195 246.826 339.892 247.552 340.404 248.462C340.93 249.373 341.194 250.397 341.194 251.535C341.194 252.659 340.938 253.683 340.425 254.608C339.913 255.533 339.216 256.265 338.334 256.806C337.452 257.332 336.449 257.595 335.325 257.595C334.486 257.595 333.711 257.432 332.999 257.105C332.302 256.763 331.748 256.28 331.335 255.654L331.783 255.099V261.607H328.988ZM335.005 255.035C335.645 255.035 336.214 254.885 336.712 254.587C337.21 254.288 337.594 253.875 337.865 253.349C338.149 252.823 338.291 252.218 338.291 251.535C338.291 250.852 338.149 250.255 337.865 249.743C337.594 249.216 337.21 248.804 336.712 248.505C336.214 248.192 335.645 248.036 335.005 248.036C334.394 248.036 333.839 248.185 333.341 248.484C332.857 248.782 332.473 249.202 332.189 249.743C331.918 250.269 331.783 250.867 331.783 251.535C331.783 252.218 331.918 252.823 332.189 253.349C332.473 253.875 332.857 254.288 333.341 254.587C333.839 254.885 334.394 255.035 335.005 255.035ZM347.742 257.595C346.504 257.595 345.423 257.304 344.498 256.721C343.588 256.123 342.962 255.319 342.621 254.309L344.712 253.306C345.011 253.961 345.423 254.473 345.95 254.843C346.49 255.213 347.088 255.398 347.742 255.398C348.254 255.398 348.66 255.284 348.958 255.056C349.257 254.828 349.406 254.53 349.406 254.16C349.406 253.932 349.342 253.747 349.214 253.605C349.101 253.449 348.937 253.321 348.724 253.221C348.524 253.107 348.304 253.015 348.062 252.944L346.163 252.41C345.181 252.126 344.434 251.692 343.922 251.108C343.424 250.525 343.175 249.835 343.175 249.038C343.175 248.327 343.353 247.708 343.709 247.182C344.079 246.641 344.584 246.222 345.224 245.923C345.878 245.624 346.625 245.475 347.465 245.475C348.56 245.475 349.527 245.738 350.367 246.264C351.206 246.791 351.804 247.531 352.159 248.484L350.025 249.487C349.826 248.96 349.492 248.541 349.022 248.228C348.553 247.915 348.027 247.758 347.443 247.758C346.974 247.758 346.604 247.865 346.334 248.078C346.063 248.292 345.928 248.569 345.928 248.91C345.928 249.124 345.985 249.309 346.099 249.465C346.213 249.622 346.369 249.75 346.568 249.849C346.782 249.949 347.024 250.041 347.294 250.127L349.15 250.682C350.104 250.966 350.836 251.393 351.348 251.962C351.875 252.531 352.138 253.228 352.138 254.053C352.138 254.75 351.953 255.369 351.583 255.91C351.213 256.436 350.701 256.849 350.047 257.147C349.392 257.446 348.624 257.595 347.742 257.595Z" fill="white"/>
<defs>
<filter id="filter0_b_114_105" x="-44.2473" y="42.7527" width="275.78" height="157.495" filterUnits="userSpaceOnUse" color-interpolation-filters="sRGB">
<feFlood flood-opacity="0" result="BackgroundImageFix"/>
<feGaussianBlur in="BackgroundImageFix" stdDeviation="22.1236"/>
<feComposite in2="SourceAlpha" operator="in" result="effect1_backgroundBlur_114_105"/>
<feBlend mode="normal" in="SourceGraphic" in2="effect1_backgroundBlur_114_105" result="shape"/>
</filter>
<filter id="filter1_b_114_105" x="272.089" y="-35.9108" width="166.822" height="166.822" filterUnits="userSpaceOnUse" color-interpolation-filters="sRGB">
<feFlood flood-opacity="0" result="BackgroundImageFix"/>
<feGaussianBlur in="BackgroundImageFix" stdDeviation="17.9554"/>
<feComposite in2="SourceAlpha" operator="in" result="effect1_backgroundBlur_114_105"/>
<feBlend mode="normal" in="SourceGraphic" in2="effect1_backgroundBlur_114_105" result="shape"/>
</filter>
<filter id="filter2_b_114_105" x="170.035" y="172.035" width="267.787" height="152.929" filterUnits="userSpaceOnUse" color-interpolation-filters="sRGB">
<feFlood flood-opacity="0" result="BackgroundImageFix"/>
<feGaussianBlur in="BackgroundImageFix" stdDeviation="21.4824"/>
<feComposite in2="SourceAlpha" operator="in" result="effect1_backgroundBlur_114_105"/>
<feBlend mode="normal" in="SourceGraphic" in2="effect1_backgroundBlur_114_105" result="shape"/>
</filter>
<linearGradient id="paint0_linear_114_105" x1="32.6518" y1="96.8571" x2="93.6429" y2="156" gradientUnits="userSpaceOnUse">
<stop stop-color="white"/>
<stop offset="1" stop-color="white" stop-opacity="0"/>
</linearGradient>
<linearGradient id="paint1_linear_114_105" x1="379.875" y1="-6.78573" x2="304.089" y2="12.2515" gradientUnits="userSpaceOnUse">
<stop stop-color="white"/>
<stop offset="1" stop-color="white" stop-opacity="0"/>
</linearGradient>
<linearGradient id="paint2_linear_114_105" x1="369.108" y1="24.7836" x2="327.439" y2="37.2215" gradientUnits="userSpaceOnUse">
<stop stop-color="white"/>
<stop offset="1" stop-color="white" stop-opacity="0"/>
</linearGradient>
<linearGradient id="paint3_linear_114_105" x1="350.589" y1="210.214" x2="245.304" y2="282" gradientUnits="userSpaceOnUse">
<stop stop-color="white"/>
<stop offset="1" stop-color="white" stop-opacity="0"/>
</linearGradient>
</defs>
</svg>
