<svg width="326" height="209" viewBox="0 0 326 209" fill="none" xmlns="http://www.w3.org/2000/svg">
<g filter="url(#filter0_b_136_2741)">
<rect y="71.8306" width="183.815" height="52.5185" rx="26.2593" fill="white" fill-opacity="0.09"/>
</g>
<g style="mix-blend-mode:screen">
<g style="mix-blend-mode:overlay">
<path d="M58.2627 89.0631V89.3843C57.0518 88.3801 55.5277 87.8311 53.9546 87.8322H28.1056C26.5324 87.8311 25.0084 88.3801 23.7975 89.3843V89.0631C23.7975 88.0837 24.1865 87.1444 24.879 86.4519C25.5715 85.7594 26.5108 85.3704 27.4902 85.3704H54.57C55.5494 85.3704 56.4886 85.7594 57.1812 86.4519C57.8737 87.1444 58.2627 88.0837 58.2627 89.0631ZM47.1846 95.2176C47.1846 96.2667 46.9164 97.2983 46.4056 98.2146C45.8947 99.1309 45.1581 99.9014 44.2657 100.453C43.3733 101.004 42.3547 101.319 41.3067 101.366C40.2587 101.413 39.216 101.192 38.2777 100.722C37.3394 100.253 36.5366 99.552 35.9455 98.6852C35.3544 97.8185 34.9947 96.8151 34.9004 95.7703C34.8062 94.7255 34.9807 93.6739 35.4072 92.7154C35.8337 91.7569 36.4981 90.9234 37.3374 90.294H28.7211V113.681C28.724 114.66 29.114 115.597 29.8059 116.289C30.4977 116.981 31.4353 117.371 32.4138 117.374H49.6464C50.6249 117.371 51.5624 116.981 52.2543 116.289C52.9462 115.597 53.3362 114.66 53.3391 113.681V90.294H44.7228C45.4865 90.8679 46.1063 91.6114 46.5336 92.4658C46.9608 93.3203 47.1836 94.2623 47.1846 95.2176ZM41.0301 98.9103C41.7604 98.9103 42.4744 98.6937 43.0816 98.288C43.6889 97.8822 44.1622 97.3055 44.4417 96.6307C44.7212 95.956 44.7943 95.2135 44.6518 94.4972C44.5094 93.7809 44.1577 93.1229 43.6412 92.6064C43.1248 92.09 42.4668 91.7383 41.7505 91.5958C41.0342 91.4533 40.2917 91.5265 39.617 91.806C38.9422 92.0855 38.3655 92.5588 37.9597 93.166C37.554 93.7733 37.3374 94.4872 37.3374 95.2176C37.3403 96.196 37.7303 97.1336 38.4222 97.8255C39.1141 98.5174 40.0516 98.9074 41.0301 98.9103ZM55.8009 90.726V98.4807C56.5376 98.1353 57.1607 97.5872 57.5972 96.9005C58.0336 96.2138 58.2654 95.417 58.2654 94.6034C58.2654 93.7897 58.0336 92.9929 57.5972 92.3062C57.1607 91.6195 56.5376 91.0714 55.8009 90.726ZM23.7975 94.6021C23.8005 95.4146 24.0333 96.2097 24.4689 96.8955C24.9045 97.5814 25.5252 98.13 26.2593 98.4782V90.7236C25.5248 91.0719 24.9039 91.621 24.4683 92.3073C24.0326 92.9937 23.8001 93.7892 23.7975 94.6021Z" fill="white"/>
</g>
</g>
<path d="M77.0561 96.855C76.2487 96.855 75.4954 96.7122 74.7962 96.4266C74.0971 96.1411 73.4865 95.7422 72.9646 95.2302C72.4427 94.7181 72.0341 94.1175 71.7386 93.4282C71.4531 92.729 71.3103 91.9757 71.3103 91.1682C71.3103 90.3509 71.4531 89.5976 71.7386 88.9083C72.0242 88.219 72.4279 87.6183 72.9499 87.1062C73.4718 86.5942 74.0823 86.2003 74.7814 85.9246C75.4806 85.639 76.2388 85.4962 77.0561 85.4962C77.8735 85.4962 78.6317 85.639 79.3308 85.9246C80.03 86.2101 80.6405 86.609 81.1624 87.121C81.6843 87.6232 82.0881 88.219 82.3736 88.9083C82.6691 89.5976 82.8168 90.3509 82.8168 91.1682C82.8168 91.9757 82.6691 92.729 82.3736 93.4282C82.0782 94.1175 81.6696 94.7181 81.1477 95.2302C80.6258 95.7422 80.0152 96.1411 79.3161 96.4266C78.6268 96.7122 77.8735 96.855 77.0561 96.855ZM77.0561 95.0234C77.5977 95.0234 78.095 94.9299 78.548 94.7428C79.001 94.5458 79.3949 94.275 79.7297 93.9304C80.0743 93.5857 80.3353 93.177 80.5125 92.7044C80.6996 92.2317 80.7932 91.7197 80.7932 91.1682C80.7932 90.6168 80.6996 90.1096 80.5125 89.6468C80.3353 89.1742 80.0743 88.7655 79.7297 88.4208C79.3949 88.0663 79.001 87.7955 78.548 87.6084C78.095 87.4213 77.5977 87.3278 77.0561 87.3278C76.5244 87.3278 76.032 87.4213 75.5791 87.6084C75.1261 87.7955 74.7273 88.0663 74.3826 88.4208C74.0478 88.7655 73.7869 89.1742 73.5998 89.6468C73.4127 90.1096 73.3191 90.6168 73.3191 91.1682C73.3191 91.7197 73.4127 92.2317 73.5998 92.7044C73.7869 93.177 74.0478 93.5857 74.3826 93.9304C74.7273 94.275 75.1261 94.5458 75.5791 94.7428C76.032 94.9299 76.5244 95.0234 77.0561 95.0234ZM79.5967 98.0071L76.1699 92.276H78.2673L81.7385 98.0071H79.5967ZM87.3061 96.855C86.6857 96.855 86.1441 96.7171 85.6813 96.4414C85.2283 96.1657 84.8787 95.7816 84.6325 95.2893C84.3962 94.7969 84.278 94.2209 84.278 93.5611V88.6424H86.213V93.3986C86.213 93.7334 86.277 94.0288 86.405 94.2849C86.5429 94.531 86.7349 94.728 86.9811 94.8757C87.2371 95.0136 87.5227 95.0825 87.8378 95.0825C88.1529 95.0825 88.4336 95.0136 88.6797 94.8757C88.9259 94.728 89.1179 94.5261 89.2558 94.2701C89.3937 94.0141 89.4626 93.7088 89.4626 93.3543V88.6424H91.3976V96.6777H89.566V95.0973L89.7285 95.3779C89.5414 95.8703 89.2312 96.2395 88.7979 96.4857C88.3745 96.7319 87.8772 96.855 87.3061 96.855ZM93.1963 96.6777V88.6424H95.1313V96.6777H93.1963ZM93.1963 87.7414V85.6735H95.1313V87.7414H93.1963ZM100.788 96.855C99.9902 96.855 99.2713 96.6728 98.6312 96.3085C98.001 95.9343 97.5037 95.4321 97.1394 94.8018C96.775 94.1618 96.5929 93.4429 96.5929 92.6453C96.5929 91.8477 96.775 91.1337 97.1394 90.5035C97.5037 89.8733 98.001 89.376 98.6312 89.0117C99.2713 88.6473 99.9902 88.4652 100.788 88.4652C101.359 88.4652 101.891 88.5685 102.383 88.7753C102.875 88.9723 103.299 89.248 103.653 89.6025C104.018 89.9472 104.279 90.3607 104.436 90.8433L102.738 91.5818C102.59 91.1781 102.339 90.8531 101.984 90.6069C101.64 90.3607 101.241 90.2377 100.788 90.2377C100.364 90.2377 99.9852 90.341 99.6504 90.5478C99.3255 90.7546 99.0694 91.0402 98.8823 91.4045C98.6953 91.7689 98.6017 92.1874 98.6017 92.6601C98.6017 93.1327 98.6953 93.5512 98.8823 93.9156C99.0694 94.2799 99.3255 94.5655 99.6504 94.7723C99.9852 94.9791 100.364 95.0825 100.788 95.0825C101.251 95.0825 101.654 94.9594 101.999 94.7132C102.344 94.467 102.59 94.1372 102.738 93.7236L104.436 94.4917C104.279 94.9446 104.023 95.3533 103.668 95.7176C103.314 96.0721 102.89 96.3528 102.398 96.5596C101.905 96.7565 101.369 96.855 100.788 96.855ZM105.904 96.6777V85.4962H107.839V92.8225L107.101 92.601L110.882 88.6424H113.29L110.321 91.8772L113.349 96.6777H111.133L108.504 92.5124L109.656 92.276L107.234 94.8757L107.839 93.694V96.6777H105.904ZM73.6884 114.678L70.7342 103.673H72.8908L75.2098 113.053H74.6485L77.0709 103.673H79.1536L81.5612 113.053H81L83.319 103.673H85.4755L82.5213 114.678H80.2171L77.7799 105.549H78.4298L75.9926 114.678H73.6884ZM86.5321 114.678V106.642H88.4671V114.678H86.5321ZM86.5321 105.741V103.673H88.4671V105.741H86.5321ZM93.9168 114.766C93.0109 114.766 92.3068 114.52 91.8046 114.028C91.3122 113.526 91.066 112.822 91.066 111.916V108.371H89.6776V106.642H89.8253C90.2192 106.642 90.5244 106.539 90.7411 106.332C90.9577 106.125 91.066 105.825 91.066 105.431V104.811H93.001V106.642H94.8474V108.371H93.001V111.812C93.001 112.078 93.0453 112.305 93.134 112.492C93.2324 112.679 93.3801 112.822 93.5771 112.92C93.7839 113.018 94.0448 113.068 94.3599 113.068C94.4289 113.068 94.5076 113.063 94.5963 113.053C94.6947 113.043 94.7883 113.033 94.8769 113.023V114.678C94.7391 114.697 94.5815 114.717 94.4043 114.737C94.227 114.757 94.0645 114.766 93.9168 114.766ZM96.3553 114.678V103.496H98.2902V108.223L98.0244 107.942C98.2115 107.46 98.5167 107.095 98.9402 106.849C99.3734 106.593 99.8756 106.465 100.447 106.465C101.038 106.465 101.56 106.593 102.012 106.849C102.475 107.105 102.835 107.465 103.091 107.927C103.347 108.38 103.475 108.907 103.475 109.508V114.678H101.54V109.966C101.54 109.611 101.471 109.306 101.333 109.05C101.195 108.794 101.003 108.597 100.757 108.459C100.521 108.312 100.24 108.238 99.915 108.238C99.5999 108.238 99.3193 108.312 99.0731 108.459C98.8269 108.597 98.6349 108.794 98.497 109.05C98.3592 109.306 98.2902 109.611 98.2902 109.966V114.678H96.3553ZM108.848 114.855C108.07 114.855 107.376 114.673 106.765 114.308C106.155 113.934 105.672 113.427 105.318 112.787C104.963 112.147 104.786 111.438 104.786 110.66C104.786 109.872 104.963 109.163 105.318 108.533C105.672 107.903 106.155 107.401 106.765 107.026C107.386 106.652 108.075 106.465 108.833 106.465C109.444 106.465 109.985 106.588 110.458 106.834C110.941 107.071 111.32 107.406 111.595 107.839L111.3 108.238V103.496H113.235V114.678H111.403V113.127L111.61 113.511C111.334 113.944 110.95 114.279 110.458 114.515C109.966 114.742 109.429 114.855 108.848 114.855ZM109.055 113.082C109.498 113.082 109.887 112.979 110.222 112.772C110.557 112.566 110.817 112.28 111.005 111.916C111.202 111.551 111.3 111.133 111.3 110.66C111.3 110.197 111.202 109.784 111.005 109.419C110.817 109.045 110.557 108.755 110.222 108.548C109.887 108.341 109.498 108.238 109.055 108.238C108.622 108.238 108.233 108.346 107.888 108.563C107.543 108.769 107.272 109.055 107.076 109.419C106.888 109.774 106.795 110.187 106.795 110.66C106.795 111.133 106.888 111.551 107.076 111.916C107.272 112.28 107.543 112.566 107.888 112.772C108.233 112.979 108.622 113.082 109.055 113.082ZM115.035 114.678V106.642H116.852V108.43L116.704 108.164C116.891 107.563 117.182 107.145 117.576 106.908C117.979 106.672 118.462 106.554 119.023 106.554H119.496V108.267H118.802C118.25 108.267 117.807 108.44 117.472 108.784C117.138 109.119 116.97 109.592 116.97 110.202V114.678H115.035ZM122.997 114.855C122.436 114.855 121.948 114.761 121.535 114.574C121.121 114.387 120.801 114.121 120.575 113.777C120.348 113.422 120.235 113.014 120.235 112.551C120.235 112.108 120.333 111.714 120.53 111.369C120.727 111.015 121.032 110.719 121.446 110.483C121.86 110.246 122.382 110.079 123.012 109.981L125.641 109.552V111.029L123.381 111.413C122.997 111.482 122.711 111.605 122.524 111.783C122.337 111.96 122.244 112.191 122.244 112.477C122.244 112.753 122.347 112.974 122.554 113.142C122.771 113.299 123.036 113.378 123.351 113.378C123.755 113.378 124.11 113.294 124.415 113.127C124.73 112.95 124.971 112.708 125.139 112.403C125.316 112.098 125.405 111.763 125.405 111.399V109.331C125.405 108.986 125.267 108.7 124.991 108.474C124.725 108.238 124.371 108.119 123.928 108.119C123.514 108.119 123.145 108.233 122.82 108.459C122.505 108.676 122.273 108.966 122.126 109.331L120.545 108.563C120.703 108.139 120.949 107.775 121.284 107.47C121.628 107.154 122.032 106.908 122.495 106.731C122.958 106.554 123.46 106.465 124.001 106.465C124.661 106.465 125.242 106.588 125.744 106.834C126.247 107.071 126.636 107.406 126.911 107.839C127.197 108.262 127.34 108.76 127.34 109.331V114.678H125.508V113.304L125.922 113.275C125.715 113.619 125.469 113.91 125.183 114.146C124.898 114.372 124.573 114.55 124.208 114.678C123.844 114.796 123.44 114.855 122.997 114.855ZM131.152 114.678L128.39 106.642H130.428L132.451 112.743L131.742 112.728L133.899 106.642H135.612L137.754 112.728L137.045 112.743L139.069 106.642H141.107L138.345 114.678H136.617L134.431 108.312H135.081L132.865 114.678H131.152ZM144.317 114.855C143.755 114.855 143.268 114.761 142.854 114.574C142.441 114.387 142.121 114.121 141.894 113.777C141.668 113.422 141.554 113.014 141.554 112.551C141.554 112.108 141.653 111.714 141.85 111.369C142.047 111.015 142.352 110.719 142.766 110.483C143.179 110.246 143.701 110.079 144.331 109.981L146.961 109.552V111.029L144.701 111.413C144.317 111.482 144.031 111.605 143.844 111.783C143.657 111.96 143.563 112.191 143.563 112.477C143.563 112.753 143.667 112.974 143.873 113.142C144.09 113.299 144.356 113.378 144.671 113.378C145.075 113.378 145.429 113.294 145.735 113.127C146.05 112.95 146.291 112.708 146.458 112.403C146.636 112.098 146.724 111.763 146.724 111.399V109.331C146.724 108.986 146.586 108.7 146.311 108.474C146.045 108.238 145.69 108.119 145.247 108.119C144.834 108.119 144.464 108.233 144.139 108.459C143.824 108.676 143.593 108.966 143.445 109.331L141.865 108.563C142.022 108.139 142.268 107.775 142.603 107.47C142.948 107.154 143.352 106.908 143.814 106.731C144.277 106.554 144.779 106.465 145.321 106.465C145.981 106.465 146.562 106.588 147.064 106.834C147.566 107.071 147.955 107.406 148.231 107.839C148.516 108.262 148.659 108.76 148.659 109.331V114.678H146.828V113.304L147.241 113.275C147.034 113.619 146.788 113.91 146.503 114.146C146.217 114.372 145.892 114.55 145.528 114.678C145.163 114.796 144.76 114.855 144.317 114.855ZM150.448 114.678V103.496H152.383V114.678H150.448Z" fill="white"/>
<g filter="url(#filter1_b_136_2741)">
<rect x="210.857" width="71.8305" height="71.8305" rx="35.9152" fill="white" fill-opacity="0.09"/>
</g>
<path fill-rule="evenodd" clip-rule="evenodd" d="M265.798 31.8135C264.991 30.0339 263.874 28.4869 262.442 27.1786C261.01 25.8673 259.332 24.8461 257.408 24.1058C255.486 23.3686 253.407 23 251.171 23C248.936 23 246.853 23.3626 244.932 24.0877C243.007 24.8129 241.329 25.8371 239.897 27.1605C238.466 28.4839 237.348 30.0339 236.541 31.8165C235.738 33.5992 235.336 35.545 235.336 37.654C235.336 39.7629 235.738 41.7117 236.541 43.4914C237.345 45.271 238.469 46.824 239.917 48.1474C241.362 49.4708 243.04 50.5011 244.951 51.2383C246.859 51.9755 248.933 52.3442 251.171 52.3442C251.797 52.3442 252.406 52.3079 253.005 52.2505L250.125 47.8724C248.994 47.7818 247.928 47.5431 246.934 47.1533C245.638 46.6457 244.514 45.9266 243.558 44.996C242.603 44.0685 241.861 42.9807 241.326 41.7329C240.795 40.485 240.529 39.1254 240.529 37.6509C240.529 36.2006 240.795 34.8531 241.326 33.6052C241.857 32.3604 242.603 31.2727 243.558 30.3421C244.511 29.4145 245.638 28.6954 246.934 28.1848C248.23 27.6772 249.639 27.4204 251.168 27.4204C252.694 27.4204 254.106 27.6742 255.402 28.1848C256.698 28.6954 257.822 29.4115 258.778 30.3421C259.734 31.2697 260.475 32.3574 261.007 33.6052C261.538 34.8531 261.807 36.2006 261.807 37.6509C261.807 39.1254 261.541 40.4881 261.007 41.7329C260.475 42.9807 259.734 44.0654 258.778 44.996C258.462 45.3025 258.128 45.5861 257.775 45.8471L254.239 40.5152H248.758L258.493 55.3202H264.058L260.351 49.7296C261.086 49.2599 261.776 48.7324 262.419 48.1444C263.864 46.821 264.988 45.271 265.795 43.4883C266.598 41.7087 267 39.7629 267 37.6509C267 35.5389 266.602 33.5962 265.798 31.8135ZM262.74 23.7946V25.683H263.236V23.7946H263.851V23.3928H262.115V23.7946H262.74ZM264.243 25.683V23.3928H264.719L265.526 24.3971L266.313 23.3928H266.789V25.683H266.294V24.1851L265.549 25.0878H265.487L264.739 24.1523V25.683H264.243ZM231.818 27.4264H227.363L231.818 32.6263V51.8849H226.622V23.4562H231.818V27.4264Z" fill="white"/>
<g filter="url(#filter2_b_136_2741)">
<rect x="172.625" y="156.405" width="152.632" height="52.5185" rx="26.2593" fill="white" fill-opacity="0.07"/>
</g>
<g style="mix-blend-mode:screen" clip-path="url(#clip0_136_2741)">
<g style="mix-blend-mode:overlay">
<path fill-rule="evenodd" clip-rule="evenodd" d="M209.765 173.873V170.498L208.772 171.492L207.439 170.16L210.692 166.906L213.946 170.16L212.613 171.492L211.65 170.529V173.858L210.72 173.321L209.765 173.873ZM210.72 181.904L216.269 178.702L210.72 175.498L205.171 178.702L210.72 181.904ZM217.212 180.334L211.662 183.536V189.946L217.212 186.742V180.334ZM204.228 180.333L209.778 183.536V189.946L204.228 186.742V180.333ZM223.526 186.242L226.779 182.988L223.526 179.735L222.193 181.068L223.174 182.048H219.097V183.933H223.169L222.193 184.909L223.526 186.242ZM216.007 176.374L217.697 177.349L221.826 173.221C222.315 173.49 222.867 173.633 223.441 173.633H223.441C224.339 173.633 225.183 173.284 225.818 172.649C227.128 171.339 227.128 169.206 225.818 167.896H225.818C224.507 166.585 222.375 166.585 221.065 167.896C219.986 168.975 219.796 170.611 220.494 171.887L216.007 176.374ZM221.827 192.768C223.103 192.07 224.739 192.259 225.818 193.339C226.453 193.973 226.802 194.817 226.802 195.715C226.802 196.613 226.453 197.457 225.818 198.092C225.163 198.747 224.302 199.075 223.441 199.075C222.581 199.075 221.72 198.747 221.065 198.092C219.986 197.013 219.796 195.377 220.494 194.101L216.007 189.614L217.697 188.638L221.827 192.768ZM211.65 195.457V192.129L210.72 192.666L209.766 192.115V195.478L208.777 194.489L207.444 195.822L210.697 199.075L213.951 195.822L212.618 194.489L211.65 195.457ZM203.743 188.638L205.433 189.614L200.946 194.101C201.644 195.377 201.454 197.013 200.375 198.092C199.741 198.727 198.897 199.076 197.999 199.076C197.101 199.076 196.257 198.727 195.622 198.092C194.312 196.781 194.312 194.649 195.622 193.339C196.257 192.704 197.101 192.354 197.999 192.354C198.573 192.354 199.125 192.498 199.614 192.767L203.743 188.638ZM197.999 173.632C198.556 173.632 199.112 173.494 199.614 173.22L203.743 177.35L205.433 176.374L200.947 171.888C201.216 171.399 201.36 170.847 201.36 170.273C201.36 169.375 201.01 168.531 200.376 167.896C199.065 166.586 196.933 166.586 195.623 167.896C194.312 169.206 194.312 171.339 195.623 172.649C196.278 173.304 197.138 173.632 197.999 173.632ZM198.216 183.933L199.196 184.914L197.864 186.246L194.611 182.993L197.864 179.74L199.196 181.072L198.22 182.048H202.343V183.933H198.216Z" fill="white"/>
</g>
</g>
<path d="M240.978 179.611V168.607H242.987V177.839H247.699V179.611H240.978ZM252.764 179.788C251.977 179.788 251.258 179.606 250.608 179.242C249.968 178.877 249.456 178.38 249.072 177.75C248.698 177.12 248.51 176.401 248.51 175.593C248.51 174.786 248.698 174.067 249.072 173.437C249.456 172.807 249.968 172.309 250.608 171.945C251.248 171.581 251.967 171.399 252.764 171.399C253.552 171.399 254.266 171.581 254.906 171.945C255.546 172.309 256.053 172.807 256.428 173.437C256.812 174.057 257.004 174.776 257.004 175.593C257.004 176.401 256.812 177.12 256.428 177.75C256.044 178.38 255.532 178.877 254.891 179.242C254.251 179.606 253.542 179.788 252.764 179.788ZM252.764 178.016C253.198 178.016 253.577 177.912 253.902 177.706C254.237 177.499 254.498 177.213 254.685 176.849C254.882 176.475 254.98 176.056 254.98 175.593C254.98 175.121 254.882 174.707 254.685 174.353C254.498 173.988 254.237 173.703 253.902 173.496C253.577 173.279 253.198 173.171 252.764 173.171C252.321 173.171 251.932 173.279 251.598 173.496C251.263 173.703 250.997 173.988 250.8 174.353C250.613 174.707 250.519 175.121 250.519 175.593C250.519 176.056 250.613 176.475 250.8 176.849C250.997 177.213 251.263 177.499 251.598 177.706C251.932 177.912 252.321 178.016 252.764 178.016ZM260.35 179.611L257.588 171.576H259.627L261.65 177.676L260.941 177.661L263.098 171.576H264.811L266.953 177.661L266.244 177.676L268.268 171.576H270.306L267.544 179.611H265.816L263.63 173.245H264.279L262.064 179.611H260.35ZM244.907 197.788C244.208 197.788 243.558 197.66 242.957 197.404C242.366 197.148 241.854 196.794 241.421 196.341C240.997 195.878 240.687 195.341 240.49 194.731L242.159 194.007C242.425 194.637 242.809 195.135 243.312 195.499C243.814 195.853 244.38 196.031 245.01 196.031C245.365 196.031 245.67 195.976 245.926 195.868C246.192 195.75 246.394 195.592 246.532 195.395C246.679 195.199 246.753 194.962 246.753 194.686C246.753 194.362 246.655 194.096 246.458 193.889C246.271 193.672 245.985 193.505 245.601 193.387L243.489 192.707C242.632 192.441 241.987 192.042 241.554 191.511C241.121 190.979 240.904 190.354 240.904 189.635C240.904 189.005 241.057 188.448 241.362 187.966C241.677 187.483 242.11 187.109 242.662 186.843C243.223 186.567 243.863 186.43 244.582 186.43C245.242 186.43 245.847 186.548 246.399 186.784C246.95 187.011 247.423 187.331 247.817 187.744C248.22 188.148 248.521 188.625 248.718 189.177L247.063 189.915C246.847 189.364 246.522 188.941 246.088 188.645C245.655 188.34 245.153 188.187 244.582 188.187C244.247 188.187 243.952 188.246 243.696 188.365C243.44 188.473 243.238 188.63 243.09 188.837C242.952 189.034 242.883 189.27 242.883 189.546C242.883 189.851 242.982 190.122 243.179 190.359C243.376 190.585 243.676 190.762 244.08 190.89L246.103 191.526C246.98 191.811 247.634 192.205 248.068 192.707C248.511 193.209 248.732 193.83 248.732 194.568C248.732 195.199 248.57 195.755 248.245 196.237C247.92 196.72 247.472 197.099 246.901 197.375C246.33 197.65 245.665 197.788 244.907 197.788ZM250.379 200.565V189.576H252.196V191.171L252.018 190.772C252.294 190.339 252.668 190.004 253.141 189.768C253.614 189.522 254.16 189.399 254.781 189.399C255.539 189.399 256.223 189.586 256.834 189.96C257.444 190.334 257.927 190.836 258.281 191.466C258.646 192.097 258.828 192.806 258.828 193.593C258.828 194.371 258.65 195.08 258.296 195.72C257.941 196.36 257.459 196.868 256.848 197.242C256.238 197.606 255.544 197.788 254.766 197.788C254.185 197.788 253.648 197.675 253.156 197.449C252.673 197.212 252.289 196.877 252.004 196.444L252.314 196.06V200.565H250.379ZM254.544 196.016C254.987 196.016 255.381 195.912 255.726 195.706C256.071 195.499 256.336 195.213 256.523 194.849C256.72 194.485 256.819 194.066 256.819 193.593C256.819 193.121 256.72 192.707 256.523 192.353C256.336 191.988 256.071 191.703 255.726 191.496C255.381 191.279 254.987 191.171 254.544 191.171C254.121 191.171 253.737 191.274 253.392 191.481C253.057 191.688 252.791 191.978 252.594 192.353C252.407 192.717 252.314 193.131 252.314 193.593C252.314 194.066 252.407 194.485 252.594 194.849C252.791 195.213 253.057 195.499 253.392 195.706C253.737 195.912 254.121 196.016 254.544 196.016ZM260.303 197.611V189.576H262.12V191.363L261.972 191.097C262.159 190.496 262.45 190.078 262.844 189.842C263.247 189.605 263.73 189.487 264.291 189.487H264.764V191.201H264.07C263.518 191.201 263.075 191.373 262.74 191.718C262.405 192.052 262.238 192.525 262.238 193.136V197.611H260.303ZM269.638 197.788C268.811 197.788 268.088 197.601 267.467 197.227C266.847 196.853 266.364 196.346 266.02 195.706C265.675 195.066 265.503 194.357 265.503 193.579C265.503 192.771 265.675 192.057 266.02 191.437C266.374 190.807 266.852 190.309 267.452 189.945C268.063 189.581 268.742 189.399 269.491 189.399C270.121 189.399 270.672 189.502 271.145 189.709C271.628 189.915 272.036 190.201 272.371 190.565C272.706 190.93 272.962 191.348 273.139 191.821C273.316 192.284 273.405 192.786 273.405 193.328C273.405 193.465 273.395 193.608 273.376 193.756C273.366 193.904 273.341 194.032 273.302 194.14H267.098V192.663H272.209L271.293 193.357C271.381 192.904 271.357 192.5 271.219 192.146C271.091 191.791 270.874 191.511 270.569 191.304C270.274 191.097 269.914 190.994 269.491 190.994C269.087 190.994 268.728 191.097 268.413 191.304C268.097 191.501 267.856 191.796 267.689 192.19C267.531 192.574 267.472 193.042 267.511 193.593C267.472 194.086 267.536 194.524 267.704 194.908C267.881 195.282 268.137 195.573 268.472 195.78C268.816 195.986 269.21 196.09 269.653 196.09C270.096 196.09 270.471 195.996 270.776 195.809C271.091 195.622 271.337 195.371 271.514 195.056L273.08 195.824C272.923 196.208 272.676 196.548 272.342 196.843C272.007 197.138 271.608 197.37 271.145 197.537C270.692 197.705 270.19 197.788 269.638 197.788ZM277.28 197.788C276.719 197.788 276.231 197.695 275.818 197.508C275.404 197.321 275.084 197.055 274.858 196.71C274.631 196.356 274.518 195.947 274.518 195.484C274.518 195.041 274.617 194.647 274.813 194.302C275.01 193.948 275.316 193.653 275.729 193.416C276.143 193.18 276.665 193.012 277.295 192.914L279.924 192.486V193.963L277.664 194.347C277.28 194.416 276.995 194.539 276.808 194.716C276.62 194.893 276.527 195.125 276.527 195.41C276.527 195.686 276.63 195.908 276.837 196.075C277.054 196.232 277.32 196.311 277.635 196.311C278.038 196.311 278.393 196.228 278.698 196.06C279.013 195.883 279.255 195.642 279.422 195.336C279.599 195.031 279.688 194.696 279.688 194.332V192.264C279.688 191.919 279.55 191.634 279.274 191.407C279.008 191.171 278.654 191.053 278.211 191.053C277.797 191.053 277.428 191.166 277.103 191.393C276.788 191.609 276.556 191.9 276.409 192.264L274.828 191.496C274.986 191.073 275.232 190.708 275.567 190.403C275.911 190.088 276.315 189.842 276.778 189.664C277.241 189.487 277.743 189.399 278.285 189.399C278.944 189.399 279.525 189.522 280.028 189.768C280.53 190.004 280.919 190.339 281.194 190.772C281.48 191.196 281.623 191.693 281.623 192.264V197.611H279.791V196.237L280.205 196.208C279.998 196.553 279.752 196.843 279.466 197.079C279.181 197.306 278.856 197.483 278.491 197.611C278.127 197.729 277.723 197.788 277.28 197.788ZM287.148 197.788C286.37 197.788 285.676 197.606 285.066 197.242C284.455 196.868 283.973 196.36 283.618 195.72C283.264 195.08 283.086 194.371 283.086 193.593C283.086 192.806 283.264 192.097 283.618 191.466C283.973 190.836 284.455 190.334 285.066 189.96C285.686 189.586 286.375 189.399 287.134 189.399C287.744 189.399 288.286 189.522 288.758 189.768C289.241 190.004 289.62 190.339 289.896 190.772L289.6 191.171V186.43H291.535V197.611H289.704V196.06L289.91 196.444C289.635 196.877 289.251 197.212 288.758 197.449C288.266 197.675 287.729 197.788 287.148 197.788ZM287.355 196.016C287.798 196.016 288.187 195.912 288.522 195.706C288.857 195.499 289.118 195.213 289.305 194.849C289.502 194.485 289.6 194.066 289.6 193.593C289.6 193.131 289.502 192.717 289.305 192.353C289.118 191.978 288.857 191.688 288.522 191.481C288.187 191.274 287.798 191.171 287.355 191.171C286.922 191.171 286.533 191.279 286.188 191.496C285.844 191.703 285.573 191.988 285.376 192.353C285.189 192.707 285.095 193.121 285.095 193.593C285.095 194.066 285.189 194.485 285.376 194.849C285.573 195.213 285.844 195.499 286.188 195.706C286.533 195.912 286.922 196.016 287.355 196.016ZM296.393 197.788C295.536 197.788 294.788 197.586 294.148 197.183C293.518 196.769 293.084 196.213 292.848 195.514L294.296 194.819C294.502 195.272 294.788 195.627 295.152 195.883C295.526 196.139 295.94 196.267 296.393 196.267C296.747 196.267 297.028 196.188 297.235 196.031C297.442 195.873 297.545 195.666 297.545 195.41C297.545 195.253 297.501 195.125 297.412 195.026C297.333 194.918 297.22 194.829 297.072 194.76C296.935 194.682 296.782 194.618 296.615 194.568L295.3 194.199C294.62 194.002 294.103 193.702 293.749 193.298C293.404 192.894 293.232 192.417 293.232 191.865C293.232 191.373 293.355 190.945 293.601 190.58C293.857 190.206 294.207 189.915 294.65 189.709C295.103 189.502 295.62 189.399 296.201 189.399C296.959 189.399 297.629 189.581 298.21 189.945C298.791 190.309 299.204 190.821 299.451 191.481L297.973 192.175C297.836 191.811 297.604 191.521 297.279 191.304C296.954 191.087 296.59 190.979 296.186 190.979C295.861 190.979 295.605 191.053 295.418 191.201C295.231 191.348 295.137 191.54 295.137 191.777C295.137 191.924 295.177 192.052 295.256 192.161C295.334 192.269 295.443 192.358 295.581 192.427C295.728 192.495 295.896 192.559 296.083 192.619L297.368 193.003C298.028 193.2 298.535 193.495 298.889 193.889C299.254 194.283 299.436 194.765 299.436 195.336C299.436 195.819 299.308 196.247 299.052 196.621C298.796 196.986 298.441 197.271 297.988 197.478C297.535 197.685 297.003 197.788 296.393 197.788Z" fill="white"/>
<defs>
<filter id="filter0_b_136_2741" x="-29.7401" y="42.0904" width="243.295" height="111.999" filterUnits="userSpaceOnUse" color-interpolation-filters="sRGB">
<feFlood flood-opacity="0" result="BackgroundImageFix"/>
<feGaussianBlur in="BackgroundImageFix" stdDeviation="14.8701"/>
<feComposite in2="SourceAlpha" operator="in" result="effect1_backgroundBlur_136_2741"/>
<feBlend mode="normal" in="SourceGraphic" in2="effect1_backgroundBlur_136_2741" result="shape"/>
</filter>
<filter id="filter1_b_136_2741" x="181.117" y="-29.7401" width="131.311" height="131.311" filterUnits="userSpaceOnUse" color-interpolation-filters="sRGB">
<feFlood flood-opacity="0" result="BackgroundImageFix"/>
<feGaussianBlur in="BackgroundImageFix" stdDeviation="14.8701"/>
<feComposite in2="SourceAlpha" operator="in" result="effect1_backgroundBlur_136_2741"/>
<feBlend mode="normal" in="SourceGraphic" in2="effect1_backgroundBlur_136_2741" result="shape"/>
</filter>
<filter id="filter2_b_136_2741" x="142.885" y="126.665" width="212.112" height="111.999" filterUnits="userSpaceOnUse" color-interpolation-filters="sRGB">
<feFlood flood-opacity="0" result="BackgroundImageFix"/>
<feGaussianBlur in="BackgroundImageFix" stdDeviation="14.8701"/>
<feComposite in2="SourceAlpha" operator="in" result="effect1_backgroundBlur_136_2741"/>
<feBlend mode="normal" in="SourceGraphic" in2="effect1_backgroundBlur_136_2741" result="shape"/>
</filter>
<clipPath id="clip0_136_2741">
<rect width="32.8241" height="32.8241" fill="white" transform="translate(193.961 166.252)"/>
</clipPath>
</defs>
</svg>
