<svg width="535" height="320" viewBox="0 0 535 320" fill="none" xmlns="http://www.w3.org/2000/svg">
<g filter="url(#filter0_b_434_265)">
<rect y="124" width="183.815" height="52.5185" rx="26.2593" fill="white" fill-opacity="0.09"/>
</g>
<g style="mix-blend-mode:screen">
<g style="mix-blend-mode:overlay">
<path d="M58.2631 141.233V141.554C57.0522 140.55 55.5281 140 53.955 140.002H28.106C26.5328 140 25.0088 140.55 23.7979 141.554V141.233C23.7979 140.253 24.1869 139.314 24.8794 138.621C25.5719 137.929 26.5112 137.54 27.4906 137.54H54.5704C55.5498 137.54 56.489 137.929 57.1816 138.621C57.8741 139.314 58.2631 140.253 58.2631 141.233ZM47.185 147.387C47.185 148.436 46.9168 149.468 46.406 150.384C45.8951 151.3 45.1585 152.071 44.2661 152.622C43.3737 153.174 42.3551 153.488 41.3071 153.535C40.2591 153.582 39.2164 153.361 38.2781 152.892C37.3398 152.423 36.537 151.721 35.9459 150.855C35.3548 149.988 34.9951 148.985 34.9008 147.94C34.8066 146.895 34.9811 145.843 35.4076 144.885C35.8341 143.926 36.4985 143.093 37.3378 142.463H28.7215V165.851C28.7244 166.829 29.1144 167.767 29.8063 168.458C30.4981 169.15 31.4357 169.54 32.4142 169.543H49.6468C50.6253 169.54 51.5628 169.15 52.2547 168.458C52.9466 167.767 53.3366 166.829 53.3395 165.851V142.463H44.7232C45.4869 143.037 46.1067 143.781 46.534 144.635C46.9612 145.49 47.184 146.432 47.185 147.387ZM41.0305 151.08C41.7608 151.08 42.4748 150.863 43.082 150.457C43.6893 150.052 44.1626 149.475 44.4421 148.8C44.7216 148.125 44.7947 147.383 44.6522 146.667C44.5098 145.95 44.1581 145.292 43.6416 144.776C43.1252 144.259 42.4672 143.908 41.7509 143.765C41.0346 143.623 40.2921 143.696 39.6173 143.975C38.9426 144.255 38.3659 144.728 37.9601 145.335C37.5544 145.943 37.3378 146.657 37.3378 147.387C37.3407 148.365 37.7307 149.303 38.4226 149.995C39.1145 150.687 40.052 151.077 41.0305 151.08ZM55.8013 142.895V150.65C56.538 150.305 57.1611 149.757 57.5976 149.07C58.034 148.383 58.2658 147.586 58.2658 146.773C58.2658 145.959 58.034 145.162 57.5976 144.476C57.1611 143.789 56.538 143.241 55.8013 142.895ZM23.7979 146.772C23.8009 147.584 24.0337 148.379 24.4693 149.065C24.9049 149.751 25.5256 150.299 26.2597 150.648V142.893C25.5252 143.241 24.9043 143.79 24.4687 144.477C24.033 145.163 23.8005 145.959 23.7979 146.772Z" fill="white"/>
</g>
</g>
<path d="M77.0557 149.024C76.2482 149.024 75.4949 148.882 74.7957 148.596C74.0966 148.31 73.4861 147.912 72.9642 147.4C72.4423 146.888 72.0336 146.287 71.7382 145.598C71.4526 144.898 71.3098 144.145 71.3098 143.338C71.3098 142.52 71.4526 141.767 71.7382 141.078C72.0238 140.388 72.4275 139.788 72.9494 139.276C73.4713 138.764 74.0818 138.37 74.781 138.094C75.4801 137.808 76.2384 137.666 77.0557 137.666C77.873 137.666 78.6312 137.808 79.3304 138.094C80.0295 138.38 80.6401 138.778 81.162 139.29C81.6839 139.793 82.0876 140.388 82.3732 141.078C82.6686 141.767 82.8163 142.52 82.8163 143.338C82.8163 144.145 82.6686 144.898 82.3732 145.598C82.0778 146.287 81.6691 146.888 81.1472 147.4C80.6253 147.912 80.0148 148.31 79.3156 148.596C78.6263 148.882 77.873 149.024 77.0557 149.024ZM77.0557 147.193C77.5973 147.193 78.0946 147.099 78.5475 146.912C79.0005 146.715 79.3944 146.444 79.7292 146.1C80.0739 145.755 80.3348 145.346 80.5121 144.874C80.6992 144.401 80.7927 143.889 80.7927 143.338C80.7927 142.786 80.6992 142.279 80.5121 141.816C80.3348 141.344 80.0739 140.935 79.7292 140.59C79.3944 140.236 79.0005 139.965 78.5475 139.778C78.0946 139.591 77.5973 139.497 77.0557 139.497C76.5239 139.497 76.0316 139.591 75.5786 139.778C75.1256 139.965 74.7268 140.236 74.3822 140.59C74.0474 140.935 73.7864 141.344 73.5993 141.816C73.4122 142.279 73.3187 142.786 73.3187 143.338C73.3187 143.889 73.4122 144.401 73.5993 144.874C73.7864 145.346 74.0474 145.755 74.3822 146.1C74.7268 146.444 75.1256 146.715 75.5786 146.912C76.0316 147.099 76.5239 147.193 77.0557 147.193ZM79.5963 150.177L76.1694 144.445H78.2669L81.738 150.177H79.5963ZM87.3056 149.024C86.6852 149.024 86.1436 148.887 85.6808 148.611C85.2278 148.335 84.8783 147.951 84.6321 147.459C84.3957 146.966 84.2776 146.39 84.2776 145.731V140.812H86.2126V145.568C86.2126 145.903 86.2766 146.198 86.4046 146.454C86.5424 146.7 86.7345 146.897 86.9806 147.045C87.2367 147.183 87.5222 147.252 87.8374 147.252C88.1525 147.252 88.4331 147.183 88.6793 147.045C88.9255 146.897 89.1175 146.696 89.2553 146.44C89.3932 146.183 89.4621 145.878 89.4621 145.524V140.812H91.3971V148.847H89.5655V147.267L89.728 147.547C89.5409 148.04 89.2307 148.409 88.7975 148.655C88.374 148.901 87.8767 149.024 87.3056 149.024ZM93.1958 148.847V140.812H95.1308V148.847H93.1958ZM93.1958 139.911V137.843H95.1308V139.911H93.1958ZM100.787 149.024C99.9897 149.024 99.2709 148.842 98.6308 148.478C98.0006 148.104 97.5033 147.601 97.1389 146.971C96.7746 146.331 96.5924 145.612 96.5924 144.815C96.5924 144.017 96.7746 143.303 97.1389 142.673C97.5033 142.043 98.0006 141.545 98.6308 141.181C99.2709 140.817 99.9897 140.635 100.787 140.635C101.358 140.635 101.89 140.738 102.383 140.945C102.875 141.142 103.298 141.417 103.653 141.772C104.017 142.117 104.278 142.53 104.436 143.013L102.737 143.751C102.589 143.347 102.338 143.023 101.984 142.776C101.639 142.53 101.24 142.407 100.787 142.407C100.364 142.407 99.9848 142.51 99.65 142.717C99.325 142.924 99.069 143.21 98.8819 143.574C98.6948 143.938 98.6012 144.357 98.6012 144.83C98.6012 145.302 98.6948 145.721 98.8819 146.085C99.069 146.449 99.325 146.735 99.65 146.942C99.9848 147.149 100.364 147.252 100.787 147.252C101.25 147.252 101.654 147.129 101.999 146.883C102.343 146.636 102.589 146.307 102.737 145.893L104.436 146.661C104.278 147.114 104.022 147.523 103.668 147.887C103.313 148.242 102.89 148.522 102.397 148.729C101.905 148.926 101.368 149.024 100.787 149.024ZM105.904 148.847V137.666H107.839V144.992L107.1 144.77L110.882 140.812H113.289L110.32 144.047L113.348 148.847H111.133L108.504 144.682L109.656 144.445L107.233 147.045L107.839 145.863V148.847H105.904ZM73.6879 166.847L70.7338 155.843H72.8903L75.2093 165.222H74.648L77.0705 155.843H79.1531L81.5608 165.222H80.9995L83.3185 155.843H85.4751L82.5209 166.847H80.2166L77.7795 157.719H78.4294L75.9922 166.847H73.6879ZM86.5316 166.847V158.812H88.4666V166.847H86.5316ZM86.5316 157.911V155.843H88.4666V157.911H86.5316ZM93.9164 166.936C93.0104 166.936 92.3063 166.69 91.8041 166.197C91.3118 165.695 91.0656 164.991 91.0656 164.085V160.54H89.6771V158.812H89.8248C90.2187 158.812 90.524 158.708 90.7406 158.502C90.9573 158.295 91.0656 157.995 91.0656 157.601V156.98H93.0006V158.812H94.8469V160.54H93.0006V163.982C93.0006 164.248 93.0449 164.474 93.1335 164.661C93.232 164.848 93.3797 164.991 93.5766 165.089C93.7834 165.188 94.0444 165.237 94.3595 165.237C94.4284 165.237 94.5072 165.232 94.5958 165.222C94.6943 165.213 94.7878 165.203 94.8765 165.193V166.847C94.7386 166.867 94.581 166.887 94.4038 166.906C94.2265 166.926 94.0641 166.936 93.9164 166.936ZM96.3548 166.847V155.666H98.2898V160.392L98.0239 160.112C98.211 159.629 98.5163 159.265 98.9397 159.019C99.373 158.763 99.8752 158.635 100.446 158.635C101.037 158.635 101.559 158.763 102.012 159.019C102.475 159.275 102.834 159.634 103.09 160.097C103.346 160.55 103.474 161.077 103.474 161.677V166.847H101.539V162.135C101.539 161.781 101.47 161.476 101.333 161.219C101.195 160.963 101.003 160.767 100.757 160.629C100.52 160.481 100.24 160.407 99.9146 160.407C99.5995 160.407 99.3188 160.481 99.0726 160.629C98.8265 160.767 98.6344 160.963 98.4966 161.219C98.3587 161.476 98.2898 161.781 98.2898 162.135V166.847H96.3548ZM108.848 167.024C108.07 167.024 107.375 166.842 106.765 166.478C106.154 166.104 105.672 165.597 105.317 164.957C104.963 164.316 104.786 163.607 104.786 162.83C104.786 162.042 104.963 161.333 105.317 160.703C105.672 160.072 106.154 159.57 106.765 159.196C107.385 158.822 108.075 158.635 108.833 158.635C109.443 158.635 109.985 158.758 110.458 159.004C110.94 159.24 111.319 159.575 111.595 160.008L111.3 160.407V155.666H113.235V166.847H111.403V165.296L111.61 165.68C111.334 166.114 110.95 166.448 110.458 166.685C109.965 166.911 109.429 167.024 108.848 167.024ZM109.054 165.252C109.498 165.252 109.886 165.149 110.221 164.942C110.556 164.735 110.817 164.449 111.004 164.085C111.201 163.721 111.3 163.302 111.3 162.83C111.3 162.367 111.201 161.953 111.004 161.589C110.817 161.215 110.556 160.924 110.221 160.717C109.886 160.51 109.498 160.407 109.054 160.407C108.621 160.407 108.232 160.515 107.887 160.732C107.543 160.939 107.272 161.224 107.075 161.589C106.888 161.943 106.794 162.357 106.794 162.83C106.794 163.302 106.888 163.721 107.075 164.085C107.272 164.449 107.543 164.735 107.887 164.942C108.232 165.149 108.621 165.252 109.054 165.252ZM115.035 166.847V158.812H116.852V160.599L116.704 160.333C116.891 159.733 117.181 159.314 117.575 159.078C117.979 158.841 118.462 158.723 119.023 158.723H119.496V160.437H118.801C118.25 160.437 117.807 160.609 117.472 160.954C117.137 161.288 116.97 161.761 116.97 162.372V166.847H115.035ZM122.997 167.024C122.435 167.024 121.948 166.931 121.534 166.744C121.121 166.557 120.801 166.291 120.574 165.946C120.348 165.592 120.234 165.183 120.234 164.72C120.234 164.277 120.333 163.883 120.53 163.539C120.727 163.184 121.032 162.889 121.446 162.652C121.859 162.416 122.381 162.249 123.011 162.15L125.641 161.722V163.199L123.381 163.583C122.997 163.652 122.711 163.775 122.524 163.952C122.337 164.129 122.243 164.361 122.243 164.646C122.243 164.922 122.347 165.144 122.553 165.311C122.77 165.469 123.036 165.547 123.351 165.547C123.755 165.547 124.109 165.464 124.415 165.296C124.73 165.119 124.971 164.878 125.138 164.572C125.316 164.267 125.404 163.932 125.404 163.568V161.5C125.404 161.155 125.266 160.87 124.991 160.643C124.725 160.407 124.37 160.289 123.927 160.289C123.514 160.289 123.144 160.402 122.819 160.629C122.504 160.845 122.273 161.136 122.125 161.5L120.545 160.732C120.702 160.309 120.948 159.944 121.283 159.639C121.628 159.324 122.032 159.078 122.494 158.9C122.957 158.723 123.459 158.635 124.001 158.635C124.661 158.635 125.242 158.758 125.744 159.004C126.246 159.24 126.635 159.575 126.911 160.008C127.196 160.432 127.339 160.929 127.339 161.5V166.847H125.508V165.473L125.921 165.444C125.714 165.789 125.468 166.079 125.183 166.315C124.897 166.542 124.572 166.719 124.208 166.847C123.843 166.965 123.44 167.024 122.997 167.024ZM131.151 166.847L128.389 158.812H130.427L132.451 164.912L131.742 164.897L133.899 158.812H135.612L137.754 164.897L137.045 164.912L139.068 158.812H141.107L138.345 166.847H136.616L134.43 160.481H135.08L132.865 166.847H131.151ZM144.316 167.024C143.755 167.024 143.267 166.931 142.854 166.744C142.44 166.557 142.12 166.291 141.894 165.946C141.667 165.592 141.554 165.183 141.554 164.72C141.554 164.277 141.652 163.883 141.849 163.539C142.046 163.184 142.352 162.889 142.765 162.652C143.179 162.416 143.701 162.249 144.331 162.15L146.96 161.722V163.199L144.7 163.583C144.316 163.652 144.031 163.775 143.843 163.952C143.656 164.129 143.563 164.361 143.563 164.646C143.563 164.922 143.666 165.144 143.873 165.311C144.09 165.469 144.356 165.547 144.671 165.547C145.074 165.547 145.429 165.464 145.734 165.296C146.049 165.119 146.291 164.878 146.458 164.572C146.635 164.267 146.724 163.932 146.724 163.568V161.5C146.724 161.155 146.586 160.87 146.31 160.643C146.044 160.407 145.69 160.289 145.247 160.289C144.833 160.289 144.464 160.402 144.139 160.629C143.824 160.845 143.592 161.136 143.445 161.5L141.864 160.732C142.022 160.309 142.268 159.944 142.603 159.639C142.947 159.324 143.351 159.078 143.814 158.9C144.277 158.723 144.779 158.635 145.321 158.635C145.98 158.635 146.561 158.758 147.064 159.004C147.566 159.24 147.955 159.575 148.23 160.008C148.516 160.432 148.659 160.929 148.659 161.5V166.847H146.827V165.473L147.241 165.444C147.034 165.789 146.788 166.079 146.502 166.315C146.217 166.542 145.892 166.719 145.527 166.847C145.163 166.965 144.759 167.024 144.316 167.024ZM150.447 166.847V155.666H152.382V166.847H150.447Z" fill="white"/>
<g filter="url(#filter1_b_434_265)">
<rect x="386" width="71.8305" height="71.8305" rx="35.9152" fill="white" fill-opacity="0.09"/>
</g>
<path fill-rule="evenodd" clip-rule="evenodd" d="M440.941 31.8135C440.135 30.0339 439.017 28.4869 437.585 27.1786C436.153 25.8673 434.475 24.8461 432.551 24.1058C430.63 23.3686 428.55 23 426.314 23C424.079 23 421.996 23.3626 420.075 24.0877C418.151 24.8129 416.472 25.8371 415.041 27.1605C413.609 28.4839 412.491 30.0339 411.684 31.8165C410.881 33.5992 410.479 35.545 410.479 37.654C410.479 39.7629 410.881 41.7117 411.684 43.4914C412.488 45.271 413.612 46.824 415.06 48.1474C416.505 49.4708 418.183 50.5011 420.094 51.2383C422.002 51.9755 424.076 52.3442 426.314 52.3442C426.94 52.3442 427.549 52.3079 428.148 52.2505L425.268 47.8724C424.137 47.7818 423.072 47.5431 422.077 47.1533C420.781 46.6457 419.657 45.9266 418.701 44.996C417.746 44.0685 417.004 42.9807 416.469 41.7329C415.938 40.485 415.672 39.1254 415.672 37.6509C415.672 36.2006 415.938 34.8531 416.469 33.6052C417.001 32.3604 417.746 31.2727 418.701 30.3421C419.654 29.4145 420.781 28.6954 422.077 28.1848C423.373 27.6772 424.782 27.4204 426.311 27.4204C427.837 27.4204 429.249 27.6742 430.545 28.1848C431.841 28.6954 432.965 29.4115 433.921 30.3421C434.877 31.2697 435.619 32.3574 436.15 33.6052C436.681 34.8531 436.95 36.2006 436.95 37.6509C436.95 39.1254 436.684 40.4881 436.15 41.7329C435.619 42.9807 434.877 44.0654 433.921 44.996C433.605 45.3025 433.271 45.5861 432.919 45.8471L429.382 40.5152H423.901L433.636 55.3202H439.202L435.494 49.7296C436.229 49.2599 436.919 48.7324 437.562 48.1444C439.007 46.821 440.131 45.271 440.938 43.4883C441.741 41.7087 442.143 39.7629 442.143 37.6509C442.143 35.5389 441.745 33.5962 440.941 31.8135ZM437.883 23.7946V25.683H438.379V23.7946H438.994V23.3928H437.258V23.7946H437.883ZM439.386 25.683V23.3928H439.862L440.669 24.3971L441.456 23.3928H441.932V25.683H441.437V24.1851L440.692 25.0878H440.63L439.882 24.1523V25.683H439.386ZM406.961 27.4264H402.507L406.961 32.6263V51.8849H401.765V23.4562H406.961V27.4264Z" fill="white"/>
<g filter="url(#filter2_b_434_265)">
<rect x="382" y="267" width="152.632" height="52.5185" rx="26.2593" fill="white" fill-opacity="0.07"/>
</g>
<g style="mix-blend-mode:screen" clip-path="url(#clip0_434_265)">
<g style="mix-blend-mode:overlay">
<path fill-rule="evenodd" clip-rule="evenodd" d="M419.14 284.468V281.093L418.147 282.087L416.814 280.754L420.067 277.501L423.321 280.754L421.988 282.087L421.025 281.124V284.453L420.095 283.916L419.14 284.468ZM420.095 292.499L425.644 289.297L420.095 286.093L414.546 289.297L420.095 292.499ZM426.587 290.929L421.037 294.131V300.541L426.587 297.337V290.929ZM413.603 290.928L419.153 294.131V300.541L413.603 297.337V290.928ZM432.901 296.837L436.154 293.583L432.901 290.33L431.568 291.663L432.549 292.643H428.471V294.528H432.544L431.568 295.504L432.901 296.837ZM425.382 286.969L427.072 287.944L431.201 283.816C431.69 284.085 432.242 284.228 432.816 284.228H432.816C433.714 284.228 434.558 283.879 435.193 283.244C436.503 281.934 436.503 279.801 435.193 278.491H435.193C433.882 277.18 431.75 277.18 430.44 278.491C429.36 279.57 429.171 281.206 429.869 282.482L425.382 286.969ZM431.202 303.363C432.477 302.665 434.114 302.854 435.193 303.934C435.827 304.568 436.177 305.412 436.177 306.31C436.177 307.208 435.827 308.052 435.193 308.687C434.537 309.342 433.677 309.669 432.816 309.669C431.956 309.669 431.095 309.342 430.44 308.687C429.36 307.608 429.171 305.972 429.869 304.696L425.382 300.209L427.072 299.233L431.202 303.363ZM421.025 306.052V302.724L420.095 303.261L419.14 302.71V306.073L418.152 305.084L416.819 306.417L420.072 309.67L423.325 306.417L421.993 305.084L421.025 306.052ZM413.118 299.233L414.808 300.209L410.321 304.696C411.019 305.972 410.829 307.608 409.75 308.687C409.115 309.322 408.271 309.671 407.374 309.671C406.476 309.671 405.632 309.322 404.997 308.687C403.687 307.376 403.687 305.244 404.997 303.934C405.632 303.299 406.476 302.949 407.374 302.949C407.948 302.949 408.5 303.093 408.989 303.362L413.118 299.233ZM407.374 284.227C407.931 284.227 408.487 284.089 408.988 283.815L413.118 287.944L414.808 286.969L410.322 282.483C410.591 281.994 410.735 281.442 410.735 280.868C410.735 279.97 410.385 279.126 409.75 278.491C408.44 277.181 406.308 277.181 404.997 278.491C403.687 279.801 403.687 281.934 404.997 283.244C405.653 283.899 406.513 284.227 407.374 284.227ZM407.59 294.528L408.571 295.509L407.239 296.841L403.985 293.588L407.239 290.335L408.571 291.667L407.595 292.643H411.718V294.528H407.59Z" fill="white"/>
</g>
</g>
<path d="M450.353 290.206V279.202H452.361V288.434H457.073V290.206H450.353ZM462.139 290.383C461.351 290.383 460.633 290.201 459.983 289.837C459.343 289.472 458.831 288.975 458.447 288.345C458.072 287.715 457.885 286.996 457.885 286.188C457.885 285.381 458.072 284.662 458.447 284.032C458.831 283.402 459.343 282.904 459.983 282.54C460.623 282.176 461.342 281.993 462.139 281.993C462.927 281.993 463.641 282.176 464.281 282.54C464.921 282.904 465.428 283.402 465.802 284.032C466.186 284.652 466.378 285.371 466.378 286.188C466.378 286.996 466.186 287.715 465.802 288.345C465.418 288.975 464.906 289.472 464.266 289.837C463.626 290.201 462.917 290.383 462.139 290.383ZM462.139 288.611C462.573 288.611 462.952 288.507 463.277 288.301C463.611 288.094 463.872 287.808 464.059 287.444C464.256 287.07 464.355 286.651 464.355 286.188C464.355 285.716 464.256 285.302 464.059 284.948C463.872 284.583 463.611 284.298 463.277 284.091C462.952 283.874 462.573 283.766 462.139 283.766C461.696 283.766 461.307 283.874 460.972 284.091C460.638 284.298 460.372 284.583 460.175 284.948C459.988 285.302 459.894 285.716 459.894 286.188C459.894 286.651 459.988 287.07 460.175 287.444C460.372 287.808 460.638 288.094 460.972 288.301C461.307 288.507 461.696 288.611 462.139 288.611ZM469.725 290.206L466.963 282.171H469.001L471.025 288.271L470.316 288.256L472.473 282.171H474.186L476.328 288.256L475.619 288.271L477.642 282.171H479.681L476.919 290.206H475.19L473.004 283.84H473.654L471.439 290.206H469.725ZM454.282 308.383C453.582 308.383 452.933 308.255 452.332 307.999C451.741 307.743 451.229 307.389 450.796 306.936C450.372 306.473 450.062 305.936 449.865 305.326L451.534 304.602C451.8 305.232 452.184 305.729 452.686 306.094C453.189 306.448 453.755 306.626 454.385 306.626C454.739 306.626 455.045 306.571 455.301 306.463C455.567 306.345 455.769 306.187 455.906 305.99C456.054 305.793 456.128 305.557 456.128 305.281C456.128 304.956 456.029 304.691 455.833 304.484C455.645 304.267 455.36 304.1 454.976 303.982L452.864 303.302C452.007 303.036 451.362 302.637 450.929 302.106C450.495 301.574 450.279 300.949 450.279 300.23C450.279 299.6 450.431 299.043 450.737 298.561C451.052 298.078 451.485 297.704 452.036 297.438C452.598 297.162 453.238 297.025 453.957 297.025C454.616 297.025 455.222 297.143 455.773 297.379C456.325 297.606 456.798 297.926 457.191 298.339C457.595 298.743 457.896 299.22 458.092 299.772L456.438 300.51C456.222 299.959 455.897 299.536 455.463 299.24C455.03 298.935 454.528 298.782 453.957 298.782C453.622 298.782 453.326 298.841 453.07 298.96C452.814 299.068 452.612 299.225 452.465 299.432C452.327 299.629 452.258 299.865 452.258 300.141C452.258 300.446 452.356 300.717 452.553 300.954C452.75 301.18 453.051 301.357 453.454 301.485L455.478 302.12C456.354 302.406 457.009 302.8 457.443 303.302C457.886 303.804 458.107 304.425 458.107 305.163C458.107 305.793 457.945 306.35 457.62 306.832C457.295 307.315 456.847 307.694 456.276 307.97C455.705 308.245 455.04 308.383 454.282 308.383ZM459.754 311.16V300.171H461.57V301.766L461.393 301.367C461.669 300.934 462.043 300.599 462.516 300.363C462.988 300.117 463.535 299.993 464.155 299.993C464.914 299.993 465.598 300.181 466.208 300.555C466.819 300.929 467.302 301.431 467.656 302.061C468.02 302.692 468.203 303.401 468.203 304.188C468.203 304.966 468.025 305.675 467.671 306.315C467.316 306.955 466.834 307.463 466.223 307.837C465.613 308.201 464.918 308.383 464.141 308.383C463.56 308.383 463.023 308.27 462.531 308.044C462.048 307.807 461.664 307.472 461.378 307.039L461.689 306.655V311.16H459.754ZM463.919 306.611C464.362 306.611 464.756 306.507 465.101 306.301C465.445 306.094 465.711 305.808 465.898 305.444C466.095 305.08 466.194 304.661 466.194 304.188C466.194 303.716 466.095 303.302 465.898 302.948C465.711 302.583 465.445 302.298 465.101 302.091C464.756 301.874 464.362 301.766 463.919 301.766C463.496 301.766 463.112 301.869 462.767 302.076C462.432 302.283 462.166 302.573 461.969 302.948C461.782 303.312 461.689 303.726 461.689 304.188C461.689 304.661 461.782 305.08 461.969 305.444C462.166 305.808 462.432 306.094 462.767 306.301C463.112 306.507 463.496 306.611 463.919 306.611ZM469.678 308.206V300.171H471.495V301.958L471.347 301.692C471.534 301.091 471.824 300.673 472.218 300.437C472.622 300.2 473.105 300.082 473.666 300.082H474.139V301.796H473.444C472.893 301.796 472.45 301.968 472.115 302.312C471.78 302.647 471.613 303.12 471.613 303.73V308.206H469.678ZM479.013 308.383C478.186 308.383 477.462 308.196 476.842 307.822C476.222 307.448 475.739 306.941 475.394 306.301C475.05 305.661 474.877 304.952 474.877 304.174C474.877 303.366 475.05 302.652 475.394 302.032C475.749 301.402 476.227 300.904 476.827 300.54C477.438 300.176 478.117 299.993 478.866 299.993C479.496 299.993 480.047 300.097 480.52 300.304C481.002 300.51 481.411 300.796 481.746 301.16C482.081 301.525 482.337 301.943 482.514 302.416C482.691 302.879 482.78 303.381 482.78 303.923C482.78 304.06 482.77 304.203 482.75 304.351C482.74 304.499 482.716 304.627 482.676 304.735H476.473V303.258H481.583L480.668 303.952C480.756 303.499 480.732 303.095 480.594 302.741C480.466 302.386 480.249 302.106 479.944 301.899C479.648 301.692 479.289 301.589 478.866 301.589C478.462 301.589 478.102 301.692 477.787 301.899C477.472 302.096 477.231 302.391 477.064 302.785C476.906 303.169 476.847 303.637 476.886 304.188C476.847 304.681 476.911 305.119 477.078 305.503C477.256 305.877 477.512 306.168 477.846 306.374C478.191 306.581 478.585 306.685 479.028 306.685C479.471 306.685 479.845 306.591 480.151 306.404C480.466 306.217 480.712 305.966 480.889 305.651L482.455 306.419C482.297 306.803 482.051 307.143 481.716 307.438C481.382 307.733 480.983 307.965 480.52 308.132C480.067 308.3 479.565 308.383 479.013 308.383ZM486.655 308.383C486.094 308.383 485.606 308.29 485.193 308.103C484.779 307.916 484.459 307.65 484.233 307.305C484.006 306.951 483.893 306.542 483.893 306.079C483.893 305.636 483.991 305.242 484.188 304.897C484.385 304.543 484.69 304.247 485.104 304.011C485.518 303.775 486.04 303.607 486.67 303.509L489.299 303.081V304.558L487.039 304.942C486.655 305.011 486.369 305.134 486.182 305.311C485.995 305.488 485.902 305.72 485.902 306.005C485.902 306.281 486.005 306.502 486.212 306.67C486.429 306.827 486.694 306.906 487.009 306.906C487.413 306.906 487.768 306.823 488.073 306.655C488.388 306.478 488.629 306.237 488.797 305.931C488.974 305.626 489.063 305.291 489.063 304.927V302.859C489.063 302.514 488.925 302.229 488.649 302.002C488.383 301.766 488.029 301.648 487.586 301.648C487.172 301.648 486.803 301.761 486.478 301.988C486.163 302.204 485.931 302.495 485.784 302.859L484.203 302.091C484.361 301.668 484.607 301.303 484.942 300.998C485.286 300.683 485.69 300.437 486.153 300.259C486.616 300.082 487.118 299.993 487.659 299.993C488.319 299.993 488.9 300.117 489.402 300.363C489.905 300.599 490.294 300.934 490.569 301.367C490.855 301.791 490.998 302.288 490.998 302.859V308.206H489.166V306.832L489.58 306.803C489.373 307.147 489.127 307.438 488.841 307.674C488.556 307.901 488.231 308.078 487.866 308.206C487.502 308.324 487.098 308.383 486.655 308.383ZM496.523 308.383C495.745 308.383 495.051 308.201 494.44 307.837C493.83 307.463 493.347 306.955 492.993 306.315C492.638 305.675 492.461 304.966 492.461 304.188C492.461 303.401 492.638 302.692 492.993 302.061C493.347 301.431 493.83 300.929 494.44 300.555C495.061 300.181 495.75 299.993 496.508 299.993C497.119 299.993 497.66 300.117 498.133 300.363C498.616 300.599 498.995 300.934 499.27 301.367L498.975 301.766V297.025H500.91V308.206H499.078V306.655L499.285 307.039C499.009 307.472 498.625 307.807 498.133 308.044C497.641 308.27 497.104 308.383 496.523 308.383ZM496.73 306.611C497.173 306.611 497.562 306.507 497.897 306.301C498.232 306.094 498.493 305.808 498.68 305.444C498.877 305.08 498.975 304.661 498.975 304.188C498.975 303.726 498.877 303.312 498.68 302.948C498.493 302.573 498.232 302.283 497.897 302.076C497.562 301.869 497.173 301.766 496.73 301.766C496.297 301.766 495.908 301.874 495.563 302.091C495.218 302.298 494.948 302.583 494.751 302.948C494.563 303.302 494.47 303.716 494.47 304.188C494.47 304.661 494.563 305.08 494.751 305.444C494.948 305.808 495.218 306.094 495.563 306.301C495.908 306.507 496.297 306.611 496.73 306.611ZM505.768 308.383C504.911 308.383 504.163 308.181 503.523 307.778C502.892 307.364 502.459 306.808 502.223 306.109L503.67 305.414C503.877 305.867 504.163 306.222 504.527 306.478C504.901 306.734 505.315 306.862 505.768 306.862C506.122 306.862 506.403 306.783 506.61 306.626C506.816 306.468 506.92 306.261 506.92 306.005C506.92 305.848 506.876 305.72 506.787 305.621C506.708 305.513 506.595 305.424 506.447 305.355C506.309 305.277 506.157 305.212 505.989 305.163L504.675 304.794C503.995 304.597 503.478 304.297 503.124 303.893C502.779 303.489 502.607 303.012 502.607 302.46C502.607 301.968 502.73 301.539 502.976 301.175C503.232 300.801 503.582 300.51 504.025 300.304C504.478 300.097 504.995 299.993 505.576 299.993C506.334 299.993 507.004 300.176 507.585 300.54C508.166 300.904 508.579 301.416 508.825 302.076L507.348 302.77C507.21 302.406 506.979 302.116 506.654 301.899C506.329 301.682 505.965 301.574 505.561 301.574C505.236 301.574 504.98 301.648 504.793 301.796C504.606 301.943 504.512 302.135 504.512 302.372C504.512 302.519 504.552 302.647 504.63 302.756C504.709 302.864 504.817 302.953 504.955 303.021C505.103 303.09 505.27 303.154 505.458 303.214L506.743 303.598C507.402 303.795 507.91 304.09 508.264 304.484C508.628 304.878 508.811 305.36 508.811 305.931C508.811 306.414 508.683 306.842 508.426 307.216C508.17 307.581 507.816 307.866 507.363 308.073C506.91 308.28 506.378 308.383 505.768 308.383Z" fill="white"/>
<defs>
<filter id="filter0_b_434_265" x="-29.7401" y="94.2599" width="243.295" height="111.999" filterUnits="userSpaceOnUse" color-interpolation-filters="sRGB">
<feFlood flood-opacity="0" result="BackgroundImageFix"/>
<feGaussianBlur in="BackgroundImageFix" stdDeviation="14.8701"/>
<feComposite in2="SourceAlpha" operator="in" result="effect1_backgroundBlur_434_265"/>
<feBlend mode="normal" in="SourceGraphic" in2="effect1_backgroundBlur_434_265" result="shape"/>
</filter>
<filter id="filter1_b_434_265" x="356.26" y="-29.7401" width="131.31" height="131.311" filterUnits="userSpaceOnUse" color-interpolation-filters="sRGB">
<feFlood flood-opacity="0" result="BackgroundImageFix"/>
<feGaussianBlur in="BackgroundImageFix" stdDeviation="14.8701"/>
<feComposite in2="SourceAlpha" operator="in" result="effect1_backgroundBlur_434_265"/>
<feBlend mode="normal" in="SourceGraphic" in2="effect1_backgroundBlur_434_265" result="shape"/>
</filter>
<filter id="filter2_b_434_265" x="352.26" y="237.26" width="212.112" height="111.999" filterUnits="userSpaceOnUse" color-interpolation-filters="sRGB">
<feFlood flood-opacity="0" result="BackgroundImageFix"/>
<feGaussianBlur in="BackgroundImageFix" stdDeviation="14.8701"/>
<feComposite in2="SourceAlpha" operator="in" result="effect1_backgroundBlur_434_265"/>
<feBlend mode="normal" in="SourceGraphic" in2="effect1_backgroundBlur_434_265" result="shape"/>
</filter>
<clipPath id="clip0_434_265">
<rect width="32.8241" height="32.8241" fill="white" transform="translate(403.336 276.847)"/>
</clipPath>
</defs>
</svg>
