<svg width="767" height="346" viewBox="0 0 767 346" fill="none" xmlns="http://www.w3.org/2000/svg">
<g filter="url(#filter0_b_450_2383)">
<path d="M186 34.5C186 15.4462 201.446 0 220.5 0H421.5C440.554 0 456 15.4462 456 34.5C456 53.5538 440.554 69 421.5 69H220.5C201.446 69 186 53.5538 186 34.5Z" fill="white" fill-opacity="0.14"/>
<path d="M186.616 34.5C186.616 15.7864 201.786 0.616071 220.5 0.616071H421.5C440.214 0.616071 455.384 15.7864 455.384 34.5C455.384 53.2136 440.214 68.3839 421.5 68.3839H220.5C201.786 68.3839 186.616 53.2136 186.616 34.5Z" stroke="url(#paint0_linear_450_2383)" stroke-width="1.23214"/>
</g>
<path d="M240.454 42.7143L230.367 38.429V35.6161L240.454 31.3088V34.2536L232.719 37.528V36.5171L240.454 39.7915V42.7143ZM243.732 43V40.7365L248.171 36.0995C249.05 35.1765 249.724 34.444 250.193 33.9019C250.677 33.3452 251.014 32.8691 251.204 32.4735C251.394 32.0779 251.49 31.675 251.49 31.2648C251.49 30.5762 251.27 30.0342 250.83 29.6386C250.406 29.243 249.856 29.0452 249.182 29.0452C248.479 29.0452 247.871 29.2504 247.358 29.6606C246.845 30.0561 246.472 30.6422 246.237 31.4187L243.622 30.6055C243.798 29.7412 244.157 28.994 244.699 28.364C245.241 27.7194 245.9 27.2286 246.677 26.8916C247.468 26.54 248.303 26.3642 249.182 26.3642C250.237 26.3642 251.16 26.5546 251.951 26.9356C252.757 27.3165 253.38 27.8512 253.819 28.5398C254.273 29.2284 254.5 30.0342 254.5 30.9572C254.5 31.5432 254.391 32.1219 254.171 32.6933C253.951 33.2646 253.621 33.8507 253.182 34.4513C252.742 35.0374 252.171 35.6966 251.468 36.4292L247.622 40.4728H254.72V43H243.732ZM263.613 43.2637C262.309 43.2637 261.167 42.9121 260.185 42.2089C259.204 41.5056 258.434 40.5167 257.878 39.2421C257.336 37.9675 257.065 36.4878 257.065 34.803C257.065 33.1035 257.336 31.6238 257.878 30.3638C258.42 29.1039 259.182 28.1223 260.163 27.419C261.145 26.7158 262.288 26.3642 263.591 26.3642C264.925 26.3642 266.075 26.7158 267.042 27.419C268.023 28.1223 268.792 29.1112 269.349 30.3858C269.906 31.6457 270.184 33.1181 270.184 34.803C270.184 36.4878 269.906 37.9675 269.349 39.2421C268.807 40.5021 268.045 41.491 267.064 42.2089C266.082 42.9121 264.932 43.2637 263.613 43.2637ZM263.635 40.5387C264.383 40.5387 265.02 40.3116 265.547 39.8574C266.075 39.3886 266.478 38.7293 266.756 37.8796C267.049 37.0152 267.195 35.9897 267.195 34.803C267.195 33.6163 267.049 32.598 266.756 31.7483C266.478 30.8839 266.067 30.2246 265.525 29.7705C264.998 29.3163 264.353 29.0892 263.591 29.0892C262.859 29.0892 262.229 29.3163 261.701 29.7705C261.174 30.2246 260.764 30.8839 260.471 31.7483C260.192 32.598 260.053 33.6163 260.053 34.803C260.053 35.975 260.192 36.9932 260.471 37.8576C260.764 38.7074 261.174 39.3666 261.701 39.8355C262.244 40.3043 262.888 40.5387 263.635 40.5387ZM272.734 43V31.0451H275.437V33.814L275.129 33.3525C275.349 32.4882 275.788 31.8435 276.448 31.4187C277.107 30.9938 277.883 30.7814 278.777 30.7814C279.759 30.7814 280.623 31.0377 281.37 31.5505C282.117 32.0633 282.601 32.7372 282.821 33.5723L282.007 33.6382C282.374 32.6859 282.923 31.9754 283.656 31.5066C284.388 31.0231 285.231 30.7814 286.183 30.7814C287.033 30.7814 287.787 30.9718 288.446 31.3527C289.12 31.7336 289.648 32.2684 290.029 32.957C290.41 33.6309 290.6 34.4147 290.6 35.3084V43H287.721V35.9897C287.721 35.4622 287.626 35.0081 287.436 34.6271C287.245 34.2462 286.981 33.9532 286.644 33.7481C286.307 33.5284 285.897 33.4185 285.414 33.4185C284.96 33.4185 284.557 33.5284 284.205 33.7481C283.853 33.9532 283.582 34.2462 283.392 34.6271C283.202 35.0081 283.106 35.4622 283.106 35.9897V43H280.227V35.9897C280.227 35.4622 280.132 35.0081 279.942 34.6271C279.751 34.2462 279.48 33.9532 279.129 33.7481C278.792 33.5284 278.389 33.4185 277.92 33.4185C277.466 33.4185 277.063 33.5284 276.711 33.7481C276.36 33.9532 276.089 34.2462 275.898 34.6271C275.708 35.0081 275.612 35.4622 275.612 35.9897V43H272.734ZM297.585 43.2637C296.31 43.2637 295.197 42.9634 294.244 42.3627C293.307 41.7474 292.662 40.9196 292.31 39.8794L294.464 38.8465C294.772 39.5205 295.197 40.0479 295.739 40.4288C296.295 40.8097 296.911 41.0002 297.585 41.0002C298.112 41.0002 298.53 40.883 298.837 40.6486C299.145 40.4142 299.299 40.1065 299.299 39.7256C299.299 39.4912 299.233 39.3007 299.101 39.1542C298.984 38.993 298.815 38.8612 298.596 38.7586C298.39 38.6414 298.163 38.5462 297.914 38.4729L295.958 37.9235C294.948 37.6305 294.178 37.1837 293.651 36.583C293.138 35.9823 292.882 35.2718 292.882 34.4513C292.882 33.7188 293.065 33.0815 293.431 32.5394C293.812 31.9827 294.332 31.5505 294.992 31.2428C295.665 30.9352 296.435 30.7814 297.299 30.7814C298.427 30.7814 299.423 31.0524 300.288 31.5945C301.152 32.1365 301.767 32.8984 302.134 33.88L299.936 34.9128C299.731 34.3708 299.387 33.9386 298.903 33.6163C298.42 33.2939 297.878 33.1328 297.277 33.1328C296.794 33.1328 296.413 33.2427 296.134 33.4624C295.856 33.6822 295.717 33.9679 295.717 34.3195C295.717 34.5392 295.775 34.7297 295.893 34.8909C296.01 35.052 296.171 35.1839 296.376 35.2864C296.596 35.389 296.845 35.4842 297.123 35.5721L299.035 36.1435C300.017 36.4365 300.771 36.876 301.299 37.4621C301.841 38.0481 302.112 38.766 302.112 39.6157C302.112 40.3336 301.921 40.9709 301.54 41.5276C301.159 42.0697 300.632 42.4946 299.958 42.8022C299.284 43.1099 298.493 43.2637 297.585 43.2637ZM313.9 43.2637C312.669 43.2637 311.592 42.9853 310.669 42.4286C309.746 41.8719 309.028 41.1174 308.516 40.1651C308.003 39.2128 307.747 38.158 307.747 37.0006C307.747 35.7992 308.003 34.737 308.516 33.814C309.043 32.8764 309.754 32.1365 310.647 31.5945C311.556 31.0524 312.567 30.7814 313.68 30.7814C314.618 30.7814 315.438 30.9352 316.141 31.2428C316.859 31.5505 317.467 31.9754 317.965 32.5175C318.463 33.0595 318.844 33.6822 319.108 34.3854C319.372 35.074 319.504 35.8212 319.504 36.627C319.504 36.8321 319.489 37.0445 319.46 37.2643C319.445 37.484 319.408 37.6745 319.35 37.8356H310.12V35.638H317.724L316.361 36.6709C316.493 35.997 316.456 35.3963 316.251 34.8689C316.061 34.3415 315.738 33.9239 315.284 33.6163C314.845 33.3086 314.31 33.1548 313.68 33.1548C313.079 33.1548 312.545 33.3086 312.076 33.6163C311.607 33.9093 311.248 34.3488 310.999 34.9348C310.765 35.5062 310.677 36.2021 310.735 37.0225C310.677 37.7551 310.772 38.407 311.021 38.9784C311.285 39.5351 311.666 39.9673 312.164 40.275C312.676 40.5826 313.262 40.7365 313.922 40.7365C314.581 40.7365 315.138 40.5973 315.592 40.3189C316.061 40.0406 316.427 39.667 316.691 39.1982L319.02 40.3409C318.786 40.9123 318.42 41.4177 317.921 41.8572C317.423 42.2968 316.83 42.6411 316.141 42.8901C315.467 43.1392 314.72 43.2637 313.9 43.2637ZM320.395 43L324.57 37.0006L320.373 31.0451H323.757L327.031 35.8798H325.515L328.789 31.0451H332.152L327.976 37.0006L332.13 43H328.767L325.537 38.1873H327.009L323.779 43H320.395ZM338.966 43.2637C337.735 43.2637 336.659 42.9853 335.736 42.4286C334.813 41.8719 334.095 41.1174 333.582 40.1651C333.069 39.2128 332.813 38.158 332.813 37.0006C332.813 35.7992 333.069 34.737 333.582 33.814C334.109 32.8764 334.82 32.1365 335.714 31.5945C336.622 31.0524 337.633 30.7814 338.746 30.7814C339.684 30.7814 340.504 30.9352 341.208 31.2428C341.926 31.5505 342.534 31.9754 343.032 32.5175C343.53 33.0595 343.911 33.6822 344.174 34.3854C344.438 35.074 344.57 35.8212 344.57 36.627C344.57 36.8321 344.555 37.0445 344.526 37.2643C344.511 37.484 344.475 37.6745 344.416 37.8356H335.186V35.638H342.79L341.427 36.6709C341.559 35.997 341.523 35.3963 341.318 34.8689C341.127 34.3415 340.805 33.9239 340.351 33.6163C339.911 33.3086 339.376 33.1548 338.746 33.1548C338.146 33.1548 337.611 33.3086 337.142 33.6163C336.673 33.9093 336.314 34.3488 336.065 34.9348C335.831 35.5062 335.743 36.2021 335.802 37.0225C335.743 37.7551 335.838 38.407 336.087 38.9784C336.351 39.5351 336.732 39.9673 337.23 40.275C337.743 40.5826 338.329 40.7365 338.988 40.7365C339.647 40.7365 340.204 40.5973 340.658 40.3189C341.127 40.0406 341.493 39.667 341.757 39.1982L344.087 40.3409C343.852 40.9123 343.486 41.4177 342.988 41.8572C342.49 42.2968 341.896 42.6411 341.208 42.8901C340.534 43.1392 339.787 43.2637 338.966 43.2637ZM352.51 43.2637C351.323 43.2637 350.254 42.9927 349.302 42.4506C348.364 41.8939 347.624 41.1467 347.082 40.209C346.54 39.2568 346.269 38.1873 346.269 37.0006C346.269 35.8139 346.54 34.7517 347.082 33.814C347.624 32.8764 348.364 32.1365 349.302 31.5945C350.254 31.0524 351.323 30.7814 352.51 30.7814C353.36 30.7814 354.151 30.9352 354.883 31.2428C355.616 31.5359 356.246 31.9461 356.773 32.4735C357.315 32.9863 357.704 33.6016 357.938 34.3195L355.411 35.4183C355.191 34.8176 354.818 34.3341 354.29 33.9679C353.777 33.6016 353.184 33.4185 352.51 33.4185C351.88 33.4185 351.316 33.5723 350.818 33.88C350.334 34.1876 349.954 34.6125 349.675 35.1546C349.397 35.6966 349.258 36.3193 349.258 37.0225C349.258 37.7258 349.397 38.3484 349.675 38.8905C349.954 39.4326 350.334 39.8574 350.818 40.1651C351.316 40.4728 351.88 40.6266 352.51 40.6266C353.199 40.6266 353.799 40.4435 354.312 40.0772C354.825 39.7109 355.191 39.2201 355.411 38.6048L357.938 39.7476C357.704 40.4215 357.323 41.0295 356.795 41.5716C356.268 42.099 355.638 42.5165 354.905 42.8242C354.173 43.1172 353.374 43.2637 352.51 43.2637ZM364.386 43.2637C363.463 43.2637 362.657 43.0586 361.968 42.6484C361.295 42.2382 360.774 41.6668 360.408 40.9343C360.057 40.2017 359.881 39.3447 359.881 38.3631V31.0451H362.76V38.1213C362.76 38.6195 362.855 39.059 363.045 39.4399C363.25 39.8062 363.536 40.0992 363.902 40.3189C364.283 40.524 364.708 40.6266 365.177 40.6266C365.646 40.6266 366.063 40.524 366.43 40.3189C366.796 40.0992 367.082 39.7988 367.287 39.4179C367.492 39.037 367.594 38.5828 367.594 38.0554V31.0451H370.473V43H367.748V40.6486L367.99 41.0661C367.712 41.7986 367.25 42.348 366.605 42.7143C365.975 43.0806 365.236 43.2637 364.386 43.2637ZM378.599 43.1319C377.251 43.1319 376.204 42.7656 375.457 42.0331C374.724 41.2859 374.358 40.2384 374.358 38.8905V33.6163H372.292V31.0451H372.512C373.098 31.0451 373.552 30.8912 373.874 30.5836C374.197 30.2759 374.358 29.8291 374.358 29.243V28.32H377.237V31.0451H379.984V33.6163H377.237V38.7367C377.237 39.1322 377.303 39.4692 377.435 39.7476C377.581 40.0259 377.801 40.2384 378.094 40.3849C378.402 40.5314 378.79 40.6046 379.259 40.6046C379.361 40.6046 379.478 40.5973 379.61 40.5826C379.757 40.568 379.896 40.5533 380.028 40.5387V43C379.823 43.0293 379.588 43.0586 379.325 43.0879C379.061 43.1172 378.819 43.1319 378.599 43.1319ZM382.227 43V31.0451H385.106V43H382.227ZM382.227 29.7045V26.6279H385.106V29.7045H382.227ZM393.61 43.2637C392.438 43.2637 391.368 42.9927 390.401 42.4506C389.449 41.9085 388.687 41.1687 388.116 40.231C387.559 39.2934 387.281 38.2239 387.281 37.0225C387.281 35.8212 387.559 34.7517 388.116 33.814C388.687 32.8764 389.449 32.1365 390.401 31.5945C391.354 31.0524 392.423 30.7814 393.61 30.7814C394.782 30.7814 395.844 31.0524 396.796 31.5945C397.749 32.1365 398.503 32.8764 399.06 33.814C399.631 34.737 399.917 35.8065 399.917 37.0225C399.917 38.2239 399.631 39.2934 399.06 40.231C398.488 41.1687 397.727 41.9085 396.774 42.4506C395.822 42.9927 394.767 43.2637 393.61 43.2637ZM393.61 40.6266C394.254 40.6266 394.818 40.4728 395.302 40.1651C395.8 39.8574 396.188 39.4326 396.467 38.8905C396.76 38.3338 396.906 37.7111 396.906 37.0225C396.906 36.3193 396.76 35.704 396.467 35.1765C396.188 34.6345 395.8 34.2096 395.302 33.9019C394.818 33.5796 394.254 33.4185 393.61 33.4185C392.95 33.4185 392.372 33.5796 391.874 33.9019C391.376 34.2096 390.98 34.6345 390.687 35.1765C390.409 35.704 390.269 36.3193 390.269 37.0225C390.269 37.7111 390.409 38.3338 390.687 38.8905C390.98 39.4326 391.376 39.8574 391.874 40.1651C392.372 40.4728 392.95 40.6266 393.61 40.6266ZM402.1 43V31.0451H404.803V33.3965L404.583 32.979C404.862 32.2611 405.316 31.719 405.946 31.3527C406.59 30.9718 407.338 30.7814 408.187 30.7814C409.066 30.7814 409.843 30.9718 410.517 31.3527C411.205 31.7336 411.74 32.2684 412.121 32.957C412.502 33.6309 412.692 34.4147 412.692 35.3084V43H409.814V35.9897C409.814 35.4622 409.711 35.0081 409.506 34.6271C409.301 34.2462 409.015 33.9532 408.649 33.7481C408.297 33.5284 407.88 33.4185 407.396 33.4185C406.927 33.4185 406.51 33.5284 406.144 33.7481C405.777 33.9532 405.492 34.2462 405.287 34.6271C405.081 35.0081 404.979 35.4622 404.979 35.9897V43H402.1Z" fill="white"/>
<g filter="url(#filter1_b_450_2383)">
<path d="M518 150.5C518 131.446 533.446 116 552.5 116H732.5C751.554 116 767 131.446 767 150.5C767 169.554 751.554 185 732.5 185H552.5C533.446 185 518 169.554 518 150.5Z" fill="white" fill-opacity="0.14"/>
<path d="M518.616 150.5C518.616 131.786 533.786 116.616 552.5 116.616H732.5C751.214 116.616 766.384 131.786 766.384 150.5C766.384 169.214 751.214 184.384 732.5 184.384H552.5C533.786 184.384 518.616 169.214 518.616 150.5Z" stroke="url(#paint1_linear_450_2383)" stroke-width="1.23214"/>
</g>
<path d="M563.176 159.264C561.872 159.264 560.729 158.912 559.748 158.209C558.766 157.506 557.997 156.517 557.44 155.242C556.898 153.967 556.627 152.488 556.627 150.803C556.627 149.103 556.898 147.624 557.44 146.364C557.982 145.104 558.744 144.122 559.726 143.419C560.707 142.716 561.85 142.364 563.154 142.364C564.487 142.364 565.637 142.716 566.604 143.419C567.586 144.122 568.355 145.111 568.912 146.386C569.468 147.646 569.747 149.118 569.747 150.803C569.747 152.488 569.468 153.967 568.912 155.242C568.37 156.502 567.608 157.491 566.626 158.209C565.645 158.912 564.495 159.264 563.176 159.264ZM563.198 156.539C563.945 156.539 564.582 156.312 565.11 155.857C565.637 155.389 566.04 154.729 566.319 153.88C566.612 153.015 566.758 151.99 566.758 150.803C566.758 149.616 566.612 148.598 566.319 147.748C566.04 146.884 565.63 146.225 565.088 145.77C564.561 145.316 563.916 145.089 563.154 145.089C562.422 145.089 561.792 145.316 561.264 145.77C560.737 146.225 560.326 146.884 560.033 147.748C559.755 148.598 559.616 149.616 559.616 150.803C559.616 151.975 559.755 152.993 560.033 153.858C560.326 154.707 560.737 155.367 561.264 155.835C561.806 156.304 562.451 156.539 563.198 156.539ZM574.318 159L587.592 142.628H590.668L577.395 159H574.318ZM576.867 150.935C576.061 150.935 575.329 150.744 574.67 150.363C574.025 149.968 573.512 149.448 573.131 148.803C572.75 148.159 572.56 147.441 572.56 146.649C572.56 145.858 572.75 145.14 573.131 144.496C573.512 143.837 574.025 143.316 574.67 142.936C575.329 142.555 576.061 142.364 576.867 142.364C577.688 142.364 578.42 142.555 579.065 142.936C579.709 143.316 580.222 143.837 580.603 144.496C580.984 145.14 581.175 145.858 581.175 146.649C581.175 147.441 580.984 148.159 580.603 148.803C580.222 149.448 579.709 149.968 579.065 150.363C578.42 150.744 577.688 150.935 576.867 150.935ZM576.867 148.715C577.307 148.715 577.673 148.62 577.966 148.43C578.259 148.224 578.479 147.968 578.625 147.66C578.786 147.338 578.867 147.001 578.867 146.649C578.867 146.283 578.786 145.946 578.625 145.639C578.479 145.331 578.259 145.075 577.966 144.869C577.673 144.664 577.307 144.562 576.867 144.562C576.457 144.562 576.098 144.664 575.79 144.869C575.497 145.075 575.27 145.338 575.109 145.661C574.948 145.968 574.867 146.298 574.867 146.649C574.867 146.986 574.948 147.316 575.109 147.638C575.27 147.961 575.497 148.224 575.79 148.43C576.098 148.62 576.457 148.715 576.867 148.715ZM588.031 159.264C587.225 159.264 586.493 159.073 585.833 158.692C585.189 158.297 584.676 157.777 584.295 157.132C583.914 156.487 583.724 155.77 583.724 154.978C583.724 154.187 583.914 153.469 584.295 152.825C584.676 152.165 585.189 151.645 585.833 151.264C586.493 150.884 587.225 150.693 588.031 150.693C588.851 150.693 589.584 150.884 590.229 151.264C590.873 151.645 591.386 152.165 591.767 152.825C592.148 153.469 592.338 154.187 592.338 154.978C592.338 155.77 592.148 156.487 591.767 157.132C591.386 157.777 590.873 158.297 590.229 158.692C589.584 159.073 588.851 159.264 588.031 159.264ZM588.031 157.044C588.456 157.044 588.815 156.949 589.108 156.758C589.416 156.553 589.643 156.297 589.789 155.989C589.95 155.667 590.031 155.33 590.031 154.978C590.031 154.612 589.95 154.275 589.789 153.967C589.643 153.66 589.416 153.403 589.108 153.198C588.815 152.993 588.456 152.891 588.031 152.891C587.621 152.891 587.262 152.993 586.954 153.198C586.661 153.403 586.434 153.667 586.273 153.989C586.112 154.297 586.031 154.627 586.031 154.978C586.031 155.315 586.112 155.645 586.273 155.967C586.434 156.29 586.661 156.553 586.954 156.758C587.262 156.949 587.621 157.044 588.031 157.044ZM607.12 159.264C605.948 159.264 604.864 159.051 603.868 158.626C602.886 158.202 602.022 157.608 601.274 156.846C600.542 156.085 599.971 155.191 599.56 154.165C599.15 153.14 598.945 152.019 598.945 150.803C598.945 149.587 599.143 148.466 599.538 147.441C599.949 146.4 600.52 145.507 601.252 144.76C602 143.998 602.871 143.412 603.868 143.001C604.864 142.577 605.948 142.364 607.12 142.364C608.292 142.364 609.34 142.562 610.263 142.958C611.2 143.353 611.991 143.881 612.636 144.54C613.281 145.184 613.742 145.895 614.021 146.671L611.339 147.924C611.032 147.104 610.512 146.43 609.779 145.902C609.047 145.36 608.16 145.089 607.12 145.089C606.095 145.089 605.186 145.331 604.395 145.814C603.619 146.298 603.011 146.964 602.571 147.814C602.146 148.664 601.934 149.66 601.934 150.803C601.934 151.946 602.146 152.949 602.571 153.814C603.011 154.663 603.619 155.33 604.395 155.813C605.186 156.297 606.095 156.539 607.12 156.539C608.16 156.539 609.047 156.275 609.779 155.748C610.512 155.205 611.032 154.524 611.339 153.704L614.021 154.956C613.742 155.733 613.281 156.451 612.636 157.11C611.991 157.755 611.2 158.275 610.263 158.67C609.34 159.066 608.292 159.264 607.12 159.264ZM621.836 159.264C620.664 159.264 619.595 158.993 618.628 158.451C617.675 157.909 616.914 157.169 616.342 156.231C615.786 155.293 615.507 154.224 615.507 153.023C615.507 151.821 615.786 150.752 616.342 149.814C616.914 148.876 617.675 148.137 618.628 147.594C619.58 147.052 620.65 146.781 621.836 146.781C623.008 146.781 624.07 147.052 625.023 147.594C625.975 148.137 626.73 148.876 627.286 149.814C627.858 150.737 628.143 151.807 628.143 153.023C628.143 154.224 627.858 155.293 627.286 156.231C626.715 157.169 625.953 157.909 625.001 158.451C624.049 158.993 622.994 159.264 621.836 159.264ZM621.836 156.627C622.481 156.627 623.045 156.473 623.528 156.165C624.027 155.857 624.415 155.433 624.693 154.89C624.986 154.334 625.133 153.711 625.133 153.023C625.133 152.319 624.986 151.704 624.693 151.177C624.415 150.634 624.027 150.21 623.528 149.902C623.045 149.58 622.481 149.418 621.836 149.418C621.177 149.418 620.598 149.58 620.1 149.902C619.602 150.21 619.206 150.634 618.913 151.177C618.635 151.704 618.496 152.319 618.496 153.023C618.496 153.711 618.635 154.334 618.913 154.89C619.206 155.433 619.602 155.857 620.1 156.165C620.598 156.473 621.177 156.627 621.836 156.627ZM630.327 159V147.045H633.03V149.814L632.722 149.353C632.942 148.488 633.381 147.844 634.04 147.419C634.7 146.994 635.476 146.781 636.37 146.781C637.352 146.781 638.216 147.038 638.963 147.551C639.71 148.063 640.194 148.737 640.414 149.572L639.6 149.638C639.967 148.686 640.516 147.975 641.249 147.507C641.981 147.023 642.824 146.781 643.776 146.781C644.626 146.781 645.38 146.972 646.039 147.353C646.713 147.734 647.241 148.268 647.622 148.957C648.003 149.631 648.193 150.415 648.193 151.308V159H645.314V151.99C645.314 151.462 645.219 151.008 645.028 150.627C644.838 150.246 644.574 149.953 644.237 149.748C643.9 149.528 643.49 149.418 643.007 149.418C642.553 149.418 642.15 149.528 641.798 149.748C641.446 149.953 641.175 150.246 640.985 150.627C640.794 151.008 640.699 151.462 640.699 151.99V159H637.82V151.99C637.82 151.462 637.725 151.008 637.535 150.627C637.344 150.246 637.073 149.953 636.722 149.748C636.385 149.528 635.982 149.418 635.513 149.418C635.059 149.418 634.656 149.528 634.304 149.748C633.953 149.953 633.682 150.246 633.491 150.627C633.301 151.008 633.205 151.462 633.205 151.99V159H630.327ZM650.629 159V147.045H653.332V149.814L653.024 149.353C653.244 148.488 653.683 147.844 654.343 147.419C655.002 146.994 655.778 146.781 656.672 146.781C657.654 146.781 658.518 147.038 659.265 147.551C660.012 148.063 660.496 148.737 660.716 149.572L659.902 149.638C660.269 148.686 660.818 147.975 661.551 147.507C662.283 147.023 663.126 146.781 664.078 146.781C664.928 146.781 665.682 146.972 666.341 147.353C667.015 147.734 667.543 148.268 667.924 148.957C668.305 149.631 668.495 150.415 668.495 151.308V159H665.616V151.99C665.616 151.462 665.521 151.008 665.331 150.627C665.14 150.246 664.876 149.953 664.539 149.748C664.202 149.528 663.792 149.418 663.309 149.418C662.855 149.418 662.452 149.528 662.1 149.748C661.748 149.953 661.477 150.246 661.287 150.627C661.096 151.008 661.001 151.462 661.001 151.99V159H658.122V151.99C658.122 151.462 658.027 151.008 657.837 150.627C657.646 150.246 657.375 149.953 657.024 149.748C656.687 149.528 656.284 149.418 655.815 149.418C655.361 149.418 654.958 149.528 654.606 149.748C654.255 149.953 653.984 150.246 653.793 150.627C653.603 151.008 653.507 151.462 653.507 151.99V159H650.629ZM670.931 159V147.045H673.809V159H670.931ZM670.931 145.705V142.628H673.809V145.705H670.931ZM681.017 159.264C679.742 159.264 678.629 158.963 677.676 158.363C676.739 157.747 676.094 156.92 675.742 155.879L677.896 154.847C678.204 155.52 678.629 156.048 679.171 156.429C679.727 156.81 680.343 157 681.017 157C681.544 157 681.962 156.883 682.269 156.649C682.577 156.414 682.731 156.106 682.731 155.726C682.731 155.491 682.665 155.301 682.533 155.154C682.416 154.993 682.247 154.861 682.027 154.759C681.822 154.641 681.595 154.546 681.346 154.473L679.39 153.924C678.379 153.631 677.61 153.184 677.083 152.583C676.57 151.982 676.314 151.272 676.314 150.451C676.314 149.719 676.497 149.082 676.863 148.539C677.244 147.983 677.764 147.551 678.423 147.243C679.097 146.935 679.866 146.781 680.731 146.781C681.859 146.781 682.855 147.052 683.72 147.594C684.584 148.137 685.199 148.898 685.566 149.88L683.368 150.913C683.163 150.371 682.819 149.939 682.335 149.616C681.852 149.294 681.31 149.133 680.709 149.133C680.225 149.133 679.845 149.243 679.566 149.462C679.288 149.682 679.149 149.968 679.149 150.319C679.149 150.539 679.207 150.73 679.324 150.891C679.442 151.052 679.603 151.184 679.808 151.286C680.028 151.389 680.277 151.484 680.555 151.572L682.467 152.143C683.449 152.437 684.203 152.876 684.731 153.462C685.273 154.048 685.544 154.766 685.544 155.616C685.544 156.334 685.353 156.971 684.972 157.528C684.591 158.07 684.064 158.495 683.39 158.802C682.716 159.11 681.925 159.264 681.017 159.264ZM692.305 159.264C691.03 159.264 689.917 158.963 688.965 158.363C688.027 157.747 687.382 156.92 687.031 155.879L689.184 154.847C689.492 155.52 689.917 156.048 690.459 156.429C691.016 156.81 691.631 157 692.305 157C692.832 157 693.25 156.883 693.558 156.649C693.865 156.414 694.019 156.106 694.019 155.726C694.019 155.491 693.953 155.301 693.821 155.154C693.704 154.993 693.536 154.861 693.316 154.759C693.111 154.641 692.884 154.546 692.635 154.473L690.679 153.924C689.668 153.631 688.899 153.184 688.371 152.583C687.859 151.982 687.602 151.272 687.602 150.451C687.602 149.719 687.785 149.082 688.152 148.539C688.532 147.983 689.053 147.551 689.712 147.243C690.386 146.935 691.155 146.781 692.019 146.781C693.147 146.781 694.144 147.052 695.008 147.594C695.872 148.137 696.488 148.898 696.854 149.88L694.656 150.913C694.451 150.371 694.107 149.939 693.624 149.616C693.14 149.294 692.598 149.133 691.997 149.133C691.514 149.133 691.133 149.243 690.855 149.462C690.576 149.682 690.437 149.968 690.437 150.319C690.437 150.539 690.496 150.73 690.613 150.891C690.73 151.052 690.891 151.184 691.096 151.286C691.316 151.389 691.565 151.484 691.844 151.572L693.755 152.143C694.737 152.437 695.492 152.876 696.019 153.462C696.561 154.048 696.832 154.766 696.832 155.616C696.832 156.334 696.642 156.971 696.261 157.528C695.88 158.07 695.352 158.495 694.678 158.802C694.004 159.11 693.213 159.264 692.305 159.264ZM699.044 159V147.045H701.923V159H699.044ZM699.044 145.705V142.628H701.923V145.705H699.044ZM710.427 159.264C709.255 159.264 708.185 158.993 707.218 158.451C706.266 157.909 705.504 157.169 704.933 156.231C704.376 155.293 704.098 154.224 704.098 153.023C704.098 151.821 704.376 150.752 704.933 149.814C705.504 148.876 706.266 148.137 707.218 147.594C708.171 147.052 709.24 146.781 710.427 146.781C711.599 146.781 712.661 147.052 713.613 147.594C714.566 148.137 715.32 148.876 715.877 149.814C716.448 150.737 716.734 151.807 716.734 153.023C716.734 154.224 716.448 155.293 715.877 156.231C715.306 157.169 714.544 157.909 713.592 158.451C712.639 158.993 711.584 159.264 710.427 159.264ZM710.427 156.627C711.072 156.627 711.636 156.473 712.119 156.165C712.617 155.857 713.005 155.433 713.284 154.89C713.577 154.334 713.723 153.711 713.723 153.023C713.723 152.319 713.577 151.704 713.284 151.177C713.005 150.634 712.617 150.21 712.119 149.902C711.636 149.58 711.072 149.418 710.427 149.418C709.768 149.418 709.189 149.58 708.691 149.902C708.193 150.21 707.797 150.634 707.504 151.177C707.226 151.704 707.087 152.319 707.087 153.023C707.087 153.711 707.226 154.334 707.504 154.89C707.797 155.433 708.193 155.857 708.691 156.165C709.189 156.473 709.768 156.627 710.427 156.627ZM718.917 159V147.045H721.62V149.396L721.401 148.979C721.679 148.261 722.133 147.719 722.763 147.353C723.408 146.972 724.155 146.781 725.005 146.781C725.884 146.781 726.66 146.972 727.334 147.353C728.023 147.734 728.557 148.268 728.938 148.957C729.319 149.631 729.51 150.415 729.51 151.308V159H726.631V151.99C726.631 151.462 726.528 151.008 726.323 150.627C726.118 150.246 725.832 149.953 725.466 149.748C725.114 149.528 724.697 149.418 724.213 149.418C723.745 149.418 723.327 149.528 722.961 149.748C722.595 149.953 722.309 150.246 722.104 150.627C721.899 151.008 721.796 151.462 721.796 151.99V159H718.917Z" fill="white"/>
<g filter="url(#filter2_b_450_2383)">
<path d="M0 311.5C0 292.446 15.4462 277 34.5 277H252.5C271.554 277 287 292.446 287 311.5C287 330.554 271.554 346 252.5 346H34.5C15.4462 346 0 330.554 0 311.5Z" fill="white" fill-opacity="0.14"/>
<path d="M0.616071 311.5C0.616071 292.786 15.7864 277.616 34.5 277.616H252.5C271.214 277.616 286.384 292.786 286.384 311.5C286.384 330.214 271.214 345.384 252.5 345.384H34.5C15.7864 345.384 0.616071 330.214 0.616071 311.5Z" stroke="url(#paint2_linear_450_2383)" stroke-width="1.23214"/>
</g>
<path d="M42.3142 320.264C41.0543 320.264 39.9335 320 38.9519 319.473C37.985 318.945 37.2231 318.22 36.6664 317.297C36.1097 316.374 35.8313 315.326 35.8313 314.154V303.628H38.8201V314.001C38.8201 314.674 38.9666 315.282 39.2596 315.825C39.5672 316.367 39.9848 316.792 40.5122 317.099C41.0396 317.392 41.6403 317.539 42.3142 317.539C43.0028 317.539 43.6035 317.392 44.1163 317.099C44.6437 316.792 45.0539 316.367 45.3469 315.825C45.6546 315.282 45.8084 314.674 45.8084 314.001V303.628H48.7972V314.154C48.7972 315.326 48.5188 316.374 47.9621 317.297C47.4053 318.22 46.6362 318.945 45.6546 319.473C44.6876 320 43.5742 320.264 42.3142 320.264ZM51.7809 320V303.628H57.8902C59.0037 303.628 59.9853 303.833 60.835 304.243C61.6994 304.639 62.3733 305.225 62.8568 306.001C63.3403 306.763 63.582 307.693 63.582 308.792C63.582 309.876 63.3329 310.807 62.8348 311.583C62.3514 312.345 61.6848 312.931 60.835 313.341C59.9853 313.751 59.0037 313.957 57.8902 313.957H54.7696V320H51.7809ZM54.7696 311.319H57.9342C58.4763 311.319 58.9451 311.217 59.3406 311.012C59.7362 310.792 60.0439 310.492 60.2636 310.111C60.4834 309.73 60.5933 309.29 60.5933 308.792C60.5933 308.279 60.4834 307.84 60.2636 307.474C60.0439 307.093 59.7362 306.8 59.3406 306.595C58.9451 306.375 58.4763 306.265 57.9342 306.265H54.7696V311.319ZM72.8377 320V306.265H68.5963V303.628H80.0238V306.265H75.8484V320H72.8377ZM89.2476 320.264C88.0462 320.264 86.9254 320.051 85.8852 319.626C84.845 319.202 83.9367 318.608 83.1602 317.846C82.3837 317.085 81.7757 316.191 81.3362 315.165C80.9113 314.125 80.6989 313.004 80.6989 311.803C80.6989 310.587 80.9113 309.466 81.3362 308.441C81.7611 307.415 82.3618 306.521 83.1382 305.76C83.9147 304.998 84.8231 304.412 85.8633 304.001C86.9035 303.577 88.0316 303.364 89.2476 303.364C90.4636 303.364 91.5917 303.577 92.6319 304.001C93.6721 304.426 94.5804 305.02 95.3569 305.782C96.1334 306.529 96.734 307.415 97.1589 308.441C97.5984 309.466 97.8182 310.587 97.8182 311.803C97.8182 313.004 97.5984 314.125 97.1589 315.165C96.7194 316.191 96.1114 317.085 95.3349 317.846C94.5584 318.608 93.6501 319.202 92.6099 319.626C91.5843 320.051 90.4636 320.264 89.2476 320.264ZM89.2476 317.539C90.0533 317.539 90.7932 317.4 91.4671 317.121C92.1411 316.828 92.7271 316.425 93.2252 315.912C93.738 315.4 94.1262 314.792 94.3899 314.088C94.6683 313.385 94.8075 312.623 94.8075 311.803C94.8075 310.983 94.6683 310.228 94.3899 309.539C94.1262 308.836 93.738 308.228 93.2252 307.715C92.7271 307.188 92.1411 306.785 91.4671 306.507C90.7932 306.228 90.0533 306.089 89.2476 306.089C88.4564 306.089 87.7239 306.228 87.05 306.507C86.376 306.785 85.7827 307.188 85.2699 307.715C84.7718 308.228 84.3835 308.836 84.1052 309.539C83.8268 310.228 83.6876 310.983 83.6876 311.803C83.6876 312.623 83.8268 313.385 84.1052 314.088C84.3835 314.792 84.7718 315.4 85.2699 315.912C85.7827 316.425 86.376 316.828 87.05 317.121C87.7239 317.4 88.4564 317.539 89.2476 317.539ZM106.601 320V306.177H103.437V303.628H109.59V320H106.601ZM114.366 320V316.923H117.267V320H114.366ZM114.366 311.122V308.045H117.267V311.122H114.366ZM126.495 320.264C125.631 320.264 124.803 320.103 124.012 319.78C123.235 319.458 122.561 319.004 121.99 318.418C121.433 317.817 121.052 317.106 120.847 316.286L123.44 315.363C123.689 316.11 124.092 316.667 124.649 317.033C125.206 317.385 125.821 317.561 126.495 317.561C127.052 317.561 127.542 317.443 127.967 317.209C128.407 316.96 128.744 316.623 128.978 316.198C129.213 315.759 129.33 315.253 129.33 314.682C129.33 314.11 129.205 313.612 128.956 313.187C128.722 312.763 128.392 312.433 127.967 312.199C127.542 311.949 127.052 311.825 126.495 311.825C125.924 311.825 125.403 311.949 124.935 312.199C124.48 312.448 124.151 312.807 123.946 313.275L121.506 312.726L122.803 303.628H131.725V306.155H123.99L125.11 304.859L124.187 311.715L123.33 311.012C123.741 310.411 124.239 309.972 124.825 309.693C125.425 309.415 126.151 309.276 127 309.276C128.085 309.276 129.022 309.51 129.813 309.979C130.619 310.448 131.242 311.085 131.681 311.891C132.121 312.697 132.341 313.627 132.341 314.682C132.341 315.737 132.084 316.689 131.571 317.539C131.059 318.388 130.363 319.055 129.484 319.539C128.605 320.022 127.608 320.264 126.495 320.264ZM141.268 320.264C139.964 320.264 138.821 319.912 137.84 319.209C136.858 318.506 136.089 317.517 135.532 316.242C134.99 314.967 134.719 313.488 134.719 311.803C134.719 310.103 134.99 308.624 135.532 307.364C136.074 306.104 136.836 305.122 137.818 304.419C138.799 303.716 139.942 303.364 141.246 303.364C142.579 303.364 143.729 303.716 144.696 304.419C145.678 305.122 146.447 306.111 147.004 307.386C147.56 308.646 147.839 310.118 147.839 311.803C147.839 313.488 147.56 314.967 147.004 316.242C146.462 317.502 145.7 318.491 144.718 319.209C143.737 319.912 142.587 320.264 141.268 320.264ZM141.29 317.539C142.037 317.539 142.674 317.312 143.202 316.857C143.729 316.389 144.132 315.729 144.411 314.88C144.704 314.015 144.85 312.99 144.85 311.803C144.85 310.616 144.704 309.598 144.411 308.748C144.132 307.884 143.722 307.225 143.18 306.77C142.652 306.316 142.008 306.089 141.246 306.089C140.513 306.089 139.883 306.316 139.356 306.77C138.829 307.225 138.418 307.884 138.125 308.748C137.847 309.598 137.708 310.616 137.708 311.803C137.708 312.975 137.847 313.993 138.125 314.858C138.418 315.707 138.829 316.367 139.356 316.835C139.898 317.304 140.543 317.539 141.29 317.539ZM154.536 320V303.628H157.525V317.363H164.535V320H154.536ZM171.896 320.264C170.665 320.264 169.589 319.985 168.666 319.429C167.743 318.872 167.025 318.117 166.512 317.165C165.999 316.213 165.743 315.158 165.743 314.001C165.743 312.799 165.999 311.737 166.512 310.814C167.039 309.876 167.75 309.137 168.644 308.594C169.552 308.052 170.563 307.781 171.676 307.781C172.614 307.781 173.434 307.935 174.138 308.243C174.856 308.551 175.464 308.975 175.962 309.517C176.46 310.06 176.841 310.682 177.104 311.385C177.368 312.074 177.5 312.821 177.5 313.627C177.5 313.832 177.485 314.045 177.456 314.264C177.441 314.484 177.405 314.674 177.346 314.836H168.116V312.638H175.72L174.357 313.671C174.489 312.997 174.453 312.396 174.248 311.869C174.057 311.341 173.735 310.924 173.281 310.616C172.841 310.309 172.306 310.155 171.676 310.155C171.076 310.155 170.541 310.309 170.072 310.616C169.603 310.909 169.244 311.349 168.995 311.935C168.761 312.506 168.673 313.202 168.732 314.023C168.673 314.755 168.768 315.407 169.017 315.978C169.281 316.535 169.662 316.967 170.16 317.275C170.673 317.583 171.259 317.736 171.918 317.736C172.577 317.736 173.134 317.597 173.588 317.319C174.057 317.041 174.423 316.667 174.687 316.198L177.017 317.341C176.782 317.912 176.416 318.418 175.918 318.857C175.42 319.297 174.826 319.641 174.138 319.89C173.464 320.139 172.717 320.264 171.896 320.264ZM183.072 320L178.369 308.045H181.511L184.918 317.451H183.753L187.181 308.045H190.324L185.621 320H183.072ZM197.37 320.264C196.14 320.264 195.063 319.985 194.14 319.429C193.217 318.872 192.499 318.117 191.986 317.165C191.473 316.213 191.217 315.158 191.217 314.001C191.217 312.799 191.473 311.737 191.986 310.814C192.514 309.876 193.224 309.137 194.118 308.594C195.026 308.052 196.037 307.781 197.151 307.781C198.088 307.781 198.909 307.935 199.612 308.243C200.33 308.551 200.938 308.975 201.436 309.517C201.934 310.06 202.315 310.682 202.579 311.385C202.842 312.074 202.974 312.821 202.974 313.627C202.974 313.832 202.959 314.045 202.93 314.264C202.916 314.484 202.879 314.674 202.82 314.836H193.59V312.638H201.194L199.832 313.671C199.963 312.997 199.927 312.396 199.722 311.869C199.531 311.341 199.209 310.924 198.755 310.616C198.315 310.309 197.78 310.155 197.151 310.155C196.55 310.155 196.015 310.309 195.546 310.616C195.077 310.909 194.718 311.349 194.469 311.935C194.235 312.506 194.147 313.202 194.206 314.023C194.147 314.755 194.242 315.407 194.491 315.978C194.755 316.535 195.136 316.967 195.634 317.275C196.147 317.583 196.733 317.736 197.392 317.736C198.052 317.736 198.608 317.597 199.062 317.319C199.531 317.041 199.898 316.667 200.161 316.198L202.491 317.341C202.256 317.912 201.89 318.418 201.392 318.857C200.894 319.297 200.3 319.641 199.612 319.89C198.938 320.139 198.191 320.264 197.37 320.264ZM205.156 320V308.045H207.859V310.704L207.64 310.309C207.918 309.415 208.35 308.792 208.936 308.441C209.537 308.089 210.255 307.913 211.09 307.913H211.793V310.462H210.76C209.94 310.462 209.281 310.719 208.782 311.232C208.284 311.73 208.035 312.433 208.035 313.341V320H205.156ZM217.002 320.264C216.167 320.264 215.442 320.125 214.826 319.846C214.211 319.568 213.735 319.172 213.398 318.659C213.061 318.132 212.893 317.524 212.893 316.835C212.893 316.176 213.039 315.59 213.332 315.077C213.625 314.55 214.079 314.11 214.695 313.759C215.31 313.407 216.086 313.158 217.024 313.012L220.936 312.374V314.572L217.573 315.143C217.002 315.246 216.577 315.429 216.299 315.693C216.02 315.956 215.881 316.301 215.881 316.726C215.881 317.136 216.035 317.465 216.343 317.714C216.665 317.949 217.061 318.066 217.529 318.066C218.13 318.066 218.658 317.942 219.112 317.693C219.581 317.429 219.939 317.07 220.189 316.616C220.452 316.162 220.584 315.663 220.584 315.121V312.045C220.584 311.532 220.379 311.107 219.969 310.77C219.573 310.418 219.046 310.243 218.387 310.243C217.771 310.243 217.222 310.411 216.738 310.748C216.27 311.07 215.925 311.503 215.705 312.045L213.354 310.902C213.588 310.272 213.955 309.73 214.453 309.276C214.966 308.807 215.566 308.441 216.255 308.177C216.943 307.913 217.691 307.781 218.496 307.781C219.478 307.781 220.342 307.964 221.09 308.331C221.837 308.682 222.415 309.18 222.826 309.825C223.251 310.455 223.463 311.195 223.463 312.045V320H220.738V317.956L221.353 317.912C221.046 318.425 220.679 318.857 220.254 319.209C219.83 319.546 219.346 319.81 218.804 320C218.262 320.176 217.661 320.264 217.002 320.264ZM231.925 324.835C231.032 324.835 230.204 324.688 229.442 324.395C228.68 324.102 228.021 323.692 227.464 323.165C226.922 322.652 226.527 322.044 226.278 321.341L228.959 320.33C229.134 320.886 229.479 321.333 229.992 321.67C230.519 322.022 231.164 322.198 231.925 322.198C232.511 322.198 233.024 322.088 233.464 321.868C233.918 321.648 234.27 321.326 234.519 320.901C234.768 320.491 234.892 319.993 234.892 319.407V316.682L235.442 317.341C235.031 318.059 234.482 318.601 233.793 318.967C233.105 319.333 232.321 319.517 231.442 319.517C230.329 319.517 229.332 319.26 228.453 318.747C227.574 318.235 226.886 317.531 226.387 316.638C225.889 315.744 225.64 314.74 225.64 313.627C225.64 312.499 225.889 311.495 226.387 310.616C226.886 309.737 227.567 309.049 228.431 308.551C229.296 308.038 230.277 307.781 231.376 307.781C232.27 307.781 233.054 307.972 233.727 308.353C234.416 308.719 234.987 309.254 235.442 309.957L235.046 310.682V308.045H237.771V319.407C237.771 320.447 237.515 321.377 237.002 322.198C236.504 323.018 235.815 323.663 234.936 324.131C234.072 324.6 233.068 324.835 231.925 324.835ZM231.794 316.857C232.409 316.857 232.944 316.726 233.398 316.462C233.867 316.184 234.233 315.803 234.497 315.319C234.76 314.836 234.892 314.279 234.892 313.649C234.892 313.034 234.753 312.484 234.475 312.001C234.211 311.503 233.845 311.114 233.376 310.836C232.922 310.558 232.394 310.418 231.794 310.418C231.193 310.418 230.651 310.558 230.167 310.836C229.684 311.114 229.303 311.503 229.025 312.001C228.761 312.484 228.629 313.034 228.629 313.649C228.629 314.264 228.761 314.814 229.025 315.297C229.303 315.781 229.677 316.162 230.145 316.44C230.629 316.718 231.178 316.857 231.794 316.857ZM246.129 320.264C244.899 320.264 243.822 319.985 242.899 319.429C241.976 318.872 241.258 318.117 240.745 317.165C240.233 316.213 239.976 315.158 239.976 314.001C239.976 312.799 240.233 311.737 240.745 310.814C241.273 309.876 241.983 309.137 242.877 308.594C243.785 308.052 244.796 307.781 245.91 307.781C246.847 307.781 247.668 307.935 248.371 308.243C249.089 308.551 249.697 308.975 250.195 309.517C250.693 310.06 251.074 310.682 251.338 311.385C251.602 312.074 251.733 312.821 251.733 313.627C251.733 313.832 251.719 314.045 251.689 314.264C251.675 314.484 251.638 314.674 251.58 314.836H242.35V312.638H249.953L248.591 313.671C248.723 312.997 248.686 312.396 248.481 311.869C248.29 311.341 247.968 310.924 247.514 310.616C247.074 310.309 246.54 310.155 245.91 310.155C245.309 310.155 244.774 310.309 244.305 310.616C243.837 310.909 243.478 311.349 243.229 311.935C242.994 312.506 242.906 313.202 242.965 314.023C242.906 314.755 243.002 315.407 243.251 315.978C243.514 316.535 243.895 316.967 244.393 317.275C244.906 317.583 245.492 317.736 246.151 317.736C246.811 317.736 247.367 317.597 247.822 317.319C248.29 317.041 248.657 316.667 248.92 316.198L251.25 317.341C251.015 317.912 250.649 318.418 250.151 318.857C249.653 319.297 249.06 319.641 248.371 319.89C247.697 320.139 246.95 320.264 246.129 320.264Z" fill="white"/>
<defs>
<filter id="filter0_b_450_2383" x="141.753" y="-44.2473" width="358.495" height="157.495" filterUnits="userSpaceOnUse" color-interpolation-filters="sRGB">
<feFlood flood-opacity="0" result="BackgroundImageFix"/>
<feGaussianBlur in="BackgroundImageFix" stdDeviation="22.1236"/>
<feComposite in2="SourceAlpha" operator="in" result="effect1_backgroundBlur_450_2383"/>
<feBlend mode="normal" in="SourceGraphic" in2="effect1_backgroundBlur_450_2383" result="shape"/>
</filter>
<filter id="filter1_b_450_2383" x="473.753" y="71.7527" width="337.495" height="157.495" filterUnits="userSpaceOnUse" color-interpolation-filters="sRGB">
<feFlood flood-opacity="0" result="BackgroundImageFix"/>
<feGaussianBlur in="BackgroundImageFix" stdDeviation="22.1236"/>
<feComposite in2="SourceAlpha" operator="in" result="effect1_backgroundBlur_450_2383"/>
<feBlend mode="normal" in="SourceGraphic" in2="effect1_backgroundBlur_450_2383" result="shape"/>
</filter>
<filter id="filter2_b_450_2383" x="-44.2473" y="232.753" width="375.495" height="157.495" filterUnits="userSpaceOnUse" color-interpolation-filters="sRGB">
<feFlood flood-opacity="0" result="BackgroundImageFix"/>
<feGaussianBlur in="BackgroundImageFix" stdDeviation="22.1236"/>
<feComposite in2="SourceAlpha" operator="in" result="effect1_backgroundBlur_450_2383"/>
<feBlend mode="normal" in="SourceGraphic" in2="effect1_backgroundBlur_450_2383" result="shape"/>
</filter>
<linearGradient id="paint0_linear_450_2383" x1="234.641" y1="9.85715" x2="291.755" y2="92.3604" gradientUnits="userSpaceOnUse">
<stop stop-color="white"/>
<stop offset="1" stop-color="white" stop-opacity="0"/>
</linearGradient>
<linearGradient id="paint1_linear_450_2383" x1="562.858" y1="125.857" x2="621.451" y2="203.915" gradientUnits="userSpaceOnUse">
<stop stop-color="white"/>
<stop offset="1" stop-color="white" stop-opacity="0"/>
</linearGradient>
<linearGradient id="paint2_linear_450_2383" x1="51.7041" y1="286.857" x2="107.513" y2="372.552" gradientUnits="userSpaceOnUse">
<stop stop-color="white"/>
<stop offset="1" stop-color="white" stop-opacity="0"/>
</linearGradient>
</defs>
</svg>
