<svg width="650" height="352" viewBox="0 0 650 352" fill="none" xmlns="http://www.w3.org/2000/svg">
<g filter="url(#filter0_b_499_104)">
<rect y="209" width="239" height="69" rx="34.5" fill="white" fill-opacity="0.14"/>
<rect x="0.616071" y="209.616" width="237.768" height="67.7679" rx="33.8839" stroke="url(#paint0_linear_499_104)" stroke-width="1.23214"/>
</g>
<path d="M39.8151 252.21C38.5112 252.21 37.3685 251.859 36.3869 251.155C35.4053 250.452 34.6361 249.463 34.0794 248.189C33.5373 246.914 33.2663 245.434 33.2663 243.749C33.2663 242.05 33.5373 240.57 34.0794 239.31C34.6215 238.05 35.3833 237.069 36.3649 236.366C37.3465 235.662 38.4893 235.311 39.7932 235.311C41.1264 235.311 42.2765 235.662 43.2434 236.366C44.225 237.069 44.9942 238.058 45.5509 239.332C46.1076 240.592 46.386 242.065 46.386 243.749C46.386 245.434 46.1076 246.914 45.5509 248.189C45.0088 249.449 44.247 250.438 43.2654 251.155C42.2838 251.859 41.1337 252.21 39.8151 252.21ZM39.8371 249.485C40.5843 249.485 41.2216 249.258 41.749 248.804C42.2765 248.335 42.6793 247.676 42.9577 246.826C43.2507 245.962 43.3972 244.936 43.3972 243.749C43.3972 242.563 43.2507 241.545 42.9577 240.695C42.6793 239.83 42.2691 239.171 41.7271 238.717C41.1996 238.263 40.555 238.036 39.7932 238.036C39.0606 238.036 38.4307 238.263 37.9032 238.717C37.3758 239.171 36.9656 239.83 36.6726 240.695C36.3942 241.545 36.255 242.563 36.255 243.749C36.255 244.922 36.3942 245.94 36.6726 246.804C36.9656 247.654 37.3758 248.313 37.9032 248.782C38.4453 249.251 39.0899 249.485 39.8371 249.485ZM50.9571 251.947L64.2306 235.574H67.3073L54.0338 251.947H50.9571ZM53.5064 243.881C52.7006 243.881 51.968 243.691 51.3088 243.31C50.6641 242.914 50.1514 242.394 49.7704 241.75C49.3895 241.105 49.1991 240.387 49.1991 239.596C49.1991 238.805 49.3895 238.087 49.7704 237.442C50.1514 236.783 50.6641 236.263 51.3088 235.882C51.968 235.501 52.7006 235.311 53.5064 235.311C54.3268 235.311 55.0593 235.501 55.704 235.882C56.3486 236.263 56.8614 236.783 57.2423 237.442C57.6232 238.087 57.8136 238.805 57.8136 239.596C57.8136 240.387 57.6232 241.105 57.2423 241.75C56.8614 242.394 56.3486 242.914 55.704 243.31C55.0593 243.691 54.3268 243.881 53.5064 243.881ZM53.5064 241.662C53.9459 241.662 54.3121 241.567 54.6052 241.376C54.8982 241.171 55.1179 240.915 55.2644 240.607C55.4256 240.285 55.5062 239.948 55.5062 239.596C55.5062 239.23 55.4256 238.893 55.2644 238.585C55.1179 238.277 54.8982 238.021 54.6052 237.816C54.3121 237.611 53.9459 237.508 53.5064 237.508C53.0961 237.508 52.7372 237.611 52.4295 237.816C52.1365 238.021 51.9094 238.285 51.7483 238.607C51.5871 238.915 51.5065 239.244 51.5065 239.596C51.5065 239.933 51.5871 240.263 51.7483 240.585C51.9094 240.907 52.1365 241.171 52.4295 241.376C52.7372 241.567 53.0961 241.662 53.5064 241.662ZM64.6702 252.21C63.8644 252.21 63.1318 252.02 62.4726 251.639C61.8279 251.243 61.3152 250.723 60.9342 250.079C60.5533 249.434 60.3629 248.716 60.3629 247.925C60.3629 247.134 60.5533 246.416 60.9342 245.771C61.3152 245.112 61.8279 244.592 62.4726 244.211C63.1318 243.83 63.8644 243.64 64.6702 243.64C65.4906 243.64 66.2231 243.83 66.8678 244.211C67.5124 244.592 68.0252 245.112 68.4061 245.771C68.787 246.416 68.9774 247.134 68.9774 247.925C68.9774 248.716 68.787 249.434 68.4061 250.079C68.0252 250.723 67.5124 251.243 66.8678 251.639C66.2231 252.02 65.4906 252.21 64.6702 252.21ZM64.6702 249.991C65.095 249.991 65.454 249.895 65.747 249.705C66.0546 249.5 66.2817 249.243 66.4282 248.936C66.5894 248.614 66.67 248.277 66.67 247.925C66.67 247.559 66.5894 247.222 66.4282 246.914C66.2817 246.606 66.0546 246.35 65.747 246.145C65.454 245.94 65.095 245.837 64.6702 245.837C64.2599 245.837 63.901 245.94 63.5933 246.145C63.3003 246.35 63.0732 246.614 62.9121 246.936C62.7509 247.244 62.6703 247.573 62.6703 247.925C62.6703 248.262 62.7509 248.592 62.9121 248.914C63.0732 249.236 63.3003 249.5 63.5933 249.705C63.901 249.895 64.2599 249.991 64.6702 249.991ZM83.7592 252.21C82.5872 252.21 81.503 251.998 80.5068 251.573C79.5252 251.148 78.6608 250.555 77.9136 249.793C77.1811 249.031 76.6097 248.137 76.1995 247.112C75.7893 246.086 75.5841 244.965 75.5841 243.749C75.5841 242.533 75.7819 241.413 76.1775 240.387C76.5877 239.347 77.1591 238.453 77.8916 237.706C78.6388 236.944 79.5105 236.358 80.5068 235.948C81.503 235.523 82.5872 235.311 83.7592 235.311C84.9313 235.311 85.9788 235.508 86.9018 235.904C87.8394 236.3 88.6306 236.827 89.2752 237.486C89.9198 238.131 90.3813 238.842 90.6597 239.618L87.9786 240.871C87.6709 240.05 87.1508 239.376 86.4183 238.849C85.6858 238.307 84.7994 238.036 83.7592 238.036C82.7337 238.036 81.8253 238.277 81.0342 238.761C80.2577 239.244 79.6497 239.911 79.2102 240.761C78.7853 241.61 78.5729 242.607 78.5729 243.749C78.5729 244.892 78.7853 245.896 79.2102 246.76C79.6497 247.61 80.2577 248.277 81.0342 248.76C81.8253 249.243 82.7337 249.485 83.7592 249.485C84.7994 249.485 85.6858 249.222 86.4183 248.694C87.1508 248.152 87.6709 247.471 87.9786 246.65L90.6597 247.903C90.3813 248.679 89.9198 249.397 89.2752 250.057C88.6306 250.701 87.8394 251.221 86.9018 251.617C85.9788 252.012 84.9313 252.21 83.7592 252.21ZM98.4754 252.21C97.3033 252.21 96.2338 251.939 95.2669 251.397C94.3146 250.855 93.5528 250.115 92.9814 249.178C92.4247 248.24 92.1463 247.17 92.1463 245.969C92.1463 244.768 92.4247 243.698 92.9814 242.761C93.5528 241.823 94.3146 241.083 95.2669 240.541C96.2192 239.999 97.2887 239.728 98.4754 239.728C99.6474 239.728 100.71 239.999 101.662 240.541C102.614 241.083 103.369 241.823 103.925 242.761C104.497 243.684 104.783 244.753 104.783 245.969C104.783 247.17 104.497 248.24 103.925 249.178C103.354 250.115 102.592 250.855 101.64 251.397C100.688 251.939 99.6328 252.21 98.4754 252.21ZM98.4754 249.573C99.12 249.573 99.6841 249.419 100.168 249.112C100.666 248.804 101.054 248.379 101.332 247.837C101.625 247.28 101.772 246.658 101.772 245.969C101.772 245.266 101.625 244.651 101.332 244.123C101.054 243.581 100.666 243.156 100.168 242.848C99.6841 242.526 99.12 242.365 98.4754 242.365C97.8161 242.365 97.2374 242.526 96.7393 242.848C96.2412 243.156 95.8456 243.581 95.5526 244.123C95.2742 244.651 95.135 245.266 95.135 245.969C95.135 246.658 95.2742 247.28 95.5526 247.837C95.8456 248.379 96.2412 248.804 96.7393 249.112C97.2374 249.419 97.8161 249.573 98.4754 249.573ZM106.966 251.947V239.992H109.669V242.761L109.361 242.299C109.581 241.435 110.02 240.79 110.68 240.365C111.339 239.94 112.115 239.728 113.009 239.728C113.991 239.728 114.855 239.984 115.602 240.497C116.349 241.01 116.833 241.684 117.053 242.519L116.24 242.585C116.606 241.632 117.155 240.922 117.888 240.453C118.62 239.97 119.463 239.728 120.415 239.728C121.265 239.728 122.019 239.918 122.679 240.299C123.352 240.68 123.88 241.215 124.261 241.904C124.642 242.577 124.832 243.361 124.832 244.255V251.947H121.953V244.936C121.953 244.409 121.858 243.955 121.668 243.574C121.477 243.193 121.213 242.9 120.876 242.695C120.54 242.475 120.129 242.365 119.646 242.365C119.192 242.365 118.789 242.475 118.437 242.695C118.086 242.9 117.814 243.193 117.624 243.574C117.434 243.955 117.338 244.409 117.338 244.936V251.947H114.459V244.936C114.459 244.409 114.364 243.955 114.174 243.574C113.983 243.193 113.712 242.9 113.361 242.695C113.024 242.475 112.621 242.365 112.152 242.365C111.698 242.365 111.295 242.475 110.943 242.695C110.592 242.9 110.321 243.193 110.13 243.574C109.94 243.955 109.845 244.409 109.845 244.936V251.947H106.966ZM127.268 251.947V239.992H129.971V242.761L129.663 242.299C129.883 241.435 130.322 240.79 130.982 240.365C131.641 239.94 132.417 239.728 133.311 239.728C134.293 239.728 135.157 239.984 135.904 240.497C136.651 241.01 137.135 241.684 137.355 242.519L136.542 242.585C136.908 241.632 137.457 240.922 138.19 240.453C138.922 239.97 139.765 239.728 140.717 239.728C141.567 239.728 142.321 239.918 142.981 240.299C143.654 240.68 144.182 241.215 144.563 241.904C144.944 242.577 145.134 243.361 145.134 244.255V251.947H142.255V244.936C142.255 244.409 142.16 243.955 141.97 243.574C141.779 243.193 141.515 242.9 141.179 242.695C140.842 242.475 140.431 242.365 139.948 242.365C139.494 242.365 139.091 242.475 138.739 242.695C138.388 242.9 138.117 243.193 137.926 243.574C137.736 243.955 137.64 244.409 137.64 244.936V251.947H134.762V244.936C134.762 244.409 134.666 243.955 134.476 243.574C134.285 243.193 134.014 242.9 133.663 242.695C133.326 242.475 132.923 242.365 132.454 242.365C132 242.365 131.597 242.475 131.245 242.695C130.894 242.9 130.623 243.193 130.432 243.574C130.242 243.955 130.147 244.409 130.147 244.936V251.947H127.268ZM147.57 251.947V239.992H150.449V251.947H147.57ZM147.57 238.651V235.574H150.449V238.651H147.57ZM157.656 252.21C156.381 252.21 155.268 251.91 154.315 251.309C153.378 250.694 152.733 249.866 152.381 248.826L154.535 247.793C154.843 248.467 155.268 248.994 155.81 249.375C156.366 249.756 156.982 249.947 157.656 249.947C158.183 249.947 158.601 249.83 158.908 249.595C159.216 249.361 159.37 249.053 159.37 248.672C159.37 248.438 159.304 248.247 159.172 248.101C159.055 247.94 158.886 247.808 158.667 247.705C158.461 247.588 158.234 247.493 157.985 247.419L156.029 246.87C155.019 246.577 154.249 246.13 153.722 245.53C153.209 244.929 152.953 244.218 152.953 243.398C152.953 242.665 153.136 242.028 153.502 241.486C153.883 240.929 154.403 240.497 155.063 240.189C155.736 239.882 156.506 239.728 157.37 239.728C158.498 239.728 159.494 239.999 160.359 240.541C161.223 241.083 161.838 241.845 162.205 242.826L160.007 243.859C159.802 243.317 159.458 242.885 158.974 242.563C158.491 242.24 157.949 242.079 157.348 242.079C156.865 242.079 156.484 242.189 156.205 242.409C155.927 242.629 155.788 242.914 155.788 243.266C155.788 243.486 155.846 243.676 155.964 243.837C156.081 243.999 156.242 244.13 156.447 244.233C156.667 244.336 156.916 244.431 157.194 244.519L159.106 245.09C160.088 245.383 160.842 245.823 161.37 246.409C161.912 246.995 162.183 247.712 162.183 248.562C162.183 249.28 161.992 249.917 161.611 250.474C161.23 251.016 160.703 251.441 160.029 251.749C159.355 252.056 158.564 252.21 157.656 252.21ZM168.944 252.21C167.67 252.21 166.556 251.91 165.604 251.309C164.666 250.694 164.022 249.866 163.67 248.826L165.824 247.793C166.131 248.467 166.556 248.994 167.098 249.375C167.655 249.756 168.27 249.947 168.944 249.947C169.472 249.947 169.889 249.83 170.197 249.595C170.504 249.361 170.658 249.053 170.658 248.672C170.658 248.438 170.592 248.247 170.46 248.101C170.343 247.94 170.175 247.808 169.955 247.705C169.75 247.588 169.523 247.493 169.274 247.419L167.318 246.87C166.307 246.577 165.538 246.13 165.01 245.53C164.498 244.929 164.241 244.218 164.241 243.398C164.241 242.665 164.424 242.028 164.791 241.486C165.172 240.929 165.692 240.497 166.351 240.189C167.025 239.882 167.794 239.728 168.658 239.728C169.787 239.728 170.783 239.999 171.647 240.541C172.512 241.083 173.127 241.845 173.493 242.826L171.296 243.859C171.09 243.317 170.746 242.885 170.263 242.563C169.779 242.24 169.237 242.079 168.636 242.079C168.153 242.079 167.772 242.189 167.494 242.409C167.215 242.629 167.076 242.914 167.076 243.266C167.076 243.486 167.135 243.676 167.252 243.837C167.369 243.999 167.53 244.13 167.735 244.233C167.955 244.336 168.204 244.431 168.483 244.519L170.395 245.09C171.376 245.383 172.131 245.823 172.658 246.409C173.2 246.995 173.471 247.712 173.471 248.562C173.471 249.28 173.281 249.917 172.9 250.474C172.519 251.016 171.991 251.441 171.318 251.749C170.644 252.056 169.852 252.21 168.944 252.21ZM175.684 251.947V239.992H178.562V251.947H175.684ZM175.684 238.651V235.574H178.562V238.651H175.684ZM187.066 252.21C185.894 252.21 184.825 251.939 183.858 251.397C182.905 250.855 182.143 250.115 181.572 249.178C181.015 248.24 180.737 247.17 180.737 245.969C180.737 244.768 181.015 243.698 181.572 242.761C182.143 241.823 182.905 241.083 183.858 240.541C184.81 239.999 185.879 239.728 187.066 239.728C188.238 239.728 189.3 239.999 190.253 240.541C191.205 241.083 191.959 241.823 192.516 242.761C193.088 243.684 193.373 244.753 193.373 245.969C193.373 247.17 193.088 248.24 192.516 249.178C191.945 250.115 191.183 250.855 190.231 251.397C189.278 251.939 188.223 252.21 187.066 252.21ZM187.066 249.573C187.711 249.573 188.275 249.419 188.758 249.112C189.256 248.804 189.645 248.379 189.923 247.837C190.216 247.28 190.362 246.658 190.362 245.969C190.362 245.266 190.216 244.651 189.923 244.123C189.645 243.581 189.256 243.156 188.758 242.848C188.275 242.526 187.711 242.365 187.066 242.365C186.407 242.365 185.828 242.526 185.33 242.848C184.832 243.156 184.436 243.581 184.143 244.123C183.865 244.651 183.726 245.266 183.726 245.969C183.726 246.658 183.865 247.28 184.143 247.837C184.436 248.379 184.832 248.804 185.33 249.112C185.828 249.419 186.407 249.573 187.066 249.573ZM195.556 251.947V239.992H198.259V242.343L198.04 241.925C198.318 241.208 198.772 240.666 199.402 240.299C200.047 239.918 200.794 239.728 201.644 239.728C202.523 239.728 203.299 239.918 203.973 240.299C204.662 240.68 205.197 241.215 205.577 241.904C205.958 242.577 206.149 243.361 206.149 244.255V251.947H203.27V244.936C203.27 244.409 203.167 243.955 202.962 243.574C202.757 243.193 202.471 242.9 202.105 242.695C201.754 242.475 201.336 242.365 200.853 242.365C200.384 242.365 199.966 242.475 199.6 242.695C199.234 242.9 198.948 243.193 198.743 243.574C198.538 243.955 198.435 244.409 198.435 244.936V251.947H195.556Z" fill="white"/>
<g filter="url(#filter1_b_499_104)">
<rect x="468" y="285" width="181.857" height="67" rx="33.5" fill="white" fill-opacity="0.14"/>
<rect x="468.598" y="285.598" width="180.661" height="65.8036" rx="32.9018" stroke="url(#paint1_linear_499_104)" stroke-width="1.19643"/>
</g>
<path d="M500.536 327V311.102H503.439V324.439H510.246V327H500.536ZM517.564 327.256C516.426 327.256 515.388 326.993 514.449 326.467C513.524 325.94 512.784 325.222 512.23 324.311C511.689 323.401 511.419 322.362 511.419 321.196C511.419 320.029 511.689 318.991 512.23 318.08C512.784 317.17 513.524 316.451 514.449 315.925C515.373 315.399 516.412 315.136 517.564 315.136C518.702 315.136 519.734 315.399 520.658 315.925C521.583 316.451 522.316 317.17 522.856 318.08C523.411 318.977 523.689 320.015 523.689 321.196C523.689 322.362 523.411 323.401 522.856 324.311C522.302 325.222 521.562 325.94 520.637 326.467C519.712 326.993 518.688 327.256 517.564 327.256ZM517.564 324.695C518.19 324.695 518.738 324.546 519.207 324.247C519.691 323.949 520.068 323.536 520.338 323.01C520.623 322.469 520.765 321.864 520.765 321.196C520.765 320.513 520.623 319.915 520.338 319.403C520.068 318.877 519.691 318.464 519.207 318.166C518.738 317.853 518.19 317.696 517.564 317.696C516.924 317.696 516.362 317.853 515.878 318.166C515.395 318.464 515.011 318.877 514.726 319.403C514.456 319.915 514.321 320.513 514.321 321.196C514.321 321.864 514.456 322.469 514.726 323.01C515.011 323.536 515.395 323.949 515.878 324.247C516.362 324.546 516.924 324.695 517.564 324.695ZM528.524 327L524.533 315.392H527.478L530.401 324.205L529.377 324.183L532.493 315.392H534.968L538.062 324.183L537.038 324.205L539.961 315.392H542.906L538.916 327H536.419L533.261 317.803H534.2L530.999 327H528.524ZM548.466 327V311.102H551.24L557.193 319.19H555.87L561.696 311.102H564.47V327H561.547V314.41L562.678 314.687L556.639 322.732H556.297L550.408 314.687L551.368 314.41V327H548.466ZM570.799 327.256C569.988 327.256 569.284 327.121 568.686 326.851C568.089 326.58 567.626 326.196 567.299 325.698C566.972 325.186 566.808 324.596 566.808 323.927C566.808 323.287 566.951 322.718 567.235 322.22C567.52 321.708 567.961 321.281 568.558 320.94C569.156 320.598 569.91 320.356 570.82 320.214L574.618 319.595V321.729L571.354 322.284C570.799 322.384 570.386 322.561 570.116 322.818C569.846 323.074 569.71 323.408 569.71 323.82C569.71 324.219 569.86 324.539 570.159 324.781C570.472 325.008 570.856 325.122 571.311 325.122C571.894 325.122 572.406 325.001 572.847 324.759C573.303 324.503 573.651 324.155 573.893 323.714C574.149 323.273 574.277 322.789 574.277 322.263V319.275C574.277 318.777 574.078 318.365 573.679 318.038C573.295 317.696 572.783 317.525 572.143 317.525C571.546 317.525 571.012 317.689 570.543 318.016C570.087 318.329 569.753 318.749 569.54 319.275L567.256 318.166C567.484 317.554 567.84 317.028 568.323 316.587C568.821 316.131 569.405 315.776 570.073 315.52C570.742 315.264 571.467 315.136 572.25 315.136C573.203 315.136 574.042 315.313 574.768 315.669C575.493 316.01 576.055 316.494 576.454 317.12C576.866 317.732 577.072 318.45 577.072 319.275V327H574.426V325.015L575.024 324.973C574.725 325.471 574.369 325.89 573.957 326.232C573.544 326.559 573.075 326.815 572.549 327C572.022 327.171 571.439 327.256 570.799 327.256ZM579.656 327V315.392H582.281V317.974L582.067 317.59C582.338 316.722 582.757 316.117 583.326 315.776C583.91 315.434 584.607 315.264 585.418 315.264H586.1V317.739H585.098C584.301 317.739 583.661 317.988 583.177 318.486C582.693 318.969 582.451 319.652 582.451 320.534V327H579.656ZM593.271 331.695C592.403 331.695 591.599 331.552 590.86 331.268C590.12 330.983 589.48 330.585 588.939 330.073C588.413 329.575 588.029 328.985 587.787 328.302L590.39 327.32C590.561 327.861 590.895 328.295 591.393 328.622C591.905 328.963 592.531 329.134 593.271 329.134C593.84 329.134 594.338 329.027 594.765 328.814C595.206 328.6 595.547 328.287 595.789 327.875C596.031 327.477 596.152 326.993 596.152 326.424V323.778L596.685 324.418C596.287 325.115 595.753 325.641 595.085 325.997C594.416 326.353 593.655 326.531 592.801 326.531C591.72 326.531 590.753 326.282 589.899 325.784C589.046 325.286 588.377 324.603 587.893 323.735C587.41 322.867 587.168 321.893 587.168 320.812C587.168 319.716 587.41 318.742 587.893 317.888C588.377 317.035 589.039 316.366 589.878 315.882C590.717 315.384 591.67 315.136 592.737 315.136C593.605 315.136 594.366 315.32 595.021 315.69C595.689 316.046 596.244 316.565 596.685 317.248L596.301 317.952V315.392H598.947V326.424C598.947 327.434 598.698 328.337 598.2 329.134C597.716 329.931 597.048 330.556 596.194 331.012C595.355 331.467 594.38 331.695 593.271 331.695ZM593.143 323.949C593.74 323.949 594.26 323.82 594.701 323.564C595.156 323.294 595.511 322.924 595.768 322.455C596.024 321.985 596.152 321.445 596.152 320.833C596.152 320.236 596.016 319.702 595.746 319.233C595.49 318.749 595.134 318.372 594.679 318.102C594.238 317.831 593.726 317.696 593.143 317.696C592.56 317.696 592.033 317.831 591.564 318.102C591.094 318.372 590.724 318.749 590.454 319.233C590.198 319.702 590.07 320.236 590.07 320.833C590.07 321.431 590.198 321.964 590.454 322.433C590.724 322.903 591.087 323.273 591.542 323.543C592.012 323.813 592.545 323.949 593.143 323.949ZM601.558 327V315.392H604.353V327H601.558ZM601.558 314.09V311.102H604.353V314.09H601.558ZM606.934 327V315.392H609.559V317.675L609.345 317.269C609.616 316.572 610.057 316.046 610.668 315.69C611.294 315.32 612.02 315.136 612.845 315.136C613.699 315.136 614.453 315.32 615.107 315.69C615.776 316.06 616.295 316.579 616.665 317.248C617.035 317.902 617.22 318.664 617.22 319.531V327H614.424V320.193C614.424 319.681 614.325 319.24 614.125 318.87C613.926 318.5 613.649 318.215 613.293 318.016C612.952 317.803 612.546 317.696 612.077 317.696C611.622 317.696 611.216 317.803 610.861 318.016C610.505 318.215 610.227 318.5 610.028 318.87C609.829 319.24 609.73 319.681 609.73 320.193V327H606.934Z" fill="white"/>
<g filter="url(#filter2_b_499_104)">
<rect x="390" width="252" height="67" rx="33.5" fill="white" fill-opacity="0.14"/>
<rect x="390.598" y="0.598214" width="250.804" height="65.8036" rx="32.9018" stroke="url(#paint2_linear_499_104)" stroke-width="1.19643"/>
</g>
<path d="M432.382 42.3392V29.0024H428.263V26.4417H439.36V29.0024H435.305V42.3392H432.382ZM440.896 42.3392V30.7308H443.691V42.3392H440.896ZM440.896 29.4291V26.4417H443.691V29.4291H440.896ZM451.906 47.0338C451.038 47.0338 450.234 46.8916 449.495 46.607C448.755 46.3225 448.115 45.9242 447.574 45.412C447.048 44.9141 446.664 44.3238 446.422 43.6409L449.025 42.6593C449.196 43.1999 449.53 43.6338 450.028 43.961C450.54 44.3024 451.166 44.4731 451.906 44.4731C452.475 44.4731 452.973 44.3664 453.4 44.153C453.841 43.9397 454.182 43.6267 454.424 43.2141C454.666 42.8158 454.787 42.3321 454.787 41.7631V39.117L455.32 39.7572C454.922 40.4543 454.388 40.9807 453.72 41.3363C453.051 41.692 452.29 41.8698 451.436 41.8698C450.355 41.8698 449.388 41.6208 448.534 41.1229C447.681 40.625 447.012 39.9422 446.529 39.0744C446.045 38.2066 445.803 37.2321 445.803 36.1509C445.803 35.0555 446.045 34.081 446.529 33.2275C447.012 32.3739 447.674 31.7053 448.513 31.2216C449.352 30.7237 450.306 30.4747 451.372 30.4747C452.24 30.4747 453.001 30.6597 453.656 31.0296C454.324 31.3852 454.879 31.9045 455.32 32.5873L454.936 33.2915V30.7308H457.582V41.7631C457.582 42.7731 457.333 43.6765 456.835 44.4731C456.352 45.2698 455.683 45.8957 454.829 46.351C453.99 46.8062 453.016 47.0338 451.906 47.0338ZM451.778 39.2878C452.375 39.2878 452.895 39.1597 453.336 38.9037C453.791 38.6334 454.147 38.2635 454.403 37.794C454.659 37.3246 454.787 36.784 454.787 36.1723C454.787 35.5748 454.652 35.0413 454.381 34.5718C454.125 34.0882 453.77 33.7112 453.314 33.4409C452.873 33.1706 452.361 33.0354 451.778 33.0354C451.195 33.0354 450.668 33.1706 450.199 33.4409C449.729 33.7112 449.359 34.0882 449.089 34.5718C448.833 35.0413 448.705 35.5748 448.705 36.1723C448.705 36.7698 448.833 37.3032 449.089 37.7727C449.359 38.2421 449.722 38.612 450.177 38.8823C450.647 39.1526 451.18 39.2878 451.778 39.2878ZM460.193 42.3392V26.1856H462.988V33.0141L462.604 32.6086C462.874 31.9116 463.315 31.3852 463.927 31.0296C464.553 30.6597 465.279 30.4747 466.104 30.4747C466.957 30.4747 467.711 30.6597 468.366 31.0296C469.034 31.3994 469.554 31.9187 469.923 32.5873C470.293 33.2417 470.478 34.0028 470.478 34.8706V42.3392H467.683V35.5321C467.683 35.02 467.583 34.579 467.384 34.2091C467.185 33.8392 466.907 33.5547 466.552 33.3555C466.21 33.1421 465.805 33.0354 465.336 33.0354C464.88 33.0354 464.475 33.1421 464.119 33.3555C463.764 33.5547 463.486 33.8392 463.287 34.2091C463.088 34.579 462.988 35.02 462.988 35.5321V42.3392H460.193ZM478.134 42.4673C476.825 42.4673 475.808 42.1116 475.083 41.4003C474.371 40.6748 474.016 39.6576 474.016 38.3488V33.2275H472.01V30.7308H472.223C472.792 30.7308 473.233 30.5814 473.546 30.2827C473.859 29.984 474.016 29.5501 474.016 28.981V28.0848H476.811V30.7308H479.478V33.2275H476.811V38.1995C476.811 38.5836 476.875 38.9108 477.003 39.1811C477.145 39.4514 477.359 39.6576 477.643 39.7999C477.942 39.9422 478.319 40.0133 478.774 40.0133C478.874 40.0133 478.988 40.0062 479.116 39.9919C479.258 39.9777 479.393 39.9635 479.521 39.9493V42.3392C479.322 42.3677 479.094 42.3961 478.838 42.4246C478.582 42.453 478.347 42.4673 478.134 42.4673ZM487.058 42.5953C485.863 42.5953 484.818 42.325 483.921 41.7844C483.025 41.2438 482.328 40.5112 481.83 39.5865C481.332 38.6618 481.083 37.6375 481.083 36.5137C481.083 35.3472 481.332 34.3158 481.83 33.4195C482.342 32.5091 483.032 31.7907 483.9 31.2643C484.782 30.7379 485.764 30.4747 486.845 30.4747C487.755 30.4747 488.552 30.6241 489.235 30.9229C489.932 31.2216 490.522 31.6342 491.006 32.1605C491.49 32.6869 491.859 33.2915 492.115 33.9743C492.372 34.643 492.5 35.3685 492.5 36.1509C492.5 36.3501 492.485 36.5564 492.457 36.7698C492.443 36.9831 492.407 37.1681 492.35 37.3246H483.388V35.1907H490.771L489.448 36.1936C489.576 35.5392 489.541 34.9559 489.341 34.4438C489.156 33.9317 488.843 33.5262 488.402 33.2275C487.976 32.9287 487.456 32.7794 486.845 32.7794C486.261 32.7794 485.742 32.9287 485.287 33.2275C484.832 33.512 484.483 33.9388 484.241 34.5078C484.014 35.0626 483.928 35.7384 483.985 36.535C483.928 37.2463 484.021 37.8794 484.263 38.4342C484.519 38.9748 484.889 39.3945 485.372 39.6932C485.87 39.9919 486.439 40.1413 487.079 40.1413C487.72 40.1413 488.26 40.0062 488.701 39.7359C489.156 39.4656 489.512 39.1028 489.768 38.6476L492.03 39.7572C491.802 40.312 491.447 40.8028 490.963 41.2296C490.479 41.6564 489.903 41.9907 489.235 42.2325C488.58 42.4744 487.855 42.5953 487.058 42.5953ZM499.036 42.5953C497.798 42.5953 496.717 42.3037 495.792 41.7204C494.882 41.1229 494.256 40.3191 493.914 39.3091L496.006 38.3062C496.304 38.9606 496.717 39.4727 497.243 39.8426C497.784 40.2124 498.381 40.3974 499.036 40.3974C499.548 40.3974 499.953 40.2836 500.252 40.056C500.551 39.8283 500.7 39.5296 500.7 39.1597C500.7 38.9321 500.636 38.7472 500.508 38.6049C500.394 38.4484 500.231 38.3204 500.017 38.2208C499.818 38.107 499.598 38.0145 499.356 37.9434L497.457 37.4099C496.475 37.1254 495.728 36.6915 495.216 36.1082C494.718 35.525 494.469 34.835 494.469 34.0384C494.469 33.3271 494.647 32.7082 495.003 32.1819C495.373 31.6413 495.878 31.2216 496.518 30.9229C497.172 30.6241 497.919 30.4747 498.758 30.4747C499.854 30.4747 500.821 30.7379 501.66 31.2643C502.5 31.7907 503.097 32.5304 503.453 33.4835L501.319 34.4865C501.12 33.9601 500.786 33.5405 500.316 33.2275C499.847 32.9145 499.32 32.758 498.737 32.758C498.268 32.758 497.898 32.8647 497.627 33.0781C497.357 33.2915 497.222 33.5689 497.222 33.9103C497.222 34.1237 497.279 34.3087 497.393 34.4651C497.506 34.6216 497.663 34.7497 497.862 34.8492C498.076 34.9488 498.317 35.0413 498.588 35.1267L500.444 35.6815C501.397 35.966 502.13 36.3928 502.642 36.9618C503.168 37.5308 503.432 38.2279 503.432 39.053C503.432 39.7501 503.247 40.3689 502.877 40.9095C502.507 41.4359 501.995 41.8484 501.34 42.1472C500.686 42.4459 499.918 42.5953 499.036 42.5953ZM510.872 42.4673C509.563 42.4673 508.546 42.1116 507.82 41.4003C507.109 40.6748 506.753 39.6576 506.753 38.3488V33.2275H504.748V30.7308H504.961C505.53 30.7308 505.971 30.5814 506.284 30.2827C506.597 29.984 506.753 29.5501 506.753 28.981V28.0848H509.549V30.7308H512.216V33.2275H509.549V38.1995C509.549 38.5836 509.613 38.9108 509.741 39.1811C509.883 39.4514 510.097 39.6576 510.381 39.7999C510.68 39.9422 511.057 40.0133 511.512 40.0133C511.612 40.0133 511.725 40.0062 511.854 39.9919C511.996 39.9777 512.131 39.9635 512.259 39.9493V42.3392C512.06 42.3677 511.832 42.3961 511.576 42.4246C511.32 42.453 511.085 42.4673 510.872 42.4673ZM524.098 42.5953C523.088 42.5953 522.149 42.4104 521.282 42.0405C520.428 41.6706 519.688 41.1585 519.062 40.5041C518.451 39.8355 518.002 39.0601 517.718 38.1781L520.129 37.1325C520.513 38.043 521.068 38.7614 521.794 39.2878C522.519 39.7999 523.337 40.056 524.248 40.056C524.76 40.056 525.201 39.9777 525.571 39.8212C525.955 39.6505 526.246 39.4229 526.446 39.1384C526.659 38.8539 526.766 38.5124 526.766 38.1141C526.766 37.6447 526.623 37.2606 526.339 36.9618C526.069 36.6488 525.656 36.407 525.101 36.2363L522.05 35.2547C520.812 34.8706 519.88 34.2944 519.254 33.5262C518.628 32.758 518.315 31.8547 518.315 30.8162C518.315 29.9057 518.536 29.1019 518.977 28.4049C519.432 27.7078 520.058 27.1672 520.855 26.7831C521.666 26.3848 522.59 26.1856 523.629 26.1856C524.582 26.1856 525.457 26.3563 526.254 26.6977C527.05 27.0249 527.733 27.4873 528.302 28.0848C528.885 28.668 529.319 29.358 529.604 30.1547L527.214 31.2216C526.901 30.425 526.431 29.8132 525.805 29.3865C525.179 28.9455 524.454 28.725 523.629 28.725C523.145 28.725 522.718 28.8103 522.348 28.981C521.979 29.1375 521.687 29.3651 521.474 29.6639C521.274 29.9484 521.175 30.2898 521.175 30.6881C521.175 31.1291 521.317 31.5204 521.602 31.8618C521.886 32.189 522.32 32.4451 522.903 32.63L525.827 33.5476C527.093 33.9601 528.039 34.5292 528.665 35.2547C529.305 35.9802 529.625 36.8764 529.625 37.9434C529.625 38.8539 529.39 39.6576 528.921 40.3547C528.451 41.0518 527.804 41.5995 526.979 41.9978C526.154 42.3961 525.194 42.5953 524.098 42.5953ZM532.004 46.607V30.7308H534.628V33.0354L534.372 32.4593C534.77 31.8333 535.311 31.3496 535.994 31.0082C536.677 30.6526 537.466 30.4747 538.363 30.4747C539.458 30.4747 540.447 30.745 541.329 31.2856C542.211 31.8262 542.908 32.5517 543.42 33.4622C543.946 34.3727 544.209 35.3969 544.209 36.535C544.209 37.6589 543.953 38.6832 543.441 39.6078C542.929 40.5325 542.232 41.2652 541.35 41.8058C540.468 42.3321 539.465 42.5953 538.341 42.5953C537.502 42.5953 536.727 42.4317 536.015 42.1045C535.318 41.7631 534.763 41.2794 534.351 40.6535L534.799 40.0986V46.607H532.004ZM538.021 40.0346C538.661 40.0346 539.23 39.8852 539.728 39.5865C540.226 39.2878 540.61 38.8752 540.881 38.3488C541.165 37.8225 541.307 37.2179 541.307 36.535C541.307 35.8522 541.165 35.2547 540.881 34.7425C540.61 34.2162 540.226 33.8036 539.728 33.5049C539.23 33.1919 538.661 33.0354 538.021 33.0354C537.409 33.0354 536.855 33.1848 536.357 33.4835C535.873 33.7823 535.489 34.202 535.204 34.7425C534.934 35.2689 534.799 35.8664 534.799 36.535C534.799 37.2179 534.934 37.8225 535.204 38.3488C535.489 38.8752 535.873 39.2878 536.357 39.5865C536.855 39.8852 537.409 40.0346 538.021 40.0346ZM546.341 42.3392V30.7308H548.965V33.3128L548.752 32.9287C549.022 32.0609 549.442 31.4563 550.011 31.1149C550.594 30.7735 551.291 30.6028 552.102 30.6028H552.785V33.0781H551.782C550.985 33.0781 550.345 33.3271 549.862 33.825C549.378 34.3087 549.136 34.9915 549.136 35.8735V42.3392H546.341ZM559.827 42.5953C558.632 42.5953 557.587 42.325 556.691 41.7844C555.794 41.2438 555.097 40.5112 554.599 39.5865C554.101 38.6618 553.852 37.6375 553.852 36.5137C553.852 35.3472 554.101 34.3158 554.599 33.4195C555.112 32.5091 555.801 31.7907 556.669 31.2643C557.551 30.7379 558.533 30.4747 559.614 30.4747C560.524 30.4747 561.321 30.6241 562.004 30.9229C562.701 31.2216 563.291 31.6342 563.775 32.1605C564.259 32.6869 564.629 33.2915 564.885 33.9743C565.141 34.643 565.269 35.3685 565.269 36.1509C565.269 36.3501 565.255 36.5564 565.226 36.7698C565.212 36.9831 565.176 37.1681 565.119 37.3246H556.157V35.1907H563.54L562.217 36.1936C562.345 35.5392 562.31 34.9559 562.111 34.4438C561.926 33.9317 561.613 33.5262 561.172 33.2275C560.745 32.9287 560.226 32.7794 559.614 32.7794C559.031 32.7794 558.512 32.9287 558.056 33.2275C557.601 33.512 557.253 33.9388 557.011 34.5078C556.783 35.0626 556.698 35.7384 556.755 36.535C556.698 37.2463 556.79 37.8794 557.032 38.4342C557.288 38.9748 557.658 39.3945 558.142 39.6932C558.64 39.9919 559.209 40.1413 559.849 40.1413C560.489 40.1413 561.03 40.0062 561.471 39.7359C561.926 39.4656 562.281 39.1028 562.537 38.6476L564.799 39.7572C564.572 40.312 564.216 40.8028 563.732 41.2296C563.249 41.6564 562.673 41.9907 562.004 42.2325C561.35 42.4744 560.624 42.5953 559.827 42.5953ZM570.867 42.5953C570.056 42.5953 569.352 42.4602 568.755 42.1899C568.157 41.9196 567.695 41.5355 567.368 41.0376C567.04 40.5254 566.877 39.935 566.877 39.2664C566.877 38.6262 567.019 38.0572 567.304 37.5593C567.588 37.0472 568.029 36.6204 568.627 36.279C569.224 35.9375 569.978 35.6957 570.889 35.5534L574.687 34.9346V37.0685L571.422 37.6233C570.867 37.7229 570.455 37.9007 570.184 38.1568C569.914 38.4129 569.779 38.7472 569.779 39.1597C569.779 39.5581 569.928 39.8781 570.227 40.12C570.54 40.3476 570.924 40.4614 571.379 40.4614C571.963 40.4614 572.475 40.3405 572.916 40.0986C573.371 39.8426 573.719 39.494 573.961 39.053C574.217 38.612 574.345 38.1283 574.345 37.602V34.6145C574.345 34.1166 574.146 33.7041 573.748 33.3769C573.364 33.0354 572.852 32.8647 572.212 32.8647C571.614 32.8647 571.081 33.0283 570.611 33.3555C570.156 33.6685 569.822 34.0882 569.608 34.6145L567.325 33.5049C567.553 32.8932 567.908 32.3668 568.392 31.9258C568.89 31.4706 569.473 31.1149 570.142 30.8589C570.81 30.6028 571.536 30.4747 572.318 30.4747C573.271 30.4747 574.111 30.6526 574.836 31.0082C575.562 31.3496 576.124 31.8333 576.522 32.4593C576.935 33.071 577.141 33.7894 577.141 34.6145V42.3392H574.495V40.3547L575.092 40.312C574.794 40.8099 574.438 41.2296 574.025 41.571C573.613 41.8982 573.143 42.1543 572.617 42.3392C572.091 42.5099 571.507 42.5953 570.867 42.5953ZM585.123 42.5953C583.999 42.5953 582.997 42.3321 582.114 41.8058C581.232 41.2652 580.535 40.5325 580.023 39.6078C579.511 38.6832 579.255 37.6589 579.255 36.535C579.255 35.3969 579.511 34.3727 580.023 33.4622C580.535 32.5517 581.232 31.8262 582.114 31.2856C583.011 30.745 584.007 30.4747 585.102 30.4747C585.984 30.4747 586.766 30.6526 587.449 31.0082C588.146 31.3496 588.694 31.8333 589.092 32.4593L588.666 33.0354V26.1856H591.461V42.3392H588.815V40.0986L589.114 40.6535C588.715 41.2794 588.161 41.7631 587.449 42.1045C586.738 42.4317 585.963 42.5953 585.123 42.5953ZM585.422 40.0346C586.062 40.0346 586.624 39.8852 587.108 39.5865C587.592 39.2878 587.968 38.8752 588.239 38.3488C588.523 37.8225 588.666 37.2179 588.666 36.535C588.666 35.8664 588.523 35.2689 588.239 34.7425C587.968 34.202 587.592 33.7823 587.108 33.4835C586.624 33.1848 586.062 33.0354 585.422 33.0354C584.796 33.0354 584.234 33.1919 583.736 33.5049C583.238 33.8036 582.847 34.2162 582.563 34.7425C582.292 35.2547 582.157 35.8522 582.157 36.535C582.157 37.2179 582.292 37.8225 582.563 38.3488C582.847 38.8752 583.238 39.2878 583.736 39.5865C584.234 39.8852 584.796 40.0346 585.422 40.0346ZM598.479 42.5953C597.241 42.5953 596.16 42.3037 595.235 41.7204C594.325 41.1229 593.699 40.3191 593.357 39.3091L595.449 38.3062C595.747 38.9606 596.16 39.4727 596.686 39.8426C597.227 40.2124 597.824 40.3974 598.479 40.3974C598.991 40.3974 599.396 40.2836 599.695 40.056C599.994 39.8283 600.143 39.5296 600.143 39.1597C600.143 38.9321 600.079 38.7472 599.951 38.6049C599.837 38.4484 599.674 38.3204 599.46 38.2208C599.261 38.107 599.041 38.0145 598.799 37.9434L596.9 37.4099C595.918 37.1254 595.171 36.6915 594.659 36.1082C594.161 35.525 593.912 34.835 593.912 34.0384C593.912 33.3271 594.09 32.7082 594.446 32.1819C594.816 31.6413 595.321 31.2216 595.961 30.9229C596.615 30.6241 597.362 30.4747 598.201 30.4747C599.297 30.4747 600.264 30.7379 601.104 31.2643C601.943 31.7907 602.54 32.5304 602.896 33.4835L600.762 34.4865C600.563 33.9601 600.229 33.5405 599.759 33.2275C599.29 32.9145 598.763 32.758 598.18 32.758C597.711 32.758 597.341 32.8647 597.07 33.0781C596.8 33.2915 596.665 33.5689 596.665 33.9103C596.665 34.1237 596.722 34.3087 596.836 34.4651C596.95 34.6216 597.106 34.7497 597.305 34.8492C597.519 34.9488 597.76 35.0413 598.031 35.1267L599.887 35.6815C600.84 35.966 601.573 36.3928 602.085 36.9618C602.611 37.5308 602.875 38.2279 602.875 39.053C602.875 39.7501 602.69 40.3689 602.32 40.9095C601.95 41.4359 601.438 41.8484 600.783 42.1472C600.129 42.4459 599.361 42.5953 598.479 42.5953Z" fill="white"/>
<defs>
<filter id="filter0_b_499_104" x="-44.2473" y="164.753" width="327.495" height="157.495" filterUnits="userSpaceOnUse" color-interpolation-filters="sRGB">
<feFlood flood-opacity="0" result="BackgroundImageFix"/>
<feGaussianBlur in="BackgroundImageFix" stdDeviation="22.1236"/>
<feComposite in2="SourceAlpha" operator="in" result="effect1_backgroundBlur_499_104"/>
<feBlend mode="normal" in="SourceGraphic" in2="effect1_backgroundBlur_499_104" result="shape"/>
</filter>
<filter id="filter1_b_499_104" x="425.035" y="242.035" width="267.787" height="152.929" filterUnits="userSpaceOnUse" color-interpolation-filters="sRGB">
<feFlood flood-opacity="0" result="BackgroundImageFix"/>
<feGaussianBlur in="BackgroundImageFix" stdDeviation="21.4824"/>
<feComposite in2="SourceAlpha" operator="in" result="effect1_backgroundBlur_499_104"/>
<feBlend mode="normal" in="SourceGraphic" in2="effect1_backgroundBlur_499_104" result="shape"/>
</filter>
<filter id="filter2_b_499_104" x="347.035" y="-42.9647" width="337.929" height="152.929" filterUnits="userSpaceOnUse" color-interpolation-filters="sRGB">
<feFlood flood-opacity="0" result="BackgroundImageFix"/>
<feGaussianBlur in="BackgroundImageFix" stdDeviation="21.4824"/>
<feComposite in2="SourceAlpha" operator="in" result="effect1_backgroundBlur_499_104"/>
<feBlend mode="normal" in="SourceGraphic" in2="effect1_backgroundBlur_499_104" result="shape"/>
</filter>
<linearGradient id="paint0_linear_499_104" x1="41.6678" y1="218.857" x2="101.328" y2="292.685" gradientUnits="userSpaceOnUse">
<stop stop-color="white"/>
<stop offset="1" stop-color="white" stop-opacity="0"/>
</linearGradient>
<linearGradient id="paint1_linear_499_104" x1="605.589" y1="280.214" x2="500.304" y2="352" gradientUnits="userSpaceOnUse">
<stop stop-color="white"/>
<stop offset="1" stop-color="white" stop-opacity="0"/>
</linearGradient>
<linearGradient id="paint2_linear_499_104" x1="580.658" y1="-4.78573" x2="467.738" y2="101.901" gradientUnits="userSpaceOnUse">
<stop stop-color="white"/>
<stop offset="1" stop-color="white" stop-opacity="0"/>
</linearGradient>
</defs>
</svg>
