<svg width="670" height="345" viewBox="0 0 670 345" fill="none" xmlns="http://www.w3.org/2000/svg">
<g filter="url(#filter0_b_450_1555)">
<path d="M0 257.5C0 238.446 15.4462 223 34.5 223H203.5C222.554 223 238 238.446 238 257.5C238 276.554 222.554 292 203.5 292H34.5C15.4462 292 0 276.554 0 257.5Z" fill="white" fill-opacity="0.14"/>
<path d="M0.616071 257.5C0.616071 238.786 15.7864 223.616 34.5 223.616H203.5C222.214 223.616 237.384 238.786 237.384 257.5C237.384 276.214 222.214 291.384 203.5 291.384H34.5C15.7864 291.384 0.616071 276.214 0.616071 257.5Z" stroke="url(#paint0_linear_450_1555)" stroke-width="1.23214"/>
</g>
<path d="M33.0465 265.947V263.683L37.4857 259.046C38.3647 258.123 39.0387 257.391 39.5075 256.848C39.991 256.292 40.3279 255.816 40.5184 255.42C40.7088 255.024 40.8041 254.622 40.8041 254.211C40.8041 253.523 40.5843 252.981 40.1448 252.585C39.7199 252.19 39.1705 251.992 38.4966 251.992C37.7934 251.992 37.1854 252.197 36.6726 252.607C36.1598 253.003 35.7862 253.589 35.5518 254.365L32.9367 253.552C33.1125 252.688 33.4714 251.941 34.0135 251.311C34.5556 250.666 35.2148 250.175 35.9913 249.838C36.7825 249.487 37.6175 249.311 38.4966 249.311C39.5514 249.311 40.4744 249.501 41.2656 249.882C42.0713 250.263 42.694 250.798 43.1335 251.486C43.5877 252.175 43.8148 252.981 43.8148 253.904C43.8148 254.49 43.7049 255.068 43.4851 255.64C43.2654 256.211 42.9357 256.797 42.4962 257.398C42.0567 257.984 41.4853 258.643 40.7821 259.376L36.9363 263.419H44.0345V265.947H33.0465ZM58.328 266.21C57.156 266.21 56.0718 265.998 55.0756 265.573C54.094 265.148 53.2296 264.555 52.4824 263.793C51.7499 263.031 51.1785 262.137 50.7683 261.112C50.3581 260.086 50.153 258.965 50.153 257.749C50.153 256.533 50.3507 255.413 50.7463 254.387C51.1565 253.347 51.7279 252.453 52.4604 251.706C53.2076 250.944 54.0793 250.358 55.0756 249.948C56.0718 249.523 57.156 249.311 58.328 249.311C59.5001 249.311 60.5476 249.508 61.4706 249.904C62.4082 250.3 63.1994 250.827 63.844 251.486C64.4886 252.131 64.9501 252.842 65.2285 253.618L62.5474 254.871C62.2397 254.05 61.7196 253.376 60.9871 252.849C60.2546 252.307 59.3682 252.036 58.328 252.036C57.3025 252.036 56.3941 252.277 55.603 252.761C54.8265 253.244 54.2185 253.911 53.779 254.761C53.3541 255.61 53.1417 256.607 53.1417 257.749C53.1417 258.892 53.3541 259.896 53.779 260.76C54.2185 261.61 54.8265 262.277 55.603 262.76C56.3941 263.243 57.3025 263.485 58.328 263.485C59.3682 263.485 60.2546 263.222 60.9871 262.694C61.7196 262.152 62.2397 261.471 62.5474 260.65L65.2285 261.903C64.9501 262.679 64.4886 263.397 63.844 264.057C63.1994 264.701 62.4082 265.221 61.4706 265.617C60.5476 266.012 59.5001 266.21 58.328 266.21ZM72.8684 266.21C71.6377 266.21 70.5609 265.932 69.6379 265.375C68.7149 264.818 67.9971 264.064 67.4843 263.112C66.9715 262.159 66.7151 261.104 66.7151 259.947C66.7151 258.746 66.9715 257.684 67.4843 256.761C68.0117 255.823 68.7223 255.083 69.616 254.541C70.5243 253.999 71.5352 253.728 72.6486 253.728C73.5863 253.728 74.4067 253.882 75.1099 254.189C75.8278 254.497 76.4358 254.922 76.934 255.464C77.4321 256.006 77.813 256.629 78.0767 257.332C78.3404 258.021 78.4723 258.768 78.4723 259.573C78.4723 259.779 78.4576 259.991 78.4283 260.211C78.4137 260.431 78.377 260.621 78.3184 260.782H69.0885V258.585H76.6922L75.3297 259.617C75.4616 258.944 75.4249 258.343 75.2198 257.815C75.0294 257.288 74.7071 256.87 74.2529 256.563C73.8134 256.255 73.2786 256.101 72.6486 256.101C72.048 256.101 71.5132 256.255 71.0444 256.563C70.5756 256.856 70.2166 257.295 69.9676 257.881C69.7332 258.453 69.6453 259.149 69.7039 259.969C69.6453 260.702 69.7405 261.354 69.9895 261.925C70.2533 262.482 70.6342 262.914 71.1323 263.222C71.6451 263.529 72.2311 263.683 72.8904 263.683C73.5497 263.683 74.1064 263.544 74.5605 263.265C75.0294 262.987 75.3956 262.614 75.6593 262.145L77.9888 263.287C77.7544 263.859 77.3881 264.364 76.89 264.804C76.3919 265.243 75.7985 265.588 75.1099 265.837C74.436 266.086 73.6888 266.21 72.8684 266.21ZM80.6546 265.947V253.992H83.3576V256.343L83.1379 255.925C83.4162 255.208 83.8704 254.666 84.5004 254.299C85.145 253.918 85.8922 253.728 86.7419 253.728C87.621 253.728 88.3975 253.918 89.0714 254.299C89.76 254.68 90.2947 255.215 90.6756 255.904C91.0566 256.577 91.247 257.361 91.247 258.255V265.947H88.3682V258.936C88.3682 258.409 88.2656 257.955 88.0605 257.574C87.8554 257.193 87.5697 256.9 87.2034 256.695C86.8518 256.475 86.4343 256.365 85.9508 256.365C85.482 256.365 85.0644 256.475 84.6982 256.695C84.3319 256.9 84.0462 257.193 83.8411 257.574C83.636 257.955 83.5334 258.409 83.5334 258.936V265.947H80.6546ZM99.1314 266.078C97.7836 266.078 96.736 265.712 95.9888 264.98C95.2563 264.232 94.89 263.185 94.89 261.837V256.563H92.8243V253.992H93.0441C93.6301 253.992 94.0843 253.838 94.4066 253.53C94.7289 253.222 94.89 252.776 94.89 252.19V251.267H97.7689V253.992H100.516V256.563H97.7689V261.683C97.7689 262.079 97.8348 262.416 97.9667 262.694C98.1132 262.972 98.333 263.185 98.626 263.331C98.9336 263.478 99.3219 263.551 99.7907 263.551C99.8932 263.551 100.01 263.544 100.142 263.529C100.289 263.515 100.428 263.5 100.56 263.485V265.947C100.355 265.976 100.12 266.005 99.8566 266.034C99.5929 266.064 99.3512 266.078 99.1314 266.078ZM107.308 266.21C106.034 266.21 104.92 265.91 103.968 265.309C103.03 264.694 102.386 263.866 102.034 262.826L104.188 261.793C104.495 262.467 104.92 262.994 105.462 263.375C106.019 263.756 106.634 263.947 107.308 263.947C107.836 263.947 108.253 263.83 108.561 263.595C108.869 263.361 109.022 263.053 109.022 262.672C109.022 262.438 108.957 262.247 108.825 262.101C108.708 261.94 108.539 261.808 108.319 261.705C108.114 261.588 107.887 261.493 107.638 261.419L105.682 260.87C104.671 260.577 103.902 260.13 103.375 259.53C102.862 258.929 102.606 258.218 102.606 257.398C102.606 256.665 102.789 256.028 103.155 255.486C103.536 254.929 104.056 254.497 104.715 254.189C105.389 253.882 106.158 253.728 107.023 253.728C108.151 253.728 109.147 253.999 110.011 254.541C110.876 255.083 111.491 255.845 111.857 256.826L109.66 257.859C109.455 257.317 109.11 256.885 108.627 256.563C108.143 256.24 107.601 256.079 107.001 256.079C106.517 256.079 106.136 256.189 105.858 256.409C105.58 256.629 105.44 256.914 105.44 257.266C105.44 257.486 105.499 257.676 105.616 257.837C105.733 257.999 105.895 258.13 106.1 258.233C106.319 258.336 106.569 258.431 106.847 258.519L108.759 259.09C109.74 259.383 110.495 259.823 111.022 260.409C111.564 260.995 111.835 261.712 111.835 262.562C111.835 263.28 111.645 263.917 111.264 264.474C110.883 265.016 110.356 265.441 109.682 265.749C109.008 266.056 108.217 266.21 107.308 266.21ZM127.705 266.21C126.533 266.21 125.464 265.939 124.497 265.397C123.544 264.855 122.783 264.115 122.211 263.178C121.654 262.24 121.376 261.17 121.376 259.969C121.376 258.768 121.654 257.698 122.211 256.761C122.783 255.823 123.544 255.083 124.497 254.541C125.449 253.999 126.518 253.728 127.705 253.728C128.877 253.728 129.939 253.999 130.892 254.541C131.844 255.083 132.598 255.823 133.155 256.761C133.727 257.684 134.012 258.753 134.012 259.969C134.012 261.17 133.727 262.24 133.155 263.178C132.584 264.115 131.822 264.855 130.87 265.397C129.917 265.939 128.863 266.21 127.705 266.21ZM127.705 263.573C128.35 263.573 128.914 263.419 129.397 263.112C129.895 262.804 130.284 262.379 130.562 261.837C130.855 261.28 131.002 260.658 131.002 259.969C131.002 259.266 130.855 258.651 130.562 258.123C130.284 257.581 129.895 257.156 129.397 256.848C128.914 256.526 128.35 256.365 127.705 256.365C127.046 256.365 126.467 256.526 125.969 256.848C125.471 257.156 125.075 257.581 124.782 258.123C124.504 258.651 124.365 259.266 124.365 259.969C124.365 260.658 124.504 261.28 124.782 261.837C125.075 262.379 125.471 262.804 125.969 263.112C126.467 263.419 127.046 263.573 127.705 263.573ZM136.195 265.947V253.992H138.899V256.343L138.679 255.925C138.957 255.208 139.411 254.666 140.041 254.299C140.686 253.918 141.433 253.728 142.283 253.728C143.162 253.728 143.938 253.918 144.612 254.299C145.301 254.68 145.836 255.215 146.217 255.904C146.597 256.577 146.788 257.361 146.788 258.255V265.947H143.909V258.936C143.909 258.409 143.806 257.955 143.601 257.574C143.396 257.193 143.111 256.9 142.744 256.695C142.393 256.475 141.975 256.365 141.492 256.365C141.023 256.365 140.605 256.475 140.239 256.695C139.873 256.9 139.587 257.193 139.382 257.574C139.177 257.955 139.074 258.409 139.074 258.936V265.947H136.195ZM161.127 266.21C159.955 266.21 158.871 265.998 157.875 265.573C156.879 265.148 156.007 264.555 155.26 263.793C154.513 263.031 153.927 262.137 153.502 261.112C153.091 260.086 152.886 258.965 152.886 257.749C152.886 256.533 153.084 255.413 153.48 254.387C153.89 253.347 154.461 252.453 155.194 251.706C155.941 250.944 156.813 250.358 157.809 249.948C158.805 249.523 159.889 249.311 161.061 249.311C162.234 249.311 163.281 249.508 164.204 249.904C165.142 250.3 165.933 250.827 166.577 251.486C167.222 252.131 167.684 252.842 167.962 253.618L165.303 254.893C164.995 254.043 164.475 253.354 163.743 252.827C163.01 252.299 162.116 252.036 161.061 252.036C160.036 252.036 159.128 252.277 158.336 252.761C157.56 253.244 156.952 253.911 156.512 254.761C156.088 255.61 155.875 256.607 155.875 257.749C155.875 258.892 156.095 259.896 156.534 260.76C156.989 261.61 157.611 262.277 158.402 262.76C159.193 263.243 160.102 263.485 161.127 263.485C161.962 263.485 162.732 263.324 163.435 263.002C164.138 262.665 164.702 262.196 165.127 261.595C165.552 260.98 165.764 260.255 165.764 259.42V258.167L167.127 259.354H161.061V256.826H168.753V258.475C168.753 259.735 168.541 260.848 168.116 261.815C167.691 262.782 167.112 263.595 166.38 264.254C165.662 264.899 164.849 265.39 163.94 265.727C163.032 266.049 162.094 266.21 161.127 266.21ZM176.722 266.21C175.55 266.21 174.48 265.939 173.513 265.397C172.561 264.855 171.799 264.115 171.228 263.178C170.671 262.24 170.393 261.17 170.393 259.969C170.393 258.768 170.671 257.698 171.228 256.761C171.799 255.823 172.561 255.083 173.513 254.541C174.466 253.999 175.535 253.728 176.722 253.728C177.894 253.728 178.956 253.999 179.908 254.541C180.861 255.083 181.615 255.823 182.172 256.761C182.743 257.684 183.029 258.753 183.029 259.969C183.029 261.17 182.743 262.24 182.172 263.178C181.601 264.115 180.839 264.855 179.886 265.397C178.934 265.939 177.879 266.21 176.722 266.21ZM176.722 263.573C177.367 263.573 177.931 263.419 178.414 263.112C178.912 262.804 179.3 262.379 179.579 261.837C179.872 261.28 180.018 260.658 180.018 259.969C180.018 259.266 179.872 258.651 179.579 258.123C179.3 257.581 178.912 257.156 178.414 256.848C177.931 256.526 177.367 256.365 176.722 256.365C176.063 256.365 175.484 256.526 174.986 256.848C174.488 257.156 174.092 257.581 173.799 258.123C173.521 258.651 173.382 259.266 173.382 259.969C173.382 260.658 173.521 261.28 173.799 261.837C174.092 262.379 174.488 262.804 174.986 263.112C175.484 263.419 176.063 263.573 176.722 263.573ZM185.212 265.947V249.311H188.091V265.947H185.212ZM196.309 266.21C195.152 266.21 194.119 265.939 193.21 265.397C192.302 264.84 191.584 264.086 191.057 263.134C190.529 262.181 190.266 261.126 190.266 259.969C190.266 258.797 190.529 257.742 191.057 256.805C191.584 255.867 192.302 255.12 193.21 254.563C194.133 254.006 195.159 253.728 196.287 253.728C197.195 253.728 198.001 253.911 198.704 254.277C199.422 254.629 199.986 255.127 200.397 255.772L199.957 256.365V249.311H202.836V265.947H200.111V263.639L200.419 264.21C200.008 264.855 199.437 265.353 198.704 265.705C197.972 266.042 197.173 266.21 196.309 266.21ZM196.617 263.573C197.276 263.573 197.855 263.419 198.353 263.112C198.851 262.804 199.239 262.379 199.518 261.837C199.811 261.295 199.957 260.672 199.957 259.969C199.957 259.28 199.811 258.665 199.518 258.123C199.239 257.566 198.851 257.134 198.353 256.826C197.855 256.519 197.276 256.365 196.617 256.365C195.972 256.365 195.393 256.526 194.881 256.848C194.368 257.156 193.965 257.581 193.672 258.123C193.394 258.651 193.254 259.266 193.254 259.969C193.254 260.672 193.394 261.295 193.672 261.837C193.965 262.379 194.368 262.804 194.881 263.112C195.393 263.419 195.972 263.573 196.617 263.573Z" fill="white"/>
<g filter="url(#filter1_b_450_1555)">
<rect x="385" y="278" width="285" height="67" rx="33.5" fill="white" fill-opacity="0.14"/>
<rect x="385.598" y="278.598" width="283.804" height="65.8036" rx="32.9018" stroke="url(#paint1_linear_450_1555)" stroke-width="1.19643"/>
</g>
<path d="M424.661 320.256C423.437 320.256 422.349 320 421.396 319.488C420.457 318.976 419.717 318.272 419.177 317.375C418.636 316.479 418.366 315.462 418.366 314.324V304.102H421.268V314.174C421.268 314.829 421.41 315.419 421.695 315.946C421.993 316.472 422.399 316.885 422.911 317.183C423.423 317.468 424.006 317.61 424.661 317.61C425.329 317.61 425.913 317.468 426.41 317.183C426.923 316.885 427.321 316.472 427.605 315.946C427.904 315.419 428.054 314.829 428.054 314.174V304.102H430.956V314.324C430.956 315.462 430.685 316.479 430.145 317.375C429.604 318.272 428.857 318.976 427.904 319.488C426.965 320 425.884 320.256 424.661 320.256ZM433.618 324.268V308.392H436.243V310.696L435.987 310.12C436.385 309.494 436.926 309.01 437.609 308.669C438.291 308.313 439.081 308.136 439.977 308.136C441.073 308.136 442.061 308.406 442.943 308.946C443.825 309.487 444.522 310.213 445.035 311.123C445.561 312.033 445.824 313.058 445.824 314.196C445.824 315.32 445.568 316.344 445.056 317.269C444.544 318.193 443.847 318.926 442.965 319.467C442.083 319.993 441.08 320.256 439.956 320.256C439.117 320.256 438.341 320.092 437.63 319.765C436.933 319.424 436.378 318.94 435.966 318.314L436.414 317.759V324.268H433.618ZM439.636 317.695C440.276 317.695 440.845 317.546 441.343 317.247C441.841 316.949 442.225 316.536 442.495 316.01C442.78 315.483 442.922 314.879 442.922 314.196C442.922 313.513 442.78 312.915 442.495 312.403C442.225 311.877 441.841 311.464 441.343 311.166C440.845 310.853 440.276 310.696 439.636 310.696C439.024 310.696 438.469 310.846 437.971 311.144C437.488 311.443 437.104 311.863 436.819 312.403C436.549 312.93 436.414 313.527 436.414 314.196C436.414 314.879 436.549 315.483 436.819 316.01C437.104 316.536 437.488 316.949 437.971 317.247C438.469 317.546 439.024 317.695 439.636 317.695ZM457.04 320.128C455.731 320.128 454.714 319.772 453.989 319.061C453.277 318.336 452.922 317.318 452.922 316.01V310.888H450.916V308.392H451.129C451.698 308.392 452.139 308.242 452.452 307.943C452.765 307.645 452.922 307.211 452.922 306.642V305.746H455.717V308.392H458.384V310.888H455.717V315.86C455.717 316.244 455.781 316.572 455.909 316.842C456.051 317.112 456.265 317.318 456.549 317.461C456.848 317.603 457.225 317.674 457.68 317.674C457.78 317.674 457.894 317.667 458.022 317.653C458.164 317.638 458.299 317.624 458.427 317.61V320C458.228 320.028 458 320.057 457.744 320.085C457.488 320.114 457.254 320.128 457.04 320.128ZM466.135 320.256C464.997 320.256 463.958 319.993 463.019 319.467C462.095 318.94 461.355 318.222 460.8 317.311C460.26 316.401 459.989 315.362 459.989 314.196C459.989 313.029 460.26 311.991 460.8 311.08C461.355 310.17 462.095 309.451 463.019 308.925C463.944 308.399 464.983 308.136 466.135 308.136C467.273 308.136 468.304 308.399 469.229 308.925C470.154 309.451 470.886 310.17 471.427 311.08C471.982 311.977 472.259 313.015 472.259 314.196C472.259 315.362 471.982 316.401 471.427 317.311C470.872 318.222 470.132 318.94 469.208 319.467C468.283 319.993 467.259 320.256 466.135 320.256ZM466.135 317.695C466.761 317.695 467.309 317.546 467.778 317.247C468.262 316.949 468.639 316.536 468.909 316.01C469.193 315.469 469.336 314.864 469.336 314.196C469.336 313.513 469.193 312.915 468.909 312.403C468.639 311.877 468.262 311.464 467.778 311.166C467.309 310.853 466.761 310.696 466.135 310.696C465.495 310.696 464.933 310.853 464.449 311.166C463.965 311.464 463.581 311.877 463.297 312.403C463.026 312.915 462.891 313.513 462.891 314.196C462.891 314.864 463.026 315.469 463.297 316.01C463.581 316.536 463.965 316.949 464.449 317.247C464.933 317.546 465.495 317.695 466.135 317.695ZM483.208 320.256C482.368 320.256 481.565 320.1 480.796 319.787C480.042 319.474 479.388 319.033 478.833 318.464C478.293 317.88 477.923 317.19 477.724 316.394L480.242 315.497C480.483 316.223 480.875 316.764 481.415 317.119C481.956 317.461 482.553 317.631 483.208 317.631C483.748 317.631 484.225 317.518 484.637 317.29C485.064 317.048 485.391 316.721 485.619 316.308C485.847 315.882 485.96 315.391 485.96 314.836C485.96 314.281 485.84 313.797 485.598 313.385C485.37 312.972 485.05 312.652 484.637 312.425C484.225 312.183 483.748 312.062 483.208 312.062C482.653 312.062 482.148 312.183 481.693 312.425C481.252 312.666 480.932 313.015 480.732 313.47L478.364 312.937L479.623 304.102H488.286V306.556H480.775L481.863 305.297L480.967 311.955L480.135 311.272C480.533 310.689 481.017 310.262 481.586 309.992C482.169 309.722 482.873 309.587 483.699 309.587C484.751 309.587 485.662 309.814 486.43 310.269C487.212 310.725 487.817 311.343 488.244 312.126C488.671 312.908 488.884 313.812 488.884 314.836C488.884 315.86 488.635 316.785 488.137 317.61C487.639 318.435 486.963 319.082 486.11 319.552C485.256 320.021 484.289 320.256 483.208 320.256ZM497.553 320.256C496.286 320.256 495.177 319.915 494.224 319.232C493.271 318.549 492.524 317.589 491.983 316.351C491.457 315.113 491.194 313.677 491.194 312.041C491.194 310.39 491.457 308.954 491.983 307.73C492.509 306.507 493.249 305.553 494.202 304.871C495.155 304.188 496.265 303.846 497.531 303.846C498.826 303.846 499.943 304.188 500.881 304.871C501.835 305.553 502.581 306.514 503.122 307.751C503.663 308.975 503.933 310.405 503.933 312.041C503.933 313.677 503.663 315.113 503.122 316.351C502.596 317.574 501.856 318.535 500.903 319.232C499.95 319.915 498.833 320.256 497.553 320.256ZM497.574 317.61C498.299 317.61 498.918 317.39 499.43 316.949C499.943 316.493 500.334 315.853 500.604 315.028C500.889 314.189 501.031 313.193 501.031 312.041C501.031 310.888 500.889 309.9 500.604 309.074C500.334 308.235 499.935 307.595 499.409 307.154C498.897 306.713 498.271 306.492 497.531 306.492C496.82 306.492 496.208 306.713 495.696 307.154C495.184 307.595 494.786 308.235 494.501 309.074C494.231 309.9 494.096 310.888 494.096 312.041C494.096 313.179 494.231 314.167 494.501 315.007C494.786 315.832 495.184 316.472 495.696 316.927C496.222 317.382 496.848 317.61 497.574 317.61ZM512.661 320.256C511.395 320.256 510.285 319.915 509.332 319.232C508.379 318.549 507.632 317.589 507.091 316.351C506.565 315.113 506.302 313.677 506.302 312.041C506.302 310.39 506.565 308.954 507.091 307.73C507.618 306.507 508.357 305.553 509.311 304.871C510.264 304.188 511.373 303.846 512.639 303.846C513.934 303.846 515.051 304.188 515.99 304.871C516.943 305.553 517.69 306.514 518.23 307.751C518.771 308.975 519.041 310.405 519.041 312.041C519.041 313.677 518.771 315.113 518.23 316.351C517.704 317.574 516.964 318.535 516.011 319.232C515.058 319.915 513.941 320.256 512.661 320.256ZM512.682 317.61C513.408 317.61 514.026 317.39 514.539 316.949C515.051 316.493 515.442 315.853 515.712 315.028C515.997 314.189 516.139 313.193 516.139 312.041C516.139 310.888 515.997 309.9 515.712 309.074C515.442 308.235 515.044 307.595 514.517 307.154C514.005 306.713 513.379 306.492 512.639 306.492C511.928 306.492 511.316 306.713 510.804 307.154C510.292 307.595 509.894 308.235 509.609 309.074C509.339 309.9 509.204 310.888 509.204 312.041C509.204 313.179 509.339 314.167 509.609 315.007C509.894 315.832 510.292 316.472 510.804 316.927C511.331 317.382 511.957 317.61 512.682 317.61ZM522.84 320V317.013H525.656V320H522.84ZM522.84 311.379V308.392H525.656V311.379H522.84ZM531.971 320V306.578H528.898V304.102H534.873V320H531.971ZM542.215 320V304.102H545.117V317.439H551.924V320H542.215ZM559.072 320.256C557.877 320.256 556.832 319.986 555.935 319.445C555.039 318.905 554.342 318.172 553.844 317.247C553.346 316.323 553.097 315.298 553.097 314.174C553.097 313.008 553.346 311.977 553.844 311.08C554.356 310.17 555.046 309.451 555.914 308.925C556.796 308.399 557.778 308.136 558.859 308.136C559.769 308.136 560.566 308.285 561.249 308.584C561.946 308.882 562.536 309.295 563.02 309.821C563.504 310.348 563.873 310.952 564.13 311.635C564.386 312.304 564.514 313.029 564.514 313.812C564.514 314.011 564.499 314.217 564.471 314.431C564.457 314.644 564.421 314.829 564.364 314.985H555.402V312.851H562.785L561.462 313.854C561.59 313.2 561.555 312.617 561.355 312.105C561.171 311.592 560.858 311.187 560.417 310.888C559.99 310.59 559.471 310.44 558.859 310.44C558.276 310.44 557.756 310.59 557.301 310.888C556.846 311.173 556.497 311.6 556.255 312.169C556.028 312.723 555.942 313.399 555.999 314.196C555.942 314.907 556.035 315.54 556.277 316.095C556.533 316.636 556.903 317.055 557.386 317.354C557.884 317.653 558.453 317.802 559.094 317.802C559.734 317.802 560.274 317.667 560.715 317.397C561.171 317.126 561.526 316.764 561.782 316.308L564.044 317.418C563.817 317.973 563.461 318.464 562.977 318.89C562.494 319.317 561.917 319.651 561.249 319.893C560.594 320.135 559.869 320.256 559.072 320.256ZM569.924 320L565.357 308.392H568.409L571.716 317.525H570.585L573.914 308.392H576.966L572.399 320H569.924ZM583.808 320.256C582.613 320.256 581.567 319.986 580.671 319.445C579.775 318.905 579.078 318.172 578.58 317.247C578.082 316.323 577.833 315.298 577.833 314.174C577.833 313.008 578.082 311.977 578.58 311.08C579.092 310.17 579.782 309.451 580.65 308.925C581.532 308.399 582.513 308.136 583.595 308.136C584.505 308.136 585.302 308.285 585.985 308.584C586.682 308.882 587.272 309.295 587.756 309.821C588.239 310.348 588.609 310.952 588.865 311.635C589.121 312.304 589.249 313.029 589.249 313.812C589.249 314.011 589.235 314.217 589.207 314.431C589.192 314.644 589.157 314.829 589.1 314.985H580.138V312.851H587.521L586.198 313.854C586.326 313.2 586.29 312.617 586.091 312.105C585.906 311.592 585.593 311.187 585.152 310.888C584.726 310.59 584.206 310.44 583.595 310.44C583.011 310.44 582.492 310.59 582.037 310.888C581.582 311.173 581.233 311.6 580.991 312.169C580.764 312.723 580.678 313.399 580.735 314.196C580.678 314.907 580.771 315.54 581.013 316.095C581.269 316.636 581.638 317.055 582.122 317.354C582.62 317.653 583.189 317.802 583.829 317.802C584.469 317.802 585.01 317.667 585.451 317.397C585.906 317.126 586.262 316.764 586.518 316.308L588.78 317.418C588.552 317.973 588.197 318.464 587.713 318.89C587.229 319.317 586.653 319.651 585.985 319.893C585.33 320.135 584.605 320.256 583.808 320.256ZM591.368 320V308.392H593.993V310.974L593.78 310.59C594.05 309.722 594.47 309.117 595.039 308.776C595.622 308.434 596.319 308.264 597.13 308.264H597.813V310.739H596.81C596.013 310.739 595.373 310.988 594.889 311.486C594.406 311.969 594.164 312.652 594.164 313.534V320H591.368ZM602.871 320.256C602.06 320.256 601.356 320.121 600.758 319.851C600.161 319.58 599.698 319.196 599.371 318.698C599.044 318.186 598.88 317.596 598.88 316.927C598.88 316.287 599.023 315.718 599.307 315.22C599.592 314.708 600.033 314.281 600.63 313.94C601.228 313.598 601.982 313.356 602.892 313.214L606.69 312.595V314.729L603.425 315.284C602.871 315.384 602.458 315.561 602.188 315.818C601.918 316.074 601.782 316.408 601.782 316.82C601.782 317.219 601.932 317.539 602.231 317.781C602.543 318.008 602.928 318.122 603.383 318.122C603.966 318.122 604.478 318.001 604.919 317.759C605.374 317.503 605.723 317.155 605.965 316.714C606.221 316.273 606.349 315.789 606.349 315.263V312.275C606.349 311.777 606.15 311.365 605.751 311.038C605.367 310.696 604.855 310.525 604.215 310.525C603.618 310.525 603.084 310.689 602.615 311.016C602.159 311.329 601.825 311.749 601.612 312.275L599.328 311.166C599.556 310.554 599.912 310.028 600.395 309.587C600.893 309.131 601.477 308.776 602.145 308.52C602.814 308.264 603.539 308.136 604.322 308.136C605.275 308.136 606.114 308.313 606.84 308.669C607.565 309.01 608.127 309.494 608.526 310.12C608.938 310.732 609.144 311.45 609.144 312.275V320H606.498V318.015L607.096 317.973C606.797 318.471 606.441 318.89 606.029 319.232C605.616 319.559 605.147 319.815 604.62 320C604.094 320.171 603.511 320.256 602.871 320.256ZM617.362 324.695C616.494 324.695 615.69 324.552 614.95 324.268C614.21 323.983 613.57 323.585 613.03 323.073C612.503 322.575 612.119 321.985 611.877 321.302L614.481 320.32C614.651 320.861 614.986 321.295 615.484 321.622C615.996 321.963 616.622 322.134 617.362 322.134C617.931 322.134 618.428 322.027 618.855 321.814C619.296 321.6 619.638 321.287 619.88 320.875C620.121 320.477 620.242 319.993 620.242 319.424V316.778L620.776 317.418C620.377 318.115 619.844 318.641 619.175 318.997C618.507 319.353 617.746 319.531 616.892 319.531C615.811 319.531 614.844 319.282 613.99 318.784C613.136 318.286 612.468 317.603 611.984 316.735C611.5 315.867 611.259 314.893 611.259 313.812C611.259 312.716 611.5 311.742 611.984 310.888C612.468 310.035 613.129 309.366 613.969 308.882C614.808 308.384 615.761 308.136 616.828 308.136C617.696 308.136 618.457 308.32 619.111 308.69C619.78 309.046 620.335 309.565 620.776 310.248L620.392 310.952V308.392H623.038V319.424C623.038 320.434 622.789 321.337 622.291 322.134C621.807 322.931 621.139 323.556 620.285 324.012C619.446 324.467 618.471 324.695 617.362 324.695ZM617.234 316.949C617.831 316.949 618.35 316.82 618.791 316.564C619.246 316.294 619.602 315.924 619.858 315.455C620.114 314.985 620.242 314.445 620.242 313.833C620.242 313.236 620.107 312.702 619.837 312.233C619.581 311.749 619.225 311.372 618.77 311.102C618.329 310.831 617.817 310.696 617.234 310.696C616.65 310.696 616.124 310.831 615.654 311.102C615.185 311.372 614.815 311.749 614.545 312.233C614.289 312.702 614.161 313.236 614.161 313.833C614.161 314.431 614.289 314.964 614.545 315.433C614.815 315.903 615.178 316.273 615.633 316.543C616.103 316.813 616.636 316.949 617.234 316.949ZM631.154 320.256C629.959 320.256 628.913 319.986 628.017 319.445C627.121 318.905 626.424 318.172 625.926 317.247C625.428 316.323 625.179 315.298 625.179 314.174C625.179 313.008 625.428 311.977 625.926 311.08C626.438 310.17 627.128 309.451 627.996 308.925C628.878 308.399 629.859 308.136 630.94 308.136C631.851 308.136 632.648 308.285 633.33 308.584C634.028 308.882 634.618 309.295 635.102 309.821C635.585 310.348 635.955 310.952 636.211 311.635C636.467 312.304 636.595 313.029 636.595 313.812C636.595 314.011 636.581 314.217 636.553 314.431C636.538 314.644 636.503 314.829 636.446 314.985H627.484V312.851H634.867L633.544 313.854C633.672 313.2 633.636 312.617 633.437 312.105C633.252 311.592 632.939 311.187 632.498 310.888C632.071 310.59 631.552 310.44 630.94 310.44C630.357 310.44 629.838 310.59 629.383 310.888C628.927 311.173 628.579 311.6 628.337 312.169C628.109 312.723 628.024 313.399 628.081 314.196C628.024 314.907 628.117 315.54 628.358 316.095C628.615 316.636 628.984 317.055 629.468 317.354C629.966 317.653 630.535 317.802 631.175 317.802C631.815 317.802 632.356 317.667 632.797 317.397C633.252 317.126 633.608 316.764 633.864 316.308L636.126 317.418C635.898 317.973 635.543 318.464 635.059 318.89C634.575 319.317 633.999 319.651 633.33 319.893C632.676 320.135 631.951 320.256 631.154 320.256Z" fill="white"/>
<g filter="url(#filter2_b_450_1555)">
<rect x="395" width="216" height="67" rx="33.5" fill="white" fill-opacity="0.14"/>
<rect x="395.598" y="0.598214" width="214.804" height="65.8036" rx="32.9018" stroke="url(#paint2_linear_450_1555)" stroke-width="1.19643"/>
</g>
<path d="M427.723 42.3392V28.917H424.65V26.4417H430.625V42.3392H427.723ZM445.435 42.5953C444.297 42.5953 443.244 42.389 442.277 41.9765C441.324 41.5639 440.485 40.9878 439.759 40.248C439.048 39.5083 438.493 38.6405 438.095 37.6447C437.696 36.6488 437.497 35.5605 437.497 34.3798C437.497 33.199 437.689 32.1107 438.073 31.1149C438.472 30.1049 439.026 29.2371 439.738 28.5116C440.463 27.7718 441.31 27.2028 442.277 26.8044C443.244 26.3919 444.297 26.1856 445.435 26.1856C446.573 26.1856 447.59 26.3777 448.487 26.7618C449.397 27.1459 450.165 27.658 450.791 28.2982C451.417 28.9241 451.865 29.6141 452.136 30.3681L449.532 31.5844C449.234 30.7877 448.729 30.1333 448.017 29.6212C447.306 29.0948 446.445 28.8316 445.435 28.8316C444.439 28.8316 443.557 29.0664 442.789 29.5358C442.035 30.0053 441.445 30.6526 441.018 31.4777C440.605 32.3028 440.399 33.2702 440.399 34.3798C440.399 35.4894 440.605 36.4639 441.018 37.3032C441.445 38.1283 442.035 38.7756 442.789 39.2451C443.557 39.7145 444.439 39.9493 445.435 39.9493C446.445 39.9493 447.306 39.6932 448.017 39.1811C448.729 38.6547 449.234 37.9932 449.532 37.1965L452.136 38.4129C451.865 39.1668 451.417 39.8639 450.791 40.5041C450.165 41.13 449.397 41.635 448.487 42.0191C447.59 42.4033 446.573 42.5953 445.435 42.5953ZM459.554 42.5953C458.359 42.5953 457.314 42.325 456.417 41.7844C455.521 41.2438 454.824 40.5112 454.326 39.5865C453.828 38.6618 453.579 37.6375 453.579 36.5137C453.579 35.3472 453.828 34.3158 454.326 33.4195C454.838 32.5091 455.528 31.7907 456.396 31.2643C457.278 30.7379 458.26 30.4747 459.341 30.4747C460.251 30.4747 461.048 30.6241 461.731 30.9229C462.428 31.2216 463.018 31.6342 463.502 32.1605C463.986 32.6869 464.355 33.2915 464.611 33.9743C464.868 34.643 464.996 35.3685 464.996 36.1509C464.996 36.3501 464.981 36.5564 464.953 36.7698C464.939 36.9831 464.903 37.1681 464.846 37.3246H455.884V35.1907H463.267L461.944 36.1936C462.072 35.5392 462.037 34.9559 461.837 34.4438C461.652 33.9317 461.339 33.5262 460.898 33.2275C460.472 32.9287 459.952 32.7794 459.341 32.7794C458.757 32.7794 458.238 32.9287 457.783 33.2275C457.328 33.512 456.979 33.9388 456.737 34.5078C456.51 35.0626 456.424 35.7384 456.481 36.535C456.424 37.2463 456.517 37.8794 456.759 38.4342C457.015 38.9748 457.385 39.3945 457.868 39.6932C458.366 39.9919 458.935 40.1413 459.575 40.1413C460.216 40.1413 460.756 40.0062 461.197 39.7359C461.652 39.4656 462.008 39.1028 462.264 38.6476L464.526 39.7572C464.298 40.312 463.943 40.8028 463.459 41.2296C462.975 41.6564 462.399 41.9907 461.731 42.2325C461.076 42.4744 460.351 42.5953 459.554 42.5953ZM467.115 42.3392V30.7308H469.739V33.0141L469.526 32.6086C469.796 31.9116 470.237 31.3852 470.849 31.0296C471.475 30.6597 472.2 30.4747 473.026 30.4747C473.879 30.4747 474.633 30.6597 475.287 31.0296C475.956 31.3994 476.475 31.9187 476.845 32.5873C477.215 33.2417 477.4 34.0028 477.4 34.8706V42.3392H474.605V35.5321C474.605 35.02 474.505 34.579 474.306 34.2091C474.107 33.8392 473.829 33.5547 473.474 33.3555C473.132 33.1421 472.727 33.0354 472.257 33.0354C471.802 33.0354 471.397 33.1421 471.041 33.3555C470.685 33.5547 470.408 33.8392 470.209 34.2091C470.01 34.579 469.91 35.02 469.91 35.5321V42.3392H467.115ZM485.056 42.4673C483.747 42.4673 482.73 42.1116 482.004 41.4003C481.293 40.6748 480.937 39.6576 480.937 38.3488V33.2275H478.932V30.7308H479.145C479.714 30.7308 480.155 30.5814 480.468 30.2827C480.781 29.984 480.937 29.5501 480.937 28.981V28.0848H483.733V30.7308H486.4V33.2275H483.733V38.1995C483.733 38.5836 483.797 38.9108 483.925 39.1811C484.067 39.4514 484.281 39.6576 484.565 39.7999C484.864 39.9422 485.241 40.0133 485.696 40.0133C485.796 40.0133 485.909 40.0062 486.037 39.9919C486.18 39.9777 486.315 39.9635 486.443 39.9493V42.3392C486.244 42.3677 486.016 42.3961 485.76 42.4246C485.504 42.453 485.269 42.4673 485.056 42.4673ZM501.84 42.5953C500.702 42.5953 499.664 42.3321 498.725 41.8058C497.8 41.2794 497.06 40.561 496.505 39.6505C495.965 38.7401 495.695 37.7016 495.695 36.535C495.695 35.3685 495.965 34.33 496.505 33.4195C497.06 32.5091 497.8 31.7907 498.725 31.2643C499.649 30.7379 500.688 30.4747 501.84 30.4747C502.978 30.4747 504.01 30.7379 504.934 31.2643C505.859 31.7907 506.592 32.5091 507.132 33.4195C507.687 34.3158 507.964 35.3543 507.964 36.535C507.964 37.7016 507.687 38.7401 507.132 39.6505C506.577 40.561 505.838 41.2794 504.913 41.8058C503.988 42.3321 502.964 42.5953 501.84 42.5953ZM501.84 40.0346C502.466 40.0346 503.014 39.8852 503.483 39.5865C503.967 39.2878 504.344 38.8752 504.614 38.3488C504.899 37.8083 505.041 37.2036 505.041 36.535C505.041 35.8522 504.899 35.2547 504.614 34.7425C504.344 34.2162 503.967 33.8036 503.483 33.5049C503.014 33.1919 502.466 33.0354 501.84 33.0354C501.2 33.0354 500.638 33.1919 500.154 33.5049C499.671 33.8036 499.287 34.2162 499.002 34.7425C498.732 35.2547 498.597 35.8522 498.597 36.535C498.597 37.2036 498.732 37.8083 499.002 38.3488C499.287 38.8752 499.671 39.2878 500.154 39.5865C500.638 39.8852 501.2 40.0346 501.84 40.0346ZM510.084 42.3392V30.7308H512.709V33.0141L512.496 32.6086C512.766 31.9116 513.207 31.3852 513.819 31.0296C514.445 30.6597 515.17 30.4747 515.995 30.4747C516.849 30.4747 517.603 30.6597 518.257 31.0296C518.926 31.3994 519.445 31.9187 519.815 32.5873C520.185 33.2417 520.37 34.0028 520.37 34.8706V42.3392H517.574V35.5321C517.574 35.02 517.475 34.579 517.276 34.2091C517.076 33.8392 516.799 33.5547 516.443 33.3555C516.102 33.1421 515.697 33.0354 515.227 33.0354C514.772 33.0354 514.366 33.1421 514.011 33.3555C513.655 33.5547 513.378 33.8392 513.179 34.2091C512.979 34.579 512.88 35.02 512.88 35.5321V42.3392H510.084ZM532.437 42.5953C531.427 42.5953 530.488 42.4104 529.62 42.0405C528.767 41.6706 528.027 41.1585 527.401 40.5041C526.789 39.8355 526.341 39.0601 526.057 38.1781L528.468 37.1325C528.852 38.043 529.407 38.7614 530.133 39.2878C530.858 39.7999 531.676 40.056 532.587 40.056C533.099 40.056 533.54 39.9777 533.91 39.8212C534.294 39.6505 534.585 39.4229 534.784 39.1384C534.998 38.8539 535.105 38.5124 535.105 38.1141C535.105 37.6447 534.962 37.2606 534.678 36.9618C534.407 36.6488 533.995 36.407 533.44 36.2363L530.389 35.2547C529.151 34.8706 528.219 34.2944 527.593 33.5262C526.967 32.758 526.654 31.8547 526.654 30.8162C526.654 29.9057 526.875 29.1019 527.316 28.4049C527.771 27.7078 528.397 27.1672 529.194 26.7831C530.004 26.3848 530.929 26.1856 531.968 26.1856C532.921 26.1856 533.796 26.3563 534.592 26.6977C535.389 27.0249 536.072 27.4873 536.641 28.0848C537.224 28.668 537.658 29.358 537.943 30.1547L535.553 31.2216C535.24 30.425 534.77 29.8132 534.144 29.3865C533.518 28.9455 532.793 28.725 531.968 28.725C531.484 28.725 531.057 28.8103 530.687 28.981C530.317 29.1375 530.026 29.3651 529.812 29.6639C529.613 29.9484 529.514 30.2898 529.514 30.6881C529.514 31.1291 529.656 31.5204 529.94 31.8618C530.225 32.189 530.659 32.4451 531.242 32.63L534.166 33.5476C535.432 33.9601 536.378 34.5292 537.004 35.2547C537.644 35.9802 537.964 36.8764 537.964 37.9434C537.964 38.8539 537.729 39.6576 537.26 40.3547C536.79 41.0518 536.143 41.5995 535.318 41.9978C534.493 42.3961 533.533 42.5953 532.437 42.5953ZM540.342 42.3392V30.7308H543.138V42.3392H540.342ZM540.342 29.4291V26.4417H543.138V29.4291H540.342ZM545.719 42.3392V26.1856H548.514V42.3392H545.719ZM554.595 42.3392L550.028 30.7308H553.08L556.387 39.8639H555.256L558.585 30.7308H561.637L557.07 42.3392H554.595ZM568.479 42.5953C567.284 42.5953 566.238 42.325 565.342 41.7844C564.446 41.2438 563.749 40.5112 563.251 39.5865C562.753 38.6618 562.504 37.6375 562.504 36.5137C562.504 35.3472 562.753 34.3158 563.251 33.4195C563.763 32.5091 564.453 31.7907 565.321 31.2643C566.203 30.7379 567.184 30.4747 568.265 30.4747C569.176 30.4747 569.973 30.6241 570.655 30.9229C571.353 31.2216 571.943 31.6342 572.427 32.1605C572.91 32.6869 573.28 33.2915 573.536 33.9743C573.792 34.643 573.92 35.3685 573.92 36.1509C573.92 36.3501 573.906 36.5564 573.878 36.7698C573.863 36.9831 573.828 37.1681 573.771 37.3246H564.809V35.1907H572.192L570.869 36.1936C570.997 35.5392 570.961 34.9559 570.762 34.4438C570.577 33.9317 570.264 33.5262 569.823 33.2275C569.396 32.9287 568.877 32.7794 568.265 32.7794C567.682 32.7794 567.163 32.9287 566.708 33.2275C566.253 33.512 565.904 33.9388 565.662 34.5078C565.435 35.0626 565.349 35.7384 565.406 36.535C565.349 37.2463 565.442 37.8794 565.683 38.4342C565.94 38.9748 566.309 39.3945 566.793 39.6932C567.291 39.9919 567.86 40.1413 568.5 40.1413C569.14 40.1413 569.681 40.0062 570.122 39.7359C570.577 39.4656 570.933 39.1028 571.189 38.6476L573.451 39.7572C573.223 40.312 572.868 40.8028 572.384 41.2296C571.9 41.6564 571.324 41.9907 570.655 42.2325C570.001 42.4744 569.276 42.5953 568.479 42.5953ZM576.039 42.3392V30.7308H578.664V33.3128L578.451 32.9287C578.721 32.0609 579.141 31.4563 579.71 31.1149C580.293 30.7735 580.99 30.6028 581.801 30.6028H582.484V33.0781H581.481C580.684 33.0781 580.044 33.3271 579.56 33.825C579.077 34.3087 578.835 34.9915 578.835 35.8735V42.3392H576.039Z" fill="white"/>
<defs>
<filter id="filter0_b_450_1555" x="-44.2473" y="178.753" width="326.495" height="157.495" filterUnits="userSpaceOnUse" color-interpolation-filters="sRGB">
<feFlood flood-opacity="0" result="BackgroundImageFix"/>
<feGaussianBlur in="BackgroundImageFix" stdDeviation="22.1236"/>
<feComposite in2="SourceAlpha" operator="in" result="effect1_backgroundBlur_450_1555"/>
<feBlend mode="normal" in="SourceGraphic" in2="effect1_backgroundBlur_450_1555" result="shape"/>
</filter>
<filter id="filter1_b_450_1555" x="342.035" y="235.035" width="370.929" height="152.929" filterUnits="userSpaceOnUse" color-interpolation-filters="sRGB">
<feFlood flood-opacity="0" result="BackgroundImageFix"/>
<feGaussianBlur in="BackgroundImageFix" stdDeviation="21.4824"/>
<feComposite in2="SourceAlpha" operator="in" result="effect1_backgroundBlur_450_1555"/>
<feBlend mode="normal" in="SourceGraphic" in2="effect1_backgroundBlur_450_1555" result="shape"/>
</filter>
<filter id="filter2_b_450_1555" x="352.035" y="-42.9647" width="301.929" height="152.929" filterUnits="userSpaceOnUse" color-interpolation-filters="sRGB">
<feFlood flood-opacity="0" result="BackgroundImageFix"/>
<feGaussianBlur in="BackgroundImageFix" stdDeviation="21.4824"/>
<feComposite in2="SourceAlpha" operator="in" result="effect1_backgroundBlur_450_1555"/>
<feBlend mode="normal" in="SourceGraphic" in2="effect1_backgroundBlur_450_1555" result="shape"/>
</filter>
<linearGradient id="paint0_linear_450_1555" x1="40.6217" y1="232.857" x2="100.583" y2="305.194" gradientUnits="userSpaceOnUse">
<stop stop-color="white"/>
<stop offset="1" stop-color="white" stop-opacity="0"/>
</linearGradient>
<linearGradient id="paint1_linear_450_1555" x1="600.625" y1="273.214" x2="487.771" y2="393.802" gradientUnits="userSpaceOnUse">
<stop stop-color="white"/>
<stop offset="1" stop-color="white" stop-opacity="0"/>
</linearGradient>
<linearGradient id="paint2_linear_450_1555" x1="558.421" y1="-4.78573" x2="447.789" y2="84.807" gradientUnits="userSpaceOnUse">
<stop stop-color="white"/>
<stop offset="1" stop-color="white" stop-opacity="0"/>
</linearGradient>
</defs>
</svg>
