<svg width="540" height="278" viewBox="0 0 540 278" fill="none" xmlns="http://www.w3.org/2000/svg">
<g filter="url(#filter0_b_437_754)">
<rect y="153" width="183.815" height="52.5185" rx="26.2593" fill="white" fill-opacity="0.09"/>
</g>
<g style="mix-blend-mode:screen">
<g style="mix-blend-mode:overlay">
<path d="M58.2631 170.233V170.554C57.0522 169.55 55.5281 169.001 53.955 169.002H28.106C26.5328 169.001 25.0088 169.55 23.7979 170.554V170.233C23.7979 169.253 24.1869 168.314 24.8794 167.621C25.5719 166.929 26.5112 166.54 27.4906 166.54H54.5704C55.5498 166.54 56.489 166.929 57.1816 167.621C57.8741 168.314 58.2631 169.253 58.2631 170.233ZM47.185 176.387C47.185 177.436 46.9168 178.468 46.406 179.384C45.8951 180.3 45.1585 181.071 44.2661 181.622C43.3737 182.174 42.3551 182.488 41.3071 182.535C40.2591 182.583 39.2164 182.361 38.2781 181.892C37.3398 181.423 36.537 180.721 35.9459 179.855C35.3548 178.988 34.9951 177.985 34.9008 176.94C34.8066 175.895 34.9811 174.843 35.4076 173.885C35.8341 172.926 36.4985 172.093 37.3378 171.464H28.7215V194.851C28.7244 195.829 29.1144 196.767 29.8063 197.459C30.4981 198.15 31.4357 198.54 32.4142 198.543H49.6468C50.6253 198.54 51.5628 198.15 52.2547 197.459C52.9466 196.767 53.3366 195.829 53.3395 194.851V171.464H44.7232C45.4869 172.037 46.1067 172.781 46.534 173.635C46.9612 174.49 47.184 175.432 47.185 176.387ZM41.0305 180.08C41.7608 180.08 42.4748 179.863 43.082 179.457C43.6893 179.052 44.1626 178.475 44.4421 177.8C44.7216 177.125 44.7947 176.383 44.6522 175.667C44.5098 174.95 44.1581 174.292 43.6416 173.776C43.1252 173.26 42.4672 172.908 41.7509 172.765C41.0346 172.623 40.2921 172.696 39.6173 172.975C38.9426 173.255 38.3659 173.728 37.9601 174.336C37.5544 174.943 37.3378 175.657 37.3378 176.387C37.3407 177.366 37.7307 178.303 38.4226 178.995C39.1145 179.687 40.052 180.077 41.0305 180.08ZM55.8013 171.896V179.65C56.538 179.305 57.1611 178.757 57.5976 178.07C58.034 177.383 58.2658 176.587 58.2658 175.773C58.2658 174.959 58.034 174.162 57.5976 173.476C57.1611 172.789 56.538 172.241 55.8013 171.896ZM23.7979 175.772C23.8009 176.584 24.0337 177.379 24.4693 178.065C24.9049 178.751 25.5256 179.3 26.2597 179.648V171.893C25.5252 172.241 24.9043 172.791 24.4687 173.477C24.033 174.163 23.8005 174.959 23.7979 175.772Z" fill="white"/>
</g>
</g>
<path d="M77.0557 178.024C76.2482 178.024 75.4949 177.882 74.7957 177.596C74.0966 177.31 73.4861 176.912 72.9642 176.4C72.4423 175.888 72.0336 175.287 71.7382 174.598C71.4526 173.898 71.3098 173.145 71.3098 172.338C71.3098 171.52 71.4526 170.767 71.7382 170.078C72.0238 169.388 72.4275 168.788 72.9494 168.276C73.4713 167.764 74.0818 167.37 74.781 167.094C75.4801 166.808 76.2384 166.666 77.0557 166.666C77.873 166.666 78.6312 166.808 79.3304 167.094C80.0295 167.38 80.6401 167.778 81.162 168.29C81.6839 168.793 82.0876 169.388 82.3732 170.078C82.6686 170.767 82.8163 171.52 82.8163 172.338C82.8163 173.145 82.6686 173.898 82.3732 174.598C82.0778 175.287 81.6691 175.888 81.1472 176.4C80.6253 176.912 80.0148 177.31 79.3156 177.596C78.6263 177.882 77.873 178.024 77.0557 178.024ZM77.0557 176.193C77.5973 176.193 78.0946 176.099 78.5475 175.912C79.0005 175.715 79.3944 175.444 79.7292 175.1C80.0739 174.755 80.3348 174.346 80.5121 173.874C80.6992 173.401 80.7927 172.889 80.7927 172.338C80.7927 171.786 80.6992 171.279 80.5121 170.816C80.3348 170.344 80.0739 169.935 79.7292 169.59C79.3944 169.236 79.0005 168.965 78.5475 168.778C78.0946 168.591 77.5973 168.497 77.0557 168.497C76.5239 168.497 76.0316 168.591 75.5786 168.778C75.1256 168.965 74.7268 169.236 74.3822 169.59C74.0474 169.935 73.7864 170.344 73.5993 170.816C73.4122 171.279 73.3187 171.786 73.3187 172.338C73.3187 172.889 73.4122 173.401 73.5993 173.874C73.7864 174.346 74.0474 174.755 74.3822 175.1C74.7268 175.444 75.1256 175.715 75.5786 175.912C76.0316 176.099 76.5239 176.193 77.0557 176.193ZM79.5963 179.177L76.1694 173.445H78.2669L81.738 179.177H79.5963ZM87.3056 178.024C86.6852 178.024 86.1436 177.887 85.6808 177.611C85.2278 177.335 84.8783 176.951 84.6321 176.459C84.3957 175.966 84.2776 175.39 84.2776 174.731V169.812H86.2126V174.568C86.2126 174.903 86.2766 175.198 86.4046 175.454C86.5424 175.7 86.7345 175.897 86.9806 176.045C87.2367 176.183 87.5222 176.252 87.8374 176.252C88.1525 176.252 88.4331 176.183 88.6793 176.045C88.9255 175.897 89.1175 175.696 89.2553 175.44C89.3932 175.183 89.4621 174.878 89.4621 174.524V169.812H91.3971V177.847H89.5655V176.267L89.728 176.547C89.5409 177.04 89.2307 177.409 88.7975 177.655C88.374 177.901 87.8767 178.024 87.3056 178.024ZM93.1958 177.847V169.812H95.1308V177.847H93.1958ZM93.1958 168.911V166.843H95.1308V168.911H93.1958ZM100.787 178.024C99.9897 178.024 99.2709 177.842 98.6308 177.478C98.0006 177.104 97.5033 176.601 97.1389 175.971C96.7746 175.331 96.5924 174.612 96.5924 173.815C96.5924 173.017 96.7746 172.303 97.1389 171.673C97.5033 171.043 98.0006 170.545 98.6308 170.181C99.2709 169.817 99.9897 169.635 100.787 169.635C101.358 169.635 101.89 169.738 102.383 169.945C102.875 170.142 103.298 170.417 103.653 170.772C104.017 171.117 104.278 171.53 104.436 172.013L102.737 172.751C102.589 172.347 102.338 172.023 101.984 171.776C101.639 171.53 101.24 171.407 100.787 171.407C100.364 171.407 99.9848 171.51 99.65 171.717C99.325 171.924 99.069 172.21 98.8819 172.574C98.6948 172.938 98.6012 173.357 98.6012 173.83C98.6012 174.302 98.6948 174.721 98.8819 175.085C99.069 175.449 99.325 175.735 99.65 175.942C99.9848 176.149 100.364 176.252 100.787 176.252C101.25 176.252 101.654 176.129 101.999 175.883C102.343 175.636 102.589 175.307 102.737 174.893L104.436 175.661C104.278 176.114 104.022 176.523 103.668 176.887C103.313 177.242 102.89 177.522 102.397 177.729C101.905 177.926 101.368 178.024 100.787 178.024ZM105.904 177.847V166.666H107.839V173.992L107.1 173.77L110.882 169.812H113.289L110.32 173.047L113.348 177.847H111.133L108.504 173.682L109.656 173.445L107.233 176.045L107.839 174.863V177.847H105.904ZM73.6879 195.847L70.7338 184.843H72.8903L75.2093 194.222H74.648L77.0705 184.843H79.1531L81.5608 194.222H80.9995L83.3185 184.843H85.4751L82.5209 195.847H80.2166L77.7795 186.719H78.4294L75.9922 195.847H73.6879ZM86.5316 195.847V187.812H88.4666V195.847H86.5316ZM86.5316 186.911V184.843H88.4666V186.911H86.5316ZM93.9164 195.936C93.0104 195.936 92.3063 195.69 91.8041 195.197C91.3118 194.695 91.0656 193.991 91.0656 193.085V189.54H89.6771V187.812H89.8248C90.2187 187.812 90.524 187.708 90.7406 187.502C90.9573 187.295 91.0656 186.995 91.0656 186.601V185.98H93.0006V187.812H94.8469V189.54H93.0006V192.982C93.0006 193.248 93.0449 193.474 93.1335 193.661C93.232 193.848 93.3797 193.991 93.5766 194.089C93.7834 194.188 94.0444 194.237 94.3595 194.237C94.4284 194.237 94.5072 194.232 94.5958 194.222C94.6943 194.213 94.7878 194.203 94.8765 194.193V195.847C94.7386 195.867 94.581 195.887 94.4038 195.906C94.2265 195.926 94.0641 195.936 93.9164 195.936ZM96.3548 195.847V184.666H98.2898V189.392L98.0239 189.112C98.211 188.629 98.5163 188.265 98.9397 188.019C99.373 187.763 99.8752 187.635 100.446 187.635C101.037 187.635 101.559 187.763 102.012 188.019C102.475 188.275 102.834 188.634 103.09 189.097C103.346 189.55 103.474 190.077 103.474 190.677V195.847H101.539V191.135C101.539 190.781 101.47 190.476 101.333 190.219C101.195 189.963 101.003 189.767 100.757 189.629C100.52 189.481 100.24 189.407 99.9146 189.407C99.5995 189.407 99.3188 189.481 99.0726 189.629C98.8265 189.767 98.6344 189.963 98.4966 190.219C98.3587 190.476 98.2898 190.781 98.2898 191.135V195.847H96.3548ZM108.848 196.024C108.07 196.024 107.375 195.842 106.765 195.478C106.154 195.104 105.672 194.597 105.317 193.957C104.963 193.316 104.786 192.607 104.786 191.83C104.786 191.042 104.963 190.333 105.317 189.703C105.672 189.072 106.154 188.57 106.765 188.196C107.385 187.822 108.075 187.635 108.833 187.635C109.443 187.635 109.985 187.758 110.458 188.004C110.94 188.24 111.319 188.575 111.595 189.008L111.3 189.407V184.666H113.235V195.847H111.403V194.296L111.61 194.68C111.334 195.114 110.95 195.448 110.458 195.685C109.965 195.911 109.429 196.024 108.848 196.024ZM109.054 194.252C109.498 194.252 109.886 194.149 110.221 193.942C110.556 193.735 110.817 193.449 111.004 193.085C111.201 192.721 111.3 192.302 111.3 191.83C111.3 191.367 111.201 190.953 111.004 190.589C110.817 190.215 110.556 189.924 110.221 189.717C109.886 189.51 109.498 189.407 109.054 189.407C108.621 189.407 108.232 189.515 107.887 189.732C107.543 189.939 107.272 190.224 107.075 190.589C106.888 190.943 106.794 191.357 106.794 191.83C106.794 192.302 106.888 192.721 107.075 193.085C107.272 193.449 107.543 193.735 107.887 193.942C108.232 194.149 108.621 194.252 109.054 194.252ZM115.035 195.847V187.812H116.852V189.599L116.704 189.333C116.891 188.733 117.181 188.314 117.575 188.078C117.979 187.841 118.462 187.723 119.023 187.723H119.496V189.437H118.801C118.25 189.437 117.807 189.609 117.472 189.954C117.137 190.288 116.97 190.761 116.97 191.372V195.847H115.035ZM122.997 196.024C122.435 196.024 121.948 195.931 121.534 195.744C121.121 195.557 120.801 195.291 120.574 194.946C120.348 194.592 120.234 194.183 120.234 193.72C120.234 193.277 120.333 192.883 120.53 192.539C120.727 192.184 121.032 191.889 121.446 191.652C121.859 191.416 122.381 191.249 123.011 191.15L125.641 190.722V192.199L123.381 192.583C122.997 192.652 122.711 192.775 122.524 192.952C122.337 193.129 122.243 193.361 122.243 193.646C122.243 193.922 122.347 194.144 122.553 194.311C122.77 194.469 123.036 194.547 123.351 194.547C123.755 194.547 124.109 194.464 124.415 194.296C124.73 194.119 124.971 193.878 125.138 193.572C125.316 193.267 125.404 192.932 125.404 192.568V190.5C125.404 190.155 125.266 189.87 124.991 189.643C124.725 189.407 124.37 189.289 123.927 189.289C123.514 189.289 123.144 189.402 122.819 189.629C122.504 189.845 122.273 190.136 122.125 190.5L120.545 189.732C120.702 189.309 120.948 188.944 121.283 188.639C121.628 188.324 122.032 188.078 122.494 187.9C122.957 187.723 123.459 187.635 124.001 187.635C124.661 187.635 125.242 187.758 125.744 188.004C126.246 188.24 126.635 188.575 126.911 189.008C127.196 189.432 127.339 189.929 127.339 190.5V195.847H125.508V194.473L125.921 194.444C125.714 194.789 125.468 195.079 125.183 195.315C124.897 195.542 124.572 195.719 124.208 195.847C123.843 195.965 123.44 196.024 122.997 196.024ZM131.151 195.847L128.389 187.812H130.427L132.451 193.912L131.742 193.897L133.899 187.812H135.612L137.754 193.897L137.045 193.912L139.068 187.812H141.107L138.345 195.847H136.616L134.43 189.481H135.08L132.865 195.847H131.151ZM144.316 196.024C143.755 196.024 143.267 195.931 142.854 195.744C142.44 195.557 142.12 195.291 141.894 194.946C141.667 194.592 141.554 194.183 141.554 193.72C141.554 193.277 141.652 192.883 141.849 192.539C142.046 192.184 142.352 191.889 142.765 191.652C143.179 191.416 143.701 191.249 144.331 191.15L146.96 190.722V192.199L144.7 192.583C144.316 192.652 144.031 192.775 143.843 192.952C143.656 193.129 143.563 193.361 143.563 193.646C143.563 193.922 143.666 194.144 143.873 194.311C144.09 194.469 144.356 194.547 144.671 194.547C145.074 194.547 145.429 194.464 145.734 194.296C146.049 194.119 146.291 193.878 146.458 193.572C146.635 193.267 146.724 192.932 146.724 192.568V190.5C146.724 190.155 146.586 189.87 146.31 189.643C146.044 189.407 145.69 189.289 145.247 189.289C144.833 189.289 144.464 189.402 144.139 189.629C143.824 189.845 143.592 190.136 143.445 190.5L141.864 189.732C142.022 189.309 142.268 188.944 142.603 188.639C142.947 188.324 143.351 188.078 143.814 187.9C144.277 187.723 144.779 187.635 145.321 187.635C145.98 187.635 146.561 187.758 147.064 188.004C147.566 188.24 147.955 188.575 148.23 189.008C148.516 189.432 148.659 189.929 148.659 190.5V195.847H146.827V194.473L147.241 194.444C147.034 194.789 146.788 195.079 146.502 195.315C146.217 195.542 145.892 195.719 145.527 195.847C145.163 195.965 144.759 196.024 144.316 196.024ZM150.447 195.847V184.666H152.382V195.847H150.447Z" fill="white"/>
<g filter="url(#filter1_b_437_754)">
<rect x="427" y="206" width="71.8305" height="71.8305" rx="35.9152" fill="white" fill-opacity="0.09"/>
</g>
<path fill-rule="evenodd" clip-rule="evenodd" d="M481.941 237.814C481.135 236.034 480.017 234.487 478.585 233.179C477.153 231.867 475.475 230.846 473.551 230.106C471.63 229.369 469.55 229 467.314 229C465.079 229 462.996 229.363 461.075 230.088C459.151 230.813 457.472 231.837 456.041 233.161C454.609 234.484 453.491 236.034 452.684 237.817C451.881 239.599 451.479 241.545 451.479 243.654C451.479 245.763 451.881 247.712 452.684 249.491C453.488 251.271 454.612 252.824 456.06 254.147C457.505 255.471 459.183 256.501 461.094 257.238C463.002 257.976 465.076 258.344 467.314 258.344C467.94 258.344 468.549 258.308 469.148 258.25L466.268 253.872C465.137 253.782 464.072 253.543 463.077 253.153C461.781 252.646 460.657 251.927 459.701 250.996C458.746 250.068 458.004 248.981 457.469 247.733C456.938 246.485 456.672 245.125 456.672 243.651C456.672 242.201 456.938 240.853 457.469 239.605C458.001 238.36 458.746 237.273 459.701 236.342C460.654 235.415 461.781 234.695 463.077 234.185C464.373 233.677 465.782 233.42 467.311 233.42C468.837 233.42 470.249 233.674 471.545 234.185C472.841 234.695 473.965 235.411 474.921 236.342C475.877 237.27 476.619 238.357 477.15 239.605C477.681 240.853 477.95 242.201 477.95 243.651C477.95 245.125 477.684 246.488 477.15 247.733C476.619 248.981 475.877 250.065 474.921 250.996C474.605 251.302 474.271 251.586 473.919 251.847L470.382 246.515H464.901L474.636 261.32H480.202L476.494 255.73C477.229 255.26 477.919 254.732 478.562 254.144C480.007 252.821 481.131 251.271 481.938 249.488C482.741 247.709 483.143 245.763 483.143 243.651C483.143 241.539 482.745 239.596 481.941 237.814ZM478.883 229.795V231.683H479.379V229.795H479.994V229.393H478.258V229.795H478.883ZM480.386 231.683V229.393H480.862L481.669 230.397L482.456 229.393H482.932V231.683H482.437V230.185L481.692 231.088H481.63L480.882 230.152V231.683H480.386ZM447.961 233.426H443.507L447.961 238.626V257.885H442.765V229.456H447.961V233.426Z" fill="white"/>
<g filter="url(#filter2_b_437_754)">
<rect x="387" width="152.632" height="52.5185" rx="26.2593" fill="white" fill-opacity="0.07"/>
</g>
<g style="mix-blend-mode:screen" clip-path="url(#clip0_437_754)">
<g style="mix-blend-mode:overlay">
<path fill-rule="evenodd" clip-rule="evenodd" d="M424.14 17.4676V14.0935L423.147 15.0872L421.814 13.7546L425.067 10.5013L428.321 13.7546L426.988 15.0872L426.025 14.1242V17.4535L425.095 16.9165L424.14 17.4676ZM425.095 25.4993L430.644 22.2967L425.095 19.0927L419.546 22.2967L425.095 25.4993ZM431.587 23.9287L426.037 27.1314V33.5413L431.587 30.3372V23.9287ZM418.603 23.9283L424.153 27.131V33.541L418.603 30.3369V23.9283ZM437.901 29.8366L441.154 26.5834L437.901 23.33L436.568 24.6626L437.549 25.6434H433.471V27.528H437.544L436.568 28.5041L437.901 29.8366ZM430.382 19.9689L432.072 20.9445L436.201 16.8156C436.69 17.0848 437.242 17.2284 437.816 17.2284H437.816C438.714 17.2284 439.558 16.8788 440.193 16.244C441.503 14.9336 441.503 12.8014 440.193 11.4909H440.193C438.882 10.1805 436.75 10.1805 435.44 11.4909C434.36 12.5701 434.171 14.2062 434.869 15.482L430.382 19.9689ZM436.202 36.3631C437.477 35.665 439.114 35.8545 440.193 36.9337C440.827 37.5684 441.177 38.4124 441.177 39.3102C441.177 40.208 440.827 41.0521 440.193 41.6868C439.537 42.342 438.677 42.6696 437.816 42.6696C436.956 42.6696 436.095 42.342 435.44 41.6868C434.36 40.6077 434.171 38.9716 434.869 37.6958L430.382 33.2088L432.072 32.2333L436.202 36.3631ZM426.025 39.052V35.7243L425.095 36.2613L424.14 35.7102V39.0731L423.152 38.0842L421.819 39.4168L425.072 42.6701L428.325 39.4168L426.993 38.0842L426.025 39.052ZM418.118 32.2333L419.808 33.2088L415.321 37.6958C416.019 38.9717 415.829 40.6078 414.75 41.6869C414.115 42.3217 413.271 42.6713 412.374 42.6713C411.476 42.6713 410.632 42.3216 409.997 41.6869C408.687 40.3765 408.687 38.2442 409.997 36.9338C410.632 36.299 411.476 35.9494 412.374 35.9494C412.948 35.9494 413.5 36.093 413.989 36.3621L418.118 32.2333ZM412.374 17.2269C412.931 17.2269 413.487 17.0889 413.988 16.8146L418.118 20.9446L419.808 19.969L415.322 15.4831C415.591 14.9936 415.735 14.4418 415.735 13.8676C415.735 12.9699 415.385 12.1258 414.75 11.4911C413.44 10.1807 411.308 10.1806 409.997 11.4911C408.687 12.8014 408.687 14.9337 409.997 16.2442C410.653 16.8993 411.513 17.2269 412.374 17.2269ZM412.59 27.528L413.571 28.5088L412.239 29.8414L408.985 26.5881L412.239 23.3347L413.571 24.6673L412.595 25.6433H416.718V27.528H412.59Z" fill="white"/>
</g>
</g>
<path d="M455.353 23.206V12.2017H457.361V21.4335H462.073V23.206H455.353ZM467.139 23.3832C466.351 23.3832 465.633 23.2011 464.983 22.8367C464.343 22.4724 463.831 21.9751 463.447 21.3449C463.072 20.7146 462.885 19.9958 462.885 19.1883C462.885 18.3808 463.072 17.662 463.447 17.0318C463.831 16.4015 464.343 15.9043 464.983 15.5399C465.623 15.1756 466.342 14.9934 467.139 14.9934C467.927 14.9934 468.641 15.1756 469.281 15.5399C469.921 15.9043 470.428 16.4015 470.802 17.0318C471.186 17.6521 471.378 18.371 471.378 19.1883C471.378 19.9958 471.186 20.7146 470.802 21.3449C470.418 21.9751 469.906 22.4724 469.266 22.8367C468.626 23.2011 467.917 23.3832 467.139 23.3832ZM467.139 21.6107C467.573 21.6107 467.952 21.5073 468.277 21.3005C468.611 21.0937 468.872 20.8082 469.059 20.4438C469.256 20.0696 469.355 19.6511 469.355 19.1883C469.355 18.7156 469.256 18.3021 469.059 17.9476C468.872 17.5832 468.611 17.2976 468.277 17.0909C467.952 16.8742 467.573 16.7659 467.139 16.7659C466.696 16.7659 466.307 16.8742 465.972 17.0909C465.638 17.2976 465.372 17.5832 465.175 17.9476C464.988 18.3021 464.894 18.7156 464.894 19.1883C464.894 19.6511 464.988 20.0696 465.175 20.4438C465.372 20.8082 465.638 21.0937 465.972 21.3005C466.307 21.5073 466.696 21.6107 467.139 21.6107ZM474.725 23.206L471.963 15.1706H474.001L476.025 21.271L475.316 21.2562L477.473 15.1706H479.186L481.328 21.2562L480.619 21.271L482.642 15.1706H484.681L481.919 23.206H480.19L478.004 16.8398H478.654L476.439 23.206H474.725ZM459.282 41.3832C458.582 41.3832 457.933 41.2552 457.332 40.9992C456.741 40.7432 456.229 40.3887 455.796 39.9357C455.372 39.4729 455.062 38.9362 454.865 38.3257L456.534 37.6019C456.8 38.2321 457.184 38.7294 457.686 39.0937C458.189 39.4482 458.755 39.6255 459.385 39.6255C459.739 39.6255 460.045 39.5713 460.301 39.463C460.567 39.3449 460.769 39.1873 460.906 38.9904C461.054 38.7934 461.128 38.5571 461.128 38.2814C461.128 37.9564 461.029 37.6905 460.833 37.4837C460.645 37.2671 460.36 37.0997 459.976 36.9815L457.864 36.3021C457.007 36.0362 456.362 35.6374 455.929 35.1056C455.495 34.5739 455.279 33.9486 455.279 33.2297C455.279 32.5995 455.431 32.0431 455.737 31.5606C456.052 31.0781 456.485 30.7039 457.036 30.438C457.598 30.1623 458.238 30.0245 458.957 30.0245C459.616 30.0245 460.222 30.1426 460.773 30.379C461.325 30.6054 461.798 30.9255 462.191 31.3391C462.595 31.7428 462.896 32.2204 463.092 32.7718L461.438 33.5104C461.222 32.9589 460.897 32.5355 460.463 32.2401C460.03 31.9348 459.528 31.7822 458.957 31.7822C458.622 31.7822 458.326 31.8413 458.07 31.9594C457.814 32.0678 457.612 32.2253 457.465 32.4321C457.327 32.6291 457.258 32.8654 457.258 33.1411C457.258 33.4464 457.356 33.7172 457.553 33.9535C457.75 34.18 458.051 34.3572 458.454 34.4853L460.478 35.1204C461.354 35.406 462.009 35.7999 462.443 36.3021C462.886 36.8043 463.107 37.4246 463.107 38.1632C463.107 38.7934 462.945 39.3498 462.62 39.8323C462.295 40.3148 461.847 40.6939 461.276 40.9696C460.705 41.2454 460.04 41.3832 459.282 41.3832ZM464.754 44.1601V33.1706H466.57V34.7659L466.393 34.3671C466.669 33.9338 467.043 33.599 467.516 33.3627C467.988 33.1165 468.535 32.9934 469.155 32.9934C469.914 32.9934 470.598 33.1805 471.208 33.5547C471.819 33.9289 472.302 34.4311 472.656 35.0613C473.02 35.6915 473.203 36.4005 473.203 37.1883C473.203 37.9662 473.025 38.6752 472.671 39.3153C472.316 39.9554 471.834 40.4625 471.223 40.8367C470.613 41.2011 469.918 41.3832 469.141 41.3832C468.56 41.3832 468.023 41.27 467.531 41.0435C467.048 40.8072 466.664 40.4724 466.378 40.0391L466.689 39.655V44.1601H464.754ZM468.919 39.6107C469.362 39.6107 469.756 39.5073 470.101 39.3005C470.445 39.0937 470.711 38.8082 470.898 38.4438C471.095 38.0795 471.194 37.661 471.194 37.1883C471.194 36.7156 471.095 36.3021 470.898 35.9476C470.711 35.5832 470.445 35.2976 470.101 35.0909C469.756 34.8742 469.362 34.7659 468.919 34.7659C468.496 34.7659 468.112 34.8693 467.767 35.0761C467.432 35.2829 467.166 35.5734 466.969 35.9476C466.782 36.3119 466.689 36.7255 466.689 37.1883C466.689 37.661 466.782 38.0795 466.969 38.4438C467.166 38.8082 467.432 39.0937 467.767 39.3005C468.112 39.5073 468.496 39.6107 468.919 39.6107ZM474.678 41.206V33.1706H476.495V34.9579L476.347 34.692C476.534 34.0914 476.824 33.6729 477.218 33.4365C477.622 33.2002 478.105 33.082 478.666 33.082H479.139V34.7954H478.444C477.893 34.7954 477.45 34.9678 477.115 35.3124C476.78 35.6472 476.613 36.1199 476.613 36.7304V41.206H474.678ZM484.013 41.3832C483.186 41.3832 482.462 41.1961 481.842 40.8219C481.222 40.4477 480.739 39.9406 480.394 39.3005C480.05 38.6605 479.877 37.9515 479.877 37.1735C479.877 36.3661 480.05 35.6521 480.394 35.0318C480.749 34.4015 481.227 33.9043 481.827 33.5399C482.438 33.1756 483.117 32.9934 483.866 32.9934C484.496 32.9934 485.047 33.0968 485.52 33.3036C486.002 33.5104 486.411 33.7959 486.746 34.1603C487.081 34.5246 487.337 34.9431 487.514 35.4158C487.691 35.8786 487.78 36.3808 487.78 36.9224C487.78 37.0603 487.77 37.2031 487.75 37.3508C487.74 37.4985 487.716 37.6265 487.676 37.7348H481.473V36.2578H486.583L485.668 36.952C485.756 36.499 485.732 36.0953 485.594 35.7408C485.466 35.3863 485.249 35.1056 484.944 34.8988C484.648 34.692 484.289 34.5886 483.866 34.5886C483.462 34.5886 483.102 34.692 482.787 34.8988C482.472 35.0958 482.231 35.3912 482.064 35.7851C481.906 36.1691 481.847 36.6369 481.886 37.1883C481.847 37.6807 481.911 38.1189 482.078 38.5029C482.256 38.8771 482.512 39.1676 482.846 39.3744C483.191 39.5812 483.585 39.6846 484.028 39.6846C484.471 39.6846 484.845 39.591 485.151 39.4039C485.466 39.2168 485.712 38.9657 485.889 38.6506L487.455 39.4187C487.297 39.8027 487.051 40.1425 486.716 40.4379C486.382 40.7333 485.983 40.9647 485.52 41.1321C485.067 41.2995 484.565 41.3832 484.013 41.3832ZM491.655 41.3832C491.094 41.3832 490.606 41.2897 490.193 41.1026C489.779 40.9155 489.459 40.6496 489.233 40.305C489.006 39.9505 488.893 39.5418 488.893 39.079C488.893 38.6359 488.991 38.242 489.188 37.8973C489.385 37.5428 489.69 37.2474 490.104 37.0111C490.518 36.7747 491.04 36.6073 491.67 36.5089L494.299 36.0805V37.5576L492.039 37.9416C491.655 38.0106 491.369 38.1336 491.182 38.3109C490.995 38.4881 490.902 38.7196 490.902 39.0051C490.902 39.2808 491.005 39.5024 491.212 39.6698C491.429 39.8274 491.694 39.9061 492.009 39.9061C492.413 39.9061 492.768 39.8224 493.073 39.655C493.388 39.4778 493.629 39.2365 493.797 38.9313C493.974 38.626 494.063 38.2912 494.063 37.9269V35.8589C494.063 35.5143 493.925 35.2287 493.649 35.0022C493.383 34.7659 493.029 34.6477 492.586 34.6477C492.172 34.6477 491.803 34.761 491.478 34.9875C491.163 35.2041 490.931 35.4946 490.784 35.8589L489.203 35.0909C489.361 34.6674 489.607 34.3031 489.942 33.9978C490.286 33.6827 490.69 33.4365 491.153 33.2593C491.616 33.082 492.118 32.9934 492.659 32.9934C493.319 32.9934 493.9 33.1165 494.402 33.3627C494.905 33.599 495.294 33.9338 495.569 34.3671C495.855 34.7905 495.998 35.2878 495.998 35.8589V41.206H494.166V39.8323L494.58 39.8027C494.373 40.1474 494.127 40.4379 493.841 40.6742C493.556 40.9007 493.231 41.078 492.866 41.206C492.502 41.3241 492.098 41.3832 491.655 41.3832ZM501.523 41.3832C500.745 41.3832 500.051 41.2011 499.44 40.8367C498.83 40.4625 498.347 39.9554 497.993 39.3153C497.638 38.6752 497.461 37.9662 497.461 37.1883C497.461 36.4005 497.638 35.6915 497.993 35.0613C498.347 34.4311 498.83 33.9289 499.44 33.5547C500.061 33.1805 500.75 32.9934 501.508 32.9934C502.119 32.9934 502.66 33.1165 503.133 33.3627C503.616 33.599 503.995 33.9338 504.27 34.3671L503.975 34.7659V30.0245H505.91V41.206H504.078V39.655L504.285 40.0391C504.009 40.4724 503.625 40.8072 503.133 41.0435C502.641 41.27 502.104 41.3832 501.523 41.3832ZM501.73 39.6107C502.173 39.6107 502.562 39.5073 502.897 39.3005C503.232 39.0937 503.493 38.8082 503.68 38.4438C503.877 38.0795 503.975 37.661 503.975 37.1883C503.975 36.7255 503.877 36.3119 503.68 35.9476C503.493 35.5734 503.232 35.2829 502.897 35.0761C502.562 34.8693 502.173 34.7659 501.73 34.7659C501.297 34.7659 500.908 34.8742 500.563 35.0909C500.218 35.2976 499.948 35.5832 499.751 35.9476C499.563 36.3021 499.47 36.7156 499.47 37.1883C499.47 37.661 499.563 38.0795 499.751 38.4438C499.948 38.8082 500.218 39.0937 500.563 39.3005C500.908 39.5073 501.297 39.6107 501.73 39.6107ZM510.768 41.3832C509.911 41.3832 509.163 41.1814 508.523 40.7776C507.892 40.364 507.459 39.8077 507.223 39.1085L508.67 38.4143C508.877 38.8673 509.163 39.2218 509.527 39.4778C509.901 39.7338 510.315 39.8618 510.768 39.8618C511.122 39.8618 511.403 39.7831 511.61 39.6255C511.816 39.4679 511.92 39.2612 511.92 39.0051C511.92 38.8476 511.876 38.7196 511.787 38.6211C511.708 38.5128 511.595 38.4241 511.447 38.3552C511.309 38.2764 511.157 38.2124 510.989 38.1632L509.675 37.7939C508.995 37.597 508.478 37.2966 508.124 36.8929C507.779 36.4892 507.607 36.0116 507.607 35.4601C507.607 34.9678 507.73 34.5394 507.976 34.1751C508.232 33.8009 508.582 33.5104 509.025 33.3036C509.478 33.0968 509.995 32.9934 510.576 32.9934C511.334 32.9934 512.004 33.1756 512.585 33.5399C513.166 33.9043 513.579 34.4163 513.825 35.0761L512.348 35.7703C512.21 35.406 511.979 35.1155 511.654 34.8988C511.329 34.6822 510.965 34.5739 510.561 34.5739C510.236 34.5739 509.98 34.6477 509.793 34.7954C509.606 34.9431 509.512 35.1352 509.512 35.3715C509.512 35.5192 509.552 35.6472 509.63 35.7555C509.709 35.8639 509.817 35.9525 509.955 36.0214C510.103 36.0903 510.27 36.1544 510.458 36.2134L511.743 36.5975C512.402 36.7944 512.91 37.0898 513.264 37.4837C513.628 37.8776 513.811 38.3601 513.811 38.9313C513.811 39.4138 513.683 39.8421 513.426 40.2163C513.17 40.5807 512.816 40.8662 512.363 41.073C511.91 41.2798 511.378 41.3832 510.768 41.3832Z" fill="white"/>
<defs>
<filter id="filter0_b_437_754" x="-29.7401" y="123.26" width="243.295" height="111.999" filterUnits="userSpaceOnUse" color-interpolation-filters="sRGB">
<feFlood flood-opacity="0" result="BackgroundImageFix"/>
<feGaussianBlur in="BackgroundImageFix" stdDeviation="14.8701"/>
<feComposite in2="SourceAlpha" operator="in" result="effect1_backgroundBlur_437_754"/>
<feBlend mode="normal" in="SourceGraphic" in2="effect1_backgroundBlur_437_754" result="shape"/>
</filter>
<filter id="filter1_b_437_754" x="397.26" y="176.26" width="131.31" height="131.311" filterUnits="userSpaceOnUse" color-interpolation-filters="sRGB">
<feFlood flood-opacity="0" result="BackgroundImageFix"/>
<feGaussianBlur in="BackgroundImageFix" stdDeviation="14.8701"/>
<feComposite in2="SourceAlpha" operator="in" result="effect1_backgroundBlur_437_754"/>
<feBlend mode="normal" in="SourceGraphic" in2="effect1_backgroundBlur_437_754" result="shape"/>
</filter>
<filter id="filter2_b_437_754" x="357.26" y="-29.7401" width="212.112" height="111.999" filterUnits="userSpaceOnUse" color-interpolation-filters="sRGB">
<feFlood flood-opacity="0" result="BackgroundImageFix"/>
<feGaussianBlur in="BackgroundImageFix" stdDeviation="14.8701"/>
<feComposite in2="SourceAlpha" operator="in" result="effect1_backgroundBlur_437_754"/>
<feBlend mode="normal" in="SourceGraphic" in2="effect1_backgroundBlur_437_754" result="shape"/>
</filter>
<clipPath id="clip0_437_754">
<rect width="32.8241" height="32.8241" fill="white" transform="translate(408.336 9.84721)"/>
</clipPath>
</defs>
</svg>
