<svg width="475" height="496" viewBox="0 0 475 496" fill="none" xmlns="http://www.w3.org/2000/svg">
<g filter="url(#filter0_d_450_3708)">
<circle cx="85.5634" cy="269.563" r="35.5634" fill="#FDFDFD"/>
<circle cx="85.5634" cy="269.563" r="34.0634" stroke="#9A9A9A" stroke-opacity="0.08" stroke-width="3"/>
</g>
<path d="M70.6572 264V251.905H75.2871C76.1611 251.905 76.8875 252.043 77.4662 252.319C78.0489 252.59 78.484 252.963 78.7714 253.435C79.0627 253.907 79.2084 254.443 79.2084 255.041C79.2084 255.533 79.1139 255.955 78.9249 256.305C78.7359 256.652 78.482 256.933 78.1631 257.15C77.8442 257.366 77.4879 257.522 77.0942 257.616V257.734C77.5233 257.758 77.9348 257.89 78.3285 258.13C78.7261 258.366 79.0509 258.701 79.3029 259.134C79.5548 259.567 79.6808 260.091 79.6808 260.705C79.6808 261.331 79.5292 261.894 79.2261 262.394C78.9229 262.89 78.4663 263.281 77.856 263.569C77.2458 263.856 76.4781 264 75.5529 264H70.6572ZM72.8481 262.169H75.2044C75.9997 262.169 76.5725 262.018 76.9229 261.715C77.2773 261.407 77.4544 261.014 77.4544 260.533C77.4544 260.175 77.3659 259.852 77.1887 259.565C77.0115 259.274 76.7595 259.045 76.4328 258.88C76.106 258.711 75.7162 258.626 75.2635 258.626H72.8481V262.169ZM72.8481 257.049H75.0154C75.3934 257.049 75.734 256.98 76.0371 256.842C76.3403 256.701 76.5784 256.502 76.7517 256.246C76.9288 255.986 77.0174 255.679 77.0174 255.325C77.0174 254.856 76.8521 254.47 76.5214 254.167C76.1946 253.864 75.7084 253.713 75.0627 253.713H72.8481V257.049ZM81.5868 264V251.905H86.1223C87.0514 251.905 87.831 252.067 88.4609 252.39C89.0947 252.713 89.5731 253.165 89.8959 253.748C90.2227 254.327 90.3861 255.002 90.3861 255.774C90.3861 256.549 90.2207 257.222 89.89 257.793C89.5633 258.36 89.081 258.799 88.4432 259.11C87.8054 259.417 87.0219 259.571 86.0928 259.571H82.8624V257.752H85.7975C86.3408 257.752 86.7857 257.677 87.1321 257.528C87.4786 257.374 87.7345 257.152 87.8999 256.86C88.0691 256.565 88.1538 256.203 88.1538 255.774C88.1538 255.344 88.0691 254.978 87.8999 254.675C87.7306 254.368 87.4727 254.136 87.1262 253.978C86.7798 253.817 86.3329 253.736 85.7857 253.736H83.7778V264H81.5868ZM87.8349 258.52L90.829 264H88.3841L85.4432 258.52H87.8349ZM102.342 251.905V264H100.393L94.6942 255.762H94.5938V264H92.4028V251.905H94.3635L100.056 260.15H100.163V251.905H102.342Z" fill="black"/>
<path d="M59.8445 276V271.527H61.5567C61.8799 271.527 62.1485 271.578 62.3625 271.68C62.578 271.781 62.7389 271.918 62.8452 272.093C62.9529 272.268 63.0068 272.466 63.0068 272.687C63.0068 272.869 62.9719 273.025 62.902 273.154C62.8321 273.282 62.7382 273.387 62.6203 273.467C62.5023 273.547 62.3706 273.604 62.225 273.639V273.683C62.3837 273.692 62.5358 273.74 62.6814 273.829C62.8285 273.917 62.9486 274.04 63.0418 274.2C63.1349 274.361 63.1815 274.554 63.1815 274.781C63.1815 275.013 63.1255 275.221 63.0134 275.406C62.9013 275.589 62.7324 275.734 62.5067 275.841C62.281 275.947 61.9971 276 61.6549 276H59.8445ZM60.6547 275.323H61.5261C61.8202 275.323 62.032 275.267 62.1616 275.155C62.2927 275.041 62.3582 274.896 62.3582 274.718C62.3582 274.586 62.3254 274.466 62.2599 274.36C62.1944 274.252 62.1012 274.168 61.9804 274.107C61.8595 274.044 61.7154 274.013 61.5479 274.013H60.6547V275.323ZM60.6547 273.429H61.4562C61.596 273.429 61.7219 273.404 61.834 273.353C61.9461 273.301 62.0342 273.227 62.0983 273.132C62.1638 273.036 62.1966 272.923 62.1966 272.792C62.1966 272.619 62.1354 272.476 62.0131 272.364C61.8923 272.252 61.7125 272.196 61.4737 272.196H60.6547V273.429ZM64.8089 276V271.527H66.4862C66.8298 271.527 67.1181 271.587 67.351 271.706C67.5854 271.826 67.7623 271.993 67.8817 272.209C68.0026 272.423 68.063 272.672 68.063 272.958C68.063 273.245 68.0018 273.494 67.8795 273.705C67.7587 273.914 67.5803 274.077 67.3445 274.192C67.1086 274.305 66.8189 274.362 66.4752 274.362H65.2806V273.689H66.3661C66.567 273.689 66.7315 273.662 66.8596 273.606C66.9878 273.55 67.0824 273.467 67.1435 273.36C67.2061 273.25 67.2374 273.116 67.2374 272.958C67.2374 272.799 67.2061 272.664 67.1435 272.552C67.0809 272.438 66.9856 272.352 66.8574 272.294C66.7293 272.234 66.5641 272.204 66.3617 272.204H65.6191V276H64.8089ZM67.1195 273.973L68.2268 276H67.3226L66.235 273.973H67.1195ZM72.5508 271.527H73.361V274.449C73.361 274.77 73.2853 275.051 73.1339 275.295C72.9839 275.538 72.7728 275.728 72.5005 275.865C72.2283 276 71.9102 276.068 71.5462 276.068C71.1807 276.068 70.8619 276 70.5896 275.865C70.3173 275.728 70.1062 275.538 69.9562 275.295C69.8063 275.051 69.7313 274.77 69.7313 274.449V271.527H70.5415V274.382C70.5415 274.568 70.5823 274.734 70.6638 274.88C70.7468 275.025 70.8633 275.14 71.0133 275.223C71.1632 275.304 71.3409 275.345 71.5462 275.345C71.7515 275.345 71.9291 275.304 72.079 275.223C72.2305 275.14 72.3469 275.025 72.4285 274.88C72.51 274.734 72.5508 274.568 72.5508 274.382V271.527ZM78.8398 271.527V276H78.1191L76.0116 272.953H75.9744V276H75.1642V271.527H75.8893L77.9946 274.576H78.0339V271.527H78.8398ZM80.4486 272.206V271.527H84.0172V272.206H82.6347V276H81.831V272.206H80.4486ZM91.9041 273.036H91.0873C91.064 272.902 91.021 272.784 90.9584 272.68C90.8958 272.576 90.8179 272.487 90.7247 272.414C90.6315 272.341 90.5253 272.287 90.4059 272.25C90.2879 272.212 90.1605 272.193 90.0237 272.193C89.7805 272.193 89.565 272.255 89.3772 272.377C89.1894 272.498 89.0424 272.675 88.9361 272.91C88.8298 273.143 88.7766 273.427 88.7766 273.764C88.7766 274.106 88.8298 274.394 88.9361 274.628C89.0438 274.861 89.1909 275.038 89.3772 275.157C89.565 275.275 89.7798 275.334 90.0215 275.334C90.1554 275.334 90.2807 275.316 90.3971 275.281C90.5151 275.245 90.6206 275.192 90.7138 275.122C90.8084 275.052 90.8878 274.966 90.9519 274.864C91.0174 274.762 91.0625 274.646 91.0873 274.515L91.9041 274.519C91.8735 274.732 91.8072 274.931 91.7053 275.118C91.6049 275.304 91.4731 275.469 91.31 275.611C91.147 275.752 90.9562 275.863 90.7378 275.943C90.5194 276.022 90.277 276.061 90.0106 276.061C89.6175 276.061 89.2666 275.97 88.9579 275.788C88.6492 275.606 88.4061 275.343 88.2285 275C88.0508 274.656 87.962 274.244 87.962 273.764C87.962 273.282 88.0516 272.87 88.2307 272.528C88.4097 272.184 88.6536 271.921 88.9623 271.739C89.2709 271.557 89.6204 271.466 90.0106 271.466C90.2595 271.466 90.491 271.501 90.7051 271.571C90.9191 271.641 91.1098 271.743 91.2773 271.879C91.4447 272.013 91.5823 272.177 91.69 272.372C91.7992 272.566 91.8706 272.787 91.9041 273.036ZM93.5686 276V271.527H95.2458C95.5894 271.527 95.8777 271.587 96.1107 271.706C96.3451 271.826 96.522 271.993 96.6414 272.209C96.7622 272.423 96.8226 272.672 96.8226 272.958C96.8226 273.245 96.7615 273.494 96.6392 273.705C96.5183 273.914 96.34 274.077 96.1041 274.192C95.8683 274.305 95.5785 274.362 95.2349 274.362H94.0403V273.689H95.1257C95.3266 273.689 95.4912 273.662 95.6193 273.606C95.7474 273.55 95.842 273.467 95.9032 273.36C95.9658 273.25 95.9971 273.116 95.9971 272.958C95.9971 272.799 95.9658 272.664 95.9032 272.552C95.8406 272.438 95.7452 272.352 95.6171 272.294C95.489 272.234 95.3237 272.204 95.1213 272.204H94.3788V276H93.5686ZM95.8792 273.973L96.9864 276H96.0823L94.9947 273.973H95.8792ZM101.31 271.527H102.121V274.449C102.121 274.77 102.045 275.051 101.894 275.295C101.744 275.538 101.532 275.728 101.26 275.865C100.988 276 100.67 276.068 100.306 276.068C99.9404 276.068 99.6215 276 99.3492 275.865C99.077 275.728 98.8659 275.538 98.7159 275.295C98.5659 275.051 98.491 274.77 98.491 274.449V271.527H99.3012V274.382C99.3012 274.568 99.342 274.734 99.4235 274.88C99.5065 275.025 99.623 275.14 99.7729 275.223C99.9229 275.304 100.101 275.345 100.306 275.345C100.511 275.345 100.689 275.304 100.839 275.223C100.99 275.14 101.107 275.025 101.188 274.88C101.27 274.734 101.31 274.568 101.31 274.382V271.527ZM105.44 276H103.924V271.527H105.47C105.914 271.527 106.296 271.617 106.614 271.796C106.935 271.974 107.181 272.229 107.353 272.562C107.524 272.896 107.61 273.295 107.61 273.759C107.61 274.225 107.524 274.626 107.35 274.96C107.179 275.295 106.93 275.552 106.606 275.731C106.283 275.91 105.894 276 105.44 276ZM104.734 275.299H105.4C105.712 275.299 105.972 275.242 106.18 275.129C106.388 275.014 106.545 274.843 106.649 274.615C106.754 274.387 106.807 274.101 106.807 273.759C106.807 273.417 106.754 273.133 106.649 272.908C106.545 272.68 106.39 272.511 106.184 272.399C105.98 272.285 105.727 272.228 105.424 272.228H104.734V275.299ZM109.303 276V271.527H112.212V272.206H110.113V273.421H112.061V274.1H110.113V275.321H112.229V276H109.303Z" fill="#5E5E5E"/>
<path d="M76.4542 283.599V284.137H74.5773V283.599H76.4542ZM78.7435 286.055C78.4169 286.054 78.1378 285.968 77.9063 285.797C77.6748 285.626 77.4977 285.377 77.3751 285.051C77.2525 284.724 77.1911 284.331 77.1911 283.87C77.1911 283.411 77.2525 283.019 77.3751 282.694C77.4991 282.369 77.6769 282.121 77.9084 281.95C78.1413 281.779 78.4197 281.694 78.7435 281.694C79.0673 281.694 79.345 281.78 79.5765 281.952C79.808 282.123 79.9851 282.371 80.1078 282.696C80.2318 283.02 80.2938 283.411 80.2938 283.87C80.2938 284.332 80.2325 284.726 80.1098 285.053C79.9872 285.378 79.8101 285.627 79.5786 285.799C79.3471 285.97 79.0687 286.055 78.7435 286.055ZM78.7435 285.503C79.0301 285.503 79.2541 285.363 79.4153 285.084C79.5779 284.804 79.6592 284.399 79.6592 283.87C79.6592 283.519 79.622 283.222 79.5476 282.979C79.4746 282.735 79.3691 282.551 79.2313 282.425C79.0949 282.299 78.9323 282.235 78.7435 282.235C78.4582 282.235 78.2343 282.376 78.0717 282.657C77.9091 282.938 77.8271 283.342 77.8257 283.87C77.8257 284.223 77.8622 284.521 77.9353 284.765C78.0097 285.008 78.1151 285.192 78.2515 285.317C78.388 285.441 78.552 285.503 78.7435 285.503ZM81.0271 285.985V285.522L82.4596 284.038C82.6126 283.876 82.7387 283.735 82.8379 283.614C82.9385 283.491 83.0136 283.375 83.0632 283.265C83.1128 283.154 83.1376 283.037 83.1376 282.913C83.1376 282.773 83.1045 282.651 83.0384 282.549C82.9722 282.446 82.882 282.367 82.7676 282.312C82.6532 282.255 82.5244 282.227 82.381 282.227C82.2295 282.227 82.0972 282.258 81.9842 282.32C81.8712 282.382 81.7843 282.469 81.7237 282.582C81.6631 282.695 81.6328 282.828 81.6328 282.979H81.023C81.023 282.722 81.0822 282.496 81.2007 282.303C81.3193 282.11 81.4819 281.961 81.6886 281.855C81.8953 281.747 82.1302 281.694 82.3934 281.694C82.6594 281.694 82.8937 281.747 83.0963 281.853C83.3002 281.958 83.4594 282.101 83.5738 282.283C83.6881 282.463 83.7453 282.667 83.7453 282.895C83.7453 283.052 83.7157 283.205 83.6564 283.356C83.5986 283.506 83.4973 283.673 83.3526 283.858C83.2079 284.041 83.0067 284.264 82.749 284.526L81.9077 285.406V285.437H83.8135V285.985H81.0271ZM85.0124 286.024C84.8994 286.024 84.8023 285.984 84.721 285.904C84.6397 285.823 84.599 285.725 84.599 285.611C84.599 285.498 84.6397 285.401 84.721 285.321C84.8023 285.24 84.8994 285.199 85.0124 285.199C85.1254 285.199 85.2226 285.24 85.3039 285.321C85.3852 285.401 85.4259 285.498 85.4259 285.611C85.4259 285.687 85.4066 285.756 85.368 285.819C85.3308 285.882 85.2812 285.931 85.2191 285.968C85.1571 286.006 85.0882 286.024 85.0124 286.024ZM87.5658 286.055C87.2392 286.054 86.9601 285.968 86.7286 285.797C86.4971 285.626 86.32 285.377 86.1974 285.051C86.0747 284.724 86.0134 284.331 86.0134 283.87C86.0134 283.411 86.0747 283.019 86.1974 282.694C86.3214 282.369 86.4992 282.121 86.7307 281.95C86.9636 281.779 87.242 281.694 87.5658 281.694C87.8896 281.694 88.1673 281.78 88.3988 281.952C88.6303 282.123 88.8074 282.371 88.9301 282.696C89.0541 283.02 89.1161 283.411 89.1161 283.87C89.1161 284.332 89.0548 284.726 88.9321 285.053C88.8095 285.378 88.6324 285.627 88.4009 285.799C88.1694 285.97 87.891 286.055 87.5658 286.055ZM87.5658 285.503C87.8524 285.503 88.0764 285.363 88.2376 285.084C88.4002 284.804 88.4815 284.399 88.4815 283.87C88.4815 283.519 88.4443 283.222 88.3699 282.979C88.2969 282.735 88.1914 282.551 88.0536 282.425C87.9172 282.299 87.7546 282.235 87.5658 282.235C87.2805 282.235 87.0566 282.376 86.894 282.657C86.7314 282.938 86.6494 283.342 86.648 283.87C86.648 284.223 86.6845 284.521 86.7576 284.765C86.832 285.008 86.9374 285.192 87.0738 285.317C87.2103 285.441 87.3742 285.503 87.5658 285.503ZM89.8494 285.985V285.522L91.2819 284.038C91.4349 283.876 91.5609 283.735 91.6602 283.614C91.7608 283.491 91.8359 283.375 91.8855 283.265C91.9351 283.154 91.9599 283.037 91.9599 282.913C91.9599 282.773 91.9268 282.651 91.8607 282.549C91.7945 282.446 91.7043 282.367 91.5899 282.312C91.4755 282.255 91.3467 282.227 91.2033 282.227C91.0518 282.227 90.9195 282.258 90.8065 282.32C90.6935 282.382 90.6066 282.469 90.546 282.582C90.4854 282.695 90.4551 282.828 90.4551 282.979H89.8453C89.8453 282.722 89.9045 282.496 90.023 282.303C90.1416 282.11 90.3042 281.961 90.5109 281.855C90.7176 281.747 90.9525 281.694 91.2157 281.694C91.4817 281.694 91.716 281.747 91.9186 281.853C92.1225 281.958 92.2817 282.101 92.396 282.283C92.5104 282.463 92.5676 282.667 92.5676 282.895C92.5676 283.052 92.538 283.205 92.4787 283.356C92.4209 283.506 92.3196 283.673 92.1749 283.858C92.0302 284.041 91.829 284.264 91.5713 284.526L90.73 285.406V285.437H92.6358V285.985H89.8494ZM95.629 285.191V284.968C95.629 284.808 95.662 284.662 95.7282 284.53C95.7957 284.396 95.8935 284.289 96.0217 284.209C96.1512 284.128 96.3076 284.087 96.4909 284.087C96.6783 284.087 96.8354 284.127 96.9622 284.207C97.089 284.287 97.1848 284.394 97.2495 284.528C97.3157 284.661 97.3488 284.808 97.3488 284.968V285.191C97.3488 285.351 97.3157 285.498 97.2495 285.631C97.1834 285.764 97.0862 285.87 96.9581 285.952C96.8313 286.032 96.6756 286.072 96.4909 286.072C96.3049 286.072 96.1478 286.032 96.0196 285.952C95.8915 285.87 95.7943 285.764 95.7282 285.631C95.662 285.498 95.629 285.351 95.629 285.191ZM96.1106 284.968V285.191C96.1106 285.31 96.1388 285.417 96.1953 285.514C96.2518 285.61 96.3504 285.658 96.4909 285.658C96.6301 285.658 96.7273 285.61 96.7824 285.514C96.8375 285.417 96.8651 285.31 96.8651 285.191V284.968C96.8651 284.849 96.8382 284.742 96.7845 284.645C96.7321 284.549 96.6342 284.501 96.4909 284.501C96.3531 284.501 96.2553 284.549 96.1974 284.645C96.1395 284.742 96.1106 284.849 96.1106 284.968ZM93.4999 282.768V282.545C93.4999 282.385 93.5329 282.239 93.5991 282.105C93.6666 281.971 93.7645 281.864 93.8926 281.785C94.0221 281.705 94.1786 281.665 94.3618 281.665C94.5493 281.665 94.7064 281.705 94.8331 281.785C94.9599 281.864 95.0557 281.971 95.1205 282.105C95.1852 282.239 95.2176 282.385 95.2176 282.545V282.768C95.2176 282.928 95.1845 283.075 95.1184 283.209C95.0536 283.341 94.9572 283.448 94.829 283.529C94.7022 283.609 94.5465 283.649 94.3618 283.649C94.1744 283.649 94.0166 283.609 93.8885 283.529C93.7617 283.448 93.6652 283.341 93.5991 283.209C93.5329 283.075 93.4999 282.928 93.4999 282.768ZM93.9836 282.545V282.768C93.9836 282.887 94.0111 282.994 94.0662 283.091C94.1227 283.187 94.2213 283.236 94.3618 283.236C94.4996 283.236 94.5961 283.187 94.6512 283.091C94.7077 282.994 94.736 282.887 94.736 282.768V282.545C94.736 282.427 94.7091 282.319 94.6554 282.223C94.6016 282.126 94.5038 282.078 94.3618 282.078C94.224 282.078 94.1262 282.126 94.0683 282.223C94.0118 282.319 93.9836 282.427 93.9836 282.545ZM93.6962 285.985L96.6067 281.751H97.1007L94.1903 285.985H93.6962Z" fill="#555555"/>
<g filter="url(#filter1_d_450_3708)">
<circle cx="180.746" cy="371.746" r="59.7465" fill="#FDFDFD"/>
<circle cx="180.746" cy="371.746" r="58.2465" stroke="#9A9A9A" stroke-opacity="0.08" stroke-width="3"/>
</g>
<path d="M155.947 344V360H153.369L145.83 349.102H145.697V360H142.799V344H145.393L152.924 354.906H153.064V344H155.947ZM162.434 360.242C161.673 360.242 160.988 360.107 160.379 359.836C159.775 359.56 159.296 359.154 158.941 358.617C158.592 358.081 158.418 357.419 158.418 356.633C158.418 355.956 158.543 355.396 158.793 354.953C159.043 354.51 159.384 354.156 159.816 353.891C160.249 353.625 160.736 353.424 161.277 353.289C161.824 353.148 162.389 353.047 162.973 352.984C163.676 352.911 164.246 352.846 164.684 352.789C165.121 352.727 165.439 352.633 165.637 352.508C165.84 352.378 165.941 352.177 165.941 351.906V351.859C165.941 351.271 165.767 350.815 165.418 350.492C165.069 350.169 164.566 350.008 163.91 350.008C163.217 350.008 162.668 350.159 162.262 350.461C161.861 350.763 161.59 351.12 161.449 351.531L158.809 351.156C159.017 350.427 159.361 349.818 159.84 349.328C160.319 348.833 160.905 348.464 161.598 348.219C162.29 347.969 163.056 347.844 163.895 347.844C164.473 347.844 165.048 347.911 165.621 348.047C166.194 348.182 166.717 348.406 167.191 348.719C167.665 349.026 168.046 349.445 168.332 349.977C168.624 350.508 168.77 351.172 168.77 351.969V360H166.051V358.352H165.957C165.785 358.685 165.543 358.997 165.23 359.289C164.923 359.576 164.535 359.807 164.066 359.984C163.603 360.156 163.059 360.242 162.434 360.242ZM163.168 358.164C163.736 358.164 164.228 358.052 164.645 357.828C165.061 357.599 165.382 357.297 165.605 356.922C165.835 356.547 165.949 356.138 165.949 355.695V354.281C165.861 354.354 165.71 354.422 165.496 354.484C165.288 354.547 165.053 354.602 164.793 354.648C164.533 354.695 164.275 354.737 164.02 354.773C163.764 354.81 163.543 354.841 163.355 354.867C162.934 354.924 162.556 355.018 162.223 355.148C161.889 355.279 161.626 355.461 161.434 355.695C161.241 355.924 161.145 356.221 161.145 356.586C161.145 357.107 161.335 357.5 161.715 357.766C162.095 358.031 162.579 358.164 163.168 358.164ZM177.605 348V350.187H170.707V348H177.605ZM172.41 345.125H175.238V356.391C175.238 356.771 175.296 357.063 175.41 357.266C175.53 357.464 175.686 357.599 175.879 357.672C176.072 357.745 176.285 357.781 176.52 357.781C176.697 357.781 176.858 357.768 177.004 357.742C177.155 357.716 177.27 357.693 177.348 357.672L177.824 359.883C177.673 359.935 177.457 359.992 177.176 360.055C176.9 360.117 176.561 360.154 176.16 360.164C175.452 360.185 174.814 360.078 174.246 359.844C173.678 359.604 173.228 359.234 172.895 358.734C172.566 358.234 172.405 357.609 172.41 356.859V345.125ZM187.619 354.953V348H190.447V360H187.705V357.867H187.58C187.309 358.539 186.864 359.089 186.244 359.516C185.63 359.943 184.872 360.156 183.971 360.156C183.184 360.156 182.489 359.982 181.885 359.633C181.286 359.279 180.817 358.766 180.479 358.094C180.14 357.417 179.971 356.599 179.971 355.641V348H182.799V355.203C182.799 355.964 183.007 356.568 183.424 357.016C183.84 357.464 184.387 357.687 185.064 357.687C185.481 357.687 185.885 357.586 186.275 357.383C186.666 357.18 186.986 356.878 187.236 356.477C187.492 356.07 187.619 355.562 187.619 354.953ZM193.355 360V348H196.098V350H196.223C196.441 349.307 196.816 348.773 197.348 348.398C197.884 348.018 198.496 347.828 199.184 347.828C199.34 347.828 199.514 347.836 199.707 347.852C199.905 347.862 200.069 347.88 200.199 347.906V350.508C200.079 350.466 199.889 350.43 199.629 350.398C199.374 350.362 199.126 350.344 198.887 350.344C198.371 350.344 197.908 350.456 197.496 350.68C197.09 350.898 196.77 351.203 196.535 351.594C196.301 351.984 196.184 352.435 196.184 352.945V360H193.355ZM205.316 360.242C204.556 360.242 203.871 360.107 203.262 359.836C202.658 359.56 202.178 359.154 201.824 358.617C201.475 358.081 201.301 357.419 201.301 356.633C201.301 355.956 201.426 355.396 201.676 354.953C201.926 354.51 202.267 354.156 202.699 353.891C203.132 353.625 203.618 353.424 204.16 353.289C204.707 353.148 205.272 353.047 205.855 352.984C206.559 352.911 207.129 352.846 207.566 352.789C208.004 352.727 208.322 352.633 208.52 352.508C208.723 352.378 208.824 352.177 208.824 351.906V351.859C208.824 351.271 208.65 350.815 208.301 350.492C207.952 350.169 207.449 350.008 206.793 350.008C206.1 350.008 205.551 350.159 205.145 350.461C204.743 350.763 204.473 351.12 204.332 351.531L201.691 351.156C201.9 350.427 202.243 349.818 202.723 349.328C203.202 348.833 203.788 348.464 204.48 348.219C205.173 347.969 205.939 347.844 206.777 347.844C207.355 347.844 207.931 347.911 208.504 348.047C209.077 348.182 209.6 348.406 210.074 348.719C210.548 349.026 210.928 349.445 211.215 349.977C211.507 350.508 211.652 351.172 211.652 351.969V360H208.934V358.352H208.84C208.668 358.685 208.426 358.997 208.113 359.289C207.806 359.576 207.418 359.807 206.949 359.984C206.486 360.156 205.941 360.242 205.316 360.242ZM206.051 358.164C206.618 358.164 207.111 358.052 207.527 357.828C207.944 357.599 208.264 357.297 208.488 356.922C208.717 356.547 208.832 356.138 208.832 355.695V354.281C208.743 354.354 208.592 354.422 208.379 354.484C208.171 354.547 207.936 354.602 207.676 354.648C207.415 354.695 207.158 354.737 206.902 354.773C206.647 354.81 206.426 354.841 206.238 354.867C205.816 354.924 205.439 355.018 205.105 355.148C204.772 355.279 204.509 355.461 204.316 355.695C204.124 355.924 204.027 356.221 204.027 356.586C204.027 357.107 204.217 357.5 204.598 357.766C204.978 358.031 205.462 358.164 206.051 358.164ZM217.324 344V360H214.496V344H217.324Z" fill="black"/>
<path d="M140.823 379V387H139.534L135.765 381.551H135.698V387H134.249V379H135.546L139.312 384.453H139.382V379H140.823ZM145.08 387H143.533L146.349 379H148.138L150.959 387H149.412L147.275 380.641H147.212L145.08 387ZM145.13 383.863H149.349V385.027H145.13V383.863ZM152.344 380.215V379H158.727V380.215H156.254V387H154.817V380.215H152.344ZM166.65 379H168.099V384.227C168.099 384.799 167.964 385.303 167.693 385.738C167.425 386.173 167.047 386.513 166.56 386.758C166.073 387 165.504 387.121 164.853 387.121C164.2 387.121 163.629 387 163.142 386.758C162.655 386.513 162.278 386.173 162.01 385.738C161.741 385.303 161.607 384.799 161.607 384.227V379H163.056V384.105C163.056 384.439 163.129 384.736 163.275 384.996C163.424 385.257 163.632 385.461 163.9 385.609C164.168 385.755 164.486 385.828 164.853 385.828C165.221 385.828 165.538 385.755 165.806 385.609C166.077 385.461 166.286 385.257 166.431 384.996C166.577 384.736 166.65 384.439 166.65 384.105V379ZM171.325 387V379H174.325C174.939 379 175.455 379.107 175.871 379.32C176.291 379.534 176.607 379.833 176.821 380.219C177.037 380.602 177.145 381.048 177.145 381.559C177.145 382.072 177.036 382.517 176.817 382.895C176.601 383.27 176.282 383.56 175.86 383.766C175.438 383.969 174.92 384.07 174.305 384.07H172.168V382.867H174.11C174.469 382.867 174.763 382.818 174.993 382.719C175.222 382.617 175.391 382.47 175.5 382.277C175.612 382.082 175.668 381.842 175.668 381.559C175.668 381.275 175.612 381.033 175.5 380.832C175.388 380.629 175.218 380.475 174.989 380.371C174.76 380.264 174.464 380.211 174.102 380.211H172.774V387H171.325ZM175.457 383.375L177.438 387H175.821L173.875 383.375H175.457ZM181.156 387H179.609L182.426 379H184.215L187.035 387H185.488L183.352 380.641H183.289L181.156 387ZM181.207 383.863H185.426V385.027H181.207V383.863ZM189.739 387V379H191.188V385.785H194.712V387H189.739ZM207.357 381.555C207.292 381.344 207.202 381.155 207.088 380.988C206.976 380.819 206.84 380.674 206.681 380.555C206.525 380.435 206.346 380.345 206.142 380.285C205.939 380.223 205.718 380.191 205.478 380.191C205.049 380.191 204.666 380.299 204.33 380.516C203.994 380.732 203.73 381.049 203.537 381.469C203.347 381.885 203.252 382.393 203.252 382.992C203.252 383.596 203.347 384.108 203.537 384.527C203.727 384.947 203.991 385.266 204.33 385.484C204.668 385.701 205.062 385.809 205.51 385.809C205.916 385.809 206.267 385.73 206.564 385.574C206.864 385.418 207.094 385.197 207.256 384.91C207.417 384.621 207.498 384.283 207.498 383.895L207.826 383.945H205.654V382.812H208.9V383.773C208.9 384.458 208.754 385.051 208.463 385.551C208.171 386.051 207.77 386.436 207.26 386.707C206.749 386.975 206.163 387.109 205.502 387.109C204.765 387.109 204.118 386.944 203.56 386.613C203.006 386.28 202.572 385.807 202.26 385.195C201.95 384.581 201.795 383.852 201.795 383.008C201.795 382.362 201.886 381.785 202.068 381.277C202.253 380.77 202.511 380.339 202.842 379.984C203.172 379.628 203.56 379.357 204.006 379.172C204.451 378.984 204.935 378.891 205.459 378.891C205.901 378.891 206.314 378.956 206.697 379.086C207.08 379.214 207.42 379.396 207.717 379.633C208.016 379.87 208.262 380.151 208.455 380.477C208.648 380.802 208.774 381.161 208.834 381.555H207.357ZM212.732 387H211.185L214.001 379H215.79L218.611 387H217.064L214.927 380.641H214.865L212.732 387ZM212.783 383.863H217.001V385.027H212.783V383.863ZM225.533 381.199C225.497 380.858 225.343 380.592 225.072 380.402C224.804 380.212 224.455 380.117 224.025 380.117C223.723 380.117 223.464 380.163 223.248 380.254C223.032 380.345 222.867 380.469 222.752 380.625C222.637 380.781 222.579 380.96 222.576 381.16C222.576 381.327 222.614 381.471 222.689 381.594C222.768 381.716 222.873 381.82 223.006 381.906C223.139 381.99 223.286 382.06 223.447 382.117C223.609 382.174 223.771 382.223 223.936 382.262L224.686 382.449C224.988 382.52 225.278 382.615 225.557 382.734C225.838 382.854 226.089 383.005 226.311 383.188C226.535 383.37 226.712 383.59 226.842 383.848C226.972 384.105 227.037 384.408 227.037 384.754C227.037 385.223 226.917 385.635 226.678 385.992C226.438 386.346 226.092 386.624 225.639 386.824C225.188 387.022 224.643 387.121 224.002 387.121C223.38 387.121 222.839 387.025 222.381 386.832C221.925 386.639 221.568 386.358 221.311 385.988C221.055 385.618 220.917 385.168 220.896 384.637H222.322C222.343 384.915 222.429 385.147 222.58 385.332C222.731 385.517 222.928 385.655 223.17 385.746C223.415 385.837 223.688 385.883 223.99 385.883C224.305 385.883 224.581 385.836 224.818 385.742C225.058 385.646 225.245 385.513 225.381 385.344C225.516 385.172 225.585 384.971 225.588 384.742C225.585 384.534 225.524 384.362 225.404 384.227C225.285 384.089 225.117 383.974 224.9 383.883C224.687 383.789 224.437 383.706 224.15 383.633L223.24 383.398C222.581 383.229 222.061 382.973 221.678 382.629C221.298 382.283 221.107 381.823 221.107 381.25C221.107 380.779 221.235 380.366 221.49 380.012C221.748 379.658 222.098 379.383 222.541 379.187C222.984 378.99 223.485 378.891 224.045 378.891C224.613 378.891 225.11 378.99 225.537 379.187C225.967 379.383 226.304 379.655 226.549 380.004C226.794 380.35 226.92 380.749 226.928 381.199H225.533Z" fill="#5E5E5E"/>
<path d="M164.1 398.902V399.825H160.876V398.902H164.1ZM168.033 403.121C167.472 403.118 166.993 402.97 166.595 402.677C166.197 402.383 165.893 401.956 165.682 401.395C165.472 400.834 165.366 400.158 165.366 399.367C165.366 398.579 165.472 397.905 165.682 397.347C165.896 396.788 166.201 396.362 166.599 396.068C166.999 395.775 167.477 395.628 168.033 395.628C168.59 395.628 169.067 395.776 169.464 396.072C169.862 396.365 170.166 396.791 170.377 397.35C170.59 397.906 170.697 398.579 170.697 399.367C170.697 400.16 170.591 400.837 170.381 401.398C170.17 401.957 169.866 402.384 169.468 402.68C169.07 402.974 168.592 403.121 168.033 403.121ZM168.033 402.173C168.526 402.173 168.91 401.932 169.187 401.452C169.467 400.971 169.606 400.276 169.606 399.367C169.606 398.763 169.543 398.253 169.415 397.837C169.289 397.418 169.108 397.1 168.871 396.885C168.637 396.667 168.358 396.558 168.033 396.558C167.543 396.558 167.159 396.8 166.879 397.283C166.6 397.766 166.459 398.46 166.457 399.367C166.457 399.973 166.519 400.486 166.645 400.905C166.773 401.321 166.954 401.638 167.188 401.853C167.422 402.066 167.704 402.173 168.033 402.173ZM171.956 403V402.205L174.417 399.655C174.68 399.378 174.897 399.135 175.067 398.927C175.24 398.716 175.369 398.516 175.454 398.327C175.54 398.137 175.582 397.936 175.582 397.723C175.582 397.482 175.525 397.273 175.412 397.098C175.298 396.92 175.143 396.784 174.946 396.69C174.75 396.593 174.529 396.544 174.282 396.544C174.022 396.544 173.795 396.597 173.601 396.704C173.406 396.81 173.257 396.961 173.153 397.155C173.049 397.349 172.997 397.576 172.997 397.837H171.949C171.949 397.394 172.051 397.007 172.255 396.675C172.458 396.344 172.738 396.087 173.093 395.905C173.448 395.72 173.852 395.628 174.304 395.628C174.761 395.628 175.163 395.719 175.511 395.901C175.861 396.081 176.135 396.327 176.331 396.64C176.528 396.95 176.626 397.3 176.626 397.691C176.626 397.961 176.575 398.225 176.473 398.483C176.374 398.741 176.2 399.029 175.951 399.346C175.703 399.661 175.357 400.043 174.915 400.493L173.469 402.006V402.059H176.743V403H171.956ZM178.803 403.067C178.609 403.067 178.442 402.999 178.302 402.862C178.163 402.722 178.093 402.554 178.093 402.357C178.093 402.163 178.163 401.997 178.302 401.86C178.442 401.72 178.609 401.651 178.803 401.651C178.997 401.651 179.164 401.72 179.304 401.86C179.443 401.997 179.513 402.163 179.513 402.357C179.513 402.487 179.48 402.607 179.414 402.716C179.35 402.822 179.265 402.908 179.158 402.972C179.052 403.036 178.933 403.067 178.803 403.067ZM183.19 403.121C182.628 403.118 182.149 402.97 181.751 402.677C181.354 402.383 181.049 401.956 180.839 401.395C180.628 400.834 180.523 400.158 180.523 399.367C180.523 398.579 180.628 397.905 180.839 397.347C181.052 396.788 181.357 396.362 181.755 396.068C182.155 395.775 182.633 395.628 183.19 395.628C183.746 395.628 184.223 395.776 184.621 396.072C185.018 396.365 185.323 396.791 185.533 397.35C185.746 397.906 185.853 398.579 185.853 399.367C185.853 400.16 185.748 400.837 185.537 401.398C185.326 401.957 185.022 402.384 184.624 402.68C184.226 402.974 183.748 403.121 183.19 403.121ZM183.19 402.173C183.682 402.173 184.067 401.932 184.344 401.452C184.623 400.971 184.763 400.276 184.763 399.367C184.763 398.763 184.699 398.253 184.571 397.837C184.445 397.418 184.264 397.1 184.028 396.885C183.793 396.667 183.514 396.558 183.19 396.558C182.699 396.558 182.315 396.8 182.035 397.283C181.756 397.766 181.615 398.46 181.613 399.367C181.613 399.973 181.676 400.486 181.801 400.905C181.929 401.321 182.11 401.638 182.344 401.853C182.579 402.066 182.86 402.173 183.19 402.173ZM187.113 403V402.205L189.574 399.655C189.836 399.378 190.053 399.135 190.223 398.927C190.396 398.716 190.525 398.516 190.611 398.327C190.696 398.137 190.738 397.936 190.738 397.723C190.738 397.482 190.682 397.273 190.568 397.098C190.454 396.92 190.299 396.784 190.103 396.69C189.906 396.593 189.685 396.544 189.439 396.544C189.178 396.544 188.951 396.597 188.757 396.704C188.563 396.81 188.414 396.961 188.309 397.155C188.205 397.349 188.153 397.576 188.153 397.837H187.106C187.106 397.394 187.207 397.007 187.411 396.675C187.615 396.344 187.894 396.087 188.249 395.905C188.604 395.72 189.008 395.628 189.46 395.628C189.917 395.628 190.319 395.719 190.667 395.901C191.018 396.081 191.291 396.327 191.488 396.64C191.684 396.95 191.782 397.3 191.782 397.691C191.782 397.961 191.732 398.225 191.63 398.483C191.53 398.741 191.356 399.029 191.108 399.346C190.859 399.661 190.513 400.043 190.071 400.493L188.625 402.006V402.059H191.9V403H187.113ZM197.042 401.636V401.253C197.042 400.978 197.098 400.727 197.212 400.5C197.328 400.27 197.496 400.087 197.716 399.95C197.939 399.81 198.208 399.74 198.522 399.74C198.844 399.74 199.114 399.809 199.332 399.946C199.55 400.083 199.714 400.267 199.826 400.496C199.939 400.726 199.996 400.978 199.996 401.253V401.636C199.996 401.911 199.939 402.163 199.826 402.393C199.712 402.62 199.545 402.804 199.325 402.943C199.107 403.08 198.84 403.149 198.522 403.149C198.203 403.149 197.933 403.08 197.713 402.943C197.493 402.804 197.326 402.62 197.212 402.393C197.098 402.163 197.042 401.911 197.042 401.636ZM197.869 401.253V401.636C197.869 401.84 197.918 402.025 198.015 402.19C198.112 402.356 198.281 402.439 198.522 402.439C198.762 402.439 198.928 402.356 199.023 402.19C199.118 402.025 199.165 401.84 199.165 401.636V401.253C199.165 401.049 199.119 400.865 199.027 400.699C198.937 400.533 198.769 400.45 198.522 400.45C198.286 400.45 198.118 400.533 198.018 400.699C197.919 400.865 197.869 401.049 197.869 401.253ZM193.384 397.474V397.091C193.384 396.816 193.441 396.564 193.554 396.335C193.67 396.105 193.839 395.921 194.059 395.784C194.281 395.647 194.55 395.578 194.865 395.578C195.187 395.578 195.457 395.647 195.674 395.784C195.892 395.921 196.057 396.105 196.168 396.335C196.279 396.564 196.335 396.816 196.335 397.091V397.474C196.335 397.749 196.278 398.001 196.165 398.231C196.053 398.458 195.888 398.642 195.667 398.781C195.45 398.919 195.182 398.987 194.865 398.987C194.543 398.987 194.272 398.919 194.052 398.781C193.834 398.642 193.668 398.458 193.554 398.231C193.441 398.001 193.384 397.749 193.384 397.474ZM194.215 397.091V397.474C194.215 397.678 194.262 397.863 194.357 398.028C194.454 398.194 194.623 398.277 194.865 398.277C195.102 398.277 195.267 398.194 195.362 398.028C195.459 397.863 195.508 397.678 195.508 397.474V397.091C195.508 396.887 195.461 396.703 195.369 396.537C195.277 396.371 195.109 396.288 194.865 396.288C194.628 396.288 194.46 396.371 194.361 396.537C194.263 396.703 194.215 396.887 194.215 397.091ZM193.721 403L198.721 395.727H199.57L194.57 403H193.721Z" fill="#555555"/>
<circle cx="361.746" cy="131.746" r="59.7465" fill="#FDFDFD"/>
<circle cx="361.746" cy="131.746" r="58.2465" stroke="#D1D3D4" stroke-opacity="0.2" stroke-width="3"/>
<path d="M336.947 108V124H334.369L326.83 113.102H326.697V124H323.799V108H326.393L333.924 118.906H334.064V108H336.947ZM343.434 124.242C342.673 124.242 341.988 124.107 341.379 123.836C340.775 123.56 340.296 123.154 339.941 122.617C339.592 122.081 339.418 121.419 339.418 120.633C339.418 119.956 339.543 119.396 339.793 118.953C340.043 118.51 340.384 118.156 340.816 117.891C341.249 117.625 341.736 117.424 342.277 117.289C342.824 117.148 343.389 117.047 343.973 116.984C344.676 116.911 345.246 116.846 345.684 116.789C346.121 116.727 346.439 116.633 346.637 116.508C346.84 116.378 346.941 116.177 346.941 115.906V115.859C346.941 115.271 346.767 114.815 346.418 114.492C346.069 114.169 345.566 114.008 344.91 114.008C344.217 114.008 343.668 114.159 343.262 114.461C342.861 114.763 342.59 115.12 342.449 115.531L339.809 115.156C340.017 114.427 340.361 113.818 340.84 113.328C341.319 112.833 341.905 112.464 342.598 112.219C343.29 111.969 344.056 111.844 344.895 111.844C345.473 111.844 346.048 111.911 346.621 112.047C347.194 112.182 347.717 112.406 348.191 112.719C348.665 113.026 349.046 113.445 349.332 113.977C349.624 114.508 349.77 115.172 349.77 115.969V124H347.051V122.352H346.957C346.785 122.685 346.543 122.997 346.23 123.289C345.923 123.576 345.535 123.807 345.066 123.984C344.603 124.156 344.059 124.242 343.434 124.242ZM344.168 122.164C344.736 122.164 345.228 122.052 345.645 121.828C346.061 121.599 346.382 121.297 346.605 120.922C346.835 120.547 346.949 120.138 346.949 119.695V118.281C346.861 118.354 346.71 118.422 346.496 118.484C346.288 118.547 346.053 118.602 345.793 118.648C345.533 118.695 345.275 118.737 345.02 118.773C344.764 118.81 344.543 118.841 344.355 118.867C343.934 118.924 343.556 119.018 343.223 119.148C342.889 119.279 342.626 119.461 342.434 119.695C342.241 119.924 342.145 120.221 342.145 120.586C342.145 121.107 342.335 121.5 342.715 121.766C343.095 122.031 343.579 122.164 344.168 122.164ZM358.605 112V114.187H351.707V112H358.605ZM353.41 109.125H356.238V120.391C356.238 120.771 356.296 121.063 356.41 121.266C356.53 121.464 356.686 121.599 356.879 121.672C357.072 121.745 357.285 121.781 357.52 121.781C357.697 121.781 357.858 121.768 358.004 121.742C358.155 121.716 358.27 121.693 358.348 121.672L358.824 123.883C358.673 123.935 358.457 123.992 358.176 124.055C357.9 124.117 357.561 124.154 357.16 124.164C356.452 124.185 355.814 124.078 355.246 123.844C354.678 123.604 354.228 123.234 353.895 122.734C353.566 122.234 353.405 121.609 353.41 120.859V109.125ZM368.619 118.953V112H371.447V124H368.705V121.867H368.58C368.309 122.539 367.864 123.089 367.244 123.516C366.63 123.943 365.872 124.156 364.971 124.156C364.184 124.156 363.489 123.982 362.885 123.633C362.286 123.279 361.817 122.766 361.479 122.094C361.14 121.417 360.971 120.599 360.971 119.641V112H363.799V119.203C363.799 119.964 364.007 120.568 364.424 121.016C364.84 121.464 365.387 121.687 366.064 121.687C366.481 121.687 366.885 121.586 367.275 121.383C367.666 121.18 367.986 120.878 368.236 120.477C368.492 120.07 368.619 119.562 368.619 118.953ZM374.355 124V112H377.098V114H377.223C377.441 113.307 377.816 112.773 378.348 112.398C378.884 112.018 379.496 111.828 380.184 111.828C380.34 111.828 380.514 111.836 380.707 111.852C380.905 111.862 381.069 111.88 381.199 111.906V114.508C381.079 114.466 380.889 114.43 380.629 114.398C380.374 114.362 380.126 114.344 379.887 114.344C379.371 114.344 378.908 114.456 378.496 114.68C378.09 114.898 377.77 115.203 377.535 115.594C377.301 115.984 377.184 116.435 377.184 116.945V124H374.355ZM386.316 124.242C385.556 124.242 384.871 124.107 384.262 123.836C383.658 123.56 383.178 123.154 382.824 122.617C382.475 122.081 382.301 121.419 382.301 120.633C382.301 119.956 382.426 119.396 382.676 118.953C382.926 118.51 383.267 118.156 383.699 117.891C384.132 117.625 384.618 117.424 385.16 117.289C385.707 117.148 386.272 117.047 386.855 116.984C387.559 116.911 388.129 116.846 388.566 116.789C389.004 116.727 389.322 116.633 389.52 116.508C389.723 116.378 389.824 116.177 389.824 115.906V115.859C389.824 115.271 389.65 114.815 389.301 114.492C388.952 114.169 388.449 114.008 387.793 114.008C387.1 114.008 386.551 114.159 386.145 114.461C385.743 114.763 385.473 115.12 385.332 115.531L382.691 115.156C382.9 114.427 383.243 113.818 383.723 113.328C384.202 112.833 384.788 112.464 385.48 112.219C386.173 111.969 386.939 111.844 387.777 111.844C388.355 111.844 388.931 111.911 389.504 112.047C390.077 112.182 390.6 112.406 391.074 112.719C391.548 113.026 391.928 113.445 392.215 113.977C392.507 114.508 392.652 115.172 392.652 115.969V124H389.934V122.352H389.84C389.668 122.685 389.426 122.997 389.113 123.289C388.806 123.576 388.418 123.807 387.949 123.984C387.486 124.156 386.941 124.242 386.316 124.242ZM387.051 122.164C387.618 122.164 388.111 122.052 388.527 121.828C388.944 121.599 389.264 121.297 389.488 120.922C389.717 120.547 389.832 120.138 389.832 119.695V118.281C389.743 118.354 389.592 118.422 389.379 118.484C389.171 118.547 388.936 118.602 388.676 118.648C388.415 118.695 388.158 118.737 387.902 118.773C387.647 118.81 387.426 118.841 387.238 118.867C386.816 118.924 386.439 119.018 386.105 119.148C385.772 119.279 385.509 119.461 385.316 119.695C385.124 119.924 385.027 120.221 385.027 120.586C385.027 121.107 385.217 121.5 385.598 121.766C385.978 122.031 386.462 122.164 387.051 122.164ZM398.324 108V124H395.496V108H398.324Z" fill="black"/>
<path d="M321.823 143V151H320.534L316.765 145.551H316.698V151H315.249V143H316.546L320.312 148.453H320.382V143H321.823ZM326.08 151H324.533L327.349 143H329.138L331.959 151H330.412L328.275 144.641H328.212L326.08 151ZM326.13 147.863H330.349V149.027H326.13V147.863ZM333.344 144.215V143H339.727V144.215H337.254V151H335.817V144.215H333.344ZM347.65 143H349.099V148.227C349.099 148.799 348.964 149.303 348.693 149.738C348.425 150.173 348.047 150.513 347.56 150.758C347.073 151 346.504 151.121 345.853 151.121C345.2 151.121 344.629 151 344.142 150.758C343.655 150.513 343.278 150.173 343.01 149.738C342.741 149.303 342.607 148.799 342.607 148.227V143H344.056V148.105C344.056 148.439 344.129 148.736 344.275 148.996C344.424 149.257 344.632 149.461 344.9 149.609C345.168 149.755 345.486 149.828 345.853 149.828C346.221 149.828 346.538 149.755 346.806 149.609C347.077 149.461 347.286 149.257 347.431 148.996C347.577 148.736 347.65 148.439 347.65 148.105V143ZM352.325 151V143H355.325C355.939 143 356.455 143.107 356.871 143.32C357.291 143.534 357.607 143.833 357.821 144.219C358.037 144.602 358.145 145.048 358.145 145.559C358.145 146.072 358.036 146.517 357.817 146.895C357.601 147.27 357.282 147.56 356.86 147.766C356.438 147.969 355.92 148.07 355.305 148.07H353.168V146.867H355.11C355.469 146.867 355.763 146.818 355.993 146.719C356.222 146.617 356.391 146.47 356.5 146.277C356.612 146.082 356.668 145.842 356.668 145.559C356.668 145.275 356.612 145.033 356.5 144.832C356.388 144.629 356.218 144.475 355.989 144.371C355.76 144.264 355.464 144.211 355.102 144.211H353.774V151H352.325ZM356.457 147.375L358.438 151H356.821L354.875 147.375H356.457ZM362.156 151H360.609L363.426 143H365.215L368.035 151H366.488L364.352 144.641H364.289L362.156 151ZM362.207 147.863H366.426V149.027H362.207V147.863ZM370.739 151V143H372.188V149.785H375.712V151H370.739ZM388.357 145.555C388.292 145.344 388.202 145.155 388.088 144.988C387.976 144.819 387.84 144.674 387.681 144.555C387.525 144.435 387.346 144.345 387.142 144.285C386.939 144.223 386.718 144.191 386.478 144.191C386.049 144.191 385.666 144.299 385.33 144.516C384.994 144.732 384.73 145.049 384.537 145.469C384.347 145.885 384.252 146.393 384.252 146.992C384.252 147.596 384.347 148.108 384.537 148.527C384.727 148.947 384.991 149.266 385.33 149.484C385.668 149.701 386.062 149.809 386.51 149.809C386.916 149.809 387.267 149.73 387.564 149.574C387.864 149.418 388.094 149.197 388.256 148.91C388.417 148.621 388.498 148.283 388.498 147.895L388.826 147.945H386.654V146.812H389.9V147.773C389.9 148.458 389.754 149.051 389.463 149.551C389.171 150.051 388.77 150.436 388.26 150.707C387.749 150.975 387.163 151.109 386.502 151.109C385.765 151.109 385.118 150.944 384.56 150.613C384.006 150.28 383.572 149.807 383.26 149.195C382.95 148.581 382.795 147.852 382.795 147.008C382.795 146.362 382.886 145.785 383.068 145.277C383.253 144.77 383.511 144.339 383.842 143.984C384.172 143.628 384.56 143.357 385.006 143.172C385.451 142.984 385.935 142.891 386.459 142.891C386.901 142.891 387.314 142.956 387.697 143.086C388.08 143.214 388.42 143.396 388.717 143.633C389.016 143.87 389.262 144.151 389.455 144.477C389.648 144.802 389.774 145.161 389.834 145.555H388.357ZM393.732 151H392.185L395.001 143H396.79L399.611 151H398.064L395.927 144.641H395.865L393.732 151ZM393.783 147.863H398.001V149.027H393.783V147.863ZM406.533 145.199C406.497 144.858 406.343 144.592 406.072 144.402C405.804 144.212 405.455 144.117 405.025 144.117C404.723 144.117 404.464 144.163 404.248 144.254C404.032 144.345 403.867 144.469 403.752 144.625C403.637 144.781 403.579 144.96 403.576 145.16C403.576 145.327 403.614 145.471 403.689 145.594C403.768 145.716 403.873 145.82 404.006 145.906C404.139 145.99 404.286 146.06 404.447 146.117C404.609 146.174 404.771 146.223 404.936 146.262L405.686 146.449C405.988 146.52 406.278 146.615 406.557 146.734C406.838 146.854 407.089 147.005 407.311 147.188C407.535 147.37 407.712 147.59 407.842 147.848C407.972 148.105 408.037 148.408 408.037 148.754C408.037 149.223 407.917 149.635 407.678 149.992C407.438 150.346 407.092 150.624 406.639 150.824C406.188 151.022 405.643 151.121 405.002 151.121C404.38 151.121 403.839 151.025 403.381 150.832C402.925 150.639 402.568 150.358 402.311 149.988C402.055 149.618 401.917 149.168 401.896 148.637H403.322C403.343 148.915 403.429 149.147 403.58 149.332C403.731 149.517 403.928 149.655 404.17 149.746C404.415 149.837 404.688 149.883 404.99 149.883C405.305 149.883 405.581 149.836 405.818 149.742C406.058 149.646 406.245 149.513 406.381 149.344C406.516 149.172 406.585 148.971 406.588 148.742C406.585 148.534 406.524 148.362 406.404 148.227C406.285 148.089 406.117 147.974 405.9 147.883C405.687 147.789 405.437 147.706 405.15 147.633L404.24 147.398C403.581 147.229 403.061 146.973 402.678 146.629C402.298 146.283 402.107 145.823 402.107 145.25C402.107 144.779 402.235 144.366 402.49 144.012C402.748 143.658 403.098 143.383 403.541 143.187C403.984 142.99 404.485 142.891 405.045 142.891C405.613 142.891 406.11 142.99 406.537 143.187C406.967 143.383 407.304 143.655 407.549 144.004C407.794 144.35 407.92 144.749 407.928 145.199H406.533Z" fill="#5E5E5E"/>
<path d="M345.1 162.902V163.825H341.876V162.902H345.1ZM349.033 167.121C348.472 167.118 347.993 166.97 347.595 166.677C347.197 166.383 346.893 165.956 346.682 165.395C346.472 164.834 346.366 164.158 346.366 163.367C346.366 162.579 346.472 161.905 346.682 161.347C346.896 160.788 347.201 160.362 347.599 160.068C347.999 159.775 348.477 159.628 349.033 159.628C349.59 159.628 350.067 159.776 350.464 160.072C350.862 160.365 351.166 160.791 351.377 161.35C351.59 161.906 351.697 162.579 351.697 163.367C351.697 164.16 351.591 164.837 351.381 165.398C351.17 165.957 350.866 166.384 350.468 166.68C350.07 166.974 349.592 167.121 349.033 167.121ZM349.033 166.173C349.526 166.173 349.91 165.932 350.187 165.452C350.467 164.971 350.606 164.276 350.606 163.367C350.606 162.763 350.543 162.253 350.415 161.837C350.289 161.418 350.108 161.1 349.871 160.885C349.637 160.667 349.358 160.558 349.033 160.558C348.543 160.558 348.159 160.8 347.879 161.283C347.6 161.766 347.459 162.46 347.457 163.367C347.457 163.973 347.519 164.486 347.645 164.905C347.773 165.321 347.954 165.638 348.188 165.853C348.422 166.066 348.704 166.173 349.033 166.173ZM352.956 167V166.205L355.417 163.655C355.68 163.378 355.897 163.135 356.067 162.927C356.24 162.716 356.369 162.516 356.454 162.327C356.54 162.137 356.582 161.936 356.582 161.723C356.582 161.482 356.525 161.273 356.412 161.098C356.298 160.92 356.143 160.784 355.946 160.69C355.75 160.593 355.529 160.544 355.282 160.544C355.022 160.544 354.795 160.597 354.601 160.704C354.406 160.81 354.257 160.961 354.153 161.155C354.049 161.349 353.997 161.576 353.997 161.837H352.949C352.949 161.394 353.051 161.007 353.255 160.675C353.458 160.344 353.738 160.087 354.093 159.905C354.448 159.72 354.852 159.628 355.304 159.628C355.761 159.628 356.163 159.719 356.511 159.901C356.861 160.081 357.135 160.327 357.331 160.64C357.528 160.95 357.626 161.3 357.626 161.691C357.626 161.961 357.575 162.225 357.473 162.483C357.374 162.741 357.2 163.029 356.951 163.346C356.703 163.661 356.357 164.043 355.915 164.493L354.469 166.006V166.059H357.743V167H352.956ZM359.803 167.067C359.609 167.067 359.442 166.999 359.302 166.862C359.163 166.722 359.093 166.554 359.093 166.357C359.093 166.163 359.163 165.997 359.302 165.86C359.442 165.72 359.609 165.651 359.803 165.651C359.997 165.651 360.164 165.72 360.304 165.86C360.443 165.997 360.513 166.163 360.513 166.357C360.513 166.487 360.48 166.607 360.414 166.716C360.35 166.822 360.265 166.908 360.158 166.972C360.052 167.036 359.933 167.067 359.803 167.067ZM364.19 167.121C363.628 167.118 363.149 166.97 362.751 166.677C362.354 166.383 362.049 165.956 361.839 165.395C361.628 164.834 361.523 164.158 361.523 163.367C361.523 162.579 361.628 161.905 361.839 161.347C362.052 160.788 362.357 160.362 362.755 160.068C363.155 159.775 363.633 159.628 364.19 159.628C364.746 159.628 365.223 159.776 365.621 160.072C366.018 160.365 366.323 160.791 366.533 161.35C366.746 161.906 366.853 162.579 366.853 163.367C366.853 164.16 366.748 164.837 366.537 165.398C366.326 165.957 366.022 166.384 365.624 166.68C365.226 166.974 364.748 167.121 364.19 167.121ZM364.19 166.173C364.682 166.173 365.067 165.932 365.344 165.452C365.623 164.971 365.763 164.276 365.763 163.367C365.763 162.763 365.699 162.253 365.571 161.837C365.445 161.418 365.264 161.1 365.028 160.885C364.793 160.667 364.514 160.558 364.19 160.558C363.699 160.558 363.315 160.8 363.035 161.283C362.756 161.766 362.615 162.46 362.613 163.367C362.613 163.973 362.676 164.486 362.801 164.905C362.929 165.321 363.11 165.638 363.344 165.853C363.579 166.066 363.86 166.173 364.19 166.173ZM368.113 167V166.205L370.574 163.655C370.836 163.378 371.053 163.135 371.223 162.927C371.396 162.716 371.525 162.516 371.611 162.327C371.696 162.137 371.738 161.936 371.738 161.723C371.738 161.482 371.682 161.273 371.568 161.098C371.454 160.92 371.299 160.784 371.103 160.69C370.906 160.593 370.685 160.544 370.439 160.544C370.178 160.544 369.951 160.597 369.757 160.704C369.563 160.81 369.414 160.961 369.309 161.155C369.205 161.349 369.153 161.576 369.153 161.837H368.106C368.106 161.394 368.207 161.007 368.411 160.675C368.615 160.344 368.894 160.087 369.249 159.905C369.604 159.72 370.008 159.628 370.46 159.628C370.917 159.628 371.319 159.719 371.667 159.901C372.018 160.081 372.291 160.327 372.488 160.64C372.684 160.95 372.782 161.3 372.782 161.691C372.782 161.961 372.732 162.225 372.63 162.483C372.53 162.741 372.356 163.029 372.108 163.346C371.859 163.661 371.513 164.043 371.071 164.493L369.625 166.006V166.059H372.9V167H368.113ZM378.042 165.636V165.253C378.042 164.978 378.098 164.727 378.212 164.5C378.328 164.27 378.496 164.087 378.716 163.95C378.939 163.81 379.208 163.74 379.522 163.74C379.844 163.74 380.114 163.809 380.332 163.946C380.55 164.083 380.714 164.267 380.826 164.496C380.939 164.726 380.996 164.978 380.996 165.253V165.636C380.996 165.911 380.939 166.163 380.826 166.393C380.712 166.62 380.545 166.804 380.325 166.943C380.107 167.08 379.84 167.149 379.522 167.149C379.203 167.149 378.933 167.08 378.713 166.943C378.493 166.804 378.326 166.62 378.212 166.393C378.098 166.163 378.042 165.911 378.042 165.636ZM378.869 165.253V165.636C378.869 165.84 378.918 166.025 379.015 166.19C379.112 166.356 379.281 166.439 379.522 166.439C379.762 166.439 379.928 166.356 380.023 166.19C380.118 166.025 380.165 165.84 380.165 165.636V165.253C380.165 165.049 380.119 164.865 380.027 164.699C379.937 164.533 379.769 164.45 379.522 164.45C379.286 164.45 379.118 164.533 379.018 164.699C378.919 164.865 378.869 165.049 378.869 165.253ZM374.384 161.474V161.091C374.384 160.816 374.441 160.564 374.554 160.335C374.67 160.105 374.839 159.921 375.059 159.784C375.281 159.647 375.55 159.578 375.865 159.578C376.187 159.578 376.457 159.647 376.674 159.784C376.892 159.921 377.057 160.105 377.168 160.335C377.279 160.564 377.335 160.816 377.335 161.091V161.474C377.335 161.749 377.278 162.001 377.165 162.231C377.053 162.458 376.888 162.642 376.667 162.781C376.45 162.919 376.182 162.987 375.865 162.987C375.543 162.987 375.272 162.919 375.052 162.781C374.834 162.642 374.668 162.458 374.554 162.231C374.441 162.001 374.384 161.749 374.384 161.474ZM375.215 161.091V161.474C375.215 161.678 375.262 161.863 375.357 162.028C375.454 162.194 375.623 162.277 375.865 162.277C376.102 162.277 376.267 162.194 376.362 162.028C376.459 161.863 376.508 161.678 376.508 161.474V161.091C376.508 160.887 376.461 160.703 376.369 160.537C376.277 160.371 376.109 160.288 375.865 160.288C375.628 160.288 375.46 160.371 375.361 160.537C375.263 160.703 375.215 160.887 375.215 161.091ZM374.721 167L379.721 159.727H380.57L375.57 167H374.721Z" fill="#555555"/>
<g filter="url(#filter2_d_450_3708)">
<circle cx="363.169" cy="321.169" r="61.169" fill="#FDFDFD"/>
<circle cx="363.169" cy="321.169" r="59.669" stroke="#9A9A9A" stroke-opacity="0.08" stroke-width="3"/>
</g>
<path d="M343.76 294.326H341.369C341.301 293.934 341.176 293.587 340.992 293.284C340.809 292.977 340.581 292.717 340.308 292.504C340.036 292.291 339.725 292.131 339.375 292.025C339.03 291.914 338.657 291.859 338.257 291.859C337.545 291.859 336.914 292.038 336.365 292.396C335.815 292.749 335.384 293.269 335.073 293.955C334.762 294.637 334.607 295.47 334.607 296.455C334.607 297.456 334.762 298.3 335.073 298.986C335.389 299.668 335.819 300.183 336.365 300.533C336.914 300.878 337.543 301.05 338.25 301.05C338.642 301.05 339.009 300.999 339.35 300.897C339.695 300.79 340.004 300.635 340.276 300.43C340.553 300.226 340.786 299.974 340.973 299.676C341.165 299.378 341.297 299.037 341.369 298.653L343.76 298.666C343.671 299.288 343.477 299.872 343.178 300.418C342.884 300.963 342.499 301.445 342.021 301.862C341.544 302.276 340.986 302.599 340.347 302.834C339.708 303.064 338.998 303.179 338.218 303.179C337.068 303.179 336.041 302.913 335.137 302.38C334.234 301.847 333.522 301.078 333.002 300.072C332.482 299.067 332.222 297.861 332.222 296.455C332.222 295.044 332.485 293.838 333.009 292.837C333.533 291.831 334.247 291.062 335.15 290.529C336.053 289.996 337.076 289.73 338.218 289.73C338.947 289.73 339.624 289.832 340.251 290.037C340.877 290.241 341.436 290.542 341.926 290.938C342.416 291.33 342.818 291.812 343.134 292.383C343.453 292.95 343.662 293.597 343.76 294.326ZM345.83 303V293.182H348.073V294.818H348.175C348.354 294.251 348.661 293.815 349.096 293.508C349.535 293.197 350.036 293.041 350.598 293.041C350.726 293.041 350.869 293.048 351.026 293.06C351.188 293.069 351.322 293.084 351.429 293.105V295.234C351.331 295.2 351.175 295.17 350.962 295.144C350.754 295.114 350.551 295.099 350.355 295.099C349.933 295.099 349.554 295.191 349.217 295.374C348.885 295.553 348.623 295.803 348.431 296.122C348.239 296.442 348.143 296.81 348.143 297.228V303H345.83ZM359.224 298.871V293.182H361.538V303H359.294V301.255H359.192C358.971 301.805 358.606 302.254 358.099 302.604C357.596 302.953 356.976 303.128 356.239 303.128C355.596 303.128 355.027 302.985 354.532 302.7C354.042 302.41 353.659 301.99 353.382 301.44C353.105 300.886 352.966 300.217 352.966 299.433V293.182H355.28V299.075C355.28 299.697 355.451 300.192 355.792 300.558C356.132 300.925 356.58 301.108 357.134 301.108C357.475 301.108 357.805 301.025 358.125 300.859C358.444 300.692 358.706 300.445 358.911 300.117C359.12 299.785 359.224 299.369 359.224 298.871ZM367.561 303.173C366.79 303.173 366.099 302.974 365.49 302.578C364.881 302.182 364.399 301.607 364.045 300.852C363.692 300.098 363.515 299.182 363.515 298.104C363.515 297.013 363.694 296.092 364.052 295.342C364.414 294.588 364.902 294.019 365.515 293.636C366.129 293.248 366.813 293.054 367.567 293.054C368.143 293.054 368.616 293.152 368.986 293.348C369.357 293.54 369.651 293.772 369.868 294.045C370.086 294.313 370.254 294.567 370.373 294.805H370.469V289.909H372.79V303H370.514V301.453H370.373C370.254 301.692 370.081 301.945 369.856 302.214C369.63 302.478 369.331 302.704 368.961 302.891C368.59 303.079 368.123 303.173 367.561 303.173ZM368.206 301.274C368.697 301.274 369.114 301.142 369.459 300.878C369.805 300.609 370.067 300.237 370.246 299.759C370.425 299.282 370.514 298.726 370.514 298.091C370.514 297.456 370.425 296.904 370.246 296.435C370.071 295.967 369.811 295.602 369.466 295.342C369.125 295.082 368.705 294.952 368.206 294.952C367.691 294.952 367.26 295.087 366.915 295.355C366.57 295.624 366.31 295.994 366.135 296.467C365.961 296.94 365.873 297.482 365.873 298.091C365.873 298.705 365.961 299.252 366.135 299.734C366.314 300.211 366.577 300.588 366.922 300.865C367.271 301.138 367.699 301.274 368.206 301.274ZM379.602 303.192C378.618 303.192 377.767 302.987 377.051 302.578C376.34 302.165 375.792 301.581 375.409 300.827C375.025 300.068 374.833 299.175 374.833 298.148C374.833 297.138 375.025 296.252 375.409 295.489C375.797 294.722 376.338 294.126 377.032 293.7C377.727 293.269 378.543 293.054 379.48 293.054C380.086 293.054 380.657 293.152 381.194 293.348C381.735 293.54 382.212 293.838 382.625 294.243C383.043 294.648 383.371 295.163 383.61 295.79C383.848 296.412 383.968 297.153 383.968 298.014V298.724H375.92V297.164H381.75C381.745 296.721 381.65 296.327 381.462 295.982C381.275 295.632 381.012 295.357 380.676 295.157C380.343 294.957 379.956 294.857 379.512 294.857C379.039 294.857 378.624 294.972 378.266 295.202C377.908 295.428 377.629 295.726 377.429 296.097C377.233 296.463 377.132 296.866 377.128 297.305V298.666C377.128 299.237 377.233 299.727 377.441 300.136C377.65 300.541 377.942 300.852 378.317 301.07C378.692 301.283 379.131 301.389 379.634 301.389C379.971 301.389 380.275 301.342 380.548 301.249C380.821 301.151 381.057 301.008 381.257 300.82C381.458 300.633 381.609 300.401 381.711 300.124L383.872 300.366C383.735 300.937 383.475 301.436 383.092 301.862C382.713 302.284 382.227 302.612 381.635 302.847C381.042 303.077 380.365 303.192 379.602 303.192Z" fill="black"/>
<path d="M329.637 325.217H328.044C327.998 324.956 327.914 324.724 327.792 324.523C327.67 324.318 327.518 324.145 327.336 324.003C327.154 323.861 326.947 323.754 326.714 323.683C326.484 323.609 326.235 323.572 325.968 323.572C325.494 323.572 325.073 323.692 324.707 323.93C324.34 324.166 324.054 324.513 323.846 324.97C323.639 325.425 323.535 325.98 323.535 326.636C323.535 327.304 323.639 327.866 323.846 328.324C324.056 328.778 324.343 329.122 324.707 329.355C325.073 329.585 325.492 329.7 325.964 329.7C326.225 329.7 326.47 329.666 326.697 329.598C326.927 329.527 327.133 329.423 327.315 329.287C327.5 329.151 327.654 328.983 327.779 328.784C327.907 328.585 327.995 328.358 328.044 328.102L329.637 328.111C329.578 328.526 329.448 328.915 329.25 329.278C329.054 329.642 328.796 329.963 328.478 330.241C328.16 330.517 327.788 330.733 327.362 330.889C326.936 331.043 326.463 331.119 325.943 331.119C325.176 331.119 324.491 330.942 323.889 330.587C323.287 330.232 322.812 329.719 322.465 329.048C322.119 328.378 321.946 327.574 321.946 326.636C321.946 325.696 322.12 324.892 322.47 324.224C322.819 323.554 323.295 323.041 323.897 322.686C324.5 322.331 325.181 322.153 325.943 322.153C326.429 322.153 326.88 322.222 327.298 322.358C327.715 322.494 328.088 322.695 328.414 322.959C328.741 323.22 329.01 323.541 329.22 323.922C329.433 324.3 329.572 324.732 329.637 325.217ZM332.525 331V322.273H335.798C336.468 322.273 337.031 322.389 337.485 322.622C337.943 322.855 338.288 323.182 338.521 323.602C338.757 324.02 338.875 324.507 338.875 325.064C338.875 325.624 338.755 326.109 338.517 326.521C338.281 326.93 337.933 327.247 337.473 327.472C337.012 327.693 336.447 327.804 335.777 327.804H333.446V326.491H335.564C335.956 326.491 336.277 326.437 336.527 326.33C336.777 326.219 336.961 326.058 337.081 325.848C337.203 325.635 337.264 325.374 337.264 325.064C337.264 324.754 337.203 324.49 337.081 324.271C336.958 324.05 336.772 323.882 336.522 323.768C336.272 323.652 335.95 323.594 335.555 323.594H334.106V331H332.525ZM337.034 327.045L339.194 331H337.43L335.308 327.045H337.034ZM347.271 322.273H348.852V327.974C348.852 328.599 348.705 329.149 348.409 329.624C348.116 330.098 347.705 330.469 347.173 330.736C346.642 331 346.021 331.132 345.311 331.132C344.598 331.132 343.976 331 343.445 330.736C342.913 330.469 342.501 330.098 342.209 329.624C341.916 329.149 341.77 328.599 341.77 327.974V322.273H343.351V327.842C343.351 328.206 343.43 328.53 343.589 328.814C343.751 329.098 343.979 329.321 344.271 329.483C344.564 329.642 344.91 329.722 345.311 329.722C345.712 329.722 346.058 329.642 346.351 329.483C346.646 329.321 346.874 329.098 347.033 328.814C347.192 328.53 347.271 328.206 347.271 327.842V322.273ZM354.968 331H352.011V322.273H355.028C355.894 322.273 356.638 322.447 357.261 322.797C357.886 323.143 358.366 323.642 358.701 324.293C359.036 324.943 359.204 325.722 359.204 326.628C359.204 327.537 359.035 328.318 358.697 328.972C358.361 329.625 357.877 330.126 357.244 330.476C356.613 330.825 355.854 331 354.968 331ZM353.592 329.632H354.891C355.499 329.632 356.006 329.521 356.413 329.3C356.819 329.075 357.124 328.741 357.329 328.298C357.533 327.852 357.636 327.295 357.636 326.628C357.636 325.96 357.533 325.406 357.329 324.966C357.124 324.523 356.822 324.192 356.421 323.973C356.023 323.751 355.529 323.641 354.938 323.641H353.592V329.632ZM362.146 331V322.273H367.822V323.598H363.727V325.967H367.528V327.293H363.727V329.675H367.856V331H362.146ZM383.09 326.636C383.09 327.577 382.914 328.382 382.561 329.053C382.212 329.72 381.735 330.232 381.13 330.587C380.527 330.942 379.844 331.119 379.08 331.119C378.316 331.119 377.631 330.942 377.026 330.587C376.424 330.229 375.946 329.716 375.594 329.048C375.245 328.378 375.07 327.574 375.07 326.636C375.07 325.696 375.245 324.892 375.594 324.224C375.946 323.554 376.424 323.041 377.026 322.686C377.631 322.331 378.316 322.153 379.08 322.153C379.844 322.153 380.527 322.331 381.13 322.686C381.735 323.041 382.212 323.554 382.561 324.224C382.914 324.892 383.09 325.696 383.09 326.636ZM381.5 326.636C381.5 325.974 381.397 325.416 381.189 324.962C380.985 324.504 380.701 324.159 380.337 323.926C379.973 323.69 379.554 323.572 379.08 323.572C378.605 323.572 378.186 323.69 377.823 323.926C377.459 324.159 377.174 324.504 376.966 324.962C376.762 325.416 376.659 325.974 376.659 326.636C376.659 327.298 376.762 327.858 376.966 328.315C377.174 328.77 377.459 329.115 377.823 329.351C378.186 329.584 378.605 329.7 379.08 329.7C379.554 329.7 379.973 329.584 380.337 329.351C380.701 329.115 380.985 328.77 381.189 328.315C381.397 327.858 381.5 327.298 381.5 326.636ZM387.606 322.273V331H386.025V322.273H387.606ZM390.758 331V322.273H392.338V329.675H396.182V331H390.758Z" fill="#5E5E5E"/>
<path d="M342.1 342.902V343.825H338.876V342.902H342.1ZM346.033 347.121C345.472 347.118 344.993 346.97 344.595 346.677C344.197 346.383 343.893 345.956 343.682 345.395C343.472 344.834 343.366 344.158 343.366 343.367C343.366 342.579 343.472 341.905 343.682 341.347C343.896 340.788 344.201 340.362 344.599 340.068C344.999 339.775 345.477 339.628 346.033 339.628C346.59 339.628 347.067 339.776 347.464 340.072C347.862 340.365 348.166 340.791 348.377 341.35C348.59 341.906 348.697 342.579 348.697 343.367C348.697 344.16 348.591 344.837 348.381 345.398C348.17 345.957 347.866 346.384 347.468 346.68C347.07 346.974 346.592 347.121 346.033 347.121ZM346.033 346.173C346.526 346.173 346.91 345.932 347.187 345.452C347.467 344.971 347.606 344.276 347.606 343.367C347.606 342.763 347.543 342.253 347.415 341.837C347.289 341.418 347.108 341.1 346.871 340.885C346.637 340.667 346.358 340.558 346.033 340.558C345.543 340.558 345.159 340.8 344.879 341.283C344.6 341.766 344.459 342.46 344.457 343.367C344.457 343.973 344.519 344.486 344.645 344.905C344.773 345.321 344.954 345.638 345.188 345.853C345.422 346.066 345.704 346.173 346.033 346.173ZM349.956 347V346.205L352.417 343.655C352.68 343.378 352.897 343.135 353.067 342.927C353.24 342.716 353.369 342.516 353.454 342.327C353.54 342.137 353.582 341.936 353.582 341.723C353.582 341.482 353.525 341.273 353.412 341.098C353.298 340.92 353.143 340.784 352.946 340.69C352.75 340.593 352.529 340.544 352.282 340.544C352.022 340.544 351.795 340.597 351.601 340.704C351.406 340.81 351.257 340.961 351.153 341.155C351.049 341.349 350.997 341.576 350.997 341.837H349.949C349.949 341.394 350.051 341.007 350.255 340.675C350.458 340.344 350.738 340.087 351.093 339.905C351.448 339.72 351.852 339.628 352.304 339.628C352.761 339.628 353.163 339.719 353.511 339.901C353.861 340.081 354.135 340.327 354.331 340.64C354.528 340.95 354.626 341.3 354.626 341.691C354.626 341.961 354.575 342.225 354.473 342.483C354.374 342.741 354.2 343.029 353.951 343.346C353.703 343.661 353.357 344.043 352.915 344.493L351.469 346.006V346.059H354.743V347H349.956ZM356.803 347.067C356.609 347.067 356.442 346.999 356.302 346.862C356.163 346.722 356.093 346.554 356.093 346.357C356.093 346.163 356.163 345.997 356.302 345.86C356.442 345.72 356.609 345.651 356.803 345.651C356.997 345.651 357.164 345.72 357.304 345.86C357.443 345.997 357.513 346.163 357.513 346.357C357.513 346.487 357.48 346.607 357.414 346.716C357.35 346.822 357.265 346.908 357.158 346.972C357.052 347.036 356.933 347.067 356.803 347.067ZM361.19 347.121C360.628 347.118 360.149 346.97 359.751 346.677C359.354 346.383 359.049 345.956 358.839 345.395C358.628 344.834 358.523 344.158 358.523 343.367C358.523 342.579 358.628 341.905 358.839 341.347C359.052 340.788 359.357 340.362 359.755 340.068C360.155 339.775 360.633 339.628 361.19 339.628C361.746 339.628 362.223 339.776 362.621 340.072C363.018 340.365 363.323 340.791 363.533 341.35C363.746 341.906 363.853 342.579 363.853 343.367C363.853 344.16 363.748 344.837 363.537 345.398C363.326 345.957 363.022 346.384 362.624 346.68C362.226 346.974 361.748 347.121 361.19 347.121ZM361.19 346.173C361.682 346.173 362.067 345.932 362.344 345.452C362.623 344.971 362.763 344.276 362.763 343.367C362.763 342.763 362.699 342.253 362.571 341.837C362.445 341.418 362.264 341.1 362.028 340.885C361.793 340.667 361.514 340.558 361.19 340.558C360.699 340.558 360.315 340.8 360.035 341.283C359.756 341.766 359.615 342.46 359.613 343.367C359.613 343.973 359.676 344.486 359.801 344.905C359.929 345.321 360.11 345.638 360.344 345.853C360.579 346.066 360.86 346.173 361.19 346.173ZM365.113 347V346.205L367.574 343.655C367.836 343.378 368.053 343.135 368.223 342.927C368.396 342.716 368.525 342.516 368.611 342.327C368.696 342.137 368.738 341.936 368.738 341.723C368.738 341.482 368.682 341.273 368.568 341.098C368.454 340.92 368.299 340.784 368.103 340.69C367.906 340.593 367.685 340.544 367.439 340.544C367.178 340.544 366.951 340.597 366.757 340.704C366.563 340.81 366.414 340.961 366.309 341.155C366.205 341.349 366.153 341.576 366.153 341.837H365.106C365.106 341.394 365.207 341.007 365.411 340.675C365.615 340.344 365.894 340.087 366.249 339.905C366.604 339.72 367.008 339.628 367.46 339.628C367.917 339.628 368.319 339.719 368.667 339.901C369.018 340.081 369.291 340.327 369.488 340.64C369.684 340.95 369.782 341.3 369.782 341.691C369.782 341.961 369.732 342.225 369.63 342.483C369.53 342.741 369.356 343.029 369.108 343.346C368.859 343.661 368.513 344.043 368.071 344.493L366.625 346.006V346.059H369.9V347H365.113ZM375.042 345.636V345.253C375.042 344.978 375.098 344.727 375.212 344.5C375.328 344.27 375.496 344.087 375.716 343.95C375.939 343.81 376.208 343.74 376.522 343.74C376.844 343.74 377.114 343.809 377.332 343.946C377.55 344.083 377.714 344.267 377.826 344.496C377.939 344.726 377.996 344.978 377.996 345.253V345.636C377.996 345.911 377.939 346.163 377.826 346.393C377.712 346.62 377.545 346.804 377.325 346.943C377.107 347.08 376.84 347.149 376.522 347.149C376.203 347.149 375.933 347.08 375.713 346.943C375.493 346.804 375.326 346.62 375.212 346.393C375.098 346.163 375.042 345.911 375.042 345.636ZM375.869 345.253V345.636C375.869 345.84 375.918 346.025 376.015 346.19C376.112 346.356 376.281 346.439 376.522 346.439C376.762 346.439 376.928 346.356 377.023 346.19C377.118 346.025 377.165 345.84 377.165 345.636V345.253C377.165 345.049 377.119 344.865 377.027 344.699C376.937 344.533 376.769 344.45 376.522 344.45C376.286 344.45 376.118 344.533 376.018 344.699C375.919 344.865 375.869 345.049 375.869 345.253ZM371.384 341.474V341.091C371.384 340.816 371.441 340.564 371.554 340.335C371.67 340.105 371.839 339.921 372.059 339.784C372.281 339.647 372.55 339.578 372.865 339.578C373.187 339.578 373.457 339.647 373.674 339.784C373.892 339.921 374.057 340.105 374.168 340.335C374.279 340.564 374.335 340.816 374.335 341.091V341.474C374.335 341.749 374.278 342.001 374.165 342.231C374.053 342.458 373.888 342.642 373.667 342.781C373.45 342.919 373.182 342.987 372.865 342.987C372.543 342.987 372.272 342.919 372.052 342.781C371.834 342.642 371.668 342.458 371.554 342.231C371.441 342.001 371.384 341.749 371.384 341.474ZM372.215 341.091V341.474C372.215 341.678 372.262 341.863 372.357 342.028C372.454 342.194 372.623 342.277 372.865 342.277C373.102 342.277 373.267 342.194 373.362 342.028C373.459 341.863 373.508 341.678 373.508 341.474V341.091C373.508 340.887 373.461 340.703 373.369 340.537C373.277 340.371 373.109 340.288 372.865 340.288C372.628 340.288 372.46 340.371 372.361 340.537C372.263 340.703 372.215 340.887 372.215 341.091ZM371.721 347L376.721 339.727H377.57L372.57 347H371.721Z" fill="#555555"/>
<g filter="url(#filter3_d_450_3708)">
<circle cx="236.311" cy="195.704" r="109.535" fill="#FDFDFD"/>
<circle cx="236.311" cy="195.704" r="108.035" stroke="#F09B1E" stroke-opacity="0.05" stroke-width="3"/>
</g>
<path d="M238.566 147.395C237.062 146.203 234.938 146.203 233.434 147.395C231.931 148.589 196.582 176.992 196.582 206.084C196.582 227.818 214.263 245.5 235.998 245.5C257.733 245.5 275.414 227.818 275.414 206.084C275.414 176.992 240.069 148.589 238.566 147.395ZM239.094 230.031C236.817 230.031 234.969 228.183 234.969 225.906C234.969 223.629 236.817 221.781 239.094 221.781C245.347 221.781 250.438 216.691 250.438 210.437C250.438 208.16 252.286 206.312 254.563 206.312C256.84 206.312 258.688 208.16 258.688 210.437C258.688 221.241 249.897 230.031 239.094 230.031Z" fill="black"/>
<g filter="url(#filter4_d_450_3708)">
<circle cx="114.056" cy="115.056" r="54.0563" fill="#FDFDFD"/>
<circle cx="114.056" cy="115.056" r="52.5563" stroke="#9A9A9A" stroke-opacity="0.08" stroke-width="3"/>
</g>
<path d="M98.7601 93.326H96.3695C96.3013 92.9339 96.1756 92.5866 95.9924 92.2841C95.8091 91.9773 95.5811 91.7173 95.3084 91.5043C95.0357 91.2912 94.7246 91.1314 94.3752 91.0249C94.03 90.9141 93.6571 90.8587 93.2566 90.8587C92.5449 90.8587 91.9142 91.0376 91.3645 91.3956C90.8148 91.7493 90.3844 92.2692 90.0733 92.9553C89.7623 93.6371 89.6067 94.4702 89.6067 95.4545C89.6067 96.456 89.7623 97.2997 90.0733 97.9858C90.3887 98.6676 90.8191 99.1832 91.3645 99.5327C91.9142 99.8778 92.5428 100.05 93.2502 100.05C93.6422 100.05 94.0087 99.9993 94.3496 99.897C94.6948 99.7905 95.0037 99.6349 95.2765 99.4304C95.5534 99.2259 95.7857 98.9744 95.9732 98.6761C96.165 98.3778 96.2971 98.0369 96.3695 97.6534L98.7601 97.6662C98.6706 98.2884 98.4767 98.8722 98.1784 99.4176C97.8844 99.9631 97.4988 100.445 97.0215 100.862C96.5442 101.276 95.986 101.599 95.3468 101.834C94.7076 102.064 93.998 102.179 93.2182 102.179C92.0676 102.179 91.0407 101.913 90.1373 101.38C89.2338 100.847 88.5222 100.078 88.0023 99.0724C87.4824 98.0668 87.2225 96.8608 87.2225 95.4545C87.2225 94.044 87.4846 92.8381 88.0087 91.8366C88.5328 90.831 89.2466 90.0618 90.15 89.5291C91.0534 88.9964 92.0762 88.7301 93.2182 88.7301C93.9469 88.7301 94.6245 88.8324 95.2509 89.0369C95.8773 89.2415 96.4355 89.5419 96.9256 89.9382C97.4157 90.3303 97.8184 90.8118 98.1337 91.3828C98.4533 91.9496 98.6621 92.5973 98.7601 93.326ZM100.83 102V92.1818H103.073V93.8182H103.175C103.354 93.2514 103.661 92.8146 104.096 92.5078C104.535 92.1967 105.036 92.0412 105.598 92.0412C105.726 92.0412 105.869 92.0476 106.026 92.0604C106.188 92.0689 106.322 92.0838 106.429 92.1051V94.2337C106.331 94.1996 106.175 94.1697 105.962 94.1442C105.754 94.1143 105.551 94.0994 105.355 94.0994C104.933 94.0994 104.554 94.1911 104.217 94.3743C103.885 94.5533 103.623 94.8026 103.431 95.1222C103.239 95.4418 103.143 95.8104 103.143 96.228V102H100.83ZM114.224 97.8707V92.1818H116.538V102H114.294V100.255H114.192C113.971 100.805 113.606 101.254 113.099 101.604C112.596 101.953 111.976 102.128 111.239 102.128C110.596 102.128 110.027 101.985 109.532 101.7C109.042 101.41 108.659 100.99 108.382 100.44C108.105 99.8864 107.966 99.2173 107.966 98.4332V92.1818H110.28V98.0753C110.28 98.6974 110.451 99.1918 110.792 99.5582C111.132 99.9247 111.58 100.108 112.134 100.108C112.475 100.108 112.805 100.025 113.125 99.8587C113.444 99.6925 113.706 99.4453 113.911 99.1172C114.12 98.7848 114.224 98.3693 114.224 97.8707ZM122.561 102.173C121.79 102.173 121.099 101.974 120.49 101.578C119.881 101.182 119.399 100.607 119.045 99.8523C118.692 99.098 118.515 98.1818 118.515 97.1037C118.515 96.0128 118.694 95.0923 119.052 94.3423C119.414 93.5881 119.902 93.0192 120.515 92.6357C121.129 92.2479 121.813 92.054 122.567 92.054C123.143 92.054 123.616 92.152 123.986 92.348C124.357 92.5398 124.651 92.772 124.868 93.0447C125.086 93.3132 125.254 93.5668 125.373 93.8054H125.469V88.9091H127.79V102H125.514V100.453H125.373C125.254 100.692 125.081 100.945 124.856 101.214C124.63 101.478 124.331 101.704 123.961 101.891C123.59 102.079 123.123 102.173 122.561 102.173ZM123.206 100.274C123.697 100.274 124.114 100.142 124.459 99.8778C124.805 99.6094 125.067 99.2365 125.246 98.7592C125.425 98.282 125.514 97.7259 125.514 97.0909C125.514 96.456 125.425 95.9041 125.246 95.4354C125.071 94.9666 124.811 94.6023 124.466 94.3423C124.125 94.0824 123.705 93.9524 123.206 93.9524C122.691 93.9524 122.26 94.0866 121.915 94.3551C121.57 94.6236 121.31 94.9943 121.135 95.4673C120.961 95.9403 120.873 96.4815 120.873 97.0909C120.873 97.7045 120.961 98.2521 121.135 98.7337C121.314 99.2109 121.577 99.5881 121.922 99.8651C122.271 100.138 122.699 100.274 123.206 100.274ZM134.602 102.192C133.618 102.192 132.767 101.987 132.051 101.578C131.34 101.165 130.792 100.581 130.409 99.8267C130.025 99.0682 129.833 98.1754 129.833 97.1484C129.833 96.1385 130.025 95.2521 130.409 94.4893C130.797 93.7223 131.338 93.1257 132.032 92.6996C132.727 92.2692 133.543 92.054 134.48 92.054C135.086 92.054 135.657 92.152 136.194 92.348C136.735 92.5398 137.212 92.8381 137.625 93.2429C138.043 93.6477 138.371 94.1634 138.61 94.7898C138.848 95.4119 138.968 96.1534 138.968 97.0142V97.7237H130.92V96.1641H136.75C136.745 95.7209 136.65 95.3267 136.462 94.9815C136.275 94.6321 136.012 94.3572 135.676 94.157C135.343 93.9567 134.956 93.8565 134.512 93.8565C134.039 93.8565 133.624 93.9716 133.266 94.2017C132.908 94.4276 132.629 94.7259 132.429 95.0966C132.233 95.4631 132.132 95.8658 132.128 96.3047V97.6662C132.128 98.2372 132.233 98.7273 132.441 99.1364C132.65 99.5412 132.942 99.8523 133.317 100.07C133.692 100.283 134.131 100.389 134.634 100.389C134.971 100.389 135.275 100.342 135.548 100.249C135.821 100.151 136.057 100.008 136.257 99.8203C136.458 99.6328 136.609 99.4006 136.711 99.1236L138.872 99.3665C138.735 99.9375 138.475 100.436 138.092 100.862C137.713 101.284 137.227 101.612 136.635 101.847C136.042 102.077 135.365 102.192 134.602 102.192Z" fill="black"/>
<path d="M84.6374 124.217H83.0436C82.9982 123.956 82.9144 123.724 82.7922 123.523C82.67 123.318 82.5181 123.145 82.3362 123.003C82.1544 122.861 81.947 122.754 81.7141 122.683C81.484 122.609 81.2354 122.572 80.9683 122.572C80.4939 122.572 80.0734 122.692 79.707 122.93C79.3405 123.166 79.0536 123.513 78.8462 123.97C78.6388 124.425 78.5351 124.98 78.5351 125.636C78.5351 126.304 78.6388 126.866 78.8462 127.324C79.0564 127.778 79.3433 128.122 79.707 128.355C80.0734 128.585 80.4925 128.7 80.9641 128.7C81.2254 128.7 81.4698 128.666 81.697 128.598C81.9271 128.527 82.1331 128.423 82.3149 128.287C82.4996 128.151 82.6544 127.983 82.7794 127.784C82.9073 127.585 82.9953 127.358 83.0436 127.102L84.6374 127.111C84.5777 127.526 84.4484 127.915 84.2496 128.278C84.0536 128.642 83.7965 128.963 83.4783 129.241C83.1601 129.517 82.7879 129.733 82.3618 129.889C81.9357 130.043 81.4627 130.119 80.9428 130.119C80.1757 130.119 79.4911 129.942 78.8888 129.587C78.2865 129.232 77.8121 128.719 77.4655 128.048C77.1189 127.378 76.9456 126.574 76.9456 125.636C76.9456 124.696 77.1203 123.892 77.4698 123.224C77.8192 122.554 78.295 122.041 78.8973 121.686C79.4996 121.331 80.1814 121.153 80.9428 121.153C81.4286 121.153 81.8803 121.222 82.2979 121.358C82.7155 121.494 83.0877 121.695 83.4144 121.959C83.7411 122.22 84.0095 122.541 84.2198 122.922C84.4328 123.3 84.572 123.732 84.6374 124.217ZM87.5252 130V121.273H90.7979C91.4684 121.273 92.0309 121.389 92.4854 121.622C92.9428 121.855 93.288 122.182 93.5209 122.602C93.7567 123.02 93.8746 123.507 93.8746 124.064C93.8746 124.624 93.7553 125.109 93.5166 125.521C93.2809 125.93 92.9328 126.247 92.4726 126.472C92.0124 126.693 91.447 126.804 90.7766 126.804H88.4456V125.491H90.5635C90.9556 125.491 91.2766 125.437 91.5266 125.33C91.7766 125.219 91.9612 125.058 92.0806 124.848C92.2027 124.635 92.2638 124.374 92.2638 124.064C92.2638 123.754 92.2027 123.49 92.0806 123.271C91.9584 123.05 91.7723 122.882 91.5223 122.768C91.2723 122.652 90.9499 122.594 90.555 122.594H89.1061V130H87.5252ZM92.0337 126.045L94.1942 130H92.43L90.3078 126.045H92.0337ZM102.271 121.273H103.852V126.974C103.852 127.599 103.705 128.149 103.409 128.624C103.116 129.098 102.705 129.469 102.173 129.736C101.642 130 101.021 130.132 100.311 130.132C99.598 130.132 98.9758 130 98.4446 129.736C97.9133 129.469 97.5014 129.098 97.2088 128.624C96.9162 128.149 96.7699 127.599 96.7699 126.974V121.273H98.3508V126.842C98.3508 127.206 98.4304 127.53 98.5895 127.814C98.7514 128.098 98.9787 128.321 99.2713 128.483C99.5639 128.642 99.9105 128.722 100.311 128.722C100.712 128.722 101.058 128.642 101.351 128.483C101.646 128.321 101.874 128.098 102.033 127.814C102.192 127.53 102.271 127.206 102.271 126.842V121.273ZM109.968 130H107.011V121.273H110.028C110.894 121.273 111.638 121.447 112.261 121.797C112.886 122.143 113.366 122.642 113.701 123.293C114.036 123.943 114.204 124.722 114.204 125.628C114.204 126.537 114.035 127.318 113.697 127.972C113.361 128.625 112.877 129.126 112.244 129.476C111.613 129.825 110.854 130 109.968 130ZM108.592 128.632H109.891C110.499 128.632 111.006 128.521 111.413 128.3C111.819 128.075 112.124 127.741 112.329 127.298C112.533 126.852 112.636 126.295 112.636 125.628C112.636 124.96 112.533 124.406 112.329 123.966C112.124 123.523 111.822 123.192 111.421 122.973C111.023 122.751 110.529 122.641 109.938 122.641H108.592V128.632ZM117.146 130V121.273H122.822V122.598H118.727V124.967H122.528V126.293H118.727V128.675H122.856V130H117.146ZM138.09 125.636C138.09 126.577 137.914 127.382 137.561 128.053C137.212 128.72 136.735 129.232 136.13 129.587C135.527 129.942 134.844 130.119 134.08 130.119C133.316 130.119 132.631 129.942 132.026 129.587C131.424 129.229 130.946 128.716 130.594 128.048C130.245 127.378 130.07 126.574 130.07 125.636C130.07 124.696 130.245 123.892 130.594 123.224C130.946 122.554 131.424 122.041 132.026 121.686C132.631 121.331 133.316 121.153 134.08 121.153C134.844 121.153 135.527 121.331 136.13 121.686C136.735 122.041 137.212 122.554 137.561 123.224C137.914 123.892 138.09 124.696 138.09 125.636ZM136.5 125.636C136.5 124.974 136.397 124.416 136.189 123.962C135.985 123.504 135.701 123.159 135.337 122.926C134.973 122.69 134.554 122.572 134.08 122.572C133.605 122.572 133.186 122.69 132.823 122.926C132.459 123.159 132.174 123.504 131.966 123.962C131.762 124.416 131.659 124.974 131.659 125.636C131.659 126.298 131.762 126.858 131.966 127.315C132.174 127.77 132.459 128.115 132.823 128.351C133.186 128.584 133.605 128.7 134.08 128.7C134.554 128.7 134.973 128.584 135.337 128.351C135.701 128.115 135.985 127.77 136.189 127.315C136.397 126.858 136.5 126.298 136.5 125.636ZM142.606 121.273V130H141.025V121.273H142.606ZM145.758 130V121.273H147.338V128.675H151.182V130H145.758Z" fill="#5E5E5E"/>
<path d="M97.1004 141.902V142.825H93.876V141.902H97.1004ZM101.033 146.121C100.472 146.118 99.9928 145.97 99.5951 145.677C99.1974 145.383 98.8931 144.956 98.6824 144.395C98.4717 143.834 98.3664 143.158 98.3664 142.367C98.3664 141.579 98.4717 140.905 98.6824 140.347C98.8955 139.788 99.2009 139.362 99.5986 139.068C99.9987 138.775 100.477 138.628 101.033 138.628C101.59 138.628 102.067 138.776 102.464 139.072C102.862 139.365 103.166 139.791 103.377 140.35C103.59 140.906 103.697 141.579 103.697 142.367C103.697 143.16 103.591 143.837 103.381 144.398C103.17 144.957 102.866 145.384 102.468 145.68C102.07 145.974 101.592 146.121 101.033 146.121ZM101.033 145.173C101.526 145.173 101.91 144.932 102.187 144.452C102.467 143.971 102.606 143.276 102.606 142.367C102.606 141.763 102.543 141.253 102.415 140.837C102.289 140.418 102.108 140.1 101.871 139.885C101.637 139.667 101.358 139.558 101.033 139.558C100.543 139.558 100.159 139.8 99.8792 140.283C99.5998 140.766 99.459 141.46 99.4566 142.367C99.4566 142.973 99.5193 143.486 99.6448 143.905C99.7726 144.321 99.9537 144.638 100.188 144.853C100.422 145.066 100.704 145.173 101.033 145.173ZM104.956 146V145.205L107.417 142.655C107.68 142.378 107.897 142.135 108.067 141.927C108.24 141.716 108.369 141.516 108.454 141.327C108.54 141.137 108.582 140.936 108.582 140.723C108.582 140.482 108.525 140.273 108.412 140.098C108.298 139.92 108.143 139.784 107.946 139.69C107.75 139.593 107.529 139.544 107.282 139.544C107.022 139.544 106.795 139.597 106.601 139.704C106.406 139.81 106.257 139.961 106.153 140.155C106.049 140.349 105.997 140.576 105.997 140.837H104.949C104.949 140.394 105.051 140.007 105.255 139.675C105.458 139.344 105.738 139.087 106.093 138.905C106.448 138.72 106.852 138.628 107.304 138.628C107.761 138.628 108.163 138.719 108.511 138.901C108.861 139.081 109.135 139.327 109.331 139.64C109.528 139.95 109.626 140.3 109.626 140.691C109.626 140.961 109.575 141.225 109.473 141.483C109.374 141.741 109.2 142.029 108.951 142.346C108.703 142.661 108.357 143.043 107.915 143.493L106.469 145.006V145.059H109.743V146H104.956ZM111.803 146.067C111.609 146.067 111.442 145.999 111.302 145.862C111.163 145.722 111.093 145.554 111.093 145.357C111.093 145.163 111.163 144.997 111.302 144.86C111.442 144.72 111.609 144.651 111.803 144.651C111.997 144.651 112.164 144.72 112.304 144.86C112.443 144.997 112.513 145.163 112.513 145.357C112.513 145.487 112.48 145.607 112.414 145.716C112.35 145.822 112.265 145.908 112.158 145.972C112.052 146.036 111.933 146.067 111.803 146.067ZM116.19 146.121C115.628 146.118 115.149 145.97 114.751 145.677C114.354 145.383 114.049 144.956 113.839 144.395C113.628 143.834 113.523 143.158 113.523 142.367C113.523 141.579 113.628 140.905 113.839 140.347C114.052 139.788 114.357 139.362 114.755 139.068C115.155 138.775 115.633 138.628 116.19 138.628C116.746 138.628 117.223 138.776 117.621 139.072C118.018 139.365 118.323 139.791 118.533 140.35C118.746 140.906 118.853 141.579 118.853 142.367C118.853 143.16 118.748 143.837 118.537 144.398C118.326 144.957 118.022 145.384 117.624 145.68C117.226 145.974 116.748 146.121 116.19 146.121ZM116.19 145.173C116.682 145.173 117.067 144.932 117.344 144.452C117.623 143.971 117.763 143.276 117.763 142.367C117.763 141.763 117.699 141.253 117.571 140.837C117.445 140.418 117.264 140.1 117.028 139.885C116.793 139.667 116.514 139.558 116.19 139.558C115.699 139.558 115.315 139.8 115.035 140.283C114.756 140.766 114.615 141.46 114.613 142.367C114.613 142.973 114.676 143.486 114.801 143.905C114.929 144.321 115.11 144.638 115.344 144.853C115.579 145.066 115.86 145.173 116.19 145.173ZM120.113 146V145.205L122.574 142.655C122.836 142.378 123.053 142.135 123.223 141.927C123.396 141.716 123.525 141.516 123.611 141.327C123.696 141.137 123.738 140.936 123.738 140.723C123.738 140.482 123.682 140.273 123.568 140.098C123.454 139.92 123.299 139.784 123.103 139.69C122.906 139.593 122.685 139.544 122.439 139.544C122.178 139.544 121.951 139.597 121.757 139.704C121.563 139.81 121.414 139.961 121.309 140.155C121.205 140.349 121.153 140.576 121.153 140.837H120.106C120.106 140.394 120.207 140.007 120.411 139.675C120.615 139.344 120.894 139.087 121.249 138.905C121.604 138.72 122.008 138.628 122.46 138.628C122.917 138.628 123.319 138.719 123.667 138.901C124.018 139.081 124.291 139.327 124.488 139.64C124.684 139.95 124.782 140.3 124.782 140.691C124.782 140.961 124.732 141.225 124.63 141.483C124.53 141.741 124.356 142.029 124.108 142.346C123.859 142.661 123.513 143.043 123.071 143.493L121.625 145.006V145.059H124.9V146H120.113ZM130.042 144.636V144.253C130.042 143.978 130.098 143.727 130.212 143.5C130.328 143.27 130.496 143.087 130.716 142.95C130.939 142.81 131.208 142.74 131.522 142.74C131.844 142.74 132.114 142.809 132.332 142.946C132.55 143.083 132.714 143.267 132.826 143.496C132.939 143.726 132.996 143.978 132.996 144.253V144.636C132.996 144.911 132.939 145.163 132.826 145.393C132.712 145.62 132.545 145.804 132.325 145.943C132.107 146.08 131.84 146.149 131.522 146.149C131.203 146.149 130.933 146.08 130.713 145.943C130.493 145.804 130.326 145.62 130.212 145.393C130.098 145.163 130.042 144.911 130.042 144.636ZM130.869 144.253V144.636C130.869 144.84 130.918 145.025 131.015 145.19C131.112 145.356 131.281 145.439 131.522 145.439C131.762 145.439 131.928 145.356 132.023 145.19C132.118 145.025 132.165 144.84 132.165 144.636V144.253C132.165 144.049 132.119 143.865 132.027 143.699C131.937 143.533 131.769 143.45 131.522 143.45C131.286 143.45 131.118 143.533 131.018 143.699C130.919 143.865 130.869 144.049 130.869 144.253ZM126.384 140.474V140.091C126.384 139.816 126.441 139.564 126.554 139.335C126.67 139.105 126.839 138.921 127.059 138.784C127.281 138.647 127.55 138.578 127.865 138.578C128.187 138.578 128.457 138.647 128.674 138.784C128.892 138.921 129.057 139.105 129.168 139.335C129.279 139.564 129.335 139.816 129.335 140.091V140.474C129.335 140.749 129.278 141.001 129.165 141.231C129.053 141.458 128.888 141.642 128.667 141.781C128.45 141.919 128.182 141.987 127.865 141.987C127.543 141.987 127.272 141.919 127.052 141.781C126.834 141.642 126.668 141.458 126.554 141.231C126.441 141.001 126.384 140.749 126.384 140.474ZM127.215 140.091V140.474C127.215 140.678 127.262 140.863 127.357 141.028C127.454 141.194 127.623 141.277 127.865 141.277C128.102 141.277 128.267 141.194 128.362 141.028C128.459 140.863 128.508 140.678 128.508 140.474V140.091C128.508 139.887 128.461 139.703 128.369 139.537C128.277 139.371 128.109 139.288 127.865 139.288C127.628 139.288 127.46 139.371 127.361 139.537C127.263 139.703 127.215 139.887 127.215 140.091ZM126.721 146L131.721 138.727H132.57L127.57 146H126.721Z" fill="#555555"/>
<defs>
<filter id="filter0_d_450_3708" x="0.0999985" y="198.1" width="170.927" height="170.927" filterUnits="userSpaceOnUse" color-interpolation-filters="sRGB">
<feFlood flood-opacity="0" result="BackgroundImageFix"/>
<feColorMatrix in="SourceAlpha" type="matrix" values="0 0 0 0 0 0 0 0 0 0 0 0 0 0 0 0 0 0 127 0" result="hardAlpha"/>
<feOffset dy="14"/>
<feGaussianBlur stdDeviation="24.95"/>
<feComposite in2="hardAlpha" operator="out"/>
<feColorMatrix type="matrix" values="0 0 0 0 0.603922 0 0 0 0 0.603922 0 0 0 0 0.603922 0 0 0 0.21 0"/>
<feBlend mode="normal" in2="BackgroundImageFix" result="effect1_dropShadow_450_3708"/>
<feBlend mode="normal" in="SourceGraphic" in2="effect1_dropShadow_450_3708" result="shape"/>
</filter>
<filter id="filter1_d_450_3708" x="71.1" y="276.1" width="219.293" height="219.293" filterUnits="userSpaceOnUse" color-interpolation-filters="sRGB">
<feFlood flood-opacity="0" result="BackgroundImageFix"/>
<feColorMatrix in="SourceAlpha" type="matrix" values="0 0 0 0 0 0 0 0 0 0 0 0 0 0 0 0 0 0 127 0" result="hardAlpha"/>
<feOffset dy="14"/>
<feGaussianBlur stdDeviation="24.95"/>
<feComposite in2="hardAlpha" operator="out"/>
<feColorMatrix type="matrix" values="0 0 0 0 0.603922 0 0 0 0 0.603922 0 0 0 0 0.603922 0 0 0 0.21 0"/>
<feBlend mode="normal" in2="BackgroundImageFix" result="effect1_dropShadow_450_3708"/>
<feBlend mode="normal" in="SourceGraphic" in2="effect1_dropShadow_450_3708" result="shape"/>
</filter>
<filter id="filter2_d_450_3708" x="252.1" y="224.1" width="222.138" height="222.138" filterUnits="userSpaceOnUse" color-interpolation-filters="sRGB">
<feFlood flood-opacity="0" result="BackgroundImageFix"/>
<feColorMatrix in="SourceAlpha" type="matrix" values="0 0 0 0 0 0 0 0 0 0 0 0 0 0 0 0 0 0 127 0" result="hardAlpha"/>
<feOffset dy="14"/>
<feGaussianBlur stdDeviation="24.95"/>
<feComposite in2="hardAlpha" operator="out"/>
<feColorMatrix type="matrix" values="0 0 0 0 0.603922 0 0 0 0 0.603922 0 0 0 0 0.603922 0 0 0 0.21 0"/>
<feBlend mode="normal" in2="BackgroundImageFix" result="effect1_dropShadow_450_3708"/>
<feBlend mode="normal" in="SourceGraphic" in2="effect1_dropShadow_450_3708" result="shape"/>
</filter>
<filter id="filter3_d_450_3708" x="52.7754" y="0.168945" width="367.07" height="367.07" filterUnits="userSpaceOnUse" color-interpolation-filters="sRGB">
<feFlood flood-opacity="0" result="BackgroundImageFix"/>
<feColorMatrix in="SourceAlpha" type="matrix" values="0 0 0 0 0 0 0 0 0 0 0 0 0 0 0 0 0 0 127 0" result="hardAlpha"/>
<feOffset dy="-12"/>
<feGaussianBlur stdDeviation="37"/>
<feComposite in2="hardAlpha" operator="out"/>
<feColorMatrix type="matrix" values="0 0 0 0 0.603922 0 0 0 0 0.603922 0 0 0 0 0.603922 0 0 0 0.08 0"/>
<feBlend mode="normal" in2="BackgroundImageFix" result="effect1_dropShadow_450_3708"/>
<feBlend mode="normal" in="SourceGraphic" in2="effect1_dropShadow_450_3708" result="shape"/>
</filter>
<filter id="filter4_d_450_3708" x="10.1" y="25.1" width="207.913" height="207.913" filterUnits="userSpaceOnUse" color-interpolation-filters="sRGB">
<feFlood flood-opacity="0" result="BackgroundImageFix"/>
<feColorMatrix in="SourceAlpha" type="matrix" values="0 0 0 0 0 0 0 0 0 0 0 0 0 0 0 0 0 0 127 0" result="hardAlpha"/>
<feOffset dy="14"/>
<feGaussianBlur stdDeviation="24.95"/>
<feComposite in2="hardAlpha" operator="out"/>
<feColorMatrix type="matrix" values="0 0 0 0 0.603922 0 0 0 0 0.603922 0 0 0 0 0.603922 0 0 0 0.21 0"/>
<feBlend mode="normal" in2="BackgroundImageFix" result="effect1_dropShadow_450_3708"/>
<feBlend mode="normal" in="SourceGraphic" in2="effect1_dropShadow_450_3708" result="shape"/>
</filter>
</defs>
</svg>
