<svg width="475" height="496" viewBox="0 0 475 496" fill="none" xmlns="http://www.w3.org/2000/svg">
<g filter="url(#filter0_d_450_2326)">
<circle cx="85.5634" cy="269.563" r="35.5634" fill="#FDFDFD"/>
<circle cx="85.5634" cy="269.563" r="34.0634" stroke="#9A9A9A" stroke-opacity="0.08" stroke-width="3"/>
</g>
<path d="M88.637 251.453V265H86.4542L80.071 255.773H79.9586V265H77.5045V251.453H79.7006L86.0771 260.687H86.1962V251.453H88.637ZM91.2051 265V254.84H93.5996V265H91.2051ZM92.409 253.398C92.0298 253.398 91.7034 253.272 91.43 253.021C91.1566 252.765 91.0199 252.459 91.0199 252.101C91.0199 251.74 91.1566 251.433 91.43 251.182C91.7034 250.926 92.0298 250.798 92.409 250.798C92.7927 250.798 93.119 250.926 93.388 251.182C93.6614 251.433 93.7981 251.74 93.7981 252.101C93.7981 252.459 93.6614 252.765 93.388 253.021C93.119 253.272 92.7927 253.398 92.409 253.398Z" fill="black"/>
<path d="M73.6922 274.357V280.284H72.7372L69.9446 276.247H69.8954V280.284H68.8217V274.357H69.7825L72.5723 278.397H72.6243V274.357H73.6922ZM77.1581 274.357V280.284H76.0844V274.357H77.1581ZM84.6161 276.357H83.5338C83.5029 276.179 83.446 276.022 83.3631 275.885C83.2801 275.746 83.1769 275.628 83.0534 275.532C82.9299 275.435 82.7891 275.363 82.6309 275.315C82.4746 275.265 82.3058 275.24 82.1245 275.24C81.8023 275.24 81.5168 275.321 81.2679 275.483C81.019 275.643 80.8241 275.878 80.6833 276.189C80.5425 276.497 80.4721 276.875 80.4721 277.32C80.4721 277.774 80.5425 278.156 80.6833 278.466C80.8261 278.775 81.0209 279.008 81.2679 279.167C81.5168 279.323 81.8013 279.401 82.1216 279.401C82.2991 279.401 82.465 279.378 82.6193 279.332C82.7756 279.283 82.9155 279.213 83.039 279.12C83.1644 279.028 83.2695 278.914 83.3544 278.779C83.4412 278.644 83.501 278.489 83.5338 278.316L84.6161 278.322C84.5756 278.603 84.4878 278.868 84.3528 279.115C84.2197 279.361 84.0451 279.58 83.829 279.769C83.6129 279.956 83.3602 280.102 83.0708 280.208C82.7814 280.313 82.4602 280.365 82.1071 280.365C81.5862 280.365 81.1213 280.244 80.7122 280.003C80.3032 279.762 79.9811 279.414 79.7457 278.958C79.5103 278.503 79.3926 277.957 79.3926 277.32C79.3926 276.682 79.5113 276.136 79.7486 275.682C79.9859 275.227 80.309 274.879 80.718 274.638C81.127 274.397 81.5901 274.276 82.1071 274.276C82.437 274.276 82.7438 274.322 83.0274 274.415C83.311 274.507 83.5637 274.643 83.7856 274.823C84.0074 275 84.1898 275.218 84.3325 275.477C84.4772 275.733 84.5718 276.027 84.6161 276.357ZM86.8217 280.284V274.357H87.8954V277.08H87.9677L90.2799 274.357H91.5909L89.2989 277.016L91.6111 280.284H90.3205L88.5523 277.743L87.8954 278.518V280.284H86.8217ZM93.5592 280.284V274.357H97.4139V275.257H94.6328V276.866H97.2142V277.766H94.6328V279.384H97.437V280.284H93.5592ZM99.7316 280.284V274.357H100.805V279.384H103.416V280.284H99.7316Z" fill="#5E5E5E"/>
<path d="M76.454 285.883V286.421H74.5771V285.883H76.454ZM78.7433 288.339C78.4167 288.337 78.1376 288.251 77.9061 288.08C77.6746 287.91 77.4975 287.661 77.3749 287.334C77.2522 287.008 77.1909 286.614 77.1909 286.154C77.1909 285.695 77.2522 285.303 77.3749 284.978C77.4989 284.653 77.6766 284.404 77.9082 284.234C78.1411 284.063 78.4194 283.977 78.7433 283.977C79.0671 283.977 79.3448 284.063 79.5763 284.236C79.8078 284.407 79.9849 284.655 80.1075 284.98C80.2316 285.304 80.2936 285.695 80.2936 286.154C80.2936 286.616 80.2322 287.01 80.1096 287.336C79.987 287.662 79.8099 287.91 79.5784 288.083C79.3468 288.253 79.0685 288.339 78.7433 288.339ZM78.7433 287.787C79.0299 287.787 79.2538 287.647 79.4151 287.367C79.5777 287.088 79.659 286.683 79.659 286.154C79.659 285.803 79.6218 285.506 79.5474 285.263C79.4743 285.019 79.3689 284.834 79.2311 284.709C79.0947 284.582 78.9321 284.519 78.7433 284.519C78.458 284.519 78.2341 284.659 78.0715 284.941C77.9088 285.222 77.8269 285.626 77.8255 286.154C77.8255 286.507 77.862 286.805 77.935 287.049C78.0094 287.292 78.1149 287.475 78.2513 287.601C78.3877 287.725 78.5517 287.787 78.7433 287.787ZM81.0269 288.269V287.806L82.4594 286.321C82.6123 286.16 82.7384 286.019 82.8376 285.898C82.9382 285.775 83.0133 285.659 83.0629 285.548C83.1125 285.438 83.1374 285.321 83.1374 285.197C83.1374 285.056 83.1043 284.935 83.0381 284.833C82.972 284.73 82.8817 284.65 82.7673 284.595C82.653 284.539 82.5241 284.511 82.3808 284.511C82.2292 284.511 82.0969 284.542 81.9839 284.604C81.8709 284.666 81.7841 284.753 81.7235 284.866C81.6628 284.979 81.6325 285.111 81.6325 285.263H81.0227C81.0227 285.005 81.082 284.78 81.2005 284.587C81.319 284.394 81.4816 284.245 81.6883 284.139C81.895 284.031 82.13 283.977 82.3932 283.977C82.6592 283.977 82.8934 284.03 83.096 284.136C83.3 284.241 83.4591 284.385 83.5735 284.566C83.6879 284.747 83.7451 284.951 83.7451 285.178C83.7451 285.335 83.7154 285.489 83.6562 285.639C83.5983 285.789 83.497 285.957 83.3523 286.142C83.2076 286.325 83.0064 286.547 82.7487 286.809L81.9074 287.69V287.721H83.8133V288.269H81.0269ZM85.0122 288.308C84.8992 288.308 84.802 288.268 84.7207 288.188C84.6394 288.107 84.5988 288.009 84.5988 287.894C84.5988 287.781 84.6394 287.685 84.7207 287.605C84.802 287.524 84.8992 287.483 85.0122 287.483C85.1252 287.483 85.2223 287.524 85.3037 287.605C85.385 287.685 85.4256 287.781 85.4256 287.894C85.4256 287.97 85.4063 288.04 85.3677 288.103C85.3305 288.165 85.2809 288.215 85.2189 288.252C85.1569 288.289 85.088 288.308 85.0122 288.308ZM87.5656 288.339C87.239 288.337 86.9599 288.251 86.7284 288.08C86.4969 287.91 86.3198 287.661 86.1971 287.334C86.0745 287.008 86.0132 286.614 86.0132 286.154C86.0132 285.695 86.0745 285.303 86.1971 284.978C86.3212 284.653 86.4989 284.404 86.7305 284.234C86.9633 284.063 87.2417 283.977 87.5656 283.977C87.8894 283.977 88.1671 284.063 88.3986 284.236C88.6301 284.407 88.8072 284.655 88.9298 284.98C89.0539 285.304 89.1159 285.695 89.1159 286.154C89.1159 286.616 89.0545 287.01 88.9319 287.336C88.8092 287.662 88.6322 287.91 88.4007 288.083C88.1691 288.253 87.8908 288.339 87.5656 288.339ZM87.5656 287.787C87.8522 287.787 88.0761 287.647 88.2374 287.367C88.4 287.088 88.4813 286.683 88.4813 286.154C88.4813 285.803 88.4441 285.506 88.3696 285.263C88.2966 285.019 88.1912 284.834 88.0534 284.709C87.917 284.582 87.7543 284.519 87.5656 284.519C87.2803 284.519 87.0564 284.659 86.8938 284.941C86.7311 285.222 86.6491 285.626 86.6478 286.154C86.6478 286.507 86.6843 286.805 86.7573 287.049C86.8317 287.292 86.9372 287.475 87.0736 287.601C87.21 287.725 87.374 287.787 87.5656 287.787ZM89.8492 288.269V287.806L91.2816 286.321C91.4346 286.16 91.5607 286.019 91.6599 285.898C91.7605 285.775 91.8356 285.659 91.8852 285.548C91.9348 285.438 91.9596 285.321 91.9596 285.197C91.9596 285.056 91.9266 284.935 91.8604 284.833C91.7943 284.73 91.704 284.65 91.5896 284.595C91.4753 284.539 91.3464 284.511 91.2031 284.511C91.0515 284.511 90.9192 284.542 90.8062 284.604C90.6932 284.666 90.6064 284.753 90.5458 284.866C90.4851 284.979 90.4548 285.111 90.4548 285.263H89.845C89.845 285.005 89.9043 284.78 90.0228 284.587C90.1413 284.394 90.3039 284.245 90.5106 284.139C90.7173 284.031 90.9523 283.977 91.2155 283.977C91.4815 283.977 91.7157 284.03 91.9183 284.136C92.1223 284.241 92.2814 284.385 92.3958 284.566C92.5102 284.747 92.5674 284.951 92.5674 285.178C92.5674 285.335 92.5377 285.489 92.4785 285.639C92.4206 285.789 92.3193 285.957 92.1746 286.142C92.0299 286.325 91.8287 286.547 91.571 286.809L90.7297 287.69V287.721H92.6356V288.269H89.8492ZM95.6287 287.475V287.252C95.6287 287.092 95.6618 286.946 95.7279 286.813C95.7955 286.68 95.8933 286.573 96.0215 286.493C96.151 286.412 96.3074 286.371 96.4907 286.371C96.6781 286.371 96.8352 286.411 96.962 286.491C97.0888 286.571 97.1845 286.678 97.2493 286.811C97.3155 286.945 97.3485 287.092 97.3485 287.252V287.475C97.3485 287.635 97.3155 287.781 97.2493 287.915C97.1832 288.047 97.086 288.154 96.9578 288.235C96.8311 288.315 96.6753 288.355 96.4907 288.355C96.3046 288.355 96.1476 288.315 96.0194 288.235C95.8912 288.154 95.7941 288.047 95.7279 287.915C95.6618 287.781 95.6287 287.635 95.6287 287.475ZM96.1103 287.252V287.475C96.1103 287.593 96.1386 287.701 96.1951 287.797C96.2516 287.894 96.3501 287.942 96.4907 287.942C96.6299 287.942 96.727 287.894 96.7821 287.797C96.8373 287.701 96.8648 287.593 96.8648 287.475V287.252C96.8648 287.133 96.838 287.026 96.7842 286.929C96.7318 286.833 96.634 286.784 96.4907 286.784C96.3529 286.784 96.255 286.833 96.1972 286.929C96.1393 287.026 96.1103 287.133 96.1103 287.252ZM93.4996 285.052V284.829C93.4996 284.669 93.5327 284.522 93.5988 284.389C93.6664 284.255 93.7642 284.148 93.8924 284.068C94.0219 283.988 94.1783 283.948 94.3616 283.948C94.549 283.948 94.7061 283.988 94.8329 284.068C94.9597 284.148 95.0554 284.255 95.1202 284.389C95.185 284.522 95.2174 284.669 95.2174 284.829V285.052C95.2174 285.212 95.1843 285.359 95.1181 285.492C95.0534 285.625 94.9569 285.732 94.8288 285.813C94.702 285.893 94.5463 285.933 94.3616 285.933C94.1742 285.933 94.0164 285.893 93.8882 285.813C93.7615 285.732 93.665 285.625 93.5988 285.492C93.5327 285.359 93.4996 285.212 93.4996 285.052ZM93.9833 284.829V285.052C93.9833 285.171 94.0109 285.278 94.066 285.375C94.1225 285.471 94.221 285.519 94.3616 285.519C94.4994 285.519 94.5959 285.471 94.651 285.375C94.7075 285.278 94.7357 285.171 94.7357 285.052V284.829C94.7357 284.71 94.7089 284.603 94.6551 284.506C94.6014 284.41 94.5035 284.362 94.3616 284.362C94.2238 284.362 94.1259 284.41 94.0681 284.506C94.0116 284.603 93.9833 284.71 93.9833 284.829ZM93.696 288.269L96.6064 284.035H97.1005L94.19 288.269H93.696Z" fill="#555555"/>
<g filter="url(#filter1_d_450_2326)">
<circle cx="180.746" cy="371.746" r="59.7465" fill="#FDFDFD"/>
<circle cx="180.746" cy="371.746" r="58.2465" stroke="#9A9A9A" stroke-opacity="0.08" stroke-width="3"/>
</g>
<path d="M162.545 362V338.727H171.272C173.06 338.727 174.56 339.061 175.772 339.727C176.992 340.394 177.912 341.311 178.534 342.477C179.162 343.636 179.477 344.955 179.477 346.432C179.477 347.924 179.162 349.25 178.534 350.409C177.905 351.568 176.977 352.481 175.75 353.148C174.522 353.807 173.011 354.136 171.215 354.136H165.431V350.67H170.647C171.693 350.67 172.549 350.489 173.215 350.125C173.882 349.761 174.375 349.261 174.693 348.625C175.018 347.989 175.181 347.258 175.181 346.432C175.181 345.606 175.018 344.879 174.693 344.25C174.375 343.621 173.878 343.133 173.204 342.784C172.537 342.428 171.678 342.25 170.625 342.25H166.761V362H162.545ZM189.184 362.307C187.813 362.307 186.586 361.955 185.502 361.25C184.419 360.545 183.563 359.523 182.934 358.182C182.305 356.841 181.991 355.212 181.991 353.295C181.991 351.356 182.309 349.72 182.946 348.386C183.589 347.045 184.457 346.034 185.548 345.352C186.639 344.663 187.855 344.318 189.196 344.318C190.218 344.318 191.059 344.492 191.718 344.841C192.377 345.182 192.9 345.595 193.286 346.08C193.673 346.557 193.972 347.008 194.184 347.432H194.355V338.727H198.48V362H194.434V359.25H194.184C193.972 359.674 193.665 360.125 193.264 360.602C192.862 361.072 192.332 361.473 191.673 361.807C191.014 362.14 190.184 362.307 189.184 362.307ZM190.332 358.932C191.203 358.932 191.946 358.697 192.559 358.227C193.173 357.75 193.639 357.087 193.957 356.239C194.275 355.39 194.434 354.402 194.434 353.273C194.434 352.144 194.275 351.163 193.957 350.33C193.646 349.496 193.184 348.848 192.571 348.386C191.964 347.924 191.218 347.693 190.332 347.693C189.415 347.693 188.65 347.932 188.036 348.409C187.423 348.886 186.961 349.545 186.65 350.386C186.339 351.227 186.184 352.189 186.184 353.273C186.184 354.364 186.339 355.337 186.65 356.193C186.968 357.042 187.434 357.712 188.048 358.205C188.669 358.689 189.43 358.932 190.332 358.932Z" fill="black"/>
<path d="M139.104 389V378.818H142.922C143.704 378.818 144.36 378.964 144.891 379.256C145.424 379.547 145.827 379.948 146.099 380.459C146.374 380.966 146.511 381.543 146.511 382.189C146.511 382.842 146.374 383.422 146.099 383.929C145.824 384.436 145.418 384.835 144.881 385.127C144.344 385.415 143.682 385.56 142.897 385.56H140.366V384.043H142.648C143.106 384.043 143.48 383.964 143.772 383.805C144.064 383.646 144.279 383.427 144.418 383.148C144.561 382.87 144.632 382.55 144.632 382.189C144.632 381.828 144.561 381.509 144.418 381.234C144.279 380.959 144.062 380.746 143.767 380.593C143.475 380.437 143.099 380.359 142.638 380.359H140.948V389H139.104ZM148.846 389H146.877L150.462 378.818H152.739L156.328 389H154.36L151.64 380.906H151.561L148.846 389ZM148.911 385.008H154.28V386.489H148.911V385.008ZM158.229 389V378.818H160.074V387.454H164.558V389H158.229ZM166.719 389V378.818H168.564V387.454H173.048V389H166.719ZM176.899 389H174.93L178.515 378.818H180.792L184.381 389H182.413L179.693 380.906H179.614L176.899 389ZM176.964 385.008H182.333V386.489H176.964V385.008ZM189.733 389H186.283V378.818H189.802C190.813 378.818 191.682 379.022 192.408 379.43C193.137 379.834 193.697 380.416 194.088 381.175C194.479 381.934 194.675 382.842 194.675 383.899C194.675 384.96 194.477 385.871 194.083 386.634C193.692 387.396 193.127 387.981 192.388 388.388C191.652 388.796 190.767 389 189.733 389ZM188.127 387.404H189.643C190.353 387.404 190.944 387.275 191.418 387.016C191.892 386.754 192.248 386.365 192.487 385.848C192.726 385.328 192.845 384.678 192.845 383.899C192.845 383.12 192.726 382.474 192.487 381.96C192.248 381.443 191.895 381.057 191.428 380.802C190.964 380.543 190.387 380.414 189.698 380.414H188.127V387.404ZM198.832 378.818V389H196.987V378.818H198.832ZM207.807 378.818H209.652V385.47C209.652 386.199 209.479 386.841 209.135 387.394C208.793 387.948 208.313 388.38 207.693 388.692C207.073 389 206.349 389.154 205.52 389.154C204.688 389.154 203.962 389 203.343 388.692C202.723 388.38 202.242 387.948 201.901 387.394C201.56 386.841 201.389 386.199 201.389 385.47V378.818H203.233V385.316C203.233 385.74 203.326 386.118 203.512 386.45C203.701 386.781 203.966 387.041 204.307 387.23C204.649 387.416 205.053 387.509 205.52 387.509C205.988 387.509 206.392 387.416 206.733 387.23C207.078 387.041 207.343 386.781 207.529 386.45C207.714 386.118 207.807 385.74 207.807 385.316V378.818ZM212.216 378.818H214.474L217.496 386.196H217.616L220.638 378.818H222.895V389H221.126V382.005H221.031L218.217 388.97H216.895L214.081 381.99H213.986V389H212.216V378.818Z" fill="#5E5E5E"/>
<path d="M164.1 397.902V398.825H160.875V397.902H164.1ZM168.033 402.121C167.472 402.118 166.992 401.97 166.595 401.677C166.197 401.383 165.893 400.956 165.682 400.395C165.471 399.834 165.366 399.158 165.366 398.367C165.366 397.579 165.471 396.905 165.682 396.347C165.895 395.788 166.2 395.362 166.598 395.068C166.998 394.775 167.476 394.628 168.033 394.628C168.589 394.628 169.066 394.776 169.464 395.072C169.862 395.365 170.166 395.791 170.377 396.35C170.59 396.906 170.696 397.579 170.696 398.367C170.696 399.16 170.591 399.837 170.38 400.398C170.169 400.957 169.865 401.384 169.467 401.68C169.07 401.974 168.592 402.121 168.033 402.121ZM168.033 401.173C168.525 401.173 168.91 400.932 169.187 400.452C169.466 399.971 169.606 399.276 169.606 398.367C169.606 397.763 169.542 397.253 169.414 396.837C169.289 396.418 169.108 396.1 168.871 395.885C168.636 395.667 168.357 395.558 168.033 395.558C167.543 395.558 167.158 395.8 166.879 396.283C166.599 396.766 166.458 397.46 166.456 398.367C166.456 398.973 166.519 399.486 166.644 399.905C166.772 400.321 166.953 400.638 167.188 400.853C167.422 401.066 167.704 401.173 168.033 401.173ZM171.956 402V401.205L174.417 398.655C174.68 398.378 174.896 398.135 175.067 397.927C175.24 397.716 175.369 397.516 175.454 397.327C175.539 397.137 175.582 396.936 175.582 396.723C175.582 396.482 175.525 396.273 175.411 396.098C175.298 395.92 175.142 395.784 174.946 395.69C174.749 395.593 174.528 395.544 174.282 395.544C174.021 395.544 173.794 395.597 173.6 395.704C173.406 395.81 173.257 395.961 173.153 396.155C173.048 396.349 172.996 396.576 172.996 396.837H171.949C171.949 396.394 172.051 396.007 172.254 395.675C172.458 395.344 172.737 395.087 173.092 394.905C173.447 394.72 173.851 394.628 174.303 394.628C174.76 394.628 175.163 394.719 175.511 394.901C175.861 395.081 176.134 395.327 176.331 395.64C176.527 395.95 176.626 396.3 176.626 396.691C176.626 396.961 176.575 397.225 176.473 397.483C176.374 397.741 176.2 398.029 175.951 398.346C175.702 398.661 175.357 399.043 174.914 399.493L173.469 401.006V401.059H176.743V402H171.956ZM178.803 402.067C178.608 402.067 178.441 401.999 178.302 401.862C178.162 401.722 178.092 401.554 178.092 401.357C178.092 401.163 178.162 400.997 178.302 400.86C178.441 400.72 178.608 400.651 178.803 400.651C178.997 400.651 179.164 400.72 179.303 400.86C179.443 400.997 179.513 401.163 179.513 401.357C179.513 401.487 179.48 401.607 179.413 401.716C179.349 401.822 179.264 401.908 179.158 401.972C179.051 402.036 178.933 402.067 178.803 402.067ZM183.189 402.121C182.628 402.118 182.149 401.97 181.751 401.677C181.353 401.383 181.049 400.956 180.838 400.395C180.628 399.834 180.522 399.158 180.522 398.367C180.522 397.579 180.628 396.905 180.838 396.347C181.051 395.788 181.357 395.362 181.754 395.068C182.154 394.775 182.633 394.628 183.189 394.628C183.745 394.628 184.222 394.776 184.62 395.072C185.018 395.365 185.322 395.791 185.533 396.35C185.746 396.906 185.852 397.579 185.852 398.367C185.852 399.16 185.747 399.837 185.536 400.398C185.326 400.957 185.021 401.384 184.624 401.68C184.226 401.974 183.748 402.121 183.189 402.121ZM183.189 401.173C183.681 401.173 184.066 400.932 184.343 400.452C184.623 399.971 184.762 399.276 184.762 398.367C184.762 397.763 184.698 397.253 184.57 396.837C184.445 396.418 184.264 396.1 184.027 395.885C183.793 395.667 183.513 395.558 183.189 395.558C182.699 395.558 182.314 395.8 182.035 396.283C181.756 396.766 181.615 397.46 181.612 398.367C181.612 398.973 181.675 399.486 181.801 399.905C181.928 400.321 182.11 400.638 182.344 400.853C182.578 401.066 182.86 401.173 183.189 401.173ZM187.112 402V401.205L189.573 398.655C189.836 398.378 190.053 398.135 190.223 397.927C190.396 397.716 190.525 397.516 190.61 397.327C190.695 397.137 190.738 396.936 190.738 396.723C190.738 396.482 190.681 396.273 190.567 396.098C190.454 395.92 190.299 395.784 190.102 395.69C189.906 395.593 189.684 395.544 189.438 395.544C189.178 395.544 188.95 395.597 188.756 395.704C188.562 395.81 188.413 395.961 188.309 396.155C188.205 396.349 188.153 396.576 188.153 396.837H187.105C187.105 396.394 187.207 396.007 187.41 395.675C187.614 395.344 187.893 395.087 188.249 394.905C188.604 394.72 189.007 394.628 189.459 394.628C189.916 394.628 190.319 394.719 190.667 394.901C191.017 395.081 191.291 395.327 191.487 395.64C191.684 395.95 191.782 396.3 191.782 396.691C191.782 396.961 191.731 397.225 191.629 397.483C191.53 397.741 191.356 398.029 191.107 398.346C190.859 398.661 190.513 399.043 190.07 399.493L188.625 401.006V401.059H191.899V402H187.112ZM197.041 400.636V400.253C197.041 399.978 197.098 399.727 197.212 399.5C197.328 399.27 197.496 399.087 197.716 398.95C197.938 398.81 198.207 398.74 198.522 398.74C198.844 398.74 199.114 398.809 199.332 398.946C199.549 399.083 199.714 399.267 199.825 399.496C199.939 399.726 199.996 399.978 199.996 400.253V400.636C199.996 400.911 199.939 401.163 199.825 401.393C199.712 401.62 199.545 401.804 199.325 401.943C199.107 402.08 198.839 402.149 198.522 402.149C198.202 402.149 197.932 402.08 197.712 401.943C197.492 401.804 197.325 401.62 197.212 401.393C197.098 401.163 197.041 400.911 197.041 400.636ZM197.869 400.253V400.636C197.869 400.84 197.917 401.025 198.014 401.19C198.111 401.356 198.28 401.439 198.522 401.439C198.761 401.439 198.928 401.356 199.023 401.19C199.117 401.025 199.165 400.84 199.165 400.636V400.253C199.165 400.049 199.119 399.865 199.026 399.699C198.936 399.533 198.768 399.45 198.522 399.45C198.285 399.45 198.117 399.533 198.018 399.699C197.918 399.865 197.869 400.049 197.869 400.253ZM193.383 396.474V396.091C193.383 395.816 193.44 395.564 193.554 395.335C193.67 395.105 193.838 394.921 194.058 394.784C194.281 394.647 194.549 394.578 194.864 394.578C195.186 394.578 195.456 394.647 195.674 394.784C195.892 394.921 196.056 395.105 196.168 395.335C196.279 395.564 196.334 395.816 196.334 396.091V396.474C196.334 396.749 196.278 397.001 196.164 397.231C196.053 397.458 195.887 397.642 195.667 397.781C195.449 397.919 195.182 397.987 194.864 397.987C194.542 397.987 194.271 397.919 194.051 397.781C193.833 397.642 193.668 397.458 193.554 397.231C193.44 397.001 193.383 396.749 193.383 396.474ZM194.214 396.091V396.474C194.214 396.678 194.262 396.863 194.356 397.028C194.454 397.194 194.623 397.277 194.864 397.277C195.101 397.277 195.267 397.194 195.361 397.028C195.459 396.863 195.507 396.678 195.507 396.474V396.091C195.507 395.887 195.461 395.703 195.369 395.537C195.276 395.371 195.108 395.288 194.864 395.288C194.628 395.288 194.459 395.371 194.36 395.537C194.263 395.703 194.214 395.887 194.214 396.091ZM193.721 402L198.721 394.727H199.57L194.57 402H193.721Z" fill="#555555"/>
<circle cx="361.746" cy="131.746" r="59.7465" fill="#FDFDFD"/>
<circle cx="361.746" cy="131.746" r="58.2465" stroke="#D1D3D4" stroke-opacity="0.2" stroke-width="3"/>
<path d="M361.591 105.58H357.341C357.22 104.883 356.996 104.265 356.67 103.727C356.345 103.182 355.939 102.72 355.455 102.341C354.97 101.962 354.417 101.678 353.795 101.489C353.182 101.292 352.519 101.193 351.807 101.193C350.542 101.193 349.42 101.511 348.443 102.148C347.466 102.777 346.701 103.701 346.148 104.92C345.595 106.133 345.318 107.614 345.318 109.364C345.318 111.144 345.595 112.644 346.148 113.864C346.708 115.076 347.473 115.992 348.443 116.614C349.42 117.227 350.538 117.534 351.795 117.534C352.492 117.534 353.144 117.443 353.75 117.261C354.364 117.072 354.913 116.795 355.398 116.432C355.89 116.068 356.303 115.621 356.636 115.091C356.977 114.561 357.212 113.955 357.341 113.273L361.591 113.295C361.432 114.402 361.087 115.439 360.557 116.409C360.034 117.379 359.348 118.235 358.5 118.977C357.652 119.712 356.659 120.288 355.523 120.705C354.386 121.114 353.125 121.318 351.739 121.318C349.693 121.318 347.867 120.845 346.261 119.898C344.655 118.951 343.39 117.583 342.466 115.795C341.542 114.008 341.08 111.864 341.08 109.364C341.08 106.856 341.545 104.712 342.477 102.932C343.409 101.144 344.678 99.7765 346.284 98.8295C347.89 97.8826 349.708 97.4091 351.739 97.4091C353.034 97.4091 354.239 97.5909 355.352 97.9545C356.466 98.3182 357.458 98.8523 358.33 99.5568C359.201 100.254 359.917 101.11 360.477 102.125C361.045 103.133 361.417 104.284 361.591 105.58ZM376.395 113.659V103.545H380.509V121H376.52V117.898H376.338C375.944 118.875 375.296 119.674 374.395 120.295C373.501 120.917 372.399 121.227 371.088 121.227C369.944 121.227 368.933 120.973 368.054 120.466C367.183 119.951 366.501 119.205 366.009 118.227C365.516 117.242 365.27 116.053 365.27 114.659V103.545H369.384V114.023C369.384 115.129 369.687 116.008 370.293 116.659C370.899 117.311 371.694 117.636 372.679 117.636C373.285 117.636 373.872 117.489 374.44 117.193C375.009 116.898 375.474 116.458 375.838 115.875C376.209 115.284 376.395 114.545 376.395 113.659Z" fill="black"/>
<path d="M338.032 141.254H336.173C336.12 140.949 336.022 140.679 335.879 140.443C335.737 140.205 335.559 140.002 335.347 139.837C335.135 139.671 334.893 139.547 334.621 139.464C334.353 139.378 334.063 139.335 333.751 139.335C333.198 139.335 332.707 139.474 332.28 139.752C331.852 140.027 331.518 140.432 331.276 140.965C331.034 141.496 330.913 142.143 330.913 142.909C330.913 143.688 331.034 144.344 331.276 144.878C331.521 145.408 331.856 145.809 332.28 146.081C332.707 146.349 333.196 146.484 333.746 146.484C334.051 146.484 334.336 146.444 334.602 146.364C334.87 146.281 335.11 146.161 335.322 146.001C335.538 145.842 335.719 145.647 335.864 145.415C336.013 145.183 336.116 144.918 336.173 144.619L338.032 144.629C337.962 145.113 337.812 145.567 337.58 145.991C337.351 146.416 337.051 146.79 336.68 147.115C336.308 147.437 335.874 147.688 335.377 147.871C334.88 148.05 334.328 148.139 333.722 148.139C332.827 148.139 332.028 147.932 331.325 147.518C330.623 147.103 330.069 146.505 329.665 145.723C329.26 144.941 329.058 144.003 329.058 142.909C329.058 141.812 329.262 140.874 329.67 140.095C330.077 139.313 330.633 138.715 331.335 138.3C332.038 137.886 332.833 137.679 333.722 137.679C334.288 137.679 334.815 137.759 335.303 137.918C335.79 138.077 336.224 138.31 336.605 138.619C336.986 138.924 337.299 139.298 337.545 139.742C337.793 140.183 337.956 140.687 338.032 141.254ZM350.919 142.909C350.919 144.006 350.714 144.946 350.303 145.728C349.895 146.507 349.338 147.103 348.632 147.518C347.929 147.932 347.132 148.139 346.241 148.139C345.349 148.139 344.55 147.932 343.844 147.518C343.142 147.1 342.585 146.502 342.174 145.723C341.766 144.941 341.563 144.003 341.563 142.909C341.563 141.812 341.766 140.874 342.174 140.095C342.585 139.313 343.142 138.715 343.844 138.3C344.55 137.886 345.349 137.679 346.241 137.679C347.132 137.679 347.929 137.886 348.632 138.3C349.338 138.715 349.895 139.313 350.303 140.095C350.714 140.874 350.919 141.812 350.919 142.909ZM349.065 142.909C349.065 142.137 348.944 141.486 348.702 140.955C348.463 140.422 348.132 140.019 347.707 139.747C347.283 139.472 346.794 139.335 346.241 139.335C345.687 139.335 345.198 139.472 344.774 139.747C344.35 140.019 344.017 140.422 343.775 140.955C343.536 141.486 343.417 142.137 343.417 142.909C343.417 143.681 343.536 144.334 343.775 144.868C344.017 145.398 344.35 145.801 344.774 146.076C345.198 146.348 345.687 146.484 346.241 146.484C346.794 146.484 347.283 146.348 347.707 146.076C348.132 145.801 348.463 145.398 348.702 144.868C348.944 144.334 349.065 143.681 349.065 142.909ZM354.763 148V137.818H358.581C359.363 137.818 360.019 137.964 360.55 138.256C361.083 138.547 361.486 138.948 361.758 139.459C362.033 139.966 362.171 140.543 362.171 141.189C362.171 141.842 362.033 142.422 361.758 142.929C361.483 143.436 361.077 143.835 360.54 144.127C360.003 144.415 359.342 144.56 358.556 144.56H356.026V143.043H358.308C358.765 143.043 359.14 142.964 359.431 142.805C359.723 142.646 359.938 142.427 360.077 142.148C360.22 141.87 360.291 141.55 360.291 141.189C360.291 140.828 360.22 140.509 360.077 140.234C359.938 139.959 359.721 139.746 359.426 139.593C359.135 139.437 358.758 139.359 358.298 139.359H356.607V148H354.763ZM365.873 148V137.818H369.691C370.473 137.818 371.129 137.964 371.66 138.256C372.193 138.547 372.596 138.948 372.868 139.459C373.143 139.966 373.28 140.543 373.28 141.189C373.28 141.842 373.143 142.422 372.868 142.929C372.593 143.436 372.187 143.835 371.65 144.127C371.113 144.415 370.451 144.56 369.666 144.56H367.135V143.043H369.417C369.875 143.043 370.249 142.964 370.541 142.805C370.833 142.646 371.048 142.427 371.187 142.148C371.33 141.87 371.401 141.55 371.401 141.189C371.401 140.828 371.33 140.509 371.187 140.234C371.048 139.959 370.831 139.746 370.536 139.593C370.244 139.437 369.868 139.359 369.407 139.359H367.717V148H365.873ZM376.982 148V137.818H383.605V139.364H378.827V142.129H383.262V143.675H378.827V146.454H383.644V148H376.982ZM387.586 148V137.818H391.404C392.187 137.818 392.843 137.954 393.373 138.226C393.907 138.498 394.31 138.879 394.581 139.369C394.856 139.857 394.994 140.425 394.994 141.075C394.994 141.728 394.855 142.294 394.576 142.775C394.301 143.252 393.895 143.622 393.358 143.884C392.821 144.142 392.162 144.271 391.38 144.271H388.66V142.74H391.131C391.588 142.74 391.963 142.677 392.255 142.551C392.546 142.422 392.762 142.235 392.901 141.989C393.043 141.741 393.115 141.436 393.115 141.075C393.115 140.713 393.043 140.405 392.901 140.15C392.758 139.891 392.541 139.696 392.25 139.563C391.958 139.427 391.582 139.359 391.121 139.359H389.431V148H387.586ZM392.846 143.386L395.367 148H393.309L390.833 143.386H392.846Z" fill="#5E5E5E"/>
<path d="M346.1 156.902V157.825H342.876V156.902H346.1ZM350.033 161.121C349.472 161.118 348.993 160.97 348.595 160.677C348.197 160.383 347.893 159.956 347.682 159.395C347.472 158.834 347.366 158.158 347.366 157.367C347.366 156.579 347.472 155.905 347.682 155.347C347.896 154.788 348.201 154.362 348.599 154.068C348.999 153.775 349.477 153.628 350.033 153.628C350.59 153.628 351.067 153.776 351.464 154.072C351.862 154.365 352.166 154.791 352.377 155.35C352.59 155.906 352.697 156.579 352.697 157.367C352.697 158.16 352.591 158.837 352.381 159.398C352.17 159.957 351.866 160.384 351.468 160.68C351.07 160.974 350.592 161.121 350.033 161.121ZM350.033 160.173C350.526 160.173 350.91 159.932 351.187 159.452C351.467 158.971 351.606 158.276 351.606 157.367C351.606 156.763 351.543 156.253 351.415 155.837C351.289 155.418 351.108 155.1 350.871 154.885C350.637 154.667 350.358 154.558 350.033 154.558C349.543 154.558 349.159 154.8 348.879 155.283C348.6 155.766 348.459 156.46 348.457 157.367C348.457 157.973 348.519 158.486 348.645 158.905C348.773 159.321 348.954 159.638 349.188 159.853C349.422 160.066 349.704 160.173 350.033 160.173ZM353.956 161V160.205L356.417 157.655C356.68 157.378 356.897 157.135 357.067 156.927C357.24 156.716 357.369 156.516 357.454 156.327C357.54 156.137 357.582 155.936 357.582 155.723C357.582 155.482 357.525 155.273 357.412 155.098C357.298 154.92 357.143 154.784 356.946 154.69C356.75 154.593 356.529 154.544 356.282 154.544C356.022 154.544 355.795 154.597 355.601 154.704C355.406 154.81 355.257 154.961 355.153 155.155C355.049 155.349 354.997 155.576 354.997 155.837H353.949C353.949 155.394 354.051 155.007 354.255 154.675C354.458 154.344 354.738 154.087 355.093 153.905C355.448 153.72 355.852 153.628 356.304 153.628C356.761 153.628 357.163 153.719 357.511 153.901C357.861 154.081 358.135 154.327 358.331 154.64C358.528 154.95 358.626 155.3 358.626 155.691C358.626 155.961 358.575 156.225 358.473 156.483C358.374 156.741 358.2 157.029 357.951 157.346C357.703 157.661 357.357 158.043 356.915 158.493L355.469 160.006V160.059H358.743V161H353.956ZM360.803 161.067C360.609 161.067 360.442 160.999 360.302 160.862C360.163 160.722 360.093 160.554 360.093 160.357C360.093 160.163 360.163 159.997 360.302 159.86C360.442 159.72 360.609 159.651 360.803 159.651C360.997 159.651 361.164 159.72 361.304 159.86C361.443 159.997 361.513 160.163 361.513 160.357C361.513 160.487 361.48 160.607 361.414 160.716C361.35 160.822 361.265 160.908 361.158 160.972C361.052 161.036 360.933 161.067 360.803 161.067ZM365.19 161.121C364.628 161.118 364.149 160.97 363.751 160.677C363.354 160.383 363.049 159.956 362.839 159.395C362.628 158.834 362.523 158.158 362.523 157.367C362.523 156.579 362.628 155.905 362.839 155.347C363.052 154.788 363.357 154.362 363.755 154.068C364.155 153.775 364.633 153.628 365.19 153.628C365.746 153.628 366.223 153.776 366.621 154.072C367.018 154.365 367.323 154.791 367.533 155.35C367.746 155.906 367.853 156.579 367.853 157.367C367.853 158.16 367.748 158.837 367.537 159.398C367.326 159.957 367.022 160.384 366.624 160.68C366.226 160.974 365.748 161.121 365.19 161.121ZM365.19 160.173C365.682 160.173 366.067 159.932 366.344 159.452C366.623 158.971 366.763 158.276 366.763 157.367C366.763 156.763 366.699 156.253 366.571 155.837C366.445 155.418 366.264 155.1 366.028 154.885C365.793 154.667 365.514 154.558 365.19 154.558C364.699 154.558 364.315 154.8 364.035 155.283C363.756 155.766 363.615 156.46 363.613 157.367C363.613 157.973 363.676 158.486 363.801 158.905C363.929 159.321 364.11 159.638 364.344 159.853C364.579 160.066 364.86 160.173 365.19 160.173ZM369.113 161V160.205L371.574 157.655C371.836 157.378 372.053 157.135 372.223 156.927C372.396 156.716 372.525 156.516 372.611 156.327C372.696 156.137 372.738 155.936 372.738 155.723C372.738 155.482 372.682 155.273 372.568 155.098C372.454 154.92 372.299 154.784 372.103 154.69C371.906 154.593 371.685 154.544 371.439 154.544C371.178 154.544 370.951 154.597 370.757 154.704C370.563 154.81 370.414 154.961 370.309 155.155C370.205 155.349 370.153 155.576 370.153 155.837H369.106C369.106 155.394 369.207 155.007 369.411 154.675C369.615 154.344 369.894 154.087 370.249 153.905C370.604 153.72 371.008 153.628 371.46 153.628C371.917 153.628 372.319 153.719 372.667 153.901C373.018 154.081 373.291 154.327 373.488 154.64C373.684 154.95 373.782 155.3 373.782 155.691C373.782 155.961 373.732 156.225 373.63 156.483C373.53 156.741 373.356 157.029 373.108 157.346C372.859 157.661 372.513 158.043 372.071 158.493L370.625 160.006V160.059H373.9V161H369.113ZM379.042 159.636V159.253C379.042 158.978 379.098 158.727 379.212 158.5C379.328 158.27 379.496 158.087 379.716 157.95C379.939 157.81 380.208 157.74 380.522 157.74C380.844 157.74 381.114 157.809 381.332 157.946C381.55 158.083 381.714 158.267 381.826 158.496C381.939 158.726 381.996 158.978 381.996 159.253V159.636C381.996 159.911 381.939 160.163 381.826 160.393C381.712 160.62 381.545 160.804 381.325 160.943C381.107 161.08 380.84 161.149 380.522 161.149C380.203 161.149 379.933 161.08 379.713 160.943C379.493 160.804 379.326 160.62 379.212 160.393C379.098 160.163 379.042 159.911 379.042 159.636ZM379.869 159.253V159.636C379.869 159.84 379.918 160.025 380.015 160.19C380.112 160.356 380.281 160.439 380.522 160.439C380.762 160.439 380.928 160.356 381.023 160.19C381.118 160.025 381.165 159.84 381.165 159.636V159.253C381.165 159.049 381.119 158.865 381.027 158.699C380.937 158.533 380.769 158.45 380.522 158.45C380.286 158.45 380.118 158.533 380.018 158.699C379.919 158.865 379.869 159.049 379.869 159.253ZM375.384 155.474V155.091C375.384 154.816 375.441 154.564 375.554 154.335C375.67 154.105 375.839 153.921 376.059 153.784C376.281 153.647 376.55 153.578 376.865 153.578C377.187 153.578 377.457 153.647 377.674 153.784C377.892 153.921 378.057 154.105 378.168 154.335C378.279 154.564 378.335 154.816 378.335 155.091V155.474C378.335 155.749 378.278 156.001 378.165 156.231C378.053 156.458 377.888 156.642 377.667 156.781C377.45 156.919 377.182 156.987 376.865 156.987C376.543 156.987 376.272 156.919 376.052 156.781C375.834 156.642 375.668 156.458 375.554 156.231C375.441 156.001 375.384 155.749 375.384 155.474ZM376.215 155.091V155.474C376.215 155.678 376.262 155.863 376.357 156.028C376.454 156.194 376.623 156.277 376.865 156.277C377.102 156.277 377.267 156.194 377.362 156.028C377.459 155.863 377.508 155.678 377.508 155.474V155.091C377.508 154.887 377.461 154.703 377.369 154.537C377.277 154.371 377.109 154.288 376.865 154.288C376.628 154.288 376.46 154.371 376.361 154.537C376.263 154.703 376.215 154.887 376.215 155.091ZM375.721 161L380.721 153.727H381.57L376.57 161H375.721Z" fill="#555555"/>
<g filter="url(#filter2_d_450_2326)">
<circle cx="363.169" cy="321.169" r="61.169" fill="#FDFDFD"/>
<circle cx="363.169" cy="321.169" r="59.669" stroke="#9A9A9A" stroke-opacity="0.08" stroke-width="3"/>
</g>
<path d="M344.217 319V287.952H355.86C358.245 287.952 360.246 288.397 361.863 289.286C363.49 290.176 364.718 291.399 365.547 292.955C366.386 294.501 366.805 296.26 366.805 298.231C366.805 300.222 366.386 301.99 365.547 303.537C364.708 305.083 363.47 306.301 361.833 307.19C360.195 308.07 358.179 308.509 355.784 308.509H348.067V303.885H355.026C356.421 303.885 357.563 303.643 358.452 303.158C359.341 302.673 359.998 302.006 360.423 301.157C360.857 300.308 361.075 299.332 361.075 298.231C361.075 297.129 360.857 296.159 360.423 295.32C359.998 294.481 359.336 293.829 358.437 293.364C357.547 292.889 356.4 292.652 354.995 292.652H349.841V319H344.217ZM383.076 295.714V299.959H369.689V295.714H383.076ZM372.994 290.135H378.482V311.996C378.482 312.734 378.593 313.3 378.816 313.694C379.048 314.078 379.351 314.341 379.725 314.482C380.099 314.624 380.514 314.695 380.968 314.695C381.312 314.695 381.625 314.669 381.908 314.619C382.202 314.568 382.424 314.523 382.575 314.482L383.5 318.773C383.207 318.874 382.788 318.985 382.242 319.106C381.706 319.227 381.049 319.298 380.271 319.318C378.897 319.359 377.659 319.152 376.557 318.697C375.455 318.232 374.581 317.514 373.934 316.544C373.297 315.574 372.984 314.361 372.994 312.906V290.135Z" fill="black"/>
<path d="M326.353 340.871V331.231H329.968C330.709 331.231 331.33 331.369 331.832 331.645C332.337 331.922 332.719 332.301 332.976 332.785C333.237 333.265 333.367 333.811 333.367 334.423C333.367 335.041 333.237 335.59 332.976 336.07C332.716 336.55 332.331 336.928 331.823 337.204C331.314 337.477 330.688 337.614 329.945 337.614H327.549V336.178H329.709C330.142 336.178 330.497 336.103 330.773 335.952C331.049 335.802 331.253 335.595 331.385 335.331C331.52 335.067 331.587 334.765 331.587 334.423C331.587 334.081 331.52 333.779 331.385 333.519C331.253 333.258 331.048 333.056 330.768 332.912C330.492 332.764 330.136 332.69 329.7 332.69H328.1V340.871H326.353ZM335.944 340.871V331.231H337.69V339.407H341.936V340.871H335.944ZM346.112 340.871H344.248L347.642 331.231H349.798L353.196 340.871H351.332L348.758 333.208H348.682L346.112 340.871ZM346.173 337.091H351.257V338.494H346.173V337.091ZM353.938 332.695V331.231H361.629V332.695H358.649V340.871H356.917V332.695H353.938ZM365.918 331.231V340.871H364.172V331.231H365.918ZM376.791 331.231V340.871H375.238L370.696 334.305H370.616V340.871H368.87V331.231H370.432L374.97 337.802H375.055V331.231H376.791ZM385.831 331.231H387.578V337.529C387.578 338.22 387.414 338.827 387.088 339.351C386.765 339.875 386.31 340.284 385.723 340.579C385.136 340.871 384.451 341.017 383.666 341.017C382.879 341.017 382.191 340.871 381.604 340.579C381.018 340.284 380.563 339.875 380.239 339.351C379.916 338.827 379.755 338.22 379.755 337.529V331.231H381.501V337.383C381.501 337.785 381.589 338.143 381.765 338.456C381.943 338.77 382.194 339.017 382.518 339.195C382.841 339.371 383.224 339.459 383.666 339.459C384.109 339.459 384.491 339.371 384.815 339.195C385.141 339.017 385.392 338.77 385.568 338.456C385.743 338.143 385.831 337.785 385.831 337.383V331.231ZM390.536 331.231H392.673L395.535 338.216H395.648L398.51 331.231H400.647V340.871H398.971V334.248H398.882L396.217 340.843H394.965L392.301 334.234H392.212V340.871H390.536V331.231Z" fill="#5E5E5E"/>
<path d="M348.696 348.353V349.227H345.643V348.353H348.696ZM352.42 352.347C351.888 352.344 351.434 352.204 351.058 351.926C350.681 351.649 350.393 351.244 350.194 350.713C349.994 350.182 349.895 349.542 349.895 348.793C349.895 348.047 349.994 347.409 350.194 346.88C350.396 346.351 350.685 345.948 351.061 345.67C351.44 345.392 351.893 345.253 352.42 345.253C352.946 345.253 353.398 345.393 353.774 345.673C354.151 345.951 354.439 346.354 354.639 346.883C354.84 347.41 354.941 348.047 354.941 348.793C354.941 349.544 354.841 350.185 354.642 350.716C354.442 351.245 354.154 351.65 353.778 351.93C353.401 352.208 352.949 352.347 352.42 352.347ZM352.42 351.449C352.886 351.449 353.25 351.222 353.512 350.767C353.777 350.312 353.909 349.654 353.909 348.793C353.909 348.221 353.848 347.738 353.727 347.344C353.609 346.947 353.437 346.647 353.213 346.443C352.991 346.237 352.727 346.134 352.42 346.134C351.956 346.134 351.591 346.362 351.327 346.819C351.062 347.277 350.929 347.935 350.927 348.793C350.927 349.367 350.986 349.852 351.105 350.249C351.226 350.643 351.397 350.942 351.619 351.146C351.841 351.348 352.108 351.449 352.42 351.449ZM356.134 352.232V351.479L358.464 349.065C358.713 348.803 358.918 348.573 359.079 348.376C359.243 348.177 359.365 347.987 359.446 347.808C359.526 347.629 359.567 347.438 359.567 347.236C359.567 347.008 359.513 346.81 359.405 346.645C359.298 346.476 359.151 346.348 358.965 346.258C358.779 346.166 358.569 346.12 358.336 346.12C358.089 346.12 357.874 346.171 357.69 346.271C357.507 346.372 357.365 346.515 357.267 346.698C357.168 346.882 357.119 347.097 357.119 347.344H356.127C356.127 346.925 356.223 346.558 356.416 346.244C356.609 345.931 356.873 345.688 357.21 345.515C357.546 345.34 357.928 345.253 358.356 345.253C358.789 345.253 359.17 345.339 359.499 345.512C359.831 345.682 360.09 345.915 360.276 346.211C360.462 346.505 360.555 346.836 360.555 347.206C360.555 347.462 360.507 347.711 360.41 347.956C360.316 348.2 360.152 348.472 359.916 348.773C359.681 349.071 359.354 349.433 358.934 349.859L357.566 351.291V351.341H360.666V352.232H356.134ZM362.616 352.296C362.432 352.296 362.274 352.231 362.142 352.101C362.01 351.969 361.944 351.81 361.944 351.624C361.944 351.44 362.01 351.283 362.142 351.153C362.274 351.021 362.432 350.955 362.616 350.955C362.8 350.955 362.958 351.021 363.09 351.153C363.222 351.283 363.288 351.44 363.288 351.624C363.288 351.747 363.257 351.86 363.194 351.963C363.134 352.064 363.053 352.145 362.952 352.206C362.851 352.266 362.739 352.296 362.616 352.296ZM366.769 352.347C366.238 352.344 365.784 352.204 365.407 351.926C365.031 351.649 364.743 351.244 364.543 350.713C364.344 350.182 364.244 349.542 364.244 348.793C364.244 348.047 364.344 347.409 364.543 346.88C364.745 346.351 365.034 345.948 365.411 345.67C365.79 345.392 366.242 345.253 366.769 345.253C367.296 345.253 367.747 345.393 368.124 345.673C368.501 345.951 368.789 346.354 368.988 346.883C369.19 347.41 369.291 348.047 369.291 348.793C369.291 349.544 369.191 350.185 368.991 350.716C368.792 351.245 368.504 351.65 368.127 351.93C367.751 352.208 367.298 352.347 366.769 352.347ZM366.769 351.449C367.235 351.449 367.599 351.222 367.862 350.767C368.126 350.312 368.258 349.654 368.258 348.793C368.258 348.221 368.198 347.738 368.077 347.344C367.958 346.947 367.787 346.647 367.562 346.443C367.341 346.237 367.076 346.134 366.769 346.134C366.305 346.134 365.941 346.362 365.676 346.819C365.412 347.277 365.279 347.935 365.276 348.793C365.276 349.367 365.336 349.852 365.454 350.249C365.575 350.643 365.747 350.942 365.969 351.146C366.191 351.348 366.457 351.449 366.769 351.449ZM370.483 352.232V351.479L372.813 349.065C373.062 348.803 373.267 348.573 373.429 348.376C373.592 348.177 373.714 347.987 373.795 347.808C373.876 347.629 373.916 347.438 373.916 347.236C373.916 347.008 373.862 346.81 373.755 346.645C373.647 346.476 373.5 346.348 373.314 346.258C373.128 346.166 372.919 346.12 372.686 346.12C372.439 346.12 372.224 346.171 372.04 346.271C371.856 346.372 371.715 346.515 371.616 346.698C371.518 346.882 371.468 347.097 371.468 347.344H370.477C370.477 346.925 370.573 346.558 370.766 346.244C370.959 345.931 371.223 345.688 371.559 345.515C371.895 345.34 372.278 345.253 372.706 345.253C373.138 345.253 373.519 345.339 373.849 345.512C374.181 345.682 374.439 345.915 374.625 346.211C374.811 346.505 374.905 346.836 374.905 347.206C374.905 347.462 374.856 347.711 374.76 347.956C374.666 348.2 374.501 348.472 374.266 348.773C374.03 349.071 373.703 349.433 373.284 349.859L371.916 351.291V351.341H375.015V352.232H370.483ZM379.884 350.941V350.578C379.884 350.318 379.938 350.081 380.045 349.865C380.155 349.648 380.314 349.474 380.523 349.344C380.733 349.212 380.988 349.146 381.286 349.146C381.591 349.146 381.846 349.211 382.052 349.341C382.259 349.471 382.414 349.645 382.52 349.862C382.627 350.08 382.681 350.318 382.681 350.578V350.941C382.681 351.201 382.627 351.44 382.52 351.658C382.412 351.873 382.254 352.046 382.046 352.179C381.839 352.309 381.586 352.374 381.286 352.374C380.983 352.374 380.728 352.309 380.519 352.179C380.311 352.046 380.153 351.873 380.045 351.658C379.938 351.44 379.884 351.201 379.884 350.941ZM380.667 350.578V350.941C380.667 351.134 380.713 351.309 380.805 351.466C380.897 351.623 381.057 351.701 381.286 351.701C381.512 351.701 381.67 351.623 381.76 351.466C381.85 351.309 381.894 351.134 381.894 350.941V350.578C381.894 350.386 381.851 350.211 381.763 350.054C381.678 349.897 381.519 349.818 381.286 349.818C381.062 349.818 380.903 349.897 380.808 350.054C380.714 350.211 380.667 350.386 380.667 350.578ZM376.421 347.001V346.638C376.421 346.378 376.475 346.139 376.582 345.922C376.692 345.704 376.851 345.531 377.06 345.401C377.27 345.271 377.525 345.206 377.823 345.206C378.128 345.206 378.383 345.271 378.589 345.401C378.796 345.531 378.951 345.704 379.057 345.922C379.162 346.139 379.215 346.378 379.215 346.638V347.001C379.215 347.261 379.161 347.5 379.053 347.717C378.948 347.932 378.791 348.106 378.583 348.238C378.376 348.368 378.123 348.433 377.823 348.433C377.518 348.433 377.261 348.368 377.053 348.238C376.847 348.106 376.69 347.932 376.582 347.717C376.475 347.5 376.421 347.261 376.421 347.001ZM377.208 346.638V347.001C377.208 347.194 377.252 347.369 377.342 347.525C377.434 347.682 377.594 347.761 377.823 347.761C378.047 347.761 378.204 347.682 378.294 347.525C378.385 347.369 378.431 347.194 378.431 347.001V346.638C378.431 346.445 378.388 346.27 378.3 346.113C378.213 345.956 378.054 345.878 377.823 345.878C377.599 345.878 377.44 345.956 377.345 346.113C377.254 346.27 377.208 346.445 377.208 346.638ZM376.74 352.232L381.474 345.347H382.278L377.544 352.232H376.74Z" fill="#555555"/>
<g filter="url(#filter3_d_450_2326)">
<circle cx="236.311" cy="195.704" r="109.535" fill="#FDFDFD"/>
<circle cx="236.311" cy="195.704" r="108.035" stroke="#F09B1E" stroke-opacity="0.05" stroke-width="3"/>
</g>
<path d="M269.941 197.689C268.68 200.039 266.357 201.486 263.828 201.486H209.158C206.64 201.486 204.31 200.039 203.049 197.689C201.788 195.346 201.788 192.445 203.049 190.095L216.719 164.609C217.975 162.259 220.302 160.812 222.827 160.812H250.155C252.673 160.812 255.003 162.259 256.264 164.609L269.933 190.095C271.202 192.453 271.202 195.346 269.941 197.689ZM229.826 236.609L216.161 211.127C214.9 208.776 212.573 207.33 210.052 207.33H182.721C180.203 207.33 177.872 208.776 176.616 211.127L162.946 236.609C161.685 238.959 161.685 241.86 162.946 244.203C164.207 246.553 166.53 248 169.055 248H223.718C226.235 248 228.57 246.553 229.826 244.203C231.087 241.86 231.087 238.967 229.826 236.609ZM310.052 236.609L296.382 211.127C295.121 208.776 292.799 207.33 290.277 207.33H262.946C260.428 207.33 258.094 208.776 256.837 211.127L243.171 236.609C241.91 238.959 241.91 241.86 243.171 244.203C244.428 246.553 246.755 248 249.276 248H303.943C306.464 248 308.798 246.553 310.055 244.203C311.316 241.86 311.316 238.967 310.052 236.609ZM284.703 163.299L282.262 174.667L270.816 177.09L282.262 179.509L284.703 190.877L287.14 179.509L298.587 177.09L287.14 174.667L284.703 163.299ZM195.958 150.036L193.521 161.401L182.075 163.823L193.521 166.242L195.958 177.61L198.396 166.242L209.842 163.823L198.396 161.401L195.958 150.036ZM254.224 132L251.782 143.365L240.336 145.787L251.782 148.21L254.224 159.578L256.661 148.21L268.107 145.791L256.661 143.368L254.224 132Z" fill="#F09B1E"/>
<g filter="url(#filter4_d_450_2326)">
<circle cx="114.056" cy="115.056" r="54.0563" fill="#FDFDFD"/>
<circle cx="114.056" cy="115.056" r="52.5563" stroke="#9A9A9A" stroke-opacity="0.08" stroke-width="3"/>
</g>
<path d="M96.4716 108H91.9716L100.165 84.7273H105.369L113.574 108H109.074L102.858 89.5H102.676L96.4716 108ZM96.6193 98.875H108.892V102.261H96.6193V98.875ZM123.517 114.909C122.04 114.909 120.771 114.708 119.71 114.307C118.65 113.913 117.797 113.383 117.153 112.716C116.509 112.049 116.062 111.311 115.812 110.5L119.517 109.602C119.684 109.943 119.926 110.28 120.244 110.614C120.563 110.955 120.991 111.235 121.528 111.455C122.074 111.682 122.759 111.795 123.585 111.795C124.752 111.795 125.718 111.511 126.483 110.943C127.248 110.383 127.631 109.458 127.631 108.17V104.864H127.426C127.214 105.288 126.903 105.723 126.494 106.17C126.093 106.617 125.559 106.992 124.892 107.295C124.233 107.598 123.403 107.75 122.403 107.75C121.062 107.75 119.847 107.436 118.756 106.807C117.672 106.17 116.809 105.223 116.165 103.966C115.528 102.701 115.21 101.117 115.21 99.2159C115.21 97.2992 115.528 95.6818 116.165 94.3636C116.809 93.0379 117.676 92.0341 118.767 91.3523C119.858 90.6629 121.074 90.3182 122.415 90.3182C123.438 90.3182 124.278 90.4924 124.938 90.8409C125.604 91.1818 126.134 91.5947 126.528 92.0795C126.922 92.5568 127.222 93.0076 127.426 93.4318H127.653V90.5455H131.71V108.284C131.71 109.777 131.354 111.011 130.642 111.989C129.93 112.966 128.956 113.697 127.722 114.182C126.487 114.667 125.085 114.909 123.517 114.909ZM123.551 104.523C124.422 104.523 125.165 104.311 125.778 103.886C126.392 103.462 126.858 102.852 127.176 102.057C127.494 101.261 127.653 100.307 127.653 99.1932C127.653 98.0947 127.494 97.1326 127.176 96.3068C126.866 95.4811 126.403 94.8409 125.79 94.3864C125.184 93.9242 124.438 93.6932 123.551 93.6932C122.634 93.6932 121.869 93.9318 121.256 94.4091C120.642 94.8864 120.18 95.5417 119.869 96.375C119.559 97.2008 119.403 98.1402 119.403 99.1932C119.403 100.261 119.559 101.197 119.869 102C120.188 102.795 120.653 103.417 121.267 103.864C121.888 104.303 122.65 104.523 123.551 104.523Z" fill="black"/>
<path d="M91.0123 127.617C90.9658 127.183 90.7703 126.845 90.4256 126.603C90.0842 126.361 89.6401 126.24 89.0932 126.24C88.7087 126.24 88.379 126.298 88.1039 126.414C87.8288 126.53 87.6183 126.687 87.4725 126.886C87.3266 127.085 87.2521 127.312 87.2488 127.567C87.2488 127.78 87.2968 127.964 87.3929 128.119C87.4924 128.275 87.6266 128.408 87.7956 128.517C87.9647 128.623 88.1519 128.713 88.3574 128.786C88.5629 128.858 88.7701 128.92 88.9789 128.969L89.9334 129.208C90.3179 129.298 90.6874 129.419 91.0421 129.571C91.4 129.723 91.7199 129.916 92.0016 130.148C92.2866 130.38 92.512 130.66 92.6777 130.988C92.8435 131.316 92.9263 131.701 92.9263 132.141C92.9263 132.738 92.7739 133.263 92.4689 133.717C92.164 134.168 91.7232 134.521 91.1465 134.776C90.5731 135.028 89.8787 135.154 89.0634 135.154C88.2712 135.154 87.5835 135.031 87.0002 134.786C86.4202 134.541 85.9661 134.183 85.638 133.712C85.3132 133.242 85.1375 132.668 85.111 131.992H86.9256C86.9521 132.347 87.0615 132.642 87.2537 132.877C87.446 133.112 87.6962 133.288 88.0044 133.404C88.316 133.52 88.664 133.578 89.0485 133.578C89.4495 133.578 89.8008 133.518 90.1025 133.399C90.4074 133.277 90.646 133.107 90.8184 132.892C90.9907 132.673 91.0785 132.418 91.0819 132.126C91.0785 131.861 91.0007 131.643 90.8482 131.47C90.6957 131.295 90.4819 131.149 90.2069 131.033C89.9351 130.913 89.6169 130.807 89.2523 130.714L88.0939 130.416C87.2554 130.201 86.5925 129.874 86.1053 129.437C85.6214 128.996 85.3794 128.411 85.3794 127.682C85.3794 127.082 85.5418 126.557 85.8667 126.106C86.1948 125.655 86.6406 125.305 87.204 125.057C87.7675 124.805 88.4055 124.679 89.1181 124.679C89.8406 124.679 90.4737 124.805 91.0172 125.057C91.5641 125.305 91.9933 125.652 92.3049 126.096C92.6164 126.537 92.7772 127.044 92.7871 127.617H91.0123ZM98.5151 124.818V135H96.6707V124.818H98.5151ZM102.612 135V124.818H104.457V133.454H108.941V135H102.612ZM112.952 124.818L115.601 132.832H115.706L118.351 124.818H120.379L116.79 135H114.513L110.928 124.818H112.952ZM123.82 135V124.818H130.442V126.364H125.665V129.129H130.099V130.675H125.665V133.454H130.482V135H123.82ZM134.424 135V124.818H138.242C139.025 124.818 139.681 124.954 140.211 125.226C140.745 125.498 141.147 125.879 141.419 126.369C141.694 126.857 141.832 127.425 141.832 128.075C141.832 128.728 141.693 129.294 141.414 129.775C141.139 130.252 140.733 130.622 140.196 130.884C139.659 131.142 139 131.271 138.218 131.271H135.498V129.74H137.969C138.426 129.74 138.801 129.677 139.093 129.551C139.384 129.422 139.6 129.235 139.739 128.989C139.881 128.741 139.953 128.436 139.953 128.075C139.953 127.713 139.881 127.405 139.739 127.15C139.596 126.891 139.379 126.696 139.088 126.563C138.796 126.427 138.42 126.359 137.959 126.359H136.269V135H134.424ZM139.684 130.386L142.205 135H140.146L137.671 130.386H139.684Z" fill="#5E5E5E"/>
<path d="M97.1004 143.902V144.825H93.876V143.902H97.1004ZM101.033 148.121C100.472 148.118 99.9928 147.97 99.5951 147.677C99.1974 147.383 98.8931 146.956 98.6824 146.395C98.4717 145.834 98.3664 145.158 98.3664 144.367C98.3664 143.579 98.4717 142.905 98.6824 142.347C98.8955 141.788 99.2009 141.362 99.5986 141.068C99.9987 140.775 100.477 140.628 101.033 140.628C101.59 140.628 102.067 140.776 102.464 141.072C102.862 141.365 103.166 141.791 103.377 142.35C103.59 142.906 103.697 143.579 103.697 144.367C103.697 145.16 103.591 145.837 103.381 146.398C103.17 146.957 102.866 147.384 102.468 147.68C102.07 147.974 101.592 148.121 101.033 148.121ZM101.033 147.173C101.526 147.173 101.91 146.932 102.187 146.452C102.467 145.971 102.606 145.276 102.606 144.367C102.606 143.763 102.543 143.253 102.415 142.837C102.289 142.418 102.108 142.1 101.871 141.885C101.637 141.667 101.358 141.558 101.033 141.558C100.543 141.558 100.159 141.8 99.8792 142.283C99.5998 142.766 99.459 143.46 99.4566 144.367C99.4566 144.973 99.5193 145.486 99.6448 145.905C99.7726 146.321 99.9537 146.638 100.188 146.853C100.422 147.066 100.704 147.173 101.033 147.173ZM104.956 148V147.205L107.417 144.655C107.68 144.378 107.897 144.135 108.067 143.927C108.24 143.716 108.369 143.516 108.454 143.327C108.54 143.137 108.582 142.936 108.582 142.723C108.582 142.482 108.525 142.273 108.412 142.098C108.298 141.92 108.143 141.784 107.946 141.69C107.75 141.593 107.529 141.544 107.282 141.544C107.022 141.544 106.795 141.597 106.601 141.704C106.406 141.81 106.257 141.961 106.153 142.155C106.049 142.349 105.997 142.576 105.997 142.837H104.949C104.949 142.394 105.051 142.007 105.255 141.675C105.458 141.344 105.738 141.087 106.093 140.905C106.448 140.72 106.852 140.628 107.304 140.628C107.761 140.628 108.163 140.719 108.511 140.901C108.861 141.081 109.135 141.327 109.331 141.64C109.528 141.95 109.626 142.3 109.626 142.691C109.626 142.961 109.575 143.225 109.473 143.483C109.374 143.741 109.2 144.029 108.951 144.346C108.703 144.661 108.357 145.043 107.915 145.493L106.469 147.006V147.059H109.743V148H104.956ZM111.803 148.067C111.609 148.067 111.442 147.999 111.302 147.862C111.163 147.722 111.093 147.554 111.093 147.357C111.093 147.163 111.163 146.997 111.302 146.86C111.442 146.72 111.609 146.651 111.803 146.651C111.997 146.651 112.164 146.72 112.304 146.86C112.443 146.997 112.513 147.163 112.513 147.357C112.513 147.487 112.48 147.607 112.414 147.716C112.35 147.822 112.265 147.908 112.158 147.972C112.052 148.036 111.933 148.067 111.803 148.067ZM116.19 148.121C115.628 148.118 115.149 147.97 114.751 147.677C114.354 147.383 114.049 146.956 113.839 146.395C113.628 145.834 113.523 145.158 113.523 144.367C113.523 143.579 113.628 142.905 113.839 142.347C114.052 141.788 114.357 141.362 114.755 141.068C115.155 140.775 115.633 140.628 116.19 140.628C116.746 140.628 117.223 140.776 117.621 141.072C118.018 141.365 118.323 141.791 118.533 142.35C118.746 142.906 118.853 143.579 118.853 144.367C118.853 145.16 118.748 145.837 118.537 146.398C118.326 146.957 118.022 147.384 117.624 147.68C117.226 147.974 116.748 148.121 116.19 148.121ZM116.19 147.173C116.682 147.173 117.067 146.932 117.344 146.452C117.623 145.971 117.763 145.276 117.763 144.367C117.763 143.763 117.699 143.253 117.571 142.837C117.445 142.418 117.264 142.1 117.028 141.885C116.793 141.667 116.514 141.558 116.19 141.558C115.699 141.558 115.315 141.8 115.035 142.283C114.756 142.766 114.615 143.46 114.613 144.367C114.613 144.973 114.676 145.486 114.801 145.905C114.929 146.321 115.11 146.638 115.344 146.853C115.579 147.066 115.86 147.173 116.19 147.173ZM120.113 148V147.205L122.574 144.655C122.836 144.378 123.053 144.135 123.223 143.927C123.396 143.716 123.525 143.516 123.611 143.327C123.696 143.137 123.738 142.936 123.738 142.723C123.738 142.482 123.682 142.273 123.568 142.098C123.454 141.92 123.299 141.784 123.103 141.69C122.906 141.593 122.685 141.544 122.439 141.544C122.178 141.544 121.951 141.597 121.757 141.704C121.563 141.81 121.414 141.961 121.309 142.155C121.205 142.349 121.153 142.576 121.153 142.837H120.106C120.106 142.394 120.207 142.007 120.411 141.675C120.615 141.344 120.894 141.087 121.249 140.905C121.604 140.72 122.008 140.628 122.46 140.628C122.917 140.628 123.319 140.719 123.667 140.901C124.018 141.081 124.291 141.327 124.488 141.64C124.684 141.95 124.782 142.3 124.782 142.691C124.782 142.961 124.732 143.225 124.63 143.483C124.53 143.741 124.356 144.029 124.108 144.346C123.859 144.661 123.513 145.043 123.071 145.493L121.625 147.006V147.059H124.9V148H120.113ZM130.042 146.636V146.253C130.042 145.978 130.098 145.727 130.212 145.5C130.328 145.27 130.496 145.087 130.716 144.95C130.939 144.81 131.208 144.74 131.522 144.74C131.844 144.74 132.114 144.809 132.332 144.946C132.55 145.083 132.714 145.267 132.826 145.496C132.939 145.726 132.996 145.978 132.996 146.253V146.636C132.996 146.911 132.939 147.163 132.826 147.393C132.712 147.62 132.545 147.804 132.325 147.943C132.107 148.08 131.84 148.149 131.522 148.149C131.203 148.149 130.933 148.08 130.713 147.943C130.493 147.804 130.326 147.62 130.212 147.393C130.098 147.163 130.042 146.911 130.042 146.636ZM130.869 146.253V146.636C130.869 146.84 130.918 147.025 131.015 147.19C131.112 147.356 131.281 147.439 131.522 147.439C131.762 147.439 131.928 147.356 132.023 147.19C132.118 147.025 132.165 146.84 132.165 146.636V146.253C132.165 146.049 132.119 145.865 132.027 145.699C131.937 145.533 131.769 145.45 131.522 145.45C131.286 145.45 131.118 145.533 131.018 145.699C130.919 145.865 130.869 146.049 130.869 146.253ZM126.384 142.474V142.091C126.384 141.816 126.441 141.564 126.554 141.335C126.67 141.105 126.839 140.921 127.059 140.784C127.281 140.647 127.55 140.578 127.865 140.578C128.187 140.578 128.457 140.647 128.674 140.784C128.892 140.921 129.057 141.105 129.168 141.335C129.279 141.564 129.335 141.816 129.335 142.091V142.474C129.335 142.749 129.278 143.001 129.165 143.231C129.053 143.458 128.888 143.642 128.667 143.781C128.45 143.919 128.182 143.987 127.865 143.987C127.543 143.987 127.272 143.919 127.052 143.781C126.834 143.642 126.668 143.458 126.554 143.231C126.441 143.001 126.384 142.749 126.384 142.474ZM127.215 142.091V142.474C127.215 142.678 127.262 142.863 127.357 143.028C127.454 143.194 127.623 143.277 127.865 143.277C128.102 143.277 128.267 143.194 128.362 143.028C128.459 142.863 128.508 142.678 128.508 142.474V142.091C128.508 141.887 128.461 141.703 128.369 141.537C128.277 141.371 128.109 141.288 127.865 141.288C127.628 141.288 127.46 141.371 127.361 141.537C127.263 141.703 127.215 141.887 127.215 142.091ZM126.721 148L131.721 140.727H132.57L127.57 148H126.721Z" fill="#555555"/>
<defs>
<filter id="filter0_d_450_2326" x="0.0999985" y="198.1" width="170.927" height="170.927" filterUnits="userSpaceOnUse" color-interpolation-filters="sRGB">
<feFlood flood-opacity="0" result="BackgroundImageFix"/>
<feColorMatrix in="SourceAlpha" type="matrix" values="0 0 0 0 0 0 0 0 0 0 0 0 0 0 0 0 0 0 127 0" result="hardAlpha"/>
<feOffset dy="14"/>
<feGaussianBlur stdDeviation="24.95"/>
<feComposite in2="hardAlpha" operator="out"/>
<feColorMatrix type="matrix" values="0 0 0 0 0.603922 0 0 0 0 0.603922 0 0 0 0 0.603922 0 0 0 0.21 0"/>
<feBlend mode="normal" in2="BackgroundImageFix" result="effect1_dropShadow_450_2326"/>
<feBlend mode="normal" in="SourceGraphic" in2="effect1_dropShadow_450_2326" result="shape"/>
</filter>
<filter id="filter1_d_450_2326" x="71.1" y="276.1" width="219.293" height="219.293" filterUnits="userSpaceOnUse" color-interpolation-filters="sRGB">
<feFlood flood-opacity="0" result="BackgroundImageFix"/>
<feColorMatrix in="SourceAlpha" type="matrix" values="0 0 0 0 0 0 0 0 0 0 0 0 0 0 0 0 0 0 127 0" result="hardAlpha"/>
<feOffset dy="14"/>
<feGaussianBlur stdDeviation="24.95"/>
<feComposite in2="hardAlpha" operator="out"/>
<feColorMatrix type="matrix" values="0 0 0 0 0.603922 0 0 0 0 0.603922 0 0 0 0 0.603922 0 0 0 0.21 0"/>
<feBlend mode="normal" in2="BackgroundImageFix" result="effect1_dropShadow_450_2326"/>
<feBlend mode="normal" in="SourceGraphic" in2="effect1_dropShadow_450_2326" result="shape"/>
</filter>
<filter id="filter2_d_450_2326" x="252.1" y="224.1" width="222.138" height="222.138" filterUnits="userSpaceOnUse" color-interpolation-filters="sRGB">
<feFlood flood-opacity="0" result="BackgroundImageFix"/>
<feColorMatrix in="SourceAlpha" type="matrix" values="0 0 0 0 0 0 0 0 0 0 0 0 0 0 0 0 0 0 127 0" result="hardAlpha"/>
<feOffset dy="14"/>
<feGaussianBlur stdDeviation="24.95"/>
<feComposite in2="hardAlpha" operator="out"/>
<feColorMatrix type="matrix" values="0 0 0 0 0.603922 0 0 0 0 0.603922 0 0 0 0 0.603922 0 0 0 0.21 0"/>
<feBlend mode="normal" in2="BackgroundImageFix" result="effect1_dropShadow_450_2326"/>
<feBlend mode="normal" in="SourceGraphic" in2="effect1_dropShadow_450_2326" result="shape"/>
</filter>
<filter id="filter3_d_450_2326" x="52.7754" y="0.168945" width="367.07" height="367.07" filterUnits="userSpaceOnUse" color-interpolation-filters="sRGB">
<feFlood flood-opacity="0" result="BackgroundImageFix"/>
<feColorMatrix in="SourceAlpha" type="matrix" values="0 0 0 0 0 0 0 0 0 0 0 0 0 0 0 0 0 0 127 0" result="hardAlpha"/>
<feOffset dy="-12"/>
<feGaussianBlur stdDeviation="37"/>
<feComposite in2="hardAlpha" operator="out"/>
<feColorMatrix type="matrix" values="0 0 0 0 0.603922 0 0 0 0 0.603922 0 0 0 0 0.603922 0 0 0 0.08 0"/>
<feBlend mode="normal" in2="BackgroundImageFix" result="effect1_dropShadow_450_2326"/>
<feBlend mode="normal" in="SourceGraphic" in2="effect1_dropShadow_450_2326" result="shape"/>
</filter>
<filter id="filter4_d_450_2326" x="10.1" y="25.1" width="207.913" height="207.913" filterUnits="userSpaceOnUse" color-interpolation-filters="sRGB">
<feFlood flood-opacity="0" result="BackgroundImageFix"/>
<feColorMatrix in="SourceAlpha" type="matrix" values="0 0 0 0 0 0 0 0 0 0 0 0 0 0 0 0 0 0 127 0" result="hardAlpha"/>
<feOffset dy="14"/>
<feGaussianBlur stdDeviation="24.95"/>
<feComposite in2="hardAlpha" operator="out"/>
<feColorMatrix type="matrix" values="0 0 0 0 0.603922 0 0 0 0 0.603922 0 0 0 0 0.603922 0 0 0 0.21 0"/>
<feBlend mode="normal" in2="BackgroundImageFix" result="effect1_dropShadow_450_2326"/>
<feBlend mode="normal" in="SourceGraphic" in2="effect1_dropShadow_450_2326" result="shape"/>
</filter>
</defs>
</svg>
