<svg width="479" height="496" viewBox="0 0 479 496" fill="none" xmlns="http://www.w3.org/2000/svg">
<g filter="url(#filter0_d_450_4559)">
<circle cx="85.5634" cy="269.563" r="35.5634" fill="#FDFDFD"/>
<circle cx="85.5634" cy="269.563" r="34.0634" stroke="#9A9A9A" stroke-opacity="0.08" stroke-width="3"/>
</g>
<path d="M67.9576 253.742V251.905H77.6072V253.742H73.869V264H71.6958V253.742H67.9576ZM79.4675 251.905H82.1486L85.7392 260.669H85.8809L89.4715 251.905H92.1526V264H90.0502V255.691H89.938L86.5955 263.965H85.0246L81.6821 255.673H81.5699V264H79.4675V251.905ZM104.891 255.986H102.682C102.619 255.624 102.503 255.303 102.334 255.024C102.164 254.74 101.954 254.5 101.702 254.303C101.45 254.106 101.162 253.959 100.84 253.86C100.521 253.758 100.176 253.707 99.8062 253.707C99.1487 253.707 98.566 253.872 98.0581 254.203C97.5502 254.529 97.1526 255.01 96.8652 255.644C96.5778 256.274 96.4341 257.043 96.4341 257.953C96.4341 258.878 96.5778 259.657 96.8652 260.291C97.1565 260.921 97.5542 261.398 98.0581 261.72C98.566 262.039 99.1467 262.199 99.8003 262.199C100.162 262.199 100.501 262.152 100.816 262.057C101.135 261.959 101.42 261.815 101.672 261.626C101.928 261.437 102.143 261.205 102.316 260.929C102.493 260.654 102.615 260.339 102.682 259.984L104.891 259.996C104.808 260.571 104.629 261.11 104.353 261.614C104.082 262.118 103.725 262.563 103.285 262.949C102.844 263.331 102.328 263.63 101.737 263.846C101.147 264.059 100.491 264.165 99.7707 264.165C98.7077 264.165 97.7589 263.919 96.9243 263.427C96.0896 262.935 95.4321 262.224 94.9518 261.295C94.4715 260.366 94.2313 259.252 94.2313 257.953C94.2313 256.65 94.4735 255.535 94.9577 254.61C95.442 253.681 96.1014 252.97 96.9361 252.478C97.7707 251.986 98.7156 251.74 99.7707 251.74C100.444 251.74 101.07 251.835 101.649 252.024C102.227 252.213 102.743 252.49 103.196 252.856C103.649 253.218 104.021 253.663 104.312 254.191C104.607 254.715 104.8 255.313 104.891 255.986Z" fill="black"/>
<path d="M60.7537 272.973V272.073H65.4823V272.973H63.6505V278H62.5855V272.973H60.7537ZM71.3524 272.073H72.426V275.945C72.426 276.37 72.3257 276.743 72.125 277.065C71.9263 277.387 71.6466 277.639 71.2858 277.821C70.925 278 70.5035 278.09 70.0212 278.09C69.5369 278.09 69.1144 278 68.7536 277.821C68.3928 277.639 68.1131 277.387 67.9144 277.065C67.7157 276.743 67.6163 276.37 67.6163 275.945V272.073H68.69V275.856C68.69 276.103 68.744 276.322 68.852 276.515C68.962 276.708 69.1163 276.86 69.315 276.97C69.5138 277.078 69.7491 277.132 70.0212 277.132C70.2932 277.132 70.5286 277.078 70.7273 276.97C70.9279 276.86 71.0823 276.708 71.1903 276.515C71.2983 276.322 71.3524 276.103 71.3524 275.856V272.073ZM74.8153 278V272.073H77.0379C77.4932 272.073 77.8752 272.152 78.1839 272.311C78.4945 272.469 78.7289 272.691 78.8871 272.976C79.0472 273.26 79.1273 273.591 79.1273 273.969C79.1273 274.349 79.0462 274.679 78.8842 274.958C78.7241 275.236 78.4877 275.451 78.1752 275.604C77.8626 275.754 77.4787 275.83 77.0234 275.83H75.4404V274.938H76.8787C77.1449 274.938 77.363 274.902 77.5327 274.828C77.7025 274.753 77.8279 274.644 77.9089 274.501C77.9919 274.357 78.0334 274.179 78.0334 273.969C78.0334 273.758 77.9919 273.579 77.9089 273.431C77.826 273.28 77.6996 273.166 77.5298 273.089C77.3601 273.01 77.1411 272.97 76.8729 272.97H75.889V278H74.8153ZM77.8771 275.314L79.3443 278H78.1462L76.7051 275.314H77.8771ZM81.3379 272.073H82.6518L84.4113 276.368H84.4807L86.2402 272.073H87.5541V278H86.5238V273.928H86.4688L84.8309 277.983H84.0611L82.4232 273.92H82.3682V278H81.3379V272.073ZM89.9456 278V272.073H93.8003V272.973H91.0192V274.582H93.6006V275.482H91.0192V277.1H93.8234V278H89.9456ZM96.118 278V272.073H98.3405C98.7958 272.073 99.1778 272.152 99.4865 272.311C99.7971 272.469 100.032 272.691 100.19 272.976C100.35 273.26 100.43 273.591 100.43 273.969C100.43 274.349 100.349 274.679 100.187 274.958C100.027 275.236 99.7904 275.451 99.4778 275.604C99.1653 275.754 98.7814 275.83 98.3261 275.83H96.7431V274.938H98.1814C98.4476 274.938 98.6656 274.902 98.8354 274.828C99.0052 274.753 99.1306 274.644 99.2116 274.501C99.2946 274.357 99.336 274.179 99.336 273.969C99.336 273.758 99.2946 273.579 99.2116 273.431C99.1286 273.28 99.0023 273.166 98.8325 273.089C98.6627 273.01 98.4437 272.97 98.1756 272.97H97.1917V278H96.118ZM99.1798 275.314L100.647 278H99.4489L98.0077 275.314H99.1798ZM103.714 272.073V278H102.641V272.073H103.714ZM111.172 274.073H110.09C110.059 273.895 110.002 273.738 109.919 273.601C109.836 273.462 109.733 273.345 109.61 273.248C109.486 273.152 109.345 273.079 109.187 273.031C109.031 272.981 108.862 272.956 108.681 272.956C108.358 272.956 108.073 273.037 107.824 273.199C107.575 273.359 107.38 273.595 107.239 273.905C107.099 274.214 107.028 274.591 107.028 275.037C107.028 275.49 107.099 275.872 107.239 276.183C107.382 276.491 107.577 276.725 107.824 276.883C108.073 277.039 108.357 277.117 108.678 277.117C108.855 277.117 109.021 277.094 109.175 277.048C109.332 277 109.472 276.929 109.595 276.837C109.721 276.744 109.826 276.63 109.911 276.495C109.997 276.36 110.057 276.206 110.09 276.032L111.172 276.038C111.132 276.32 111.044 276.584 110.909 276.831C110.776 277.078 110.601 277.296 110.385 277.485C110.169 277.672 109.916 277.819 109.627 277.925C109.338 278.029 109.016 278.081 108.663 278.081C108.142 278.081 107.677 277.96 107.268 277.719C106.859 277.478 106.537 277.13 106.302 276.675C106.066 276.219 105.949 275.673 105.949 275.037C105.949 274.398 106.067 273.852 106.305 273.399C106.542 272.943 106.865 272.595 107.274 272.354C107.683 272.113 108.146 271.992 108.663 271.992C108.993 271.992 109.3 272.039 109.584 272.131C109.867 272.224 110.12 272.36 110.342 272.539C110.564 272.717 110.746 272.935 110.889 273.193C111.033 273.45 111.128 273.743 111.172 274.073Z" fill="#5E5E5E"/>
<path d="M76.4542 283.599V284.137H74.5773V283.599H76.4542ZM78.7435 286.055C78.4169 286.054 78.1378 285.968 77.9063 285.797C77.6748 285.626 77.4977 285.377 77.3751 285.051C77.2525 284.724 77.1911 284.331 77.1911 283.87C77.1911 283.411 77.2525 283.019 77.3751 282.694C77.4991 282.369 77.6769 282.121 77.9084 281.95C78.1413 281.779 78.4197 281.694 78.7435 281.694C79.0673 281.694 79.345 281.78 79.5765 281.952C79.808 282.123 79.9851 282.371 80.1078 282.696C80.2318 283.02 80.2938 283.411 80.2938 283.87C80.2938 284.332 80.2325 284.726 80.1098 285.053C79.9872 285.378 79.8101 285.627 79.5786 285.799C79.3471 285.97 79.0687 286.055 78.7435 286.055ZM78.7435 285.503C79.0301 285.503 79.2541 285.363 79.4153 285.084C79.5779 284.804 79.6592 284.399 79.6592 283.87C79.6592 283.519 79.622 283.222 79.5476 282.979C79.4746 282.735 79.3691 282.551 79.2313 282.425C79.0949 282.299 78.9323 282.235 78.7435 282.235C78.4582 282.235 78.2343 282.376 78.0717 282.657C77.9091 282.938 77.8271 283.342 77.8257 283.87C77.8257 284.223 77.8622 284.521 77.9353 284.765C78.0097 285.008 78.1151 285.192 78.2515 285.317C78.388 285.441 78.552 285.503 78.7435 285.503ZM81.0271 285.985V285.522L82.4596 284.038C82.6126 283.876 82.7387 283.735 82.8379 283.614C82.9385 283.491 83.0136 283.375 83.0632 283.265C83.1128 283.154 83.1376 283.037 83.1376 282.913C83.1376 282.773 83.1045 282.651 83.0384 282.549C82.9722 282.446 82.882 282.367 82.7676 282.312C82.6532 282.255 82.5244 282.227 82.381 282.227C82.2295 282.227 82.0972 282.258 81.9842 282.32C81.8712 282.382 81.7843 282.469 81.7237 282.582C81.6631 282.695 81.6328 282.828 81.6328 282.979H81.023C81.023 282.722 81.0822 282.496 81.2007 282.303C81.3193 282.11 81.4819 281.961 81.6886 281.855C81.8953 281.747 82.1302 281.694 82.3934 281.694C82.6594 281.694 82.8937 281.747 83.0963 281.853C83.3002 281.958 83.4594 282.101 83.5738 282.283C83.6881 282.463 83.7453 282.667 83.7453 282.895C83.7453 283.052 83.7157 283.205 83.6564 283.356C83.5986 283.506 83.4973 283.673 83.3526 283.858C83.2079 284.041 83.0067 284.264 82.749 284.526L81.9077 285.406V285.437H83.8135V285.985H81.0271ZM85.0124 286.024C84.8994 286.024 84.8023 285.984 84.721 285.904C84.6397 285.823 84.599 285.725 84.599 285.611C84.599 285.498 84.6397 285.401 84.721 285.321C84.8023 285.24 84.8994 285.199 85.0124 285.199C85.1254 285.199 85.2226 285.24 85.3039 285.321C85.3852 285.401 85.4259 285.498 85.4259 285.611C85.4259 285.687 85.4066 285.756 85.368 285.819C85.3308 285.882 85.2812 285.931 85.2191 285.968C85.1571 286.006 85.0882 286.024 85.0124 286.024ZM87.5658 286.055C87.2392 286.054 86.9601 285.968 86.7286 285.797C86.4971 285.626 86.32 285.377 86.1974 285.051C86.0747 284.724 86.0134 284.331 86.0134 283.87C86.0134 283.411 86.0747 283.019 86.1974 282.694C86.3214 282.369 86.4992 282.121 86.7307 281.95C86.9636 281.779 87.242 281.694 87.5658 281.694C87.8896 281.694 88.1673 281.78 88.3988 281.952C88.6303 282.123 88.8074 282.371 88.9301 282.696C89.0541 283.02 89.1161 283.411 89.1161 283.87C89.1161 284.332 89.0548 284.726 88.9321 285.053C88.8095 285.378 88.6324 285.627 88.4009 285.799C88.1694 285.97 87.891 286.055 87.5658 286.055ZM87.5658 285.503C87.8524 285.503 88.0764 285.363 88.2376 285.084C88.4002 284.804 88.4815 284.399 88.4815 283.87C88.4815 283.519 88.4443 283.222 88.3699 282.979C88.2969 282.735 88.1914 282.551 88.0536 282.425C87.9172 282.299 87.7546 282.235 87.5658 282.235C87.2805 282.235 87.0566 282.376 86.894 282.657C86.7314 282.938 86.6494 283.342 86.648 283.87C86.648 284.223 86.6845 284.521 86.7576 284.765C86.832 285.008 86.9374 285.192 87.0738 285.317C87.2103 285.441 87.3742 285.503 87.5658 285.503ZM89.8494 285.985V285.522L91.2819 284.038C91.4349 283.876 91.5609 283.735 91.6602 283.614C91.7608 283.491 91.8359 283.375 91.8855 283.265C91.9351 283.154 91.9599 283.037 91.9599 282.913C91.9599 282.773 91.9268 282.651 91.8607 282.549C91.7945 282.446 91.7043 282.367 91.5899 282.312C91.4755 282.255 91.3467 282.227 91.2033 282.227C91.0518 282.227 90.9195 282.258 90.8065 282.32C90.6935 282.382 90.6066 282.469 90.546 282.582C90.4854 282.695 90.4551 282.828 90.4551 282.979H89.8453C89.8453 282.722 89.9045 282.496 90.023 282.303C90.1416 282.11 90.3042 281.961 90.5109 281.855C90.7176 281.747 90.9525 281.694 91.2157 281.694C91.4817 281.694 91.716 281.747 91.9186 281.853C92.1225 281.958 92.2817 282.101 92.396 282.283C92.5104 282.463 92.5676 282.667 92.5676 282.895C92.5676 283.052 92.538 283.205 92.4787 283.356C92.4209 283.506 92.3196 283.673 92.1749 283.858C92.0302 284.041 91.829 284.264 91.5713 284.526L90.73 285.406V285.437H92.6358V285.985H89.8494ZM95.629 285.191V284.968C95.629 284.808 95.662 284.662 95.7282 284.53C95.7957 284.396 95.8935 284.289 96.0217 284.209C96.1512 284.128 96.3076 284.087 96.4909 284.087C96.6783 284.087 96.8354 284.127 96.9622 284.207C97.089 284.287 97.1848 284.394 97.2495 284.528C97.3157 284.661 97.3488 284.808 97.3488 284.968V285.191C97.3488 285.351 97.3157 285.498 97.2495 285.631C97.1834 285.764 97.0862 285.87 96.9581 285.952C96.8313 286.032 96.6756 286.072 96.4909 286.072C96.3049 286.072 96.1478 286.032 96.0196 285.952C95.8915 285.87 95.7943 285.764 95.7282 285.631C95.662 285.498 95.629 285.351 95.629 285.191ZM96.1106 284.968V285.191C96.1106 285.31 96.1388 285.417 96.1953 285.514C96.2518 285.61 96.3504 285.658 96.4909 285.658C96.6301 285.658 96.7273 285.61 96.7824 285.514C96.8375 285.417 96.8651 285.31 96.8651 285.191V284.968C96.8651 284.849 96.8382 284.742 96.7845 284.645C96.7321 284.549 96.6342 284.501 96.4909 284.501C96.3531 284.501 96.2553 284.549 96.1974 284.645C96.1395 284.742 96.1106 284.849 96.1106 284.968ZM93.4999 282.768V282.545C93.4999 282.385 93.5329 282.239 93.5991 282.105C93.6666 281.971 93.7645 281.864 93.8926 281.785C94.0221 281.705 94.1786 281.665 94.3618 281.665C94.5493 281.665 94.7064 281.705 94.8331 281.785C94.9599 281.864 95.0557 281.971 95.1205 282.105C95.1852 282.239 95.2176 282.385 95.2176 282.545V282.768C95.2176 282.928 95.1845 283.075 95.1184 283.209C95.0536 283.341 94.9572 283.448 94.829 283.529C94.7022 283.609 94.5465 283.649 94.3618 283.649C94.1744 283.649 94.0166 283.609 93.8885 283.529C93.7617 283.448 93.6652 283.341 93.5991 283.209C93.5329 283.075 93.4999 282.928 93.4999 282.768ZM93.9836 282.545V282.768C93.9836 282.887 94.0111 282.994 94.0662 283.091C94.1227 283.187 94.2213 283.236 94.3618 283.236C94.4996 283.236 94.5961 283.187 94.6512 283.091C94.7077 282.994 94.736 282.887 94.736 282.768V282.545C94.736 282.427 94.7091 282.319 94.6554 282.223C94.6016 282.126 94.5038 282.078 94.3618 282.078C94.224 282.078 94.1262 282.126 94.0683 282.223C94.0118 282.319 93.9836 282.427 93.9836 282.545ZM93.6962 285.985L96.6067 281.751H97.1007L94.1903 285.985H93.6962Z" fill="#555555"/>
<g filter="url(#filter1_d_450_4559)">
<circle cx="180.746" cy="371.746" r="59.7465" fill="#FDFDFD"/>
<circle cx="180.746" cy="371.746" r="58.2465" stroke="#9A9A9A" stroke-opacity="0.08" stroke-width="3"/>
</g>
<g clip-path="url(#clip0_450_4559)">
<path d="M140.376 367.298H135.447V352.752H140.475C141.92 352.752 143.16 353.044 144.197 353.626C145.239 354.204 146.039 355.035 146.598 356.119C147.156 357.203 147.436 358.501 147.436 360.011C147.436 361.526 147.154 362.828 146.591 363.917C146.032 365.006 145.225 365.842 144.169 366.424C143.118 367.007 141.853 367.298 140.376 367.298ZM138.082 365.018H140.248C141.261 365.018 142.107 364.833 142.784 364.464C143.461 364.09 143.97 363.534 144.311 362.795C144.652 362.052 144.822 361.124 144.822 360.011C144.822 358.898 144.652 357.975 144.311 357.241C143.97 356.502 143.466 355.951 142.798 355.586C142.135 355.217 141.311 355.032 140.326 355.032H138.082V365.018ZM149.939 367.298V352.752H152.574V358.91H159.314V352.752H161.956V367.298H159.314V361.119H152.574V367.298H149.939ZM166.69 367.298H163.877L168.998 352.752H172.251L177.379 367.298H174.566L170.681 355.735H170.568L166.69 367.298ZM166.782 361.595H174.453V363.711H166.782V361.595ZM191.248 352.752V367.298H188.904L182.05 357.39H181.93V367.298H179.295V352.752H181.653L188.499 362.667H188.627V352.752H191.248ZM196.754 352.752V367.298H194.119V352.752H196.754ZM198.613 352.752H201.589L205.147 359.187H205.289L208.847 352.752H211.823L206.532 361.872V367.298H203.904V361.872L198.613 352.752ZM214.073 367.298H211.26L216.381 352.752H219.634L224.762 367.298H221.949L218.064 355.735H217.951L214.073 367.298ZM214.165 361.595H221.836V363.711H214.165V361.595Z" fill="black"/>
<path d="M148.869 384.486H147.01C146.957 384.182 146.859 383.911 146.716 383.676C146.574 383.437 146.396 383.235 146.184 383.07C145.972 382.904 145.73 382.78 145.458 382.697C145.19 382.611 144.9 382.567 144.588 382.567C144.035 382.567 143.544 382.707 143.117 382.985C142.689 383.26 142.355 383.664 142.113 384.198C141.871 384.728 141.75 385.376 141.75 386.142C141.75 386.921 141.871 387.577 142.113 388.111C142.358 388.641 142.693 389.042 143.117 389.314C143.544 389.582 144.033 389.717 144.583 389.717C144.888 389.717 145.173 389.677 145.439 389.597C145.707 389.514 145.947 389.393 146.159 389.234C146.375 389.075 146.556 388.88 146.701 388.648C146.85 388.416 146.953 388.151 147.01 387.852L148.869 387.862C148.799 388.346 148.649 388.8 148.417 389.224C148.188 389.649 147.888 390.023 147.517 390.348C147.145 390.669 146.711 390.921 146.214 391.104C145.717 391.283 145.165 391.372 144.559 391.372C143.664 391.372 142.865 391.165 142.162 390.751C141.46 390.336 140.906 389.738 140.502 388.956C140.097 388.174 139.895 387.236 139.895 386.142C139.895 385.045 140.099 384.107 140.507 383.328C140.914 382.546 141.47 381.948 142.172 381.533C142.875 381.119 143.67 380.912 144.559 380.912C145.125 380.912 145.652 380.991 146.14 381.151C146.627 381.31 147.061 381.543 147.442 381.852C147.823 382.156 148.136 382.531 148.382 382.975C148.63 383.416 148.793 383.92 148.869 384.486ZM161.056 386.142C161.056 387.239 160.851 388.179 160.44 388.961C160.032 389.74 159.475 390.336 158.769 390.751C158.066 391.165 157.269 391.372 156.378 391.372C155.486 391.372 154.687 391.165 153.981 390.751C153.279 390.333 152.722 389.735 152.311 388.956C151.903 388.174 151.7 387.236 151.7 386.142C151.7 385.045 151.903 384.107 152.311 383.328C152.722 382.546 153.279 381.948 153.981 381.533C154.687 381.119 155.486 380.912 156.378 380.912C157.269 380.912 158.066 381.119 158.769 381.533C159.475 381.948 160.032 382.546 160.44 383.328C160.851 384.107 161.056 385.045 161.056 386.142ZM159.202 386.142C159.202 385.37 159.081 384.718 158.839 384.188C158.6 383.655 158.269 383.252 157.844 382.98C157.42 382.705 156.931 382.567 156.378 382.567C155.824 382.567 155.335 382.705 154.911 382.98C154.487 383.252 154.154 383.655 153.912 384.188C153.673 384.718 153.554 385.37 153.554 386.142C153.554 386.914 153.673 387.567 153.912 388.101C154.154 388.631 154.487 389.034 154.911 389.309C155.335 389.581 155.824 389.717 156.378 389.717C156.931 389.717 157.42 389.581 157.844 389.309C158.269 389.034 158.6 388.631 158.839 388.101C159.081 387.567 159.202 386.914 159.202 386.142ZM164.2 391.233V381.051H168.018C168.8 381.051 169.456 381.187 169.987 381.459C170.52 381.731 170.923 382.112 171.195 382.602C171.47 383.089 171.608 383.658 171.608 384.307C171.608 384.96 171.468 385.527 171.19 386.008C170.915 386.485 170.509 386.855 169.972 387.116C169.435 387.375 168.775 387.504 167.993 387.504H165.274V385.973H167.745C168.202 385.973 168.577 385.91 168.868 385.784C169.16 385.655 169.375 385.468 169.514 385.222C169.657 384.974 169.728 384.669 169.728 384.307C169.728 383.946 169.657 383.638 169.514 383.383C169.372 383.124 169.155 382.929 168.863 382.796C168.572 382.66 168.195 382.592 167.735 382.592H166.044V391.233H164.2ZM169.46 386.619L171.98 391.233H169.922L167.446 386.619H169.46ZM176.55 381.051V391.233H174.705V381.051H176.55ZM188.314 381.051V391.233H186.674L181.876 384.298H181.792V391.233H179.947V381.051H181.598L186.39 387.991H186.48V381.051H188.314ZM195.174 391.233H191.724V381.051H195.244C196.255 381.051 197.123 381.255 197.849 381.663C198.578 382.067 199.138 382.649 199.529 383.408C199.921 384.167 200.116 385.075 200.116 386.132C200.116 387.193 199.919 388.104 199.524 388.866C199.133 389.629 198.568 390.214 197.829 390.621C197.093 391.029 196.208 391.233 195.174 391.233ZM193.569 389.637H195.085C195.794 389.637 196.386 389.508 196.86 389.249C197.334 388.987 197.69 388.598 197.929 388.081C198.167 387.561 198.287 386.911 198.287 386.132C198.287 385.353 198.167 384.707 197.929 384.193C197.69 383.676 197.337 383.29 196.87 383.035C196.406 382.776 195.829 382.647 195.14 382.647H193.569V389.637ZM203.269 391.233V381.051H209.891V382.597H205.113V385.361H209.548V386.908H205.113V389.687H209.931V391.233H203.269ZM213.173 391.233V381.051H216.991C217.773 381.051 218.429 381.187 218.959 381.459C219.493 381.731 219.896 382.112 220.168 382.602C220.443 383.089 220.58 383.658 220.58 384.307C220.58 384.96 220.441 385.527 220.163 386.008C219.887 386.485 219.481 386.855 218.945 387.116C218.408 387.375 217.748 387.504 216.966 387.504H214.246V385.973H216.717C217.175 385.973 217.549 385.91 217.841 385.784C218.132 385.655 218.348 385.468 218.487 385.222C218.63 384.974 218.701 384.669 218.701 384.307C218.701 383.946 218.63 383.638 218.487 383.383C218.345 383.124 218.128 382.929 217.836 382.796C217.544 382.66 217.168 382.592 216.707 382.592H215.017V391.233H213.173ZM218.432 386.619L220.953 391.233H218.895L216.419 386.619H218.432Z" fill="#5E5E5E"/>
<path d="M162.644 403.101V404.025H159.42V403.101H162.644ZM166.577 407.32C166.016 407.318 165.537 407.17 165.139 406.876C164.741 406.583 164.437 406.155 164.226 405.594C164.015 405.033 163.91 404.357 163.91 403.566C163.91 402.778 164.015 402.105 164.226 401.546C164.439 400.987 164.745 400.561 165.142 400.267C165.542 399.974 166.021 399.827 166.577 399.827C167.133 399.827 167.61 399.975 168.008 400.271C168.406 400.565 168.71 400.991 168.921 401.549C169.134 402.106 169.24 402.778 169.24 403.566C169.24 404.359 169.135 405.037 168.924 405.598C168.714 406.156 168.409 406.584 168.012 406.88C167.614 407.173 167.136 407.32 166.577 407.32ZM166.577 406.372C167.069 406.372 167.454 406.132 167.731 405.651C168.01 405.17 168.15 404.475 168.15 403.566C168.15 402.963 168.086 402.453 167.958 402.036C167.833 401.617 167.652 401.3 167.415 401.084C167.181 400.866 166.901 400.757 166.577 400.757C166.087 400.757 165.702 400.999 165.423 401.482C165.144 401.965 165.003 402.66 165 403.566C165 404.172 165.063 404.685 165.188 405.104C165.316 405.521 165.497 405.837 165.732 406.052C165.966 406.265 166.248 406.372 166.577 406.372ZM170.5 407.199V406.404L172.961 403.854C173.224 403.577 173.44 403.334 173.611 403.126C173.784 402.915 173.913 402.715 173.998 402.526C174.083 402.337 174.126 402.135 174.126 401.922C174.126 401.681 174.069 401.472 173.955 401.297C173.842 401.12 173.687 400.984 173.49 400.889C173.294 400.792 173.072 400.743 172.826 400.743C172.566 400.743 172.338 400.797 172.144 400.903C171.95 401.01 171.801 401.16 171.697 401.354C171.593 401.548 171.541 401.775 171.541 402.036H170.493C170.493 401.593 170.595 401.206 170.798 400.875C171.002 400.543 171.281 400.286 171.636 400.104C171.992 399.919 172.395 399.827 172.847 399.827C173.304 399.827 173.707 399.918 174.055 400.1C174.405 400.28 174.679 400.527 174.875 400.839C175.072 401.149 175.17 401.5 175.17 401.89C175.17 402.16 175.119 402.424 175.017 402.682C174.918 402.94 174.744 403.228 174.495 403.545C174.247 403.86 173.901 404.242 173.458 404.692L172.013 406.205V406.258H175.287V407.199H170.5ZM177.347 407.267C177.153 407.267 176.986 407.198 176.846 407.061C176.706 406.921 176.636 406.753 176.636 406.556C176.636 406.362 176.706 406.197 176.846 406.059C176.986 405.92 177.153 405.85 177.347 405.85C177.541 405.85 177.708 405.92 177.847 406.059C177.987 406.197 178.057 406.362 178.057 406.556C178.057 406.687 178.024 406.806 177.957 406.915C177.894 407.022 177.808 407.107 177.702 407.171C177.595 407.235 177.477 407.267 177.347 407.267ZM181.733 407.32C181.172 407.318 180.693 407.17 180.295 406.876C179.897 406.583 179.593 406.155 179.382 405.594C179.172 405.033 179.066 404.357 179.066 403.566C179.066 402.778 179.172 402.105 179.382 401.546C179.595 400.987 179.901 400.561 180.299 400.267C180.699 399.974 181.177 399.827 181.733 399.827C182.29 399.827 182.767 399.975 183.164 400.271C183.562 400.565 183.866 400.991 184.077 401.549C184.29 402.106 184.397 402.778 184.397 403.566C184.397 404.359 184.291 405.037 184.081 405.598C183.87 406.156 183.566 406.584 183.168 406.88C182.77 407.173 182.292 407.32 181.733 407.32ZM181.733 406.372C182.226 406.372 182.61 406.132 182.887 405.651C183.167 405.17 183.306 404.475 183.306 403.566C183.306 402.963 183.242 402.453 183.115 402.036C182.989 401.617 182.808 401.3 182.571 401.084C182.337 400.866 182.058 400.757 181.733 400.757C181.243 400.757 180.858 400.999 180.579 401.482C180.3 401.965 180.159 402.66 180.157 403.566C180.157 404.172 180.219 404.685 180.345 405.104C180.473 405.521 180.654 405.837 180.888 406.052C181.122 406.265 181.404 406.372 181.733 406.372ZM185.656 407.199V406.404L188.117 403.854C188.38 403.577 188.597 403.334 188.767 403.126C188.94 402.915 189.069 402.715 189.154 402.526C189.239 402.337 189.282 402.135 189.282 401.922C189.282 401.681 189.225 401.472 189.112 401.297C188.998 401.12 188.843 400.984 188.646 400.889C188.45 400.792 188.229 400.743 187.982 400.743C187.722 400.743 187.495 400.797 187.301 400.903C187.106 401.01 186.957 401.16 186.853 401.354C186.749 401.548 186.697 401.775 186.697 402.036H185.649C185.649 401.593 185.751 401.206 185.955 400.875C186.158 400.543 186.438 400.286 186.793 400.104C187.148 399.919 187.551 399.827 188.004 399.827C188.461 399.827 188.863 399.918 189.211 400.1C189.561 400.28 189.835 400.527 190.031 400.839C190.228 401.149 190.326 401.5 190.326 401.89C190.326 402.16 190.275 402.424 190.173 402.682C190.074 402.94 189.9 403.228 189.651 403.545C189.403 403.86 189.057 404.242 188.614 404.692L187.169 406.205V406.258H190.443V407.199H185.656ZM195.585 405.836V405.452C195.585 405.177 195.642 404.926 195.756 404.699C195.872 404.47 196.04 404.286 196.26 404.149C196.483 404.009 196.751 403.939 197.066 403.939C197.388 403.939 197.658 404.008 197.876 404.145C198.094 404.283 198.258 404.466 198.369 404.696C198.483 404.925 198.54 405.177 198.54 405.452V405.836C198.54 406.11 198.483 406.362 198.369 406.592C198.256 406.819 198.089 407.003 197.869 407.142C197.651 407.28 197.383 407.348 197.066 407.348C196.747 407.348 196.477 407.28 196.257 407.142C196.036 407.003 195.869 406.819 195.756 406.592C195.642 406.362 195.585 406.11 195.585 405.836ZM196.413 405.452V405.836C196.413 406.039 196.461 406.224 196.558 406.39C196.655 406.555 196.825 406.638 197.066 406.638C197.305 406.638 197.472 406.555 197.567 406.39C197.662 406.224 197.709 406.039 197.709 405.836V405.452C197.709 405.248 197.663 405.064 197.57 404.898C197.48 404.732 197.312 404.65 197.066 404.65C196.829 404.65 196.661 404.732 196.562 404.898C196.462 405.064 196.413 405.248 196.413 405.452ZM191.928 401.674V401.29C191.928 401.016 191.984 400.763 192.098 400.534C192.214 400.304 192.382 400.121 192.602 399.983C192.825 399.846 193.094 399.777 193.408 399.777C193.73 399.777 194 399.846 194.218 399.983C194.436 400.121 194.6 400.304 194.712 400.534C194.823 400.763 194.879 401.016 194.879 401.29V401.674C194.879 401.948 194.822 402.2 194.708 402.43C194.597 402.657 194.431 402.841 194.211 402.98C193.993 403.118 193.726 403.186 193.408 403.186C193.087 403.186 192.815 403.118 192.595 402.98C192.377 402.841 192.212 402.657 192.098 402.43C191.984 402.2 191.928 401.948 191.928 401.674ZM192.759 401.29V401.674C192.759 401.877 192.806 402.062 192.901 402.228C192.998 402.393 193.167 402.476 193.408 402.476C193.645 402.476 193.811 402.393 193.906 402.228C194.003 402.062 194.051 401.877 194.051 401.674V401.29C194.051 401.087 194.005 400.902 193.913 400.736C193.82 400.57 193.652 400.488 193.408 400.488C193.172 400.488 193.004 400.57 192.904 400.736C192.807 400.902 192.759 401.087 192.759 401.29ZM192.265 407.199L197.265 399.926H198.114L193.114 407.199H192.265Z" fill="#555555"/>
</g>
<circle cx="361.746" cy="131.746" r="59.7465" fill="#FDFDFD"/>
<circle cx="361.746" cy="131.746" r="58.2465" stroke="#D1D3D4" stroke-opacity="0.2" stroke-width="3"/>
<path d="M323.346 104.909H326.248L330.134 114.395H330.288L334.174 104.909H337.076V118H334.8V109.006H334.679L331.061 117.962H329.361L325.743 108.987H325.621V118H323.346V104.909ZM339.658 118V104.909H348.173V106.897H342.03V110.451H347.732V112.439H342.03V116.012H348.224V118H339.658ZM361.35 104.909V118H359.24L353.072 109.083H352.963V118H350.592V104.909H352.714L358.876 113.832H358.991V104.909H361.35ZM363.358 106.897V104.909H373.803V106.897H369.757V118H367.405V106.897H363.358ZM375.817 118V104.909H378.188V110.451H384.254V104.909H386.632V118H384.254V112.439H378.188V118H375.817ZM390.892 118H388.361L392.97 104.909H395.897L400.512 118H397.981L394.485 107.594H394.382L390.892 118ZM390.975 112.867H397.879V114.772H390.975V112.867Z" fill="black"/>
<path d="M317.284 136.273H319.219L321.81 142.597H321.912L324.503 136.273H326.438V145H324.921V139.004H324.84L322.428 144.974H321.294L318.882 138.991H318.801V145H317.284V136.273ZM329.959 145V136.273H335.635V137.598H331.54V139.967H335.341V141.293H331.54V143.675H335.669V145H329.959ZM346.22 136.273V145H344.814L340.702 139.055H340.629V145H339.048V136.273H340.463L344.571 142.222H344.648V136.273H346.22ZM349.359 137.598V136.273H356.322V137.598H353.625V145H352.057V137.598H349.359ZM359.465 145V136.273H361.046V139.967H365.09V136.273H366.675V145H365.09V141.293H361.046V145H359.465ZM371.315 145H369.628L372.7 136.273H374.652L377.728 145H376.041L373.71 138.062H373.642L371.315 145ZM371.371 141.578H375.973V142.848H371.371V141.578ZM393.253 140.636C393.253 141.577 393.077 142.382 392.724 143.053C392.375 143.72 391.898 144.232 391.293 144.587C390.69 144.942 390.007 145.119 389.243 145.119C388.479 145.119 387.794 144.942 387.189 144.587C386.587 144.229 386.109 143.716 385.757 143.048C385.408 142.378 385.233 141.574 385.233 140.636C385.233 139.696 385.408 138.892 385.757 138.224C386.109 137.554 386.587 137.041 387.189 136.686C387.794 136.331 388.479 136.153 389.243 136.153C390.007 136.153 390.69 136.331 391.293 136.686C391.898 137.041 392.375 137.554 392.724 138.224C393.077 138.892 393.253 139.696 393.253 140.636ZM391.663 140.636C391.663 139.974 391.56 139.416 391.352 138.962C391.148 138.504 390.864 138.159 390.5 137.926C390.136 137.69 389.717 137.572 389.243 137.572C388.768 137.572 388.349 137.69 387.986 137.926C387.622 138.159 387.337 138.504 387.129 138.962C386.925 139.416 386.822 139.974 386.822 140.636C386.822 141.298 386.925 141.858 387.129 142.315C387.337 142.77 387.622 143.115 387.986 143.351C388.349 143.584 388.768 143.7 389.243 143.7C389.717 143.7 390.136 143.584 390.5 143.351C390.864 143.115 391.148 142.77 391.352 142.315C391.56 141.858 391.663 141.298 391.663 140.636ZM398.128 136.273V145H396.548V136.273H398.128ZM401.64 145V136.273H403.221V143.675H407.065V145H401.64Z" fill="#5E5E5E"/>
<path d="M346.1 160.902V161.825H342.876V160.902H346.1ZM350.033 165.121C349.472 165.118 348.993 164.97 348.595 164.677C348.197 164.383 347.893 163.956 347.682 163.395C347.472 162.834 347.366 162.158 347.366 161.367C347.366 160.579 347.472 159.905 347.682 159.347C347.896 158.788 348.201 158.362 348.599 158.068C348.999 157.775 349.477 157.628 350.033 157.628C350.59 157.628 351.067 157.776 351.464 158.072C351.862 158.365 352.166 158.791 352.377 159.35C352.59 159.906 352.697 160.579 352.697 161.367C352.697 162.16 352.591 162.837 352.381 163.398C352.17 163.957 351.866 164.384 351.468 164.68C351.07 164.974 350.592 165.121 350.033 165.121ZM350.033 164.173C350.526 164.173 350.91 163.932 351.187 163.452C351.467 162.971 351.606 162.276 351.606 161.367C351.606 160.763 351.543 160.253 351.415 159.837C351.289 159.418 351.108 159.1 350.871 158.885C350.637 158.667 350.358 158.558 350.033 158.558C349.543 158.558 349.159 158.8 348.879 159.283C348.6 159.766 348.459 160.46 348.457 161.367C348.457 161.973 348.519 162.486 348.645 162.905C348.773 163.321 348.954 163.638 349.188 163.853C349.422 164.066 349.704 164.173 350.033 164.173ZM353.956 165V164.205L356.417 161.655C356.68 161.378 356.897 161.135 357.067 160.927C357.24 160.716 357.369 160.516 357.454 160.327C357.54 160.137 357.582 159.936 357.582 159.723C357.582 159.482 357.525 159.273 357.412 159.098C357.298 158.92 357.143 158.784 356.946 158.69C356.75 158.593 356.529 158.544 356.282 158.544C356.022 158.544 355.795 158.597 355.601 158.704C355.406 158.81 355.257 158.961 355.153 159.155C355.049 159.349 354.997 159.576 354.997 159.837H353.949C353.949 159.394 354.051 159.007 354.255 158.675C354.458 158.344 354.738 158.087 355.093 157.905C355.448 157.72 355.852 157.628 356.304 157.628C356.761 157.628 357.163 157.719 357.511 157.901C357.861 158.081 358.135 158.327 358.331 158.64C358.528 158.95 358.626 159.3 358.626 159.691C358.626 159.961 358.575 160.225 358.473 160.483C358.374 160.741 358.2 161.029 357.951 161.346C357.703 161.661 357.357 162.043 356.915 162.493L355.469 164.006V164.059H358.743V165H353.956ZM360.803 165.067C360.609 165.067 360.442 164.999 360.302 164.862C360.163 164.722 360.093 164.554 360.093 164.357C360.093 164.163 360.163 163.997 360.302 163.86C360.442 163.72 360.609 163.651 360.803 163.651C360.997 163.651 361.164 163.72 361.304 163.86C361.443 163.997 361.513 164.163 361.513 164.357C361.513 164.487 361.48 164.607 361.414 164.716C361.35 164.822 361.265 164.908 361.158 164.972C361.052 165.036 360.933 165.067 360.803 165.067ZM365.19 165.121C364.628 165.118 364.149 164.97 363.751 164.677C363.354 164.383 363.049 163.956 362.839 163.395C362.628 162.834 362.523 162.158 362.523 161.367C362.523 160.579 362.628 159.905 362.839 159.347C363.052 158.788 363.357 158.362 363.755 158.068C364.155 157.775 364.633 157.628 365.19 157.628C365.746 157.628 366.223 157.776 366.621 158.072C367.018 158.365 367.323 158.791 367.533 159.35C367.746 159.906 367.853 160.579 367.853 161.367C367.853 162.16 367.748 162.837 367.537 163.398C367.326 163.957 367.022 164.384 366.624 164.68C366.226 164.974 365.748 165.121 365.19 165.121ZM365.19 164.173C365.682 164.173 366.067 163.932 366.344 163.452C366.623 162.971 366.763 162.276 366.763 161.367C366.763 160.763 366.699 160.253 366.571 159.837C366.445 159.418 366.264 159.1 366.028 158.885C365.793 158.667 365.514 158.558 365.19 158.558C364.699 158.558 364.315 158.8 364.035 159.283C363.756 159.766 363.615 160.46 363.613 161.367C363.613 161.973 363.676 162.486 363.801 162.905C363.929 163.321 364.11 163.638 364.344 163.853C364.579 164.066 364.86 164.173 365.19 164.173ZM369.113 165V164.205L371.574 161.655C371.836 161.378 372.053 161.135 372.223 160.927C372.396 160.716 372.525 160.516 372.611 160.327C372.696 160.137 372.738 159.936 372.738 159.723C372.738 159.482 372.682 159.273 372.568 159.098C372.454 158.92 372.299 158.784 372.103 158.69C371.906 158.593 371.685 158.544 371.439 158.544C371.178 158.544 370.951 158.597 370.757 158.704C370.563 158.81 370.414 158.961 370.309 159.155C370.205 159.349 370.153 159.576 370.153 159.837H369.106C369.106 159.394 369.207 159.007 369.411 158.675C369.615 158.344 369.894 158.087 370.249 157.905C370.604 157.72 371.008 157.628 371.46 157.628C371.917 157.628 372.319 157.719 372.667 157.901C373.018 158.081 373.291 158.327 373.488 158.64C373.684 158.95 373.782 159.3 373.782 159.691C373.782 159.961 373.732 160.225 373.63 160.483C373.53 160.741 373.356 161.029 373.108 161.346C372.859 161.661 372.513 162.043 372.071 162.493L370.625 164.006V164.059H373.9V165H369.113ZM379.042 163.636V163.253C379.042 162.978 379.098 162.727 379.212 162.5C379.328 162.27 379.496 162.087 379.716 161.95C379.939 161.81 380.208 161.74 380.522 161.74C380.844 161.74 381.114 161.809 381.332 161.946C381.55 162.083 381.714 162.267 381.826 162.496C381.939 162.726 381.996 162.978 381.996 163.253V163.636C381.996 163.911 381.939 164.163 381.826 164.393C381.712 164.62 381.545 164.804 381.325 164.943C381.107 165.08 380.84 165.149 380.522 165.149C380.203 165.149 379.933 165.08 379.713 164.943C379.493 164.804 379.326 164.62 379.212 164.393C379.098 164.163 379.042 163.911 379.042 163.636ZM379.869 163.253V163.636C379.869 163.84 379.918 164.025 380.015 164.19C380.112 164.356 380.281 164.439 380.522 164.439C380.762 164.439 380.928 164.356 381.023 164.19C381.118 164.025 381.165 163.84 381.165 163.636V163.253C381.165 163.049 381.119 162.865 381.027 162.699C380.937 162.533 380.769 162.45 380.522 162.45C380.286 162.45 380.118 162.533 380.018 162.699C379.919 162.865 379.869 163.049 379.869 163.253ZM375.384 159.474V159.091C375.384 158.816 375.441 158.564 375.554 158.335C375.67 158.105 375.839 157.921 376.059 157.784C376.281 157.647 376.55 157.578 376.865 157.578C377.187 157.578 377.457 157.647 377.674 157.784C377.892 157.921 378.057 158.105 378.168 158.335C378.279 158.564 378.335 158.816 378.335 159.091V159.474C378.335 159.749 378.278 160.001 378.165 160.231C378.053 160.458 377.888 160.642 377.667 160.781C377.45 160.919 377.182 160.987 376.865 160.987C376.543 160.987 376.272 160.919 376.052 160.781C375.834 160.642 375.668 160.458 375.554 160.231C375.441 160.001 375.384 159.749 375.384 159.474ZM376.215 159.091V159.474C376.215 159.678 376.262 159.863 376.357 160.028C376.454 160.194 376.623 160.277 376.865 160.277C377.102 160.277 377.267 160.194 377.362 160.028C377.459 159.863 377.508 159.678 377.508 159.474V159.091C377.508 158.887 377.461 158.703 377.369 158.537C377.277 158.371 377.109 158.288 376.865 158.288C376.628 158.288 376.46 158.371 376.361 158.537C376.263 158.703 376.215 158.887 376.215 159.091ZM375.721 165L380.721 157.727H381.57L376.57 165H375.721Z" fill="#555555"/>
<g filter="url(#filter2_d_450_4559)">
<circle cx="362.5" cy="320.5" r="60.5" fill="#FDFDFD"/>
<circle cx="362.5" cy="320.5" r="58.8212" stroke="#9A9A9A" stroke-opacity="0.08" stroke-width="3.35761"/>
</g>
<path d="M332.324 290.312H335.542V302.903C335.536 304.057 335.291 305.051 334.808 305.884C334.324 306.712 333.648 307.35 332.779 307.799C331.916 308.242 330.911 308.464 329.762 308.464C328.713 308.464 327.769 308.277 326.929 307.904C326.096 307.525 325.434 306.965 324.945 306.225C324.455 305.485 324.21 304.564 324.21 303.462H327.437C327.442 303.946 327.547 304.363 327.751 304.712C327.961 305.062 328.25 305.33 328.617 305.517C328.984 305.703 329.407 305.797 329.885 305.797C330.404 305.797 330.844 305.689 331.205 305.473C331.566 305.252 331.84 304.925 332.027 304.494C332.219 304.063 332.318 303.532 332.324 302.903V290.312ZM339.061 308.219V290.312H350.708V293.031H342.305V297.892H350.105V300.612H342.305V305.499H350.778V308.219H339.061ZM354.018 308.219V290.312H365.664V293.031H357.262V297.892H365.061V300.612H357.262V305.499H365.734V308.219H354.018ZM368.974 308.219V290.312H375.689C377.065 290.312 378.219 290.551 379.152 291.028C380.09 291.506 380.798 292.177 381.276 293.04C381.76 293.896 382.002 294.896 382.002 296.039C382.002 297.187 381.757 298.184 381.268 299.029C380.784 299.868 380.07 300.518 379.125 300.979C378.181 301.434 377.021 301.661 375.645 301.661H370.862V298.968H375.208C376.013 298.968 376.671 298.857 377.184 298.636C377.697 298.408 378.076 298.079 378.321 297.648C378.572 297.21 378.697 296.674 378.697 296.039C378.697 295.403 378.572 294.861 378.321 294.412C378.07 293.958 377.688 293.614 377.175 293.381C376.662 293.142 376.001 293.022 375.191 293.022H372.218V308.219H368.974ZM378.225 300.105L382.658 308.219H379.038L374.683 300.105H378.225ZM387.288 308.219H383.825L390.129 290.312H394.134L400.447 308.219H396.984L392.202 293.984H392.062L387.288 308.219ZM387.401 301.198H396.845V303.803H387.401V301.198Z" fill="black"/>
<path d="M319.131 327.199H320.74V333.494C320.737 334.071 320.614 334.568 320.373 334.985C320.131 335.399 319.793 335.718 319.358 335.942C318.927 336.164 318.424 336.275 317.85 336.275C317.325 336.275 316.853 336.181 316.433 335.995C316.017 335.806 315.686 335.526 315.441 335.156C315.196 334.785 315.074 334.325 315.074 333.774H316.687C316.69 334.016 316.742 334.224 316.844 334.399C316.949 334.574 317.094 334.708 317.277 334.801C317.461 334.895 317.672 334.941 317.911 334.941C318.171 334.941 318.391 334.887 318.571 334.78C318.752 334.669 318.889 334.506 318.982 334.29C319.078 334.074 319.128 333.809 319.131 333.494V327.199ZM323.977 336.152V327.199H329.8V328.558H325.599V330.989H329.498V332.349H325.599V334.793H329.835V336.152H323.977ZM332.932 336.152V327.199H338.756V328.558H334.554V330.989H338.454V332.349H334.554V334.793H338.791V336.152H332.932ZM341.888 336.152V327.199H345.245C345.933 327.199 346.51 327.318 346.977 327.557C347.446 327.796 347.8 328.131 348.039 328.563C348.281 328.991 348.402 329.491 348.402 330.062C348.402 330.636 348.279 331.135 348.035 331.557C347.793 331.977 347.436 332.302 346.963 332.532C346.491 332.76 345.911 332.873 345.223 332.873H342.832V331.527H345.005C345.407 331.527 345.736 331.472 345.993 331.361C346.249 331.247 346.439 331.082 346.561 330.867C346.687 330.648 346.749 330.38 346.749 330.062C346.749 329.745 346.687 329.474 346.561 329.249C346.436 329.022 346.245 328.85 345.989 328.733C345.732 328.614 345.401 328.554 344.996 328.554H343.51V336.152H341.888ZM346.513 332.095L348.73 336.152H346.92L344.743 332.095H346.513ZM352.522 336.152H350.791L353.943 327.199H355.945L359.102 336.152H357.37L354.979 329.035H354.909L352.522 336.152ZM352.579 332.642H357.3V333.945H352.579V332.642ZM367.402 327.199H369.024V333.048C369.024 333.69 368.873 334.253 368.57 334.74C368.27 335.227 367.847 335.607 367.302 335.881C366.757 336.152 366.12 336.288 365.391 336.288C364.66 336.288 364.021 336.152 363.476 335.881C362.931 335.607 362.509 335.227 362.209 334.74C361.908 334.253 361.758 333.69 361.758 333.048V327.199H363.38V332.913C363.38 333.286 363.462 333.618 363.625 333.91C363.791 334.201 364.024 334.43 364.325 334.596C364.625 334.759 364.98 334.841 365.391 334.841C365.802 334.841 366.158 334.759 366.458 334.596C366.761 334.43 366.994 334.201 367.158 333.91C367.321 333.618 367.402 333.286 367.402 332.913V327.199ZM379.623 327.199V336.152H378.18L373.961 330.054H373.887V336.152H372.265V327.199H373.716L377.931 333.302H378.009V327.199H379.623ZM386.4 327.199H388.009V333.494C388.006 334.071 387.883 334.568 387.641 334.985C387.399 335.399 387.061 335.718 386.627 335.942C386.196 336.164 385.693 336.275 385.119 336.275C384.594 336.275 384.122 336.181 383.702 335.995C383.286 335.806 382.955 335.526 382.71 335.156C382.465 334.785 382.343 334.325 382.343 333.774H383.956C383.959 334.016 384.011 334.224 384.113 334.399C384.218 334.574 384.362 334.708 384.546 334.801C384.73 334.895 384.941 334.941 385.18 334.941C385.439 334.941 385.659 334.887 385.84 334.78C386.021 334.669 386.158 334.506 386.251 334.29C386.347 334.074 386.397 333.809 386.4 333.494V327.199ZM391.246 336.152V327.199H392.868V330.989H397.017V327.199H398.643V336.152H397.017V332.349H392.868V336.152H391.246ZM403.034 336.152H401.303L404.455 327.199H406.457L409.614 336.152H407.882L405.491 329.035H405.421L403.034 336.152ZM403.091 332.642H407.813V333.945H403.091V332.642Z" fill="#5E5E5E"/>
<path d="M344.7 351.235V352.268H341.091V351.235H344.7ZM349.102 355.956C348.474 355.954 347.937 355.788 347.492 355.46C347.047 355.131 346.706 354.653 346.47 354.025C346.235 353.397 346.117 352.64 346.117 351.755C346.117 350.873 346.235 350.119 346.47 349.494C346.709 348.869 347.051 348.392 347.496 348.063C347.944 347.735 348.479 347.57 349.102 347.57C349.724 347.57 350.258 347.736 350.703 348.067C351.148 348.396 351.489 348.873 351.725 349.498C351.963 350.121 352.082 350.873 352.082 351.755C352.082 352.643 351.964 353.401 351.729 354.029C351.493 354.654 351.152 355.132 350.707 355.464C350.262 355.792 349.727 355.956 349.102 355.956ZM349.102 354.895C349.653 354.895 350.083 354.626 350.393 354.088C350.706 353.551 350.862 352.773 350.862 351.755C350.862 351.08 350.791 350.509 350.648 350.042C350.507 349.573 350.304 349.218 350.04 348.977C349.777 348.734 349.465 348.612 349.102 348.612C348.553 348.612 348.123 348.882 347.81 349.422C347.497 349.963 347.34 350.741 347.337 351.755C347.337 352.434 347.407 353.007 347.548 353.476C347.691 353.943 347.893 354.296 348.156 354.538C348.418 354.776 348.733 354.895 349.102 354.895ZM353.492 355.821V354.931L356.247 352.077C356.541 351.767 356.783 351.496 356.974 351.263C357.167 351.027 357.312 350.803 357.407 350.591C357.503 350.379 357.55 350.154 357.55 349.915C357.55 349.645 357.487 349.412 357.359 349.216C357.232 349.017 357.059 348.865 356.839 348.759C356.619 348.65 356.371 348.596 356.096 348.596C355.804 348.596 355.55 348.655 355.332 348.775C355.115 348.894 354.948 349.062 354.832 349.279C354.715 349.497 354.657 349.751 354.657 350.042H353.484C353.484 349.547 353.598 349.114 353.826 348.743C354.054 348.372 354.367 348.084 354.764 347.88C355.162 347.674 355.613 347.57 356.119 347.57C356.631 347.57 357.081 347.672 357.471 347.876C357.863 348.078 358.169 348.353 358.389 348.703C358.609 349.05 358.719 349.442 358.719 349.879C358.719 350.182 358.662 350.477 358.548 350.766C358.437 351.055 358.242 351.377 357.964 351.732C357.685 352.084 357.299 352.512 356.803 353.015L355.185 354.708V354.768H358.85V355.821H353.492ZM361.155 355.897C360.938 355.897 360.751 355.82 360.595 355.666C360.438 355.51 360.36 355.322 360.36 355.102C360.36 354.885 360.438 354.699 360.595 354.545C360.751 354.389 360.938 354.311 361.155 354.311C361.372 354.311 361.559 354.389 361.715 354.545C361.872 354.699 361.95 354.885 361.95 355.102C361.95 355.248 361.913 355.381 361.839 355.503C361.767 355.623 361.672 355.718 361.552 355.789C361.433 355.861 361.301 355.897 361.155 355.897ZM366.064 355.956C365.437 355.954 364.9 355.788 364.455 355.46C364.01 355.131 363.669 354.653 363.433 354.025C363.198 353.397 363.08 352.64 363.08 351.755C363.08 350.873 363.198 350.119 363.433 349.494C363.672 348.869 364.014 348.392 364.459 348.063C364.907 347.735 365.442 347.57 366.064 347.57C366.687 347.57 367.221 347.736 367.666 348.067C368.111 348.396 368.452 348.873 368.688 349.498C368.926 350.121 369.045 350.873 369.045 351.755C369.045 352.643 368.927 353.401 368.692 354.029C368.456 354.654 368.115 355.132 367.67 355.464C367.225 355.792 366.69 355.956 366.064 355.956ZM366.064 354.895C366.616 354.895 367.046 354.626 367.356 354.088C367.669 353.551 367.825 352.773 367.825 351.755C367.825 351.08 367.754 350.509 367.611 350.042C367.47 349.573 367.267 349.218 367.002 348.977C366.74 348.734 366.427 348.612 366.064 348.612C365.516 348.612 365.085 348.882 364.773 349.422C364.46 349.963 364.302 350.741 364.3 351.755C364.3 352.434 364.37 353.007 364.51 353.476C364.654 353.943 364.856 354.296 365.119 354.538C365.381 354.776 365.696 354.895 366.064 354.895ZM370.455 355.821V354.931L373.21 352.077C373.504 351.767 373.746 351.496 373.937 351.263C374.13 351.027 374.275 350.803 374.37 350.591C374.465 350.379 374.513 350.154 374.513 349.915C374.513 349.645 374.45 349.412 374.322 349.216C374.195 349.017 374.022 348.865 373.802 348.759C373.582 348.65 373.334 348.596 373.058 348.596C372.767 348.596 372.513 348.655 372.295 348.775C372.078 348.894 371.911 349.062 371.795 349.279C371.678 349.497 371.62 349.751 371.62 350.042H370.447C370.447 349.547 370.561 349.114 370.789 348.743C371.017 348.372 371.33 348.084 371.727 347.88C372.124 347.674 372.576 347.57 373.082 347.57C373.594 347.57 374.044 347.672 374.434 347.876C374.826 348.078 375.132 348.353 375.352 348.703C375.572 349.05 375.682 349.442 375.682 349.879C375.682 350.182 375.625 350.477 375.511 350.766C375.399 351.055 375.205 351.377 374.926 351.732C374.648 352.084 374.261 352.512 373.766 353.015L372.148 354.708V354.768H375.813V355.821H370.455ZM381.568 354.295V353.866C381.568 353.559 381.631 353.278 381.759 353.023C381.888 352.766 382.076 352.561 382.323 352.407C382.572 352.251 382.873 352.173 383.225 352.173C383.585 352.173 383.888 352.25 384.131 352.403C384.375 352.557 384.559 352.762 384.684 353.019C384.811 353.276 384.874 353.559 384.874 353.866V354.295C384.874 354.602 384.811 354.885 384.684 355.142C384.557 355.396 384.37 355.601 384.123 355.758C383.88 355.911 383.58 355.988 383.225 355.988C382.867 355.988 382.565 355.911 382.319 355.758C382.073 355.601 381.886 355.396 381.759 355.142C381.631 354.885 381.568 354.602 381.568 354.295ZM382.494 353.866V354.295C382.494 354.523 382.548 354.73 382.657 354.915C382.765 355.101 382.955 355.193 383.225 355.193C383.493 355.193 383.68 355.101 383.786 354.915C383.891 354.73 383.944 354.523 383.944 354.295V353.866C383.944 353.638 383.893 353.431 383.789 353.246C383.689 353.06 383.501 352.968 383.225 352.968C382.96 352.968 382.772 353.06 382.661 353.246C382.549 353.431 382.494 353.638 382.494 353.866ZM377.474 349.637V349.208C377.474 348.9 377.538 348.618 377.665 348.361C377.795 348.104 377.983 347.899 378.229 347.745C378.478 347.592 378.779 347.515 379.131 347.515C379.492 347.515 379.794 347.592 380.038 347.745C380.281 347.899 380.466 348.104 380.59 348.361C380.715 348.618 380.777 348.9 380.777 349.208V349.637C380.777 349.944 380.713 350.227 380.586 350.484C380.462 350.738 380.276 350.943 380.03 351.1C379.786 351.253 379.486 351.33 379.131 351.33C378.771 351.33 378.468 351.253 378.221 351.1C377.978 350.943 377.792 350.738 377.665 350.484C377.538 350.227 377.474 349.944 377.474 349.637ZM378.404 349.208V349.637C378.404 349.865 378.457 350.072 378.563 350.257C378.672 350.443 378.861 350.535 379.131 350.535C379.396 350.535 379.582 350.443 379.688 350.257C379.796 350.072 379.851 349.865 379.851 349.637V349.208C379.851 348.98 379.799 348.773 379.696 348.588C379.592 348.402 379.404 348.31 379.131 348.31C378.866 348.31 378.678 348.402 378.567 348.588C378.458 348.773 378.404 348.98 378.404 349.208ZM377.852 355.821L383.448 347.682H384.398L378.802 355.821H377.852Z" fill="#555555"/>
<g filter="url(#filter3_d_450_4559)">
<circle cx="236.311" cy="195.704" r="109.535" fill="#FDFDFD"/>
<circle cx="236.311" cy="195.704" r="108.035" stroke="#F09B1E" stroke-opacity="0.05" stroke-width="3"/>
</g>
<path d="M209.003 198.849C206.815 154.413 231.19 145.32 244.314 146.038C259.377 146.851 266.626 160.1 264.876 167.663C253.689 192.162 260.876 206.568 264.876 218.786C266.064 234.723 257.283 242.723 248.877 245.129C236.877 248.598 211.19 243.254 209.003 198.881V198.849Z" fill="#056636"/>
<path d="M253.407 172.788C254.528 173.316 255.394 174.267 255.816 175.433C256.237 176.598 256.18 177.883 255.657 179.006C253.52 184.133 252.59 189.682 252.938 195.225C252.996 200.587 254.392 205.851 257.001 210.537C257.352 211.056 257.595 211.64 257.717 212.254C257.838 212.869 257.835 213.502 257.707 214.115C257.58 214.729 257.331 215.311 256.975 215.826C256.619 216.342 256.163 216.781 255.635 217.117C255.106 217.453 254.515 217.68 253.897 217.785C253.28 217.889 252.647 217.868 252.037 217.724C251.428 217.579 250.853 217.314 250.348 216.944C249.842 216.573 249.416 216.106 249.095 215.568C245.589 209.488 243.685 202.617 243.564 195.6C243.251 188.506 244.376 181.006 247.189 175.038C247.45 174.479 247.82 173.977 248.276 173.561C248.732 173.145 249.265 172.824 249.846 172.614C250.427 172.405 251.043 172.313 251.66 172.343C252.276 172.373 252.881 172.524 253.438 172.788H253.407Z" fill="#FDFDFD"/>
<g filter="url(#filter4_d_450_4559)">
<circle cx="114.056" cy="115.056" r="54.0563" fill="#FDFDFD"/>
<circle cx="114.056" cy="115.056" r="52.5563" stroke="#9A9A9A" stroke-opacity="0.08" stroke-width="3"/>
</g>
<path d="M87.2471 88H90.1221V99.25C90.1169 100.281 89.8981 101.169 89.4658 101.914C89.0335 102.654 88.4294 103.224 87.6533 103.625C86.8825 104.021 85.984 104.219 84.958 104.219C84.0205 104.219 83.1768 104.052 82.4268 103.719C81.682 103.38 81.0908 102.88 80.6533 102.219C80.2158 101.557 79.9971 100.734 79.9971 99.75H82.8799C82.8851 100.182 82.9788 100.555 83.1611 100.867C83.3486 101.18 83.6064 101.419 83.9346 101.586C84.2627 101.753 84.6403 101.836 85.0674 101.836C85.5309 101.836 85.9242 101.74 86.2471 101.547C86.57 101.349 86.8148 101.057 86.9814 100.672C87.1533 100.286 87.2419 99.8125 87.2471 99.25V88ZM93.2666 104V88H103.673V90.4297H96.165V94.7734H103.134V97.2031H96.165V101.57H103.735V104H93.2666ZM106.63 104V88H117.036V90.4297H109.528V94.7734H116.497V97.2031H109.528V101.57H117.099V104H106.63ZM119.993 104V88H125.993C127.222 88 128.254 88.2135 129.087 88.6406C129.925 89.0677 130.558 89.6667 130.985 90.4375C131.418 91.2031 131.634 92.0964 131.634 93.1172C131.634 94.1432 131.415 95.0339 130.978 95.7891C130.545 96.5391 129.907 97.1198 129.063 97.5312C128.22 97.9375 127.183 98.1406 125.954 98.1406H121.681V95.7344H125.563C126.282 95.7344 126.871 95.6354 127.329 95.4375C127.787 95.2344 128.126 94.9401 128.345 94.5547C128.569 94.1641 128.681 93.6849 128.681 93.1172C128.681 92.5495 128.569 92.0651 128.345 91.6641C128.121 91.2578 127.78 90.9505 127.321 90.7422C126.863 90.5286 126.272 90.4219 125.548 90.4219H122.892V104H119.993ZM128.259 96.75L132.22 104H128.985L125.095 96.75H128.259ZM136.356 104H133.263L138.896 88H142.474L148.114 104H145.021L140.747 91.2812H140.622L136.356 104ZM136.458 97.7266H144.896V100.055H136.458V97.7266Z" fill="black"/>
<path d="M75.4174 121H76.8549V126.625C76.8523 127.141 76.7429 127.585 76.5268 127.957C76.3107 128.327 76.0086 128.612 75.6205 128.812C75.2351 129.01 74.7859 129.109 74.2729 129.109C73.8041 129.109 73.3823 129.026 73.0073 128.859C72.6349 128.69 72.3393 128.44 72.1205 128.109C71.9018 127.779 71.7924 127.367 71.7924 126.875H73.2338C73.2364 127.091 73.2833 127.277 73.3745 127.434C73.4682 127.59 73.5971 127.71 73.7612 127.793C73.9252 127.876 74.114 127.918 74.3276 127.918C74.5594 127.918 74.756 127.87 74.9174 127.773C75.0789 127.674 75.2013 127.529 75.2846 127.336C75.3705 127.143 75.4148 126.906 75.4174 126.625V121ZM79.7472 129V121H84.9503V122.215H81.1964V124.387H84.6808V125.602H81.1964V127.785H84.9816V129H79.7472ZM87.7488 129V121H92.952V122.215H89.198V124.387H92.6824V125.602H89.198V127.785H92.9832V129H87.7488ZM95.7505 129V121H98.7505C99.3651 121 99.8807 121.107 100.297 121.32C100.717 121.534 101.033 121.833 101.247 122.219C101.463 122.602 101.571 123.048 101.571 123.559C101.571 124.072 101.461 124.517 101.243 124.895C101.027 125.27 100.708 125.56 100.286 125.766C99.8638 125.969 99.3455 126.07 98.7309 126.07H96.5942V124.867H98.5356C98.895 124.867 99.1893 124.818 99.4184 124.719C99.6476 124.617 99.8169 124.47 99.9263 124.277C100.038 124.082 100.094 123.842 100.094 123.559C100.094 123.275 100.038 123.033 99.9263 122.832C99.8143 122.629 99.6437 122.475 99.4145 122.371C99.1854 122.264 98.8898 122.211 98.5278 122.211H97.1997V129H95.7505ZM99.8833 125.375L101.864 129H100.247L98.3013 125.375H99.8833ZM105.252 129H103.705L106.522 121H108.311L111.131 129H109.584L107.447 122.641H107.385L105.252 129ZM105.303 125.863H109.522V127.027H105.303V125.863ZM118.548 121H119.997V126.227C119.997 126.799 119.861 127.303 119.591 127.738C119.322 128.173 118.945 128.513 118.458 128.758C117.971 129 117.402 129.121 116.751 129.121C116.097 129.121 115.527 129 115.04 128.758C114.553 128.513 114.175 128.173 113.907 127.738C113.639 127.303 113.505 126.799 113.505 126.227V121H114.954V126.105C114.954 126.439 115.027 126.736 115.173 126.996C115.321 127.257 115.529 127.461 115.798 127.609C116.066 127.755 116.384 127.828 116.751 127.828C117.118 127.828 117.436 127.755 117.704 127.609C117.975 127.461 118.183 127.257 118.329 126.996C118.475 126.736 118.548 126.439 118.548 126.105V121ZM129.466 121V129H128.177L124.408 123.551H124.341V129H122.892V121H124.189L127.955 126.453H128.025V121H129.466ZM135.522 121H136.959V126.625C136.957 127.141 136.847 127.585 136.631 127.957C136.415 128.327 136.113 128.612 135.725 128.812C135.339 129.01 134.89 129.109 134.377 129.109C133.908 129.109 133.487 129.026 133.112 128.859C132.739 128.69 132.444 128.44 132.225 128.109C132.006 127.779 131.897 127.367 131.897 126.875H133.338C133.341 127.091 133.388 127.277 133.479 127.434C133.572 127.59 133.701 127.71 133.865 127.793C134.029 127.876 134.218 127.918 134.432 127.918C134.664 127.918 134.86 127.87 135.022 127.773C135.183 127.674 135.306 127.529 135.389 127.336C135.475 127.143 135.519 126.906 135.522 126.625V121ZM139.851 129V121H141.301V124.387H145.008V121H146.461V129H145.008V125.602H141.301V129H139.851ZM150.384 129H148.837L151.654 121H153.443L156.263 129H154.716L152.58 122.641H152.517L150.384 129ZM150.435 125.863H154.654V127.027H150.435V125.863Z" fill="#5E5E5E"/>
<path d="M98.1004 141.902V142.825H94.876V141.902H98.1004ZM102.033 146.121C101.472 146.118 100.993 145.97 100.595 145.677C100.197 145.383 99.8931 144.956 99.6824 144.395C99.4717 143.834 99.3664 143.158 99.3664 142.367C99.3664 141.579 99.4717 140.905 99.6824 140.347C99.8955 139.788 100.201 139.362 100.599 139.068C100.999 138.775 101.477 138.628 102.033 138.628C102.59 138.628 103.067 138.776 103.464 139.072C103.862 139.365 104.166 139.791 104.377 140.35C104.59 140.906 104.697 141.579 104.697 142.367C104.697 143.16 104.591 143.837 104.381 144.398C104.17 144.957 103.866 145.384 103.468 145.68C103.07 145.974 102.592 146.121 102.033 146.121ZM102.033 145.173C102.526 145.173 102.91 144.932 103.187 144.452C103.467 143.971 103.606 143.276 103.606 142.367C103.606 141.763 103.543 141.253 103.415 140.837C103.289 140.418 103.108 140.1 102.871 139.885C102.637 139.667 102.358 139.558 102.033 139.558C101.543 139.558 101.159 139.8 100.879 140.283C100.6 140.766 100.459 141.46 100.457 142.367C100.457 142.973 100.519 143.486 100.645 143.905C100.773 144.321 100.954 144.638 101.188 144.853C101.422 145.066 101.704 145.173 102.033 145.173ZM105.956 146V145.205L108.417 142.655C108.68 142.378 108.897 142.135 109.067 141.927C109.24 141.716 109.369 141.516 109.454 141.327C109.54 141.137 109.582 140.936 109.582 140.723C109.582 140.482 109.525 140.273 109.412 140.098C109.298 139.92 109.143 139.784 108.946 139.69C108.75 139.593 108.529 139.544 108.282 139.544C108.022 139.544 107.795 139.597 107.601 139.704C107.406 139.81 107.257 139.961 107.153 140.155C107.049 140.349 106.997 140.576 106.997 140.837H105.949C105.949 140.394 106.051 140.007 106.255 139.675C106.458 139.344 106.738 139.087 107.093 138.905C107.448 138.72 107.852 138.628 108.304 138.628C108.761 138.628 109.163 138.719 109.511 138.901C109.861 139.081 110.135 139.327 110.331 139.64C110.528 139.95 110.626 140.3 110.626 140.691C110.626 140.961 110.575 141.225 110.473 141.483C110.374 141.741 110.2 142.029 109.951 142.346C109.703 142.661 109.357 143.043 108.915 143.493L107.469 145.006V145.059H110.743V146H105.956ZM112.803 146.067C112.609 146.067 112.442 145.999 112.302 145.862C112.163 145.722 112.093 145.554 112.093 145.357C112.093 145.163 112.163 144.997 112.302 144.86C112.442 144.72 112.609 144.651 112.803 144.651C112.997 144.651 113.164 144.72 113.304 144.86C113.443 144.997 113.513 145.163 113.513 145.357C113.513 145.487 113.48 145.607 113.414 145.716C113.35 145.822 113.265 145.908 113.158 145.972C113.052 146.036 112.933 146.067 112.803 146.067ZM117.19 146.121C116.628 146.118 116.149 145.97 115.751 145.677C115.354 145.383 115.049 144.956 114.839 144.395C114.628 143.834 114.523 143.158 114.523 142.367C114.523 141.579 114.628 140.905 114.839 140.347C115.052 139.788 115.357 139.362 115.755 139.068C116.155 138.775 116.633 138.628 117.19 138.628C117.746 138.628 118.223 138.776 118.621 139.072C119.018 139.365 119.323 139.791 119.533 140.35C119.746 140.906 119.853 141.579 119.853 142.367C119.853 143.16 119.748 143.837 119.537 144.398C119.326 144.957 119.022 145.384 118.624 145.68C118.226 145.974 117.748 146.121 117.19 146.121ZM117.19 145.173C117.682 145.173 118.067 144.932 118.344 144.452C118.623 143.971 118.763 143.276 118.763 142.367C118.763 141.763 118.699 141.253 118.571 140.837C118.445 140.418 118.264 140.1 118.028 139.885C117.793 139.667 117.514 139.558 117.19 139.558C116.699 139.558 116.315 139.8 116.035 140.283C115.756 140.766 115.615 141.46 115.613 142.367C115.613 142.973 115.676 143.486 115.801 143.905C115.929 144.321 116.11 144.638 116.344 144.853C116.579 145.066 116.86 145.173 117.19 145.173ZM121.113 146V145.205L123.574 142.655C123.836 142.378 124.053 142.135 124.223 141.927C124.396 141.716 124.525 141.516 124.611 141.327C124.696 141.137 124.738 140.936 124.738 140.723C124.738 140.482 124.682 140.273 124.568 140.098C124.454 139.92 124.299 139.784 124.103 139.69C123.906 139.593 123.685 139.544 123.439 139.544C123.178 139.544 122.951 139.597 122.757 139.704C122.563 139.81 122.414 139.961 122.309 140.155C122.205 140.349 122.153 140.576 122.153 140.837H121.106C121.106 140.394 121.207 140.007 121.411 139.675C121.615 139.344 121.894 139.087 122.249 138.905C122.604 138.72 123.008 138.628 123.46 138.628C123.917 138.628 124.319 138.719 124.667 138.901C125.018 139.081 125.291 139.327 125.488 139.64C125.684 139.95 125.782 140.3 125.782 140.691C125.782 140.961 125.732 141.225 125.63 141.483C125.53 141.741 125.356 142.029 125.108 142.346C124.859 142.661 124.513 143.043 124.071 143.493L122.625 145.006V145.059H125.9V146H121.113ZM131.042 144.636V144.253C131.042 143.978 131.098 143.727 131.212 143.5C131.328 143.27 131.496 143.087 131.716 142.95C131.939 142.81 132.208 142.74 132.522 142.74C132.844 142.74 133.114 142.809 133.332 142.946C133.55 143.083 133.714 143.267 133.826 143.496C133.939 143.726 133.996 143.978 133.996 144.253V144.636C133.996 144.911 133.939 145.163 133.826 145.393C133.712 145.62 133.545 145.804 133.325 145.943C133.107 146.08 132.84 146.149 132.522 146.149C132.203 146.149 131.933 146.08 131.713 145.943C131.493 145.804 131.326 145.62 131.212 145.393C131.098 145.163 131.042 144.911 131.042 144.636ZM131.869 144.253V144.636C131.869 144.84 131.918 145.025 132.015 145.19C132.112 145.356 132.281 145.439 132.522 145.439C132.762 145.439 132.928 145.356 133.023 145.19C133.118 145.025 133.165 144.84 133.165 144.636V144.253C133.165 144.049 133.119 143.865 133.027 143.699C132.937 143.533 132.769 143.45 132.522 143.45C132.286 143.45 132.118 143.533 132.018 143.699C131.919 143.865 131.869 144.049 131.869 144.253ZM127.384 140.474V140.091C127.384 139.816 127.441 139.564 127.554 139.335C127.67 139.105 127.839 138.921 128.059 138.784C128.281 138.647 128.55 138.578 128.865 138.578C129.187 138.578 129.457 138.647 129.674 138.784C129.892 138.921 130.057 139.105 130.168 139.335C130.279 139.564 130.335 139.816 130.335 140.091V140.474C130.335 140.749 130.278 141.001 130.165 141.231C130.053 141.458 129.888 141.642 129.667 141.781C129.45 141.919 129.182 141.987 128.865 141.987C128.543 141.987 128.272 141.919 128.052 141.781C127.834 141.642 127.668 141.458 127.554 141.231C127.441 141.001 127.384 140.749 127.384 140.474ZM128.215 140.091V140.474C128.215 140.678 128.262 140.863 128.357 141.028C128.454 141.194 128.623 141.277 128.865 141.277C129.102 141.277 129.267 141.194 129.362 141.028C129.459 140.863 129.508 140.678 129.508 140.474V140.091C129.508 139.887 129.461 139.703 129.369 139.537C129.277 139.371 129.109 139.288 128.865 139.288C128.628 139.288 128.46 139.371 128.361 139.537C128.263 139.703 128.215 139.887 128.215 140.091ZM127.721 146L132.721 138.727H133.57L128.57 146H127.721Z" fill="#555555"/>
<defs>
<filter id="filter0_d_450_4559" x="0.0999985" y="198.1" width="170.927" height="170.927" filterUnits="userSpaceOnUse" color-interpolation-filters="sRGB">
<feFlood flood-opacity="0" result="BackgroundImageFix"/>
<feColorMatrix in="SourceAlpha" type="matrix" values="0 0 0 0 0 0 0 0 0 0 0 0 0 0 0 0 0 0 127 0" result="hardAlpha"/>
<feOffset dy="14"/>
<feGaussianBlur stdDeviation="24.95"/>
<feComposite in2="hardAlpha" operator="out"/>
<feColorMatrix type="matrix" values="0 0 0 0 0.603922 0 0 0 0 0.603922 0 0 0 0 0.603922 0 0 0 0.21 0"/>
<feBlend mode="normal" in2="BackgroundImageFix" result="effect1_dropShadow_450_4559"/>
<feBlend mode="normal" in="SourceGraphic" in2="effect1_dropShadow_450_4559" result="shape"/>
</filter>
<filter id="filter1_d_450_4559" x="71.1" y="276.1" width="219.293" height="219.293" filterUnits="userSpaceOnUse" color-interpolation-filters="sRGB">
<feFlood flood-opacity="0" result="BackgroundImageFix"/>
<feColorMatrix in="SourceAlpha" type="matrix" values="0 0 0 0 0 0 0 0 0 0 0 0 0 0 0 0 0 0 127 0" result="hardAlpha"/>
<feOffset dy="14"/>
<feGaussianBlur stdDeviation="24.95"/>
<feComposite in2="hardAlpha" operator="out"/>
<feColorMatrix type="matrix" values="0 0 0 0 0.603922 0 0 0 0 0.603922 0 0 0 0 0.603922 0 0 0 0.21 0"/>
<feBlend mode="normal" in2="BackgroundImageFix" result="effect1_dropShadow_450_4559"/>
<feBlend mode="normal" in="SourceGraphic" in2="effect1_dropShadow_450_4559" result="shape"/>
</filter>
<filter id="filter2_d_450_4559" x="246.152" y="219.821" width="232.696" height="232.696" filterUnits="userSpaceOnUse" color-interpolation-filters="sRGB">
<feFlood flood-opacity="0" result="BackgroundImageFix"/>
<feColorMatrix in="SourceAlpha" type="matrix" values="0 0 0 0 0 0 0 0 0 0 0 0 0 0 0 0 0 0 127 0" result="hardAlpha"/>
<feOffset dy="15.6688"/>
<feGaussianBlur stdDeviation="27.9241"/>
<feComposite in2="hardAlpha" operator="out"/>
<feColorMatrix type="matrix" values="0 0 0 0 0.603922 0 0 0 0 0.603922 0 0 0 0 0.603922 0 0 0 0.21 0"/>
<feBlend mode="normal" in2="BackgroundImageFix" result="effect1_dropShadow_450_4559"/>
<feBlend mode="normal" in="SourceGraphic" in2="effect1_dropShadow_450_4559" result="shape"/>
</filter>
<filter id="filter3_d_450_4559" x="52.7754" y="0.168945" width="367.07" height="367.07" filterUnits="userSpaceOnUse" color-interpolation-filters="sRGB">
<feFlood flood-opacity="0" result="BackgroundImageFix"/>
<feColorMatrix in="SourceAlpha" type="matrix" values="0 0 0 0 0 0 0 0 0 0 0 0 0 0 0 0 0 0 127 0" result="hardAlpha"/>
<feOffset dy="-12"/>
<feGaussianBlur stdDeviation="37"/>
<feComposite in2="hardAlpha" operator="out"/>
<feColorMatrix type="matrix" values="0 0 0 0 0.603922 0 0 0 0 0.603922 0 0 0 0 0.603922 0 0 0 0.08 0"/>
<feBlend mode="normal" in2="BackgroundImageFix" result="effect1_dropShadow_450_4559"/>
<feBlend mode="normal" in="SourceGraphic" in2="effect1_dropShadow_450_4559" result="shape"/>
</filter>
<filter id="filter4_d_450_4559" x="10.1" y="25.1" width="207.913" height="207.913" filterUnits="userSpaceOnUse" color-interpolation-filters="sRGB">
<feFlood flood-opacity="0" result="BackgroundImageFix"/>
<feColorMatrix in="SourceAlpha" type="matrix" values="0 0 0 0 0 0 0 0 0 0 0 0 0 0 0 0 0 0 127 0" result="hardAlpha"/>
<feOffset dy="14"/>
<feGaussianBlur stdDeviation="24.95"/>
<feComposite in2="hardAlpha" operator="out"/>
<feColorMatrix type="matrix" values="0 0 0 0 0.603922 0 0 0 0 0.603922 0 0 0 0 0.603922 0 0 0 0.21 0"/>
<feBlend mode="normal" in2="BackgroundImageFix" result="effect1_dropShadow_450_4559"/>
<feBlend mode="normal" in="SourceGraphic" in2="effect1_dropShadow_450_4559" result="shape"/>
</filter>
<clipPath id="clip0_450_4559">
<rect width="103" height="88" fill="white" transform="translate(129 328)"/>
</clipPath>
</defs>
</svg>
