<svg width="475" height="496" viewBox="0 0 475 496" fill="none" xmlns="http://www.w3.org/2000/svg">
<g filter="url(#filter0_d_450_2878)">
<circle cx="85.5634" cy="269.563" r="35.5634" fill="#FDFDFD"/>
<circle cx="85.5634" cy="269.563" r="34.0634" stroke="#9A9A9A" stroke-opacity="0.08" stroke-width="3"/>
</g>
<path d="M72.5236 251.905L75.187 256.335H75.2814L77.9567 251.905H80.4547L76.7283 257.953L80.5138 264H77.9744L75.2814 259.6H75.187L72.494 264H69.9665L73.7873 257.953L70.0137 251.905H72.5236ZM82.1747 264V251.905H86.7101C87.6393 251.905 88.4188 252.067 89.0487 252.39C89.6826 252.713 90.1609 253.165 90.4838 253.748C90.8106 254.327 90.9739 255.002 90.9739 255.774C90.9739 256.549 90.8086 257.222 90.4779 257.793C90.1511 258.36 89.6688 258.799 89.031 259.11C88.3932 259.417 87.6098 259.571 86.6806 259.571H83.4503V257.752H86.3853C86.9286 257.752 87.3735 257.677 87.72 257.528C88.0664 257.374 88.3224 257.152 88.4877 256.86C88.657 256.565 88.7416 256.203 88.7416 255.774C88.7416 255.344 88.657 254.978 88.4877 254.675C88.3184 254.368 88.0605 254.136 87.7141 253.978C87.3676 253.817 86.9208 253.736 86.3735 253.736H84.3656V264H82.1747ZM88.4227 258.52L91.4169 264H88.972L86.031 258.52H88.4227ZM92.9907 264V251.905H97.5261C98.4553 251.905 99.2348 252.079 99.8647 252.425C100.499 252.772 100.977 253.248 101.3 253.854C101.627 254.457 101.79 255.142 101.79 255.909C101.79 256.685 101.627 257.374 101.3 257.976C100.973 258.579 100.491 259.053 99.8529 259.4C99.2151 259.742 98.4297 259.913 97.4966 259.913H94.4907V258.112H97.2013C97.7446 258.112 98.1895 258.018 98.536 257.829C98.8824 257.64 99.1383 257.38 99.3037 257.049C99.473 256.718 99.5576 256.339 99.5576 255.909C99.5576 255.48 99.473 255.102 99.3037 254.776C99.1383 254.449 98.8805 254.195 98.5301 254.014C98.1836 253.829 97.7368 253.736 97.1895 253.736H95.1816V264H92.9907Z" fill="black"/>
<path d="M78.6737 272.073L79.9789 274.244H80.0252L81.3361 272.073H82.5602L80.7342 275.037L82.5892 278H81.3448L80.0252 275.844H79.9789L78.6592 278H77.4206L79.293 275.037L77.4438 272.073H78.6737ZM84.6255 278V272.073H86.848C87.3033 272.073 87.6853 272.152 87.994 272.311C88.3046 272.469 88.539 272.691 88.6972 272.976C88.8573 273.26 88.9374 273.591 88.9374 273.969C88.9374 274.349 88.8564 274.679 88.6943 274.958C88.5342 275.236 88.2978 275.451 87.9853 275.604C87.6728 275.754 87.2888 275.83 86.8335 275.83H85.2506V274.938H86.6888C86.9551 274.938 87.1731 274.902 87.3429 274.828C87.5126 274.753 87.638 274.644 87.7191 274.501C87.802 274.357 87.8435 274.179 87.8435 273.969C87.8435 273.758 87.802 273.579 87.7191 273.431C87.6361 273.28 87.5097 273.166 87.34 273.089C87.1702 273.01 86.9512 272.97 86.683 272.97H85.6991V278H84.6255ZM87.6872 275.314L89.1544 278H87.9564L86.5152 275.314H87.6872ZM91.1481 278V272.073H93.3706C93.8259 272.073 94.2079 272.158 94.5166 272.328C94.8272 272.498 95.0616 272.731 95.2198 273.028C95.3799 273.323 95.46 273.659 95.46 274.035C95.46 274.415 95.3799 274.753 95.2198 275.048C95.0597 275.343 94.8233 275.576 94.5108 275.746C94.1982 275.913 93.8133 275.997 93.3561 275.997H91.8831V275.115H93.2114C93.4777 275.115 93.6957 275.068 93.8654 274.976C94.0352 274.883 94.1606 274.756 94.2416 274.594C94.3246 274.432 94.3661 274.246 94.3661 274.035C94.3661 273.825 94.3246 273.64 94.2416 273.48C94.1606 273.32 94.0342 273.195 93.8625 273.106C93.6928 273.016 93.4738 272.97 93.2056 272.97H92.2217V278H91.1481Z" fill="#5E5E5E"/>
<path d="M76.454 283.599V284.137H74.5771V283.599H76.454ZM78.7433 286.055C78.4167 286.054 78.1376 285.968 77.9061 285.797C77.6746 285.626 77.4975 285.377 77.3749 285.051C77.2522 284.724 77.1909 284.331 77.1909 283.87C77.1909 283.411 77.2522 283.019 77.3749 282.694C77.4989 282.369 77.6766 282.121 77.9082 281.95C78.1411 281.779 78.4194 281.694 78.7433 281.694C79.0671 281.694 79.3448 281.78 79.5763 281.952C79.8078 282.123 79.9849 282.371 80.1075 282.696C80.2316 283.02 80.2936 283.411 80.2936 283.87C80.2936 284.332 80.2322 284.726 80.1096 285.053C79.987 285.378 79.8099 285.627 79.5784 285.799C79.3468 285.97 79.0685 286.055 78.7433 286.055ZM78.7433 285.503C79.0299 285.503 79.2538 285.363 79.4151 285.084C79.5777 284.804 79.659 284.399 79.659 283.87C79.659 283.519 79.6218 283.222 79.5474 282.979C79.4743 282.735 79.3689 282.551 79.2311 282.425C79.0947 282.299 78.9321 282.235 78.7433 282.235C78.458 282.235 78.2341 282.376 78.0715 282.657C77.9088 282.938 77.8269 283.342 77.8255 283.87C77.8255 284.223 77.862 284.521 77.935 284.765C78.0094 285.008 78.1149 285.192 78.2513 285.317C78.3877 285.441 78.5517 285.503 78.7433 285.503ZM81.0269 285.985V285.522L82.4594 284.038C82.6123 283.876 82.7384 283.735 82.8376 283.614C82.9382 283.491 83.0133 283.375 83.0629 283.265C83.1125 283.154 83.1374 283.037 83.1374 282.913C83.1374 282.773 83.1043 282.651 83.0381 282.549C82.972 282.446 82.8817 282.367 82.7673 282.312C82.653 282.255 82.5241 282.227 82.3808 282.227C82.2292 282.227 82.0969 282.258 81.9839 282.32C81.8709 282.382 81.7841 282.469 81.7235 282.582C81.6628 282.695 81.6325 282.828 81.6325 282.979H81.0227C81.0227 282.722 81.082 282.496 81.2005 282.303C81.319 282.11 81.4816 281.961 81.6883 281.855C81.895 281.747 82.13 281.694 82.3932 281.694C82.6592 281.694 82.8934 281.747 83.096 281.853C83.3 281.958 83.4591 282.101 83.5735 282.283C83.6879 282.463 83.7451 282.667 83.7451 282.895C83.7451 283.052 83.7154 283.205 83.6562 283.356C83.5983 283.506 83.497 283.673 83.3523 283.858C83.2076 284.041 83.0064 284.264 82.7487 284.526L81.9074 285.406V285.437H83.8133V285.985H81.0269ZM85.0122 286.024C84.8992 286.024 84.802 285.984 84.7207 285.904C84.6394 285.823 84.5988 285.725 84.5988 285.611C84.5988 285.498 84.6394 285.401 84.7207 285.321C84.802 285.24 84.8992 285.199 85.0122 285.199C85.1252 285.199 85.2223 285.24 85.3037 285.321C85.385 285.401 85.4256 285.498 85.4256 285.611C85.4256 285.687 85.4063 285.756 85.3677 285.819C85.3305 285.882 85.2809 285.931 85.2189 285.968C85.1569 286.006 85.088 286.024 85.0122 286.024ZM87.5656 286.055C87.239 286.054 86.9599 285.968 86.7284 285.797C86.4969 285.626 86.3198 285.377 86.1971 285.051C86.0745 284.724 86.0132 284.331 86.0132 283.87C86.0132 283.411 86.0745 283.019 86.1971 282.694C86.3212 282.369 86.4989 282.121 86.7305 281.95C86.9633 281.779 87.2417 281.694 87.5656 281.694C87.8894 281.694 88.1671 281.78 88.3986 281.952C88.6301 282.123 88.8072 282.371 88.9298 282.696C89.0539 283.02 89.1159 283.411 89.1159 283.87C89.1159 284.332 89.0545 284.726 88.9319 285.053C88.8092 285.378 88.6322 285.627 88.4007 285.799C88.1691 285.97 87.8908 286.055 87.5656 286.055ZM87.5656 285.503C87.8522 285.503 88.0761 285.363 88.2374 285.084C88.4 284.804 88.4813 284.399 88.4813 283.87C88.4813 283.519 88.4441 283.222 88.3696 282.979C88.2966 282.735 88.1912 282.551 88.0534 282.425C87.917 282.299 87.7543 282.235 87.5656 282.235C87.2803 282.235 87.0564 282.376 86.8938 282.657C86.7311 282.938 86.6491 283.342 86.6478 283.87C86.6478 284.223 86.6843 284.521 86.7573 284.765C86.8317 285.008 86.9372 285.192 87.0736 285.317C87.21 285.441 87.374 285.503 87.5656 285.503ZM89.8492 285.985V285.522L91.2816 284.038C91.4346 283.876 91.5607 283.735 91.6599 283.614C91.7605 283.491 91.8356 283.375 91.8852 283.265C91.9348 283.154 91.9596 283.037 91.9596 282.913C91.9596 282.773 91.9266 282.651 91.8604 282.549C91.7943 282.446 91.704 282.367 91.5896 282.312C91.4753 282.255 91.3464 282.227 91.2031 282.227C91.0515 282.227 90.9192 282.258 90.8062 282.32C90.6932 282.382 90.6064 282.469 90.5458 282.582C90.4851 282.695 90.4548 282.828 90.4548 282.979H89.845C89.845 282.722 89.9043 282.496 90.0228 282.303C90.1413 282.11 90.3039 281.961 90.5106 281.855C90.7173 281.747 90.9523 281.694 91.2155 281.694C91.4815 281.694 91.7157 281.747 91.9183 281.853C92.1223 281.958 92.2814 282.101 92.3958 282.283C92.5102 282.463 92.5674 282.667 92.5674 282.895C92.5674 283.052 92.5377 283.205 92.4785 283.356C92.4206 283.506 92.3193 283.673 92.1746 283.858C92.0299 284.041 91.8287 284.264 91.571 284.526L90.7297 285.406V285.437H92.6356V285.985H89.8492ZM95.6287 285.191V284.968C95.6287 284.808 95.6618 284.662 95.7279 284.53C95.7955 284.396 95.8933 284.289 96.0215 284.209C96.151 284.128 96.3074 284.087 96.4907 284.087C96.6781 284.087 96.8352 284.127 96.962 284.207C97.0888 284.287 97.1845 284.394 97.2493 284.528C97.3155 284.661 97.3485 284.808 97.3485 284.968V285.191C97.3485 285.351 97.3155 285.498 97.2493 285.631C97.1832 285.764 97.086 285.87 96.9578 285.952C96.8311 286.032 96.6753 286.072 96.4907 286.072C96.3046 286.072 96.1476 286.032 96.0194 285.952C95.8912 285.87 95.7941 285.764 95.7279 285.631C95.6618 285.498 95.6287 285.351 95.6287 285.191ZM96.1103 284.968V285.191C96.1103 285.31 96.1386 285.417 96.1951 285.514C96.2516 285.61 96.3501 285.658 96.4907 285.658C96.6299 285.658 96.727 285.61 96.7821 285.514C96.8373 285.417 96.8648 285.31 96.8648 285.191V284.968C96.8648 284.849 96.838 284.742 96.7842 284.645C96.7318 284.549 96.634 284.501 96.4907 284.501C96.3529 284.501 96.255 284.549 96.1972 284.645C96.1393 284.742 96.1103 284.849 96.1103 284.968ZM93.4996 282.768V282.545C93.4996 282.385 93.5327 282.239 93.5988 282.105C93.6664 281.971 93.7642 281.864 93.8924 281.785C94.0219 281.705 94.1783 281.665 94.3616 281.665C94.549 281.665 94.7061 281.705 94.8329 281.785C94.9597 281.864 95.0554 281.971 95.1202 282.105C95.185 282.239 95.2174 282.385 95.2174 282.545V282.768C95.2174 282.928 95.1843 283.075 95.1181 283.209C95.0534 283.341 94.9569 283.448 94.8288 283.529C94.702 283.609 94.5463 283.649 94.3616 283.649C94.1742 283.649 94.0164 283.609 93.8882 283.529C93.7615 283.448 93.665 283.341 93.5988 283.209C93.5327 283.075 93.4996 282.928 93.4996 282.768ZM93.9833 282.545V282.768C93.9833 282.887 94.0109 282.994 94.066 283.091C94.1225 283.187 94.221 283.236 94.3616 283.236C94.4994 283.236 94.5959 283.187 94.651 283.091C94.7075 282.994 94.7357 282.887 94.7357 282.768V282.545C94.7357 282.427 94.7089 282.319 94.6551 282.223C94.6014 282.126 94.5035 282.078 94.3616 282.078C94.2238 282.078 94.1259 282.126 94.0681 282.223C94.0116 282.319 93.9833 282.427 93.9833 282.545ZM93.696 285.985L96.6064 281.751H97.1005L94.19 285.985H93.696Z" fill="#555555"/>
<g filter="url(#filter1_d_450_2878)">
<circle cx="180.746" cy="371.746" r="59.7465" fill="#FDFDFD"/>
<circle cx="180.746" cy="371.746" r="58.2465" stroke="#9A9A9A" stroke-opacity="0.08" stroke-width="3"/>
</g>
<path d="M159.562 347.818H162.856V359.697C162.856 360.999 162.548 362.144 161.933 363.132C161.323 364.121 160.465 364.893 159.358 365.45C158.251 366 156.958 366.275 155.478 366.275C153.993 366.275 152.697 366 151.59 365.45C150.483 364.893 149.625 364.121 149.015 363.132C148.406 362.144 148.101 360.999 148.101 359.697V347.818H151.395V359.422C151.395 360.179 151.56 360.854 151.892 361.446C152.229 362.038 152.703 362.502 153.312 362.839C153.922 363.171 154.644 363.337 155.478 363.337C156.313 363.337 157.035 363.171 157.645 362.839C158.26 362.502 158.734 362.038 159.065 361.446C159.397 360.854 159.562 360.179 159.562 359.422V347.818ZM176.317 352.816C176.234 352.041 175.885 351.437 175.269 351.005C174.66 350.573 173.867 350.357 172.89 350.357C172.204 350.357 171.615 350.461 171.123 350.668C170.632 350.875 170.256 351.156 169.996 351.511C169.735 351.866 169.602 352.272 169.596 352.728C169.596 353.106 169.682 353.435 169.854 353.713C170.031 353.991 170.271 354.228 170.573 354.423C170.875 354.613 171.209 354.772 171.576 354.903C171.943 355.033 172.313 355.142 172.686 355.231L174.39 355.657C175.077 355.817 175.737 356.033 176.37 356.305C177.009 356.578 177.581 356.921 178.084 357.335C178.593 357.75 178.995 358.25 179.291 358.836C179.587 359.422 179.735 360.108 179.735 360.895C179.735 361.961 179.463 362.899 178.918 363.71C178.374 364.514 177.586 365.145 176.557 365.6C175.533 366.05 174.293 366.275 172.837 366.275C171.422 366.275 170.194 366.056 169.153 365.618C168.117 365.18 167.306 364.541 166.72 363.701C166.14 362.86 165.826 361.836 165.779 360.629H169.019C169.067 361.262 169.262 361.789 169.605 362.209C169.949 362.629 170.395 362.943 170.946 363.15C171.502 363.357 172.124 363.461 172.81 363.461C173.526 363.461 174.154 363.354 174.692 363.141C175.237 362.922 175.663 362.621 175.971 362.236C176.278 361.845 176.435 361.389 176.441 360.869C176.435 360.395 176.296 360.004 176.024 359.697C175.752 359.383 175.37 359.123 174.879 358.915C174.393 358.702 173.825 358.513 173.174 358.347L171.106 357.815C169.608 357.43 168.425 356.847 167.555 356.066C166.69 355.279 166.258 354.234 166.258 352.932C166.258 351.861 166.548 350.922 167.128 350.118C167.714 349.313 168.51 348.688 169.517 348.244C170.523 347.795 171.662 347.57 172.934 347.57C174.225 347.57 175.355 347.795 176.326 348.244C177.302 348.688 178.069 349.307 178.625 350.1C179.182 350.887 179.469 351.792 179.486 352.816H176.317ZM188.832 366H182.671V347.818H188.957C190.762 347.818 192.313 348.182 193.609 348.91C194.911 349.632 195.911 350.671 196.609 352.026C197.308 353.382 197.657 355.003 197.657 356.891C197.657 358.785 197.305 360.413 196.601 361.774C195.902 363.135 194.893 364.18 193.573 364.908C192.259 365.636 190.679 366 188.832 366ZM185.965 363.15H188.673C189.939 363.15 190.996 362.919 191.842 362.458C192.688 361.99 193.325 361.295 193.751 360.371C194.177 359.442 194.39 358.282 194.39 356.891C194.39 355.5 194.177 354.346 193.751 353.429C193.325 352.506 192.694 351.816 191.86 351.36C191.031 350.899 190.001 350.668 188.77 350.668H185.965V363.15ZM199.182 350.579V347.818H213.688V350.579H208.069V366H204.801V350.579H199.182Z" fill="black"/>
<path d="M150.049 382.364V380.818H158.172V382.364H155.025V391H153.196V382.364H150.049ZM161.138 391V380.818H167.76V382.364H162.983V385.129H167.417V386.675H162.983V389.454H167.8V391H161.138ZM170.595 382.364V380.818H178.718V382.364H175.571V391H173.742V382.364H170.595ZM181.684 391V380.818H183.529V385.129H188.247V380.818H190.096V391H188.247V386.675H183.529V391H181.684ZM193.502 391V380.818H200.124V382.364H195.347V385.129H199.781V386.675H195.347V389.454H200.164V391H193.502ZM203.406 391V380.818H207.224C208.006 380.818 208.663 380.954 209.193 381.226C209.727 381.498 210.129 381.879 210.401 382.369C210.676 382.857 210.814 383.425 210.814 384.075C210.814 384.728 210.675 385.294 210.396 385.775C210.121 386.252 209.715 386.622 209.178 386.884C208.641 387.142 207.982 387.271 207.199 387.271H204.48V385.74H206.951C207.408 385.74 207.783 385.677 208.074 385.551C208.366 385.422 208.582 385.235 208.721 384.989C208.863 384.741 208.935 384.436 208.935 384.075C208.935 383.713 208.863 383.405 208.721 383.15C208.578 382.891 208.361 382.696 208.069 382.563C207.778 382.427 207.402 382.359 206.941 382.359H205.251V391H203.406ZM208.666 386.386L211.187 391H209.128L206.653 386.386H208.666Z" fill="#5E5E5E"/>
<path d="M163.1 402.902V403.825H159.875V402.902H163.1ZM167.033 407.121C166.472 407.118 165.992 406.97 165.595 406.677C165.197 406.383 164.893 405.956 164.682 405.395C164.471 404.834 164.366 404.158 164.366 403.367C164.366 402.579 164.471 401.905 164.682 401.347C164.895 400.788 165.2 400.362 165.598 400.068C165.998 399.775 166.476 399.628 167.033 399.628C167.589 399.628 168.066 399.776 168.464 400.072C168.862 400.365 169.166 400.791 169.377 401.35C169.59 401.906 169.696 402.579 169.696 403.367C169.696 404.16 169.591 404.837 169.38 405.398C169.169 405.957 168.865 406.384 168.467 406.68C168.07 406.974 167.592 407.121 167.033 407.121ZM167.033 406.173C167.525 406.173 167.91 405.932 168.187 405.452C168.466 404.971 168.606 404.276 168.606 403.367C168.606 402.763 168.542 402.253 168.414 401.837C168.289 401.418 168.108 401.1 167.871 400.885C167.636 400.667 167.357 400.558 167.033 400.558C166.543 400.558 166.158 400.8 165.879 401.283C165.599 401.766 165.458 402.46 165.456 403.367C165.456 403.973 165.519 404.486 165.644 404.905C165.772 405.321 165.953 405.638 166.188 405.853C166.422 406.066 166.704 406.173 167.033 406.173ZM170.956 407V406.205L173.417 403.655C173.68 403.378 173.896 403.135 174.067 402.927C174.24 402.716 174.369 402.516 174.454 402.327C174.539 402.137 174.582 401.936 174.582 401.723C174.582 401.482 174.525 401.273 174.411 401.098C174.298 400.92 174.142 400.784 173.946 400.69C173.749 400.593 173.528 400.544 173.282 400.544C173.021 400.544 172.794 400.597 172.6 400.704C172.406 400.81 172.257 400.961 172.153 401.155C172.048 401.349 171.996 401.576 171.996 401.837H170.949C170.949 401.394 171.051 401.007 171.254 400.675C171.458 400.344 171.737 400.087 172.092 399.905C172.447 399.72 172.851 399.628 173.303 399.628C173.76 399.628 174.163 399.719 174.511 399.901C174.861 400.081 175.134 400.327 175.331 400.64C175.527 400.95 175.626 401.3 175.626 401.691C175.626 401.961 175.575 402.225 175.473 402.483C175.374 402.741 175.2 403.029 174.951 403.346C174.702 403.661 174.357 404.043 173.914 404.493L172.469 406.006V406.059H175.743V407H170.956ZM177.803 407.067C177.608 407.067 177.441 406.999 177.302 406.862C177.162 406.722 177.092 406.554 177.092 406.357C177.092 406.163 177.162 405.997 177.302 405.86C177.441 405.72 177.608 405.651 177.803 405.651C177.997 405.651 178.164 405.72 178.303 405.86C178.443 405.997 178.513 406.163 178.513 406.357C178.513 406.487 178.48 406.607 178.413 406.716C178.349 406.822 178.264 406.908 178.158 406.972C178.051 407.036 177.933 407.067 177.803 407.067ZM182.189 407.121C181.628 407.118 181.149 406.97 180.751 406.677C180.353 406.383 180.049 405.956 179.838 405.395C179.628 404.834 179.522 404.158 179.522 403.367C179.522 402.579 179.628 401.905 179.838 401.347C180.051 400.788 180.357 400.362 180.754 400.068C181.154 399.775 181.633 399.628 182.189 399.628C182.745 399.628 183.222 399.776 183.62 400.072C184.018 400.365 184.322 400.791 184.533 401.35C184.746 401.906 184.852 402.579 184.852 403.367C184.852 404.16 184.747 404.837 184.536 405.398C184.326 405.957 184.021 406.384 183.624 406.68C183.226 406.974 182.748 407.121 182.189 407.121ZM182.189 406.173C182.681 406.173 183.066 405.932 183.343 405.452C183.623 404.971 183.762 404.276 183.762 403.367C183.762 402.763 183.698 402.253 183.57 401.837C183.445 401.418 183.264 401.1 183.027 400.885C182.793 400.667 182.513 400.558 182.189 400.558C181.699 400.558 181.314 400.8 181.035 401.283C180.756 401.766 180.615 402.46 180.612 403.367C180.612 403.973 180.675 404.486 180.801 404.905C180.928 405.321 181.11 405.638 181.344 405.853C181.578 406.066 181.86 406.173 182.189 406.173ZM186.112 407V406.205L188.573 403.655C188.836 403.378 189.053 403.135 189.223 402.927C189.396 402.716 189.525 402.516 189.61 402.327C189.695 402.137 189.738 401.936 189.738 401.723C189.738 401.482 189.681 401.273 189.567 401.098C189.454 400.92 189.299 400.784 189.102 400.69C188.906 400.593 188.684 400.544 188.438 400.544C188.178 400.544 187.95 400.597 187.756 400.704C187.562 400.81 187.413 400.961 187.309 401.155C187.205 401.349 187.153 401.576 187.153 401.837H186.105C186.105 401.394 186.207 401.007 186.41 400.675C186.614 400.344 186.893 400.087 187.249 399.905C187.604 399.72 188.007 399.628 188.459 399.628C188.916 399.628 189.319 399.719 189.667 399.901C190.017 400.081 190.291 400.327 190.487 400.64C190.684 400.95 190.782 401.3 190.782 401.691C190.782 401.961 190.731 402.225 190.629 402.483C190.53 402.741 190.356 403.029 190.107 403.346C189.859 403.661 189.513 404.043 189.07 404.493L187.625 406.006V406.059H190.899V407H186.112ZM196.041 405.636V405.253C196.041 404.978 196.098 404.727 196.212 404.5C196.328 404.27 196.496 404.087 196.716 403.95C196.938 403.81 197.207 403.74 197.522 403.74C197.844 403.74 198.114 403.809 198.332 403.946C198.549 404.083 198.714 404.267 198.825 404.496C198.939 404.726 198.996 404.978 198.996 405.253V405.636C198.996 405.911 198.939 406.163 198.825 406.393C198.712 406.62 198.545 406.804 198.325 406.943C198.107 407.08 197.839 407.149 197.522 407.149C197.202 407.149 196.932 407.08 196.712 406.943C196.492 406.804 196.325 406.62 196.212 406.393C196.098 406.163 196.041 405.911 196.041 405.636ZM196.869 405.253V405.636C196.869 405.84 196.917 406.025 197.014 406.19C197.111 406.356 197.28 406.439 197.522 406.439C197.761 406.439 197.928 406.356 198.023 406.19C198.117 406.025 198.165 405.84 198.165 405.636V405.253C198.165 405.049 198.119 404.865 198.026 404.699C197.936 404.533 197.768 404.45 197.522 404.45C197.285 404.45 197.117 404.533 197.018 404.699C196.918 404.865 196.869 405.049 196.869 405.253ZM192.383 401.474V401.091C192.383 400.816 192.44 400.564 192.554 400.335C192.67 400.105 192.838 399.921 193.058 399.784C193.281 399.647 193.549 399.578 193.864 399.578C194.186 399.578 194.456 399.647 194.674 399.784C194.892 399.921 195.056 400.105 195.168 400.335C195.279 400.564 195.334 400.816 195.334 401.091V401.474C195.334 401.749 195.278 402.001 195.164 402.231C195.053 402.458 194.887 402.642 194.667 402.781C194.449 402.919 194.182 402.987 193.864 402.987C193.542 402.987 193.271 402.919 193.051 402.781C192.833 402.642 192.668 402.458 192.554 402.231C192.44 402.001 192.383 401.749 192.383 401.474ZM193.214 401.091V401.474C193.214 401.678 193.262 401.863 193.356 402.028C193.454 402.194 193.623 402.277 193.864 402.277C194.101 402.277 194.267 402.194 194.361 402.028C194.459 401.863 194.507 401.678 194.507 401.474V401.091C194.507 400.887 194.461 400.703 194.369 400.537C194.276 400.371 194.108 400.288 193.864 400.288C193.628 400.288 193.459 400.371 193.36 400.537C193.263 400.703 193.214 400.887 193.214 401.091ZM192.721 407L197.721 399.727H198.57L193.57 407H192.721Z" fill="#555555"/>
<circle cx="361.746" cy="131.746" r="59.7465" fill="#FDFDFD"/>
<circle cx="361.746" cy="131.746" r="58.2465" stroke="#D1D3D4" stroke-opacity="0.2" stroke-width="3"/>
<path d="M339.966 120V104H346.091C347.247 104 348.208 104.182 348.974 104.547C349.744 104.906 350.32 105.398 350.7 106.023C351.086 106.648 351.278 107.357 351.278 108.148C351.278 108.799 351.153 109.357 350.903 109.82C350.653 110.279 350.317 110.651 349.896 110.937C349.474 111.224 349.002 111.43 348.481 111.555V111.711C349.049 111.742 349.593 111.917 350.114 112.234C350.64 112.547 351.07 112.99 351.403 113.562C351.737 114.135 351.903 114.828 351.903 115.641C351.903 116.469 351.703 117.214 351.302 117.875C350.901 118.531 350.297 119.049 349.489 119.43C348.682 119.81 347.666 120 346.442 120H339.966ZM342.864 117.578H345.981C347.034 117.578 347.791 117.378 348.255 116.977C348.724 116.57 348.958 116.049 348.958 115.414C348.958 114.94 348.841 114.513 348.606 114.133C348.372 113.747 348.039 113.445 347.606 113.227C347.174 113.003 346.659 112.891 346.06 112.891H342.864V117.578ZM342.864 110.805H345.731C346.231 110.805 346.682 110.714 347.083 110.531C347.484 110.344 347.799 110.081 348.028 109.742C348.263 109.398 348.38 108.992 348.38 108.523C348.38 107.904 348.161 107.393 347.724 106.992C347.291 106.591 346.648 106.391 345.794 106.391H342.864V110.805ZM367.573 104V120H364.995L357.456 109.102H357.323V120H354.425V104H357.019L364.55 114.906H364.69V104H367.573ZM370.731 120V104H376.856C378.013 104 378.974 104.182 379.739 104.547C380.51 104.906 381.086 105.398 381.466 106.023C381.851 106.648 382.044 107.357 382.044 108.148C382.044 108.799 381.919 109.357 381.669 109.82C381.419 110.279 381.083 110.651 380.661 110.937C380.239 111.224 379.768 111.43 379.247 111.555V111.711C379.815 111.742 380.359 111.917 380.88 112.234C381.406 112.547 381.836 112.99 382.169 113.562C382.502 114.135 382.669 114.828 382.669 115.641C382.669 116.469 382.468 117.214 382.067 117.875C381.666 118.531 381.062 119.049 380.255 119.43C379.448 119.81 378.432 120 377.208 120H370.731ZM373.63 117.578H376.747C377.799 117.578 378.557 117.378 379.021 116.977C379.489 116.57 379.724 116.049 379.724 115.414C379.724 114.94 379.606 114.513 379.372 114.133C379.138 113.747 378.804 113.445 378.372 113.227C377.94 113.003 377.424 112.891 376.825 112.891H373.63V117.578ZM373.63 110.805H376.497C376.997 110.805 377.448 110.714 377.849 110.531C378.25 110.344 378.565 110.081 378.794 109.742C379.028 109.398 379.146 108.992 379.146 108.523C379.146 107.904 378.927 107.393 378.489 106.992C378.057 106.591 377.414 106.391 376.56 106.391H373.63V110.805Z" fill="black"/>
<path d="M325.286 146V135.818H329.184C329.92 135.818 330.531 135.934 331.019 136.166C331.509 136.395 331.875 136.708 332.117 137.106C332.363 137.504 332.485 137.954 332.485 138.458C332.485 138.872 332.406 139.227 332.247 139.522C332.087 139.814 331.874 140.051 331.605 140.233C331.337 140.415 331.037 140.546 330.705 140.626V140.725C331.067 140.745 331.413 140.856 331.744 141.058C332.079 141.257 332.353 141.539 332.565 141.903C332.777 142.268 332.883 142.709 332.883 143.226C332.883 143.753 332.755 144.227 332.5 144.648C332.245 145.065 331.86 145.395 331.347 145.637C330.833 145.879 330.187 146 329.408 146H325.286ZM327.131 144.459H329.114C329.784 144.459 330.266 144.331 330.561 144.076C330.859 143.817 331.009 143.486 331.009 143.082C331.009 142.78 330.934 142.508 330.785 142.266C330.636 142.021 330.424 141.829 330.149 141.69C329.873 141.547 329.545 141.476 329.164 141.476H327.131V144.459ZM327.131 140.148H328.955C329.274 140.148 329.56 140.09 329.815 139.974C330.071 139.855 330.271 139.688 330.417 139.472C330.566 139.254 330.641 138.995 330.641 138.697C330.641 138.302 330.501 137.978 330.223 137.722C329.948 137.467 329.539 137.339 328.995 137.339H327.131V140.148ZM338.432 135.818V146H336.587V135.818H338.432ZM350.896 135.818V146H349.256L344.458 139.065H344.374V146H342.529V135.818H344.18L348.972 142.759H349.062V135.818H350.896ZM356.314 146H354.345L357.93 135.818H360.206L363.796 146H361.827L359.108 137.906H359.028L356.314 146ZM356.378 142.008H361.748V143.489H356.378V142.008ZM375.604 135.818V146H373.964L369.166 139.065H369.082V146H367.237V135.818H368.888L373.68 142.759H373.77V135.818H375.604ZM388.429 139.254H386.57C386.517 138.949 386.419 138.679 386.277 138.443C386.134 138.205 385.957 138.002 385.745 137.837C385.532 137.671 385.29 137.547 385.019 137.464C384.75 137.378 384.46 137.335 384.149 137.335C383.595 137.335 383.105 137.474 382.677 137.752C382.25 138.027 381.915 138.432 381.673 138.965C381.431 139.496 381.31 140.143 381.31 140.909C381.31 141.688 381.431 142.344 381.673 142.878C381.918 143.408 382.253 143.809 382.677 144.081C383.105 144.349 383.594 144.484 384.144 144.484C384.449 144.484 384.734 144.444 384.999 144.364C385.267 144.281 385.508 144.161 385.72 144.001C385.935 143.842 386.116 143.647 386.262 143.415C386.411 143.183 386.514 142.918 386.57 142.619L388.429 142.629C388.36 143.113 388.209 143.567 387.977 143.991C387.748 144.416 387.448 144.79 387.077 145.115C386.706 145.437 386.272 145.688 385.774 145.871C385.277 146.05 384.725 146.139 384.119 146.139C383.224 146.139 382.425 145.932 381.723 145.518C381.02 145.103 380.466 144.505 380.062 143.723C379.658 142.941 379.456 142.003 379.456 140.909C379.456 139.812 379.659 138.874 380.067 138.095C380.475 137.313 381.03 136.715 381.732 136.3C382.435 135.886 383.231 135.679 384.119 135.679C384.686 135.679 385.213 135.759 385.7 135.918C386.187 136.077 386.621 136.31 387.002 136.619C387.384 136.924 387.697 137.298 387.942 137.742C388.191 138.183 388.353 138.687 388.429 139.254ZM392.218 146V135.818H398.84V137.364H394.063V140.129H398.497V141.675H394.063V144.454H398.88V146H392.218Z" fill="#5E5E5E"/>
<path d="M346.1 160.902V161.825H342.876V160.902H346.1ZM350.033 165.121C349.472 165.118 348.993 164.97 348.595 164.677C348.197 164.383 347.893 163.956 347.682 163.395C347.472 162.834 347.366 162.158 347.366 161.367C347.366 160.579 347.472 159.905 347.682 159.347C347.896 158.788 348.201 158.362 348.599 158.068C348.999 157.775 349.477 157.628 350.033 157.628C350.59 157.628 351.067 157.776 351.464 158.072C351.862 158.365 352.166 158.791 352.377 159.35C352.59 159.906 352.697 160.579 352.697 161.367C352.697 162.16 352.591 162.837 352.381 163.398C352.17 163.957 351.866 164.384 351.468 164.68C351.07 164.974 350.592 165.121 350.033 165.121ZM350.033 164.173C350.526 164.173 350.91 163.932 351.187 163.452C351.467 162.971 351.606 162.276 351.606 161.367C351.606 160.763 351.543 160.253 351.415 159.837C351.289 159.418 351.108 159.1 350.871 158.885C350.637 158.667 350.358 158.558 350.033 158.558C349.543 158.558 349.159 158.8 348.879 159.283C348.6 159.766 348.459 160.46 348.457 161.367C348.457 161.973 348.519 162.486 348.645 162.905C348.773 163.321 348.954 163.638 349.188 163.853C349.422 164.066 349.704 164.173 350.033 164.173ZM353.956 165V164.205L356.417 161.655C356.68 161.378 356.897 161.135 357.067 160.927C357.24 160.716 357.369 160.516 357.454 160.327C357.54 160.137 357.582 159.936 357.582 159.723C357.582 159.482 357.525 159.273 357.412 159.098C357.298 158.92 357.143 158.784 356.946 158.69C356.75 158.593 356.529 158.544 356.282 158.544C356.022 158.544 355.795 158.597 355.601 158.704C355.406 158.81 355.257 158.961 355.153 159.155C355.049 159.349 354.997 159.576 354.997 159.837H353.949C353.949 159.394 354.051 159.007 354.255 158.675C354.458 158.344 354.738 158.087 355.093 157.905C355.448 157.72 355.852 157.628 356.304 157.628C356.761 157.628 357.163 157.719 357.511 157.901C357.861 158.081 358.135 158.327 358.331 158.64C358.528 158.95 358.626 159.3 358.626 159.691C358.626 159.961 358.575 160.225 358.473 160.483C358.374 160.741 358.2 161.029 357.951 161.346C357.703 161.661 357.357 162.043 356.915 162.493L355.469 164.006V164.059H358.743V165H353.956ZM360.803 165.067C360.609 165.067 360.442 164.999 360.302 164.862C360.163 164.722 360.093 164.554 360.093 164.357C360.093 164.163 360.163 163.997 360.302 163.86C360.442 163.72 360.609 163.651 360.803 163.651C360.997 163.651 361.164 163.72 361.304 163.86C361.443 163.997 361.513 164.163 361.513 164.357C361.513 164.487 361.48 164.607 361.414 164.716C361.35 164.822 361.265 164.908 361.158 164.972C361.052 165.036 360.933 165.067 360.803 165.067ZM365.19 165.121C364.628 165.118 364.149 164.97 363.751 164.677C363.354 164.383 363.049 163.956 362.839 163.395C362.628 162.834 362.523 162.158 362.523 161.367C362.523 160.579 362.628 159.905 362.839 159.347C363.052 158.788 363.357 158.362 363.755 158.068C364.155 157.775 364.633 157.628 365.19 157.628C365.746 157.628 366.223 157.776 366.621 158.072C367.018 158.365 367.323 158.791 367.533 159.35C367.746 159.906 367.853 160.579 367.853 161.367C367.853 162.16 367.748 162.837 367.537 163.398C367.326 163.957 367.022 164.384 366.624 164.68C366.226 164.974 365.748 165.121 365.19 165.121ZM365.19 164.173C365.682 164.173 366.067 163.932 366.344 163.452C366.623 162.971 366.763 162.276 366.763 161.367C366.763 160.763 366.699 160.253 366.571 159.837C366.445 159.418 366.264 159.1 366.028 158.885C365.793 158.667 365.514 158.558 365.19 158.558C364.699 158.558 364.315 158.8 364.035 159.283C363.756 159.766 363.615 160.46 363.613 161.367C363.613 161.973 363.676 162.486 363.801 162.905C363.929 163.321 364.11 163.638 364.344 163.853C364.579 164.066 364.86 164.173 365.19 164.173ZM369.113 165V164.205L371.574 161.655C371.836 161.378 372.053 161.135 372.223 160.927C372.396 160.716 372.525 160.516 372.611 160.327C372.696 160.137 372.738 159.936 372.738 159.723C372.738 159.482 372.682 159.273 372.568 159.098C372.454 158.92 372.299 158.784 372.103 158.69C371.906 158.593 371.685 158.544 371.439 158.544C371.178 158.544 370.951 158.597 370.757 158.704C370.563 158.81 370.414 158.961 370.309 159.155C370.205 159.349 370.153 159.576 370.153 159.837H369.106C369.106 159.394 369.207 159.007 369.411 158.675C369.615 158.344 369.894 158.087 370.249 157.905C370.604 157.72 371.008 157.628 371.46 157.628C371.917 157.628 372.319 157.719 372.667 157.901C373.018 158.081 373.291 158.327 373.488 158.64C373.684 158.95 373.782 159.3 373.782 159.691C373.782 159.961 373.732 160.225 373.63 160.483C373.53 160.741 373.356 161.029 373.108 161.346C372.859 161.661 372.513 162.043 372.071 162.493L370.625 164.006V164.059H373.9V165H369.113ZM379.042 163.636V163.253C379.042 162.978 379.098 162.727 379.212 162.5C379.328 162.27 379.496 162.087 379.716 161.95C379.939 161.81 380.208 161.74 380.522 161.74C380.844 161.74 381.114 161.809 381.332 161.946C381.55 162.083 381.714 162.267 381.826 162.496C381.939 162.726 381.996 162.978 381.996 163.253V163.636C381.996 163.911 381.939 164.163 381.826 164.393C381.712 164.62 381.545 164.804 381.325 164.943C381.107 165.08 380.84 165.149 380.522 165.149C380.203 165.149 379.933 165.08 379.713 164.943C379.493 164.804 379.326 164.62 379.212 164.393C379.098 164.163 379.042 163.911 379.042 163.636ZM379.869 163.253V163.636C379.869 163.84 379.918 164.025 380.015 164.19C380.112 164.356 380.281 164.439 380.522 164.439C380.762 164.439 380.928 164.356 381.023 164.19C381.118 164.025 381.165 163.84 381.165 163.636V163.253C381.165 163.049 381.119 162.865 381.027 162.699C380.937 162.533 380.769 162.45 380.522 162.45C380.286 162.45 380.118 162.533 380.018 162.699C379.919 162.865 379.869 163.049 379.869 163.253ZM375.384 159.474V159.091C375.384 158.816 375.441 158.564 375.554 158.335C375.67 158.105 375.839 157.921 376.059 157.784C376.281 157.647 376.55 157.578 376.865 157.578C377.187 157.578 377.457 157.647 377.674 157.784C377.892 157.921 378.057 158.105 378.168 158.335C378.279 158.564 378.335 158.816 378.335 159.091V159.474C378.335 159.749 378.278 160.001 378.165 160.231C378.053 160.458 377.888 160.642 377.667 160.781C377.45 160.919 377.182 160.987 376.865 160.987C376.543 160.987 376.272 160.919 376.052 160.781C375.834 160.642 375.668 160.458 375.554 160.231C375.441 160.001 375.384 159.749 375.384 159.474ZM376.215 159.091V159.474C376.215 159.678 376.262 159.863 376.357 160.028C376.454 160.194 376.623 160.277 376.865 160.277C377.102 160.277 377.267 160.194 377.362 160.028C377.459 159.863 377.508 159.678 377.508 159.474V159.091C377.508 158.887 377.461 158.703 377.369 158.537C377.277 158.371 377.109 158.288 376.865 158.288C376.628 158.288 376.46 158.371 376.361 158.537C376.263 158.703 376.215 158.887 376.215 159.091ZM375.721 165L380.721 157.727H381.57L376.57 165H375.721Z" fill="#555555"/>
<g filter="url(#filter2_d_450_2878)">
<circle cx="363.169" cy="321.169" r="61.169" fill="#FDFDFD"/>
<circle cx="363.169" cy="321.169" r="59.669" stroke="#9A9A9A" stroke-opacity="0.08" stroke-width="3"/>
</g>
<path d="M353.859 289.636H357.548V302.94C357.548 304.399 357.203 305.681 356.514 306.788C355.831 307.895 354.87 308.76 353.63 309.384C352.391 310 350.942 310.308 349.285 310.308C347.621 310.308 346.169 310 344.93 309.384C343.69 308.76 342.729 307.895 342.046 306.788C341.364 305.681 341.022 304.399 341.022 302.94V289.636H344.711V302.632C344.711 303.481 344.897 304.236 345.268 304.899C345.646 305.562 346.176 306.082 346.859 306.46C347.542 306.831 348.35 307.017 349.285 307.017C350.22 307.017 351.028 306.831 351.711 306.46C352.401 306.082 352.931 305.562 353.302 304.899C353.673 304.236 353.859 303.481 353.859 302.632V289.636ZM378.292 289.636V310H375.01L365.415 296.129H365.246V310H361.557V289.636H364.858L374.444 303.517H374.623V289.636H378.292ZM386 289.636V310H382.311V289.636H386Z" fill="black"/>
<path d="M328.057 327.231H329.803V333.529C329.803 334.22 329.64 334.827 329.314 335.351C328.991 335.875 328.536 336.284 327.949 336.579C327.362 336.871 326.676 337.017 325.892 337.017C325.104 337.017 324.417 336.871 323.83 336.579C323.244 336.284 322.789 335.875 322.465 335.351C322.142 334.827 321.98 334.22 321.98 333.529V327.231H323.727V333.383C323.727 333.785 323.815 334.143 323.99 334.456C324.169 334.77 324.42 335.017 324.743 335.195C325.067 335.371 325.45 335.459 325.892 335.459C326.334 335.459 326.717 335.371 327.04 335.195C327.367 335.017 327.618 334.77 327.794 334.456C327.969 334.143 328.057 333.785 328.057 333.383V327.231ZM341.346 327.231V336.871H339.793L335.251 330.305H335.171V336.871H333.425V327.231H334.987L339.525 333.802H339.61V327.231H341.346ZM346.719 327.231V336.871H344.972V327.231H346.719ZM355.572 329.881C355.528 329.47 355.343 329.15 355.016 328.921C354.693 328.692 354.273 328.577 353.755 328.577C353.391 328.577 353.079 328.632 352.818 328.742C352.558 328.852 352.358 329.001 352.22 329.189C352.082 329.378 352.012 329.593 352.008 329.834C352.008 330.035 352.054 330.209 352.145 330.357C352.239 330.504 352.366 330.63 352.526 330.733C352.686 330.834 352.864 330.918 353.058 330.987C353.253 331.056 353.449 331.114 353.646 331.162L354.55 331.387C354.914 331.472 355.264 331.587 355.6 331.731C355.939 331.875 356.242 332.057 356.508 332.277C356.778 332.497 356.992 332.762 357.148 333.073C357.305 333.383 357.384 333.747 357.384 334.165C357.384 334.729 357.239 335.227 356.951 335.657C356.662 336.083 356.245 336.418 355.699 336.659C355.156 336.898 354.498 337.017 353.727 337.017C352.977 337.017 352.325 336.901 351.773 336.669C351.224 336.436 350.794 336.098 350.483 335.652C350.176 335.206 350.01 334.664 349.984 334.023H351.703C351.728 334.359 351.831 334.638 352.013 334.861C352.195 335.084 352.432 335.25 352.724 335.36C353.019 335.47 353.348 335.525 353.712 335.525C354.092 335.525 354.425 335.468 354.71 335.355C354.999 335.239 355.225 335.079 355.388 334.875C355.551 334.668 355.634 334.427 355.638 334.15C355.634 333.899 355.561 333.692 355.416 333.529C355.272 333.363 355.07 333.225 354.809 333.115C354.552 333.002 354.251 332.902 353.905 332.814L352.809 332.531C352.015 332.327 351.387 332.018 350.926 331.604C350.468 331.187 350.239 330.633 350.239 329.942C350.239 329.374 350.392 328.877 350.7 328.45C351.011 328.024 351.433 327.693 351.966 327.457C352.5 327.219 353.104 327.099 353.778 327.099C354.462 327.099 355.062 327.219 355.576 327.457C356.094 327.693 356.5 328.02 356.795 328.441C357.09 328.858 357.243 329.338 357.252 329.881H355.572ZM362.692 336.871L359.972 327.231H361.85L363.587 334.315H363.676L365.531 327.231H367.239L369.099 334.32H369.183L370.92 327.231H372.798L370.078 336.871H368.355L366.425 330.107H366.35L364.415 336.871H362.692ZM375.732 336.871V327.231H379.347C380.088 327.231 380.709 327.36 381.211 327.617C381.716 327.875 382.098 328.235 382.355 328.7C382.615 329.161 382.746 329.699 382.746 330.314C382.746 330.932 382.614 331.469 382.35 331.924C382.09 332.376 381.705 332.726 381.197 332.974C380.689 333.218 380.064 333.341 379.324 333.341H376.749V331.891H379.088C379.521 331.891 379.876 331.832 380.152 331.712C380.428 331.59 380.632 331.413 380.764 331.18C380.899 330.945 380.966 330.656 380.966 330.314C380.966 329.972 380.899 329.68 380.764 329.439C380.629 329.194 380.424 329.009 380.147 328.883C379.871 328.755 379.515 328.69 379.079 328.69H377.479V336.871H375.732ZM380.712 332.503L383.099 336.871H381.15L378.806 332.503H380.712ZM387.314 336.871H385.45L388.844 327.231H391L394.398 336.871H392.534L389.959 329.208H389.884L387.314 336.871ZM387.375 333.091H392.459V334.494H387.375V333.091ZM397.391 336.871V327.231H401.006C401.746 327.231 402.368 327.369 402.87 327.645C403.375 327.922 403.756 328.301 404.014 328.785C404.274 329.265 404.404 329.811 404.404 330.423C404.404 331.041 404.274 331.59 404.014 332.07C403.753 332.55 403.369 332.928 402.86 333.204C402.352 333.477 401.726 333.614 400.982 333.614H398.587V332.178H400.747C401.18 332.178 401.535 332.103 401.811 331.952C402.087 331.802 402.291 331.595 402.423 331.331C402.558 331.067 402.625 330.765 402.625 330.423C402.625 330.081 402.558 329.779 402.423 329.519C402.291 329.258 402.085 329.056 401.806 328.912C401.53 328.764 401.174 328.69 400.738 328.69H399.137V336.871H397.391Z" fill="#5E5E5E"/>
<path d="M348.696 350.353V351.227H345.643V350.353H348.696ZM352.42 354.347C351.888 354.344 351.434 354.204 351.058 353.926C350.681 353.649 350.393 353.244 350.194 352.713C349.994 352.182 349.895 351.542 349.895 350.793C349.895 350.047 349.994 349.409 350.194 348.88C350.396 348.351 350.685 347.948 351.061 347.67C351.44 347.392 351.893 347.253 352.42 347.253C352.946 347.253 353.398 347.393 353.774 347.673C354.151 347.951 354.439 348.354 354.639 348.883C354.84 349.41 354.941 350.047 354.941 350.793C354.941 351.544 354.841 352.185 354.642 352.716C354.442 353.245 354.154 353.65 353.778 353.93C353.401 354.208 352.949 354.347 352.42 354.347ZM352.42 353.449C352.886 353.449 353.25 353.222 353.512 352.767C353.777 352.312 353.909 351.654 353.909 350.793C353.909 350.221 353.848 349.738 353.727 349.344C353.609 348.947 353.437 348.647 353.213 348.443C352.991 348.237 352.727 348.134 352.42 348.134C351.956 348.134 351.591 348.362 351.327 348.819C351.062 349.277 350.929 349.935 350.927 350.793C350.927 351.367 350.986 351.852 351.105 352.249C351.226 352.643 351.397 352.942 351.619 353.146C351.841 353.348 352.108 353.449 352.42 353.449ZM356.134 354.232V353.479L358.464 351.065C358.713 350.803 358.918 350.573 359.079 350.376C359.243 350.177 359.365 349.987 359.446 349.808C359.526 349.629 359.567 349.438 359.567 349.236C359.567 349.008 359.513 348.81 359.405 348.645C359.298 348.476 359.151 348.348 358.965 348.258C358.779 348.166 358.569 348.12 358.336 348.12C358.089 348.12 357.874 348.171 357.69 348.271C357.507 348.372 357.365 348.515 357.267 348.698C357.168 348.882 357.119 349.097 357.119 349.344H356.127C356.127 348.925 356.223 348.558 356.416 348.244C356.609 347.931 356.873 347.688 357.21 347.515C357.546 347.34 357.928 347.253 358.356 347.253C358.789 347.253 359.17 347.339 359.499 347.512C359.831 347.682 360.09 347.915 360.276 348.211C360.462 348.505 360.555 348.836 360.555 349.206C360.555 349.462 360.507 349.711 360.41 349.956C360.316 350.2 360.152 350.472 359.916 350.773C359.681 351.071 359.354 351.433 358.934 351.859L357.566 353.291V353.341H360.666V354.232H356.134ZM362.616 354.296C362.432 354.296 362.274 354.231 362.142 354.101C362.01 353.969 361.944 353.81 361.944 353.624C361.944 353.44 362.01 353.283 362.142 353.153C362.274 353.021 362.432 352.955 362.616 352.955C362.8 352.955 362.958 353.021 363.09 353.153C363.222 353.283 363.288 353.44 363.288 353.624C363.288 353.747 363.257 353.86 363.194 353.963C363.134 354.064 363.053 354.145 362.952 354.206C362.851 354.266 362.739 354.296 362.616 354.296ZM366.769 354.347C366.238 354.344 365.784 354.204 365.407 353.926C365.031 353.649 364.743 353.244 364.543 352.713C364.344 352.182 364.244 351.542 364.244 350.793C364.244 350.047 364.344 349.409 364.543 348.88C364.745 348.351 365.034 347.948 365.411 347.67C365.79 347.392 366.242 347.253 366.769 347.253C367.296 347.253 367.747 347.393 368.124 347.673C368.501 347.951 368.789 348.354 368.988 348.883C369.19 349.41 369.291 350.047 369.291 350.793C369.291 351.544 369.191 352.185 368.991 352.716C368.792 353.245 368.504 353.65 368.127 353.93C367.751 354.208 367.298 354.347 366.769 354.347ZM366.769 353.449C367.235 353.449 367.599 353.222 367.862 352.767C368.126 352.312 368.258 351.654 368.258 350.793C368.258 350.221 368.198 349.738 368.077 349.344C367.958 348.947 367.787 348.647 367.562 348.443C367.341 348.237 367.076 348.134 366.769 348.134C366.305 348.134 365.941 348.362 365.676 348.819C365.412 349.277 365.279 349.935 365.276 350.793C365.276 351.367 365.336 351.852 365.454 352.249C365.575 352.643 365.747 352.942 365.969 353.146C366.191 353.348 366.457 353.449 366.769 353.449ZM370.483 354.232V353.479L372.813 351.065C373.062 350.803 373.267 350.573 373.429 350.376C373.592 350.177 373.714 349.987 373.795 349.808C373.876 349.629 373.916 349.438 373.916 349.236C373.916 349.008 373.862 348.81 373.755 348.645C373.647 348.476 373.5 348.348 373.314 348.258C373.128 348.166 372.919 348.12 372.686 348.12C372.439 348.12 372.224 348.171 372.04 348.271C371.856 348.372 371.715 348.515 371.616 348.698C371.518 348.882 371.468 349.097 371.468 349.344H370.477C370.477 348.925 370.573 348.558 370.766 348.244C370.959 347.931 371.223 347.688 371.559 347.515C371.895 347.34 372.278 347.253 372.706 347.253C373.138 347.253 373.519 347.339 373.849 347.512C374.181 347.682 374.439 347.915 374.625 348.211C374.811 348.505 374.905 348.836 374.905 349.206C374.905 349.462 374.856 349.711 374.76 349.956C374.666 350.2 374.501 350.472 374.266 350.773C374.03 351.071 373.703 351.433 373.284 351.859L371.916 353.291V353.341H375.015V354.232H370.483ZM379.884 352.941V352.578C379.884 352.318 379.938 352.081 380.045 351.865C380.155 351.648 380.314 351.474 380.523 351.344C380.733 351.212 380.988 351.146 381.286 351.146C381.591 351.146 381.846 351.211 382.052 351.341C382.259 351.471 382.414 351.645 382.52 351.862C382.627 352.08 382.681 352.318 382.681 352.578V352.941C382.681 353.201 382.627 353.44 382.52 353.658C382.412 353.873 382.254 354.046 382.046 354.179C381.839 354.309 381.586 354.374 381.286 354.374C380.983 354.374 380.728 354.309 380.519 354.179C380.311 354.046 380.153 353.873 380.045 353.658C379.938 353.44 379.884 353.201 379.884 352.941ZM380.667 352.578V352.941C380.667 353.134 380.713 353.309 380.805 353.466C380.897 353.623 381.057 353.701 381.286 353.701C381.512 353.701 381.67 353.623 381.76 353.466C381.85 353.309 381.894 353.134 381.894 352.941V352.578C381.894 352.386 381.851 352.211 381.763 352.054C381.678 351.897 381.519 351.818 381.286 351.818C381.062 351.818 380.903 351.897 380.808 352.054C380.714 352.211 380.667 352.386 380.667 352.578ZM376.421 349.001V348.638C376.421 348.378 376.475 348.139 376.582 347.922C376.692 347.704 376.851 347.531 377.06 347.401C377.27 347.271 377.525 347.206 377.823 347.206C378.128 347.206 378.383 347.271 378.589 347.401C378.796 347.531 378.951 347.704 379.057 347.922C379.162 348.139 379.215 348.378 379.215 348.638V349.001C379.215 349.261 379.161 349.5 379.053 349.717C378.948 349.932 378.791 350.106 378.583 350.238C378.376 350.368 378.123 350.433 377.823 350.433C377.518 350.433 377.261 350.368 377.053 350.238C376.847 350.106 376.69 349.932 376.582 349.717C376.475 349.5 376.421 349.261 376.421 349.001ZM377.208 348.638V349.001C377.208 349.194 377.252 349.369 377.342 349.525C377.434 349.682 377.594 349.761 377.823 349.761C378.047 349.761 378.204 349.682 378.294 349.525C378.385 349.369 378.431 349.194 378.431 349.001V348.638C378.431 348.445 378.388 348.27 378.3 348.113C378.213 347.956 378.054 347.878 377.823 347.878C377.599 347.878 377.44 347.956 377.345 348.113C377.254 348.27 377.208 348.445 377.208 348.638ZM376.74 354.232L381.474 347.347H382.278L377.544 354.232H376.74Z" fill="#555555"/>
<g filter="url(#filter3_d_450_2878)">
<circle cx="236.311" cy="195.704" r="109.535" fill="#FDFDFD"/>
<circle cx="236.311" cy="195.704" r="108.035" stroke="#F09B1E" stroke-opacity="0.05" stroke-width="3"/>
</g>
<path d="M282.765 184.045C284.655 171.202 274.948 164.354 261.579 159.704L265.909 142.399L255.351 139.767L251.138 156.646L242.712 154.628L246.984 137.628L236.422 135L232.088 152.368L225.372 150.776V150.717L210.781 147.045L207.97 158.359C207.97 158.359 215.787 160.197 215.662 160.256C219.937 161.358 220.671 164.17 220.55 166.372L215.662 186.184L216.763 186.552L215.603 186.305L208.704 214.009C208.216 215.296 206.869 217.251 203.882 216.453C204.003 216.637 196.248 214.619 196.248 214.619L191 226.668L204.737 230.09L212.245 232.049L207.849 249.601L218.411 252.229L222.686 234.861L231.171 237.063L226.84 254.368L237.398 257L241.732 239.449C259.744 242.871 273.3 241.529 278.981 225.198C283.558 212.054 278.735 204.529 269.271 199.516C276.17 197.987 281.359 193.399 282.703 184.041H282.765V184.045ZM258.647 217.924C255.41 231.072 233.31 223.915 226.169 222.202L231.967 198.906C239.109 200.74 262.067 204.224 258.647 217.861V217.924ZM261.884 183.861C258.951 195.785 240.514 189.731 234.591 188.264L239.839 167.166C245.824 168.636 264.996 171.448 261.884 183.861Z" fill="#F7931A"/>
<g filter="url(#filter4_d_450_2878)">
<circle cx="114.056" cy="115.056" r="54.0563" fill="#FDFDFD"/>
<circle cx="114.056" cy="115.056" r="52.5563" stroke="#9A9A9A" stroke-opacity="0.08" stroke-width="3"/>
</g>
<path d="M93.9492 104V88H104.355V90.4297H96.8477V94.7734H103.816V97.2031H96.8477V101.57H104.418V104H93.9492ZM106.609 90.4297V88H119.375V90.4297H114.43V104H111.555V90.4297H106.609ZM121.836 104V88H124.734V94.7734H132.148V88H135.055V104H132.148V97.2031H124.734V104H121.836Z" fill="black"/>
<path d="M77.2212 130V121.273H82.8973V122.598H78.8022V124.967H82.6033V126.293H78.8022V128.675H82.9314V130H77.2212ZM85.5667 122.598V121.273H92.5298V122.598H89.8324V130H88.2642V122.598H85.5667ZM95.3121 130V121.273H96.8931V124.967H100.937V121.273H102.522V130H100.937V126.293H96.8931V130H95.3121ZM105.682 130V121.273H111.358V122.598H107.263V124.967H111.064V126.293H107.263V128.675H111.392V130H105.682ZM114.411 130V121.273H117.684C118.354 121.273 118.917 121.389 119.371 121.622C119.828 121.855 120.174 122.182 120.407 122.602C120.642 123.02 120.76 123.507 120.76 124.064C120.76 124.624 120.641 125.109 120.402 125.521C120.167 125.93 119.819 126.247 119.358 126.472C118.898 126.693 118.333 126.804 117.662 126.804H115.331V125.491H117.449C117.841 125.491 118.162 125.437 118.412 125.33C118.662 125.219 118.847 125.058 118.966 124.848C119.088 124.635 119.15 124.374 119.15 124.064C119.15 123.754 119.088 123.49 118.966 123.271C118.844 123.05 118.658 122.882 118.408 122.768C118.158 122.652 117.836 122.594 117.441 122.594H115.992V130H114.411ZM118.919 126.045L121.08 130H119.316L117.194 126.045H118.919ZM123.656 130V121.273H129.332V122.598H125.237V124.967H129.038V126.293H125.237V128.675H129.366V130H123.656ZM137.886 121.273H139.467V126.974C139.467 127.599 139.319 128.149 139.024 128.624C138.731 129.098 138.319 129.469 137.788 129.736C137.257 130 136.636 130.132 135.926 130.132C135.213 130.132 134.591 130 134.059 129.736C133.528 129.469 133.116 129.098 132.824 128.624C132.531 128.149 132.385 127.599 132.385 126.974V121.273H133.966V126.842C133.966 127.206 134.045 127.53 134.204 127.814C134.366 128.098 134.593 128.321 134.886 128.483C135.179 128.642 135.525 128.722 135.926 128.722C136.326 128.722 136.673 128.642 136.966 128.483C137.261 128.321 137.488 128.098 137.647 127.814C137.806 127.53 137.886 127.206 137.886 126.842V121.273ZM142.625 121.273H144.56L147.151 127.597H147.253L149.844 121.273H151.779V130H150.262V124.004H150.181L147.769 129.974H146.635L144.223 123.991H144.142V130H142.625V121.273Z" fill="#5E5E5E"/>
<path d="M97.1004 141.902V142.825H93.876V141.902H97.1004ZM101.033 146.121C100.472 146.118 99.9928 145.97 99.5951 145.677C99.1974 145.383 98.8931 144.956 98.6824 144.395C98.4717 143.834 98.3664 143.158 98.3664 142.367C98.3664 141.579 98.4717 140.905 98.6824 140.347C98.8955 139.788 99.2009 139.362 99.5986 139.068C99.9987 138.775 100.477 138.628 101.033 138.628C101.59 138.628 102.067 138.776 102.464 139.072C102.862 139.365 103.166 139.791 103.377 140.35C103.59 140.906 103.697 141.579 103.697 142.367C103.697 143.16 103.591 143.837 103.381 144.398C103.17 144.957 102.866 145.384 102.468 145.68C102.07 145.974 101.592 146.121 101.033 146.121ZM101.033 145.173C101.526 145.173 101.91 144.932 102.187 144.452C102.467 143.971 102.606 143.276 102.606 142.367C102.606 141.763 102.543 141.253 102.415 140.837C102.289 140.418 102.108 140.1 101.871 139.885C101.637 139.667 101.358 139.558 101.033 139.558C100.543 139.558 100.159 139.8 99.8792 140.283C99.5998 140.766 99.459 141.46 99.4566 142.367C99.4566 142.973 99.5193 143.486 99.6448 143.905C99.7726 144.321 99.9537 144.638 100.188 144.853C100.422 145.066 100.704 145.173 101.033 145.173ZM104.956 146V145.205L107.417 142.655C107.68 142.378 107.897 142.135 108.067 141.927C108.24 141.716 108.369 141.516 108.454 141.327C108.54 141.137 108.582 140.936 108.582 140.723C108.582 140.482 108.525 140.273 108.412 140.098C108.298 139.92 108.143 139.784 107.946 139.69C107.75 139.593 107.529 139.544 107.282 139.544C107.022 139.544 106.795 139.597 106.601 139.704C106.406 139.81 106.257 139.961 106.153 140.155C106.049 140.349 105.997 140.576 105.997 140.837H104.949C104.949 140.394 105.051 140.007 105.255 139.675C105.458 139.344 105.738 139.087 106.093 138.905C106.448 138.72 106.852 138.628 107.304 138.628C107.761 138.628 108.163 138.719 108.511 138.901C108.861 139.081 109.135 139.327 109.331 139.64C109.528 139.95 109.626 140.3 109.626 140.691C109.626 140.961 109.575 141.225 109.473 141.483C109.374 141.741 109.2 142.029 108.951 142.346C108.703 142.661 108.357 143.043 107.915 143.493L106.469 145.006V145.059H109.743V146H104.956ZM111.803 146.067C111.609 146.067 111.442 145.999 111.302 145.862C111.163 145.722 111.093 145.554 111.093 145.357C111.093 145.163 111.163 144.997 111.302 144.86C111.442 144.72 111.609 144.651 111.803 144.651C111.997 144.651 112.164 144.72 112.304 144.86C112.443 144.997 112.513 145.163 112.513 145.357C112.513 145.487 112.48 145.607 112.414 145.716C112.35 145.822 112.265 145.908 112.158 145.972C112.052 146.036 111.933 146.067 111.803 146.067ZM116.19 146.121C115.628 146.118 115.149 145.97 114.751 145.677C114.354 145.383 114.049 144.956 113.839 144.395C113.628 143.834 113.523 143.158 113.523 142.367C113.523 141.579 113.628 140.905 113.839 140.347C114.052 139.788 114.357 139.362 114.755 139.068C115.155 138.775 115.633 138.628 116.19 138.628C116.746 138.628 117.223 138.776 117.621 139.072C118.018 139.365 118.323 139.791 118.533 140.35C118.746 140.906 118.853 141.579 118.853 142.367C118.853 143.16 118.748 143.837 118.537 144.398C118.326 144.957 118.022 145.384 117.624 145.68C117.226 145.974 116.748 146.121 116.19 146.121ZM116.19 145.173C116.682 145.173 117.067 144.932 117.344 144.452C117.623 143.971 117.763 143.276 117.763 142.367C117.763 141.763 117.699 141.253 117.571 140.837C117.445 140.418 117.264 140.1 117.028 139.885C116.793 139.667 116.514 139.558 116.19 139.558C115.699 139.558 115.315 139.8 115.035 140.283C114.756 140.766 114.615 141.46 114.613 142.367C114.613 142.973 114.676 143.486 114.801 143.905C114.929 144.321 115.11 144.638 115.344 144.853C115.579 145.066 115.86 145.173 116.19 145.173ZM120.113 146V145.205L122.574 142.655C122.836 142.378 123.053 142.135 123.223 141.927C123.396 141.716 123.525 141.516 123.611 141.327C123.696 141.137 123.738 140.936 123.738 140.723C123.738 140.482 123.682 140.273 123.568 140.098C123.454 139.92 123.299 139.784 123.103 139.69C122.906 139.593 122.685 139.544 122.439 139.544C122.178 139.544 121.951 139.597 121.757 139.704C121.563 139.81 121.414 139.961 121.309 140.155C121.205 140.349 121.153 140.576 121.153 140.837H120.106C120.106 140.394 120.207 140.007 120.411 139.675C120.615 139.344 120.894 139.087 121.249 138.905C121.604 138.72 122.008 138.628 122.46 138.628C122.917 138.628 123.319 138.719 123.667 138.901C124.018 139.081 124.291 139.327 124.488 139.64C124.684 139.95 124.782 140.3 124.782 140.691C124.782 140.961 124.732 141.225 124.63 141.483C124.53 141.741 124.356 142.029 124.108 142.346C123.859 142.661 123.513 143.043 123.071 143.493L121.625 145.006V145.059H124.9V146H120.113ZM130.042 144.636V144.253C130.042 143.978 130.098 143.727 130.212 143.5C130.328 143.27 130.496 143.087 130.716 142.95C130.939 142.81 131.208 142.74 131.522 142.74C131.844 142.74 132.114 142.809 132.332 142.946C132.55 143.083 132.714 143.267 132.826 143.496C132.939 143.726 132.996 143.978 132.996 144.253V144.636C132.996 144.911 132.939 145.163 132.826 145.393C132.712 145.62 132.545 145.804 132.325 145.943C132.107 146.08 131.84 146.149 131.522 146.149C131.203 146.149 130.933 146.08 130.713 145.943C130.493 145.804 130.326 145.62 130.212 145.393C130.098 145.163 130.042 144.911 130.042 144.636ZM130.869 144.253V144.636C130.869 144.84 130.918 145.025 131.015 145.19C131.112 145.356 131.281 145.439 131.522 145.439C131.762 145.439 131.928 145.356 132.023 145.19C132.118 145.025 132.165 144.84 132.165 144.636V144.253C132.165 144.049 132.119 143.865 132.027 143.699C131.937 143.533 131.769 143.45 131.522 143.45C131.286 143.45 131.118 143.533 131.018 143.699C130.919 143.865 130.869 144.049 130.869 144.253ZM126.384 140.474V140.091C126.384 139.816 126.441 139.564 126.554 139.335C126.67 139.105 126.839 138.921 127.059 138.784C127.281 138.647 127.55 138.578 127.865 138.578C128.187 138.578 128.457 138.647 128.674 138.784C128.892 138.921 129.057 139.105 129.168 139.335C129.279 139.564 129.335 139.816 129.335 140.091V140.474C129.335 140.749 129.278 141.001 129.165 141.231C129.053 141.458 128.888 141.642 128.667 141.781C128.45 141.919 128.182 141.987 127.865 141.987C127.543 141.987 127.272 141.919 127.052 141.781C126.834 141.642 126.668 141.458 126.554 141.231C126.441 141.001 126.384 140.749 126.384 140.474ZM127.215 140.091V140.474C127.215 140.678 127.262 140.863 127.357 141.028C127.454 141.194 127.623 141.277 127.865 141.277C128.102 141.277 128.267 141.194 128.362 141.028C128.459 140.863 128.508 140.678 128.508 140.474V140.091C128.508 139.887 128.461 139.703 128.369 139.537C128.277 139.371 128.109 139.288 127.865 139.288C127.628 139.288 127.46 139.371 127.361 139.537C127.263 139.703 127.215 139.887 127.215 140.091ZM126.721 146L131.721 138.727H132.57L127.57 146H126.721Z" fill="#555555"/>
<defs>
<filter id="filter0_d_450_2878" x="0.0999985" y="198.1" width="170.927" height="170.927" filterUnits="userSpaceOnUse" color-interpolation-filters="sRGB">
<feFlood flood-opacity="0" result="BackgroundImageFix"/>
<feColorMatrix in="SourceAlpha" type="matrix" values="0 0 0 0 0 0 0 0 0 0 0 0 0 0 0 0 0 0 127 0" result="hardAlpha"/>
<feOffset dy="14"/>
<feGaussianBlur stdDeviation="24.95"/>
<feComposite in2="hardAlpha" operator="out"/>
<feColorMatrix type="matrix" values="0 0 0 0 0.603922 0 0 0 0 0.603922 0 0 0 0 0.603922 0 0 0 0.21 0"/>
<feBlend mode="normal" in2="BackgroundImageFix" result="effect1_dropShadow_450_2878"/>
<feBlend mode="normal" in="SourceGraphic" in2="effect1_dropShadow_450_2878" result="shape"/>
</filter>
<filter id="filter1_d_450_2878" x="71.1" y="276.1" width="219.293" height="219.293" filterUnits="userSpaceOnUse" color-interpolation-filters="sRGB">
<feFlood flood-opacity="0" result="BackgroundImageFix"/>
<feColorMatrix in="SourceAlpha" type="matrix" values="0 0 0 0 0 0 0 0 0 0 0 0 0 0 0 0 0 0 127 0" result="hardAlpha"/>
<feOffset dy="14"/>
<feGaussianBlur stdDeviation="24.95"/>
<feComposite in2="hardAlpha" operator="out"/>
<feColorMatrix type="matrix" values="0 0 0 0 0.603922 0 0 0 0 0.603922 0 0 0 0 0.603922 0 0 0 0.21 0"/>
<feBlend mode="normal" in2="BackgroundImageFix" result="effect1_dropShadow_450_2878"/>
<feBlend mode="normal" in="SourceGraphic" in2="effect1_dropShadow_450_2878" result="shape"/>
</filter>
<filter id="filter2_d_450_2878" x="252.1" y="224.1" width="222.138" height="222.138" filterUnits="userSpaceOnUse" color-interpolation-filters="sRGB">
<feFlood flood-opacity="0" result="BackgroundImageFix"/>
<feColorMatrix in="SourceAlpha" type="matrix" values="0 0 0 0 0 0 0 0 0 0 0 0 0 0 0 0 0 0 127 0" result="hardAlpha"/>
<feOffset dy="14"/>
<feGaussianBlur stdDeviation="24.95"/>
<feComposite in2="hardAlpha" operator="out"/>
<feColorMatrix type="matrix" values="0 0 0 0 0.603922 0 0 0 0 0.603922 0 0 0 0 0.603922 0 0 0 0.21 0"/>
<feBlend mode="normal" in2="BackgroundImageFix" result="effect1_dropShadow_450_2878"/>
<feBlend mode="normal" in="SourceGraphic" in2="effect1_dropShadow_450_2878" result="shape"/>
</filter>
<filter id="filter3_d_450_2878" x="52.7754" y="0.168945" width="367.07" height="367.07" filterUnits="userSpaceOnUse" color-interpolation-filters="sRGB">
<feFlood flood-opacity="0" result="BackgroundImageFix"/>
<feColorMatrix in="SourceAlpha" type="matrix" values="0 0 0 0 0 0 0 0 0 0 0 0 0 0 0 0 0 0 127 0" result="hardAlpha"/>
<feOffset dy="-12"/>
<feGaussianBlur stdDeviation="37"/>
<feComposite in2="hardAlpha" operator="out"/>
<feColorMatrix type="matrix" values="0 0 0 0 0.603922 0 0 0 0 0.603922 0 0 0 0 0.603922 0 0 0 0.08 0"/>
<feBlend mode="normal" in2="BackgroundImageFix" result="effect1_dropShadow_450_2878"/>
<feBlend mode="normal" in="SourceGraphic" in2="effect1_dropShadow_450_2878" result="shape"/>
</filter>
<filter id="filter4_d_450_2878" x="10.1" y="25.1" width="207.913" height="207.913" filterUnits="userSpaceOnUse" color-interpolation-filters="sRGB">
<feFlood flood-opacity="0" result="BackgroundImageFix"/>
<feColorMatrix in="SourceAlpha" type="matrix" values="0 0 0 0 0 0 0 0 0 0 0 0 0 0 0 0 0 0 127 0" result="hardAlpha"/>
<feOffset dy="14"/>
<feGaussianBlur stdDeviation="24.95"/>
<feComposite in2="hardAlpha" operator="out"/>
<feColorMatrix type="matrix" values="0 0 0 0 0.603922 0 0 0 0 0.603922 0 0 0 0 0.603922 0 0 0 0.21 0"/>
<feBlend mode="normal" in2="BackgroundImageFix" result="effect1_dropShadow_450_2878"/>
<feBlend mode="normal" in="SourceGraphic" in2="effect1_dropShadow_450_2878" result="shape"/>
</filter>
</defs>
</svg>
