<svg width="154" height="89" viewBox="0 0 154 89" fill="none" xmlns="http://www.w3.org/2000/svg">
<g opacity="0.6" clip-path="url(#clip0_450_9184)">
<path d="M76.3056 16.7977L77.1812 17.0323L76.7176 18.6963L75.8586 18.4661C74.8839 18.205 73.8884 17.9559 72.9049 17.7278L73.2859 16.0416C74.298 16.2951 75.3145 16.5321 76.3056 16.7977ZM81.0233 18.2211C82.2897 18.649 83.5516 19.0933 84.8003 19.5873L84.176 21.1905C82.9559 20.722 81.7314 20.2699 80.4772 19.863L81.0233 18.2211ZM69.354 15.2537L69.0556 16.962C67.7691 16.7412 66.4617 16.5325 65.162 16.3613L65.3899 14.6518C66.7271 14.8154 68.0345 15.0241 69.354 15.2537ZM88.4911 21.1428C89.7056 21.6984 90.9156 22.2705 92.1167 22.8756L91.3316 24.4181C90.1635 23.8218 88.9865 23.2585 87.7842 22.7239L88.4911 21.1428ZM61.3981 14.2196L61.2572 15.9347C59.9563 15.834 58.6345 15.7454 57.3368 15.6987L57.4116 13.9659C58.7423 14.0215 60.0641 14.1101 61.3981 14.2196ZM95.6397 24.7934C96.8066 25.4601 97.9482 26.1555 99.0644 26.8795L98.1273 28.3282C97.0232 27.6251 95.9147 26.9386 94.7643 26.2762L95.6397 24.7934ZM53.3885 13.9148L53.4051 15.6367C52.0942 15.6395 50.7865 15.6963 49.4787 15.7532L49.3916 14.0301C50.7202 13.9612 52.0566 13.9297 53.3885 13.9148ZM102.407 29.1386C103.494 29.9077 104.567 30.7264 105.623 31.5407L104.551 32.8999C103.527 32.0945 102.466 31.2968 101.413 30.5365L102.407 29.1386ZM45.3791 14.336L45.5577 16.0481C44.2488 16.1754 42.9476 16.3402 41.6584 16.526L41.4093 14.8126C42.7149 14.6313 44.0492 14.4754 45.3791 14.336ZM108.708 34.1024C109.714 34.9739 110.711 35.8784 111.687 36.7951L110.5 38.0528C109.557 37.145 108.589 36.2659 107.595 35.4153L108.708 34.1024ZM37.436 15.5008L37.76 17.1988C36.4741 17.4385 35.1959 17.7157 33.9088 18.0259L33.5098 16.3432C34.8179 16.0209 36.1291 15.7526 37.436 15.5008ZM114.523 39.6264C115.452 40.5837 116.352 41.5861 117.236 42.5842L115.939 43.7239C115.072 42.7303 114.196 41.7697 113.283 40.8168L114.523 39.6264ZM29.643 17.3609L30.1213 19.0118C28.854 19.3804 27.6153 19.7744 26.3722 20.1849L25.8189 18.5494C27.0785 18.1433 28.3547 17.7417 29.643 17.3609ZM119.793 45.6597C120.63 46.6985 121.442 47.7658 122.233 48.8453L120.826 49.867C120.047 48.8085 119.264 47.7665 118.444 46.7322L119.793 45.6597ZM22.0452 19.9462L22.6778 21.5498C21.45 22.0353 20.2508 22.5461 19.0637 23.0779L18.3518 21.5061C19.5598 20.9622 20.7965 20.4437 22.0452 19.9462ZM124.517 52.1485C125.245 53.2642 125.969 54.3965 126.65 55.5529L125.175 56.4324C124.501 55.3135 123.811 54.1901 123.095 53.0953L124.517 52.1485ZM14.7341 23.2457L15.5254 24.7856C14.3581 25.3758 13.1984 26.0034 12.0674 26.6564L11.2132 25.1528C12.3652 24.4877 13.5414 23.8644 14.7341 23.2457ZM128.62 59.0375C129.26 60.2181 129.862 61.4064 130.423 62.6189L128.858 63.3683C128.289 62.1889 127.699 61.0216 127.088 59.8663L128.62 59.0375ZM7.76809 27.2396L8.70604 28.6948C8.12724 29.0709 7.54843 29.447 6.96519 29.8396L5.98535 28.4085C6.5851 28.0203 7.16834 27.6277 7.76809 27.2396ZM132.078 66.2849C132.597 67.5216 133.094 68.7703 133.555 70.0267L131.927 70.6175C131.479 69.382 130.989 68.1707 130.482 66.955L132.078 66.2849ZM134.839 73.8234C135.241 75.0996 135.605 76.3834 135.948 77.6794L134.273 78.1158C133.942 76.8408 133.573 75.5735 133.179 74.3348L134.839 73.8234ZM136.849 81.5857C137.117 82.897 137.365 84.2204 137.579 85.5349L135.878 85.8049C135.675 84.5114 135.44 83.209 135.163 81.9307L136.849 81.5857Z" fill="#00604C"/>
<path d="M142.62 78.8122L141.172 77.8751L136.546 85.028L129.759 79.8984L128.715 81.283L136.994 87.5205L142.62 78.8122Z" fill="#8E8E8E"/>
</g>
<defs>
<clipPath id="clip0_450_9184">
<rect width="145.008" height="52.6057" fill="white" transform="translate(140.066 88.3438) rotate(-165)"/>
</clipPath>
</defs>
</svg>
