<svg width="154" height="89" viewBox="0 0 154 89" fill="none" xmlns="http://www.w3.org/2000/svg">
<g opacity="0.6" clip-path="url(#clip0_450_9196)">
<path d="M76.3056 71.5461L77.1812 71.3115L76.7176 69.6475L75.8586 69.8776C74.8839 70.1388 73.8884 70.3878 72.9049 70.616L73.2859 72.3021C74.298 72.0486 75.3145 71.8117 76.3056 71.5461ZM81.0233 70.1226C82.2897 69.6948 83.5516 69.2504 84.8003 68.7565L84.176 67.1532C82.9559 67.6218 81.7314 68.0738 80.4772 68.4807L81.0233 70.1226ZM69.354 73.0901L69.0556 71.3818C67.7691 71.6026 66.4617 71.8112 65.162 71.9824L65.3899 73.6919C66.7271 73.5284 68.0345 73.3197 69.354 73.0901ZM88.4911 67.201C89.7056 66.6454 90.9156 66.0733 92.1167 65.4681L91.3316 63.9257C90.1635 64.522 88.9865 65.0852 87.7842 65.6199L88.4911 67.201ZM61.3981 74.1241L61.2572 72.409C59.9563 72.5097 58.6345 72.5984 57.3368 72.6451L57.4116 74.3779C58.7423 74.3223 60.0641 74.2337 61.3981 74.1241ZM95.6397 63.5504C96.8066 62.8836 97.9482 62.1882 99.0644 61.4642L98.1273 60.0156C97.0232 60.7186 95.9147 61.4052 94.7643 62.0675L95.6397 63.5504ZM53.3885 74.4289L53.4051 72.7071C52.0942 72.7042 50.7865 72.6474 49.4787 72.5906L49.3916 74.3137C50.7202 74.3826 52.0566 74.414 53.3885 74.4289ZM102.407 59.2052C103.494 58.436 104.567 57.6173 105.623 56.803L104.551 55.4438C103.527 56.2492 102.466 57.047 101.413 57.8073L102.407 59.2052ZM45.3791 74.0078L45.5577 72.2956C44.2488 72.1683 42.9476 72.0035 41.6584 71.8178L41.4093 73.5311C42.7149 73.7124 44.0492 73.8684 45.3791 74.0078ZM108.708 54.2413C109.714 53.3699 110.711 52.4653 111.687 51.5487L110.5 50.2909C109.557 51.1987 108.589 52.0779 107.595 52.9284L108.708 54.2413ZM37.436 72.843L37.76 71.145C36.4741 70.9052 35.1959 70.628 33.9088 70.3178L33.5098 72.0005C34.8179 72.3228 36.1291 72.5911 37.436 72.843ZM114.523 48.7174C115.452 47.7601 116.352 46.7576 117.236 45.7596L115.939 44.6198C115.072 45.6134 114.196 46.574 113.283 47.5269L114.523 48.7174ZM29.643 70.9828L30.1213 69.332C28.854 68.9634 27.6153 68.5694 26.3722 68.1588L25.8189 69.7943C27.0785 70.2004 28.3547 70.6021 29.643 70.9828ZM119.793 42.684C120.63 41.6453 121.442 40.5779 122.233 39.4985L120.826 38.4768C120.047 39.5353 119.264 40.5772 118.444 41.6116L119.793 42.684ZM22.0452 68.3976L22.6778 66.7939C21.45 66.3085 20.2508 65.7976 19.0637 65.2659L18.3518 66.8377C19.5598 67.3815 20.7965 67.9 22.0452 68.3976ZM124.517 36.1953C125.245 35.0795 125.969 33.9473 126.65 32.7909L125.175 31.9113C124.501 33.0303 123.811 34.1537 123.095 35.2485L124.517 36.1953ZM14.7341 65.0981L15.5254 63.5582C14.3581 62.968 13.1984 62.3403 12.0674 61.6873L11.2132 63.191C12.3652 63.8561 13.5414 64.4793 14.7341 65.0981ZM128.62 29.3062C129.26 28.1256 129.862 26.9373 130.423 25.7249L128.858 24.9754C128.289 26.1548 127.699 27.3222 127.088 28.4774L128.62 29.3062ZM7.76809 61.1042L8.70604 59.6489C8.12724 59.2728 7.54843 58.8968 6.96519 58.5042L5.98535 59.9353C6.5851 60.3234 7.16834 60.716 7.76809 61.1042ZM132.078 22.0588C132.597 20.8222 133.094 19.5734 133.555 18.317L131.927 17.7263C131.479 18.9618 130.989 20.173 130.482 21.3887L132.078 22.0588ZM134.839 14.5203C135.241 13.2442 135.605 11.9603 135.948 10.6644L134.273 10.2279C133.942 11.5029 133.573 12.7703 133.179 14.009L134.839 14.5203ZM136.849 6.75802C137.117 5.44675 137.365 4.12339 137.579 2.80888L135.878 2.53881C135.675 3.83238 135.44 5.13479 135.163 6.41302L136.849 6.75802Z" fill="#00604C"/>
<path d="M142.62 9.5316L141.172 10.4686L136.546 3.31573L129.759 8.44536L128.715 7.06075L136.994 0.823295L142.62 9.5316Z" fill="#8E8E8E"/>
</g>
<defs>
<clipPath id="clip0_450_9196">
<rect width="145.008" height="52.6057" fill="white" transform="matrix(-0.965926 0.258819 0.258819 0.965926 140.066 0)"/>
</clipPath>
</defs>
</svg>
