<svg width="16" height="16" viewBox="0 0 16 16" fill="none" xmlns="http://www.w3.org/2000/svg">
<path d="M8.00006 15.7154C6.4178 15.7154 4.87107 15.2546 3.55546 14.3911C2.23986 13.5277 1.21448 12.3005 0.608971 10.8647C0.00346631 9.42891 -0.154961 7.84899 0.153722 6.32474C0.462406 4.8005 1.22434 3.40039 2.34316 2.30147C3.46199 1.20255 4.88747 0.454178 6.43932 0.150987C7.99118 -0.152204 9.59973 0.00340462 11.0615 0.598136C12.5234 1.19287 13.7728 2.20001 14.6519 3.4922C15.5309 4.78439 16.0001 6.3036 16.0001 7.85771C15.9978 9.94101 15.1542 11.9383 13.6544 13.4115C12.1546 14.8846 10.1211 15.7132 8.00006 15.7154ZM8.00006 1.30962C6.68151 1.30962 5.39257 1.69366 4.29623 2.41317C3.1999 3.13268 2.34541 4.15536 1.84082 5.35186C1.33623 6.54837 1.20421 7.86497 1.46144 9.13517C1.71868 10.4054 2.35362 11.5721 3.28598 12.4879C4.21834 13.4037 5.40623 14.0273 6.69945 14.28C7.99266 14.5326 9.33311 14.403 10.5513 13.9073C11.7695 13.4117 12.8107 12.5725 13.5432 11.4956C14.2758 10.4188 14.6668 9.15279 14.6668 7.85771C14.6648 6.12163 13.9618 4.45721 12.712 3.22962C11.4622 2.00202 9.76758 1.31153 8.00006 1.30962Z" fill="white"/>
<path d="M9.33465 12.4426H8.00131V7.85894H6.66797V6.54932H8.00131C8.35494 6.54932 8.69408 6.6873 8.94413 6.9329C9.19418 7.1785 9.33465 7.51161 9.33465 7.85894V12.4426Z" fill="white"/>
<path d="M8.00001 5.23717C8.5523 5.23717 9.00001 4.79742 9.00001 4.25495C9.00001 3.71249 8.5523 3.27274 8.00001 3.27274C7.44772 3.27274 7 3.71249 7 4.25495C7 4.79742 7.44772 5.23717 8.00001 5.23717Z" fill="white"/>
</svg>
