<svg width="50" height="50" viewBox="0 0 50 50" fill="none" xmlns="http://www.w3.org/2000/svg">
<g clip-path="url(#clip0_450_9207)">
<g clip-path="url(#clip1_450_9207)">
<path d="M15.25 34.75H34.75" stroke="#8E8E8E" stroke-width="1.2" stroke-linecap="round" stroke-linejoin="round"/>
<path d="M17.4167 34.75V21.75L22.8334 26.0833V21.75L28.2501 26.0833H32.5834" stroke="#8E8E8E" stroke-width="1.2" stroke-linecap="round" stroke-linejoin="round"/>
<path d="M32.5834 34.75V26.0833L31.0277 15.7115C31.0085 15.5831 30.9438 15.4658 30.8454 15.3811C30.7469 15.2964 30.6214 15.2499 30.4915 15.25H29.2511C29.1227 15.2498 28.9984 15.2952 28.9004 15.3782C28.8023 15.4611 28.737 15.5762 28.7159 15.7028L27.1667 25" stroke="#8E8E8E" stroke-width="1.2" stroke-linecap="round" stroke-linejoin="round"/>
<path d="M21.75 30.4165H22.8333" stroke="#8E8E8E" stroke-width="1.2" stroke-linecap="round" stroke-linejoin="round"/>
<path d="M27.1667 30.4165H28.2501" stroke="#8E8E8E" stroke-width="1.2" stroke-linecap="round" stroke-linejoin="round"/>
</g>
<path d="M42.5 0.625H7.5C3.70304 0.625 0.625 3.70304 0.625 7.5V42.5C0.625 46.297 3.70304 49.375 7.5 49.375H42.5C46.297 49.375 49.375 46.297 49.375 42.5V7.5C49.375 3.70304 46.297 0.625 42.5 0.625Z" stroke="url(#paint0_linear_450_9207)"/>
</g>
<defs>
<linearGradient id="paint0_linear_450_9207" x1="20" y1="9.01592e-07" x2="36.875" y2="65" gradientUnits="userSpaceOnUse">
<stop stop-color="white"/>
<stop offset="1" stop-color="#D0D0D0"/>
</linearGradient>
<clipPath id="clip0_450_9207">
<rect width="50" height="50" fill="white"/>
</clipPath>
<clipPath id="clip1_450_9207">
<rect width="26" height="26" fill="white" transform="translate(12 12)"/>
</clipPath>
</defs>
</svg>
