<svg width="50" height="50" viewBox="0 0 50 50" fill="none" xmlns="http://www.w3.org/2000/svg">
<g clip-path="url(#clip0_450_9236)">
<g clip-path="url(#clip1_450_9236)">
<path d="M15.25 32.5832C15.25 33.1578 15.4783 33.7089 15.8846 34.1152C16.2909 34.5216 16.842 34.7498 17.4167 34.7498C17.9913 34.7498 18.5424 34.5216 18.9487 34.1152C19.3551 33.7089 19.5833 33.1578 19.5833 32.5832C19.5833 32.0085 19.3551 31.4574 18.9487 31.0511C18.5424 30.6448 17.9913 30.4165 17.4167 30.4165C16.842 30.4165 16.2909 30.6448 15.8846 31.0511C15.4783 31.4574 15.25 32.0085 15.25 32.5832Z" stroke="#8E8E8E" stroke-width="1.2" stroke-linecap="round" stroke-linejoin="round"/>
<path d="M32.5834 19.5833C33.1581 19.5833 33.7092 19.3551 34.1155 18.9487C34.5218 18.5424 34.7501 17.9913 34.7501 17.4167C34.7501 16.842 34.5218 16.2909 34.1155 15.8846C33.7092 15.4783 33.1581 15.25 32.5834 15.25C32.0088 15.25 31.4577 15.4783 31.0514 15.8846C30.645 16.2909 30.4167 16.842 30.4167 17.4167C30.4167 17.9913 30.645 18.5424 31.0514 18.9487C31.4577 19.3551 32.0088 19.5833 32.5834 19.5833Z" stroke="#8E8E8E" stroke-width="1.2" stroke-linecap="round" stroke-linejoin="round"/>
<path d="M23.9167 32.5832H29.8751C30.8807 32.5832 31.8451 32.1837 32.5562 31.4726C33.2673 30.7615 33.6667 29.7971 33.6667 28.7915C33.6667 27.7859 33.2673 26.8215 32.5562 26.1104C31.8451 25.3993 30.8807 24.9998 29.8751 24.9998H21.2084C20.2028 24.9998 19.2384 24.6004 18.5273 23.8893C17.8162 23.1782 17.4167 22.2138 17.4167 21.2082C17.4167 20.2026 17.8162 19.2381 18.5273 18.5271C19.2384 17.816 20.2028 17.4165 21.2084 17.4165H26.0834" stroke="#8E8E8E" stroke-width="1.2" stroke-linecap="round" stroke-linejoin="round"/>
</g>
<path d="M42.5 0.625H7.5C3.70304 0.625 0.625 3.70304 0.625 7.5V42.5C0.625 46.297 3.70304 49.375 7.5 49.375H42.5C46.297 49.375 49.375 46.297 49.375 42.5V7.5C49.375 3.70304 46.297 0.625 42.5 0.625Z" stroke="url(#paint0_linear_450_9236)"/>
</g>
<defs>
<linearGradient id="paint0_linear_450_9236" x1="20" y1="9.01592e-07" x2="36.875" y2="65" gradientUnits="userSpaceOnUse">
<stop stop-color="white"/>
<stop offset="1" stop-color="#D0D0D0"/>
</linearGradient>
<clipPath id="clip0_450_9236">
<rect width="50" height="50" fill="white"/>
</clipPath>
<clipPath id="clip1_450_9236">
<rect width="26" height="26" fill="white" transform="translate(12 12)"/>
</clipPath>
</defs>
</svg>
