<svg width="50" height="50" viewBox="0 0 50 50" fill="none" xmlns="http://www.w3.org/2000/svg">
<g clip-path="url(#clip0_450_9215)">
<g clip-path="url(#clip1_450_9215)">
<path d="M21.75 27.1665C21.75 28.9616 24.6598 30.4165 28.25 30.4165C31.8402 30.4165 34.75 28.9616 34.75 27.1665C34.75 25.3714 31.8402 23.9165 28.25 23.9165C24.6598 23.9165 21.75 25.3714 21.75 27.1665Z" stroke="#8E8E8E" stroke-width="1.2" stroke-linecap="round" stroke-linejoin="round"/>
<path d="M21.75 27.1665V31.4998C21.75 33.2938 24.6598 34.7498 28.25 34.7498C31.8402 34.7498 34.75 33.2938 34.75 31.4998V27.1665" stroke="#8E8E8E" stroke-width="1.2" stroke-linecap="round" stroke-linejoin="round"/>
<path d="M15.25 18.5C15.25 19.6613 16.4893 20.7338 18.5 21.3145C20.5107 21.8952 22.9893 21.8952 25 21.3145C27.0107 20.7338 28.25 19.6613 28.25 18.5C28.25 17.3387 27.0107 16.2662 25 15.6855C22.9893 15.1048 20.5107 15.1048 18.5 15.6855C16.4893 16.2662 15.25 17.3387 15.25 18.5Z" stroke="#8E8E8E" stroke-width="1.2" stroke-linecap="round" stroke-linejoin="round"/>
<path d="M15.25 18.5V29.3333C15.25 30.2953 16.0863 30.9042 17.4167 31.5" stroke="#8E8E8E" stroke-width="1.2" stroke-linecap="round" stroke-linejoin="round"/>
<path d="M15.25 23.9165C15.25 24.8785 16.0863 25.4873 17.4167 26.0832" stroke="#8E8E8E" stroke-width="1.2" stroke-linecap="round" stroke-linejoin="round"/>
</g>
<path d="M42.5 0.625H7.5C3.70304 0.625 0.625 3.70304 0.625 7.5V42.5C0.625 46.297 3.70304 49.375 7.5 49.375H42.5C46.297 49.375 49.375 46.297 49.375 42.5V7.5C49.375 3.70304 46.297 0.625 42.5 0.625Z" stroke="url(#paint0_linear_450_9215)"/>
</g>
<defs>
<linearGradient id="paint0_linear_450_9215" x1="20" y1="9.01592e-07" x2="36.875" y2="65" gradientUnits="userSpaceOnUse">
<stop stop-color="white"/>
<stop offset="1" stop-color="#D0D0D0"/>
</linearGradient>
<clipPath id="clip0_450_9215">
<rect width="50" height="50" fill="white"/>
</clipPath>
<clipPath id="clip1_450_9215">
<rect width="26" height="26" fill="white" transform="translate(12 12)"/>
</clipPath>
</defs>
</svg>
