<svg width="50" height="50" viewBox="0 0 50 50" fill="none" xmlns="http://www.w3.org/2000/svg">
<g clip-path="url(#clip0_450_9168)">
<g clip-path="url(#clip1_450_9168)">
<path d="M18.5 21.75C18.5 23.4739 19.1848 25.1272 20.4038 26.3462C21.6228 27.5652 23.2761 28.25 25 28.25C26.7239 28.25 28.3772 27.5652 29.5962 26.3462C30.8152 25.1272 31.5 23.4739 31.5 21.75C31.5 20.0261 30.8152 18.3728 29.5962 17.1538C28.3772 15.9348 26.7239 15.25 25 15.25C23.2761 15.25 21.6228 15.9348 20.4038 17.1538C19.1848 18.3728 18.5 20.0261 18.5 21.75Z" stroke="#8E8E8E" stroke-width="1.2" stroke-linecap="round" stroke-linejoin="round"/>
<path d="M25 28.25L28.6833 34.6308L30.4145 31.1284L34.3123 31.3798L30.629 25" stroke="#8E8E8E" stroke-width="1.2" stroke-linecap="round" stroke-linejoin="round"/>
<path d="M19.3689 25L15.6855 31.3808L19.5834 31.1284L21.3145 34.6298L24.9979 28.25" stroke="#8E8E8E" stroke-width="1.2" stroke-linecap="round" stroke-linejoin="round"/>
</g>
<path d="M42.5 0.625H7.5C3.70304 0.625 0.625 3.70304 0.625 7.5V42.5C0.625 46.297 3.70304 49.375 7.5 49.375H42.5C46.297 49.375 49.375 46.297 49.375 42.5V7.5C49.375 3.70304 46.297 0.625 42.5 0.625Z" stroke="url(#paint0_linear_450_9168)"/>
</g>
<defs>
<linearGradient id="paint0_linear_450_9168" x1="20" y1="9.01592e-07" x2="36.875" y2="65" gradientUnits="userSpaceOnUse">
<stop stop-color="white"/>
<stop offset="1" stop-color="#D0D0D0"/>
</linearGradient>
<clipPath id="clip0_450_9168">
<rect width="50" height="50" fill="white"/>
</clipPath>
<clipPath id="clip1_450_9168">
<rect width="26" height="26" fill="white" transform="translate(12 12)"/>
</clipPath>
</defs>
</svg>
