<svg width="50" height="50" viewBox="0 0 50 50" fill="none" xmlns="http://www.w3.org/2000/svg">
<g clip-path="url(#clip0_450_9222)">
<g clip-path="url(#clip1_450_9222)">
<path d="M33.1249 25.6195L24.9999 33.6665L16.8749 25.6195C16.339 25.098 15.9169 24.4712 15.6351 23.7785C15.3533 23.0859 15.218 22.3424 15.2377 21.5948C15.2574 20.8473 15.4317 20.112 15.7495 19.4351C16.0674 18.7582 16.5219 18.1545 17.0845 17.662C17.6472 17.1694 18.3057 16.7987 19.0186 16.5731C19.7316 16.3475 20.4835 16.272 21.2271 16.3514C21.9706 16.4307 22.6897 16.6631 23.339 17.034C23.9884 17.4049 24.5539 17.9062 24.9999 18.5063C25.4479 17.9105 26.0141 17.4136 26.6629 17.0466C27.3118 16.6797 28.0295 16.4506 28.7709 16.3738C29.5124 16.297 30.2618 16.374 30.9721 16.6001C31.6824 16.8262 32.3384 17.1964 32.8991 17.6877C33.4598 18.179 33.913 18.7807 34.2304 19.4552C34.5478 20.1297 34.7226 20.8624 34.7438 21.6076C34.765 22.3527 34.6321 23.0942 34.3536 23.7857C34.075 24.4771 33.6567 25.1036 33.1249 25.626" stroke="#8E8E8E" stroke-width="1.2" stroke-linecap="round" stroke-linejoin="round"/>
<path d="M25.0001 18.5L21.4327 22.0674C21.2296 22.2706 21.1155 22.5461 21.1155 22.8333C21.1155 23.1206 21.2296 23.3961 21.4327 23.5992L22.0209 24.1875C22.7684 24.935 23.9817 24.935 24.7292 24.1875L25.8126 23.1042C26.459 22.4577 27.3358 22.0945 28.2501 22.0945C29.1643 22.0945 30.0411 22.4577 30.6876 23.1042L33.1251 25.5417" stroke="#8E8E8E" stroke-width="1.2" stroke-linecap="round" stroke-linejoin="round"/>
<path d="M25.5417 28.7915L27.7084 30.9582" stroke="#8E8E8E" stroke-width="1.2" stroke-linecap="round" stroke-linejoin="round"/>
<path d="M28.25 26.0835L30.4167 28.2502" stroke="#8E8E8E" stroke-width="1.2" stroke-linecap="round" stroke-linejoin="round"/>
</g>
<path d="M42.5 0.625H7.5C3.70304 0.625 0.625 3.70304 0.625 7.5V42.5C0.625 46.297 3.70304 49.375 7.5 49.375H42.5C46.297 49.375 49.375 46.297 49.375 42.5V7.5C49.375 3.70304 46.297 0.625 42.5 0.625Z" stroke="url(#paint0_linear_450_9222)"/>
</g>
<defs>
<linearGradient id="paint0_linear_450_9222" x1="20" y1="9.01592e-07" x2="36.875" y2="65" gradientUnits="userSpaceOnUse">
<stop stop-color="white"/>
<stop offset="1" stop-color="#D0D0D0"/>
</linearGradient>
<clipPath id="clip0_450_9222">
<rect width="50" height="50" fill="white"/>
</clipPath>
<clipPath id="clip1_450_9222">
<rect width="26" height="26" fill="white" transform="translate(12 12)"/>
</clipPath>
</defs>
</svg>
