<svg width="50" height="50" viewBox="0 0 50 50" fill="none" xmlns="http://www.w3.org/2000/svg">
<g clip-path="url(#clip0_450_9229)">
<g clip-path="url(#clip1_450_9229)">
<path d="M21.75 28.25L28.25 21.75" stroke="#8E8E8E" stroke-width="1.2" stroke-linecap="round" stroke-linejoin="round"/>
<path d="M21.2083 22.2918C21.2083 22.5791 21.3224 22.8547 21.5256 23.0579C21.7287 23.261 22.0043 23.3752 22.2916 23.3752C22.5789 23.3752 22.8545 23.261 23.0576 23.0579C23.2608 22.8547 23.3749 22.5791 23.3749 22.2918C23.3749 22.0045 23.2608 21.729 23.0576 21.5258C22.8545 21.3226 22.5789 21.2085 22.2916 21.2085C22.0043 21.2085 21.7287 21.3226 21.5256 21.5258C21.3224 21.729 21.2083 22.0045 21.2083 22.2918Z" stroke="#8E8E8E" stroke-width="1.2" stroke-linecap="round" stroke-linejoin="round"/>
<path d="M26.625 27.7083C26.625 27.9957 26.7391 28.2712 26.9423 28.4744C27.1455 28.6775 27.421 28.7917 27.7083 28.7917C27.9957 28.7917 28.2712 28.6775 28.4744 28.4744C28.6775 28.2712 28.7917 27.9957 28.7917 27.7083C28.7917 27.421 28.6775 27.1455 28.4744 26.9423C28.2712 26.7391 27.9957 26.625 27.7083 26.625C27.421 26.625 27.1455 26.7391 26.9423 26.9423C26.7391 27.1455 26.625 27.421 26.625 27.7083Z" stroke="#8E8E8E" stroke-width="1.2" stroke-linecap="round" stroke-linejoin="round"/>
<path d="M15.25 25C15.25 26.2804 15.5022 27.5482 15.9922 28.7312C16.4822 29.9141 17.2003 30.9889 18.1057 31.8943C19.0111 32.7997 20.0859 33.5178 21.2688 34.0078C22.4518 34.4978 23.7196 34.75 25 34.75C26.2804 34.75 27.5482 34.4978 28.7312 34.0078C29.9141 33.5178 30.9889 32.7997 31.8943 31.8943C32.7997 30.9889 33.5178 29.9141 34.0078 28.7312C34.4978 27.5482 34.75 26.2804 34.75 25C34.75 22.4141 33.7228 19.9342 31.8943 18.1057C30.0658 16.2772 27.5859 15.25 25 15.25C22.4141 15.25 19.9342 16.2772 18.1057 18.1057C16.2772 19.9342 15.25 22.4141 15.25 25Z" stroke="#8E8E8E" stroke-width="1.2" stroke-linecap="round" stroke-linejoin="round"/>
</g>
<path d="M42.5 0.625H7.5C3.70304 0.625 0.625 3.70304 0.625 7.5V42.5C0.625 46.297 3.70304 49.375 7.5 49.375H42.5C46.297 49.375 49.375 46.297 49.375 42.5V7.5C49.375 3.70304 46.297 0.625 42.5 0.625Z" stroke="url(#paint0_linear_450_9229)"/>
</g>
<defs>
<linearGradient id="paint0_linear_450_9229" x1="20" y1="9.01592e-07" x2="36.875" y2="65" gradientUnits="userSpaceOnUse">
<stop stop-color="white"/>
<stop offset="1" stop-color="#D0D0D0"/>
</linearGradient>
<clipPath id="clip0_450_9229">
<rect width="50" height="50" fill="white"/>
</clipPath>
<clipPath id="clip1_450_9229">
<rect width="26" height="26" fill="white" transform="translate(12 12)"/>
</clipPath>
</defs>
</svg>
