<svg width="50" height="50" viewBox="0 0 50 50" fill="none" xmlns="http://www.w3.org/2000/svg">
<g clip-path="url(#clip0_450_9148)">
<g clip-path="url(#clip1_450_9148)">
<path d="M22.8333 26.0834C22.8333 26.6581 23.0615 27.2092 23.4679 27.6155C23.8742 28.0218 24.4253 28.2501 24.9999 28.2501C25.5746 28.2501 26.1257 28.0218 26.532 27.6155C26.9383 27.2092 27.1666 26.6581 27.1666 26.0834C27.1666 25.5088 26.9383 24.9577 26.532 24.5514C26.1257 24.145 25.5746 23.9167 24.9999 23.9167C24.4253 23.9167 23.8742 24.145 23.4679 24.5514C23.0615 24.9577 22.8333 25.5088 22.8333 26.0834Z" stroke="#8E8E8E" stroke-width="1.2" stroke-linecap="round" stroke-linejoin="round"/>
<path d="M20.6667 34.75V33.6667C20.6667 33.092 20.895 32.5409 21.3014 32.1346C21.7077 31.7283 22.2588 31.5 22.8334 31.5H27.1667C27.7414 31.5 28.2925 31.7283 28.6988 32.1346C29.1051 32.5409 29.3334 33.092 29.3334 33.6667V34.75" stroke="#8E8E8E" stroke-width="1.2" stroke-linecap="round" stroke-linejoin="round"/>
<path d="M28.25 17.4167C28.25 17.9913 28.4783 18.5424 28.8846 18.9487C29.2909 19.3551 29.842 19.5833 30.4167 19.5833C30.9913 19.5833 31.5424 19.3551 31.9487 18.9487C32.3551 18.5424 32.5833 17.9913 32.5833 17.4167C32.5833 16.842 32.3551 16.2909 31.9487 15.8846C31.5424 15.4783 30.9913 15.25 30.4167 15.25C29.842 15.25 29.2909 15.4783 28.8846 15.8846C28.4783 16.2909 28.25 16.842 28.25 17.4167Z" stroke="#8E8E8E" stroke-width="1.2" stroke-linecap="round" stroke-linejoin="round"/>
<path d="M30.4167 22.8333H32.5834C33.1581 22.8333 33.7092 23.0615 34.1155 23.4679C34.5218 23.8742 34.7501 24.4253 34.7501 24.9999V26.0833" stroke="#8E8E8E" stroke-width="1.2" stroke-linecap="round" stroke-linejoin="round"/>
<path d="M17.4167 17.4167C17.4167 17.9913 17.645 18.5424 18.0513 18.9487C18.4577 19.3551 19.0088 19.5833 19.5834 19.5833C20.1581 19.5833 20.7092 19.3551 21.1155 18.9487C21.5218 18.5424 21.7501 17.9913 21.7501 17.4167C21.7501 16.842 21.5218 16.2909 21.1155 15.8846C20.7092 15.4783 20.1581 15.25 19.5834 15.25C19.0088 15.25 18.4577 15.4783 18.0513 15.8846C17.645 16.2909 17.4167 16.842 17.4167 17.4167Z" stroke="#8E8E8E" stroke-width="1.2" stroke-linecap="round" stroke-linejoin="round"/>
<path d="M15.25 26.0833V24.9999C15.25 24.4253 15.4783 23.8742 15.8846 23.4679C16.2909 23.0615 16.842 22.8333 17.4167 22.8333H19.5833" stroke="#8E8E8E" stroke-width="1.2" stroke-linecap="round" stroke-linejoin="round"/>
</g>
<path d="M42.5 0.625H7.5C3.70304 0.625 0.625 3.70304 0.625 7.5V42.5C0.625 46.297 3.70304 49.375 7.5 49.375H42.5C46.297 49.375 49.375 46.297 49.375 42.5V7.5C49.375 3.70304 46.297 0.625 42.5 0.625Z" stroke="url(#paint0_linear_450_9148)"/>
</g>
<defs>
<linearGradient id="paint0_linear_450_9148" x1="20" y1="9.01592e-07" x2="36.875" y2="65" gradientUnits="userSpaceOnUse">
<stop stop-color="white"/>
<stop offset="1" stop-color="#D0D0D0"/>
</linearGradient>
<clipPath id="clip0_450_9148">
<rect width="50" height="50" fill="white"/>
</clipPath>
<clipPath id="clip1_450_9148">
<rect width="26" height="26" fill="white" transform="translate(12 12)"/>
</clipPath>
</defs>
</svg>
