<svg width="50" height="50" viewBox="0 0 50 50" fill="none" xmlns="http://www.w3.org/2000/svg">
<g clip-path="url(#clip0_450_9243)">
<g clip-path="url(#clip1_450_9243)">
<path d="M31.2833 33.4686L28.9303 34.7014C28.8605 34.7378 28.782 34.754 28.7035 34.7483C28.6249 34.7426 28.5496 34.7151 28.4857 34.6691C28.4219 34.623 28.3721 34.5601 28.342 34.4874C28.3118 34.4146 28.3025 34.335 28.315 34.2573L28.7646 31.6453L26.8612 29.7961C26.8044 29.7412 26.7641 29.6714 26.7451 29.5947C26.726 29.518 26.7289 29.4375 26.7535 29.3624C26.778 29.2873 26.8231 29.2205 26.8837 29.1698C26.9443 29.1191 27.018 29.0865 27.0963 29.0757L29.7266 28.6943L30.9031 26.3186C30.9383 26.2478 30.9925 26.1883 31.0597 26.1467C31.1269 26.1051 31.2043 26.083 31.2833 26.083C31.3624 26.083 31.4398 26.1051 31.507 26.1467C31.5742 26.1883 31.6284 26.2478 31.6636 26.3186L32.8401 28.6943L35.4704 29.0757C35.5485 29.0869 35.6218 29.1197 35.6822 29.1705C35.7425 29.2212 35.7875 29.2878 35.8119 29.3628C35.8364 29.4378 35.8394 29.5181 35.8206 29.5946C35.8018 29.6712 35.7619 29.741 35.7055 29.7961L33.8021 31.6453L34.2506 34.2562C34.2641 34.334 34.2554 34.4141 34.2257 34.4873C34.1959 34.5605 34.1462 34.6239 34.0822 34.6702C34.0183 34.7166 33.9426 34.7441 33.8638 34.7496C33.7849 34.7551 33.7062 34.7384 33.6363 34.7014L31.2833 33.4686Z" stroke="#8E8E8E" stroke-width="1.2" stroke-linecap="round" stroke-linejoin="round"/>
<path d="M18.7167 33.4686L16.3637 34.7014C16.2939 34.7378 16.2153 34.754 16.1368 34.7483C16.0583 34.7426 15.9829 34.7151 15.9191 34.6691C15.8553 34.623 15.8055 34.5601 15.7753 34.4874C15.7452 34.4146 15.7359 34.335 15.7484 34.2573L16.1979 31.6453L14.2945 29.7961C14.2377 29.7412 14.1975 29.6714 14.1784 29.5947C14.1594 29.518 14.1623 29.4375 14.1868 29.3624C14.2113 29.2873 14.2565 29.2205 14.3171 29.1698C14.3777 29.1191 14.4513 29.0865 14.5296 29.0757L17.1599 28.6943L18.3364 26.3186C18.3716 26.2478 18.4259 26.1883 18.493 26.1467C18.5602 26.1051 18.6377 26.083 18.7167 26.083C18.7957 26.083 18.8732 26.1051 18.9404 26.1467C19.0075 26.1883 19.0618 26.2478 19.0969 26.3186L20.2734 28.6943L22.9038 29.0757C22.9818 29.0869 23.0552 29.1197 23.1155 29.1705C23.1759 29.2212 23.2208 29.2878 23.2453 29.3628C23.2697 29.4378 23.2727 29.5181 23.2539 29.5946C23.2351 29.6712 23.1953 29.741 23.1389 29.7961L21.2354 31.6453L21.6839 34.2562C21.6974 34.334 21.6888 34.4141 21.659 34.4873C21.6292 34.5605 21.5796 34.6239 21.5156 34.6702C21.4516 34.7166 21.3759 34.7441 21.2971 34.7496C21.2183 34.7551 21.1395 34.7384 21.0697 34.7014L18.7167 33.4686Z" stroke="#8E8E8E" stroke-width="1.2" stroke-linecap="round" stroke-linejoin="round"/>
<path d="M24.9999 22.6351L22.6469 23.8679C22.5771 23.9043 22.4985 23.9205 22.42 23.9148C22.3415 23.9091 22.2661 23.8816 22.2023 23.8356C22.1385 23.7895 22.0887 23.7266 22.0585 23.6539C22.0284 23.5811 22.0191 23.5015 22.0316 23.4238L22.4811 20.8118L20.5777 18.9626C20.5209 18.9077 20.4807 18.8379 20.4616 18.7612C20.4426 18.6845 20.4455 18.604 20.47 18.5289C20.4945 18.4538 20.5397 18.387 20.6003 18.3363C20.6609 18.2857 20.7345 18.253 20.8128 18.2422L23.4431 17.8608L24.6196 15.4851C24.6548 15.4143 24.7091 15.3548 24.7762 15.3132C24.8434 15.2716 24.9209 15.2495 24.9999 15.2495C25.0789 15.2495 25.1564 15.2716 25.2236 15.3132C25.2907 15.3548 25.345 15.4143 25.3801 15.4851L26.5567 17.8608L29.187 18.2422C29.265 18.2534 29.3384 18.2862 29.3987 18.337C29.4591 18.3877 29.504 18.4544 29.5285 18.5293C29.5529 18.6043 29.5559 18.6846 29.5371 18.7611C29.5183 18.8377 29.4785 18.9075 29.4221 18.9626L27.5186 20.8118L27.9672 23.4227C27.9806 23.5005 27.972 23.5806 27.9422 23.6538C27.9125 23.727 27.8628 23.7904 27.7988 23.8367C27.7348 23.8831 27.6591 23.9106 27.5803 23.9161C27.5015 23.9216 27.4227 23.9049 27.3529 23.8679L24.9999 22.6351Z" stroke="#8E8E8E" stroke-width="1.2" stroke-linecap="round" stroke-linejoin="round"/>
</g>
<path d="M42.5 0.625H7.5C3.70304 0.625 0.625 3.70304 0.625 7.5V42.5C0.625 46.297 3.70304 49.375 7.5 49.375H42.5C46.297 49.375 49.375 46.297 49.375 42.5V7.5C49.375 3.70304 46.297 0.625 42.5 0.625Z" stroke="url(#paint0_linear_450_9243)"/>
</g>
<defs>
<linearGradient id="paint0_linear_450_9243" x1="20" y1="9.01592e-07" x2="36.875" y2="65" gradientUnits="userSpaceOnUse">
<stop stop-color="white"/>
<stop offset="1" stop-color="#D0D0D0"/>
</linearGradient>
<clipPath id="clip0_450_9243">
<rect width="50" height="50" fill="white"/>
</clipPath>
<clipPath id="clip1_450_9243">
<rect width="26" height="26" fill="white" transform="translate(12 12)"/>
</clipPath>
</defs>
</svg>
