<svg width="50" height="50" viewBox="0 0 50 50" fill="none" xmlns="http://www.w3.org/2000/svg">
<g clip-path="url(#clip0_450_7642)">
<g clip-path="url(#clip1_450_7642)">
<path d="M20.666 19.5833C20.666 20.7326 21.1226 21.8348 21.9352 22.6475C22.7479 23.4601 23.8501 23.9167 24.9993 23.9167C26.1486 23.9167 27.2508 23.4601 28.0635 22.6475C28.8761 21.8348 29.3327 20.7326 29.3327 19.5833C29.3327 18.4341 28.8761 17.3319 28.0635 16.5192C27.2508 15.7065 26.1486 15.25 24.9993 15.25C23.8501 15.25 22.7479 15.7065 21.9352 16.5192C21.1226 17.3319 20.666 18.4341 20.666 19.5833Z" stroke="#8E8E8E" stroke-width="1.2" stroke-linecap="round" stroke-linejoin="round"/>
<path d="M18.5 34.75V32.5833C18.5 31.4341 18.9565 30.3319 19.7692 29.5192C20.5819 28.7065 21.6841 28.25 22.8333 28.25H26.0833" stroke="#8E8E8E" stroke-width="1.2" stroke-linecap="round" stroke-linejoin="round"/>
<path d="M29.334 35.8334L34.7507 30.4167" stroke="#8E8E8E" stroke-width="1.2" stroke-linecap="round" stroke-linejoin="round"/>
<path d="M34.75 35.2917V30.4167H29.875" stroke="#8E8E8E" stroke-width="1.2" stroke-linecap="round" stroke-linejoin="round"/>
</g>
<path d="M42.5 0.625H7.5C3.70304 0.625 0.625 3.70304 0.625 7.5V42.5C0.625 46.297 3.70304 49.375 7.5 49.375H42.5C46.297 49.375 49.375 46.297 49.375 42.5V7.5C49.375 3.70304 46.297 0.625 42.5 0.625Z" stroke="url(#paint0_linear_450_7642)"/>
</g>
<defs>
<linearGradient id="paint0_linear_450_7642" x1="20" y1="9.01592e-07" x2="36.875" y2="65" gradientUnits="userSpaceOnUse">
<stop stop-color="white"/>
<stop offset="1" stop-color="#D0D0D0"/>
</linearGradient>
<clipPath id="clip0_450_7642">
<rect width="50" height="50" fill="white"/>
</clipPath>
<clipPath id="clip1_450_7642">
<rect width="26" height="26" fill="white" transform="translate(12 12)"/>
</clipPath>
</defs>
</svg>
