<svg width="50" height="50" viewBox="0 0 50 50" fill="none" xmlns="http://www.w3.org/2000/svg">
<g clip-path="url(#clip0_450_7701)">
<g clip-path="url(#clip1_450_7701)">
<path d="M22.834 30.4168L27.1673 26.0835" stroke="#8E8E8E" stroke-width="1.2" stroke-linecap="round" stroke-linejoin="round"/>
<path d="M27.166 15.25V19.5833C27.166 19.8707 27.2802 20.1462 27.4833 20.3494C27.6865 20.5525 27.962 20.6667 28.2493 20.6667H32.5827" stroke="#8E8E8E" stroke-width="1.2" stroke-linecap="round" stroke-linejoin="round"/>
<path d="M30.416 34.75H19.5827C19.008 34.75 18.4569 34.5217 18.0506 34.1154C17.6443 33.7091 17.416 33.158 17.416 32.5833V17.4167C17.416 16.842 17.6443 16.2909 18.0506 15.8846C18.4569 15.4783 19.008 15.25 19.5827 15.25H27.166L32.5827 20.6667V32.5833C32.5827 33.158 32.3544 33.7091 31.9481 34.1154C31.5418 34.5217 30.9907 34.75 30.416 34.75Z" stroke="#8E8E8E" stroke-width="1.2" stroke-linecap="round" stroke-linejoin="round"/>
<path d="M22.834 26.0835H22.8457" stroke="#8E8E8E" stroke-width="1.2" stroke-linecap="round" stroke-linejoin="round"/>
<path d="M27.166 30.4165H27.1777" stroke="#8E8E8E" stroke-width="1.2" stroke-linecap="round" stroke-linejoin="round"/>
</g>
<path d="M42.5 0.625H7.5C3.70304 0.625 0.625 3.70304 0.625 7.5V42.5C0.625 46.297 3.70304 49.375 7.5 49.375H42.5C46.297 49.375 49.375 46.297 49.375 42.5V7.5C49.375 3.70304 46.297 0.625 42.5 0.625Z" stroke="url(#paint0_linear_450_7701)"/>
</g>
<defs>
<linearGradient id="paint0_linear_450_7701" x1="20" y1="9.01592e-07" x2="36.875" y2="65" gradientUnits="userSpaceOnUse">
<stop stop-color="white"/>
<stop offset="1" stop-color="#D0D0D0"/>
</linearGradient>
<clipPath id="clip0_450_7701">
<rect width="50" height="50" fill="white"/>
</clipPath>
<clipPath id="clip1_450_7701">
<rect width="26" height="26" fill="white" transform="translate(12 12)"/>
</clipPath>
</defs>
</svg>
