<svg width="50" height="50" viewBox="0 0 50 50" fill="none" xmlns="http://www.w3.org/2000/svg">
<g clip-path="url(#clip0_828_423)">
<g clip-path="url(#clip1_828_423)">
<path d="M22.834 26.0832C22.834 26.6578 23.0623 27.2089 23.4686 27.6152C23.8749 28.0216 24.426 28.2498 25.0007 28.2498C25.5753 28.2498 26.1264 28.0216 26.5327 27.6152C26.939 27.2089 27.1673 26.6578 27.1673 26.0832C27.1673 25.5085 26.939 24.9574 26.5327 24.5511C26.1264 24.1448 25.5753 23.9165 25.0007 23.9165C24.426 23.9165 23.8749 24.1448 23.4686 24.5511C23.0623 24.9574 22.834 25.5085 22.834 26.0832Z" stroke="#8E8E8E" stroke-width="1.2" stroke-linecap="round" stroke-linejoin="round"/>
<path d="M20.666 34.75V33.6667C20.666 33.092 20.8943 32.5409 21.3006 32.1346C21.7069 31.7283 22.258 31.5 22.8327 31.5H27.166C27.7407 31.5 28.2918 31.7283 28.6981 32.1346C29.1044 32.5409 29.3327 33.092 29.3327 33.6667V34.75" stroke="#8E8E8E" stroke-width="1.2" stroke-linecap="round" stroke-linejoin="round"/>
<path d="M28.25 17.4167C28.25 17.9913 28.4783 18.5424 28.8846 18.9487C29.2909 19.3551 29.842 19.5833 30.4167 19.5833C30.9913 19.5833 31.5424 19.3551 31.9487 18.9487C32.3551 18.5424 32.5833 17.9913 32.5833 17.4167C32.5833 16.842 32.3551 16.2909 31.9487 15.8846C31.5424 15.4783 30.9913 15.25 30.4167 15.25C29.842 15.25 29.2909 15.4783 28.8846 15.8846C28.4783 16.2909 28.25 16.842 28.25 17.4167Z" stroke="#8E8E8E" stroke-width="1.2" stroke-linecap="round" stroke-linejoin="round"/>
<path d="M30.416 22.8335H32.5827C33.1573 22.8335 33.7084 23.0618 34.1147 23.4681C34.5211 23.8744 34.7493 24.4255 34.7493 25.0002V26.0835" stroke="#8E8E8E" stroke-width="1.2" stroke-linecap="round" stroke-linejoin="round"/>
<path d="M17.416 17.4167C17.416 17.9913 17.6443 18.5424 18.0506 18.9487C18.4569 19.3551 19.008 19.5833 19.5827 19.5833C20.1573 19.5833 20.7084 19.3551 21.1147 18.9487C21.5211 18.5424 21.7493 17.9913 21.7493 17.4167C21.7493 16.842 21.5211 16.2909 21.1147 15.8846C20.7084 15.4783 20.1573 15.25 19.5827 15.25C19.008 15.25 18.4569 15.4783 18.0506 15.8846C17.6443 16.2909 17.416 16.842 17.416 17.4167Z" stroke="#8E8E8E" stroke-width="1.2" stroke-linecap="round" stroke-linejoin="round"/>
<path d="M15.25 26.0835V25.0002C15.25 24.4255 15.4783 23.8744 15.8846 23.4681C16.2909 23.0618 16.842 22.8335 17.4167 22.8335H19.5833" stroke="#8E8E8E" stroke-width="1.2" stroke-linecap="round" stroke-linejoin="round"/>
</g>
<path d="M42.5 0.625H7.5C3.70304 0.625 0.625 3.70304 0.625 7.5V42.5C0.625 46.297 3.70304 49.375 7.5 49.375H42.5C46.297 49.375 49.375 46.297 49.375 42.5V7.5C49.375 3.70304 46.297 0.625 42.5 0.625Z" stroke="url(#paint0_linear_828_423)"/>
</g>
<defs>
<linearGradient id="paint0_linear_828_423" x1="20" y1="9.01592e-07" x2="36.875" y2="65" gradientUnits="userSpaceOnUse">
<stop stop-color="white"/>
<stop offset="1" stop-color="#D0D0D0"/>
</linearGradient>
<clipPath id="clip0_828_423">
<rect width="50" height="50" fill="white"/>
</clipPath>
<clipPath id="clip1_828_423">
<rect width="26" height="26" fill="white" transform="translate(12 12)"/>
</clipPath>
</defs>
</svg>
