<svg width="50" height="50" viewBox="0 0 50 50" fill="none" xmlns="http://www.w3.org/2000/svg">
<g clip-path="url(#clip0_828_869)">
<g clip-path="url(#clip1_828_869)">
<path d="M19.584 23.9167C19.584 23.342 19.8123 22.7909 20.2186 22.3846C20.6249 21.9783 21.176 21.75 21.7507 21.75H32.584C33.1586 21.75 33.7097 21.9783 34.116 22.3846C34.5224 22.7909 34.7507 23.342 34.7507 23.9167V30.4167C34.7507 30.9913 34.5224 31.5424 34.116 31.9487C33.7097 32.3551 33.1586 32.5833 32.584 32.5833H21.7507C21.176 32.5833 20.6249 32.3551 20.2186 31.9487C19.8123 31.5424 19.584 30.9913 19.584 30.4167V23.9167Z" stroke="#8E8E8E" stroke-width="1.2" stroke-linecap="round" stroke-linejoin="round"/>
<path d="M25 27.1667C25 27.7413 25.2283 28.2924 25.6346 28.6987C26.0409 29.1051 26.592 29.3333 27.1667 29.3333C27.7413 29.3333 28.2924 29.1051 28.6987 28.6987C29.1051 28.2924 29.3333 27.7413 29.3333 27.1667C29.3333 26.592 29.1051 26.0409 28.6987 25.6346C28.2924 25.2283 27.7413 25 27.1667 25C26.592 25 26.0409 25.2283 25.6346 25.6346C25.2283 26.0409 25 26.592 25 27.1667Z" stroke="#8E8E8E" stroke-width="1.2" stroke-linecap="round" stroke-linejoin="round"/>
<path d="M30.4167 21.7498V19.5832C30.4167 19.0085 30.1884 18.4574 29.7821 18.0511C29.3757 17.6448 28.8246 17.4165 28.25 17.4165H17.4167C16.842 17.4165 16.2909 17.6448 15.8846 18.0511C15.4783 18.4574 15.25 19.0085 15.25 19.5832V26.0832C15.25 26.6578 15.4783 27.2089 15.8846 27.6152C16.2909 28.0216 16.842 28.2498 17.4167 28.2498H19.5833" stroke="#8E8E8E" stroke-width="1.2" stroke-linecap="round" stroke-linejoin="round"/>
</g>
<path d="M42.5 0.625H7.5C3.70304 0.625 0.625 3.70304 0.625 7.5V42.5C0.625 46.297 3.70304 49.375 7.5 49.375H42.5C46.297 49.375 49.375 46.297 49.375 42.5V7.5C49.375 3.70304 46.297 0.625 42.5 0.625Z" stroke="url(#paint0_linear_828_869)"/>
</g>
<defs>
<linearGradient id="paint0_linear_828_869" x1="20" y1="9.01592e-07" x2="36.875" y2="65" gradientUnits="userSpaceOnUse">
<stop stop-color="white"/>
<stop offset="1" stop-color="#D0D0D0"/>
</linearGradient>
<clipPath id="clip0_828_869">
<rect width="50" height="50" fill="white"/>
</clipPath>
<clipPath id="clip1_828_869">
<rect width="26" height="26" fill="white" transform="translate(12 12)"/>
</clipPath>
</defs>
</svg>
