<svg width="50" height="50" viewBox="0 0 50 50" fill="none" xmlns="http://www.w3.org/2000/svg">
<g clip-path="url(#clip0_450_7662)">
<g clip-path="url(#clip1_450_7662)">
<path d="M33.1254 25.6197L25.0004 33.6667L16.8754 25.6197C16.3395 25.0982 15.9174 24.4714 15.6356 23.7788C15.3538 23.0861 15.2185 22.3426 15.2382 21.5951C15.2579 20.8476 15.4322 20.1122 15.75 19.4354C16.0678 18.7585 16.5224 18.1548 17.085 17.6622C17.6476 17.1696 18.3062 16.7989 19.0191 16.5733C19.7321 16.3478 20.484 16.2723 21.2276 16.3516C21.9711 16.4309 22.6902 16.6633 23.3395 17.0342C23.9888 17.4051 24.5543 17.9064 25.0004 18.5066C25.4484 17.9108 26.0146 17.4138 26.6634 17.0469C27.3123 16.6799 28.0299 16.4509 28.7714 16.374C29.5129 16.2972 30.2622 16.3742 30.9726 16.6003C31.6829 16.8264 32.3389 17.1967 32.8996 17.688C33.4602 18.1792 33.9135 18.781 34.2309 19.4555C34.5483 20.1299 34.723 20.8627 34.7442 21.6078C34.7654 22.353 34.6326 23.0945 34.3541 23.7859C34.0755 24.4774 33.6572 25.1039 33.1254 25.6262" stroke="#8E8E8E" stroke-width="1.2" stroke-linecap="round" stroke-linejoin="round"/>
<path d="M24.9998 18.5L21.4324 22.0674C21.2293 22.2706 21.1152 22.5461 21.1152 22.8333C21.1152 23.1206 21.2293 23.3961 21.4324 23.5992L22.0207 24.1875C22.7682 24.935 23.9815 24.935 24.729 24.1875L25.8123 23.1042C26.4588 22.4577 27.3356 22.0945 28.2498 22.0945C29.1641 22.0945 30.0409 22.4577 30.6873 23.1042L33.1248 25.5417" stroke="#8E8E8E" stroke-width="1.2" stroke-linecap="round" stroke-linejoin="round"/>
<path d="M25.541 28.7917L27.7077 30.9584" stroke="#8E8E8E" stroke-width="1.2" stroke-linecap="round" stroke-linejoin="round"/>
<path d="M28.25 26.0833L30.4167 28.2499" stroke="#8E8E8E" stroke-width="1.2" stroke-linecap="round" stroke-linejoin="round"/>
</g>
<path d="M42.5 0.625H7.5C3.70304 0.625 0.625 3.70304 0.625 7.5V42.5C0.625 46.297 3.70304 49.375 7.5 49.375H42.5C46.297 49.375 49.375 46.297 49.375 42.5V7.5C49.375 3.70304 46.297 0.625 42.5 0.625Z" stroke="url(#paint0_linear_450_7662)"/>
</g>
<defs>
<linearGradient id="paint0_linear_450_7662" x1="20" y1="9.01592e-07" x2="36.875" y2="65" gradientUnits="userSpaceOnUse">
<stop stop-color="white"/>
<stop offset="1" stop-color="#D0D0D0"/>
</linearGradient>
<clipPath id="clip0_450_7662">
<rect width="50" height="50" fill="white"/>
</clipPath>
<clipPath id="clip1_450_7662">
<rect width="26" height="26" fill="white" transform="translate(12 12)"/>
</clipPath>
</defs>
</svg>
