<svg width="50" height="50" viewBox="0 0 50 50" fill="none" xmlns="http://www.w3.org/2000/svg">
<g clip-path="url(#clip0_828_856)">
<g clip-path="url(#clip1_828_856)">
<path d="M24.9997 15.25C27.5302 17.4888 30.8329 18.6544 34.2081 18.5C34.6995 20.1716 34.8498 21.9249 34.6502 23.6558C34.4506 25.3866 33.9051 27.0597 33.0461 28.5756C32.1871 30.0914 31.0322 31.4192 29.6499 32.4799C28.2676 33.5405 26.6863 34.3126 24.9997 34.75C23.3132 34.3126 21.7318 33.5405 20.3496 32.4799C18.9673 31.4192 17.8124 30.0914 16.9534 28.5756C16.0944 27.0597 15.5489 25.3866 15.3493 23.6558C15.1497 21.9249 15.3 20.1716 15.7914 18.5C19.1666 18.6544 22.4693 17.4888 24.9997 15.25Z" stroke="#8E8E8E" stroke-width="1.2" stroke-linecap="round" stroke-linejoin="round"/>
<path d="M23.916 23.9168C23.916 24.2041 24.0302 24.4797 24.2333 24.6829C24.4365 24.886 24.712 25.0002 24.9993 25.0002C25.2867 25.0002 25.5622 24.886 25.7654 24.6829C25.9685 24.4797 26.0827 24.2041 26.0827 23.9168C26.0827 23.6295 25.9685 23.354 25.7654 23.1508C25.5622 22.9476 25.2867 22.8335 24.9993 22.8335C24.712 22.8335 24.4365 22.9476 24.2333 23.1508C24.0302 23.354 23.916 23.6295 23.916 23.9168Z" stroke="#8E8E8E" stroke-width="1.2" stroke-linecap="round" stroke-linejoin="round"/>
<path d="M25 25V27.7083" stroke="#8E8E8E" stroke-width="1.2" stroke-linecap="round" stroke-linejoin="round"/>
</g>
<path d="M42.5 0.625H7.5C3.70304 0.625 0.625 3.70304 0.625 7.5V42.5C0.625 46.297 3.70304 49.375 7.5 49.375H42.5C46.297 49.375 49.375 46.297 49.375 42.5V7.5C49.375 3.70304 46.297 0.625 42.5 0.625Z" stroke="url(#paint0_linear_828_856)"/>
</g>
<defs>
<linearGradient id="paint0_linear_828_856" x1="20" y1="9.01592e-07" x2="36.875" y2="65" gradientUnits="userSpaceOnUse">
<stop stop-color="white"/>
<stop offset="1" stop-color="#D0D0D0"/>
</linearGradient>
<clipPath id="clip0_828_856">
<rect width="50" height="50" fill="white"/>
</clipPath>
<clipPath id="clip1_828_856">
<rect width="26" height="26" fill="white" transform="translate(12 12)"/>
</clipPath>
</defs>
</svg>
