<svg width="50" height="50" viewBox="0 0 50 50" fill="none" xmlns="http://www.w3.org/2000/svg">
<g clip-path="url(#clip0_828_577)">
<g clip-path="url(#clip1_828_577)">
<path d="M21.75 28.25L28.25 21.75" stroke="#8E8E8E" stroke-width="1.2" stroke-linecap="round" stroke-linejoin="round"/>
<path d="M22.2917 22.8333C22.5908 22.8333 22.8333 22.5908 22.8333 22.2917C22.8333 21.9925 22.5908 21.75 22.2917 21.75C21.9925 21.75 21.75 21.9925 21.75 22.2917C21.75 22.5908 21.9925 22.8333 22.2917 22.8333Z" stroke="#8E8E8E" stroke-width="1.2" stroke-linecap="round" stroke-linejoin="round"/>
<path d="M27.7077 28.2501C28.0068 28.2501 28.2493 28.0076 28.2493 27.7084C28.2493 27.4093 28.0068 27.1667 27.7077 27.1667C27.4085 27.1667 27.166 27.4093 27.166 27.7084C27.166 28.0076 27.4085 28.2501 27.7077 28.2501Z" stroke="#8E8E8E" stroke-width="1.2" stroke-linecap="round" stroke-linejoin="round"/>
<path d="M17.4162 19.8C17.4162 19.1679 17.6673 18.5617 18.1143 18.1147C18.5612 17.6678 19.1674 17.4167 19.7995 17.4167H20.8829C21.5122 17.4163 22.1158 17.1671 22.562 16.7233L23.3204 15.965C23.5418 15.7423 23.8052 15.5655 24.0952 15.4449C24.3852 15.3243 24.6962 15.2622 25.0104 15.2622C25.3245 15.2622 25.6355 15.3243 25.9255 15.4449C26.2155 15.5655 26.4789 15.7423 26.7004 15.965L27.4587 16.7233C27.9049 17.1671 28.5085 17.4163 29.1379 17.4167H30.2212C30.8533 17.4167 31.4595 17.6678 31.9065 18.1147C32.3534 18.5617 32.6045 19.1679 32.6045 19.8V20.8833C32.6049 21.5127 32.8541 22.1163 33.2979 22.5625L34.0562 23.3208C34.2789 23.5423 34.4557 23.8057 34.5763 24.0957C34.6969 24.3857 34.759 24.6967 34.759 25.0108C34.759 25.325 34.6969 25.636 34.5763 25.926C34.4557 26.216 34.2789 26.4794 34.0562 26.7008L33.2979 27.4592C32.8541 27.9054 32.6049 28.509 32.6045 29.1383V30.2217C32.6045 30.8538 32.3534 31.46 31.9065 31.907C31.4595 32.3539 30.8533 32.605 30.2212 32.605H29.1379C28.5085 32.6054 27.9049 32.8546 27.4587 33.2983L26.7004 34.0567C26.4789 34.2794 26.2155 34.4562 25.9255 34.5768C25.6355 34.6974 25.3245 34.7595 25.0104 34.7595C24.6962 34.7595 24.3852 34.6974 24.0952 34.5768C23.8052 34.4562 23.5418 34.2794 23.3204 34.0567L22.562 33.2983C22.1158 32.8546 21.5122 32.6054 20.8829 32.605H19.7995C19.1674 32.605 18.5612 32.3539 18.1143 31.907C17.6673 31.46 17.4162 30.8538 17.4162 30.2217V29.1383C17.4158 28.509 17.1666 27.9054 16.7229 27.4592L15.9645 26.7008C15.7418 26.4794 15.565 26.216 15.4444 25.926C15.3238 25.636 15.2617 25.325 15.2617 25.0108C15.2617 24.6967 15.3238 24.3857 15.4444 24.0957C15.565 23.8057 15.7418 23.5423 15.9645 23.3208L16.7229 22.5625C17.1666 22.1163 17.4158 21.5127 17.4162 20.8833V19.8Z" stroke="#8E8E8E" stroke-width="1.2" stroke-linecap="round" stroke-linejoin="round"/>
</g>
<path d="M42.5 0.625H7.5C3.70304 0.625 0.625 3.70304 0.625 7.5V42.5C0.625 46.297 3.70304 49.375 7.5 49.375H42.5C46.297 49.375 49.375 46.297 49.375 42.5V7.5C49.375 3.70304 46.297 0.625 42.5 0.625Z" stroke="url(#paint0_linear_828_577)"/>
</g>
<defs>
<linearGradient id="paint0_linear_828_577" x1="20" y1="9.01592e-07" x2="36.875" y2="65" gradientUnits="userSpaceOnUse">
<stop stop-color="white"/>
<stop offset="1" stop-color="#D0D0D0"/>
</linearGradient>
<clipPath id="clip0_828_577">
<rect width="50" height="50" fill="white"/>
</clipPath>
<clipPath id="clip1_828_577">
<rect width="26" height="26" fill="white" transform="translate(12 12)"/>
</clipPath>
</defs>
</svg>
