<svg width="50" height="50" viewBox="0 0 50 50" fill="none" xmlns="http://www.w3.org/2000/svg">
<g clip-path="url(#clip0_828_537)">
<path d="M42.5 0.625H7.5C3.70304 0.625 0.625 3.70304 0.625 7.5V42.5C0.625 46.297 3.70304 49.375 7.5 49.375H42.5C46.297 49.375 49.375 46.297 49.375 42.5V7.5C49.375 3.70304 46.297 0.625 42.5 0.625Z" stroke="url(#paint0_linear_828_537)"/>
<path d="M27.1673 33.6667C27.1673 33.092 26.939 32.5409 26.5327 32.1346C26.1264 31.7283 25.5753 31.5 25.0007 31.5C24.426 31.5 23.8749 31.7283 23.4686 32.1346C23.0623 32.5409 22.834 33.092 22.834 33.6667C22.834 34.2413 23.0623 34.7924 23.4686 35.1987C23.8749 35.6051 24.426 35.8333 25.0007 35.8333C25.5753 35.8333 26.1264 35.6051 26.5327 35.1987C26.939 34.7924 27.1673 34.2413 27.1673 33.6667Z" stroke="#8E8E8E" stroke-width="1.2" stroke-linecap="round" stroke-linejoin="round"/>
<path d="M27.1673 16.3337C27.1673 15.759 26.939 15.2079 26.5327 14.8016C26.1264 14.3953 25.5753 14.167 25.0007 14.167C24.426 14.167 23.8749 14.3953 23.4686 14.8016C23.0623 15.2079 22.834 15.759 22.834 16.3337C22.834 16.9083 23.0623 17.4594 23.4686 17.8657C23.8749 18.2721 24.426 18.5003 25.0007 18.5003C25.5753 18.5003 26.1264 18.2721 26.5327 17.8657C26.939 17.4594 27.1673 16.9083 27.1673 16.3337Z" stroke="#8E8E8E" stroke-width="1.2" stroke-linecap="round" stroke-linejoin="round"/>
<path d="M18.4993 24.9997C18.4993 24.425 18.2711 23.8739 17.8647 23.4676C17.4584 23.0613 16.9073 22.833 16.3327 22.833C15.758 22.833 15.2069 23.0613 14.8006 23.4676C14.3943 23.8739 14.166 24.425 14.166 24.9997C14.166 25.5743 14.3943 26.1254 14.8006 26.5317C15.2069 26.9381 15.758 27.1663 16.3327 27.1663C16.9073 27.1663 17.4584 26.9381 17.8647 26.5317C18.2711 26.1254 18.4993 25.5743 18.4993 24.9997Z" stroke="#8E8E8E" stroke-width="1.2" stroke-linecap="round" stroke-linejoin="round"/>
<path d="M35.8333 24.9997C35.8333 24.425 35.6051 23.8739 35.1987 23.4676C34.7924 23.0613 34.2413 22.833 33.6667 22.833C33.092 22.833 32.5409 23.0613 32.1346 23.4676C31.7283 23.8739 31.5 24.425 31.5 24.9997C31.5 25.5743 31.7283 26.1254 32.1346 26.5317C32.5409 26.9381 33.092 27.1663 33.6667 27.1663C34.2413 27.1663 34.7924 26.9381 35.1987 26.5317C35.6051 26.1254 35.8333 25.5743 35.8333 24.9997Z" stroke="#8E8E8E" stroke-width="1.2" stroke-linecap="round" stroke-linejoin="round"/>
<path d="M27.1673 24.9997C27.1673 24.425 26.939 23.8739 26.5327 23.4676C26.1264 23.0613 25.5753 22.833 25.0007 22.833C24.426 22.833 23.8749 23.0613 23.4686 23.4676C23.0623 23.8739 22.834 24.425 22.834 24.9997C22.834 25.5743 23.0623 26.1254 23.4686 26.5317C23.8749 26.9381 24.426 27.1663 25.0007 27.1663C25.5753 27.1663 26.1264 26.9381 26.5327 26.5317C26.939 26.1254 27.1673 25.5743 27.1673 24.9997Z" stroke="#8E8E8E" stroke-width="1.2" stroke-linecap="round" stroke-linejoin="round"/>
<path d="M18.5 25H22.8333" stroke="#8E8E8E" stroke-width="1.2" stroke-linecap="round" stroke-linejoin="round"/>
<path d="M27.166 25H31.4993" stroke="#8E8E8E" stroke-width="1.2" stroke-linecap="round" stroke-linejoin="round"/>
<path d="M25 18.5V22.8333" stroke="#8E8E8E" stroke-width="1.2" stroke-linecap="round" stroke-linejoin="round"/>
<path d="M25 27.167V31.5003" stroke="#8E8E8E" stroke-width="1.2" stroke-linecap="round" stroke-linejoin="round"/>
</g>
<defs>
<linearGradient id="paint0_linear_828_537" x1="20" y1="9.01592e-07" x2="36.875" y2="65" gradientUnits="userSpaceOnUse">
<stop stop-color="white"/>
<stop offset="1" stop-color="#D0D0D0"/>
</linearGradient>
<clipPath id="clip0_828_537">
<rect width="50" height="50" fill="white"/>
</clipPath>
</defs>
</svg>
