<svg width="50" height="50" viewBox="0 0 50 50" fill="none" xmlns="http://www.w3.org/2000/svg">
<g clip-path="url(#clip0_450_9478)">
<g clip-path="url(#clip1_450_9478)">
<path d="M16.3335 27.1667V23.9167C16.3335 21.6181 17.2466 19.4137 18.8719 17.7884C20.4972 16.1631 22.7016 15.25 25.0002 15.25C27.2987 15.25 29.5031 16.1631 31.1284 17.7884C32.7537 19.4137 33.6668 21.6181 33.6668 23.9167V27.1667" stroke="#8E8E8E" stroke-width="1.2" stroke-linecap="round" stroke-linejoin="round"/>
<path d="M31.5 32.5833C31.5 34.3783 28.5902 35.8333 25 35.8333" stroke="#8E8E8E" stroke-width="1.2" stroke-linecap="round" stroke-linejoin="round"/>
<path d="M16.3335 27.1667C16.3335 26.592 16.5618 26.0409 16.9681 25.6346C17.3744 25.2283 17.9255 25 18.5002 25H19.5835C20.1581 25 20.7092 25.2283 21.1156 25.6346C21.5219 26.0409 21.7502 26.592 21.7502 27.1667V30.4167C21.7502 30.9913 21.5219 31.5424 21.1156 31.9487C20.7092 32.3551 20.1581 32.5833 19.5835 32.5833H18.5002C17.9255 32.5833 17.3744 32.3551 16.9681 31.9487C16.5618 31.5424 16.3335 30.9913 16.3335 30.4167V27.1667Z" stroke="#8E8E8E" stroke-width="1.2" stroke-linecap="round" stroke-linejoin="round"/>
<path d="M28.25 27.1667C28.25 26.592 28.4783 26.0409 28.8846 25.6346C29.2909 25.2283 29.842 25 30.4167 25H31.5C32.0746 25 32.6257 25.2283 33.0321 25.6346C33.4384 26.0409 33.6667 26.592 33.6667 27.1667V30.4167C33.6667 30.9913 33.4384 31.5424 33.0321 31.9487C32.6257 32.3551 32.0746 32.5833 31.5 32.5833H30.4167C29.842 32.5833 29.2909 32.3551 28.8846 31.9487C28.4783 31.5424 28.25 30.9913 28.25 30.4167V27.1667Z" stroke="#8E8E8E" stroke-width="1.2" stroke-linecap="round" stroke-linejoin="round"/>
</g>
<path d="M42.5 0.625H7.5C3.70304 0.625 0.625 3.70304 0.625 7.5V42.5C0.625 46.297 3.70304 49.375 7.5 49.375H42.5C46.297 49.375 49.375 46.297 49.375 42.5V7.5C49.375 3.70304 46.297 0.625 42.5 0.625Z" stroke="url(#paint0_linear_450_9478)" stroke-opacity="0.1"/>
</g>
<defs>
<linearGradient id="paint0_linear_450_9478" x1="20" y1="9.01592e-07" x2="36.875" y2="65" gradientUnits="userSpaceOnUse">
<stop stop-color="white"/>
<stop offset="1" stop-color="#D0D0D0"/>
</linearGradient>
<clipPath id="clip0_450_9478">
<rect width="50" height="50" fill="white"/>
</clipPath>
<clipPath id="clip1_450_9478">
<rect width="26" height="26" fill="white" transform="translate(12 12)"/>
</clipPath>
</defs>
</svg>
