<svg width="50" height="50" viewBox="0 0 50 50" fill="none" xmlns="http://www.w3.org/2000/svg">
<g clip-path="url(#clip0_450_9494)">
<g clip-path="url(#clip1_450_9494)">
<path d="M17.4167 16.3333H21.75L23.9167 21.7499L21.2083 23.3749C22.3685 25.7274 24.2725 27.6314 26.625 28.7916L28.25 26.0833L33.6667 28.2499V32.5833C33.6667 33.1579 33.4384 33.709 33.0321 34.1153C32.6257 34.5216 32.0746 34.7499 31.5 34.7499C27.2742 34.4931 23.2885 32.6986 20.2949 29.705C17.3013 26.7114 15.5068 22.7257 15.25 18.4999C15.25 17.9253 15.4783 17.3742 15.8846 16.9679C16.2909 16.5615 16.842 16.3333 17.4167 16.3333Z" stroke="#8E8E8E" stroke-width="1.2" stroke-linecap="round" stroke-linejoin="round"/>
</g>
<path d="M42.5 0.625H7.5C3.70304 0.625 0.625 3.70304 0.625 7.5V42.5C0.625 46.297 3.70304 49.375 7.5 49.375H42.5C46.297 49.375 49.375 46.297 49.375 42.5V7.5C49.375 3.70304 46.297 0.625 42.5 0.625Z" stroke="url(#paint0_linear_450_9494)" stroke-opacity="0.1"/>
</g>
<defs>
<linearGradient id="paint0_linear_450_9494" x1="20" y1="9.01592e-07" x2="36.875" y2="65" gradientUnits="userSpaceOnUse">
<stop stop-color="white"/>
<stop offset="1" stop-color="#D0D0D0"/>
</linearGradient>
<clipPath id="clip0_450_9494">
<rect width="50" height="50" fill="white"/>
</clipPath>
<clipPath id="clip1_450_9494">
<rect width="26" height="26" fill="white" transform="translate(12 12)"/>
</clipPath>
</defs>
</svg>
