<svg width="50" height="50" viewBox="0 0 50 50" fill="none" xmlns="http://www.w3.org/2000/svg">
<g clip-path="url(#clip0_450_9486)">
<g clip-path="url(#clip1_450_9486)">
<path d="M15.25 19.5834C15.25 19.0088 15.4783 18.4577 15.8846 18.0513C16.2909 17.645 16.842 17.4167 17.4167 17.4167H32.5833C33.158 17.4167 33.7091 17.645 34.1154 18.0513C34.5217 18.4577 34.75 19.0088 34.75 19.5834V30.4167C34.75 30.9914 34.5217 31.5425 34.1154 31.9488C33.7091 32.3551 33.158 32.5834 32.5833 32.5834H17.4167C16.842 32.5834 16.2909 32.3551 15.8846 31.9488C15.4783 31.5425 15.25 30.9914 15.25 30.4167V19.5834Z" stroke="#8E8E8E" stroke-width="1.2" stroke-linecap="round" stroke-linejoin="round"/>
<path d="M15.25 19.5833L25 26.0833L34.75 19.5833" stroke="#8E8E8E" stroke-width="1.2" stroke-linecap="round" stroke-linejoin="round"/>
</g>
<path d="M42.5 0.625H7.5C3.70304 0.625 0.625 3.70304 0.625 7.5V42.5C0.625 46.297 3.70304 49.375 7.5 49.375H42.5C46.297 49.375 49.375 46.297 49.375 42.5V7.5C49.375 3.70304 46.297 0.625 42.5 0.625Z" stroke="url(#paint0_linear_450_9486)" stroke-opacity="0.1"/>
</g>
<defs>
<linearGradient id="paint0_linear_450_9486" x1="20" y1="9.01592e-07" x2="36.875" y2="65" gradientUnits="userSpaceOnUse">
<stop stop-color="white"/>
<stop offset="1" stop-color="#D0D0D0"/>
</linearGradient>
<clipPath id="clip0_450_9486">
<rect width="50" height="50" fill="white"/>
</clipPath>
<clipPath id="clip1_450_9486">
<rect width="26" height="26" fill="white" transform="translate(12 12)"/>
</clipPath>
</defs>
</svg>
